<?xml version="1.0" encoding="utf-8" standalone="no"?>
<!DOCTYPE svg PUBLIC "-//W3C//DTD SVG 1.1//EN"
  "http://www.w3.org/Graphics/SVG/1.1/DTD/svg11.dtd">
<svg xmlns:xlink="http://www.w3.org/1999/xlink" width="360.88905pt" height="199.946125pt" viewBox="0 0 360.88905 199.946125" xmlns="http://www.w3.org/2000/svg" version="1.1">
 <metadata>
  <rdf:RDF xmlns:dc="http://purl.org/dc/elements/1.1/" xmlns:cc="http://creativecommons.org/ns#" xmlns:rdf="http://www.w3.org/1999/02/22-rdf-syntax-ns#">
   <cc:Work>
    <dc:type rdf:resource="http://purl.org/dc/dcmitype/StillImage"/>
    <dc:date>2026-01-13T17:36:33.279846</dc:date>
    <dc:format>image/svg+xml</dc:format>
    <dc:creator>
     <cc:Agent>
      <dc:title>Matplotlib v3.10.0, https://matplotlib.org/</dc:title>
     </cc:Agent>
    </dc:creator>
   </cc:Work>
  </rdf:RDF>
 </metadata>
 <defs>
  <style type="text/css">*{stroke-linejoin: round; stroke-linecap: butt}</style>
 </defs>
 <g id="figure_1">
  <g id="patch_1">
   <path d="M -0 199.946125 
L 360.88905 199.946125 
L 360.88905 0 
L -0 0 
z
" style="fill: #ffffff"/>
  </g>
  <g id="axes_1">
   <g id="patch_2">
    <path d="M 46.965625 161.568 
L 261.853113 161.568 
L 261.853113 7.2 
L 46.965625 7.2 
z
" style="fill: #ffffff"/>
   </g>
   <g id="matplotlib.axis_1">
    <g id="xtick_1">
     <g id="line2d_1">
      <defs>
       <path id="m61d0fbcf2d" d="M 0 0 
L 0 3.5 
" style="stroke: #000000; stroke-width: 0.8"/>
      </defs>
      <g>
       <use xlink:href="#m61d0fbcf2d" x="46.965625" y="161.568" style="stroke: #000000; stroke-width: 0.8"/>
      </g>
     </g>
     <g id="text_1">
      <!-- 0.0 -->
      <g transform="translate(39.014063 176.166438) scale(0.1 -0.1)">
       <defs>
        <path id="DejaVuSans-30" d="M 2034 4250 
Q 1547 4250 1301 3770 
Q 1056 3291 1056 2328 
Q 1056 1369 1301 889 
Q 1547 409 2034 409 
Q 2525 409 2770 889 
Q 3016 1369 3016 2328 
Q 3016 3291 2770 3770 
Q 2525 4250 2034 4250 
z
M 2034 4750 
Q 2819 4750 3233 4129 
Q 3647 3509 3647 2328 
Q 3647 1150 3233 529 
Q 2819 -91 2034 -91 
Q 1250 -91 836 529 
Q 422 1150 422 2328 
Q 422 3509 836 4129 
Q 1250 4750 2034 4750 
z
" transform="scale(0.015625)"/>
        <path id="DejaVuSans-2e" d="M 684 794 
L 1344 794 
L 1344 0 
L 684 0 
L 684 794 
z
" transform="scale(0.015625)"/>
       </defs>
       <use xlink:href="#DejaVuSans-30"/>
       <use xlink:href="#DejaVuSans-2e" transform="translate(63.623047 0)"/>
       <use xlink:href="#DejaVuSans-30" transform="translate(95.410156 0)"/>
      </g>
     </g>
    </g>
    <g id="xtick_2">
     <g id="line2d_2">
      <g>
       <use xlink:href="#m61d0fbcf2d" x="79.056632" y="161.568" style="stroke: #000000; stroke-width: 0.8"/>
      </g>
     </g>
     <g id="text_2">
      <!-- 0.2 -->
      <g transform="translate(71.105069 176.166438) scale(0.1 -0.1)">
       <defs>
        <path id="DejaVuSans-32" d="M 1228 531 
L 3431 531 
L 3431 0 
L 469 0 
L 469 531 
Q 828 903 1448 1529 
Q 2069 2156 2228 2338 
Q 2531 2678 2651 2914 
Q 2772 3150 2772 3378 
Q 2772 3750 2511 3984 
Q 2250 4219 1831 4219 
Q 1534 4219 1204 4116 
Q 875 4013 500 3803 
L 500 4441 
Q 881 4594 1212 4672 
Q 1544 4750 1819 4750 
Q 2544 4750 2975 4387 
Q 3406 4025 3406 3419 
Q 3406 3131 3298 2873 
Q 3191 2616 2906 2266 
Q 2828 2175 2409 1742 
Q 1991 1309 1228 531 
z
" transform="scale(0.015625)"/>
       </defs>
       <use xlink:href="#DejaVuSans-30"/>
       <use xlink:href="#DejaVuSans-2e" transform="translate(63.623047 0)"/>
       <use xlink:href="#DejaVuSans-32" transform="translate(95.410156 0)"/>
      </g>
     </g>
    </g>
    <g id="xtick_3">
     <g id="line2d_3">
      <g>
       <use xlink:href="#m61d0fbcf2d" x="111.147639" y="161.568" style="stroke: #000000; stroke-width: 0.8"/>
      </g>
     </g>
     <g id="text_3">
      <!-- 0.4 -->
      <g transform="translate(103.196076 176.166438) scale(0.1 -0.1)">
       <defs>
        <path id="DejaVuSans-34" d="M 2419 4116 
L 825 1625 
L 2419 1625 
L 2419 4116 
z
M 2253 4666 
L 3047 4666 
L 3047 1625 
L 3713 1625 
L 3713 1100 
L 3047 1100 
L 3047 0 
L 2419 0 
L 2419 1100 
L 313 1100 
L 313 1709 
L 2253 4666 
z
" transform="scale(0.015625)"/>
       </defs>
       <use xlink:href="#DejaVuSans-30"/>
       <use xlink:href="#DejaVuSans-2e" transform="translate(63.623047 0)"/>
       <use xlink:href="#DejaVuSans-34" transform="translate(95.410156 0)"/>
      </g>
     </g>
    </g>
    <g id="xtick_4">
     <g id="line2d_4">
      <g>
       <use xlink:href="#m61d0fbcf2d" x="143.238645" y="161.568" style="stroke: #000000; stroke-width: 0.8"/>
      </g>
     </g>
     <g id="text_4">
      <!-- 0.6 -->
      <g transform="translate(135.287083 176.166438) scale(0.1 -0.1)">
       <defs>
        <path id="DejaVuSans-36" d="M 2113 2584 
Q 1688 2584 1439 2293 
Q 1191 2003 1191 1497 
Q 1191 994 1439 701 
Q 1688 409 2113 409 
Q 2538 409 2786 701 
Q 3034 994 3034 1497 
Q 3034 2003 2786 2293 
Q 2538 2584 2113 2584 
z
M 3366 4563 
L 3366 3988 
Q 3128 4100 2886 4159 
Q 2644 4219 2406 4219 
Q 1781 4219 1451 3797 
Q 1122 3375 1075 2522 
Q 1259 2794 1537 2939 
Q 1816 3084 2150 3084 
Q 2853 3084 3261 2657 
Q 3669 2231 3669 1497 
Q 3669 778 3244 343 
Q 2819 -91 2113 -91 
Q 1303 -91 875 529 
Q 447 1150 447 2328 
Q 447 3434 972 4092 
Q 1497 4750 2381 4750 
Q 2619 4750 2861 4703 
Q 3103 4656 3366 4563 
z
" transform="scale(0.015625)"/>
       </defs>
       <use xlink:href="#DejaVuSans-30"/>
       <use xlink:href="#DejaVuSans-2e" transform="translate(63.623047 0)"/>
       <use xlink:href="#DejaVuSans-36" transform="translate(95.410156 0)"/>
      </g>
     </g>
    </g>
    <g id="xtick_5">
     <g id="line2d_5">
      <g>
       <use xlink:href="#m61d0fbcf2d" x="175.329652" y="161.568" style="stroke: #000000; stroke-width: 0.8"/>
      </g>
     </g>
     <g id="text_5">
      <!-- 0.8 -->
      <g transform="translate(167.37809 176.166438) scale(0.1 -0.1)">
       <defs>
        <path id="DejaVuSans-38" d="M 2034 2216 
Q 1584 2216 1326 1975 
Q 1069 1734 1069 1313 
Q 1069 891 1326 650 
Q 1584 409 2034 409 
Q 2484 409 2743 651 
Q 3003 894 3003 1313 
Q 3003 1734 2745 1975 
Q 2488 2216 2034 2216 
z
M 1403 2484 
Q 997 2584 770 2862 
Q 544 3141 544 3541 
Q 544 4100 942 4425 
Q 1341 4750 2034 4750 
Q 2731 4750 3128 4425 
Q 3525 4100 3525 3541 
Q 3525 3141 3298 2862 
Q 3072 2584 2669 2484 
Q 3125 2378 3379 2068 
Q 3634 1759 3634 1313 
Q 3634 634 3220 271 
Q 2806 -91 2034 -91 
Q 1263 -91 848 271 
Q 434 634 434 1313 
Q 434 1759 690 2068 
Q 947 2378 1403 2484 
z
M 1172 3481 
Q 1172 3119 1398 2916 
Q 1625 2713 2034 2713 
Q 2441 2713 2670 2916 
Q 2900 3119 2900 3481 
Q 2900 3844 2670 4047 
Q 2441 4250 2034 4250 
Q 1625 4250 1398 4047 
Q 1172 3844 1172 3481 
z
" transform="scale(0.015625)"/>
       </defs>
       <use xlink:href="#DejaVuSans-30"/>
       <use xlink:href="#DejaVuSans-2e" transform="translate(63.623047 0)"/>
       <use xlink:href="#DejaVuSans-38" transform="translate(95.410156 0)"/>
      </g>
     </g>
    </g>
    <g id="xtick_6">
     <g id="line2d_6">
      <g>
       <use xlink:href="#m61d0fbcf2d" x="207.420659" y="161.568" style="stroke: #000000; stroke-width: 0.8"/>
      </g>
     </g>
     <g id="text_6">
      <!-- 1.0 -->
      <g transform="translate(199.469096 176.166438) scale(0.1 -0.1)">
       <defs>
        <path id="DejaVuSans-31" d="M 794 531 
L 1825 531 
L 1825 4091 
L 703 3866 
L 703 4441 
L 1819 4666 
L 2450 4666 
L 2450 531 
L 3481 531 
L 3481 0 
L 794 0 
L 794 531 
z
" transform="scale(0.015625)"/>
       </defs>
       <use xlink:href="#DejaVuSans-31"/>
       <use xlink:href="#DejaVuSans-2e" transform="translate(63.623047 0)"/>
       <use xlink:href="#DejaVuSans-30" transform="translate(95.410156 0)"/>
      </g>
     </g>
    </g>
    <g id="xtick_7">
     <g id="line2d_7">
      <g>
       <use xlink:href="#m61d0fbcf2d" x="239.511666" y="161.568" style="stroke: #000000; stroke-width: 0.8"/>
      </g>
     </g>
     <g id="text_7">
      <!-- 1.2 -->
      <g transform="translate(231.560103 176.166438) scale(0.1 -0.1)">
       <use xlink:href="#DejaVuSans-31"/>
       <use xlink:href="#DejaVuSans-2e" transform="translate(63.623047 0)"/>
       <use xlink:href="#DejaVuSans-32" transform="translate(95.410156 0)"/>
      </g>
     </g>
    </g>
    <g id="text_8">
     <!-- $Σ[Amine]^{1.79}[Phenol]^{-0.11}[ArOPh]^{1.01}Δt$. -->
     <g transform="translate(57.559369 190.666438) scale(0.1 -0.1)">
      <defs>
       <path id="DejaVuSans-3a3" d="M 1353 531 
L 3634 531 
L 3634 0 
L 628 0 
L 628 531 
L 2125 2481 
L 628 4134 
L 628 4666 
L 3578 4666 
L 3578 4134 
L 1353 4134 
L 2850 2494 
L 1353 531 
z
" transform="scale(0.015625)"/>
       <path id="DejaVuSans-5b" d="M 550 4863 
L 1875 4863 
L 1875 4416 
L 1125 4416 
L 1125 -397 
L 1875 -397 
L 1875 -844 
L 550 -844 
L 550 4863 
z
" transform="scale(0.015625)"/>
       <path id="DejaVuSans-Oblique-41" d="M 2356 4666 
L 3072 4666 
L 3938 0 
L 3278 0 
L 3084 1197 
L 984 1197 
L 325 0 
L -341 0 
L 2356 4666 
z
M 2584 4044 
L 1275 1722 
L 2988 1722 
L 2584 4044 
z
" transform="scale(0.015625)"/>
       <path id="DejaVuSans-Oblique-6d" d="M 5747 2113 
L 5338 0 
L 4763 0 
L 5166 2094 
Q 5191 2228 5203 2325 
Q 5216 2422 5216 2491 
Q 5216 2772 5059 2928 
Q 4903 3084 4622 3084 
Q 4203 3084 3875 2770 
Q 3547 2456 3450 1953 
L 3066 0 
L 2491 0 
L 2900 2094 
Q 2925 2209 2937 2307 
Q 2950 2406 2950 2484 
Q 2950 2769 2794 2926 
Q 2638 3084 2363 3084 
Q 1938 3084 1609 2770 
Q 1281 2456 1184 1953 
L 800 0 
L 225 0 
L 909 3500 
L 1484 3500 
L 1375 2956 
Q 1609 3263 1923 3423 
Q 2238 3584 2597 3584 
Q 2978 3584 3223 3384 
Q 3469 3184 3519 2828 
Q 3781 3197 4126 3390 
Q 4472 3584 4856 3584 
Q 5306 3584 5551 3325 
Q 5797 3066 5797 2591 
Q 5797 2488 5784 2364 
Q 5772 2241 5747 2113 
z
" transform="scale(0.015625)"/>
       <path id="DejaVuSans-Oblique-69" d="M 1172 4863 
L 1747 4863 
L 1606 4134 
L 1031 4134 
L 1172 4863 
z
M 909 3500 
L 1484 3500 
L 800 0 
L 225 0 
L 909 3500 
z
" transform="scale(0.015625)"/>
       <path id="DejaVuSans-Oblique-6e" d="M 3566 2113 
L 3156 0 
L 2578 0 
L 2988 2091 
Q 3016 2238 3031 2350 
Q 3047 2463 3047 2528 
Q 3047 2791 2881 2937 
Q 2716 3084 2419 3084 
Q 1956 3084 1622 2776 
Q 1288 2469 1184 1941 
L 800 0 
L 225 0 
L 903 3500 
L 1478 3500 
L 1363 2950 
Q 1603 3253 1940 3418 
Q 2278 3584 2650 3584 
Q 3113 3584 3367 3334 
Q 3622 3084 3622 2631 
Q 3622 2519 3608 2391 
Q 3594 2263 3566 2113 
z
" transform="scale(0.015625)"/>
       <path id="DejaVuSans-Oblique-65" d="M 3078 2063 
Q 3088 2113 3092 2166 
Q 3097 2219 3097 2272 
Q 3097 2653 2873 2875 
Q 2650 3097 2266 3097 
Q 1838 3097 1509 2826 
Q 1181 2556 1013 2059 
L 3078 2063 
z
M 3578 1613 
L 903 1613 
Q 884 1494 878 1425 
Q 872 1356 872 1306 
Q 872 872 1139 634 
Q 1406 397 1894 397 
Q 2269 397 2603 481 
Q 2938 566 3225 728 
L 3116 159 
Q 2806 34 2476 -28 
Q 2147 -91 1806 -91 
Q 1078 -91 686 257 
Q 294 606 294 1247 
Q 294 1794 489 2264 
Q 684 2734 1063 3103 
Q 1306 3334 1642 3459 
Q 1978 3584 2356 3584 
Q 2950 3584 3301 3228 
Q 3653 2872 3653 2272 
Q 3653 2128 3634 1964 
Q 3616 1800 3578 1613 
z
" transform="scale(0.015625)"/>
       <path id="DejaVuSans-5d" d="M 1947 4863 
L 1947 -844 
L 622 -844 
L 622 -397 
L 1369 -397 
L 1369 4416 
L 622 4416 
L 622 4863 
L 1947 4863 
z
" transform="scale(0.015625)"/>
       <path id="DejaVuSans-37" d="M 525 4666 
L 3525 4666 
L 3525 4397 
L 1831 0 
L 1172 0 
L 2766 4134 
L 525 4134 
L 525 4666 
z
" transform="scale(0.015625)"/>
       <path id="DejaVuSans-39" d="M 703 97 
L 703 672 
Q 941 559 1184 500 
Q 1428 441 1663 441 
Q 2288 441 2617 861 
Q 2947 1281 2994 2138 
Q 2813 1869 2534 1725 
Q 2256 1581 1919 1581 
Q 1219 1581 811 2004 
Q 403 2428 403 3163 
Q 403 3881 828 4315 
Q 1253 4750 1959 4750 
Q 2769 4750 3195 4129 
Q 3622 3509 3622 2328 
Q 3622 1225 3098 567 
Q 2575 -91 1691 -91 
Q 1453 -91 1209 -44 
Q 966 3 703 97 
z
M 1959 2075 
Q 2384 2075 2632 2365 
Q 2881 2656 2881 3163 
Q 2881 3666 2632 3958 
Q 2384 4250 1959 4250 
Q 1534 4250 1286 3958 
Q 1038 3666 1038 3163 
Q 1038 2656 1286 2365 
Q 1534 2075 1959 2075 
z
" transform="scale(0.015625)"/>
       <path id="DejaVuSans-Oblique-50" d="M 1081 4666 
L 2541 4666 
Q 3178 4666 3512 4369 
Q 3847 4072 3847 3500 
Q 3847 2731 3353 2303 
Q 2859 1875 1966 1875 
L 1172 1875 
L 806 0 
L 172 0 
L 1081 4666 
z
M 1613 4147 
L 1275 2394 
L 2069 2394 
Q 2606 2394 2893 2669 
Q 3181 2944 3181 3456 
Q 3181 3784 2986 3965 
Q 2791 4147 2438 4147 
L 1613 4147 
z
" transform="scale(0.015625)"/>
       <path id="DejaVuSans-Oblique-68" d="M 3566 2113 
L 3156 0 
L 2578 0 
L 2988 2091 
Q 3016 2238 3031 2350 
Q 3047 2463 3047 2528 
Q 3047 2791 2881 2937 
Q 2716 3084 2419 3084 
Q 1956 3084 1617 2771 
Q 1278 2459 1178 1941 
L 800 0 
L 225 0 
L 1172 4863 
L 1747 4863 
L 1375 2950 
Q 1594 3244 1934 3414 
Q 2275 3584 2650 3584 
Q 3113 3584 3367 3334 
Q 3622 3084 3622 2631 
Q 3622 2519 3608 2391 
Q 3594 2263 3566 2113 
z
" transform="scale(0.015625)"/>
       <path id="DejaVuSans-Oblique-6f" d="M 1625 -91 
Q 1009 -91 651 289 
Q 294 669 294 1325 
Q 294 1706 417 2101 
Q 541 2497 738 2766 
Q 1047 3184 1428 3384 
Q 1809 3584 2291 3584 
Q 2888 3584 3255 3212 
Q 3622 2841 3622 2241 
Q 3622 1825 3500 1412 
Q 3378 1000 3181 728 
Q 2875 309 2494 109 
Q 2113 -91 1625 -91 
z
M 891 1344 
Q 891 869 1089 633 
Q 1288 397 1691 397 
Q 2269 397 2648 901 
Q 3028 1406 3028 2181 
Q 3028 2634 2825 2865 
Q 2622 3097 2228 3097 
Q 1903 3097 1650 2945 
Q 1397 2794 1197 2484 
Q 1050 2253 970 1956 
Q 891 1659 891 1344 
z
" transform="scale(0.015625)"/>
       <path id="DejaVuSans-Oblique-6c" d="M 1172 4863 
L 1747 4863 
L 800 0 
L 225 0 
L 1172 4863 
z
" transform="scale(0.015625)"/>
       <path id="DejaVuSans-2212" d="M 678 2272 
L 4684 2272 
L 4684 1741 
L 678 1741 
L 678 2272 
z
" transform="scale(0.015625)"/>
       <path id="DejaVuSans-Oblique-72" d="M 2853 2969 
Q 2766 3016 2653 3041 
Q 2541 3066 2413 3066 
Q 1953 3066 1609 2717 
Q 1266 2369 1153 1784 
L 800 0 
L 225 0 
L 909 3500 
L 1484 3500 
L 1375 2956 
Q 1603 3259 1920 3421 
Q 2238 3584 2597 3584 
Q 2691 3584 2781 3573 
Q 2872 3563 2963 3538 
L 2853 2969 
z
" transform="scale(0.015625)"/>
       <path id="DejaVuSans-Oblique-4f" d="M 2919 4238 
Q 2400 4238 2003 3986 
Q 1606 3734 1313 3219 
Q 1125 2891 1026 2522 
Q 928 2153 928 1778 
Q 928 1128 1239 775 
Q 1550 422 2119 422 
Q 2631 422 3032 676 
Q 3434 931 3719 1434 
Q 3909 1772 4009 2142 
Q 4109 2513 4109 2881 
Q 4109 3528 3796 3883 
Q 3484 4238 2919 4238 
z
M 2100 -91 
Q 1241 -91 748 418 
Q 256 928 256 1813 
Q 256 2319 448 2847 
Q 641 3375 978 3788 
Q 1375 4272 1862 4511 
Q 2350 4750 2938 4750 
Q 3794 4750 4287 4245 
Q 4781 3741 4781 2869 
Q 4781 2331 4593 1812 
Q 4406 1294 4056 872 
Q 3656 384 3173 146 
Q 2691 -91 2100 -91 
z
" transform="scale(0.015625)"/>
       <path id="DejaVuSans-394" d="M 2188 4044 
L 906 525 
L 3472 525 
L 2188 4044 
z
M 50 0 
L 1831 4666 
L 2547 4666 
L 4325 0 
L 50 0 
z
" transform="scale(0.015625)"/>
       <path id="DejaVuSans-Oblique-74" d="M 2706 3500 
L 2619 3053 
L 1472 3053 
L 1100 1153 
Q 1081 1047 1072 975 
Q 1063 903 1063 863 
Q 1063 663 1183 572 
Q 1303 481 1569 481 
L 2150 481 
L 2053 0 
L 1503 0 
Q 991 0 739 200 
Q 488 400 488 806 
Q 488 878 497 964 
Q 506 1050 525 1153 
L 897 3053 
L 409 3053 
L 500 3500 
L 978 3500 
L 1172 4494 
L 1747 4494 
L 1556 3500 
L 2706 3500 
z
" transform="scale(0.015625)"/>
      </defs>
      <use xlink:href="#DejaVuSans-3a3" transform="translate(0 0.765625)"/>
      <use xlink:href="#DejaVuSans-5b" transform="translate(63.183594 0.765625)"/>
      <use xlink:href="#DejaVuSans-Oblique-41" transform="translate(102.197266 0.765625)"/>
      <use xlink:href="#DejaVuSans-Oblique-6d" transform="translate(170.605469 0.765625)"/>
      <use xlink:href="#DejaVuSans-Oblique-69" transform="translate(268.017578 0.765625)"/>
      <use xlink:href="#DejaVuSans-Oblique-6e" transform="translate(295.800781 0.765625)"/>
      <use xlink:href="#DejaVuSans-Oblique-65" transform="translate(359.179688 0.765625)"/>
      <use xlink:href="#DejaVuSans-5d" transform="translate(420.703125 0.765625)"/>
      <use xlink:href="#DejaVuSans-31" transform="translate(460.673828 39.046875) scale(0.7)"/>
      <use xlink:href="#DejaVuSans-2e" transform="translate(505.209961 39.046875) scale(0.7)"/>
      <use xlink:href="#DejaVuSans-37" transform="translate(522.035938 39.046875) scale(0.7)"/>
      <use xlink:href="#DejaVuSans-39" transform="translate(566.57207 39.046875) scale(0.7)"/>
      <use xlink:href="#DejaVuSans-5b" transform="translate(613.842578 0.765625)"/>
      <use xlink:href="#DejaVuSans-Oblique-50" transform="translate(652.85625 0.765625)"/>
      <use xlink:href="#DejaVuSans-Oblique-68" transform="translate(713.158984 0.765625)"/>
      <use xlink:href="#DejaVuSans-Oblique-65" transform="translate(776.537891 0.765625)"/>
      <use xlink:href="#DejaVuSans-Oblique-6e" transform="translate(838.061328 0.765625)"/>
      <use xlink:href="#DejaVuSans-Oblique-6f" transform="translate(901.440234 0.765625)"/>
      <use xlink:href="#DejaVuSans-Oblique-6c" transform="translate(962.621875 0.765625)"/>
      <use xlink:href="#DejaVuSans-5d" transform="translate(990.405078 0.765625)"/>
      <use xlink:href="#DejaVuSans-2212" transform="translate(1030.375781 39.046875) scale(0.7)"/>
      <use xlink:href="#DejaVuSans-30" transform="translate(1089.028125 39.046875) scale(0.7)"/>
      <use xlink:href="#DejaVuSans-2e" transform="translate(1133.564258 39.046875) scale(0.7)"/>
      <use xlink:href="#DejaVuSans-31" transform="translate(1155.815234 39.046875) scale(0.7)"/>
      <use xlink:href="#DejaVuSans-31" transform="translate(1200.351367 39.046875) scale(0.7)"/>
      <use xlink:href="#DejaVuSans-5b" transform="translate(1247.621875 0.765625)"/>
      <use xlink:href="#DejaVuSans-Oblique-41" transform="translate(1286.635547 0.765625)"/>
      <use xlink:href="#DejaVuSans-Oblique-72" transform="translate(1355.04375 0.765625)"/>
      <use xlink:href="#DejaVuSans-Oblique-4f" transform="translate(1396.157031 0.765625)"/>
      <use xlink:href="#DejaVuSans-Oblique-50" transform="translate(1474.867969 0.765625)"/>
      <use xlink:href="#DejaVuSans-Oblique-68" transform="translate(1535.170703 0.765625)"/>
      <use xlink:href="#DejaVuSans-5d" transform="translate(1598.549609 0.765625)"/>
      <use xlink:href="#DejaVuSans-31" transform="translate(1638.520313 39.046875) scale(0.7)"/>
      <use xlink:href="#DejaVuSans-2e" transform="translate(1683.056445 39.046875) scale(0.7)"/>
      <use xlink:href="#DejaVuSans-30" transform="translate(1705.307422 39.046875) scale(0.7)"/>
      <use xlink:href="#DejaVuSans-31" transform="translate(1749.843555 39.046875) scale(0.7)"/>
      <use xlink:href="#DejaVuSans-394" transform="translate(1797.114063 0.765625)"/>
      <use xlink:href="#DejaVuSans-Oblique-74" transform="translate(1865.522266 0.765625)"/>
      <use xlink:href="#DejaVuSans-2e" transform="translate(1904.73125 0.765625)"/>
     </g>
    </g>
    <g id="text_9">
     <!-- 1e5 -->
     <g transform="translate(256.942674 188.844562) scale(0.1 -0.1)">
      <defs>
       <path id="DejaVuSans-65" d="M 3597 1894 
L 3597 1613 
L 953 1613 
Q 991 1019 1311 708 
Q 1631 397 2203 397 
Q 2534 397 2845 478 
Q 3156 559 3463 722 
L 3463 178 
Q 3153 47 2828 -22 
Q 2503 -91 2169 -91 
Q 1331 -91 842 396 
Q 353 884 353 1716 
Q 353 2575 817 3079 
Q 1281 3584 2069 3584 
Q 2775 3584 3186 3129 
Q 3597 2675 3597 1894 
z
M 3022 2063 
Q 3016 2534 2758 2815 
Q 2500 3097 2075 3097 
Q 1594 3097 1305 2825 
Q 1016 2553 972 2059 
L 3022 2063 
z
" transform="scale(0.015625)"/>
       <path id="DejaVuSans-35" d="M 691 4666 
L 3169 4666 
L 3169 4134 
L 1269 4134 
L 1269 2991 
Q 1406 3038 1543 3061 
Q 1681 3084 1819 3084 
Q 2600 3084 3056 2656 
Q 3513 2228 3513 1497 
Q 3513 744 3044 326 
Q 2575 -91 1722 -91 
Q 1428 -91 1123 -41 
Q 819 9 494 109 
L 494 744 
Q 775 591 1075 516 
Q 1375 441 1709 441 
Q 2250 441 2565 725 
Q 2881 1009 2881 1497 
Q 2881 1984 2565 2268 
Q 2250 2553 1709 2553 
Q 1456 2553 1204 2497 
Q 953 2441 691 2322 
L 691 4666 
z
" transform="scale(0.015625)"/>
      </defs>
      <use xlink:href="#DejaVuSans-31"/>
      <use xlink:href="#DejaVuSans-65" transform="translate(63.623047 0)"/>
      <use xlink:href="#DejaVuSans-35" transform="translate(125.146484 0)"/>
     </g>
    </g>
   </g>
   <g id="matplotlib.axis_2">
    <g id="ytick_1">
     <g id="line2d_8">
      <defs>
       <path id="m69dd8e964f" d="M 0 0 
L -3.5 0 
" style="stroke: #000000; stroke-width: 0.8"/>
      </defs>
      <g>
       <use xlink:href="#m69dd8e964f" x="46.965625" y="154.731462" style="stroke: #000000; stroke-width: 0.8"/>
      </g>
     </g>
     <g id="text_10">
      <!-- 90 -->
      <g transform="translate(27.240625 158.530681) scale(0.1 -0.1)">
       <use xlink:href="#DejaVuSans-39"/>
       <use xlink:href="#DejaVuSans-30" transform="translate(63.623047 0)"/>
      </g>
     </g>
    </g>
    <g id="ytick_2">
     <g id="line2d_9">
      <g>
       <use xlink:href="#m69dd8e964f" x="46.965625" y="113.368641" style="stroke: #000000; stroke-width: 0.8"/>
      </g>
     </g>
     <g id="text_11">
      <!-- 100 -->
      <g transform="translate(20.878125 117.16786) scale(0.1 -0.1)">
       <use xlink:href="#DejaVuSans-31"/>
       <use xlink:href="#DejaVuSans-30" transform="translate(63.623047 0)"/>
       <use xlink:href="#DejaVuSans-30" transform="translate(127.246094 0)"/>
      </g>
     </g>
    </g>
    <g id="ytick_3">
     <g id="line2d_10">
      <g>
       <use xlink:href="#m69dd8e964f" x="46.965625" y="72.00582" style="stroke: #000000; stroke-width: 0.8"/>
      </g>
     </g>
     <g id="text_12">
      <!-- 110 -->
      <g transform="translate(20.878125 75.805039) scale(0.1 -0.1)">
       <use xlink:href="#DejaVuSans-31"/>
       <use xlink:href="#DejaVuSans-31" transform="translate(63.623047 0)"/>
       <use xlink:href="#DejaVuSans-30" transform="translate(127.246094 0)"/>
      </g>
     </g>
    </g>
    <g id="ytick_4">
     <g id="line2d_11">
      <g>
       <use xlink:href="#m69dd8e964f" x="46.965625" y="30.642999" style="stroke: #000000; stroke-width: 0.8"/>
      </g>
     </g>
     <g id="text_13">
      <!-- 120 -->
      <g transform="translate(20.878125 34.442217) scale(0.1 -0.1)">
       <use xlink:href="#DejaVuSans-31"/>
       <use xlink:href="#DejaVuSans-32" transform="translate(63.623047 0)"/>
       <use xlink:href="#DejaVuSans-30" transform="translate(127.246094 0)"/>
      </g>
     </g>
    </g>
    <g id="text_14">
     <!-- Shifted [Product] / mM -->
     <g transform="translate(14.798438 140.519156) rotate(-90) scale(0.1 -0.1)">
      <defs>
       <path id="DejaVuSans-53" d="M 3425 4513 
L 3425 3897 
Q 3066 4069 2747 4153 
Q 2428 4238 2131 4238 
Q 1616 4238 1336 4038 
Q 1056 3838 1056 3469 
Q 1056 3159 1242 3001 
Q 1428 2844 1947 2747 
L 2328 2669 
Q 3034 2534 3370 2195 
Q 3706 1856 3706 1288 
Q 3706 609 3251 259 
Q 2797 -91 1919 -91 
Q 1588 -91 1214 -16 
Q 841 59 441 206 
L 441 856 
Q 825 641 1194 531 
Q 1563 422 1919 422 
Q 2459 422 2753 634 
Q 3047 847 3047 1241 
Q 3047 1584 2836 1778 
Q 2625 1972 2144 2069 
L 1759 2144 
Q 1053 2284 737 2584 
Q 422 2884 422 3419 
Q 422 4038 858 4394 
Q 1294 4750 2059 4750 
Q 2388 4750 2728 4690 
Q 3069 4631 3425 4513 
z
" transform="scale(0.015625)"/>
       <path id="DejaVuSans-68" d="M 3513 2113 
L 3513 0 
L 2938 0 
L 2938 2094 
Q 2938 2591 2744 2837 
Q 2550 3084 2163 3084 
Q 1697 3084 1428 2787 
Q 1159 2491 1159 1978 
L 1159 0 
L 581 0 
L 581 4863 
L 1159 4863 
L 1159 2956 
Q 1366 3272 1645 3428 
Q 1925 3584 2291 3584 
Q 2894 3584 3203 3211 
Q 3513 2838 3513 2113 
z
" transform="scale(0.015625)"/>
       <path id="DejaVuSans-69" d="M 603 3500 
L 1178 3500 
L 1178 0 
L 603 0 
L 603 3500 
z
M 603 4863 
L 1178 4863 
L 1178 4134 
L 603 4134 
L 603 4863 
z
" transform="scale(0.015625)"/>
       <path id="DejaVuSans-66" d="M 2375 4863 
L 2375 4384 
L 1825 4384 
Q 1516 4384 1395 4259 
Q 1275 4134 1275 3809 
L 1275 3500 
L 2222 3500 
L 2222 3053 
L 1275 3053 
L 1275 0 
L 697 0 
L 697 3053 
L 147 3053 
L 147 3500 
L 697 3500 
L 697 3744 
Q 697 4328 969 4595 
Q 1241 4863 1831 4863 
L 2375 4863 
z
" transform="scale(0.015625)"/>
       <path id="DejaVuSans-74" d="M 1172 4494 
L 1172 3500 
L 2356 3500 
L 2356 3053 
L 1172 3053 
L 1172 1153 
Q 1172 725 1289 603 
Q 1406 481 1766 481 
L 2356 481 
L 2356 0 
L 1766 0 
Q 1100 0 847 248 
Q 594 497 594 1153 
L 594 3053 
L 172 3053 
L 172 3500 
L 594 3500 
L 594 4494 
L 1172 4494 
z
" transform="scale(0.015625)"/>
       <path id="DejaVuSans-64" d="M 2906 2969 
L 2906 4863 
L 3481 4863 
L 3481 0 
L 2906 0 
L 2906 525 
Q 2725 213 2448 61 
Q 2172 -91 1784 -91 
Q 1150 -91 751 415 
Q 353 922 353 1747 
Q 353 2572 751 3078 
Q 1150 3584 1784 3584 
Q 2172 3584 2448 3432 
Q 2725 3281 2906 2969 
z
M 947 1747 
Q 947 1113 1208 752 
Q 1469 391 1925 391 
Q 2381 391 2643 752 
Q 2906 1113 2906 1747 
Q 2906 2381 2643 2742 
Q 2381 3103 1925 3103 
Q 1469 3103 1208 2742 
Q 947 2381 947 1747 
z
" transform="scale(0.015625)"/>
       <path id="DejaVuSans-20" transform="scale(0.015625)"/>
       <path id="DejaVuSans-50" d="M 1259 4147 
L 1259 2394 
L 2053 2394 
Q 2494 2394 2734 2622 
Q 2975 2850 2975 3272 
Q 2975 3691 2734 3919 
Q 2494 4147 2053 4147 
L 1259 4147 
z
M 628 4666 
L 2053 4666 
Q 2838 4666 3239 4311 
Q 3641 3956 3641 3272 
Q 3641 2581 3239 2228 
Q 2838 1875 2053 1875 
L 1259 1875 
L 1259 0 
L 628 0 
L 628 4666 
z
" transform="scale(0.015625)"/>
       <path id="DejaVuSans-72" d="M 2631 2963 
Q 2534 3019 2420 3045 
Q 2306 3072 2169 3072 
Q 1681 3072 1420 2755 
Q 1159 2438 1159 1844 
L 1159 0 
L 581 0 
L 581 3500 
L 1159 3500 
L 1159 2956 
Q 1341 3275 1631 3429 
Q 1922 3584 2338 3584 
Q 2397 3584 2469 3576 
Q 2541 3569 2628 3553 
L 2631 2963 
z
" transform="scale(0.015625)"/>
       <path id="DejaVuSans-6f" d="M 1959 3097 
Q 1497 3097 1228 2736 
Q 959 2375 959 1747 
Q 959 1119 1226 758 
Q 1494 397 1959 397 
Q 2419 397 2687 759 
Q 2956 1122 2956 1747 
Q 2956 2369 2687 2733 
Q 2419 3097 1959 3097 
z
M 1959 3584 
Q 2709 3584 3137 3096 
Q 3566 2609 3566 1747 
Q 3566 888 3137 398 
Q 2709 -91 1959 -91 
Q 1206 -91 779 398 
Q 353 888 353 1747 
Q 353 2609 779 3096 
Q 1206 3584 1959 3584 
z
" transform="scale(0.015625)"/>
       <path id="DejaVuSans-75" d="M 544 1381 
L 544 3500 
L 1119 3500 
L 1119 1403 
Q 1119 906 1312 657 
Q 1506 409 1894 409 
Q 2359 409 2629 706 
Q 2900 1003 2900 1516 
L 2900 3500 
L 3475 3500 
L 3475 0 
L 2900 0 
L 2900 538 
Q 2691 219 2414 64 
Q 2138 -91 1772 -91 
Q 1169 -91 856 284 
Q 544 659 544 1381 
z
M 1991 3584 
L 1991 3584 
z
" transform="scale(0.015625)"/>
       <path id="DejaVuSans-63" d="M 3122 3366 
L 3122 2828 
Q 2878 2963 2633 3030 
Q 2388 3097 2138 3097 
Q 1578 3097 1268 2742 
Q 959 2388 959 1747 
Q 959 1106 1268 751 
Q 1578 397 2138 397 
Q 2388 397 2633 464 
Q 2878 531 3122 666 
L 3122 134 
Q 2881 22 2623 -34 
Q 2366 -91 2075 -91 
Q 1284 -91 818 406 
Q 353 903 353 1747 
Q 353 2603 823 3093 
Q 1294 3584 2113 3584 
Q 2378 3584 2631 3529 
Q 2884 3475 3122 3366 
z
" transform="scale(0.015625)"/>
       <path id="DejaVuSans-2f" d="M 1625 4666 
L 2156 4666 
L 531 -594 
L 0 -594 
L 1625 4666 
z
" transform="scale(0.015625)"/>
       <path id="DejaVuSans-6d" d="M 3328 2828 
Q 3544 3216 3844 3400 
Q 4144 3584 4550 3584 
Q 5097 3584 5394 3201 
Q 5691 2819 5691 2113 
L 5691 0 
L 5113 0 
L 5113 2094 
Q 5113 2597 4934 2840 
Q 4756 3084 4391 3084 
Q 3944 3084 3684 2787 
Q 3425 2491 3425 1978 
L 3425 0 
L 2847 0 
L 2847 2094 
Q 2847 2600 2669 2842 
Q 2491 3084 2119 3084 
Q 1678 3084 1418 2786 
Q 1159 2488 1159 1978 
L 1159 0 
L 581 0 
L 581 3500 
L 1159 3500 
L 1159 2956 
Q 1356 3278 1631 3431 
Q 1906 3584 2284 3584 
Q 2666 3584 2933 3390 
Q 3200 3197 3328 2828 
z
" transform="scale(0.015625)"/>
       <path id="DejaVuSans-4d" d="M 628 4666 
L 1569 4666 
L 2759 1491 
L 3956 4666 
L 4897 4666 
L 4897 0 
L 4281 0 
L 4281 4097 
L 3078 897 
L 2444 897 
L 1241 4097 
L 1241 0 
L 628 0 
L 628 4666 
z
" transform="scale(0.015625)"/>
      </defs>
      <use xlink:href="#DejaVuSans-53"/>
      <use xlink:href="#DejaVuSans-68" transform="translate(63.476562 0)"/>
      <use xlink:href="#DejaVuSans-69" transform="translate(126.855469 0)"/>
      <use xlink:href="#DejaVuSans-66" transform="translate(154.638672 0)"/>
      <use xlink:href="#DejaVuSans-74" transform="translate(188.09375 0)"/>
      <use xlink:href="#DejaVuSans-65" transform="translate(227.302734 0)"/>
      <use xlink:href="#DejaVuSans-64" transform="translate(288.826172 0)"/>
      <use xlink:href="#DejaVuSans-20" transform="translate(352.302734 0)"/>
      <use xlink:href="#DejaVuSans-5b" transform="translate(384.089844 0)"/>
      <use xlink:href="#DejaVuSans-50" transform="translate(423.103516 0)"/>
      <use xlink:href="#DejaVuSans-72" transform="translate(481.65625 0)"/>
      <use xlink:href="#DejaVuSans-6f" transform="translate(520.519531 0)"/>
      <use xlink:href="#DejaVuSans-64" transform="translate(581.701172 0)"/>
      <use xlink:href="#DejaVuSans-75" transform="translate(645.177734 0)"/>
      <use xlink:href="#DejaVuSans-63" transform="translate(708.556641 0)"/>
      <use xlink:href="#DejaVuSans-74" transform="translate(763.537109 0)"/>
      <use xlink:href="#DejaVuSans-5d" transform="translate(802.746094 0)"/>
      <use xlink:href="#DejaVuSans-20" transform="translate(841.759766 0)"/>
      <use xlink:href="#DejaVuSans-2f" transform="translate(873.546875 0)"/>
      <use xlink:href="#DejaVuSans-20" transform="translate(907.238281 0)"/>
      <use xlink:href="#DejaVuSans-6d" transform="translate(939.025391 0)"/>
      <use xlink:href="#DejaVuSans-4d" transform="translate(1036.4375 0)"/>
     </g>
    </g>
   </g>
   <g id="line2d_12">
    <path d="M 46.965625 154.551273 
L 53.201656 152.044864 
L 72.335963 140.453117 
L 87.08845 130.681947 
L 99.533852 122.434112 
L 109.751114 114.819887 
L 118.509373 108.696312 
L 126.065476 102.457075 
L 132.93317 98.105586 
L 138.777921 92.257154 
L 143.837558 87.463474 
L 148.487546 83.863611 
L 152.527135 80.008228 
L 156.218647 77.691551 
L 159.632776 75.371008 
L 162.859653 72.211564 
L 165.741191 70.692312 
L 168.419278 67.654175 
L 170.953948 65.799387 
L 173.221767 63.684164 
L 175.354966 62.618122 
L 177.374015 60.926632 
L 179.293634 59.040162 
L 181.059139 58.24946 
L 182.74002 56.996793 
L 184.338825 54.580494 
L 185.790421 54.412086 
L 187.190416 52.857473 
L 188.508087 51.669707 
L 189.751088 49.713307 
L 190.86883 48.634523 
" clip-path="url(#p8bb16748a9)" style="fill: none; stroke: #1f77b4; stroke-width: 0.7; stroke-linecap: square"/>
    <defs>
     <path id="m23977c1f46" d="M 0 0.9 
C 0.238683 0.9 0.467622 0.80517 0.636396 0.636396 
C 0.80517 0.467622 0.9 0.238683 0.9 0 
C 0.9 -0.238683 0.80517 -0.467622 0.636396 -0.636396 
C 0.467622 -0.80517 0.238683 -0.9 0 -0.9 
C -0.238683 -0.9 -0.467622 -0.80517 -0.636396 -0.636396 
C -0.80517 -0.467622 -0.9 -0.238683 -0.9 0 
C -0.9 0.238683 -0.80517 0.467622 -0.636396 0.636396 
C -0.467622 0.80517 -0.238683 0.9 0 0.9 
z
" style="stroke: #1f77b4"/>
    </defs>
    <g clip-path="url(#p8bb16748a9)">
     <use xlink:href="#m23977c1f46" x="46.965625" y="154.551273" style="fill: #1f77b4; stroke: #1f77b4"/>
     <use xlink:href="#m23977c1f46" x="53.201656" y="152.044864" style="fill: #1f77b4; stroke: #1f77b4"/>
     <use xlink:href="#m23977c1f46" x="72.335963" y="140.453117" style="fill: #1f77b4; stroke: #1f77b4"/>
     <use xlink:href="#m23977c1f46" x="87.08845" y="130.681947" style="fill: #1f77b4; stroke: #1f77b4"/>
     <use xlink:href="#m23977c1f46" x="99.533852" y="122.434112" style="fill: #1f77b4; stroke: #1f77b4"/>
     <use xlink:href="#m23977c1f46" x="109.751114" y="114.819887" style="fill: #1f77b4; stroke: #1f77b4"/>
     <use xlink:href="#m23977c1f46" x="118.509373" y="108.696312" style="fill: #1f77b4; stroke: #1f77b4"/>
     <use xlink:href="#m23977c1f46" x="126.065476" y="102.457075" style="fill: #1f77b4; stroke: #1f77b4"/>
     <use xlink:href="#m23977c1f46" x="132.93317" y="98.105586" style="fill: #1f77b4; stroke: #1f77b4"/>
     <use xlink:href="#m23977c1f46" x="138.777921" y="92.257154" style="fill: #1f77b4; stroke: #1f77b4"/>
     <use xlink:href="#m23977c1f46" x="143.837558" y="87.463474" style="fill: #1f77b4; stroke: #1f77b4"/>
     <use xlink:href="#m23977c1f46" x="148.487546" y="83.863611" style="fill: #1f77b4; stroke: #1f77b4"/>
     <use xlink:href="#m23977c1f46" x="152.527135" y="80.008228" style="fill: #1f77b4; stroke: #1f77b4"/>
     <use xlink:href="#m23977c1f46" x="156.218647" y="77.691551" style="fill: #1f77b4; stroke: #1f77b4"/>
     <use xlink:href="#m23977c1f46" x="159.632776" y="75.371008" style="fill: #1f77b4; stroke: #1f77b4"/>
     <use xlink:href="#m23977c1f46" x="162.859653" y="72.211564" style="fill: #1f77b4; stroke: #1f77b4"/>
     <use xlink:href="#m23977c1f46" x="165.741191" y="70.692312" style="fill: #1f77b4; stroke: #1f77b4"/>
     <use xlink:href="#m23977c1f46" x="168.419278" y="67.654175" style="fill: #1f77b4; stroke: #1f77b4"/>
     <use xlink:href="#m23977c1f46" x="170.953948" y="65.799387" style="fill: #1f77b4; stroke: #1f77b4"/>
     <use xlink:href="#m23977c1f46" x="173.221767" y="63.684164" style="fill: #1f77b4; stroke: #1f77b4"/>
     <use xlink:href="#m23977c1f46" x="175.354966" y="62.618122" style="fill: #1f77b4; stroke: #1f77b4"/>
     <use xlink:href="#m23977c1f46" x="177.374015" y="60.926632" style="fill: #1f77b4; stroke: #1f77b4"/>
     <use xlink:href="#m23977c1f46" x="179.293634" y="59.040162" style="fill: #1f77b4; stroke: #1f77b4"/>
     <use xlink:href="#m23977c1f46" x="181.059139" y="58.24946" style="fill: #1f77b4; stroke: #1f77b4"/>
     <use xlink:href="#m23977c1f46" x="182.74002" y="56.996793" style="fill: #1f77b4; stroke: #1f77b4"/>
     <use xlink:href="#m23977c1f46" x="184.338825" y="54.580494" style="fill: #1f77b4; stroke: #1f77b4"/>
     <use xlink:href="#m23977c1f46" x="185.790421" y="54.412086" style="fill: #1f77b4; stroke: #1f77b4"/>
     <use xlink:href="#m23977c1f46" x="187.190416" y="52.857473" style="fill: #1f77b4; stroke: #1f77b4"/>
     <use xlink:href="#m23977c1f46" x="188.508087" y="51.669707" style="fill: #1f77b4; stroke: #1f77b4"/>
     <use xlink:href="#m23977c1f46" x="189.751088" y="49.713307" style="fill: #1f77b4; stroke: #1f77b4"/>
     <use xlink:href="#m23977c1f46" x="190.86883" y="48.634523" style="fill: #1f77b4; stroke: #1f77b4"/>
    </g>
   </g>
   <g id="line2d_13">
    <path d="M 46.965625 154.551273 
L 83.413301 126.357483 
L 110.646789 105.73898 
L 132.571506 89.916924 
L 150.897348 76.721411 
L 166.950732 65.950609 
L 180.536764 57.022177 
L 192.671924 49.561118 
L 203.824776 41.974751 
L 213.513361 36.41508 
L 222.33833 30.557238 
L 230.495035 26.586791 
L 238.264448 22.012569 
L 245.178604 17.417011 
L 251.620375 14.216727 
" clip-path="url(#p8bb16748a9)" style="fill: none; stroke: #ff7f0e; stroke-width: 0.7; stroke-linecap: square"/>
    <defs>
     <path id="m16523517ad" d="M 0 0.9 
C 0.238683 0.9 0.467622 0.80517 0.636396 0.636396 
C 0.80517 0.467622 0.9 0.238683 0.9 0 
C 0.9 -0.238683 0.80517 -0.467622 0.636396 -0.636396 
C 0.467622 -0.80517 0.238683 -0.9 0 -0.9 
C -0.238683 -0.9 -0.467622 -0.80517 -0.636396 -0.636396 
C -0.80517 -0.467622 -0.9 -0.238683 -0.9 0 
C -0.9 0.238683 -0.80517 0.467622 -0.636396 0.636396 
C -0.467622 0.80517 -0.238683 0.9 0 0.9 
z
" style="stroke: #ff7f0e"/>
    </defs>
    <g clip-path="url(#p8bb16748a9)">
     <use xlink:href="#m16523517ad" x="46.965625" y="154.551273" style="fill: #ff7f0e; stroke: #ff7f0e"/>
     <use xlink:href="#m16523517ad" x="83.413301" y="126.357483" style="fill: #ff7f0e; stroke: #ff7f0e"/>
     <use xlink:href="#m16523517ad" x="110.646789" y="105.73898" style="fill: #ff7f0e; stroke: #ff7f0e"/>
     <use xlink:href="#m16523517ad" x="132.571506" y="89.916924" style="fill: #ff7f0e; stroke: #ff7f0e"/>
     <use xlink:href="#m16523517ad" x="150.897348" y="76.721411" style="fill: #ff7f0e; stroke: #ff7f0e"/>
     <use xlink:href="#m16523517ad" x="166.950732" y="65.950609" style="fill: #ff7f0e; stroke: #ff7f0e"/>
     <use xlink:href="#m16523517ad" x="180.536764" y="57.022177" style="fill: #ff7f0e; stroke: #ff7f0e"/>
     <use xlink:href="#m16523517ad" x="192.671924" y="49.561118" style="fill: #ff7f0e; stroke: #ff7f0e"/>
     <use xlink:href="#m16523517ad" x="203.824776" y="41.974751" style="fill: #ff7f0e; stroke: #ff7f0e"/>
     <use xlink:href="#m16523517ad" x="213.513361" y="36.41508" style="fill: #ff7f0e; stroke: #ff7f0e"/>
     <use xlink:href="#m16523517ad" x="222.33833" y="30.557238" style="fill: #ff7f0e; stroke: #ff7f0e"/>
     <use xlink:href="#m16523517ad" x="230.495035" y="26.586791" style="fill: #ff7f0e; stroke: #ff7f0e"/>
     <use xlink:href="#m16523517ad" x="238.264448" y="22.012569" style="fill: #ff7f0e; stroke: #ff7f0e"/>
     <use xlink:href="#m16523517ad" x="245.178604" y="17.417011" style="fill: #ff7f0e; stroke: #ff7f0e"/>
     <use xlink:href="#m16523517ad" x="251.620375" y="14.216727" style="fill: #ff7f0e; stroke: #ff7f0e"/>
    </g>
   </g>
   <g id="line2d_14">
    <path d="M 46.965625 154.551273 
L 51.35755 151.768052 
L 55.554792 148.816564 
L 59.37103 145.847108 
L 62.986368 143.337539 
L 66.443989 140.595533 
L 69.604141 138.690375 
L 72.605635 135.776037 
L 75.447981 133.496549 
L 78.255517 132.143784 
L 80.852687 129.992694 
L 83.348187 127.71495 
L 85.820515 126.16551 
L 88.122785 124.97979 
L 90.348987 123.469396 
L 92.485262 121.228187 
L 94.58294 119.120379 
L 96.574287 119.530471 
L 98.518295 117.976823 
L 100.415057 116.79457 
L 102.210672 116.591175 
L 103.949389 114.343337 
L 105.643238 113.171571 
L 107.319689 112.228244 
L 108.898585 110.814487 
L 110.423477 109.934958 
L 111.946072 108.576165 
L 113.37455 108.280373 
L 114.762957 107.479345 
L 116.111558 106.676675 
L 117.458083 105.118963 
L 118.734098 104.818814 
L 119.957273 102.318975 
L 121.183477 102.413201 
L 122.408564 101.413423 
L 123.513019 101.27298 
L 124.633774 100.43769 
L 125.728418 100.394399 
L 126.781279 98.997139 
L 127.838554 98.213741 
L 128.836708 97.048606 
L 130.107314 96.771974 
" clip-path="url(#p8bb16748a9)" style="fill: none; stroke: #2ca02c; stroke-width: 0.7; stroke-linecap: square"/>
    <defs>
     <path id="ma2db343aa2" d="M 0 0.9 
C 0.238683 0.9 0.467622 0.80517 0.636396 0.636396 
C 0.80517 0.467622 0.9 0.238683 0.9 0 
C 0.9 -0.238683 0.80517 -0.467622 0.636396 -0.636396 
C 0.467622 -0.80517 0.238683 -0.9 0 -0.9 
C -0.238683 -0.9 -0.467622 -0.80517 -0.636396 -0.636396 
C -0.80517 -0.467622 -0.9 -0.238683 -0.9 0 
C -0.9 0.238683 -0.80517 0.467622 -0.636396 0.636396 
C -0.467622 0.80517 -0.238683 0.9 0 0.9 
z
" style="stroke: #2ca02c"/>
    </defs>
    <g clip-path="url(#p8bb16748a9)">
     <use xlink:href="#ma2db343aa2" x="46.965625" y="154.551273" style="fill: #2ca02c; stroke: #2ca02c"/>
     <use xlink:href="#ma2db343aa2" x="51.35755" y="151.768052" style="fill: #2ca02c; stroke: #2ca02c"/>
     <use xlink:href="#ma2db343aa2" x="55.554792" y="148.816564" style="fill: #2ca02c; stroke: #2ca02c"/>
     <use xlink:href="#ma2db343aa2" x="59.37103" y="145.847108" style="fill: #2ca02c; stroke: #2ca02c"/>
     <use xlink:href="#ma2db343aa2" x="62.986368" y="143.337539" style="fill: #2ca02c; stroke: #2ca02c"/>
     <use xlink:href="#ma2db343aa2" x="66.443989" y="140.595533" style="fill: #2ca02c; stroke: #2ca02c"/>
     <use xlink:href="#ma2db343aa2" x="69.604141" y="138.690375" style="fill: #2ca02c; stroke: #2ca02c"/>
     <use xlink:href="#ma2db343aa2" x="72.605635" y="135.776037" style="fill: #2ca02c; stroke: #2ca02c"/>
     <use xlink:href="#ma2db343aa2" x="75.447981" y="133.496549" style="fill: #2ca02c; stroke: #2ca02c"/>
     <use xlink:href="#ma2db343aa2" x="78.255517" y="132.143784" style="fill: #2ca02c; stroke: #2ca02c"/>
     <use xlink:href="#ma2db343aa2" x="80.852687" y="129.992694" style="fill: #2ca02c; stroke: #2ca02c"/>
     <use xlink:href="#ma2db343aa2" x="83.348187" y="127.71495" style="fill: #2ca02c; stroke: #2ca02c"/>
     <use xlink:href="#ma2db343aa2" x="85.820515" y="126.16551" style="fill: #2ca02c; stroke: #2ca02c"/>
     <use xlink:href="#ma2db343aa2" x="88.122785" y="124.97979" style="fill: #2ca02c; stroke: #2ca02c"/>
     <use xlink:href="#ma2db343aa2" x="90.348987" y="123.469396" style="fill: #2ca02c; stroke: #2ca02c"/>
     <use xlink:href="#ma2db343aa2" x="92.485262" y="121.228187" style="fill: #2ca02c; stroke: #2ca02c"/>
     <use xlink:href="#ma2db343aa2" x="94.58294" y="119.120379" style="fill: #2ca02c; stroke: #2ca02c"/>
     <use xlink:href="#ma2db343aa2" x="96.574287" y="119.530471" style="fill: #2ca02c; stroke: #2ca02c"/>
     <use xlink:href="#ma2db343aa2" x="98.518295" y="117.976823" style="fill: #2ca02c; stroke: #2ca02c"/>
     <use xlink:href="#ma2db343aa2" x="100.415057" y="116.79457" style="fill: #2ca02c; stroke: #2ca02c"/>
     <use xlink:href="#ma2db343aa2" x="102.210672" y="116.591175" style="fill: #2ca02c; stroke: #2ca02c"/>
     <use xlink:href="#ma2db343aa2" x="103.949389" y="114.343337" style="fill: #2ca02c; stroke: #2ca02c"/>
     <use xlink:href="#ma2db343aa2" x="105.643238" y="113.171571" style="fill: #2ca02c; stroke: #2ca02c"/>
     <use xlink:href="#ma2db343aa2" x="107.319689" y="112.228244" style="fill: #2ca02c; stroke: #2ca02c"/>
     <use xlink:href="#ma2db343aa2" x="108.898585" y="110.814487" style="fill: #2ca02c; stroke: #2ca02c"/>
     <use xlink:href="#ma2db343aa2" x="110.423477" y="109.934958" style="fill: #2ca02c; stroke: #2ca02c"/>
     <use xlink:href="#ma2db343aa2" x="111.946072" y="108.576165" style="fill: #2ca02c; stroke: #2ca02c"/>
     <use xlink:href="#ma2db343aa2" x="113.37455" y="108.280373" style="fill: #2ca02c; stroke: #2ca02c"/>
     <use xlink:href="#ma2db343aa2" x="114.762957" y="107.479345" style="fill: #2ca02c; stroke: #2ca02c"/>
     <use xlink:href="#ma2db343aa2" x="116.111558" y="106.676675" style="fill: #2ca02c; stroke: #2ca02c"/>
     <use xlink:href="#ma2db343aa2" x="117.458083" y="105.118963" style="fill: #2ca02c; stroke: #2ca02c"/>
     <use xlink:href="#ma2db343aa2" x="118.734098" y="104.818814" style="fill: #2ca02c; stroke: #2ca02c"/>
     <use xlink:href="#ma2db343aa2" x="119.957273" y="102.318975" style="fill: #2ca02c; stroke: #2ca02c"/>
     <use xlink:href="#ma2db343aa2" x="121.183477" y="102.413201" style="fill: #2ca02c; stroke: #2ca02c"/>
     <use xlink:href="#ma2db343aa2" x="122.408564" y="101.413423" style="fill: #2ca02c; stroke: #2ca02c"/>
     <use xlink:href="#ma2db343aa2" x="123.513019" y="101.27298" style="fill: #2ca02c; stroke: #2ca02c"/>
     <use xlink:href="#ma2db343aa2" x="124.633774" y="100.43769" style="fill: #2ca02c; stroke: #2ca02c"/>
     <use xlink:href="#ma2db343aa2" x="125.728418" y="100.394399" style="fill: #2ca02c; stroke: #2ca02c"/>
     <use xlink:href="#ma2db343aa2" x="126.781279" y="98.997139" style="fill: #2ca02c; stroke: #2ca02c"/>
     <use xlink:href="#ma2db343aa2" x="127.838554" y="98.213741" style="fill: #2ca02c; stroke: #2ca02c"/>
     <use xlink:href="#ma2db343aa2" x="128.836708" y="97.048606" style="fill: #2ca02c; stroke: #2ca02c"/>
     <use xlink:href="#ma2db343aa2" x="130.107314" y="96.771974" style="fill: #2ca02c; stroke: #2ca02c"/>
    </g>
   </g>
   <g id="line2d_15">
    <path d="M 46.965625 154.551273 
L 61.22848 143.289223 
L 71.241314 135.264747 
L 79.140302 128.894318 
L 86.745128 123.842459 
L 91.187847 120.43931 
L 95.353427 117.708101 
L 98.943817 116.339516 
L 101.954688 114.040598 
L 104.548762 112.419111 
L 106.769707 111.425553 
L 108.588881 110.261013 
L 110.13376 108.964691 
L 111.551056 108.77081 
L 112.826628 108.346918 
L 113.902608 106.876539 
L 114.746827 106.963318 
L 115.557408 106.649371 
L 116.382442 106.48873 
L 117.094213 105.735038 
" clip-path="url(#p8bb16748a9)" style="fill: none; stroke: #d62728; stroke-width: 0.7; stroke-linecap: square"/>
    <defs>
     <path id="m4272c62e22" d="M 0 0.9 
C 0.238683 0.9 0.467622 0.80517 0.636396 0.636396 
C 0.80517 0.467622 0.9 0.238683 0.9 0 
C 0.9 -0.238683 0.80517 -0.467622 0.636396 -0.636396 
C 0.467622 -0.80517 0.238683 -0.9 0 -0.9 
C -0.238683 -0.9 -0.467622 -0.80517 -0.636396 -0.636396 
C -0.80517 -0.467622 -0.9 -0.238683 -0.9 0 
C -0.9 0.238683 -0.80517 0.467622 -0.636396 0.636396 
C -0.467622 0.80517 -0.238683 0.9 0 0.9 
z
" style="stroke: #d62728"/>
    </defs>
    <g clip-path="url(#p8bb16748a9)">
     <use xlink:href="#m4272c62e22" x="46.965625" y="154.551273" style="fill: #d62728; stroke: #d62728"/>
     <use xlink:href="#m4272c62e22" x="61.22848" y="143.289223" style="fill: #d62728; stroke: #d62728"/>
     <use xlink:href="#m4272c62e22" x="71.241314" y="135.264747" style="fill: #d62728; stroke: #d62728"/>
     <use xlink:href="#m4272c62e22" x="79.140302" y="128.894318" style="fill: #d62728; stroke: #d62728"/>
     <use xlink:href="#m4272c62e22" x="86.745128" y="123.842459" style="fill: #d62728; stroke: #d62728"/>
     <use xlink:href="#m4272c62e22" x="91.187847" y="120.43931" style="fill: #d62728; stroke: #d62728"/>
     <use xlink:href="#m4272c62e22" x="95.353427" y="117.708101" style="fill: #d62728; stroke: #d62728"/>
     <use xlink:href="#m4272c62e22" x="98.943817" y="116.339516" style="fill: #d62728; stroke: #d62728"/>
     <use xlink:href="#m4272c62e22" x="101.954688" y="114.040598" style="fill: #d62728; stroke: #d62728"/>
     <use xlink:href="#m4272c62e22" x="104.548762" y="112.419111" style="fill: #d62728; stroke: #d62728"/>
     <use xlink:href="#m4272c62e22" x="106.769707" y="111.425553" style="fill: #d62728; stroke: #d62728"/>
     <use xlink:href="#m4272c62e22" x="108.588881" y="110.261013" style="fill: #d62728; stroke: #d62728"/>
     <use xlink:href="#m4272c62e22" x="110.13376" y="108.964691" style="fill: #d62728; stroke: #d62728"/>
     <use xlink:href="#m4272c62e22" x="111.551056" y="108.77081" style="fill: #d62728; stroke: #d62728"/>
     <use xlink:href="#m4272c62e22" x="112.826628" y="108.346918" style="fill: #d62728; stroke: #d62728"/>
     <use xlink:href="#m4272c62e22" x="113.902608" y="106.876539" style="fill: #d62728; stroke: #d62728"/>
     <use xlink:href="#m4272c62e22" x="114.746827" y="106.963318" style="fill: #d62728; stroke: #d62728"/>
     <use xlink:href="#m4272c62e22" x="115.557408" y="106.649371" style="fill: #d62728; stroke: #d62728"/>
     <use xlink:href="#m4272c62e22" x="116.382442" y="106.48873" style="fill: #d62728; stroke: #d62728"/>
     <use xlink:href="#m4272c62e22" x="117.094213" y="105.735038" style="fill: #d62728; stroke: #d62728"/>
    </g>
   </g>
   <g id="patch_3">
    <path d="M 46.965625 161.568 
L 46.965625 7.2 
" style="fill: none; stroke: #000000; stroke-width: 0.8; stroke-linejoin: miter; stroke-linecap: square"/>
   </g>
   <g id="patch_4">
    <path d="M 261.853113 161.568 
L 261.853113 7.2 
" style="fill: none; stroke: #000000; stroke-width: 0.8; stroke-linejoin: miter; stroke-linecap: square"/>
   </g>
   <g id="patch_5">
    <path d="M 46.965625 161.568 
L 261.853113 161.568 
" style="fill: none; stroke: #000000; stroke-width: 0.8; stroke-linejoin: miter; stroke-linecap: square"/>
   </g>
   <g id="patch_6">
    <path d="M 46.965625 7.2 
L 261.853113 7.2 
" style="fill: none; stroke: #000000; stroke-width: 0.8; stroke-linejoin: miter; stroke-linecap: square"/>
   </g>
   <g id="legend_1">
    <g id="patch_7">
     <path d="M 268.853113 115.24025 
L 351.68905 115.24025 
Q 353.68905 115.24025 353.68905 113.24025 
L 353.68905 55.52775 
Q 353.68905 53.52775 351.68905 53.52775 
L 268.853113 53.52775 
Q 266.853113 53.52775 266.853113 55.52775 
L 266.853113 113.24025 
Q 266.853113 115.24025 268.853113 115.24025 
z
" style="fill: #ffffff; opacity: 0.8; stroke: #cccccc; stroke-linejoin: miter"/>
    </g>
    <g id="line2d_16">
     <path d="M 270.853113 61.626188 
L 280.853113 61.626188 
L 290.853113 61.626188 
" style="fill: none; stroke: #1f77b4; stroke-width: 0.7; stroke-linecap: square"/>
     <g>
      <use xlink:href="#m23977c1f46" x="280.853113" y="61.626188" style="fill: #1f77b4; stroke: #1f77b4"/>
     </g>
    </g>
    <g id="text_15">
     <!-- Addition 1 -->
     <g transform="translate(298.853113 65.126188) scale(0.1 -0.1)">
      <defs>
       <path id="DejaVuSans-41" d="M 2188 4044 
L 1331 1722 
L 3047 1722 
L 2188 4044 
z
M 1831 4666 
L 2547 4666 
L 4325 0 
L 3669 0 
L 3244 1197 
L 1141 1197 
L 716 0 
L 50 0 
L 1831 4666 
z
" transform="scale(0.015625)"/>
       <path id="DejaVuSans-6e" d="M 3513 2113 
L 3513 0 
L 2938 0 
L 2938 2094 
Q 2938 2591 2744 2837 
Q 2550 3084 2163 3084 
Q 1697 3084 1428 2787 
Q 1159 2491 1159 1978 
L 1159 0 
L 581 0 
L 581 3500 
L 1159 3500 
L 1159 2956 
Q 1366 3272 1645 3428 
Q 1925 3584 2291 3584 
Q 2894 3584 3203 3211 
Q 3513 2838 3513 2113 
z
" transform="scale(0.015625)"/>
      </defs>
      <use xlink:href="#DejaVuSans-41"/>
      <use xlink:href="#DejaVuSans-64" transform="translate(66.658203 0)"/>
      <use xlink:href="#DejaVuSans-64" transform="translate(130.134766 0)"/>
      <use xlink:href="#DejaVuSans-69" transform="translate(193.611328 0)"/>
      <use xlink:href="#DejaVuSans-74" transform="translate(221.394531 0)"/>
      <use xlink:href="#DejaVuSans-69" transform="translate(260.603516 0)"/>
      <use xlink:href="#DejaVuSans-6f" transform="translate(288.386719 0)"/>
      <use xlink:href="#DejaVuSans-6e" transform="translate(349.568359 0)"/>
      <use xlink:href="#DejaVuSans-20" transform="translate(412.947266 0)"/>
      <use xlink:href="#DejaVuSans-31" transform="translate(444.734375 0)"/>
     </g>
    </g>
    <g id="line2d_17">
     <path d="M 270.853113 76.304313 
L 280.853113 76.304313 
L 290.853113 76.304313 
" style="fill: none; stroke: #ff7f0e; stroke-width: 0.7; stroke-linecap: square"/>
     <g>
      <use xlink:href="#m16523517ad" x="280.853113" y="76.304313" style="fill: #ff7f0e; stroke: #ff7f0e"/>
     </g>
    </g>
    <g id="text_16">
     <!-- Addition 2 -->
     <g transform="translate(298.853113 79.804313) scale(0.1 -0.1)">
      <use xlink:href="#DejaVuSans-41"/>
      <use xlink:href="#DejaVuSans-64" transform="translate(66.658203 0)"/>
      <use xlink:href="#DejaVuSans-64" transform="translate(130.134766 0)"/>
      <use xlink:href="#DejaVuSans-69" transform="translate(193.611328 0)"/>
      <use xlink:href="#DejaVuSans-74" transform="translate(221.394531 0)"/>
      <use xlink:href="#DejaVuSans-69" transform="translate(260.603516 0)"/>
      <use xlink:href="#DejaVuSans-6f" transform="translate(288.386719 0)"/>
      <use xlink:href="#DejaVuSans-6e" transform="translate(349.568359 0)"/>
      <use xlink:href="#DejaVuSans-20" transform="translate(412.947266 0)"/>
      <use xlink:href="#DejaVuSans-32" transform="translate(444.734375 0)"/>
     </g>
    </g>
    <g id="line2d_18">
     <path d="M 270.853113 90.982438 
L 280.853113 90.982438 
L 290.853113 90.982438 
" style="fill: none; stroke: #2ca02c; stroke-width: 0.7; stroke-linecap: square"/>
     <g>
      <use xlink:href="#ma2db343aa2" x="280.853113" y="90.982438" style="fill: #2ca02c; stroke: #2ca02c"/>
     </g>
    </g>
    <g id="text_17">
     <!-- Addition 3 -->
     <g transform="translate(298.853113 94.482438) scale(0.1 -0.1)">
      <defs>
       <path id="DejaVuSans-33" d="M 2597 2516 
Q 3050 2419 3304 2112 
Q 3559 1806 3559 1356 
Q 3559 666 3084 287 
Q 2609 -91 1734 -91 
Q 1441 -91 1130 -33 
Q 819 25 488 141 
L 488 750 
Q 750 597 1062 519 
Q 1375 441 1716 441 
Q 2309 441 2620 675 
Q 2931 909 2931 1356 
Q 2931 1769 2642 2001 
Q 2353 2234 1838 2234 
L 1294 2234 
L 1294 2753 
L 1863 2753 
Q 2328 2753 2575 2939 
Q 2822 3125 2822 3475 
Q 2822 3834 2567 4026 
Q 2313 4219 1838 4219 
Q 1578 4219 1281 4162 
Q 984 4106 628 3988 
L 628 4550 
Q 988 4650 1302 4700 
Q 1616 4750 1894 4750 
Q 2613 4750 3031 4423 
Q 3450 4097 3450 3541 
Q 3450 3153 3228 2886 
Q 3006 2619 2597 2516 
z
" transform="scale(0.015625)"/>
      </defs>
      <use xlink:href="#DejaVuSans-41"/>
      <use xlink:href="#DejaVuSans-64" transform="translate(66.658203 0)"/>
      <use xlink:href="#DejaVuSans-64" transform="translate(130.134766 0)"/>
      <use xlink:href="#DejaVuSans-69" transform="translate(193.611328 0)"/>
      <use xlink:href="#DejaVuSans-74" transform="translate(221.394531 0)"/>
      <use xlink:href="#DejaVuSans-69" transform="translate(260.603516 0)"/>
      <use xlink:href="#DejaVuSans-6f" transform="translate(288.386719 0)"/>
      <use xlink:href="#DejaVuSans-6e" transform="translate(349.568359 0)"/>
      <use xlink:href="#DejaVuSans-20" transform="translate(412.947266 0)"/>
      <use xlink:href="#DejaVuSans-33" transform="translate(444.734375 0)"/>
     </g>
    </g>
    <g id="line2d_19">
     <path d="M 270.853113 105.660563 
L 280.853113 105.660563 
L 290.853113 105.660563 
" style="fill: none; stroke: #d62728; stroke-width: 0.7; stroke-linecap: square"/>
     <g>
      <use xlink:href="#m4272c62e22" x="280.853113" y="105.660563" style="fill: #d62728; stroke: #d62728"/>
     </g>
    </g>
    <g id="text_18">
     <!-- Addition 4 -->
     <g transform="translate(298.853113 109.160563) scale(0.1 -0.1)">
      <use xlink:href="#DejaVuSans-41"/>
      <use xlink:href="#DejaVuSans-64" transform="translate(66.658203 0)"/>
      <use xlink:href="#DejaVuSans-64" transform="translate(130.134766 0)"/>
      <use xlink:href="#DejaVuSans-69" transform="translate(193.611328 0)"/>
      <use xlink:href="#DejaVuSans-74" transform="translate(221.394531 0)"/>
      <use xlink:href="#DejaVuSans-69" transform="translate(260.603516 0)"/>
      <use xlink:href="#DejaVuSans-6f" transform="translate(288.386719 0)"/>
      <use xlink:href="#DejaVuSans-6e" transform="translate(349.568359 0)"/>
      <use xlink:href="#DejaVuSans-20" transform="translate(412.947266 0)"/>
      <use xlink:href="#DejaVuSans-34" transform="translate(444.734375 0)"/>
     </g>
    </g>
   </g>
  </g>
 </g>
 <defs>
  <clipPath id="p8bb16748a9">
   <rect x="46.965625" y="7.2" width="214.887487" height="154.368"/>
  </clipPath>
 </defs>
</svg>
