<?xml version="1.0" encoding="utf-8" standalone="no"?>
<!DOCTYPE svg PUBLIC "-//W3C//DTD SVG 1.1//EN"
  "http://www.w3.org/Graphics/SVG/1.1/DTD/svg11.dtd">
<svg xmlns:xlink="http://www.w3.org/1999/xlink" width="295.2816pt" height="229.028187pt" viewBox="0 0 295.2816 229.028187" xmlns="http://www.w3.org/2000/svg" version="1.1">
 <metadata>
  <rdf:RDF xmlns:dc="http://purl.org/dc/elements/1.1/" xmlns:cc="http://creativecommons.org/ns#" xmlns:rdf="http://www.w3.org/1999/02/22-rdf-syntax-ns#">
   <cc:Work>
    <dc:type rdf:resource="http://purl.org/dc/dcmitype/StillImage"/>
    <dc:date>2026-01-13T17:36:49.905949</dc:date>
    <dc:format>image/svg+xml</dc:format>
    <dc:creator>
     <cc:Agent>
      <dc:title>Matplotlib v3.10.0, https://matplotlib.org/</dc:title>
     </cc:Agent>
    </dc:creator>
   </cc:Work>
  </rdf:RDF>
 </metadata>
 <defs>
  <style type="text/css">*{stroke-linejoin: round; stroke-linecap: butt}</style>
 </defs>
 <g id="figure_1">
  <g id="patch_1">
   <path d="M 0 229.028187 
L 295.2816 229.028187 
L 295.2816 0 
L 0 0 
z
" style="fill: #ffffff"/>
  </g>
  <g id="axes_1">
   <g id="patch_2">
    <path d="M 43.78125 190.650062 
L 273.17125 190.650062 
L 273.17125 43.194062 
L 43.78125 43.194062 
z
" style="fill: #ffffff"/>
   </g>
   <g id="matplotlib.axis_1">
    <g id="xtick_1">
     <g id="line2d_1">
      <defs>
       <path id="me7469079e9" d="M 0 0 
L 0 3.5 
" style="stroke: #000000; stroke-width: 0.8"/>
      </defs>
      <g>
       <use xlink:href="#me7469079e9" x="43.78125" y="190.650062" style="stroke: #000000; stroke-width: 0.8"/>
      </g>
     </g>
     <g id="text_1">
      <!-- 0.0 -->
      <g transform="translate(35.829688 205.2485) scale(0.1 -0.1)">
       <defs>
        <path id="DejaVuSans-30" d="M 2034 4250 
Q 1547 4250 1301 3770 
Q 1056 3291 1056 2328 
Q 1056 1369 1301 889 
Q 1547 409 2034 409 
Q 2525 409 2770 889 
Q 3016 1369 3016 2328 
Q 3016 3291 2770 3770 
Q 2525 4250 2034 4250 
z
M 2034 4750 
Q 2819 4750 3233 4129 
Q 3647 3509 3647 2328 
Q 3647 1150 3233 529 
Q 2819 -91 2034 -91 
Q 1250 -91 836 529 
Q 422 1150 422 2328 
Q 422 3509 836 4129 
Q 1250 4750 2034 4750 
z
" transform="scale(0.015625)"/>
        <path id="DejaVuSans-2e" d="M 684 794 
L 1344 794 
L 1344 0 
L 684 0 
L 684 794 
z
" transform="scale(0.015625)"/>
       </defs>
       <use xlink:href="#DejaVuSans-30"/>
       <use xlink:href="#DejaVuSans-2e" transform="translate(63.623047 0)"/>
       <use xlink:href="#DejaVuSans-30" transform="translate(95.410156 0)"/>
      </g>
     </g>
    </g>
    <g id="xtick_2">
     <g id="line2d_2">
      <g>
       <use xlink:href="#me7469079e9" x="94.903255" y="190.650062" style="stroke: #000000; stroke-width: 0.8"/>
      </g>
     </g>
     <g id="text_2">
      <!-- 0.5 -->
      <g transform="translate(86.951693 205.2485) scale(0.1 -0.1)">
       <defs>
        <path id="DejaVuSans-35" d="M 691 4666 
L 3169 4666 
L 3169 4134 
L 1269 4134 
L 1269 2991 
Q 1406 3038 1543 3061 
Q 1681 3084 1819 3084 
Q 2600 3084 3056 2656 
Q 3513 2228 3513 1497 
Q 3513 744 3044 326 
Q 2575 -91 1722 -91 
Q 1428 -91 1123 -41 
Q 819 9 494 109 
L 494 744 
Q 775 591 1075 516 
Q 1375 441 1709 441 
Q 2250 441 2565 725 
Q 2881 1009 2881 1497 
Q 2881 1984 2565 2268 
Q 2250 2553 1709 2553 
Q 1456 2553 1204 2497 
Q 953 2441 691 2322 
L 691 4666 
z
" transform="scale(0.015625)"/>
       </defs>
       <use xlink:href="#DejaVuSans-30"/>
       <use xlink:href="#DejaVuSans-2e" transform="translate(63.623047 0)"/>
       <use xlink:href="#DejaVuSans-35" transform="translate(95.410156 0)"/>
      </g>
     </g>
    </g>
    <g id="xtick_3">
     <g id="line2d_3">
      <g>
       <use xlink:href="#me7469079e9" x="146.025261" y="190.650062" style="stroke: #000000; stroke-width: 0.8"/>
      </g>
     </g>
     <g id="text_3">
      <!-- 1.0 -->
      <g transform="translate(138.073698 205.2485) scale(0.1 -0.1)">
       <defs>
        <path id="DejaVuSans-31" d="M 794 531 
L 1825 531 
L 1825 4091 
L 703 3866 
L 703 4441 
L 1819 4666 
L 2450 4666 
L 2450 531 
L 3481 531 
L 3481 0 
L 794 0 
L 794 531 
z
" transform="scale(0.015625)"/>
       </defs>
       <use xlink:href="#DejaVuSans-31"/>
       <use xlink:href="#DejaVuSans-2e" transform="translate(63.623047 0)"/>
       <use xlink:href="#DejaVuSans-30" transform="translate(95.410156 0)"/>
      </g>
     </g>
    </g>
    <g id="xtick_4">
     <g id="line2d_4">
      <g>
       <use xlink:href="#me7469079e9" x="197.147266" y="190.650062" style="stroke: #000000; stroke-width: 0.8"/>
      </g>
     </g>
     <g id="text_4">
      <!-- 1.5 -->
      <g transform="translate(189.195703 205.2485) scale(0.1 -0.1)">
       <use xlink:href="#DejaVuSans-31"/>
       <use xlink:href="#DejaVuSans-2e" transform="translate(63.623047 0)"/>
       <use xlink:href="#DejaVuSans-35" transform="translate(95.410156 0)"/>
      </g>
     </g>
    </g>
    <g id="xtick_5">
     <g id="line2d_5">
      <g>
       <use xlink:href="#me7469079e9" x="248.269271" y="190.650062" style="stroke: #000000; stroke-width: 0.8"/>
      </g>
     </g>
     <g id="text_5">
      <!-- 2.0 -->
      <g transform="translate(240.317709 205.2485) scale(0.1 -0.1)">
       <defs>
        <path id="DejaVuSans-32" d="M 1228 531 
L 3431 531 
L 3431 0 
L 469 0 
L 469 531 
Q 828 903 1448 1529 
Q 2069 2156 2228 2338 
Q 2531 2678 2651 2914 
Q 2772 3150 2772 3378 
Q 2772 3750 2511 3984 
Q 2250 4219 1831 4219 
Q 1534 4219 1204 4116 
Q 875 4013 500 3803 
L 500 4441 
Q 881 4594 1212 4672 
Q 1544 4750 1819 4750 
Q 2544 4750 2975 4387 
Q 3406 4025 3406 3419 
Q 3406 3131 3298 2873 
Q 3191 2616 2906 2266 
Q 2828 2175 2409 1742 
Q 1991 1309 1228 531 
z
" transform="scale(0.015625)"/>
       </defs>
       <use xlink:href="#DejaVuSans-32"/>
       <use xlink:href="#DejaVuSans-2e" transform="translate(63.623047 0)"/>
       <use xlink:href="#DejaVuSans-30" transform="translate(95.410156 0)"/>
      </g>
     </g>
    </g>
    <g id="text_6">
     <!-- $Σ[Amine]^{1.80}[Phenol]^{-0.09}[ArOPh]^{1.05}Δt$. -->
     <g transform="translate(61.42625 219.7485) scale(0.1 -0.1)">
      <defs>
       <path id="DejaVuSans-3a3" d="M 1353 531 
L 3634 531 
L 3634 0 
L 628 0 
L 628 531 
L 2125 2481 
L 628 4134 
L 628 4666 
L 3578 4666 
L 3578 4134 
L 1353 4134 
L 2850 2494 
L 1353 531 
z
" transform="scale(0.015625)"/>
       <path id="DejaVuSans-5b" d="M 550 4863 
L 1875 4863 
L 1875 4416 
L 1125 4416 
L 1125 -397 
L 1875 -397 
L 1875 -844 
L 550 -844 
L 550 4863 
z
" transform="scale(0.015625)"/>
       <path id="DejaVuSans-Oblique-41" d="M 2356 4666 
L 3072 4666 
L 3938 0 
L 3278 0 
L 3084 1197 
L 984 1197 
L 325 0 
L -341 0 
L 2356 4666 
z
M 2584 4044 
L 1275 1722 
L 2988 1722 
L 2584 4044 
z
" transform="scale(0.015625)"/>
       <path id="DejaVuSans-Oblique-6d" d="M 5747 2113 
L 5338 0 
L 4763 0 
L 5166 2094 
Q 5191 2228 5203 2325 
Q 5216 2422 5216 2491 
Q 5216 2772 5059 2928 
Q 4903 3084 4622 3084 
Q 4203 3084 3875 2770 
Q 3547 2456 3450 1953 
L 3066 0 
L 2491 0 
L 2900 2094 
Q 2925 2209 2937 2307 
Q 2950 2406 2950 2484 
Q 2950 2769 2794 2926 
Q 2638 3084 2363 3084 
Q 1938 3084 1609 2770 
Q 1281 2456 1184 1953 
L 800 0 
L 225 0 
L 909 3500 
L 1484 3500 
L 1375 2956 
Q 1609 3263 1923 3423 
Q 2238 3584 2597 3584 
Q 2978 3584 3223 3384 
Q 3469 3184 3519 2828 
Q 3781 3197 4126 3390 
Q 4472 3584 4856 3584 
Q 5306 3584 5551 3325 
Q 5797 3066 5797 2591 
Q 5797 2488 5784 2364 
Q 5772 2241 5747 2113 
z
" transform="scale(0.015625)"/>
       <path id="DejaVuSans-Oblique-69" d="M 1172 4863 
L 1747 4863 
L 1606 4134 
L 1031 4134 
L 1172 4863 
z
M 909 3500 
L 1484 3500 
L 800 0 
L 225 0 
L 909 3500 
z
" transform="scale(0.015625)"/>
       <path id="DejaVuSans-Oblique-6e" d="M 3566 2113 
L 3156 0 
L 2578 0 
L 2988 2091 
Q 3016 2238 3031 2350 
Q 3047 2463 3047 2528 
Q 3047 2791 2881 2937 
Q 2716 3084 2419 3084 
Q 1956 3084 1622 2776 
Q 1288 2469 1184 1941 
L 800 0 
L 225 0 
L 903 3500 
L 1478 3500 
L 1363 2950 
Q 1603 3253 1940 3418 
Q 2278 3584 2650 3584 
Q 3113 3584 3367 3334 
Q 3622 3084 3622 2631 
Q 3622 2519 3608 2391 
Q 3594 2263 3566 2113 
z
" transform="scale(0.015625)"/>
       <path id="DejaVuSans-Oblique-65" d="M 3078 2063 
Q 3088 2113 3092 2166 
Q 3097 2219 3097 2272 
Q 3097 2653 2873 2875 
Q 2650 3097 2266 3097 
Q 1838 3097 1509 2826 
Q 1181 2556 1013 2059 
L 3078 2063 
z
M 3578 1613 
L 903 1613 
Q 884 1494 878 1425 
Q 872 1356 872 1306 
Q 872 872 1139 634 
Q 1406 397 1894 397 
Q 2269 397 2603 481 
Q 2938 566 3225 728 
L 3116 159 
Q 2806 34 2476 -28 
Q 2147 -91 1806 -91 
Q 1078 -91 686 257 
Q 294 606 294 1247 
Q 294 1794 489 2264 
Q 684 2734 1063 3103 
Q 1306 3334 1642 3459 
Q 1978 3584 2356 3584 
Q 2950 3584 3301 3228 
Q 3653 2872 3653 2272 
Q 3653 2128 3634 1964 
Q 3616 1800 3578 1613 
z
" transform="scale(0.015625)"/>
       <path id="DejaVuSans-5d" d="M 1947 4863 
L 1947 -844 
L 622 -844 
L 622 -397 
L 1369 -397 
L 1369 4416 
L 622 4416 
L 622 4863 
L 1947 4863 
z
" transform="scale(0.015625)"/>
       <path id="DejaVuSans-38" d="M 2034 2216 
Q 1584 2216 1326 1975 
Q 1069 1734 1069 1313 
Q 1069 891 1326 650 
Q 1584 409 2034 409 
Q 2484 409 2743 651 
Q 3003 894 3003 1313 
Q 3003 1734 2745 1975 
Q 2488 2216 2034 2216 
z
M 1403 2484 
Q 997 2584 770 2862 
Q 544 3141 544 3541 
Q 544 4100 942 4425 
Q 1341 4750 2034 4750 
Q 2731 4750 3128 4425 
Q 3525 4100 3525 3541 
Q 3525 3141 3298 2862 
Q 3072 2584 2669 2484 
Q 3125 2378 3379 2068 
Q 3634 1759 3634 1313 
Q 3634 634 3220 271 
Q 2806 -91 2034 -91 
Q 1263 -91 848 271 
Q 434 634 434 1313 
Q 434 1759 690 2068 
Q 947 2378 1403 2484 
z
M 1172 3481 
Q 1172 3119 1398 2916 
Q 1625 2713 2034 2713 
Q 2441 2713 2670 2916 
Q 2900 3119 2900 3481 
Q 2900 3844 2670 4047 
Q 2441 4250 2034 4250 
Q 1625 4250 1398 4047 
Q 1172 3844 1172 3481 
z
" transform="scale(0.015625)"/>
       <path id="DejaVuSans-Oblique-50" d="M 1081 4666 
L 2541 4666 
Q 3178 4666 3512 4369 
Q 3847 4072 3847 3500 
Q 3847 2731 3353 2303 
Q 2859 1875 1966 1875 
L 1172 1875 
L 806 0 
L 172 0 
L 1081 4666 
z
M 1613 4147 
L 1275 2394 
L 2069 2394 
Q 2606 2394 2893 2669 
Q 3181 2944 3181 3456 
Q 3181 3784 2986 3965 
Q 2791 4147 2438 4147 
L 1613 4147 
z
" transform="scale(0.015625)"/>
       <path id="DejaVuSans-Oblique-68" d="M 3566 2113 
L 3156 0 
L 2578 0 
L 2988 2091 
Q 3016 2238 3031 2350 
Q 3047 2463 3047 2528 
Q 3047 2791 2881 2937 
Q 2716 3084 2419 3084 
Q 1956 3084 1617 2771 
Q 1278 2459 1178 1941 
L 800 0 
L 225 0 
L 1172 4863 
L 1747 4863 
L 1375 2950 
Q 1594 3244 1934 3414 
Q 2275 3584 2650 3584 
Q 3113 3584 3367 3334 
Q 3622 3084 3622 2631 
Q 3622 2519 3608 2391 
Q 3594 2263 3566 2113 
z
" transform="scale(0.015625)"/>
       <path id="DejaVuSans-Oblique-6f" d="M 1625 -91 
Q 1009 -91 651 289 
Q 294 669 294 1325 
Q 294 1706 417 2101 
Q 541 2497 738 2766 
Q 1047 3184 1428 3384 
Q 1809 3584 2291 3584 
Q 2888 3584 3255 3212 
Q 3622 2841 3622 2241 
Q 3622 1825 3500 1412 
Q 3378 1000 3181 728 
Q 2875 309 2494 109 
Q 2113 -91 1625 -91 
z
M 891 1344 
Q 891 869 1089 633 
Q 1288 397 1691 397 
Q 2269 397 2648 901 
Q 3028 1406 3028 2181 
Q 3028 2634 2825 2865 
Q 2622 3097 2228 3097 
Q 1903 3097 1650 2945 
Q 1397 2794 1197 2484 
Q 1050 2253 970 1956 
Q 891 1659 891 1344 
z
" transform="scale(0.015625)"/>
       <path id="DejaVuSans-Oblique-6c" d="M 1172 4863 
L 1747 4863 
L 800 0 
L 225 0 
L 1172 4863 
z
" transform="scale(0.015625)"/>
       <path id="DejaVuSans-2212" d="M 678 2272 
L 4684 2272 
L 4684 1741 
L 678 1741 
L 678 2272 
z
" transform="scale(0.015625)"/>
       <path id="DejaVuSans-39" d="M 703 97 
L 703 672 
Q 941 559 1184 500 
Q 1428 441 1663 441 
Q 2288 441 2617 861 
Q 2947 1281 2994 2138 
Q 2813 1869 2534 1725 
Q 2256 1581 1919 1581 
Q 1219 1581 811 2004 
Q 403 2428 403 3163 
Q 403 3881 828 4315 
Q 1253 4750 1959 4750 
Q 2769 4750 3195 4129 
Q 3622 3509 3622 2328 
Q 3622 1225 3098 567 
Q 2575 -91 1691 -91 
Q 1453 -91 1209 -44 
Q 966 3 703 97 
z
M 1959 2075 
Q 2384 2075 2632 2365 
Q 2881 2656 2881 3163 
Q 2881 3666 2632 3958 
Q 2384 4250 1959 4250 
Q 1534 4250 1286 3958 
Q 1038 3666 1038 3163 
Q 1038 2656 1286 2365 
Q 1534 2075 1959 2075 
z
" transform="scale(0.015625)"/>
       <path id="DejaVuSans-Oblique-72" d="M 2853 2969 
Q 2766 3016 2653 3041 
Q 2541 3066 2413 3066 
Q 1953 3066 1609 2717 
Q 1266 2369 1153 1784 
L 800 0 
L 225 0 
L 909 3500 
L 1484 3500 
L 1375 2956 
Q 1603 3259 1920 3421 
Q 2238 3584 2597 3584 
Q 2691 3584 2781 3573 
Q 2872 3563 2963 3538 
L 2853 2969 
z
" transform="scale(0.015625)"/>
       <path id="DejaVuSans-Oblique-4f" d="M 2919 4238 
Q 2400 4238 2003 3986 
Q 1606 3734 1313 3219 
Q 1125 2891 1026 2522 
Q 928 2153 928 1778 
Q 928 1128 1239 775 
Q 1550 422 2119 422 
Q 2631 422 3032 676 
Q 3434 931 3719 1434 
Q 3909 1772 4009 2142 
Q 4109 2513 4109 2881 
Q 4109 3528 3796 3883 
Q 3484 4238 2919 4238 
z
M 2100 -91 
Q 1241 -91 748 418 
Q 256 928 256 1813 
Q 256 2319 448 2847 
Q 641 3375 978 3788 
Q 1375 4272 1862 4511 
Q 2350 4750 2938 4750 
Q 3794 4750 4287 4245 
Q 4781 3741 4781 2869 
Q 4781 2331 4593 1812 
Q 4406 1294 4056 872 
Q 3656 384 3173 146 
Q 2691 -91 2100 -91 
z
" transform="scale(0.015625)"/>
       <path id="DejaVuSans-394" d="M 2188 4044 
L 906 525 
L 3472 525 
L 2188 4044 
z
M 50 0 
L 1831 4666 
L 2547 4666 
L 4325 0 
L 50 0 
z
" transform="scale(0.015625)"/>
       <path id="DejaVuSans-Oblique-74" d="M 2706 3500 
L 2619 3053 
L 1472 3053 
L 1100 1153 
Q 1081 1047 1072 975 
Q 1063 903 1063 863 
Q 1063 663 1183 572 
Q 1303 481 1569 481 
L 2150 481 
L 2053 0 
L 1503 0 
Q 991 0 739 200 
Q 488 400 488 806 
Q 488 878 497 964 
Q 506 1050 525 1153 
L 897 3053 
L 409 3053 
L 500 3500 
L 978 3500 
L 1172 4494 
L 1747 4494 
L 1556 3500 
L 2706 3500 
z
" transform="scale(0.015625)"/>
      </defs>
      <use xlink:href="#DejaVuSans-3a3" transform="translate(0 0.765625)"/>
      <use xlink:href="#DejaVuSans-5b" transform="translate(63.183594 0.765625)"/>
      <use xlink:href="#DejaVuSans-Oblique-41" transform="translate(102.197266 0.765625)"/>
      <use xlink:href="#DejaVuSans-Oblique-6d" transform="translate(170.605469 0.765625)"/>
      <use xlink:href="#DejaVuSans-Oblique-69" transform="translate(268.017578 0.765625)"/>
      <use xlink:href="#DejaVuSans-Oblique-6e" transform="translate(295.800781 0.765625)"/>
      <use xlink:href="#DejaVuSans-Oblique-65" transform="translate(359.179688 0.765625)"/>
      <use xlink:href="#DejaVuSans-5d" transform="translate(420.703125 0.765625)"/>
      <use xlink:href="#DejaVuSans-31" transform="translate(460.673828 39.046875) scale(0.7)"/>
      <use xlink:href="#DejaVuSans-2e" transform="translate(505.209961 39.046875) scale(0.7)"/>
      <use xlink:href="#DejaVuSans-38" transform="translate(525.623438 39.046875) scale(0.7)"/>
      <use xlink:href="#DejaVuSans-30" transform="translate(570.15957 39.046875) scale(0.7)"/>
      <use xlink:href="#DejaVuSans-5b" transform="translate(617.430078 0.765625)"/>
      <use xlink:href="#DejaVuSans-Oblique-50" transform="translate(656.44375 0.765625)"/>
      <use xlink:href="#DejaVuSans-Oblique-68" transform="translate(716.746484 0.765625)"/>
      <use xlink:href="#DejaVuSans-Oblique-65" transform="translate(780.125391 0.765625)"/>
      <use xlink:href="#DejaVuSans-Oblique-6e" transform="translate(841.648828 0.765625)"/>
      <use xlink:href="#DejaVuSans-Oblique-6f" transform="translate(905.027734 0.765625)"/>
      <use xlink:href="#DejaVuSans-Oblique-6c" transform="translate(966.209375 0.765625)"/>
      <use xlink:href="#DejaVuSans-5d" transform="translate(993.992578 0.765625)"/>
      <use xlink:href="#DejaVuSans-2212" transform="translate(1033.963281 39.046875) scale(0.7)"/>
      <use xlink:href="#DejaVuSans-30" transform="translate(1092.615625 39.046875) scale(0.7)"/>
      <use xlink:href="#DejaVuSans-2e" transform="translate(1137.151758 39.046875) scale(0.7)"/>
      <use xlink:href="#DejaVuSans-30" transform="translate(1159.402734 39.046875) scale(0.7)"/>
      <use xlink:href="#DejaVuSans-39" transform="translate(1203.938867 39.046875) scale(0.7)"/>
      <use xlink:href="#DejaVuSans-5b" transform="translate(1251.209375 0.765625)"/>
      <use xlink:href="#DejaVuSans-Oblique-41" transform="translate(1290.223047 0.765625)"/>
      <use xlink:href="#DejaVuSans-Oblique-72" transform="translate(1358.63125 0.765625)"/>
      <use xlink:href="#DejaVuSans-Oblique-4f" transform="translate(1399.744531 0.765625)"/>
      <use xlink:href="#DejaVuSans-Oblique-50" transform="translate(1478.455469 0.765625)"/>
      <use xlink:href="#DejaVuSans-Oblique-68" transform="translate(1538.758203 0.765625)"/>
      <use xlink:href="#DejaVuSans-5d" transform="translate(1602.137109 0.765625)"/>
      <use xlink:href="#DejaVuSans-31" transform="translate(1642.107812 39.046875) scale(0.7)"/>
      <use xlink:href="#DejaVuSans-2e" transform="translate(1686.643945 39.046875) scale(0.7)"/>
      <use xlink:href="#DejaVuSans-30" transform="translate(1708.894922 39.046875) scale(0.7)"/>
      <use xlink:href="#DejaVuSans-35" transform="translate(1753.431055 39.046875) scale(0.7)"/>
      <use xlink:href="#DejaVuSans-394" transform="translate(1800.701562 0.765625)"/>
      <use xlink:href="#DejaVuSans-Oblique-74" transform="translate(1869.109766 0.765625)"/>
      <use xlink:href="#DejaVuSans-2e" transform="translate(1908.31875 0.765625)"/>
     </g>
    </g>
    <g id="text_7">
     <!-- 1e5 -->
     <g transform="translate(269.203475 217.926625) scale(0.1 -0.1)">
      <defs>
       <path id="DejaVuSans-65" d="M 3597 1894 
L 3597 1613 
L 953 1613 
Q 991 1019 1311 708 
Q 1631 397 2203 397 
Q 2534 397 2845 478 
Q 3156 559 3463 722 
L 3463 178 
Q 3153 47 2828 -22 
Q 2503 -91 2169 -91 
Q 1331 -91 842 396 
Q 353 884 353 1716 
Q 353 2575 817 3079 
Q 1281 3584 2069 3584 
Q 2775 3584 3186 3129 
Q 3597 2675 3597 1894 
z
M 3022 2063 
Q 3016 2534 2758 2815 
Q 2500 3097 2075 3097 
Q 1594 3097 1305 2825 
Q 1016 2553 972 2059 
L 3022 2063 
z
" transform="scale(0.015625)"/>
      </defs>
      <use xlink:href="#DejaVuSans-31"/>
      <use xlink:href="#DejaVuSans-65" transform="translate(63.623047 0)"/>
      <use xlink:href="#DejaVuSans-35" transform="translate(125.146484 0)"/>
     </g>
    </g>
   </g>
   <g id="matplotlib.axis_2">
    <g id="ytick_1">
     <g id="line2d_6">
      <defs>
       <path id="m5cb39ec4f3" d="M 0 0 
L -3.5 0 
" style="stroke: #000000; stroke-width: 0.8"/>
      </defs>
      <g>
       <use xlink:href="#m5cb39ec4f3" x="43.78125" y="183.614464" style="stroke: #000000; stroke-width: 0.8"/>
      </g>
     </g>
     <g id="text_8">
      <!-- 0.8 -->
      <g transform="translate(20.878125 187.413682) scale(0.1 -0.1)">
       <use xlink:href="#DejaVuSans-30"/>
       <use xlink:href="#DejaVuSans-2e" transform="translate(63.623047 0)"/>
       <use xlink:href="#DejaVuSans-38" transform="translate(95.410156 0)"/>
      </g>
     </g>
    </g>
    <g id="ytick_2">
     <g id="line2d_7">
      <g>
       <use xlink:href="#m5cb39ec4f3" x="43.78125" y="152.834814" style="stroke: #000000; stroke-width: 0.8"/>
      </g>
     </g>
     <g id="text_9">
      <!-- 0.9 -->
      <g transform="translate(20.878125 156.634033) scale(0.1 -0.1)">
       <use xlink:href="#DejaVuSans-30"/>
       <use xlink:href="#DejaVuSans-2e" transform="translate(63.623047 0)"/>
       <use xlink:href="#DejaVuSans-39" transform="translate(95.410156 0)"/>
      </g>
     </g>
    </g>
    <g id="ytick_3">
     <g id="line2d_8">
      <g>
       <use xlink:href="#m5cb39ec4f3" x="43.78125" y="122.055165" style="stroke: #000000; stroke-width: 0.8"/>
      </g>
     </g>
     <g id="text_10">
      <!-- 1.0 -->
      <g transform="translate(20.878125 125.854384) scale(0.1 -0.1)">
       <use xlink:href="#DejaVuSans-31"/>
       <use xlink:href="#DejaVuSans-2e" transform="translate(63.623047 0)"/>
       <use xlink:href="#DejaVuSans-30" transform="translate(95.410156 0)"/>
      </g>
     </g>
    </g>
    <g id="ytick_4">
     <g id="line2d_9">
      <g>
       <use xlink:href="#m5cb39ec4f3" x="43.78125" y="91.275516" style="stroke: #000000; stroke-width: 0.8"/>
      </g>
     </g>
     <g id="text_11">
      <!-- 1.1 -->
      <g transform="translate(20.878125 95.074735) scale(0.1 -0.1)">
       <use xlink:href="#DejaVuSans-31"/>
       <use xlink:href="#DejaVuSans-2e" transform="translate(63.623047 0)"/>
       <use xlink:href="#DejaVuSans-31" transform="translate(95.410156 0)"/>
      </g>
     </g>
    </g>
    <g id="ytick_5">
     <g id="line2d_10">
      <g>
       <use xlink:href="#m5cb39ec4f3" x="43.78125" y="60.495867" style="stroke: #000000; stroke-width: 0.8"/>
      </g>
     </g>
     <g id="text_12">
      <!-- 1.2 -->
      <g transform="translate(20.878125 64.295086) scale(0.1 -0.1)">
       <use xlink:href="#DejaVuSans-31"/>
       <use xlink:href="#DejaVuSans-2e" transform="translate(63.623047 0)"/>
       <use xlink:href="#DejaVuSans-32" transform="translate(95.410156 0)"/>
      </g>
     </g>
    </g>
    <g id="text_13">
     <!-- Shifted Scaled [Product] -->
     <g transform="translate(14.798438 177.22675) rotate(-90) scale(0.1 -0.1)">
      <defs>
       <path id="DejaVuSans-53" d="M 3425 4513 
L 3425 3897 
Q 3066 4069 2747 4153 
Q 2428 4238 2131 4238 
Q 1616 4238 1336 4038 
Q 1056 3838 1056 3469 
Q 1056 3159 1242 3001 
Q 1428 2844 1947 2747 
L 2328 2669 
Q 3034 2534 3370 2195 
Q 3706 1856 3706 1288 
Q 3706 609 3251 259 
Q 2797 -91 1919 -91 
Q 1588 -91 1214 -16 
Q 841 59 441 206 
L 441 856 
Q 825 641 1194 531 
Q 1563 422 1919 422 
Q 2459 422 2753 634 
Q 3047 847 3047 1241 
Q 3047 1584 2836 1778 
Q 2625 1972 2144 2069 
L 1759 2144 
Q 1053 2284 737 2584 
Q 422 2884 422 3419 
Q 422 4038 858 4394 
Q 1294 4750 2059 4750 
Q 2388 4750 2728 4690 
Q 3069 4631 3425 4513 
z
" transform="scale(0.015625)"/>
       <path id="DejaVuSans-68" d="M 3513 2113 
L 3513 0 
L 2938 0 
L 2938 2094 
Q 2938 2591 2744 2837 
Q 2550 3084 2163 3084 
Q 1697 3084 1428 2787 
Q 1159 2491 1159 1978 
L 1159 0 
L 581 0 
L 581 4863 
L 1159 4863 
L 1159 2956 
Q 1366 3272 1645 3428 
Q 1925 3584 2291 3584 
Q 2894 3584 3203 3211 
Q 3513 2838 3513 2113 
z
" transform="scale(0.015625)"/>
       <path id="DejaVuSans-69" d="M 603 3500 
L 1178 3500 
L 1178 0 
L 603 0 
L 603 3500 
z
M 603 4863 
L 1178 4863 
L 1178 4134 
L 603 4134 
L 603 4863 
z
" transform="scale(0.015625)"/>
       <path id="DejaVuSans-66" d="M 2375 4863 
L 2375 4384 
L 1825 4384 
Q 1516 4384 1395 4259 
Q 1275 4134 1275 3809 
L 1275 3500 
L 2222 3500 
L 2222 3053 
L 1275 3053 
L 1275 0 
L 697 0 
L 697 3053 
L 147 3053 
L 147 3500 
L 697 3500 
L 697 3744 
Q 697 4328 969 4595 
Q 1241 4863 1831 4863 
L 2375 4863 
z
" transform="scale(0.015625)"/>
       <path id="DejaVuSans-74" d="M 1172 4494 
L 1172 3500 
L 2356 3500 
L 2356 3053 
L 1172 3053 
L 1172 1153 
Q 1172 725 1289 603 
Q 1406 481 1766 481 
L 2356 481 
L 2356 0 
L 1766 0 
Q 1100 0 847 248 
Q 594 497 594 1153 
L 594 3053 
L 172 3053 
L 172 3500 
L 594 3500 
L 594 4494 
L 1172 4494 
z
" transform="scale(0.015625)"/>
       <path id="DejaVuSans-64" d="M 2906 2969 
L 2906 4863 
L 3481 4863 
L 3481 0 
L 2906 0 
L 2906 525 
Q 2725 213 2448 61 
Q 2172 -91 1784 -91 
Q 1150 -91 751 415 
Q 353 922 353 1747 
Q 353 2572 751 3078 
Q 1150 3584 1784 3584 
Q 2172 3584 2448 3432 
Q 2725 3281 2906 2969 
z
M 947 1747 
Q 947 1113 1208 752 
Q 1469 391 1925 391 
Q 2381 391 2643 752 
Q 2906 1113 2906 1747 
Q 2906 2381 2643 2742 
Q 2381 3103 1925 3103 
Q 1469 3103 1208 2742 
Q 947 2381 947 1747 
z
" transform="scale(0.015625)"/>
       <path id="DejaVuSans-20" transform="scale(0.015625)"/>
       <path id="DejaVuSans-63" d="M 3122 3366 
L 3122 2828 
Q 2878 2963 2633 3030 
Q 2388 3097 2138 3097 
Q 1578 3097 1268 2742 
Q 959 2388 959 1747 
Q 959 1106 1268 751 
Q 1578 397 2138 397 
Q 2388 397 2633 464 
Q 2878 531 3122 666 
L 3122 134 
Q 2881 22 2623 -34 
Q 2366 -91 2075 -91 
Q 1284 -91 818 406 
Q 353 903 353 1747 
Q 353 2603 823 3093 
Q 1294 3584 2113 3584 
Q 2378 3584 2631 3529 
Q 2884 3475 3122 3366 
z
" transform="scale(0.015625)"/>
       <path id="DejaVuSans-61" d="M 2194 1759 
Q 1497 1759 1228 1600 
Q 959 1441 959 1056 
Q 959 750 1161 570 
Q 1363 391 1709 391 
Q 2188 391 2477 730 
Q 2766 1069 2766 1631 
L 2766 1759 
L 2194 1759 
z
M 3341 1997 
L 3341 0 
L 2766 0 
L 2766 531 
Q 2569 213 2275 61 
Q 1981 -91 1556 -91 
Q 1019 -91 701 211 
Q 384 513 384 1019 
Q 384 1609 779 1909 
Q 1175 2209 1959 2209 
L 2766 2209 
L 2766 2266 
Q 2766 2663 2505 2880 
Q 2244 3097 1772 3097 
Q 1472 3097 1187 3025 
Q 903 2953 641 2809 
L 641 3341 
Q 956 3463 1253 3523 
Q 1550 3584 1831 3584 
Q 2591 3584 2966 3190 
Q 3341 2797 3341 1997 
z
" transform="scale(0.015625)"/>
       <path id="DejaVuSans-6c" d="M 603 4863 
L 1178 4863 
L 1178 0 
L 603 0 
L 603 4863 
z
" transform="scale(0.015625)"/>
       <path id="DejaVuSans-50" d="M 1259 4147 
L 1259 2394 
L 2053 2394 
Q 2494 2394 2734 2622 
Q 2975 2850 2975 3272 
Q 2975 3691 2734 3919 
Q 2494 4147 2053 4147 
L 1259 4147 
z
M 628 4666 
L 2053 4666 
Q 2838 4666 3239 4311 
Q 3641 3956 3641 3272 
Q 3641 2581 3239 2228 
Q 2838 1875 2053 1875 
L 1259 1875 
L 1259 0 
L 628 0 
L 628 4666 
z
" transform="scale(0.015625)"/>
       <path id="DejaVuSans-72" d="M 2631 2963 
Q 2534 3019 2420 3045 
Q 2306 3072 2169 3072 
Q 1681 3072 1420 2755 
Q 1159 2438 1159 1844 
L 1159 0 
L 581 0 
L 581 3500 
L 1159 3500 
L 1159 2956 
Q 1341 3275 1631 3429 
Q 1922 3584 2338 3584 
Q 2397 3584 2469 3576 
Q 2541 3569 2628 3553 
L 2631 2963 
z
" transform="scale(0.015625)"/>
       <path id="DejaVuSans-6f" d="M 1959 3097 
Q 1497 3097 1228 2736 
Q 959 2375 959 1747 
Q 959 1119 1226 758 
Q 1494 397 1959 397 
Q 2419 397 2687 759 
Q 2956 1122 2956 1747 
Q 2956 2369 2687 2733 
Q 2419 3097 1959 3097 
z
M 1959 3584 
Q 2709 3584 3137 3096 
Q 3566 2609 3566 1747 
Q 3566 888 3137 398 
Q 2709 -91 1959 -91 
Q 1206 -91 779 398 
Q 353 888 353 1747 
Q 353 2609 779 3096 
Q 1206 3584 1959 3584 
z
" transform="scale(0.015625)"/>
       <path id="DejaVuSans-75" d="M 544 1381 
L 544 3500 
L 1119 3500 
L 1119 1403 
Q 1119 906 1312 657 
Q 1506 409 1894 409 
Q 2359 409 2629 706 
Q 2900 1003 2900 1516 
L 2900 3500 
L 3475 3500 
L 3475 0 
L 2900 0 
L 2900 538 
Q 2691 219 2414 64 
Q 2138 -91 1772 -91 
Q 1169 -91 856 284 
Q 544 659 544 1381 
z
M 1991 3584 
L 1991 3584 
z
" transform="scale(0.015625)"/>
      </defs>
      <use xlink:href="#DejaVuSans-53"/>
      <use xlink:href="#DejaVuSans-68" transform="translate(63.476562 0)"/>
      <use xlink:href="#DejaVuSans-69" transform="translate(126.855469 0)"/>
      <use xlink:href="#DejaVuSans-66" transform="translate(154.638672 0)"/>
      <use xlink:href="#DejaVuSans-74" transform="translate(188.09375 0)"/>
      <use xlink:href="#DejaVuSans-65" transform="translate(227.302734 0)"/>
      <use xlink:href="#DejaVuSans-64" transform="translate(288.826172 0)"/>
      <use xlink:href="#DejaVuSans-20" transform="translate(352.302734 0)"/>
      <use xlink:href="#DejaVuSans-53" transform="translate(384.089844 0)"/>
      <use xlink:href="#DejaVuSans-63" transform="translate(447.566406 0)"/>
      <use xlink:href="#DejaVuSans-61" transform="translate(502.546875 0)"/>
      <use xlink:href="#DejaVuSans-6c" transform="translate(563.826172 0)"/>
      <use xlink:href="#DejaVuSans-65" transform="translate(591.609375 0)"/>
      <use xlink:href="#DejaVuSans-64" transform="translate(653.132812 0)"/>
      <use xlink:href="#DejaVuSans-20" transform="translate(716.609375 0)"/>
      <use xlink:href="#DejaVuSans-5b" transform="translate(748.396484 0)"/>
      <use xlink:href="#DejaVuSans-50" transform="translate(787.410156 0)"/>
      <use xlink:href="#DejaVuSans-72" transform="translate(845.962891 0)"/>
      <use xlink:href="#DejaVuSans-6f" transform="translate(884.826172 0)"/>
      <use xlink:href="#DejaVuSans-64" transform="translate(946.007812 0)"/>
      <use xlink:href="#DejaVuSans-75" transform="translate(1009.484375 0)"/>
      <use xlink:href="#DejaVuSans-63" transform="translate(1072.863281 0)"/>
      <use xlink:href="#DejaVuSans-74" transform="translate(1127.84375 0)"/>
      <use xlink:href="#DejaVuSans-5d" transform="translate(1167.052734 0)"/>
     </g>
    </g>
   </g>
   <g id="line2d_11">
    <path d="M 43.78125 178.634528 
L 58.072787 176.469731 
L 77.508937 166.098027 
L 91.295975 158.403521 
L 102.19095 152.326449 
L 110.833255 146.107061 
L 118.061339 141.617145 
L 124.005317 137.821253 
L 129.161363 135.499536 
L 133.812186 132.277113 
L 137.785892 130.215002 
L 141.351176 128.106481 
L 144.563564 125.340012 
L 147.266778 123.141255 
L 149.646234 121.518715 
L 151.868636 120.151137 
L 153.79671 118.244203 
L 155.501275 116.795403 
L 157.093332 115.731557 
L 158.505963 114.825032 
L 159.75777 112.913848 
L 160.884977 111.880274 
L 161.878498 110.874073 
L 162.757955 109.576287 
L 163.551509 108.377302 
L 164.214181 107.102912 
L 164.836877 107.366021 
L 165.415726 105.587077 
L 165.867147 104.219835 
L 166.284546 104.552284 
L 166.676026 103.340419 
L 167.043899 103.420364 
L 167.370356 102.359598 
" clip-path="url(#p0a60d5e7e1)" style="fill: none; stroke: #1f77b4; stroke-width: 0.7; stroke-linecap: square"/>
    <defs>
     <path id="m115347ccaa" d="M 0 0.9 
C 0.238683 0.9 0.467622 0.80517 0.636396 0.636396 
C 0.80517 0.467622 0.9 0.238683 0.9 0 
C 0.9 -0.238683 0.80517 -0.467622 0.636396 -0.636396 
C 0.467622 -0.80517 0.238683 -0.9 0 -0.9 
C -0.238683 -0.9 -0.467622 -0.80517 -0.636396 -0.636396 
C -0.80517 -0.467622 -0.9 -0.238683 -0.9 0 
C -0.9 0.238683 -0.80517 0.467622 -0.636396 0.636396 
C -0.467622 0.80517 -0.238683 0.9 0 0.9 
z
" style="stroke: #1f77b4"/>
    </defs>
    <g clip-path="url(#p0a60d5e7e1)">
     <use xlink:href="#m115347ccaa" x="43.78125" y="178.634528" style="fill: #1f77b4; stroke: #1f77b4"/>
     <use xlink:href="#m115347ccaa" x="58.072787" y="176.469731" style="fill: #1f77b4; stroke: #1f77b4"/>
     <use xlink:href="#m115347ccaa" x="77.508937" y="166.098027" style="fill: #1f77b4; stroke: #1f77b4"/>
     <use xlink:href="#m115347ccaa" x="91.295975" y="158.403521" style="fill: #1f77b4; stroke: #1f77b4"/>
     <use xlink:href="#m115347ccaa" x="102.19095" y="152.326449" style="fill: #1f77b4; stroke: #1f77b4"/>
     <use xlink:href="#m115347ccaa" x="110.833255" y="146.107061" style="fill: #1f77b4; stroke: #1f77b4"/>
     <use xlink:href="#m115347ccaa" x="118.061339" y="141.617145" style="fill: #1f77b4; stroke: #1f77b4"/>
     <use xlink:href="#m115347ccaa" x="124.005317" y="137.821253" style="fill: #1f77b4; stroke: #1f77b4"/>
     <use xlink:href="#m115347ccaa" x="129.161363" y="135.499536" style="fill: #1f77b4; stroke: #1f77b4"/>
     <use xlink:href="#m115347ccaa" x="133.812186" y="132.277113" style="fill: #1f77b4; stroke: #1f77b4"/>
     <use xlink:href="#m115347ccaa" x="137.785892" y="130.215002" style="fill: #1f77b4; stroke: #1f77b4"/>
     <use xlink:href="#m115347ccaa" x="141.351176" y="128.106481" style="fill: #1f77b4; stroke: #1f77b4"/>
     <use xlink:href="#m115347ccaa" x="144.563564" y="125.340012" style="fill: #1f77b4; stroke: #1f77b4"/>
     <use xlink:href="#m115347ccaa" x="147.266778" y="123.141255" style="fill: #1f77b4; stroke: #1f77b4"/>
     <use xlink:href="#m115347ccaa" x="149.646234" y="121.518715" style="fill: #1f77b4; stroke: #1f77b4"/>
     <use xlink:href="#m115347ccaa" x="151.868636" y="120.151137" style="fill: #1f77b4; stroke: #1f77b4"/>
     <use xlink:href="#m115347ccaa" x="153.79671" y="118.244203" style="fill: #1f77b4; stroke: #1f77b4"/>
     <use xlink:href="#m115347ccaa" x="155.501275" y="116.795403" style="fill: #1f77b4; stroke: #1f77b4"/>
     <use xlink:href="#m115347ccaa" x="157.093332" y="115.731557" style="fill: #1f77b4; stroke: #1f77b4"/>
     <use xlink:href="#m115347ccaa" x="158.505963" y="114.825032" style="fill: #1f77b4; stroke: #1f77b4"/>
     <use xlink:href="#m115347ccaa" x="159.75777" y="112.913848" style="fill: #1f77b4; stroke: #1f77b4"/>
     <use xlink:href="#m115347ccaa" x="160.884977" y="111.880274" style="fill: #1f77b4; stroke: #1f77b4"/>
     <use xlink:href="#m115347ccaa" x="161.878498" y="110.874073" style="fill: #1f77b4; stroke: #1f77b4"/>
     <use xlink:href="#m115347ccaa" x="162.757955" y="109.576287" style="fill: #1f77b4; stroke: #1f77b4"/>
     <use xlink:href="#m115347ccaa" x="163.551509" y="108.377302" style="fill: #1f77b4; stroke: #1f77b4"/>
     <use xlink:href="#m115347ccaa" x="164.214181" y="107.102912" style="fill: #1f77b4; stroke: #1f77b4"/>
     <use xlink:href="#m115347ccaa" x="164.836877" y="107.366021" style="fill: #1f77b4; stroke: #1f77b4"/>
     <use xlink:href="#m115347ccaa" x="165.415726" y="105.587077" style="fill: #1f77b4; stroke: #1f77b4"/>
     <use xlink:href="#m115347ccaa" x="165.867147" y="104.219835" style="fill: #1f77b4; stroke: #1f77b4"/>
     <use xlink:href="#m115347ccaa" x="166.284546" y="104.552284" style="fill: #1f77b4; stroke: #1f77b4"/>
     <use xlink:href="#m115347ccaa" x="166.676026" y="103.340419" style="fill: #1f77b4; stroke: #1f77b4"/>
     <use xlink:href="#m115347ccaa" x="167.043899" y="103.420364" style="fill: #1f77b4; stroke: #1f77b4"/>
     <use xlink:href="#m115347ccaa" x="167.370356" y="102.359598" style="fill: #1f77b4; stroke: #1f77b4"/>
    </g>
   </g>
   <g id="line2d_12">
    <path d="M 43.78125 178.634528 
L 94.785309 151.536725 
L 128.928984 132.813715 
L 154.418771 117.82405 
L 174.772828 106.293028 
L 190.55431 96.382595 
L 203.383092 88.091347 
L 214.405307 81.980606 
L 223.446631 74.965257 
L 231.216771 70.283106 
L 237.947048 65.31752 
L 244.01327 61.234894 
L 249.225585 58.443195 
L 253.995491 55.980133 
L 258.401536 52.02767 
L 262.247917 49.896608 
" clip-path="url(#p0a60d5e7e1)" style="fill: none; stroke: #ff7f0e; stroke-width: 0.7; stroke-linecap: square"/>
    <defs>
     <path id="m2428400541" d="M 0 0.9 
C 0.238683 0.9 0.467622 0.80517 0.636396 0.636396 
C 0.80517 0.467622 0.9 0.238683 0.9 0 
C 0.9 -0.238683 0.80517 -0.467622 0.636396 -0.636396 
C 0.467622 -0.80517 0.238683 -0.9 0 -0.9 
C -0.238683 -0.9 -0.467622 -0.80517 -0.636396 -0.636396 
C -0.80517 -0.467622 -0.9 -0.238683 -0.9 0 
C -0.9 0.238683 -0.80517 0.467622 -0.636396 0.636396 
C -0.467622 0.80517 -0.238683 0.9 0 0.9 
z
" style="stroke: #ff7f0e"/>
    </defs>
    <g clip-path="url(#p0a60d5e7e1)">
     <use xlink:href="#m2428400541" x="43.78125" y="178.634528" style="fill: #ff7f0e; stroke: #ff7f0e"/>
     <use xlink:href="#m2428400541" x="94.785309" y="151.536725" style="fill: #ff7f0e; stroke: #ff7f0e"/>
     <use xlink:href="#m2428400541" x="128.928984" y="132.813715" style="fill: #ff7f0e; stroke: #ff7f0e"/>
     <use xlink:href="#m2428400541" x="154.418771" y="117.82405" style="fill: #ff7f0e; stroke: #ff7f0e"/>
     <use xlink:href="#m2428400541" x="174.772828" y="106.293028" style="fill: #ff7f0e; stroke: #ff7f0e"/>
     <use xlink:href="#m2428400541" x="190.55431" y="96.382595" style="fill: #ff7f0e; stroke: #ff7f0e"/>
     <use xlink:href="#m2428400541" x="203.383092" y="88.091347" style="fill: #ff7f0e; stroke: #ff7f0e"/>
     <use xlink:href="#m2428400541" x="214.405307" y="81.980606" style="fill: #ff7f0e; stroke: #ff7f0e"/>
     <use xlink:href="#m2428400541" x="223.446631" y="74.965257" style="fill: #ff7f0e; stroke: #ff7f0e"/>
     <use xlink:href="#m2428400541" x="231.216771" y="70.283106" style="fill: #ff7f0e; stroke: #ff7f0e"/>
     <use xlink:href="#m2428400541" x="237.947048" y="65.31752" style="fill: #ff7f0e; stroke: #ff7f0e"/>
     <use xlink:href="#m2428400541" x="244.01327" y="61.234894" style="fill: #ff7f0e; stroke: #ff7f0e"/>
     <use xlink:href="#m2428400541" x="249.225585" y="58.443195" style="fill: #ff7f0e; stroke: #ff7f0e"/>
     <use xlink:href="#m2428400541" x="253.995491" y="55.980133" style="fill: #ff7f0e; stroke: #ff7f0e"/>
     <use xlink:href="#m2428400541" x="258.401536" y="52.02767" style="fill: #ff7f0e; stroke: #ff7f0e"/>
     <use xlink:href="#m2428400541" x="262.247917" y="49.896608" style="fill: #ff7f0e; stroke: #ff7f0e"/>
    </g>
   </g>
   <g id="line2d_13">
    <path d="M 43.78125 178.634528 
L 47.56943 180.324532 
L 51.121439 177.449638 
L 54.392224 176.227882 
L 57.550745 174.674257 
L 60.447044 173.242898 
L 63.220226 172.120835 
L 65.936632 171.374067 
L 68.449042 169.817554 
L 70.86207 169.250881 
L 73.265312 168.125694 
L 75.506171 167.799932 
L 77.607593 165.044548 
L 79.585438 163.784089 
L 81.416465 162.818131 
L 83.184651 162.318149 
L 84.8854 161.076752 
L 86.520554 159.793242 
L 87.998406 158.269168 
L 89.40702 157.732266 
L 90.779341 156.249293 
L 92.039286 155.293801 
L 93.240384 154.489236 
L 94.420459 154.026543 
L 95.525208 153.192753 
L 96.550551 151.632685 
L 97.55813 151.609168 
L 98.495555 150.419799 
L 99.40103 150.319837 
L 100.301157 150.558154 
L 101.199641 149.353031 
" clip-path="url(#p0a60d5e7e1)" style="fill: none; stroke: #2ca02c; stroke-width: 0.7; stroke-linecap: square"/>
    <defs>
     <path id="me0bd9f825b" d="M 0 0.9 
C 0.238683 0.9 0.467622 0.80517 0.636396 0.636396 
C 0.80517 0.467622 0.9 0.238683 0.9 0 
C 0.9 -0.238683 0.80517 -0.467622 0.636396 -0.636396 
C 0.467622 -0.80517 0.238683 -0.9 0 -0.9 
C -0.238683 -0.9 -0.467622 -0.80517 -0.636396 -0.636396 
C -0.80517 -0.467622 -0.9 -0.238683 -0.9 0 
C -0.9 0.238683 -0.80517 0.467622 -0.636396 0.636396 
C -0.467622 0.80517 -0.238683 0.9 0 0.9 
z
" style="stroke: #2ca02c"/>
    </defs>
    <g clip-path="url(#p0a60d5e7e1)">
     <use xlink:href="#me0bd9f825b" x="43.78125" y="178.634528" style="fill: #2ca02c; stroke: #2ca02c"/>
     <use xlink:href="#me0bd9f825b" x="47.56943" y="180.324532" style="fill: #2ca02c; stroke: #2ca02c"/>
     <use xlink:href="#me0bd9f825b" x="51.121439" y="177.449638" style="fill: #2ca02c; stroke: #2ca02c"/>
     <use xlink:href="#me0bd9f825b" x="54.392224" y="176.227882" style="fill: #2ca02c; stroke: #2ca02c"/>
     <use xlink:href="#me0bd9f825b" x="57.550745" y="174.674257" style="fill: #2ca02c; stroke: #2ca02c"/>
     <use xlink:href="#me0bd9f825b" x="60.447044" y="173.242898" style="fill: #2ca02c; stroke: #2ca02c"/>
     <use xlink:href="#me0bd9f825b" x="63.220226" y="172.120835" style="fill: #2ca02c; stroke: #2ca02c"/>
     <use xlink:href="#me0bd9f825b" x="65.936632" y="171.374067" style="fill: #2ca02c; stroke: #2ca02c"/>
     <use xlink:href="#me0bd9f825b" x="68.449042" y="169.817554" style="fill: #2ca02c; stroke: #2ca02c"/>
     <use xlink:href="#me0bd9f825b" x="70.86207" y="169.250881" style="fill: #2ca02c; stroke: #2ca02c"/>
     <use xlink:href="#me0bd9f825b" x="73.265312" y="168.125694" style="fill: #2ca02c; stroke: #2ca02c"/>
     <use xlink:href="#me0bd9f825b" x="75.506171" y="167.799932" style="fill: #2ca02c; stroke: #2ca02c"/>
     <use xlink:href="#me0bd9f825b" x="77.607593" y="165.044548" style="fill: #2ca02c; stroke: #2ca02c"/>
     <use xlink:href="#me0bd9f825b" x="79.585438" y="163.784089" style="fill: #2ca02c; stroke: #2ca02c"/>
     <use xlink:href="#me0bd9f825b" x="81.416465" y="162.818131" style="fill: #2ca02c; stroke: #2ca02c"/>
     <use xlink:href="#me0bd9f825b" x="83.184651" y="162.318149" style="fill: #2ca02c; stroke: #2ca02c"/>
     <use xlink:href="#me0bd9f825b" x="84.8854" y="161.076752" style="fill: #2ca02c; stroke: #2ca02c"/>
     <use xlink:href="#me0bd9f825b" x="86.520554" y="159.793242" style="fill: #2ca02c; stroke: #2ca02c"/>
     <use xlink:href="#me0bd9f825b" x="87.998406" y="158.269168" style="fill: #2ca02c; stroke: #2ca02c"/>
     <use xlink:href="#me0bd9f825b" x="89.40702" y="157.732266" style="fill: #2ca02c; stroke: #2ca02c"/>
     <use xlink:href="#me0bd9f825b" x="90.779341" y="156.249293" style="fill: #2ca02c; stroke: #2ca02c"/>
     <use xlink:href="#me0bd9f825b" x="92.039286" y="155.293801" style="fill: #2ca02c; stroke: #2ca02c"/>
     <use xlink:href="#me0bd9f825b" x="93.240384" y="154.489236" style="fill: #2ca02c; stroke: #2ca02c"/>
     <use xlink:href="#me0bd9f825b" x="94.420459" y="154.026543" style="fill: #2ca02c; stroke: #2ca02c"/>
     <use xlink:href="#me0bd9f825b" x="95.525208" y="153.192753" style="fill: #2ca02c; stroke: #2ca02c"/>
     <use xlink:href="#me0bd9f825b" x="96.550551" y="151.632685" style="fill: #2ca02c; stroke: #2ca02c"/>
     <use xlink:href="#me0bd9f825b" x="97.55813" y="151.609168" style="fill: #2ca02c; stroke: #2ca02c"/>
     <use xlink:href="#me0bd9f825b" x="98.495555" y="150.419799" style="fill: #2ca02c; stroke: #2ca02c"/>
     <use xlink:href="#me0bd9f825b" x="99.40103" y="150.319837" style="fill: #2ca02c; stroke: #2ca02c"/>
     <use xlink:href="#me0bd9f825b" x="100.301157" y="150.558154" style="fill: #2ca02c; stroke: #2ca02c"/>
     <use xlink:href="#me0bd9f825b" x="101.199641" y="149.353031" style="fill: #2ca02c; stroke: #2ca02c"/>
    </g>
   </g>
   <g id="line2d_14">
    <path d="M 43.78125 178.634528 
L 85.979726 153.708905 
L 113.916926 137.44916 
L 132.789942 125.954134 
L 146.903211 117.686463 
L 158.140337 111.557945 
L 166.804139 107.320337 
L 173.839067 102.816776 
L 179.648748 100.098101 
L 184.242922 96.814898 
L 188.062185 94.667491 
L 191.21698 93.060165 
L 193.90013 91.026489 
L 196.153284 90.171426 
L 198.174576 89.113585 
L 199.927085 88.289603 
L 201.366742 87.148966 
L 202.669008 86.596649 
L 203.874833 86.483467 
L 204.928331 85.447357 
L 205.828605 85.11294 
L 206.685442 84.671563 
L 207.425182 84.094591 
L 207.993078 83.756307 
L 208.543609 84.515765 
L 209.079002 83.805387 
L 209.485303 84.235619 
L 209.928956 83.482149 
L 210.325501 83.42455 
L 210.712414 82.656459 
L 211.106142 82.579509 
L 211.393704 82.520918 
L 211.723516 83.002703 
L 212.030859 82.762172 
" clip-path="url(#p0a60d5e7e1)" style="fill: none; stroke: #d62728; stroke-width: 0.7; stroke-linecap: square"/>
    <defs>
     <path id="m67e851a461" d="M 0 0.9 
C 0.238683 0.9 0.467622 0.80517 0.636396 0.636396 
C 0.80517 0.467622 0.9 0.238683 0.9 0 
C 0.9 -0.238683 0.80517 -0.467622 0.636396 -0.636396 
C 0.467622 -0.80517 0.238683 -0.9 0 -0.9 
C -0.238683 -0.9 -0.467622 -0.80517 -0.636396 -0.636396 
C -0.80517 -0.467622 -0.9 -0.238683 -0.9 0 
C -0.9 0.238683 -0.80517 0.467622 -0.636396 0.636396 
C -0.467622 0.80517 -0.238683 0.9 0 0.9 
z
" style="stroke: #d62728"/>
    </defs>
    <g clip-path="url(#p0a60d5e7e1)">
     <use xlink:href="#m67e851a461" x="43.78125" y="178.634528" style="fill: #d62728; stroke: #d62728"/>
     <use xlink:href="#m67e851a461" x="85.979726" y="153.708905" style="fill: #d62728; stroke: #d62728"/>
     <use xlink:href="#m67e851a461" x="113.916926" y="137.44916" style="fill: #d62728; stroke: #d62728"/>
     <use xlink:href="#m67e851a461" x="132.789942" y="125.954134" style="fill: #d62728; stroke: #d62728"/>
     <use xlink:href="#m67e851a461" x="146.903211" y="117.686463" style="fill: #d62728; stroke: #d62728"/>
     <use xlink:href="#m67e851a461" x="158.140337" y="111.557945" style="fill: #d62728; stroke: #d62728"/>
     <use xlink:href="#m67e851a461" x="166.804139" y="107.320337" style="fill: #d62728; stroke: #d62728"/>
     <use xlink:href="#m67e851a461" x="173.839067" y="102.816776" style="fill: #d62728; stroke: #d62728"/>
     <use xlink:href="#m67e851a461" x="179.648748" y="100.098101" style="fill: #d62728; stroke: #d62728"/>
     <use xlink:href="#m67e851a461" x="184.242922" y="96.814898" style="fill: #d62728; stroke: #d62728"/>
     <use xlink:href="#m67e851a461" x="188.062185" y="94.667491" style="fill: #d62728; stroke: #d62728"/>
     <use xlink:href="#m67e851a461" x="191.21698" y="93.060165" style="fill: #d62728; stroke: #d62728"/>
     <use xlink:href="#m67e851a461" x="193.90013" y="91.026489" style="fill: #d62728; stroke: #d62728"/>
     <use xlink:href="#m67e851a461" x="196.153284" y="90.171426" style="fill: #d62728; stroke: #d62728"/>
     <use xlink:href="#m67e851a461" x="198.174576" y="89.113585" style="fill: #d62728; stroke: #d62728"/>
     <use xlink:href="#m67e851a461" x="199.927085" y="88.289603" style="fill: #d62728; stroke: #d62728"/>
     <use xlink:href="#m67e851a461" x="201.366742" y="87.148966" style="fill: #d62728; stroke: #d62728"/>
     <use xlink:href="#m67e851a461" x="202.669008" y="86.596649" style="fill: #d62728; stroke: #d62728"/>
     <use xlink:href="#m67e851a461" x="203.874833" y="86.483467" style="fill: #d62728; stroke: #d62728"/>
     <use xlink:href="#m67e851a461" x="204.928331" y="85.447357" style="fill: #d62728; stroke: #d62728"/>
     <use xlink:href="#m67e851a461" x="205.828605" y="85.11294" style="fill: #d62728; stroke: #d62728"/>
     <use xlink:href="#m67e851a461" x="206.685442" y="84.671563" style="fill: #d62728; stroke: #d62728"/>
     <use xlink:href="#m67e851a461" x="207.425182" y="84.094591" style="fill: #d62728; stroke: #d62728"/>
     <use xlink:href="#m67e851a461" x="207.993078" y="83.756307" style="fill: #d62728; stroke: #d62728"/>
     <use xlink:href="#m67e851a461" x="208.543609" y="84.515765" style="fill: #d62728; stroke: #d62728"/>
     <use xlink:href="#m67e851a461" x="209.079002" y="83.805387" style="fill: #d62728; stroke: #d62728"/>
     <use xlink:href="#m67e851a461" x="209.485303" y="84.235619" style="fill: #d62728; stroke: #d62728"/>
     <use xlink:href="#m67e851a461" x="209.928956" y="83.482149" style="fill: #d62728; stroke: #d62728"/>
     <use xlink:href="#m67e851a461" x="210.325501" y="83.42455" style="fill: #d62728; stroke: #d62728"/>
     <use xlink:href="#m67e851a461" x="210.712414" y="82.656459" style="fill: #d62728; stroke: #d62728"/>
     <use xlink:href="#m67e851a461" x="211.106142" y="82.579509" style="fill: #d62728; stroke: #d62728"/>
     <use xlink:href="#m67e851a461" x="211.393704" y="82.520918" style="fill: #d62728; stroke: #d62728"/>
     <use xlink:href="#m67e851a461" x="211.723516" y="83.002703" style="fill: #d62728; stroke: #d62728"/>
     <use xlink:href="#m67e851a461" x="212.030859" y="82.762172" style="fill: #d62728; stroke: #d62728"/>
    </g>
   </g>
   <g id="line2d_15">
    <path d="M 43.78125 183.947517 
L 45.987984 182.600377 
L 48.194718 181.253237 
L 50.401452 179.906096 
L 52.608186 178.558956 
L 54.81492 177.211816 
L 57.021654 175.864676 
L 59.228388 174.517536 
L 61.435122 173.170395 
L 63.641856 171.823255 
L 65.84859 170.476115 
L 68.055324 169.128975 
L 70.262058 167.781835 
L 72.468792 166.434695 
L 74.675526 165.087554 
L 76.88226 163.740414 
L 79.088994 162.393274 
L 81.295728 161.046134 
L 83.502462 159.698994 
L 85.709196 158.351853 
L 87.91593 157.004713 
L 90.122664 155.657573 
L 92.329398 154.310433 
L 94.536132 152.963293 
L 96.742866 151.616152 
L 98.9496 150.269012 
L 101.156334 148.921872 
L 103.363068 147.574732 
L 105.569802 146.227592 
L 107.776536 144.880451 
L 109.98327 143.533311 
L 112.190004 142.186171 
L 114.396738 140.839031 
L 116.603472 139.491891 
L 118.810206 138.14475 
L 121.01694 136.79761 
L 123.223674 135.45047 
L 125.430408 134.10333 
L 127.637142 132.75619 
L 129.843876 131.409049 
L 132.05061 130.061909 
L 134.257344 128.714769 
L 136.464078 127.367629 
L 138.670812 126.020489 
L 140.877546 124.673349 
L 143.08428 123.326208 
L 145.291014 121.979068 
L 147.497748 120.631928 
L 149.704482 119.284788 
L 151.911216 117.937648 
L 154.11795 116.590507 
L 156.324684 115.243367 
L 158.531418 113.896227 
L 160.738152 112.549087 
L 162.944886 111.201947 
L 165.15162 109.854806 
L 167.358354 108.507666 
L 169.565088 107.160526 
L 171.771822 105.813386 
L 173.978556 104.466246 
L 176.18529 103.119105 
L 178.392024 101.771965 
L 180.598758 100.424825 
L 182.805492 99.077685 
L 185.012226 97.730545 
L 187.21896 96.383404 
L 189.425694 95.036264 
L 191.632428 93.689124 
L 193.839162 92.341984 
L 196.045896 90.994844 
L 198.25263 89.647703 
L 200.459364 88.300563 
L 202.666098 86.953423 
L 204.872832 85.606283 
L 207.079566 84.259143 
L 209.286301 82.912002 
L 211.493035 81.564862 
L 213.699769 80.217722 
L 215.906503 78.870582 
L 218.113237 77.523442 
L 220.319971 76.176302 
L 222.526705 74.829161 
L 224.733439 73.482021 
L 226.940173 72.134881 
L 229.146907 70.787741 
L 231.353641 69.440601 
L 233.560375 68.09346 
L 235.767109 66.74632 
L 237.973843 65.39918 
L 240.180577 64.05204 
L 242.387311 62.7049 
L 244.594045 61.357759 
L 246.800779 60.010619 
L 249.007513 58.663479 
L 251.214247 57.316339 
L 253.420981 55.969199 
L 255.627715 54.622058 
L 257.834449 53.274918 
L 260.041183 51.927778 
L 262.247917 50.580638 
" clip-path="url(#p0a60d5e7e1)" style="fill: none; stroke-dasharray: 1.5,2.475; stroke-dashoffset: 0; stroke: #000000; stroke-width: 1.5"/>
   </g>
   <g id="patch_3">
    <path d="M 43.78125 190.650062 
L 43.78125 43.194062 
" style="fill: none; stroke: #000000; stroke-width: 0.8; stroke-linejoin: miter; stroke-linecap: square"/>
   </g>
   <g id="patch_4">
    <path d="M 273.17125 190.650062 
L 273.17125 43.194062 
" style="fill: none; stroke: #000000; stroke-width: 0.8; stroke-linejoin: miter; stroke-linecap: square"/>
   </g>
   <g id="patch_5">
    <path d="M 43.78125 190.650062 
L 273.17125 190.650062 
" style="fill: none; stroke: #000000; stroke-width: 0.8; stroke-linejoin: miter; stroke-linecap: square"/>
   </g>
   <g id="patch_6">
    <path d="M 43.78125 43.194062 
L 273.17125 43.194062 
" style="fill: none; stroke: #000000; stroke-width: 0.8; stroke-linejoin: miter; stroke-linecap: square"/>
   </g>
   <g id="text_14">
    <!--  -->
    <g transform="translate(158.47625 14.798437) scale(0.1 -0.1)"/>
    <!-- GOF (RMSE): 0.00761 -->
    <g transform="translate(104.227813 25.99625) scale(0.1 -0.1)">
     <defs>
      <path id="DejaVuSans-47" d="M 3809 666 
L 3809 1919 
L 2778 1919 
L 2778 2438 
L 4434 2438 
L 4434 434 
Q 4069 175 3628 42 
Q 3188 -91 2688 -91 
Q 1594 -91 976 548 
Q 359 1188 359 2328 
Q 359 3472 976 4111 
Q 1594 4750 2688 4750 
Q 3144 4750 3555 4637 
Q 3966 4525 4313 4306 
L 4313 3634 
Q 3963 3931 3569 4081 
Q 3175 4231 2741 4231 
Q 1884 4231 1454 3753 
Q 1025 3275 1025 2328 
Q 1025 1384 1454 906 
Q 1884 428 2741 428 
Q 3075 428 3337 486 
Q 3600 544 3809 666 
z
" transform="scale(0.015625)"/>
      <path id="DejaVuSans-4f" d="M 2522 4238 
Q 1834 4238 1429 3725 
Q 1025 3213 1025 2328 
Q 1025 1447 1429 934 
Q 1834 422 2522 422 
Q 3209 422 3611 934 
Q 4013 1447 4013 2328 
Q 4013 3213 3611 3725 
Q 3209 4238 2522 4238 
z
M 2522 4750 
Q 3503 4750 4090 4092 
Q 4678 3434 4678 2328 
Q 4678 1225 4090 567 
Q 3503 -91 2522 -91 
Q 1538 -91 948 565 
Q 359 1222 359 2328 
Q 359 3434 948 4092 
Q 1538 4750 2522 4750 
z
" transform="scale(0.015625)"/>
      <path id="DejaVuSans-46" d="M 628 4666 
L 3309 4666 
L 3309 4134 
L 1259 4134 
L 1259 2759 
L 3109 2759 
L 3109 2228 
L 1259 2228 
L 1259 0 
L 628 0 
L 628 4666 
z
" transform="scale(0.015625)"/>
      <path id="DejaVuSans-28" d="M 1984 4856 
Q 1566 4138 1362 3434 
Q 1159 2731 1159 2009 
Q 1159 1288 1364 580 
Q 1569 -128 1984 -844 
L 1484 -844 
Q 1016 -109 783 600 
Q 550 1309 550 2009 
Q 550 2706 781 3412 
Q 1013 4119 1484 4856 
L 1984 4856 
z
" transform="scale(0.015625)"/>
      <path id="DejaVuSans-52" d="M 2841 2188 
Q 3044 2119 3236 1894 
Q 3428 1669 3622 1275 
L 4263 0 
L 3584 0 
L 2988 1197 
Q 2756 1666 2539 1819 
Q 2322 1972 1947 1972 
L 1259 1972 
L 1259 0 
L 628 0 
L 628 4666 
L 2053 4666 
Q 2853 4666 3247 4331 
Q 3641 3997 3641 3322 
Q 3641 2881 3436 2590 
Q 3231 2300 2841 2188 
z
M 1259 4147 
L 1259 2491 
L 2053 2491 
Q 2509 2491 2742 2702 
Q 2975 2913 2975 3322 
Q 2975 3731 2742 3939 
Q 2509 4147 2053 4147 
L 1259 4147 
z
" transform="scale(0.015625)"/>
      <path id="DejaVuSans-4d" d="M 628 4666 
L 1569 4666 
L 2759 1491 
L 3956 4666 
L 4897 4666 
L 4897 0 
L 4281 0 
L 4281 4097 
L 3078 897 
L 2444 897 
L 1241 4097 
L 1241 0 
L 628 0 
L 628 4666 
z
" transform="scale(0.015625)"/>
      <path id="DejaVuSans-45" d="M 628 4666 
L 3578 4666 
L 3578 4134 
L 1259 4134 
L 1259 2753 
L 3481 2753 
L 3481 2222 
L 1259 2222 
L 1259 531 
L 3634 531 
L 3634 0 
L 628 0 
L 628 4666 
z
" transform="scale(0.015625)"/>
      <path id="DejaVuSans-29" d="M 513 4856 
L 1013 4856 
Q 1481 4119 1714 3412 
Q 1947 2706 1947 2009 
Q 1947 1309 1714 600 
Q 1481 -109 1013 -844 
L 513 -844 
Q 928 -128 1133 580 
Q 1338 1288 1338 2009 
Q 1338 2731 1133 3434 
Q 928 4138 513 4856 
z
" transform="scale(0.015625)"/>
      <path id="DejaVuSans-3a" d="M 750 794 
L 1409 794 
L 1409 0 
L 750 0 
L 750 794 
z
M 750 3309 
L 1409 3309 
L 1409 2516 
L 750 2516 
L 750 3309 
z
" transform="scale(0.015625)"/>
      <path id="DejaVuSans-37" d="M 525 4666 
L 3525 4666 
L 3525 4397 
L 1831 0 
L 1172 0 
L 2766 4134 
L 525 4134 
L 525 4666 
z
" transform="scale(0.015625)"/>
      <path id="DejaVuSans-36" d="M 2113 2584 
Q 1688 2584 1439 2293 
Q 1191 2003 1191 1497 
Q 1191 994 1439 701 
Q 1688 409 2113 409 
Q 2538 409 2786 701 
Q 3034 994 3034 1497 
Q 3034 2003 2786 2293 
Q 2538 2584 2113 2584 
z
M 3366 4563 
L 3366 3988 
Q 3128 4100 2886 4159 
Q 2644 4219 2406 4219 
Q 1781 4219 1451 3797 
Q 1122 3375 1075 2522 
Q 1259 2794 1537 2939 
Q 1816 3084 2150 3084 
Q 2853 3084 3261 2657 
Q 3669 2231 3669 1497 
Q 3669 778 3244 343 
Q 2819 -91 2113 -91 
Q 1303 -91 875 529 
Q 447 1150 447 2328 
Q 447 3434 972 4092 
Q 1497 4750 2381 4750 
Q 2619 4750 2861 4703 
Q 3103 4656 3366 4563 
z
" transform="scale(0.015625)"/>
     </defs>
     <use xlink:href="#DejaVuSans-47"/>
     <use xlink:href="#DejaVuSans-4f" transform="translate(77.490234 0)"/>
     <use xlink:href="#DejaVuSans-46" transform="translate(156.201172 0)"/>
     <use xlink:href="#DejaVuSans-20" transform="translate(213.720703 0)"/>
     <use xlink:href="#DejaVuSans-28" transform="translate(245.507812 0)"/>
     <use xlink:href="#DejaVuSans-52" transform="translate(284.521484 0)"/>
     <use xlink:href="#DejaVuSans-4d" transform="translate(354.003906 0)"/>
     <use xlink:href="#DejaVuSans-53" transform="translate(440.283203 0)"/>
     <use xlink:href="#DejaVuSans-45" transform="translate(503.759766 0)"/>
     <use xlink:href="#DejaVuSans-29" transform="translate(566.943359 0)"/>
     <use xlink:href="#DejaVuSans-3a" transform="translate(605.957031 0)"/>
     <use xlink:href="#DejaVuSans-20" transform="translate(639.648438 0)"/>
     <use xlink:href="#DejaVuSans-30" transform="translate(671.435547 0)"/>
     <use xlink:href="#DejaVuSans-2e" transform="translate(735.058594 0)"/>
     <use xlink:href="#DejaVuSans-30" transform="translate(766.845703 0)"/>
     <use xlink:href="#DejaVuSans-30" transform="translate(830.46875 0)"/>
     <use xlink:href="#DejaVuSans-37" transform="translate(894.091797 0)"/>
     <use xlink:href="#DejaVuSans-36" transform="translate(957.714844 0)"/>
     <use xlink:href="#DejaVuSans-31" transform="translate(1021.337891 0)"/>
    </g>
    <!-- Slope (non-scaled tT and y): 2.437e-04 ± 1.51e-06 -->
    <g transform="translate(31.131719 37.194062) scale(0.1 -0.1)">
     <defs>
      <path id="DejaVuSans-70" d="M 1159 525 
L 1159 -1331 
L 581 -1331 
L 581 3500 
L 1159 3500 
L 1159 2969 
Q 1341 3281 1617 3432 
Q 1894 3584 2278 3584 
Q 2916 3584 3314 3078 
Q 3713 2572 3713 1747 
Q 3713 922 3314 415 
Q 2916 -91 2278 -91 
Q 1894 -91 1617 61 
Q 1341 213 1159 525 
z
M 3116 1747 
Q 3116 2381 2855 2742 
Q 2594 3103 2138 3103 
Q 1681 3103 1420 2742 
Q 1159 2381 1159 1747 
Q 1159 1113 1420 752 
Q 1681 391 2138 391 
Q 2594 391 2855 752 
Q 3116 1113 3116 1747 
z
" transform="scale(0.015625)"/>
      <path id="DejaVuSans-6e" d="M 3513 2113 
L 3513 0 
L 2938 0 
L 2938 2094 
Q 2938 2591 2744 2837 
Q 2550 3084 2163 3084 
Q 1697 3084 1428 2787 
Q 1159 2491 1159 1978 
L 1159 0 
L 581 0 
L 581 3500 
L 1159 3500 
L 1159 2956 
Q 1366 3272 1645 3428 
Q 1925 3584 2291 3584 
Q 2894 3584 3203 3211 
Q 3513 2838 3513 2113 
z
" transform="scale(0.015625)"/>
      <path id="DejaVuSans-2d" d="M 313 2009 
L 1997 2009 
L 1997 1497 
L 313 1497 
L 313 2009 
z
" transform="scale(0.015625)"/>
      <path id="DejaVuSans-73" d="M 2834 3397 
L 2834 2853 
Q 2591 2978 2328 3040 
Q 2066 3103 1784 3103 
Q 1356 3103 1142 2972 
Q 928 2841 928 2578 
Q 928 2378 1081 2264 
Q 1234 2150 1697 2047 
L 1894 2003 
Q 2506 1872 2764 1633 
Q 3022 1394 3022 966 
Q 3022 478 2636 193 
Q 2250 -91 1575 -91 
Q 1294 -91 989 -36 
Q 684 19 347 128 
L 347 722 
Q 666 556 975 473 
Q 1284 391 1588 391 
Q 1994 391 2212 530 
Q 2431 669 2431 922 
Q 2431 1156 2273 1281 
Q 2116 1406 1581 1522 
L 1381 1569 
Q 847 1681 609 1914 
Q 372 2147 372 2553 
Q 372 3047 722 3315 
Q 1072 3584 1716 3584 
Q 2034 3584 2315 3537 
Q 2597 3491 2834 3397 
z
" transform="scale(0.015625)"/>
      <path id="DejaVuSans-54" d="M -19 4666 
L 3928 4666 
L 3928 4134 
L 2272 4134 
L 2272 0 
L 1638 0 
L 1638 4134 
L -19 4134 
L -19 4666 
z
" transform="scale(0.015625)"/>
      <path id="DejaVuSans-79" d="M 2059 -325 
Q 1816 -950 1584 -1140 
Q 1353 -1331 966 -1331 
L 506 -1331 
L 506 -850 
L 844 -850 
Q 1081 -850 1212 -737 
Q 1344 -625 1503 -206 
L 1606 56 
L 191 3500 
L 800 3500 
L 1894 763 
L 2988 3500 
L 3597 3500 
L 2059 -325 
z
" transform="scale(0.015625)"/>
      <path id="DejaVuSans-34" d="M 2419 4116 
L 825 1625 
L 2419 1625 
L 2419 4116 
z
M 2253 4666 
L 3047 4666 
L 3047 1625 
L 3713 1625 
L 3713 1100 
L 3047 1100 
L 3047 0 
L 2419 0 
L 2419 1100 
L 313 1100 
L 313 1709 
L 2253 4666 
z
" transform="scale(0.015625)"/>
      <path id="DejaVuSans-33" d="M 2597 2516 
Q 3050 2419 3304 2112 
Q 3559 1806 3559 1356 
Q 3559 666 3084 287 
Q 2609 -91 1734 -91 
Q 1441 -91 1130 -33 
Q 819 25 488 141 
L 488 750 
Q 750 597 1062 519 
Q 1375 441 1716 441 
Q 2309 441 2620 675 
Q 2931 909 2931 1356 
Q 2931 1769 2642 2001 
Q 2353 2234 1838 2234 
L 1294 2234 
L 1294 2753 
L 1863 2753 
Q 2328 2753 2575 2939 
Q 2822 3125 2822 3475 
Q 2822 3834 2567 4026 
Q 2313 4219 1838 4219 
Q 1578 4219 1281 4162 
Q 984 4106 628 3988 
L 628 4550 
Q 988 4650 1302 4700 
Q 1616 4750 1894 4750 
Q 2613 4750 3031 4423 
Q 3450 4097 3450 3541 
Q 3450 3153 3228 2886 
Q 3006 2619 2597 2516 
z
" transform="scale(0.015625)"/>
      <path id="DejaVuSans-b1" d="M 2944 4013 
L 2944 2803 
L 4684 2803 
L 4684 2272 
L 2944 2272 
L 2944 1063 
L 2419 1063 
L 2419 2272 
L 678 2272 
L 678 2803 
L 2419 2803 
L 2419 4013 
L 2944 4013 
z
M 678 531 
L 4684 531 
L 4684 0 
L 678 0 
L 678 531 
z
" transform="scale(0.015625)"/>
     </defs>
     <use xlink:href="#DejaVuSans-53"/>
     <use xlink:href="#DejaVuSans-6c" transform="translate(63.476562 0)"/>
     <use xlink:href="#DejaVuSans-6f" transform="translate(91.259766 0)"/>
     <use xlink:href="#DejaVuSans-70" transform="translate(152.441406 0)"/>
     <use xlink:href="#DejaVuSans-65" transform="translate(215.917969 0)"/>
     <use xlink:href="#DejaVuSans-20" transform="translate(277.441406 0)"/>
     <use xlink:href="#DejaVuSans-28" transform="translate(309.228516 0)"/>
     <use xlink:href="#DejaVuSans-6e" transform="translate(348.242188 0)"/>
     <use xlink:href="#DejaVuSans-6f" transform="translate(411.621094 0)"/>
     <use xlink:href="#DejaVuSans-6e" transform="translate(472.802734 0)"/>
     <use xlink:href="#DejaVuSans-2d" transform="translate(536.181641 0)"/>
     <use xlink:href="#DejaVuSans-73" transform="translate(572.265625 0)"/>
     <use xlink:href="#DejaVuSans-63" transform="translate(624.365234 0)"/>
     <use xlink:href="#DejaVuSans-61" transform="translate(679.345703 0)"/>
     <use xlink:href="#DejaVuSans-6c" transform="translate(740.625 0)"/>
     <use xlink:href="#DejaVuSans-65" transform="translate(768.408203 0)"/>
     <use xlink:href="#DejaVuSans-64" transform="translate(829.931641 0)"/>
     <use xlink:href="#DejaVuSans-20" transform="translate(893.408203 0)"/>
     <use xlink:href="#DejaVuSans-74" transform="translate(925.195312 0)"/>
     <use xlink:href="#DejaVuSans-54" transform="translate(964.404297 0)"/>
     <use xlink:href="#DejaVuSans-20" transform="translate(1025.488281 0)"/>
     <use xlink:href="#DejaVuSans-61" transform="translate(1057.275391 0)"/>
     <use xlink:href="#DejaVuSans-6e" transform="translate(1118.554688 0)"/>
     <use xlink:href="#DejaVuSans-64" transform="translate(1181.933594 0)"/>
     <use xlink:href="#DejaVuSans-20" transform="translate(1245.410156 0)"/>
     <use xlink:href="#DejaVuSans-79" transform="translate(1277.197266 0)"/>
     <use xlink:href="#DejaVuSans-29" transform="translate(1336.376953 0)"/>
     <use xlink:href="#DejaVuSans-3a" transform="translate(1375.390625 0)"/>
     <use xlink:href="#DejaVuSans-20" transform="translate(1409.082031 0)"/>
     <use xlink:href="#DejaVuSans-32" transform="translate(1440.869141 0)"/>
     <use xlink:href="#DejaVuSans-2e" transform="translate(1504.492188 0)"/>
     <use xlink:href="#DejaVuSans-34" transform="translate(1536.279297 0)"/>
     <use xlink:href="#DejaVuSans-33" transform="translate(1599.902344 0)"/>
     <use xlink:href="#DejaVuSans-37" transform="translate(1663.525391 0)"/>
     <use xlink:href="#DejaVuSans-65" transform="translate(1727.148438 0)"/>
     <use xlink:href="#DejaVuSans-2d" transform="translate(1788.671875 0)"/>
     <use xlink:href="#DejaVuSans-30" transform="translate(1824.755859 0)"/>
     <use xlink:href="#DejaVuSans-34" transform="translate(1888.378906 0)"/>
     <use xlink:href="#DejaVuSans-20" transform="translate(1952.001953 0)"/>
     <use xlink:href="#DejaVuSans-b1" transform="translate(1983.789062 0)"/>
     <use xlink:href="#DejaVuSans-20" transform="translate(2067.578125 0)"/>
     <use xlink:href="#DejaVuSans-31" transform="translate(2099.365234 0)"/>
     <use xlink:href="#DejaVuSans-2e" transform="translate(2162.988281 0)"/>
     <use xlink:href="#DejaVuSans-35" transform="translate(2194.775391 0)"/>
     <use xlink:href="#DejaVuSans-31" transform="translate(2258.398438 0)"/>
     <use xlink:href="#DejaVuSans-65" transform="translate(2322.021484 0)"/>
     <use xlink:href="#DejaVuSans-2d" transform="translate(2383.544922 0)"/>
     <use xlink:href="#DejaVuSans-30" transform="translate(2419.628906 0)"/>
     <use xlink:href="#DejaVuSans-36" transform="translate(2483.251953 0)"/>
    </g>
   </g>
   <g id="legend_1">
    <g id="patch_7">
     <path d="M 50.78125 109.906562 
L 123.498437 109.906562 
Q 125.498437 109.906562 125.498437 107.906562 
L 125.498437 50.194062 
Q 125.498437 48.194062 123.498437 48.194062 
L 50.78125 48.194062 
Q 48.78125 48.194062 48.78125 50.194062 
L 48.78125 107.906562 
Q 48.78125 109.906562 50.78125 109.906562 
z
" style="fill: #ffffff; opacity: 0.8; stroke: #cccccc; stroke-linejoin: miter"/>
    </g>
    <g id="line2d_16">
     <path d="M 52.78125 56.2925 
L 62.78125 56.2925 
L 72.78125 56.2925 
" style="fill: none; stroke: #1f77b4; stroke-width: 0.7; stroke-linecap: square"/>
     <g>
      <use xlink:href="#m115347ccaa" x="62.78125" y="56.2925" style="fill: #1f77b4; stroke: #1f77b4"/>
     </g>
    </g>
    <g id="text_15">
     <!-- Period 1 -->
     <g transform="translate(80.78125 59.7925) scale(0.1 -0.1)">
      <use xlink:href="#DejaVuSans-50"/>
      <use xlink:href="#DejaVuSans-65" transform="translate(56.677734 0)"/>
      <use xlink:href="#DejaVuSans-72" transform="translate(118.201172 0)"/>
      <use xlink:href="#DejaVuSans-69" transform="translate(159.314453 0)"/>
      <use xlink:href="#DejaVuSans-6f" transform="translate(187.097656 0)"/>
      <use xlink:href="#DejaVuSans-64" transform="translate(248.279297 0)"/>
      <use xlink:href="#DejaVuSans-20" transform="translate(311.755859 0)"/>
      <use xlink:href="#DejaVuSans-31" transform="translate(343.542969 0)"/>
     </g>
    </g>
    <g id="line2d_17">
     <path d="M 52.78125 70.970625 
L 62.78125 70.970625 
L 72.78125 70.970625 
" style="fill: none; stroke: #ff7f0e; stroke-width: 0.7; stroke-linecap: square"/>
     <g>
      <use xlink:href="#m2428400541" x="62.78125" y="70.970625" style="fill: #ff7f0e; stroke: #ff7f0e"/>
     </g>
    </g>
    <g id="text_16">
     <!-- Period 2 -->
     <g transform="translate(80.78125 74.470625) scale(0.1 -0.1)">
      <use xlink:href="#DejaVuSans-50"/>
      <use xlink:href="#DejaVuSans-65" transform="translate(56.677734 0)"/>
      <use xlink:href="#DejaVuSans-72" transform="translate(118.201172 0)"/>
      <use xlink:href="#DejaVuSans-69" transform="translate(159.314453 0)"/>
      <use xlink:href="#DejaVuSans-6f" transform="translate(187.097656 0)"/>
      <use xlink:href="#DejaVuSans-64" transform="translate(248.279297 0)"/>
      <use xlink:href="#DejaVuSans-20" transform="translate(311.755859 0)"/>
      <use xlink:href="#DejaVuSans-32" transform="translate(343.542969 0)"/>
     </g>
    </g>
    <g id="line2d_18">
     <path d="M 52.78125 85.64875 
L 62.78125 85.64875 
L 72.78125 85.64875 
" style="fill: none; stroke: #2ca02c; stroke-width: 0.7; stroke-linecap: square"/>
     <g>
      <use xlink:href="#me0bd9f825b" x="62.78125" y="85.64875" style="fill: #2ca02c; stroke: #2ca02c"/>
     </g>
    </g>
    <g id="text_17">
     <!-- Period 3 -->
     <g transform="translate(80.78125 89.14875) scale(0.1 -0.1)">
      <use xlink:href="#DejaVuSans-50"/>
      <use xlink:href="#DejaVuSans-65" transform="translate(56.677734 0)"/>
      <use xlink:href="#DejaVuSans-72" transform="translate(118.201172 0)"/>
      <use xlink:href="#DejaVuSans-69" transform="translate(159.314453 0)"/>
      <use xlink:href="#DejaVuSans-6f" transform="translate(187.097656 0)"/>
      <use xlink:href="#DejaVuSans-64" transform="translate(248.279297 0)"/>
      <use xlink:href="#DejaVuSans-20" transform="translate(311.755859 0)"/>
      <use xlink:href="#DejaVuSans-33" transform="translate(343.542969 0)"/>
     </g>
    </g>
    <g id="line2d_19">
     <path d="M 52.78125 100.326875 
L 62.78125 100.326875 
L 72.78125 100.326875 
" style="fill: none; stroke: #d62728; stroke-width: 0.7; stroke-linecap: square"/>
     <g>
      <use xlink:href="#m67e851a461" x="62.78125" y="100.326875" style="fill: #d62728; stroke: #d62728"/>
     </g>
    </g>
    <g id="text_18">
     <!-- Period 4 -->
     <g transform="translate(80.78125 103.826875) scale(0.1 -0.1)">
      <use xlink:href="#DejaVuSans-50"/>
      <use xlink:href="#DejaVuSans-65" transform="translate(56.677734 0)"/>
      <use xlink:href="#DejaVuSans-72" transform="translate(118.201172 0)"/>
      <use xlink:href="#DejaVuSans-69" transform="translate(159.314453 0)"/>
      <use xlink:href="#DejaVuSans-6f" transform="translate(187.097656 0)"/>
      <use xlink:href="#DejaVuSans-64" transform="translate(248.279297 0)"/>
      <use xlink:href="#DejaVuSans-20" transform="translate(311.755859 0)"/>
      <use xlink:href="#DejaVuSans-34" transform="translate(343.542969 0)"/>
     </g>
    </g>
   </g>
   <g id="legend_2">
    <g id="patch_8">
     <path d="M 108.255156 185.650062 
L 208.697344 185.650062 
Q 210.697344 185.650062 210.697344 183.650062 
L 210.697344 158.774125 
Q 210.697344 156.774125 208.697344 156.774125 
L 108.255156 156.774125 
Q 106.255156 156.774125 106.255156 158.774125 
L 106.255156 183.650062 
Q 106.255156 185.650062 108.255156 185.650062 
z
" style="fill: #ffffff; opacity: 0.8; stroke: #cccccc; stroke-linejoin: miter"/>
    </g>
    <g id="line2d_20">
     <path d="M 110.255156 171.511312 
L 120.255156 171.511312 
L 130.255156 171.511312 
" style="fill: none; stroke-dasharray: 1.5,2.475; stroke-dashoffset: 0; stroke: #000000; stroke-width: 1.5"/>
    </g>
    <g id="text_19">
     <!-- 1. order -->
     <g transform="translate(138.255156 168.372562) scale(0.1 -0.1)">
      <use xlink:href="#DejaVuSans-31"/>
      <use xlink:href="#DejaVuSans-2e" transform="translate(63.623047 0)"/>
      <use xlink:href="#DejaVuSans-20" transform="translate(95.410156 0)"/>
      <use xlink:href="#DejaVuSans-6f" transform="translate(127.197266 0)"/>
      <use xlink:href="#DejaVuSans-72" transform="translate(188.378906 0)"/>
      <use xlink:href="#DejaVuSans-64" transform="translate(227.742188 0)"/>
      <use xlink:href="#DejaVuSans-65" transform="translate(291.21875 0)"/>
      <use xlink:href="#DejaVuSans-72" transform="translate(352.742188 0)"/>
     </g>
     <!-- polynomial fit -->
     <g transform="translate(138.255156 179.570375) scale(0.1 -0.1)">
      <defs>
       <path id="DejaVuSans-6d" d="M 3328 2828 
Q 3544 3216 3844 3400 
Q 4144 3584 4550 3584 
Q 5097 3584 5394 3201 
Q 5691 2819 5691 2113 
L 5691 0 
L 5113 0 
L 5113 2094 
Q 5113 2597 4934 2840 
Q 4756 3084 4391 3084 
Q 3944 3084 3684 2787 
Q 3425 2491 3425 1978 
L 3425 0 
L 2847 0 
L 2847 2094 
Q 2847 2600 2669 2842 
Q 2491 3084 2119 3084 
Q 1678 3084 1418 2786 
Q 1159 2488 1159 1978 
L 1159 0 
L 581 0 
L 581 3500 
L 1159 3500 
L 1159 2956 
Q 1356 3278 1631 3431 
Q 1906 3584 2284 3584 
Q 2666 3584 2933 3390 
Q 3200 3197 3328 2828 
z
" transform="scale(0.015625)"/>
      </defs>
      <use xlink:href="#DejaVuSans-70"/>
      <use xlink:href="#DejaVuSans-6f" transform="translate(63.476562 0)"/>
      <use xlink:href="#DejaVuSans-6c" transform="translate(124.658203 0)"/>
      <use xlink:href="#DejaVuSans-79" transform="translate(152.441406 0)"/>
      <use xlink:href="#DejaVuSans-6e" transform="translate(211.621094 0)"/>
      <use xlink:href="#DejaVuSans-6f" transform="translate(275 0)"/>
      <use xlink:href="#DejaVuSans-6d" transform="translate(336.181641 0)"/>
      <use xlink:href="#DejaVuSans-69" transform="translate(433.59375 0)"/>
      <use xlink:href="#DejaVuSans-61" transform="translate(461.376953 0)"/>
      <use xlink:href="#DejaVuSans-6c" transform="translate(522.65625 0)"/>
      <use xlink:href="#DejaVuSans-20" transform="translate(550.439453 0)"/>
      <use xlink:href="#DejaVuSans-66" transform="translate(582.226562 0)"/>
      <use xlink:href="#DejaVuSans-69" transform="translate(617.431641 0)"/>
      <use xlink:href="#DejaVuSans-74" transform="translate(645.214844 0)"/>
     </g>
    </g>
   </g>
  </g>
 </g>
 <defs>
  <clipPath id="p0a60d5e7e1">
   <rect x="43.78125" y="43.194062" width="229.39" height="147.456"/>
  </clipPath>
 </defs>
</svg>
