<?xml version="1.0" encoding="utf-8" standalone="no"?>
<!DOCTYPE svg PUBLIC "-//W3C//DTD SVG 1.1//EN"
  "http://www.w3.org/Graphics/SVG/1.1/DTD/svg11.dtd">
<svg xmlns:xlink="http://www.w3.org/1999/xlink" width="289.825781pt" height="229.028187pt" viewBox="0 0 289.825781 229.028187" xmlns="http://www.w3.org/2000/svg" version="1.1">
 <metadata>
  <rdf:RDF xmlns:dc="http://purl.org/dc/elements/1.1/" xmlns:cc="http://creativecommons.org/ns#" xmlns:rdf="http://www.w3.org/1999/02/22-rdf-syntax-ns#">
   <cc:Work>
    <dc:type rdf:resource="http://purl.org/dc/dcmitype/StillImage"/>
    <dc:date>2026-01-13T17:36:19.432407</dc:date>
    <dc:format>image/svg+xml</dc:format>
    <dc:creator>
     <cc:Agent>
      <dc:title>Matplotlib v3.10.0, https://matplotlib.org/</dc:title>
     </cc:Agent>
    </dc:creator>
   </cc:Work>
  </rdf:RDF>
 </metadata>
 <defs>
  <style type="text/css">*{stroke-linejoin: round; stroke-linecap: butt}</style>
 </defs>
 <g id="figure_1">
  <g id="patch_1">
   <path d="M 0 229.028187 
L 289.825781 229.028187 
L 289.825781 0 
L 0 0 
z
" style="fill: #ffffff"/>
  </g>
  <g id="axes_1">
   <g id="patch_2">
    <path d="M 43.78125 190.650062 
L 266.78125 190.650062 
L 266.78125 43.194062 
L 43.78125 43.194062 
z
" style="fill: #ffffff"/>
   </g>
   <g id="matplotlib.axis_1">
    <g id="xtick_1">
     <g id="line2d_1">
      <defs>
       <path id="ma5fd453ecf" d="M 0 0 
L 0 3.5 
" style="stroke: #000000; stroke-width: 0.8"/>
      </defs>
      <g>
       <use xlink:href="#ma5fd453ecf" x="43.78125" y="190.650062" style="stroke: #000000; stroke-width: 0.8"/>
      </g>
     </g>
     <g id="text_1">
      <!-- 0.0 -->
      <g transform="translate(35.829688 205.2485) scale(0.1 -0.1)">
       <defs>
        <path id="DejaVuSans-30" d="M 2034 4250 
Q 1547 4250 1301 3770 
Q 1056 3291 1056 2328 
Q 1056 1369 1301 889 
Q 1547 409 2034 409 
Q 2525 409 2770 889 
Q 3016 1369 3016 2328 
Q 3016 3291 2770 3770 
Q 2525 4250 2034 4250 
z
M 2034 4750 
Q 2819 4750 3233 4129 
Q 3647 3509 3647 2328 
Q 3647 1150 3233 529 
Q 2819 -91 2034 -91 
Q 1250 -91 836 529 
Q 422 1150 422 2328 
Q 422 3509 836 4129 
Q 1250 4750 2034 4750 
z
" transform="scale(0.015625)"/>
        <path id="DejaVuSans-2e" d="M 684 794 
L 1344 794 
L 1344 0 
L 684 0 
L 684 794 
z
" transform="scale(0.015625)"/>
       </defs>
       <use xlink:href="#DejaVuSans-30"/>
       <use xlink:href="#DejaVuSans-2e" transform="translate(63.623047 0)"/>
       <use xlink:href="#DejaVuSans-30" transform="translate(95.410156 0)"/>
      </g>
     </g>
    </g>
    <g id="xtick_2">
     <g id="line2d_2">
      <g>
       <use xlink:href="#ma5fd453ecf" x="79.036948" y="190.650062" style="stroke: #000000; stroke-width: 0.8"/>
      </g>
     </g>
     <g id="text_2">
      <!-- 0.2 -->
      <g transform="translate(71.085385 205.2485) scale(0.1 -0.1)">
       <defs>
        <path id="DejaVuSans-32" d="M 1228 531 
L 3431 531 
L 3431 0 
L 469 0 
L 469 531 
Q 828 903 1448 1529 
Q 2069 2156 2228 2338 
Q 2531 2678 2651 2914 
Q 2772 3150 2772 3378 
Q 2772 3750 2511 3984 
Q 2250 4219 1831 4219 
Q 1534 4219 1204 4116 
Q 875 4013 500 3803 
L 500 4441 
Q 881 4594 1212 4672 
Q 1544 4750 1819 4750 
Q 2544 4750 2975 4387 
Q 3406 4025 3406 3419 
Q 3406 3131 3298 2873 
Q 3191 2616 2906 2266 
Q 2828 2175 2409 1742 
Q 1991 1309 1228 531 
z
" transform="scale(0.015625)"/>
       </defs>
       <use xlink:href="#DejaVuSans-30"/>
       <use xlink:href="#DejaVuSans-2e" transform="translate(63.623047 0)"/>
       <use xlink:href="#DejaVuSans-32" transform="translate(95.410156 0)"/>
      </g>
     </g>
    </g>
    <g id="xtick_3">
     <g id="line2d_3">
      <g>
       <use xlink:href="#ma5fd453ecf" x="114.292646" y="190.650062" style="stroke: #000000; stroke-width: 0.8"/>
      </g>
     </g>
     <g id="text_3">
      <!-- 0.4 -->
      <g transform="translate(106.341083 205.2485) scale(0.1 -0.1)">
       <defs>
        <path id="DejaVuSans-34" d="M 2419 4116 
L 825 1625 
L 2419 1625 
L 2419 4116 
z
M 2253 4666 
L 3047 4666 
L 3047 1625 
L 3713 1625 
L 3713 1100 
L 3047 1100 
L 3047 0 
L 2419 0 
L 2419 1100 
L 313 1100 
L 313 1709 
L 2253 4666 
z
" transform="scale(0.015625)"/>
       </defs>
       <use xlink:href="#DejaVuSans-30"/>
       <use xlink:href="#DejaVuSans-2e" transform="translate(63.623047 0)"/>
       <use xlink:href="#DejaVuSans-34" transform="translate(95.410156 0)"/>
      </g>
     </g>
    </g>
    <g id="xtick_4">
     <g id="line2d_4">
      <g>
       <use xlink:href="#ma5fd453ecf" x="149.548343" y="190.650062" style="stroke: #000000; stroke-width: 0.8"/>
      </g>
     </g>
     <g id="text_4">
      <!-- 0.6 -->
      <g transform="translate(141.596781 205.2485) scale(0.1 -0.1)">
       <defs>
        <path id="DejaVuSans-36" d="M 2113 2584 
Q 1688 2584 1439 2293 
Q 1191 2003 1191 1497 
Q 1191 994 1439 701 
Q 1688 409 2113 409 
Q 2538 409 2786 701 
Q 3034 994 3034 1497 
Q 3034 2003 2786 2293 
Q 2538 2584 2113 2584 
z
M 3366 4563 
L 3366 3988 
Q 3128 4100 2886 4159 
Q 2644 4219 2406 4219 
Q 1781 4219 1451 3797 
Q 1122 3375 1075 2522 
Q 1259 2794 1537 2939 
Q 1816 3084 2150 3084 
Q 2853 3084 3261 2657 
Q 3669 2231 3669 1497 
Q 3669 778 3244 343 
Q 2819 -91 2113 -91 
Q 1303 -91 875 529 
Q 447 1150 447 2328 
Q 447 3434 972 4092 
Q 1497 4750 2381 4750 
Q 2619 4750 2861 4703 
Q 3103 4656 3366 4563 
z
" transform="scale(0.015625)"/>
       </defs>
       <use xlink:href="#DejaVuSans-30"/>
       <use xlink:href="#DejaVuSans-2e" transform="translate(63.623047 0)"/>
       <use xlink:href="#DejaVuSans-36" transform="translate(95.410156 0)"/>
      </g>
     </g>
    </g>
    <g id="xtick_5">
     <g id="line2d_5">
      <g>
       <use xlink:href="#ma5fd453ecf" x="184.804041" y="190.650062" style="stroke: #000000; stroke-width: 0.8"/>
      </g>
     </g>
     <g id="text_5">
      <!-- 0.8 -->
      <g transform="translate(176.852479 205.2485) scale(0.1 -0.1)">
       <defs>
        <path id="DejaVuSans-38" d="M 2034 2216 
Q 1584 2216 1326 1975 
Q 1069 1734 1069 1313 
Q 1069 891 1326 650 
Q 1584 409 2034 409 
Q 2484 409 2743 651 
Q 3003 894 3003 1313 
Q 3003 1734 2745 1975 
Q 2488 2216 2034 2216 
z
M 1403 2484 
Q 997 2584 770 2862 
Q 544 3141 544 3541 
Q 544 4100 942 4425 
Q 1341 4750 2034 4750 
Q 2731 4750 3128 4425 
Q 3525 4100 3525 3541 
Q 3525 3141 3298 2862 
Q 3072 2584 2669 2484 
Q 3125 2378 3379 2068 
Q 3634 1759 3634 1313 
Q 3634 634 3220 271 
Q 2806 -91 2034 -91 
Q 1263 -91 848 271 
Q 434 634 434 1313 
Q 434 1759 690 2068 
Q 947 2378 1403 2484 
z
M 1172 3481 
Q 1172 3119 1398 2916 
Q 1625 2713 2034 2713 
Q 2441 2713 2670 2916 
Q 2900 3119 2900 3481 
Q 2900 3844 2670 4047 
Q 2441 4250 2034 4250 
Q 1625 4250 1398 4047 
Q 1172 3844 1172 3481 
z
" transform="scale(0.015625)"/>
       </defs>
       <use xlink:href="#DejaVuSans-30"/>
       <use xlink:href="#DejaVuSans-2e" transform="translate(63.623047 0)"/>
       <use xlink:href="#DejaVuSans-38" transform="translate(95.410156 0)"/>
      </g>
     </g>
    </g>
    <g id="xtick_6">
     <g id="line2d_6">
      <g>
       <use xlink:href="#ma5fd453ecf" x="220.059739" y="190.650062" style="stroke: #000000; stroke-width: 0.8"/>
      </g>
     </g>
     <g id="text_6">
      <!-- 1.0 -->
      <g transform="translate(212.108177 205.2485) scale(0.1 -0.1)">
       <defs>
        <path id="DejaVuSans-31" d="M 794 531 
L 1825 531 
L 1825 4091 
L 703 3866 
L 703 4441 
L 1819 4666 
L 2450 4666 
L 2450 531 
L 3481 531 
L 3481 0 
L 794 0 
L 794 531 
z
" transform="scale(0.015625)"/>
       </defs>
       <use xlink:href="#DejaVuSans-31"/>
       <use xlink:href="#DejaVuSans-2e" transform="translate(63.623047 0)"/>
       <use xlink:href="#DejaVuSans-30" transform="translate(95.410156 0)"/>
      </g>
     </g>
    </g>
    <g id="xtick_7">
     <g id="line2d_7">
      <g>
       <use xlink:href="#ma5fd453ecf" x="255.315437" y="190.650062" style="stroke: #000000; stroke-width: 0.8"/>
      </g>
     </g>
     <g id="text_7">
      <!-- 1.2 -->
      <g transform="translate(247.363874 205.2485) scale(0.1 -0.1)">
       <use xlink:href="#DejaVuSans-31"/>
       <use xlink:href="#DejaVuSans-2e" transform="translate(63.623047 0)"/>
       <use xlink:href="#DejaVuSans-32" transform="translate(95.410156 0)"/>
      </g>
     </g>
    </g>
    <g id="text_8">
     <!-- $Σ[Amine]^{1.79}[Phenol]^{-0.11}[ArOPh]^{1.00}Δt$. -->
     <g transform="translate(58.43125 219.7485) scale(0.1 -0.1)">
      <defs>
       <path id="DejaVuSans-3a3" d="M 1353 531 
L 3634 531 
L 3634 0 
L 628 0 
L 628 531 
L 2125 2481 
L 628 4134 
L 628 4666 
L 3578 4666 
L 3578 4134 
L 1353 4134 
L 2850 2494 
L 1353 531 
z
" transform="scale(0.015625)"/>
       <path id="DejaVuSans-5b" d="M 550 4863 
L 1875 4863 
L 1875 4416 
L 1125 4416 
L 1125 -397 
L 1875 -397 
L 1875 -844 
L 550 -844 
L 550 4863 
z
" transform="scale(0.015625)"/>
       <path id="DejaVuSans-Oblique-41" d="M 2356 4666 
L 3072 4666 
L 3938 0 
L 3278 0 
L 3084 1197 
L 984 1197 
L 325 0 
L -341 0 
L 2356 4666 
z
M 2584 4044 
L 1275 1722 
L 2988 1722 
L 2584 4044 
z
" transform="scale(0.015625)"/>
       <path id="DejaVuSans-Oblique-6d" d="M 5747 2113 
L 5338 0 
L 4763 0 
L 5166 2094 
Q 5191 2228 5203 2325 
Q 5216 2422 5216 2491 
Q 5216 2772 5059 2928 
Q 4903 3084 4622 3084 
Q 4203 3084 3875 2770 
Q 3547 2456 3450 1953 
L 3066 0 
L 2491 0 
L 2900 2094 
Q 2925 2209 2937 2307 
Q 2950 2406 2950 2484 
Q 2950 2769 2794 2926 
Q 2638 3084 2363 3084 
Q 1938 3084 1609 2770 
Q 1281 2456 1184 1953 
L 800 0 
L 225 0 
L 909 3500 
L 1484 3500 
L 1375 2956 
Q 1609 3263 1923 3423 
Q 2238 3584 2597 3584 
Q 2978 3584 3223 3384 
Q 3469 3184 3519 2828 
Q 3781 3197 4126 3390 
Q 4472 3584 4856 3584 
Q 5306 3584 5551 3325 
Q 5797 3066 5797 2591 
Q 5797 2488 5784 2364 
Q 5772 2241 5747 2113 
z
" transform="scale(0.015625)"/>
       <path id="DejaVuSans-Oblique-69" d="M 1172 4863 
L 1747 4863 
L 1606 4134 
L 1031 4134 
L 1172 4863 
z
M 909 3500 
L 1484 3500 
L 800 0 
L 225 0 
L 909 3500 
z
" transform="scale(0.015625)"/>
       <path id="DejaVuSans-Oblique-6e" d="M 3566 2113 
L 3156 0 
L 2578 0 
L 2988 2091 
Q 3016 2238 3031 2350 
Q 3047 2463 3047 2528 
Q 3047 2791 2881 2937 
Q 2716 3084 2419 3084 
Q 1956 3084 1622 2776 
Q 1288 2469 1184 1941 
L 800 0 
L 225 0 
L 903 3500 
L 1478 3500 
L 1363 2950 
Q 1603 3253 1940 3418 
Q 2278 3584 2650 3584 
Q 3113 3584 3367 3334 
Q 3622 3084 3622 2631 
Q 3622 2519 3608 2391 
Q 3594 2263 3566 2113 
z
" transform="scale(0.015625)"/>
       <path id="DejaVuSans-Oblique-65" d="M 3078 2063 
Q 3088 2113 3092 2166 
Q 3097 2219 3097 2272 
Q 3097 2653 2873 2875 
Q 2650 3097 2266 3097 
Q 1838 3097 1509 2826 
Q 1181 2556 1013 2059 
L 3078 2063 
z
M 3578 1613 
L 903 1613 
Q 884 1494 878 1425 
Q 872 1356 872 1306 
Q 872 872 1139 634 
Q 1406 397 1894 397 
Q 2269 397 2603 481 
Q 2938 566 3225 728 
L 3116 159 
Q 2806 34 2476 -28 
Q 2147 -91 1806 -91 
Q 1078 -91 686 257 
Q 294 606 294 1247 
Q 294 1794 489 2264 
Q 684 2734 1063 3103 
Q 1306 3334 1642 3459 
Q 1978 3584 2356 3584 
Q 2950 3584 3301 3228 
Q 3653 2872 3653 2272 
Q 3653 2128 3634 1964 
Q 3616 1800 3578 1613 
z
" transform="scale(0.015625)"/>
       <path id="DejaVuSans-5d" d="M 1947 4863 
L 1947 -844 
L 622 -844 
L 622 -397 
L 1369 -397 
L 1369 4416 
L 622 4416 
L 622 4863 
L 1947 4863 
z
" transform="scale(0.015625)"/>
       <path id="DejaVuSans-37" d="M 525 4666 
L 3525 4666 
L 3525 4397 
L 1831 0 
L 1172 0 
L 2766 4134 
L 525 4134 
L 525 4666 
z
" transform="scale(0.015625)"/>
       <path id="DejaVuSans-39" d="M 703 97 
L 703 672 
Q 941 559 1184 500 
Q 1428 441 1663 441 
Q 2288 441 2617 861 
Q 2947 1281 2994 2138 
Q 2813 1869 2534 1725 
Q 2256 1581 1919 1581 
Q 1219 1581 811 2004 
Q 403 2428 403 3163 
Q 403 3881 828 4315 
Q 1253 4750 1959 4750 
Q 2769 4750 3195 4129 
Q 3622 3509 3622 2328 
Q 3622 1225 3098 567 
Q 2575 -91 1691 -91 
Q 1453 -91 1209 -44 
Q 966 3 703 97 
z
M 1959 2075 
Q 2384 2075 2632 2365 
Q 2881 2656 2881 3163 
Q 2881 3666 2632 3958 
Q 2384 4250 1959 4250 
Q 1534 4250 1286 3958 
Q 1038 3666 1038 3163 
Q 1038 2656 1286 2365 
Q 1534 2075 1959 2075 
z
" transform="scale(0.015625)"/>
       <path id="DejaVuSans-Oblique-50" d="M 1081 4666 
L 2541 4666 
Q 3178 4666 3512 4369 
Q 3847 4072 3847 3500 
Q 3847 2731 3353 2303 
Q 2859 1875 1966 1875 
L 1172 1875 
L 806 0 
L 172 0 
L 1081 4666 
z
M 1613 4147 
L 1275 2394 
L 2069 2394 
Q 2606 2394 2893 2669 
Q 3181 2944 3181 3456 
Q 3181 3784 2986 3965 
Q 2791 4147 2438 4147 
L 1613 4147 
z
" transform="scale(0.015625)"/>
       <path id="DejaVuSans-Oblique-68" d="M 3566 2113 
L 3156 0 
L 2578 0 
L 2988 2091 
Q 3016 2238 3031 2350 
Q 3047 2463 3047 2528 
Q 3047 2791 2881 2937 
Q 2716 3084 2419 3084 
Q 1956 3084 1617 2771 
Q 1278 2459 1178 1941 
L 800 0 
L 225 0 
L 1172 4863 
L 1747 4863 
L 1375 2950 
Q 1594 3244 1934 3414 
Q 2275 3584 2650 3584 
Q 3113 3584 3367 3334 
Q 3622 3084 3622 2631 
Q 3622 2519 3608 2391 
Q 3594 2263 3566 2113 
z
" transform="scale(0.015625)"/>
       <path id="DejaVuSans-Oblique-6f" d="M 1625 -91 
Q 1009 -91 651 289 
Q 294 669 294 1325 
Q 294 1706 417 2101 
Q 541 2497 738 2766 
Q 1047 3184 1428 3384 
Q 1809 3584 2291 3584 
Q 2888 3584 3255 3212 
Q 3622 2841 3622 2241 
Q 3622 1825 3500 1412 
Q 3378 1000 3181 728 
Q 2875 309 2494 109 
Q 2113 -91 1625 -91 
z
M 891 1344 
Q 891 869 1089 633 
Q 1288 397 1691 397 
Q 2269 397 2648 901 
Q 3028 1406 3028 2181 
Q 3028 2634 2825 2865 
Q 2622 3097 2228 3097 
Q 1903 3097 1650 2945 
Q 1397 2794 1197 2484 
Q 1050 2253 970 1956 
Q 891 1659 891 1344 
z
" transform="scale(0.015625)"/>
       <path id="DejaVuSans-Oblique-6c" d="M 1172 4863 
L 1747 4863 
L 800 0 
L 225 0 
L 1172 4863 
z
" transform="scale(0.015625)"/>
       <path id="DejaVuSans-2212" d="M 678 2272 
L 4684 2272 
L 4684 1741 
L 678 1741 
L 678 2272 
z
" transform="scale(0.015625)"/>
       <path id="DejaVuSans-Oblique-72" d="M 2853 2969 
Q 2766 3016 2653 3041 
Q 2541 3066 2413 3066 
Q 1953 3066 1609 2717 
Q 1266 2369 1153 1784 
L 800 0 
L 225 0 
L 909 3500 
L 1484 3500 
L 1375 2956 
Q 1603 3259 1920 3421 
Q 2238 3584 2597 3584 
Q 2691 3584 2781 3573 
Q 2872 3563 2963 3538 
L 2853 2969 
z
" transform="scale(0.015625)"/>
       <path id="DejaVuSans-Oblique-4f" d="M 2919 4238 
Q 2400 4238 2003 3986 
Q 1606 3734 1313 3219 
Q 1125 2891 1026 2522 
Q 928 2153 928 1778 
Q 928 1128 1239 775 
Q 1550 422 2119 422 
Q 2631 422 3032 676 
Q 3434 931 3719 1434 
Q 3909 1772 4009 2142 
Q 4109 2513 4109 2881 
Q 4109 3528 3796 3883 
Q 3484 4238 2919 4238 
z
M 2100 -91 
Q 1241 -91 748 418 
Q 256 928 256 1813 
Q 256 2319 448 2847 
Q 641 3375 978 3788 
Q 1375 4272 1862 4511 
Q 2350 4750 2938 4750 
Q 3794 4750 4287 4245 
Q 4781 3741 4781 2869 
Q 4781 2331 4593 1812 
Q 4406 1294 4056 872 
Q 3656 384 3173 146 
Q 2691 -91 2100 -91 
z
" transform="scale(0.015625)"/>
       <path id="DejaVuSans-394" d="M 2188 4044 
L 906 525 
L 3472 525 
L 2188 4044 
z
M 50 0 
L 1831 4666 
L 2547 4666 
L 4325 0 
L 50 0 
z
" transform="scale(0.015625)"/>
       <path id="DejaVuSans-Oblique-74" d="M 2706 3500 
L 2619 3053 
L 1472 3053 
L 1100 1153 
Q 1081 1047 1072 975 
Q 1063 903 1063 863 
Q 1063 663 1183 572 
Q 1303 481 1569 481 
L 2150 481 
L 2053 0 
L 1503 0 
Q 991 0 739 200 
Q 488 400 488 806 
Q 488 878 497 964 
Q 506 1050 525 1153 
L 897 3053 
L 409 3053 
L 500 3500 
L 978 3500 
L 1172 4494 
L 1747 4494 
L 1556 3500 
L 2706 3500 
z
" transform="scale(0.015625)"/>
      </defs>
      <use xlink:href="#DejaVuSans-3a3" transform="translate(0 0.765625)"/>
      <use xlink:href="#DejaVuSans-5b" transform="translate(63.183594 0.765625)"/>
      <use xlink:href="#DejaVuSans-Oblique-41" transform="translate(102.197266 0.765625)"/>
      <use xlink:href="#DejaVuSans-Oblique-6d" transform="translate(170.605469 0.765625)"/>
      <use xlink:href="#DejaVuSans-Oblique-69" transform="translate(268.017578 0.765625)"/>
      <use xlink:href="#DejaVuSans-Oblique-6e" transform="translate(295.800781 0.765625)"/>
      <use xlink:href="#DejaVuSans-Oblique-65" transform="translate(359.179688 0.765625)"/>
      <use xlink:href="#DejaVuSans-5d" transform="translate(420.703125 0.765625)"/>
      <use xlink:href="#DejaVuSans-31" transform="translate(460.673828 39.046875) scale(0.7)"/>
      <use xlink:href="#DejaVuSans-2e" transform="translate(505.209961 39.046875) scale(0.7)"/>
      <use xlink:href="#DejaVuSans-37" transform="translate(522.035938 39.046875) scale(0.7)"/>
      <use xlink:href="#DejaVuSans-39" transform="translate(566.57207 39.046875) scale(0.7)"/>
      <use xlink:href="#DejaVuSans-5b" transform="translate(613.842578 0.765625)"/>
      <use xlink:href="#DejaVuSans-Oblique-50" transform="translate(652.85625 0.765625)"/>
      <use xlink:href="#DejaVuSans-Oblique-68" transform="translate(713.158984 0.765625)"/>
      <use xlink:href="#DejaVuSans-Oblique-65" transform="translate(776.537891 0.765625)"/>
      <use xlink:href="#DejaVuSans-Oblique-6e" transform="translate(838.061328 0.765625)"/>
      <use xlink:href="#DejaVuSans-Oblique-6f" transform="translate(901.440234 0.765625)"/>
      <use xlink:href="#DejaVuSans-Oblique-6c" transform="translate(962.621875 0.765625)"/>
      <use xlink:href="#DejaVuSans-5d" transform="translate(990.405078 0.765625)"/>
      <use xlink:href="#DejaVuSans-2212" transform="translate(1030.375781 39.046875) scale(0.7)"/>
      <use xlink:href="#DejaVuSans-30" transform="translate(1089.028125 39.046875) scale(0.7)"/>
      <use xlink:href="#DejaVuSans-2e" transform="translate(1133.564258 39.046875) scale(0.7)"/>
      <use xlink:href="#DejaVuSans-31" transform="translate(1155.815234 39.046875) scale(0.7)"/>
      <use xlink:href="#DejaVuSans-31" transform="translate(1200.351367 39.046875) scale(0.7)"/>
      <use xlink:href="#DejaVuSans-5b" transform="translate(1247.621875 0.765625)"/>
      <use xlink:href="#DejaVuSans-Oblique-41" transform="translate(1286.635547 0.765625)"/>
      <use xlink:href="#DejaVuSans-Oblique-72" transform="translate(1355.04375 0.765625)"/>
      <use xlink:href="#DejaVuSans-Oblique-4f" transform="translate(1396.157031 0.765625)"/>
      <use xlink:href="#DejaVuSans-Oblique-50" transform="translate(1474.867969 0.765625)"/>
      <use xlink:href="#DejaVuSans-Oblique-68" transform="translate(1535.170703 0.765625)"/>
      <use xlink:href="#DejaVuSans-5d" transform="translate(1598.549609 0.765625)"/>
      <use xlink:href="#DejaVuSans-31" transform="translate(1638.520313 39.046875) scale(0.7)"/>
      <use xlink:href="#DejaVuSans-2e" transform="translate(1683.056445 39.046875) scale(0.7)"/>
      <use xlink:href="#DejaVuSans-30" transform="translate(1705.307422 39.046875) scale(0.7)"/>
      <use xlink:href="#DejaVuSans-30" transform="translate(1749.843555 39.046875) scale(0.7)"/>
      <use xlink:href="#DejaVuSans-394" transform="translate(1797.114063 0.765625)"/>
      <use xlink:href="#DejaVuSans-Oblique-74" transform="translate(1865.522266 0.765625)"/>
      <use xlink:href="#DejaVuSans-2e" transform="translate(1904.73125 0.765625)"/>
     </g>
    </g>
    <g id="text_9">
     <!-- 1e5 -->
     <g transform="translate(262.398125 217.926625) scale(0.1 -0.1)">
      <defs>
       <path id="DejaVuSans-65" d="M 3597 1894 
L 3597 1613 
L 953 1613 
Q 991 1019 1311 708 
Q 1631 397 2203 397 
Q 2534 397 2845 478 
Q 3156 559 3463 722 
L 3463 178 
Q 3153 47 2828 -22 
Q 2503 -91 2169 -91 
Q 1331 -91 842 396 
Q 353 884 353 1716 
Q 353 2575 817 3079 
Q 1281 3584 2069 3584 
Q 2775 3584 3186 3129 
Q 3597 2675 3597 1894 
z
M 3022 2063 
Q 3016 2534 2758 2815 
Q 2500 3097 2075 3097 
Q 1594 3097 1305 2825 
Q 1016 2553 972 2059 
L 3022 2063 
z
" transform="scale(0.015625)"/>
       <path id="DejaVuSans-35" d="M 691 4666 
L 3169 4666 
L 3169 4134 
L 1269 4134 
L 1269 2991 
Q 1406 3038 1543 3061 
Q 1681 3084 1819 3084 
Q 2600 3084 3056 2656 
Q 3513 2228 3513 1497 
Q 3513 744 3044 326 
Q 2575 -91 1722 -91 
Q 1428 -91 1123 -41 
Q 819 9 494 109 
L 494 744 
Q 775 591 1075 516 
Q 1375 441 1709 441 
Q 2250 441 2565 725 
Q 2881 1009 2881 1497 
Q 2881 1984 2565 2268 
Q 2250 2553 1709 2553 
Q 1456 2553 1204 2497 
Q 953 2441 691 2322 
L 691 4666 
z
" transform="scale(0.015625)"/>
      </defs>
      <use xlink:href="#DejaVuSans-31"/>
      <use xlink:href="#DejaVuSans-65" transform="translate(63.623047 0)"/>
      <use xlink:href="#DejaVuSans-35" transform="translate(125.146484 0)"/>
     </g>
    </g>
   </g>
   <g id="matplotlib.axis_2">
    <g id="ytick_1">
     <g id="line2d_8">
      <defs>
       <path id="m6f7c1a6571" d="M 0 0 
L -3.5 0 
" style="stroke: #000000; stroke-width: 0.8"/>
      </defs>
      <g>
       <use xlink:href="#m6f7c1a6571" x="43.78125" y="172.846252" style="stroke: #000000; stroke-width: 0.8"/>
      </g>
     </g>
     <g id="text_10">
      <!-- 0.9 -->
      <g transform="translate(20.878125 176.645471) scale(0.1 -0.1)">
       <use xlink:href="#DejaVuSans-30"/>
       <use xlink:href="#DejaVuSans-2e" transform="translate(63.623047 0)"/>
       <use xlink:href="#DejaVuSans-39" transform="translate(95.410156 0)"/>
      </g>
     </g>
    </g>
    <g id="ytick_2">
     <g id="line2d_9">
      <g>
       <use xlink:href="#m6f7c1a6571" x="43.78125" y="133.415433" style="stroke: #000000; stroke-width: 0.8"/>
      </g>
     </g>
     <g id="text_11">
      <!-- 1.0 -->
      <g transform="translate(20.878125 137.214652) scale(0.1 -0.1)">
       <use xlink:href="#DejaVuSans-31"/>
       <use xlink:href="#DejaVuSans-2e" transform="translate(63.623047 0)"/>
       <use xlink:href="#DejaVuSans-30" transform="translate(95.410156 0)"/>
      </g>
     </g>
    </g>
    <g id="ytick_3">
     <g id="line2d_10">
      <g>
       <use xlink:href="#m6f7c1a6571" x="43.78125" y="93.984614" style="stroke: #000000; stroke-width: 0.8"/>
      </g>
     </g>
     <g id="text_12">
      <!-- 1.1 -->
      <g transform="translate(20.878125 97.783832) scale(0.1 -0.1)">
       <use xlink:href="#DejaVuSans-31"/>
       <use xlink:href="#DejaVuSans-2e" transform="translate(63.623047 0)"/>
       <use xlink:href="#DejaVuSans-31" transform="translate(95.410156 0)"/>
      </g>
     </g>
    </g>
    <g id="ytick_4">
     <g id="line2d_11">
      <g>
       <use xlink:href="#m6f7c1a6571" x="43.78125" y="54.553794" style="stroke: #000000; stroke-width: 0.8"/>
      </g>
     </g>
     <g id="text_13">
      <!-- 1.2 -->
      <g transform="translate(20.878125 58.353013) scale(0.1 -0.1)">
       <use xlink:href="#DejaVuSans-31"/>
       <use xlink:href="#DejaVuSans-2e" transform="translate(63.623047 0)"/>
       <use xlink:href="#DejaVuSans-32" transform="translate(95.410156 0)"/>
      </g>
     </g>
    </g>
    <g id="text_14">
     <!-- Shifted Scaled [Product] -->
     <g transform="translate(14.798438 177.22675) rotate(-90) scale(0.1 -0.1)">
      <defs>
       <path id="DejaVuSans-53" d="M 3425 4513 
L 3425 3897 
Q 3066 4069 2747 4153 
Q 2428 4238 2131 4238 
Q 1616 4238 1336 4038 
Q 1056 3838 1056 3469 
Q 1056 3159 1242 3001 
Q 1428 2844 1947 2747 
L 2328 2669 
Q 3034 2534 3370 2195 
Q 3706 1856 3706 1288 
Q 3706 609 3251 259 
Q 2797 -91 1919 -91 
Q 1588 -91 1214 -16 
Q 841 59 441 206 
L 441 856 
Q 825 641 1194 531 
Q 1563 422 1919 422 
Q 2459 422 2753 634 
Q 3047 847 3047 1241 
Q 3047 1584 2836 1778 
Q 2625 1972 2144 2069 
L 1759 2144 
Q 1053 2284 737 2584 
Q 422 2884 422 3419 
Q 422 4038 858 4394 
Q 1294 4750 2059 4750 
Q 2388 4750 2728 4690 
Q 3069 4631 3425 4513 
z
" transform="scale(0.015625)"/>
       <path id="DejaVuSans-68" d="M 3513 2113 
L 3513 0 
L 2938 0 
L 2938 2094 
Q 2938 2591 2744 2837 
Q 2550 3084 2163 3084 
Q 1697 3084 1428 2787 
Q 1159 2491 1159 1978 
L 1159 0 
L 581 0 
L 581 4863 
L 1159 4863 
L 1159 2956 
Q 1366 3272 1645 3428 
Q 1925 3584 2291 3584 
Q 2894 3584 3203 3211 
Q 3513 2838 3513 2113 
z
" transform="scale(0.015625)"/>
       <path id="DejaVuSans-69" d="M 603 3500 
L 1178 3500 
L 1178 0 
L 603 0 
L 603 3500 
z
M 603 4863 
L 1178 4863 
L 1178 4134 
L 603 4134 
L 603 4863 
z
" transform="scale(0.015625)"/>
       <path id="DejaVuSans-66" d="M 2375 4863 
L 2375 4384 
L 1825 4384 
Q 1516 4384 1395 4259 
Q 1275 4134 1275 3809 
L 1275 3500 
L 2222 3500 
L 2222 3053 
L 1275 3053 
L 1275 0 
L 697 0 
L 697 3053 
L 147 3053 
L 147 3500 
L 697 3500 
L 697 3744 
Q 697 4328 969 4595 
Q 1241 4863 1831 4863 
L 2375 4863 
z
" transform="scale(0.015625)"/>
       <path id="DejaVuSans-74" d="M 1172 4494 
L 1172 3500 
L 2356 3500 
L 2356 3053 
L 1172 3053 
L 1172 1153 
Q 1172 725 1289 603 
Q 1406 481 1766 481 
L 2356 481 
L 2356 0 
L 1766 0 
Q 1100 0 847 248 
Q 594 497 594 1153 
L 594 3053 
L 172 3053 
L 172 3500 
L 594 3500 
L 594 4494 
L 1172 4494 
z
" transform="scale(0.015625)"/>
       <path id="DejaVuSans-64" d="M 2906 2969 
L 2906 4863 
L 3481 4863 
L 3481 0 
L 2906 0 
L 2906 525 
Q 2725 213 2448 61 
Q 2172 -91 1784 -91 
Q 1150 -91 751 415 
Q 353 922 353 1747 
Q 353 2572 751 3078 
Q 1150 3584 1784 3584 
Q 2172 3584 2448 3432 
Q 2725 3281 2906 2969 
z
M 947 1747 
Q 947 1113 1208 752 
Q 1469 391 1925 391 
Q 2381 391 2643 752 
Q 2906 1113 2906 1747 
Q 2906 2381 2643 2742 
Q 2381 3103 1925 3103 
Q 1469 3103 1208 2742 
Q 947 2381 947 1747 
z
" transform="scale(0.015625)"/>
       <path id="DejaVuSans-20" transform="scale(0.015625)"/>
       <path id="DejaVuSans-63" d="M 3122 3366 
L 3122 2828 
Q 2878 2963 2633 3030 
Q 2388 3097 2138 3097 
Q 1578 3097 1268 2742 
Q 959 2388 959 1747 
Q 959 1106 1268 751 
Q 1578 397 2138 397 
Q 2388 397 2633 464 
Q 2878 531 3122 666 
L 3122 134 
Q 2881 22 2623 -34 
Q 2366 -91 2075 -91 
Q 1284 -91 818 406 
Q 353 903 353 1747 
Q 353 2603 823 3093 
Q 1294 3584 2113 3584 
Q 2378 3584 2631 3529 
Q 2884 3475 3122 3366 
z
" transform="scale(0.015625)"/>
       <path id="DejaVuSans-61" d="M 2194 1759 
Q 1497 1759 1228 1600 
Q 959 1441 959 1056 
Q 959 750 1161 570 
Q 1363 391 1709 391 
Q 2188 391 2477 730 
Q 2766 1069 2766 1631 
L 2766 1759 
L 2194 1759 
z
M 3341 1997 
L 3341 0 
L 2766 0 
L 2766 531 
Q 2569 213 2275 61 
Q 1981 -91 1556 -91 
Q 1019 -91 701 211 
Q 384 513 384 1019 
Q 384 1609 779 1909 
Q 1175 2209 1959 2209 
L 2766 2209 
L 2766 2266 
Q 2766 2663 2505 2880 
Q 2244 3097 1772 3097 
Q 1472 3097 1187 3025 
Q 903 2953 641 2809 
L 641 3341 
Q 956 3463 1253 3523 
Q 1550 3584 1831 3584 
Q 2591 3584 2966 3190 
Q 3341 2797 3341 1997 
z
" transform="scale(0.015625)"/>
       <path id="DejaVuSans-6c" d="M 603 4863 
L 1178 4863 
L 1178 0 
L 603 0 
L 603 4863 
z
" transform="scale(0.015625)"/>
       <path id="DejaVuSans-50" d="M 1259 4147 
L 1259 2394 
L 2053 2394 
Q 2494 2394 2734 2622 
Q 2975 2850 2975 3272 
Q 2975 3691 2734 3919 
Q 2494 4147 2053 4147 
L 1259 4147 
z
M 628 4666 
L 2053 4666 
Q 2838 4666 3239 4311 
Q 3641 3956 3641 3272 
Q 3641 2581 3239 2228 
Q 2838 1875 2053 1875 
L 1259 1875 
L 1259 0 
L 628 0 
L 628 4666 
z
" transform="scale(0.015625)"/>
       <path id="DejaVuSans-72" d="M 2631 2963 
Q 2534 3019 2420 3045 
Q 2306 3072 2169 3072 
Q 1681 3072 1420 2755 
Q 1159 2438 1159 1844 
L 1159 0 
L 581 0 
L 581 3500 
L 1159 3500 
L 1159 2956 
Q 1341 3275 1631 3429 
Q 1922 3584 2338 3584 
Q 2397 3584 2469 3576 
Q 2541 3569 2628 3553 
L 2631 2963 
z
" transform="scale(0.015625)"/>
       <path id="DejaVuSans-6f" d="M 1959 3097 
Q 1497 3097 1228 2736 
Q 959 2375 959 1747 
Q 959 1119 1226 758 
Q 1494 397 1959 397 
Q 2419 397 2687 759 
Q 2956 1122 2956 1747 
Q 2956 2369 2687 2733 
Q 2419 3097 1959 3097 
z
M 1959 3584 
Q 2709 3584 3137 3096 
Q 3566 2609 3566 1747 
Q 3566 888 3137 398 
Q 2709 -91 1959 -91 
Q 1206 -91 779 398 
Q 353 888 353 1747 
Q 353 2609 779 3096 
Q 1206 3584 1959 3584 
z
" transform="scale(0.015625)"/>
       <path id="DejaVuSans-75" d="M 544 1381 
L 544 3500 
L 1119 3500 
L 1119 1403 
Q 1119 906 1312 657 
Q 1506 409 1894 409 
Q 2359 409 2629 706 
Q 2900 1003 2900 1516 
L 2900 3500 
L 3475 3500 
L 3475 0 
L 2900 0 
L 2900 538 
Q 2691 219 2414 64 
Q 2138 -91 1772 -91 
Q 1169 -91 856 284 
Q 544 659 544 1381 
z
M 1991 3584 
L 1991 3584 
z
" transform="scale(0.015625)"/>
      </defs>
      <use xlink:href="#DejaVuSans-53"/>
      <use xlink:href="#DejaVuSans-68" transform="translate(63.476562 0)"/>
      <use xlink:href="#DejaVuSans-69" transform="translate(126.855469 0)"/>
      <use xlink:href="#DejaVuSans-66" transform="translate(154.638672 0)"/>
      <use xlink:href="#DejaVuSans-74" transform="translate(188.09375 0)"/>
      <use xlink:href="#DejaVuSans-65" transform="translate(227.302734 0)"/>
      <use xlink:href="#DejaVuSans-64" transform="translate(288.826172 0)"/>
      <use xlink:href="#DejaVuSans-20" transform="translate(352.302734 0)"/>
      <use xlink:href="#DejaVuSans-53" transform="translate(384.089844 0)"/>
      <use xlink:href="#DejaVuSans-63" transform="translate(447.566406 0)"/>
      <use xlink:href="#DejaVuSans-61" transform="translate(502.546875 0)"/>
      <use xlink:href="#DejaVuSans-6c" transform="translate(563.826172 0)"/>
      <use xlink:href="#DejaVuSans-65" transform="translate(591.609375 0)"/>
      <use xlink:href="#DejaVuSans-64" transform="translate(653.132812 0)"/>
      <use xlink:href="#DejaVuSans-20" transform="translate(716.609375 0)"/>
      <use xlink:href="#DejaVuSans-5b" transform="translate(748.396484 0)"/>
      <use xlink:href="#DejaVuSans-50" transform="translate(787.410156 0)"/>
      <use xlink:href="#DejaVuSans-72" transform="translate(845.962891 0)"/>
      <use xlink:href="#DejaVuSans-6f" transform="translate(884.826172 0)"/>
      <use xlink:href="#DejaVuSans-64" transform="translate(946.007812 0)"/>
      <use xlink:href="#DejaVuSans-75" transform="translate(1009.484375 0)"/>
      <use xlink:href="#DejaVuSans-63" transform="translate(1072.863281 0)"/>
      <use xlink:href="#DejaVuSans-74" transform="translate(1127.84375 0)"/>
      <use xlink:href="#DejaVuSans-5d" transform="translate(1167.052734 0)"/>
     </g>
    </g>
   </g>
   <g id="line2d_12">
    <path d="M 43.78125 183.77397 
L 50.314756 181.459327 
L 70.282983 170.754468 
L 85.650052 161.730894 
L 98.60421 154.114103 
L 109.234927 147.082444 
L 118.345716 141.427386 
L 126.205187 135.665515 
L 133.348429 131.646959 
L 139.427856 126.245993 
L 144.690858 121.819079 
L 149.528066 118.494643 
L 153.730611 114.934236 
L 157.57127 112.794809 
L 161.123662 110.651812 
L 164.481515 107.734098 
L 167.48021 106.331084 
L 170.267345 103.525395 
L 172.90545 101.812518 
L 175.266048 99.859131 
L 177.486731 98.874652 
L 179.588787 97.312579 
L 181.5875 95.570443 
L 183.425897 94.840238 
L 185.176346 93.683413 
L 186.841515 91.451986 
L 188.353504 91.296463 
L 189.811814 89.860793 
L 191.184475 88.763904 
L 192.479508 86.957189 
L 193.644166 85.960943 
" clip-path="url(#p022c545bba)" style="fill: none; stroke: #1f77b4; stroke-width: 0.7; stroke-linecap: square"/>
    <defs>
     <path id="m0289274592" d="M 0 0.9 
C 0.238683 0.9 0.467622 0.80517 0.636396 0.636396 
C 0.80517 0.467622 0.9 0.238683 0.9 0 
C 0.9 -0.238683 0.80517 -0.467622 0.636396 -0.636396 
C 0.467622 -0.80517 0.238683 -0.9 0 -0.9 
C -0.238683 -0.9 -0.467622 -0.80517 -0.636396 -0.636396 
C -0.80517 -0.467622 -0.9 -0.238683 -0.9 0 
C -0.9 0.238683 -0.80517 0.467622 -0.636396 0.636396 
C -0.467622 0.80517 -0.238683 0.9 0 0.9 
z
" style="stroke: #1f77b4"/>
    </defs>
    <g clip-path="url(#p022c545bba)">
     <use xlink:href="#m0289274592" x="43.78125" y="183.77397" style="fill: #1f77b4; stroke: #1f77b4"/>
     <use xlink:href="#m0289274592" x="50.314756" y="181.459327" style="fill: #1f77b4; stroke: #1f77b4"/>
     <use xlink:href="#m0289274592" x="70.282983" y="170.754468" style="fill: #1f77b4; stroke: #1f77b4"/>
     <use xlink:href="#m0289274592" x="85.650052" y="161.730894" style="fill: #1f77b4; stroke: #1f77b4"/>
     <use xlink:href="#m0289274592" x="98.60421" y="154.114103" style="fill: #1f77b4; stroke: #1f77b4"/>
     <use xlink:href="#m0289274592" x="109.234927" y="147.082444" style="fill: #1f77b4; stroke: #1f77b4"/>
     <use xlink:href="#m0289274592" x="118.345716" y="141.427386" style="fill: #1f77b4; stroke: #1f77b4"/>
     <use xlink:href="#m0289274592" x="126.205187" y="135.665515" style="fill: #1f77b4; stroke: #1f77b4"/>
     <use xlink:href="#m0289274592" x="133.348429" y="131.646959" style="fill: #1f77b4; stroke: #1f77b4"/>
     <use xlink:href="#m0289274592" x="139.427856" y="126.245993" style="fill: #1f77b4; stroke: #1f77b4"/>
     <use xlink:href="#m0289274592" x="144.690858" y="121.819079" style="fill: #1f77b4; stroke: #1f77b4"/>
     <use xlink:href="#m0289274592" x="149.528066" y="118.494643" style="fill: #1f77b4; stroke: #1f77b4"/>
     <use xlink:href="#m0289274592" x="153.730611" y="114.934236" style="fill: #1f77b4; stroke: #1f77b4"/>
     <use xlink:href="#m0289274592" x="157.57127" y="112.794809" style="fill: #1f77b4; stroke: #1f77b4"/>
     <use xlink:href="#m0289274592" x="161.123662" y="110.651812" style="fill: #1f77b4; stroke: #1f77b4"/>
     <use xlink:href="#m0289274592" x="164.481515" y="107.734098" style="fill: #1f77b4; stroke: #1f77b4"/>
     <use xlink:href="#m0289274592" x="167.48021" y="106.331084" style="fill: #1f77b4; stroke: #1f77b4"/>
     <use xlink:href="#m0289274592" x="170.267345" y="103.525395" style="fill: #1f77b4; stroke: #1f77b4"/>
     <use xlink:href="#m0289274592" x="172.90545" y="101.812518" style="fill: #1f77b4; stroke: #1f77b4"/>
     <use xlink:href="#m0289274592" x="175.266048" y="99.859131" style="fill: #1f77b4; stroke: #1f77b4"/>
     <use xlink:href="#m0289274592" x="177.486731" y="98.874652" style="fill: #1f77b4; stroke: #1f77b4"/>
     <use xlink:href="#m0289274592" x="179.588787" y="97.312579" style="fill: #1f77b4; stroke: #1f77b4"/>
     <use xlink:href="#m0289274592" x="181.5875" y="95.570443" style="fill: #1f77b4; stroke: #1f77b4"/>
     <use xlink:href="#m0289274592" x="183.425897" y="94.840238" style="fill: #1f77b4; stroke: #1f77b4"/>
     <use xlink:href="#m0289274592" x="185.176346" y="93.683413" style="fill: #1f77b4; stroke: #1f77b4"/>
     <use xlink:href="#m0289274592" x="186.841515" y="91.451986" style="fill: #1f77b4; stroke: #1f77b4"/>
     <use xlink:href="#m0289274592" x="188.353504" y="91.296463" style="fill: #1f77b4; stroke: #1f77b4"/>
     <use xlink:href="#m0289274592" x="189.811814" y="89.860793" style="fill: #1f77b4; stroke: #1f77b4"/>
     <use xlink:href="#m0289274592" x="191.184475" y="88.763904" style="fill: #1f77b4; stroke: #1f77b4"/>
     <use xlink:href="#m0289274592" x="192.479508" y="86.957189" style="fill: #1f77b4; stroke: #1f77b4"/>
     <use xlink:href="#m0289274592" x="193.644166" y="85.960943" style="fill: #1f77b4; stroke: #1f77b4"/>
    </g>
   </g>
   <g id="line2d_13">
    <path d="M 43.78125 183.77397 
L 81.530272 157.737296 
L 109.752173 138.696321 
L 132.484814 124.084815 
L 151.495422 111.898894 
L 168.15629 101.95217 
L 182.261799 93.706855 
L 194.865223 86.816644 
L 206.452846 79.810712 
L 216.522911 74.676413 
L 225.698 69.266757 
L 234.180571 65.600089 
L 242.262778 61.375843 
L 249.457448 57.131892 
L 256.162202 54.176463 
" clip-path="url(#p022c545bba)" style="fill: none; stroke: #ff7f0e; stroke-width: 0.7; stroke-linecap: square"/>
    <defs>
     <path id="m2e273cda94" d="M 0 0.9 
C 0.238683 0.9 0.467622 0.80517 0.636396 0.636396 
C 0.80517 0.467622 0.9 0.238683 0.9 0 
C 0.9 -0.238683 0.80517 -0.467622 0.636396 -0.636396 
C 0.467622 -0.80517 0.238683 -0.9 0 -0.9 
C -0.238683 -0.9 -0.467622 -0.80517 -0.636396 -0.636396 
C -0.80517 -0.467622 -0.9 -0.238683 -0.9 0 
C -0.9 0.238683 -0.80517 0.467622 -0.636396 0.636396 
C -0.467622 0.80517 -0.238683 0.9 0 0.9 
z
" style="stroke: #ff7f0e"/>
    </defs>
    <g clip-path="url(#p022c545bba)">
     <use xlink:href="#m2e273cda94" x="43.78125" y="183.77397" style="fill: #ff7f0e; stroke: #ff7f0e"/>
     <use xlink:href="#m2e273cda94" x="81.530272" y="157.737296" style="fill: #ff7f0e; stroke: #ff7f0e"/>
     <use xlink:href="#m2e273cda94" x="109.752173" y="138.696321" style="fill: #ff7f0e; stroke: #ff7f0e"/>
     <use xlink:href="#m2e273cda94" x="132.484814" y="124.084815" style="fill: #ff7f0e; stroke: #ff7f0e"/>
     <use xlink:href="#m2e273cda94" x="151.495422" y="111.898894" style="fill: #ff7f0e; stroke: #ff7f0e"/>
     <use xlink:href="#m2e273cda94" x="168.15629" y="101.95217" style="fill: #ff7f0e; stroke: #ff7f0e"/>
     <use xlink:href="#m2e273cda94" x="182.261799" y="93.706855" style="fill: #ff7f0e; stroke: #ff7f0e"/>
     <use xlink:href="#m2e273cda94" x="194.865223" y="86.816644" style="fill: #ff7f0e; stroke: #ff7f0e"/>
     <use xlink:href="#m2e273cda94" x="206.452846" y="79.810712" style="fill: #ff7f0e; stroke: #ff7f0e"/>
     <use xlink:href="#m2e273cda94" x="216.522911" y="74.676413" style="fill: #ff7f0e; stroke: #ff7f0e"/>
     <use xlink:href="#m2e273cda94" x="225.698" y="69.266757" style="fill: #ff7f0e; stroke: #ff7f0e"/>
     <use xlink:href="#m2e273cda94" x="234.180571" y="65.600089" style="fill: #ff7f0e; stroke: #ff7f0e"/>
     <use xlink:href="#m2e273cda94" x="242.262778" y="61.375843" style="fill: #ff7f0e; stroke: #ff7f0e"/>
     <use xlink:href="#m2e273cda94" x="249.457448" y="57.131892" style="fill: #ff7f0e; stroke: #ff7f0e"/>
     <use xlink:href="#m2e273cda94" x="256.162202" y="54.176463" style="fill: #ff7f0e; stroke: #ff7f0e"/>
    </g>
   </g>
   <g id="line2d_14">
    <path d="M 43.78125 183.77397 
L 48.344015 181.203694 
L 52.705906 178.478025 
L 56.673005 175.735763 
L 60.43212 173.418202 
L 64.028327 170.885988 
L 67.316093 169.126594 
L 70.43952 166.435233 
L 73.397818 164.330149 
L 76.320268 163.080884 
L 79.02437 161.094375 
L 81.622979 158.990902 
L 84.197672 157.56001 
L 86.595684 156.46501 
L 88.914828 155.070177 
L 91.140642 153.000444 
L 93.326509 151.053904 
L 95.401726 151.43262 
L 97.427993 149.997843 
L 99.405454 148.906044 
L 101.277764 148.718211 
L 103.090932 146.642355 
L 104.857418 145.560242 
L 106.606005 144.689089 
L 108.253063 143.383499 
L 109.844003 142.571263 
L 111.432791 141.316431 
L 112.923551 141.043271 
L 114.372763 140.303529 
L 115.780679 139.562272 
L 117.186481 138.123741 
L 118.518799 137.846556 
L 119.796206 135.537981 
L 121.076785 135.624998 
L 122.35631 134.701713 
L 123.510047 134.572016 
L 124.68087 133.800633 
L 125.824582 133.760655 
L 126.924846 132.4703 
L 128.02982 131.746839 
L 129.073102 130.670849 
L 130.401277 130.415383 
" clip-path="url(#p022c545bba)" style="fill: none; stroke: #2ca02c; stroke-width: 0.7; stroke-linecap: square"/>
    <defs>
     <path id="m20e86ee86c" d="M 0 0.9 
C 0.238683 0.9 0.467622 0.80517 0.636396 0.636396 
C 0.80517 0.467622 0.9 0.238683 0.9 0 
C 0.9 -0.238683 0.80517 -0.467622 0.636396 -0.636396 
C 0.467622 -0.80517 0.238683 -0.9 0 -0.9 
C -0.238683 -0.9 -0.467622 -0.80517 -0.636396 -0.636396 
C -0.80517 -0.467622 -0.9 -0.238683 -0.9 0 
C -0.9 0.238683 -0.80517 0.467622 -0.636396 0.636396 
C -0.467622 0.80517 -0.238683 0.9 0 0.9 
z
" style="stroke: #2ca02c"/>
    </defs>
    <g clip-path="url(#p022c545bba)">
     <use xlink:href="#m20e86ee86c" x="43.78125" y="183.77397" style="fill: #2ca02c; stroke: #2ca02c"/>
     <use xlink:href="#m20e86ee86c" x="48.344015" y="181.203694" style="fill: #2ca02c; stroke: #2ca02c"/>
     <use xlink:href="#m20e86ee86c" x="52.705906" y="178.478025" style="fill: #2ca02c; stroke: #2ca02c"/>
     <use xlink:href="#m20e86ee86c" x="56.673005" y="175.735763" style="fill: #2ca02c; stroke: #2ca02c"/>
     <use xlink:href="#m20e86ee86c" x="60.43212" y="173.418202" style="fill: #2ca02c; stroke: #2ca02c"/>
     <use xlink:href="#m20e86ee86c" x="64.028327" y="170.885988" style="fill: #2ca02c; stroke: #2ca02c"/>
     <use xlink:href="#m20e86ee86c" x="67.316093" y="169.126594" style="fill: #2ca02c; stroke: #2ca02c"/>
     <use xlink:href="#m20e86ee86c" x="70.43952" y="166.435233" style="fill: #2ca02c; stroke: #2ca02c"/>
     <use xlink:href="#m20e86ee86c" x="73.397818" y="164.330149" style="fill: #2ca02c; stroke: #2ca02c"/>
     <use xlink:href="#m20e86ee86c" x="76.320268" y="163.080884" style="fill: #2ca02c; stroke: #2ca02c"/>
     <use xlink:href="#m20e86ee86c" x="79.02437" y="161.094375" style="fill: #2ca02c; stroke: #2ca02c"/>
     <use xlink:href="#m20e86ee86c" x="81.622979" y="158.990902" style="fill: #2ca02c; stroke: #2ca02c"/>
     <use xlink:href="#m20e86ee86c" x="84.197672" y="157.56001" style="fill: #2ca02c; stroke: #2ca02c"/>
     <use xlink:href="#m20e86ee86c" x="86.595684" y="156.46501" style="fill: #2ca02c; stroke: #2ca02c"/>
     <use xlink:href="#m20e86ee86c" x="88.914828" y="155.070177" style="fill: #2ca02c; stroke: #2ca02c"/>
     <use xlink:href="#m20e86ee86c" x="91.140642" y="153.000444" style="fill: #2ca02c; stroke: #2ca02c"/>
     <use xlink:href="#m20e86ee86c" x="93.326509" y="151.053904" style="fill: #2ca02c; stroke: #2ca02c"/>
     <use xlink:href="#m20e86ee86c" x="95.401726" y="151.43262" style="fill: #2ca02c; stroke: #2ca02c"/>
     <use xlink:href="#m20e86ee86c" x="97.427993" y="149.997843" style="fill: #2ca02c; stroke: #2ca02c"/>
     <use xlink:href="#m20e86ee86c" x="99.405454" y="148.906044" style="fill: #2ca02c; stroke: #2ca02c"/>
     <use xlink:href="#m20e86ee86c" x="101.277764" y="148.718211" style="fill: #2ca02c; stroke: #2ca02c"/>
     <use xlink:href="#m20e86ee86c" x="103.090932" y="146.642355" style="fill: #2ca02c; stroke: #2ca02c"/>
     <use xlink:href="#m20e86ee86c" x="104.857418" y="145.560242" style="fill: #2ca02c; stroke: #2ca02c"/>
     <use xlink:href="#m20e86ee86c" x="106.606005" y="144.689089" style="fill: #2ca02c; stroke: #2ca02c"/>
     <use xlink:href="#m20e86ee86c" x="108.253063" y="143.383499" style="fill: #2ca02c; stroke: #2ca02c"/>
     <use xlink:href="#m20e86ee86c" x="109.844003" y="142.571263" style="fill: #2ca02c; stroke: #2ca02c"/>
     <use xlink:href="#m20e86ee86c" x="111.432791" y="141.316431" style="fill: #2ca02c; stroke: #2ca02c"/>
     <use xlink:href="#m20e86ee86c" x="112.923551" y="141.043271" style="fill: #2ca02c; stroke: #2ca02c"/>
     <use xlink:href="#m20e86ee86c" x="114.372763" y="140.303529" style="fill: #2ca02c; stroke: #2ca02c"/>
     <use xlink:href="#m20e86ee86c" x="115.780679" y="139.562272" style="fill: #2ca02c; stroke: #2ca02c"/>
     <use xlink:href="#m20e86ee86c" x="117.186481" y="138.123741" style="fill: #2ca02c; stroke: #2ca02c"/>
     <use xlink:href="#m20e86ee86c" x="118.518799" y="137.846556" style="fill: #2ca02c; stroke: #2ca02c"/>
     <use xlink:href="#m20e86ee86c" x="119.796206" y="135.537981" style="fill: #2ca02c; stroke: #2ca02c"/>
     <use xlink:href="#m20e86ee86c" x="121.076785" y="135.624998" style="fill: #2ca02c; stroke: #2ca02c"/>
     <use xlink:href="#m20e86ee86c" x="122.35631" y="134.701713" style="fill: #2ca02c; stroke: #2ca02c"/>
     <use xlink:href="#m20e86ee86c" x="123.510047" y="134.572016" style="fill: #2ca02c; stroke: #2ca02c"/>
     <use xlink:href="#m20e86ee86c" x="124.68087" y="133.800633" style="fill: #2ca02c; stroke: #2ca02c"/>
     <use xlink:href="#m20e86ee86c" x="125.824582" y="133.760655" style="fill: #2ca02c; stroke: #2ca02c"/>
     <use xlink:href="#m20e86ee86c" x="126.924846" y="132.4703" style="fill: #2ca02c; stroke: #2ca02c"/>
     <use xlink:href="#m20e86ee86c" x="128.02982" y="131.746839" style="fill: #2ca02c; stroke: #2ca02c"/>
     <use xlink:href="#m20e86ee86c" x="129.073102" y="130.670849" style="fill: #2ca02c; stroke: #2ca02c"/>
     <use xlink:href="#m20e86ee86c" x="130.401277" y="130.415383" style="fill: #2ca02c; stroke: #2ca02c"/>
    </g>
   </g>
   <g id="line2d_15">
    <path d="M 43.78125 183.77397 
L 58.665496 173.373583 
L 69.14165 165.963062 
L 77.420691 160.080036 
L 85.403506 155.414696 
L 90.074411 152.271923 
L 94.461792 149.74968 
L 98.248474 148.485806 
L 101.427651 146.362779 
L 104.170011 144.865353 
L 106.520668 143.947812 
L 108.449686 142.872371 
L 110.089624 141.675231 
L 111.595138 141.496184 
L 112.951589 141.104724 
L 114.097045 139.746845 
L 114.99757 139.826984 
L 115.862482 139.537057 
L 116.742912 139.388706 
L 117.503198 138.69268 
" clip-path="url(#p022c545bba)" style="fill: none; stroke: #d62728; stroke-width: 0.7; stroke-linecap: square"/>
    <defs>
     <path id="maebd240f7f" d="M 0 0.9 
C 0.238683 0.9 0.467622 0.80517 0.636396 0.636396 
C 0.80517 0.467622 0.9 0.238683 0.9 0 
C 0.9 -0.238683 0.80517 -0.467622 0.636396 -0.636396 
C 0.467622 -0.80517 0.238683 -0.9 0 -0.9 
C -0.238683 -0.9 -0.467622 -0.80517 -0.636396 -0.636396 
C -0.80517 -0.467622 -0.9 -0.238683 -0.9 0 
C -0.9 0.238683 -0.80517 0.467622 -0.636396 0.636396 
C -0.467622 0.80517 -0.238683 0.9 0 0.9 
z
" style="stroke: #d62728"/>
    </defs>
    <g clip-path="url(#p022c545bba)">
     <use xlink:href="#maebd240f7f" x="43.78125" y="183.77397" style="fill: #d62728; stroke: #d62728"/>
     <use xlink:href="#maebd240f7f" x="58.665496" y="173.373583" style="fill: #d62728; stroke: #d62728"/>
     <use xlink:href="#maebd240f7f" x="69.14165" y="165.963062" style="fill: #d62728; stroke: #d62728"/>
     <use xlink:href="#maebd240f7f" x="77.420691" y="160.080036" style="fill: #d62728; stroke: #d62728"/>
     <use xlink:href="#maebd240f7f" x="85.403506" y="155.414696" style="fill: #d62728; stroke: #d62728"/>
     <use xlink:href="#maebd240f7f" x="90.074411" y="152.271923" style="fill: #d62728; stroke: #d62728"/>
     <use xlink:href="#maebd240f7f" x="94.461792" y="149.74968" style="fill: #d62728; stroke: #d62728"/>
     <use xlink:href="#maebd240f7f" x="98.248474" y="148.485806" style="fill: #d62728; stroke: #d62728"/>
     <use xlink:href="#maebd240f7f" x="101.427651" y="146.362779" style="fill: #d62728; stroke: #d62728"/>
     <use xlink:href="#maebd240f7f" x="104.170011" y="144.865353" style="fill: #d62728; stroke: #d62728"/>
     <use xlink:href="#maebd240f7f" x="106.520668" y="143.947812" style="fill: #d62728; stroke: #d62728"/>
     <use xlink:href="#maebd240f7f" x="108.449686" y="142.872371" style="fill: #d62728; stroke: #d62728"/>
     <use xlink:href="#maebd240f7f" x="110.089624" y="141.675231" style="fill: #d62728; stroke: #d62728"/>
     <use xlink:href="#maebd240f7f" x="111.595138" y="141.496184" style="fill: #d62728; stroke: #d62728"/>
     <use xlink:href="#maebd240f7f" x="112.951589" y="141.104724" style="fill: #d62728; stroke: #d62728"/>
     <use xlink:href="#maebd240f7f" x="114.097045" y="139.746845" style="fill: #d62728; stroke: #d62728"/>
     <use xlink:href="#maebd240f7f" x="114.99757" y="139.826984" style="fill: #d62728; stroke: #d62728"/>
     <use xlink:href="#maebd240f7f" x="115.862482" y="139.537057" style="fill: #d62728; stroke: #d62728"/>
     <use xlink:href="#maebd240f7f" x="116.742912" y="139.388706" style="fill: #d62728; stroke: #d62728"/>
     <use xlink:href="#maebd240f7f" x="117.503198" y="138.69268" style="fill: #d62728; stroke: #d62728"/>
    </g>
   </g>
   <g id="line2d_16">
    <path d="M 43.78125 183.947517 
L 45.926512 182.593467 
L 48.071774 181.239418 
L 50.217036 179.885368 
L 52.362299 178.531319 
L 54.507561 177.177269 
L 56.652823 175.82322 
L 58.798085 174.46917 
L 60.943347 173.11512 
L 63.088609 171.761071 
L 65.233871 170.407021 
L 67.379134 169.052972 
L 69.524396 167.698922 
L 71.669658 166.344872 
L 73.81492 164.990823 
L 75.960182 163.636773 
L 78.105444 162.282724 
L 80.250706 160.928674 
L 82.395969 159.574624 
L 84.541231 158.220575 
L 86.686493 156.866525 
L 88.831755 155.512476 
L 90.977017 154.158426 
L 93.122279 152.804377 
L 95.267541 151.450327 
L 97.412804 150.096277 
L 99.558066 148.742228 
L 101.703328 147.388178 
L 103.84859 146.034129 
L 105.993852 144.680079 
L 108.139114 143.326029 
L 110.284377 141.97198 
L 112.429639 140.61793 
L 114.574901 139.263881 
L 116.720163 137.909831 
L 118.865425 136.555782 
L 121.010687 135.201732 
L 123.155949 133.847682 
L 125.301212 132.493633 
L 127.446474 131.139583 
L 129.591736 129.785534 
L 131.736998 128.431484 
L 133.88226 127.077434 
L 136.027522 125.723385 
L 138.172784 124.369335 
L 140.318047 123.015286 
L 142.463309 121.661236 
L 144.608571 120.307186 
L 146.753833 118.953137 
L 148.899095 117.599087 
L 151.044357 116.245038 
L 153.189619 114.890988 
L 155.334882 113.536939 
L 157.480144 112.182889 
L 159.625406 110.828839 
L 161.770668 109.47479 
L 163.91593 108.12074 
L 166.061192 106.766691 
L 168.206454 105.412641 
L 170.351717 104.058591 
L 172.496979 102.704542 
L 174.642241 101.350492 
L 176.787503 99.996443 
L 178.932765 98.642393 
L 181.078027 97.288343 
L 183.223289 95.934294 
L 185.368552 94.580244 
L 187.513814 93.226195 
L 189.659076 91.872145 
L 191.804338 90.518096 
L 193.9496 89.164046 
L 196.094862 87.809996 
L 198.240124 86.455947 
L 200.385387 85.101897 
L 202.530649 83.747848 
L 204.675911 82.393798 
L 206.821173 81.039748 
L 208.966435 79.685699 
L 211.111697 78.331649 
L 213.256959 76.9776 
L 215.402222 75.62355 
L 217.547484 74.269501 
L 219.692746 72.915451 
L 221.838008 71.561401 
L 223.98327 70.207352 
L 226.128532 68.853302 
L 228.273794 67.499253 
L 230.419057 66.145203 
L 232.564319 64.791153 
L 234.709581 63.437104 
L 236.854843 62.083054 
L 239.000105 60.729005 
L 241.145367 59.374955 
L 243.29063 58.020905 
L 245.435892 56.666856 
L 247.581154 55.312806 
L 249.726416 53.958757 
L 251.871678 52.604707 
L 254.01694 51.250658 
L 256.162202 49.896608 
" clip-path="url(#p022c545bba)" style="fill: none; stroke-dasharray: 1.5,2.475; stroke-dashoffset: 0; stroke: #000000; stroke-width: 1.5"/>
   </g>
   <g id="patch_3">
    <path d="M 43.78125 190.650062 
L 43.78125 43.194063 
" style="fill: none; stroke: #000000; stroke-width: 0.8; stroke-linejoin: miter; stroke-linecap: square"/>
   </g>
   <g id="patch_4">
    <path d="M 266.78125 190.650062 
L 266.78125 43.194063 
" style="fill: none; stroke: #000000; stroke-width: 0.8; stroke-linejoin: miter; stroke-linecap: square"/>
   </g>
   <g id="patch_5">
    <path d="M 43.78125 190.650062 
L 266.78125 190.650062 
" style="fill: none; stroke: #000000; stroke-width: 0.8; stroke-linejoin: miter; stroke-linecap: square"/>
   </g>
   <g id="patch_6">
    <path d="M 43.78125 43.194062 
L 266.78125 43.194062 
" style="fill: none; stroke: #000000; stroke-width: 0.8; stroke-linejoin: miter; stroke-linecap: square"/>
   </g>
   <g id="text_15">
    <!--  -->
    <g transform="translate(155.28125 14.798437) scale(0.1 -0.1)"/>
    <!-- GOF (RMSE): 0.00462 -->
    <g transform="translate(101.032812 25.99625) scale(0.1 -0.1)">
     <defs>
      <path id="DejaVuSans-47" d="M 3809 666 
L 3809 1919 
L 2778 1919 
L 2778 2438 
L 4434 2438 
L 4434 434 
Q 4069 175 3628 42 
Q 3188 -91 2688 -91 
Q 1594 -91 976 548 
Q 359 1188 359 2328 
Q 359 3472 976 4111 
Q 1594 4750 2688 4750 
Q 3144 4750 3555 4637 
Q 3966 4525 4313 4306 
L 4313 3634 
Q 3963 3931 3569 4081 
Q 3175 4231 2741 4231 
Q 1884 4231 1454 3753 
Q 1025 3275 1025 2328 
Q 1025 1384 1454 906 
Q 1884 428 2741 428 
Q 3075 428 3337 486 
Q 3600 544 3809 666 
z
" transform="scale(0.015625)"/>
      <path id="DejaVuSans-4f" d="M 2522 4238 
Q 1834 4238 1429 3725 
Q 1025 3213 1025 2328 
Q 1025 1447 1429 934 
Q 1834 422 2522 422 
Q 3209 422 3611 934 
Q 4013 1447 4013 2328 
Q 4013 3213 3611 3725 
Q 3209 4238 2522 4238 
z
M 2522 4750 
Q 3503 4750 4090 4092 
Q 4678 3434 4678 2328 
Q 4678 1225 4090 567 
Q 3503 -91 2522 -91 
Q 1538 -91 948 565 
Q 359 1222 359 2328 
Q 359 3434 948 4092 
Q 1538 4750 2522 4750 
z
" transform="scale(0.015625)"/>
      <path id="DejaVuSans-46" d="M 628 4666 
L 3309 4666 
L 3309 4134 
L 1259 4134 
L 1259 2759 
L 3109 2759 
L 3109 2228 
L 1259 2228 
L 1259 0 
L 628 0 
L 628 4666 
z
" transform="scale(0.015625)"/>
      <path id="DejaVuSans-28" d="M 1984 4856 
Q 1566 4138 1362 3434 
Q 1159 2731 1159 2009 
Q 1159 1288 1364 580 
Q 1569 -128 1984 -844 
L 1484 -844 
Q 1016 -109 783 600 
Q 550 1309 550 2009 
Q 550 2706 781 3412 
Q 1013 4119 1484 4856 
L 1984 4856 
z
" transform="scale(0.015625)"/>
      <path id="DejaVuSans-52" d="M 2841 2188 
Q 3044 2119 3236 1894 
Q 3428 1669 3622 1275 
L 4263 0 
L 3584 0 
L 2988 1197 
Q 2756 1666 2539 1819 
Q 2322 1972 1947 1972 
L 1259 1972 
L 1259 0 
L 628 0 
L 628 4666 
L 2053 4666 
Q 2853 4666 3247 4331 
Q 3641 3997 3641 3322 
Q 3641 2881 3436 2590 
Q 3231 2300 2841 2188 
z
M 1259 4147 
L 1259 2491 
L 2053 2491 
Q 2509 2491 2742 2702 
Q 2975 2913 2975 3322 
Q 2975 3731 2742 3939 
Q 2509 4147 2053 4147 
L 1259 4147 
z
" transform="scale(0.015625)"/>
      <path id="DejaVuSans-4d" d="M 628 4666 
L 1569 4666 
L 2759 1491 
L 3956 4666 
L 4897 4666 
L 4897 0 
L 4281 0 
L 4281 4097 
L 3078 897 
L 2444 897 
L 1241 4097 
L 1241 0 
L 628 0 
L 628 4666 
z
" transform="scale(0.015625)"/>
      <path id="DejaVuSans-45" d="M 628 4666 
L 3578 4666 
L 3578 4134 
L 1259 4134 
L 1259 2753 
L 3481 2753 
L 3481 2222 
L 1259 2222 
L 1259 531 
L 3634 531 
L 3634 0 
L 628 0 
L 628 4666 
z
" transform="scale(0.015625)"/>
      <path id="DejaVuSans-29" d="M 513 4856 
L 1013 4856 
Q 1481 4119 1714 3412 
Q 1947 2706 1947 2009 
Q 1947 1309 1714 600 
Q 1481 -109 1013 -844 
L 513 -844 
Q 928 -128 1133 580 
Q 1338 1288 1338 2009 
Q 1338 2731 1133 3434 
Q 928 4138 513 4856 
z
" transform="scale(0.015625)"/>
      <path id="DejaVuSans-3a" d="M 750 794 
L 1409 794 
L 1409 0 
L 750 0 
L 750 794 
z
M 750 3309 
L 1409 3309 
L 1409 2516 
L 750 2516 
L 750 3309 
z
" transform="scale(0.015625)"/>
     </defs>
     <use xlink:href="#DejaVuSans-47"/>
     <use xlink:href="#DejaVuSans-4f" transform="translate(77.490234 0)"/>
     <use xlink:href="#DejaVuSans-46" transform="translate(156.201172 0)"/>
     <use xlink:href="#DejaVuSans-20" transform="translate(213.720703 0)"/>
     <use xlink:href="#DejaVuSans-28" transform="translate(245.507812 0)"/>
     <use xlink:href="#DejaVuSans-52" transform="translate(284.521484 0)"/>
     <use xlink:href="#DejaVuSans-4d" transform="translate(354.003906 0)"/>
     <use xlink:href="#DejaVuSans-53" transform="translate(440.283203 0)"/>
     <use xlink:href="#DejaVuSans-45" transform="translate(503.759766 0)"/>
     <use xlink:href="#DejaVuSans-29" transform="translate(566.943359 0)"/>
     <use xlink:href="#DejaVuSans-3a" transform="translate(605.957031 0)"/>
     <use xlink:href="#DejaVuSans-20" transform="translate(639.648438 0)"/>
     <use xlink:href="#DejaVuSans-30" transform="translate(671.435547 0)"/>
     <use xlink:href="#DejaVuSans-2e" transform="translate(735.058594 0)"/>
     <use xlink:href="#DejaVuSans-30" transform="translate(766.845703 0)"/>
     <use xlink:href="#DejaVuSans-30" transform="translate(830.46875 0)"/>
     <use xlink:href="#DejaVuSans-34" transform="translate(894.091797 0)"/>
     <use xlink:href="#DejaVuSans-36" transform="translate(957.714844 0)"/>
     <use xlink:href="#DejaVuSans-32" transform="translate(1021.337891 0)"/>
    </g>
    <!-- Slope (non-scaled tT and y): 2.913e-04 ± 1.67e-06 -->
    <g transform="translate(27.936719 37.194062) scale(0.1 -0.1)">
     <defs>
      <path id="DejaVuSans-70" d="M 1159 525 
L 1159 -1331 
L 581 -1331 
L 581 3500 
L 1159 3500 
L 1159 2969 
Q 1341 3281 1617 3432 
Q 1894 3584 2278 3584 
Q 2916 3584 3314 3078 
Q 3713 2572 3713 1747 
Q 3713 922 3314 415 
Q 2916 -91 2278 -91 
Q 1894 -91 1617 61 
Q 1341 213 1159 525 
z
M 3116 1747 
Q 3116 2381 2855 2742 
Q 2594 3103 2138 3103 
Q 1681 3103 1420 2742 
Q 1159 2381 1159 1747 
Q 1159 1113 1420 752 
Q 1681 391 2138 391 
Q 2594 391 2855 752 
Q 3116 1113 3116 1747 
z
" transform="scale(0.015625)"/>
      <path id="DejaVuSans-6e" d="M 3513 2113 
L 3513 0 
L 2938 0 
L 2938 2094 
Q 2938 2591 2744 2837 
Q 2550 3084 2163 3084 
Q 1697 3084 1428 2787 
Q 1159 2491 1159 1978 
L 1159 0 
L 581 0 
L 581 3500 
L 1159 3500 
L 1159 2956 
Q 1366 3272 1645 3428 
Q 1925 3584 2291 3584 
Q 2894 3584 3203 3211 
Q 3513 2838 3513 2113 
z
" transform="scale(0.015625)"/>
      <path id="DejaVuSans-2d" d="M 313 2009 
L 1997 2009 
L 1997 1497 
L 313 1497 
L 313 2009 
z
" transform="scale(0.015625)"/>
      <path id="DejaVuSans-73" d="M 2834 3397 
L 2834 2853 
Q 2591 2978 2328 3040 
Q 2066 3103 1784 3103 
Q 1356 3103 1142 2972 
Q 928 2841 928 2578 
Q 928 2378 1081 2264 
Q 1234 2150 1697 2047 
L 1894 2003 
Q 2506 1872 2764 1633 
Q 3022 1394 3022 966 
Q 3022 478 2636 193 
Q 2250 -91 1575 -91 
Q 1294 -91 989 -36 
Q 684 19 347 128 
L 347 722 
Q 666 556 975 473 
Q 1284 391 1588 391 
Q 1994 391 2212 530 
Q 2431 669 2431 922 
Q 2431 1156 2273 1281 
Q 2116 1406 1581 1522 
L 1381 1569 
Q 847 1681 609 1914 
Q 372 2147 372 2553 
Q 372 3047 722 3315 
Q 1072 3584 1716 3584 
Q 2034 3584 2315 3537 
Q 2597 3491 2834 3397 
z
" transform="scale(0.015625)"/>
      <path id="DejaVuSans-54" d="M -19 4666 
L 3928 4666 
L 3928 4134 
L 2272 4134 
L 2272 0 
L 1638 0 
L 1638 4134 
L -19 4134 
L -19 4666 
z
" transform="scale(0.015625)"/>
      <path id="DejaVuSans-79" d="M 2059 -325 
Q 1816 -950 1584 -1140 
Q 1353 -1331 966 -1331 
L 506 -1331 
L 506 -850 
L 844 -850 
Q 1081 -850 1212 -737 
Q 1344 -625 1503 -206 
L 1606 56 
L 191 3500 
L 800 3500 
L 1894 763 
L 2988 3500 
L 3597 3500 
L 2059 -325 
z
" transform="scale(0.015625)"/>
      <path id="DejaVuSans-33" d="M 2597 2516 
Q 3050 2419 3304 2112 
Q 3559 1806 3559 1356 
Q 3559 666 3084 287 
Q 2609 -91 1734 -91 
Q 1441 -91 1130 -33 
Q 819 25 488 141 
L 488 750 
Q 750 597 1062 519 
Q 1375 441 1716 441 
Q 2309 441 2620 675 
Q 2931 909 2931 1356 
Q 2931 1769 2642 2001 
Q 2353 2234 1838 2234 
L 1294 2234 
L 1294 2753 
L 1863 2753 
Q 2328 2753 2575 2939 
Q 2822 3125 2822 3475 
Q 2822 3834 2567 4026 
Q 2313 4219 1838 4219 
Q 1578 4219 1281 4162 
Q 984 4106 628 3988 
L 628 4550 
Q 988 4650 1302 4700 
Q 1616 4750 1894 4750 
Q 2613 4750 3031 4423 
Q 3450 4097 3450 3541 
Q 3450 3153 3228 2886 
Q 3006 2619 2597 2516 
z
" transform="scale(0.015625)"/>
      <path id="DejaVuSans-b1" d="M 2944 4013 
L 2944 2803 
L 4684 2803 
L 4684 2272 
L 2944 2272 
L 2944 1063 
L 2419 1063 
L 2419 2272 
L 678 2272 
L 678 2803 
L 2419 2803 
L 2419 4013 
L 2944 4013 
z
M 678 531 
L 4684 531 
L 4684 0 
L 678 0 
L 678 531 
z
" transform="scale(0.015625)"/>
     </defs>
     <use xlink:href="#DejaVuSans-53"/>
     <use xlink:href="#DejaVuSans-6c" transform="translate(63.476562 0)"/>
     <use xlink:href="#DejaVuSans-6f" transform="translate(91.259766 0)"/>
     <use xlink:href="#DejaVuSans-70" transform="translate(152.441406 0)"/>
     <use xlink:href="#DejaVuSans-65" transform="translate(215.917969 0)"/>
     <use xlink:href="#DejaVuSans-20" transform="translate(277.441406 0)"/>
     <use xlink:href="#DejaVuSans-28" transform="translate(309.228516 0)"/>
     <use xlink:href="#DejaVuSans-6e" transform="translate(348.242188 0)"/>
     <use xlink:href="#DejaVuSans-6f" transform="translate(411.621094 0)"/>
     <use xlink:href="#DejaVuSans-6e" transform="translate(472.802734 0)"/>
     <use xlink:href="#DejaVuSans-2d" transform="translate(536.181641 0)"/>
     <use xlink:href="#DejaVuSans-73" transform="translate(572.265625 0)"/>
     <use xlink:href="#DejaVuSans-63" transform="translate(624.365234 0)"/>
     <use xlink:href="#DejaVuSans-61" transform="translate(679.345703 0)"/>
     <use xlink:href="#DejaVuSans-6c" transform="translate(740.625 0)"/>
     <use xlink:href="#DejaVuSans-65" transform="translate(768.408203 0)"/>
     <use xlink:href="#DejaVuSans-64" transform="translate(829.931641 0)"/>
     <use xlink:href="#DejaVuSans-20" transform="translate(893.408203 0)"/>
     <use xlink:href="#DejaVuSans-74" transform="translate(925.195312 0)"/>
     <use xlink:href="#DejaVuSans-54" transform="translate(964.404297 0)"/>
     <use xlink:href="#DejaVuSans-20" transform="translate(1025.488281 0)"/>
     <use xlink:href="#DejaVuSans-61" transform="translate(1057.275391 0)"/>
     <use xlink:href="#DejaVuSans-6e" transform="translate(1118.554688 0)"/>
     <use xlink:href="#DejaVuSans-64" transform="translate(1181.933594 0)"/>
     <use xlink:href="#DejaVuSans-20" transform="translate(1245.410156 0)"/>
     <use xlink:href="#DejaVuSans-79" transform="translate(1277.197266 0)"/>
     <use xlink:href="#DejaVuSans-29" transform="translate(1336.376953 0)"/>
     <use xlink:href="#DejaVuSans-3a" transform="translate(1375.390625 0)"/>
     <use xlink:href="#DejaVuSans-20" transform="translate(1409.082031 0)"/>
     <use xlink:href="#DejaVuSans-32" transform="translate(1440.869141 0)"/>
     <use xlink:href="#DejaVuSans-2e" transform="translate(1504.492188 0)"/>
     <use xlink:href="#DejaVuSans-39" transform="translate(1536.279297 0)"/>
     <use xlink:href="#DejaVuSans-31" transform="translate(1599.902344 0)"/>
     <use xlink:href="#DejaVuSans-33" transform="translate(1663.525391 0)"/>
     <use xlink:href="#DejaVuSans-65" transform="translate(1727.148438 0)"/>
     <use xlink:href="#DejaVuSans-2d" transform="translate(1788.671875 0)"/>
     <use xlink:href="#DejaVuSans-30" transform="translate(1824.755859 0)"/>
     <use xlink:href="#DejaVuSans-34" transform="translate(1888.378906 0)"/>
     <use xlink:href="#DejaVuSans-20" transform="translate(1952.001953 0)"/>
     <use xlink:href="#DejaVuSans-b1" transform="translate(1983.789062 0)"/>
     <use xlink:href="#DejaVuSans-20" transform="translate(2067.578125 0)"/>
     <use xlink:href="#DejaVuSans-31" transform="translate(2099.365234 0)"/>
     <use xlink:href="#DejaVuSans-2e" transform="translate(2162.988281 0)"/>
     <use xlink:href="#DejaVuSans-36" transform="translate(2194.775391 0)"/>
     <use xlink:href="#DejaVuSans-37" transform="translate(2258.398438 0)"/>
     <use xlink:href="#DejaVuSans-65" transform="translate(2322.021484 0)"/>
     <use xlink:href="#DejaVuSans-2d" transform="translate(2383.544922 0)"/>
     <use xlink:href="#DejaVuSans-30" transform="translate(2419.628906 0)"/>
     <use xlink:href="#DejaVuSans-36" transform="translate(2483.251953 0)"/>
    </g>
   </g>
   <g id="legend_1">
    <g id="patch_7">
     <path d="M 50.78125 109.906562 
L 133.617188 109.906562 
Q 135.617188 109.906562 135.617188 107.906562 
L 135.617188 50.194062 
Q 135.617188 48.194062 133.617188 48.194062 
L 50.78125 48.194062 
Q 48.78125 48.194062 48.78125 50.194062 
L 48.78125 107.906562 
Q 48.78125 109.906562 50.78125 109.906562 
z
" style="fill: #ffffff; opacity: 0.8; stroke: #cccccc; stroke-linejoin: miter"/>
    </g>
    <g id="line2d_17">
     <path d="M 52.78125 56.2925 
L 62.78125 56.2925 
L 72.78125 56.2925 
" style="fill: none; stroke: #1f77b4; stroke-width: 0.7; stroke-linecap: square"/>
     <g>
      <use xlink:href="#m0289274592" x="62.78125" y="56.2925" style="fill: #1f77b4; stroke: #1f77b4"/>
     </g>
    </g>
    <g id="text_16">
     <!-- Addition 1 -->
     <g transform="translate(80.78125 59.7925) scale(0.1 -0.1)">
      <defs>
       <path id="DejaVuSans-41" d="M 2188 4044 
L 1331 1722 
L 3047 1722 
L 2188 4044 
z
M 1831 4666 
L 2547 4666 
L 4325 0 
L 3669 0 
L 3244 1197 
L 1141 1197 
L 716 0 
L 50 0 
L 1831 4666 
z
" transform="scale(0.015625)"/>
      </defs>
      <use xlink:href="#DejaVuSans-41"/>
      <use xlink:href="#DejaVuSans-64" transform="translate(66.658203 0)"/>
      <use xlink:href="#DejaVuSans-64" transform="translate(130.134766 0)"/>
      <use xlink:href="#DejaVuSans-69" transform="translate(193.611328 0)"/>
      <use xlink:href="#DejaVuSans-74" transform="translate(221.394531 0)"/>
      <use xlink:href="#DejaVuSans-69" transform="translate(260.603516 0)"/>
      <use xlink:href="#DejaVuSans-6f" transform="translate(288.386719 0)"/>
      <use xlink:href="#DejaVuSans-6e" transform="translate(349.568359 0)"/>
      <use xlink:href="#DejaVuSans-20" transform="translate(412.947266 0)"/>
      <use xlink:href="#DejaVuSans-31" transform="translate(444.734375 0)"/>
     </g>
    </g>
    <g id="line2d_18">
     <path d="M 52.78125 70.970625 
L 62.78125 70.970625 
L 72.78125 70.970625 
" style="fill: none; stroke: #ff7f0e; stroke-width: 0.7; stroke-linecap: square"/>
     <g>
      <use xlink:href="#m2e273cda94" x="62.78125" y="70.970625" style="fill: #ff7f0e; stroke: #ff7f0e"/>
     </g>
    </g>
    <g id="text_17">
     <!-- Addition 2 -->
     <g transform="translate(80.78125 74.470625) scale(0.1 -0.1)">
      <use xlink:href="#DejaVuSans-41"/>
      <use xlink:href="#DejaVuSans-64" transform="translate(66.658203 0)"/>
      <use xlink:href="#DejaVuSans-64" transform="translate(130.134766 0)"/>
      <use xlink:href="#DejaVuSans-69" transform="translate(193.611328 0)"/>
      <use xlink:href="#DejaVuSans-74" transform="translate(221.394531 0)"/>
      <use xlink:href="#DejaVuSans-69" transform="translate(260.603516 0)"/>
      <use xlink:href="#DejaVuSans-6f" transform="translate(288.386719 0)"/>
      <use xlink:href="#DejaVuSans-6e" transform="translate(349.568359 0)"/>
      <use xlink:href="#DejaVuSans-20" transform="translate(412.947266 0)"/>
      <use xlink:href="#DejaVuSans-32" transform="translate(444.734375 0)"/>
     </g>
    </g>
    <g id="line2d_19">
     <path d="M 52.78125 85.64875 
L 62.78125 85.64875 
L 72.78125 85.64875 
" style="fill: none; stroke: #2ca02c; stroke-width: 0.7; stroke-linecap: square"/>
     <g>
      <use xlink:href="#m20e86ee86c" x="62.78125" y="85.64875" style="fill: #2ca02c; stroke: #2ca02c"/>
     </g>
    </g>
    <g id="text_18">
     <!-- Addition 3 -->
     <g transform="translate(80.78125 89.14875) scale(0.1 -0.1)">
      <use xlink:href="#DejaVuSans-41"/>
      <use xlink:href="#DejaVuSans-64" transform="translate(66.658203 0)"/>
      <use xlink:href="#DejaVuSans-64" transform="translate(130.134766 0)"/>
      <use xlink:href="#DejaVuSans-69" transform="translate(193.611328 0)"/>
      <use xlink:href="#DejaVuSans-74" transform="translate(221.394531 0)"/>
      <use xlink:href="#DejaVuSans-69" transform="translate(260.603516 0)"/>
      <use xlink:href="#DejaVuSans-6f" transform="translate(288.386719 0)"/>
      <use xlink:href="#DejaVuSans-6e" transform="translate(349.568359 0)"/>
      <use xlink:href="#DejaVuSans-20" transform="translate(412.947266 0)"/>
      <use xlink:href="#DejaVuSans-33" transform="translate(444.734375 0)"/>
     </g>
    </g>
    <g id="line2d_20">
     <path d="M 52.78125 100.326875 
L 62.78125 100.326875 
L 72.78125 100.326875 
" style="fill: none; stroke: #d62728; stroke-width: 0.7; stroke-linecap: square"/>
     <g>
      <use xlink:href="#maebd240f7f" x="62.78125" y="100.326875" style="fill: #d62728; stroke: #d62728"/>
     </g>
    </g>
    <g id="text_19">
     <!-- Addition 4 -->
     <g transform="translate(80.78125 103.826875) scale(0.1 -0.1)">
      <use xlink:href="#DejaVuSans-41"/>
      <use xlink:href="#DejaVuSans-64" transform="translate(66.658203 0)"/>
      <use xlink:href="#DejaVuSans-64" transform="translate(130.134766 0)"/>
      <use xlink:href="#DejaVuSans-69" transform="translate(193.611328 0)"/>
      <use xlink:href="#DejaVuSans-74" transform="translate(221.394531 0)"/>
      <use xlink:href="#DejaVuSans-69" transform="translate(260.603516 0)"/>
      <use xlink:href="#DejaVuSans-6f" transform="translate(288.386719 0)"/>
      <use xlink:href="#DejaVuSans-6e" transform="translate(349.568359 0)"/>
      <use xlink:href="#DejaVuSans-20" transform="translate(412.947266 0)"/>
      <use xlink:href="#DejaVuSans-34" transform="translate(444.734375 0)"/>
     </g>
    </g>
   </g>
   <g id="legend_2">
    <g id="patch_8">
     <path d="M 105.060156 185.650062 
L 205.502344 185.650062 
Q 207.502344 185.650062 207.502344 183.650062 
L 207.502344 158.774125 
Q 207.502344 156.774125 205.502344 156.774125 
L 105.060156 156.774125 
Q 103.060156 156.774125 103.060156 158.774125 
L 103.060156 183.650062 
Q 103.060156 185.650062 105.060156 185.650062 
z
" style="fill: #ffffff; opacity: 0.8; stroke: #cccccc; stroke-linejoin: miter"/>
    </g>
    <g id="line2d_21">
     <path d="M 107.060156 171.511312 
L 117.060156 171.511312 
L 127.060156 171.511312 
" style="fill: none; stroke-dasharray: 1.5,2.475; stroke-dashoffset: 0; stroke: #000000; stroke-width: 1.5"/>
    </g>
    <g id="text_20">
     <!-- 1. order -->
     <g transform="translate(135.060156 168.372562) scale(0.1 -0.1)">
      <use xlink:href="#DejaVuSans-31"/>
      <use xlink:href="#DejaVuSans-2e" transform="translate(63.623047 0)"/>
      <use xlink:href="#DejaVuSans-20" transform="translate(95.410156 0)"/>
      <use xlink:href="#DejaVuSans-6f" transform="translate(127.197266 0)"/>
      <use xlink:href="#DejaVuSans-72" transform="translate(188.378906 0)"/>
      <use xlink:href="#DejaVuSans-64" transform="translate(227.742188 0)"/>
      <use xlink:href="#DejaVuSans-65" transform="translate(291.21875 0)"/>
      <use xlink:href="#DejaVuSans-72" transform="translate(352.742188 0)"/>
     </g>
     <!-- polynomial fit -->
     <g transform="translate(135.060156 179.570375) scale(0.1 -0.1)">
      <defs>
       <path id="DejaVuSans-6d" d="M 3328 2828 
Q 3544 3216 3844 3400 
Q 4144 3584 4550 3584 
Q 5097 3584 5394 3201 
Q 5691 2819 5691 2113 
L 5691 0 
L 5113 0 
L 5113 2094 
Q 5113 2597 4934 2840 
Q 4756 3084 4391 3084 
Q 3944 3084 3684 2787 
Q 3425 2491 3425 1978 
L 3425 0 
L 2847 0 
L 2847 2094 
Q 2847 2600 2669 2842 
Q 2491 3084 2119 3084 
Q 1678 3084 1418 2786 
Q 1159 2488 1159 1978 
L 1159 0 
L 581 0 
L 581 3500 
L 1159 3500 
L 1159 2956 
Q 1356 3278 1631 3431 
Q 1906 3584 2284 3584 
Q 2666 3584 2933 3390 
Q 3200 3197 3328 2828 
z
" transform="scale(0.015625)"/>
      </defs>
      <use xlink:href="#DejaVuSans-70"/>
      <use xlink:href="#DejaVuSans-6f" transform="translate(63.476562 0)"/>
      <use xlink:href="#DejaVuSans-6c" transform="translate(124.658203 0)"/>
      <use xlink:href="#DejaVuSans-79" transform="translate(152.441406 0)"/>
      <use xlink:href="#DejaVuSans-6e" transform="translate(211.621094 0)"/>
      <use xlink:href="#DejaVuSans-6f" transform="translate(275 0)"/>
      <use xlink:href="#DejaVuSans-6d" transform="translate(336.181641 0)"/>
      <use xlink:href="#DejaVuSans-69" transform="translate(433.59375 0)"/>
      <use xlink:href="#DejaVuSans-61" transform="translate(461.376953 0)"/>
      <use xlink:href="#DejaVuSans-6c" transform="translate(522.65625 0)"/>
      <use xlink:href="#DejaVuSans-20" transform="translate(550.439453 0)"/>
      <use xlink:href="#DejaVuSans-66" transform="translate(582.226562 0)"/>
      <use xlink:href="#DejaVuSans-69" transform="translate(617.431641 0)"/>
      <use xlink:href="#DejaVuSans-74" transform="translate(645.214844 0)"/>
     </g>
    </g>
   </g>
  </g>
 </g>
 <defs>
  <clipPath id="p022c545bba">
   <rect x="43.78125" y="43.194062" width="223" height="147.456"/>
  </clipPath>
 </defs>
</svg>
