<?xml version="1.0" encoding="utf-8" standalone="no"?>
<!DOCTYPE svg PUBLIC "-//W3C//DTD SVG 1.1//EN"
  "http://www.w3.org/Graphics/SVG/1.1/DTD/svg11.dtd">
<svg xmlns:xlink="http://www.w3.org/1999/xlink" width="357.7633pt" height="213.544562pt" viewBox="0 0 357.7633 213.544562" xmlns="http://www.w3.org/2000/svg" version="1.1">
 <metadata>
  <rdf:RDF xmlns:dc="http://purl.org/dc/elements/1.1/" xmlns:cc="http://creativecommons.org/ns#" xmlns:rdf="http://www.w3.org/1999/02/22-rdf-syntax-ns#">
   <cc:Work>
    <dc:type rdf:resource="http://purl.org/dc/dcmitype/StillImage"/>
    <dc:date>2026-01-13T17:36:51.306997</dc:date>
    <dc:format>image/svg+xml</dc:format>
    <dc:creator>
     <cc:Agent>
      <dc:title>Matplotlib v3.10.0, https://matplotlib.org/</dc:title>
     </cc:Agent>
    </dc:creator>
   </cc:Work>
  </rdf:RDF>
 </metadata>
 <defs>
  <style type="text/css">*{stroke-linejoin: round; stroke-linecap: butt}</style>
 </defs>
 <g id="figure_1">
  <g id="patch_1">
   <path d="M 0 213.544562 
L 357.7633 213.544562 
L 357.7633 0 
L 0 0 
z
" style="fill: #ffffff"/>
  </g>
  <g id="axes_1">
   <g id="patch_2">
    <path d="M 46.965625 175.166437 
L 268.846113 175.166437 
L 268.846113 20.798438 
L 46.965625 20.798438 
z
" style="fill: #ffffff"/>
   </g>
   <g id="matplotlib.axis_1">
    <g id="xtick_1">
     <g id="line2d_1">
      <defs>
       <path id="m01d52ddfd9" d="M 0 0 
L 0 3.5 
" style="stroke: #000000; stroke-width: 0.8"/>
      </defs>
      <g>
       <use xlink:href="#m01d52ddfd9" x="46.965625" y="175.166437" style="stroke: #000000; stroke-width: 0.8"/>
      </g>
     </g>
     <g id="text_1">
      <!-- 0 -->
      <g transform="translate(43.784375 189.764875) scale(0.1 -0.1)">
       <defs>
        <path id="DejaVuSans-30" d="M 2034 4250 
Q 1547 4250 1301 3770 
Q 1056 3291 1056 2328 
Q 1056 1369 1301 889 
Q 1547 409 2034 409 
Q 2525 409 2770 889 
Q 3016 1369 3016 2328 
Q 3016 3291 2770 3770 
Q 2525 4250 2034 4250 
z
M 2034 4750 
Q 2819 4750 3233 4129 
Q 3647 3509 3647 2328 
Q 3647 1150 3233 529 
Q 2819 -91 2034 -91 
Q 1250 -91 836 529 
Q 422 1150 422 2328 
Q 422 3509 836 4129 
Q 1250 4750 2034 4750 
z
" transform="scale(0.015625)"/>
       </defs>
       <use xlink:href="#DejaVuSans-30"/>
      </g>
     </g>
    </g>
    <g id="xtick_2">
     <g id="line2d_2">
      <g>
       <use xlink:href="#m01d52ddfd9" x="98.184648" y="175.166437" style="stroke: #000000; stroke-width: 0.8"/>
      </g>
     </g>
     <g id="text_2">
      <!-- 2 -->
      <g transform="translate(95.003398 189.764875) scale(0.1 -0.1)">
       <defs>
        <path id="DejaVuSans-32" d="M 1228 531 
L 3431 531 
L 3431 0 
L 469 0 
L 469 531 
Q 828 903 1448 1529 
Q 2069 2156 2228 2338 
Q 2531 2678 2651 2914 
Q 2772 3150 2772 3378 
Q 2772 3750 2511 3984 
Q 2250 4219 1831 4219 
Q 1534 4219 1204 4116 
Q 875 4013 500 3803 
L 500 4441 
Q 881 4594 1212 4672 
Q 1544 4750 1819 4750 
Q 2544 4750 2975 4387 
Q 3406 4025 3406 3419 
Q 3406 3131 3298 2873 
Q 3191 2616 2906 2266 
Q 2828 2175 2409 1742 
Q 1991 1309 1228 531 
z
" transform="scale(0.015625)"/>
       </defs>
       <use xlink:href="#DejaVuSans-32"/>
      </g>
     </g>
    </g>
    <g id="xtick_3">
     <g id="line2d_3">
      <g>
       <use xlink:href="#m01d52ddfd9" x="149.403671" y="175.166437" style="stroke: #000000; stroke-width: 0.8"/>
      </g>
     </g>
     <g id="text_3">
      <!-- 4 -->
      <g transform="translate(146.222421 189.764875) scale(0.1 -0.1)">
       <defs>
        <path id="DejaVuSans-34" d="M 2419 4116 
L 825 1625 
L 2419 1625 
L 2419 4116 
z
M 2253 4666 
L 3047 4666 
L 3047 1625 
L 3713 1625 
L 3713 1100 
L 3047 1100 
L 3047 0 
L 2419 0 
L 2419 1100 
L 313 1100 
L 313 1709 
L 2253 4666 
z
" transform="scale(0.015625)"/>
       </defs>
       <use xlink:href="#DejaVuSans-34"/>
      </g>
     </g>
    </g>
    <g id="xtick_4">
     <g id="line2d_4">
      <g>
       <use xlink:href="#m01d52ddfd9" x="200.622694" y="175.166437" style="stroke: #000000; stroke-width: 0.8"/>
      </g>
     </g>
     <g id="text_4">
      <!-- 6 -->
      <g transform="translate(197.441444 189.764875) scale(0.1 -0.1)">
       <defs>
        <path id="DejaVuSans-36" d="M 2113 2584 
Q 1688 2584 1439 2293 
Q 1191 2003 1191 1497 
Q 1191 994 1439 701 
Q 1688 409 2113 409 
Q 2538 409 2786 701 
Q 3034 994 3034 1497 
Q 3034 2003 2786 2293 
Q 2538 2584 2113 2584 
z
M 3366 4563 
L 3366 3988 
Q 3128 4100 2886 4159 
Q 2644 4219 2406 4219 
Q 1781 4219 1451 3797 
Q 1122 3375 1075 2522 
Q 1259 2794 1537 2939 
Q 1816 3084 2150 3084 
Q 2853 3084 3261 2657 
Q 3669 2231 3669 1497 
Q 3669 778 3244 343 
Q 2819 -91 2113 -91 
Q 1303 -91 875 529 
Q 447 1150 447 2328 
Q 447 3434 972 4092 
Q 1497 4750 2381 4750 
Q 2619 4750 2861 4703 
Q 3103 4656 3366 4563 
z
" transform="scale(0.015625)"/>
       </defs>
       <use xlink:href="#DejaVuSans-36"/>
      </g>
     </g>
    </g>
    <g id="xtick_5">
     <g id="line2d_5">
      <g>
       <use xlink:href="#m01d52ddfd9" x="251.841717" y="175.166437" style="stroke: #000000; stroke-width: 0.8"/>
      </g>
     </g>
     <g id="text_5">
      <!-- 8 -->
      <g transform="translate(248.660467 189.764875) scale(0.1 -0.1)">
       <defs>
        <path id="DejaVuSans-38" d="M 2034 2216 
Q 1584 2216 1326 1975 
Q 1069 1734 1069 1313 
Q 1069 891 1326 650 
Q 1584 409 2034 409 
Q 2484 409 2743 651 
Q 3003 894 3003 1313 
Q 3003 1734 2745 1975 
Q 2488 2216 2034 2216 
z
M 1403 2484 
Q 997 2584 770 2862 
Q 544 3141 544 3541 
Q 544 4100 942 4425 
Q 1341 4750 2034 4750 
Q 2731 4750 3128 4425 
Q 3525 4100 3525 3541 
Q 3525 3141 3298 2862 
Q 3072 2584 2669 2484 
Q 3125 2378 3379 2068 
Q 3634 1759 3634 1313 
Q 3634 634 3220 271 
Q 2806 -91 2034 -91 
Q 1263 -91 848 271 
Q 434 634 434 1313 
Q 434 1759 690 2068 
Q 947 2378 1403 2484 
z
M 1172 3481 
Q 1172 3119 1398 2916 
Q 1625 2713 2034 2713 
Q 2441 2713 2670 2916 
Q 2900 3119 2900 3481 
Q 2900 3844 2670 4047 
Q 2441 4250 2034 4250 
Q 1625 4250 1398 4047 
Q 1172 3844 1172 3481 
z
" transform="scale(0.015625)"/>
       </defs>
       <use xlink:href="#DejaVuSans-38"/>
      </g>
     </g>
    </g>
    <g id="text_6">
     <!-- $Σ[Amine]^{0.00}[Phenol]^{0.00}[ArOPh]^{0.00}Δt$. -->
     <g transform="translate(63.705869 204.264875) scale(0.1 -0.1)">
      <defs>
       <path id="DejaVuSans-3a3" d="M 1353 531 
L 3634 531 
L 3634 0 
L 628 0 
L 628 531 
L 2125 2481 
L 628 4134 
L 628 4666 
L 3578 4666 
L 3578 4134 
L 1353 4134 
L 2850 2494 
L 1353 531 
z
" transform="scale(0.015625)"/>
       <path id="DejaVuSans-5b" d="M 550 4863 
L 1875 4863 
L 1875 4416 
L 1125 4416 
L 1125 -397 
L 1875 -397 
L 1875 -844 
L 550 -844 
L 550 4863 
z
" transform="scale(0.015625)"/>
       <path id="DejaVuSans-Oblique-41" d="M 2356 4666 
L 3072 4666 
L 3938 0 
L 3278 0 
L 3084 1197 
L 984 1197 
L 325 0 
L -341 0 
L 2356 4666 
z
M 2584 4044 
L 1275 1722 
L 2988 1722 
L 2584 4044 
z
" transform="scale(0.015625)"/>
       <path id="DejaVuSans-Oblique-6d" d="M 5747 2113 
L 5338 0 
L 4763 0 
L 5166 2094 
Q 5191 2228 5203 2325 
Q 5216 2422 5216 2491 
Q 5216 2772 5059 2928 
Q 4903 3084 4622 3084 
Q 4203 3084 3875 2770 
Q 3547 2456 3450 1953 
L 3066 0 
L 2491 0 
L 2900 2094 
Q 2925 2209 2937 2307 
Q 2950 2406 2950 2484 
Q 2950 2769 2794 2926 
Q 2638 3084 2363 3084 
Q 1938 3084 1609 2770 
Q 1281 2456 1184 1953 
L 800 0 
L 225 0 
L 909 3500 
L 1484 3500 
L 1375 2956 
Q 1609 3263 1923 3423 
Q 2238 3584 2597 3584 
Q 2978 3584 3223 3384 
Q 3469 3184 3519 2828 
Q 3781 3197 4126 3390 
Q 4472 3584 4856 3584 
Q 5306 3584 5551 3325 
Q 5797 3066 5797 2591 
Q 5797 2488 5784 2364 
Q 5772 2241 5747 2113 
z
" transform="scale(0.015625)"/>
       <path id="DejaVuSans-Oblique-69" d="M 1172 4863 
L 1747 4863 
L 1606 4134 
L 1031 4134 
L 1172 4863 
z
M 909 3500 
L 1484 3500 
L 800 0 
L 225 0 
L 909 3500 
z
" transform="scale(0.015625)"/>
       <path id="DejaVuSans-Oblique-6e" d="M 3566 2113 
L 3156 0 
L 2578 0 
L 2988 2091 
Q 3016 2238 3031 2350 
Q 3047 2463 3047 2528 
Q 3047 2791 2881 2937 
Q 2716 3084 2419 3084 
Q 1956 3084 1622 2776 
Q 1288 2469 1184 1941 
L 800 0 
L 225 0 
L 903 3500 
L 1478 3500 
L 1363 2950 
Q 1603 3253 1940 3418 
Q 2278 3584 2650 3584 
Q 3113 3584 3367 3334 
Q 3622 3084 3622 2631 
Q 3622 2519 3608 2391 
Q 3594 2263 3566 2113 
z
" transform="scale(0.015625)"/>
       <path id="DejaVuSans-Oblique-65" d="M 3078 2063 
Q 3088 2113 3092 2166 
Q 3097 2219 3097 2272 
Q 3097 2653 2873 2875 
Q 2650 3097 2266 3097 
Q 1838 3097 1509 2826 
Q 1181 2556 1013 2059 
L 3078 2063 
z
M 3578 1613 
L 903 1613 
Q 884 1494 878 1425 
Q 872 1356 872 1306 
Q 872 872 1139 634 
Q 1406 397 1894 397 
Q 2269 397 2603 481 
Q 2938 566 3225 728 
L 3116 159 
Q 2806 34 2476 -28 
Q 2147 -91 1806 -91 
Q 1078 -91 686 257 
Q 294 606 294 1247 
Q 294 1794 489 2264 
Q 684 2734 1063 3103 
Q 1306 3334 1642 3459 
Q 1978 3584 2356 3584 
Q 2950 3584 3301 3228 
Q 3653 2872 3653 2272 
Q 3653 2128 3634 1964 
Q 3616 1800 3578 1613 
z
" transform="scale(0.015625)"/>
       <path id="DejaVuSans-5d" d="M 1947 4863 
L 1947 -844 
L 622 -844 
L 622 -397 
L 1369 -397 
L 1369 4416 
L 622 4416 
L 622 4863 
L 1947 4863 
z
" transform="scale(0.015625)"/>
       <path id="DejaVuSans-2e" d="M 684 794 
L 1344 794 
L 1344 0 
L 684 0 
L 684 794 
z
" transform="scale(0.015625)"/>
       <path id="DejaVuSans-Oblique-50" d="M 1081 4666 
L 2541 4666 
Q 3178 4666 3512 4369 
Q 3847 4072 3847 3500 
Q 3847 2731 3353 2303 
Q 2859 1875 1966 1875 
L 1172 1875 
L 806 0 
L 172 0 
L 1081 4666 
z
M 1613 4147 
L 1275 2394 
L 2069 2394 
Q 2606 2394 2893 2669 
Q 3181 2944 3181 3456 
Q 3181 3784 2986 3965 
Q 2791 4147 2438 4147 
L 1613 4147 
z
" transform="scale(0.015625)"/>
       <path id="DejaVuSans-Oblique-68" d="M 3566 2113 
L 3156 0 
L 2578 0 
L 2988 2091 
Q 3016 2238 3031 2350 
Q 3047 2463 3047 2528 
Q 3047 2791 2881 2937 
Q 2716 3084 2419 3084 
Q 1956 3084 1617 2771 
Q 1278 2459 1178 1941 
L 800 0 
L 225 0 
L 1172 4863 
L 1747 4863 
L 1375 2950 
Q 1594 3244 1934 3414 
Q 2275 3584 2650 3584 
Q 3113 3584 3367 3334 
Q 3622 3084 3622 2631 
Q 3622 2519 3608 2391 
Q 3594 2263 3566 2113 
z
" transform="scale(0.015625)"/>
       <path id="DejaVuSans-Oblique-6f" d="M 1625 -91 
Q 1009 -91 651 289 
Q 294 669 294 1325 
Q 294 1706 417 2101 
Q 541 2497 738 2766 
Q 1047 3184 1428 3384 
Q 1809 3584 2291 3584 
Q 2888 3584 3255 3212 
Q 3622 2841 3622 2241 
Q 3622 1825 3500 1412 
Q 3378 1000 3181 728 
Q 2875 309 2494 109 
Q 2113 -91 1625 -91 
z
M 891 1344 
Q 891 869 1089 633 
Q 1288 397 1691 397 
Q 2269 397 2648 901 
Q 3028 1406 3028 2181 
Q 3028 2634 2825 2865 
Q 2622 3097 2228 3097 
Q 1903 3097 1650 2945 
Q 1397 2794 1197 2484 
Q 1050 2253 970 1956 
Q 891 1659 891 1344 
z
" transform="scale(0.015625)"/>
       <path id="DejaVuSans-Oblique-6c" d="M 1172 4863 
L 1747 4863 
L 800 0 
L 225 0 
L 1172 4863 
z
" transform="scale(0.015625)"/>
       <path id="DejaVuSans-Oblique-72" d="M 2853 2969 
Q 2766 3016 2653 3041 
Q 2541 3066 2413 3066 
Q 1953 3066 1609 2717 
Q 1266 2369 1153 1784 
L 800 0 
L 225 0 
L 909 3500 
L 1484 3500 
L 1375 2956 
Q 1603 3259 1920 3421 
Q 2238 3584 2597 3584 
Q 2691 3584 2781 3573 
Q 2872 3563 2963 3538 
L 2853 2969 
z
" transform="scale(0.015625)"/>
       <path id="DejaVuSans-Oblique-4f" d="M 2919 4238 
Q 2400 4238 2003 3986 
Q 1606 3734 1313 3219 
Q 1125 2891 1026 2522 
Q 928 2153 928 1778 
Q 928 1128 1239 775 
Q 1550 422 2119 422 
Q 2631 422 3032 676 
Q 3434 931 3719 1434 
Q 3909 1772 4009 2142 
Q 4109 2513 4109 2881 
Q 4109 3528 3796 3883 
Q 3484 4238 2919 4238 
z
M 2100 -91 
Q 1241 -91 748 418 
Q 256 928 256 1813 
Q 256 2319 448 2847 
Q 641 3375 978 3788 
Q 1375 4272 1862 4511 
Q 2350 4750 2938 4750 
Q 3794 4750 4287 4245 
Q 4781 3741 4781 2869 
Q 4781 2331 4593 1812 
Q 4406 1294 4056 872 
Q 3656 384 3173 146 
Q 2691 -91 2100 -91 
z
" transform="scale(0.015625)"/>
       <path id="DejaVuSans-394" d="M 2188 4044 
L 906 525 
L 3472 525 
L 2188 4044 
z
M 50 0 
L 1831 4666 
L 2547 4666 
L 4325 0 
L 50 0 
z
" transform="scale(0.015625)"/>
       <path id="DejaVuSans-Oblique-74" d="M 2706 3500 
L 2619 3053 
L 1472 3053 
L 1100 1153 
Q 1081 1047 1072 975 
Q 1063 903 1063 863 
Q 1063 663 1183 572 
Q 1303 481 1569 481 
L 2150 481 
L 2053 0 
L 1503 0 
Q 991 0 739 200 
Q 488 400 488 806 
Q 488 878 497 964 
Q 506 1050 525 1153 
L 897 3053 
L 409 3053 
L 500 3500 
L 978 3500 
L 1172 4494 
L 1747 4494 
L 1556 3500 
L 2706 3500 
z
" transform="scale(0.015625)"/>
      </defs>
      <use xlink:href="#DejaVuSans-3a3" transform="translate(0 0.765625)"/>
      <use xlink:href="#DejaVuSans-5b" transform="translate(63.183594 0.765625)"/>
      <use xlink:href="#DejaVuSans-Oblique-41" transform="translate(102.197266 0.765625)"/>
      <use xlink:href="#DejaVuSans-Oblique-6d" transform="translate(170.605469 0.765625)"/>
      <use xlink:href="#DejaVuSans-Oblique-69" transform="translate(268.017578 0.765625)"/>
      <use xlink:href="#DejaVuSans-Oblique-6e" transform="translate(295.800781 0.765625)"/>
      <use xlink:href="#DejaVuSans-Oblique-65" transform="translate(359.179688 0.765625)"/>
      <use xlink:href="#DejaVuSans-5d" transform="translate(420.703125 0.765625)"/>
      <use xlink:href="#DejaVuSans-30" transform="translate(460.673828 39.046875) scale(0.7)"/>
      <use xlink:href="#DejaVuSans-2e" transform="translate(505.209961 39.046875) scale(0.7)"/>
      <use xlink:href="#DejaVuSans-30" transform="translate(527.460938 39.046875) scale(0.7)"/>
      <use xlink:href="#DejaVuSans-30" transform="translate(571.99707 39.046875) scale(0.7)"/>
      <use xlink:href="#DejaVuSans-5b" transform="translate(619.267578 0.765625)"/>
      <use xlink:href="#DejaVuSans-Oblique-50" transform="translate(658.28125 0.765625)"/>
      <use xlink:href="#DejaVuSans-Oblique-68" transform="translate(718.583984 0.765625)"/>
      <use xlink:href="#DejaVuSans-Oblique-65" transform="translate(781.962891 0.765625)"/>
      <use xlink:href="#DejaVuSans-Oblique-6e" transform="translate(843.486328 0.765625)"/>
      <use xlink:href="#DejaVuSans-Oblique-6f" transform="translate(906.865234 0.765625)"/>
      <use xlink:href="#DejaVuSans-Oblique-6c" transform="translate(968.046875 0.765625)"/>
      <use xlink:href="#DejaVuSans-5d" transform="translate(995.830078 0.765625)"/>
      <use xlink:href="#DejaVuSans-30" transform="translate(1035.800781 39.046875) scale(0.7)"/>
      <use xlink:href="#DejaVuSans-2e" transform="translate(1080.336914 39.046875) scale(0.7)"/>
      <use xlink:href="#DejaVuSans-30" transform="translate(1102.587891 39.046875) scale(0.7)"/>
      <use xlink:href="#DejaVuSans-30" transform="translate(1147.124023 39.046875) scale(0.7)"/>
      <use xlink:href="#DejaVuSans-5b" transform="translate(1194.394531 0.765625)"/>
      <use xlink:href="#DejaVuSans-Oblique-41" transform="translate(1233.408203 0.765625)"/>
      <use xlink:href="#DejaVuSans-Oblique-72" transform="translate(1301.816406 0.765625)"/>
      <use xlink:href="#DejaVuSans-Oblique-4f" transform="translate(1342.929688 0.765625)"/>
      <use xlink:href="#DejaVuSans-Oblique-50" transform="translate(1421.640625 0.765625)"/>
      <use xlink:href="#DejaVuSans-Oblique-68" transform="translate(1481.943359 0.765625)"/>
      <use xlink:href="#DejaVuSans-5d" transform="translate(1545.322266 0.765625)"/>
      <use xlink:href="#DejaVuSans-30" transform="translate(1585.292969 39.046875) scale(0.7)"/>
      <use xlink:href="#DejaVuSans-2e" transform="translate(1629.829102 39.046875) scale(0.7)"/>
      <use xlink:href="#DejaVuSans-30" transform="translate(1652.080078 39.046875) scale(0.7)"/>
      <use xlink:href="#DejaVuSans-30" transform="translate(1696.616211 39.046875) scale(0.7)"/>
      <use xlink:href="#DejaVuSans-394" transform="translate(1743.886719 0.765625)"/>
      <use xlink:href="#DejaVuSans-Oblique-74" transform="translate(1812.294922 0.765625)"/>
      <use xlink:href="#DejaVuSans-2e" transform="translate(1851.503906 0.765625)"/>
     </g>
    </g>
   </g>
   <g id="matplotlib.axis_2">
    <g id="ytick_1">
     <g id="line2d_6">
      <defs>
       <path id="ma981c93fd5" d="M 0 0 
L -3.5 0 
" style="stroke: #000000; stroke-width: 0.8"/>
      </defs>
      <g>
       <use xlink:href="#ma981c93fd5" x="46.965625" y="161.051928" style="stroke: #000000; stroke-width: 0.8"/>
      </g>
     </g>
     <g id="text_7">
      <!-- 100 -->
      <g transform="translate(20.878125 164.851147) scale(0.1 -0.1)">
       <defs>
        <path id="DejaVuSans-31" d="M 794 531 
L 1825 531 
L 1825 4091 
L 703 3866 
L 703 4441 
L 1819 4666 
L 2450 4666 
L 2450 531 
L 3481 531 
L 3481 0 
L 794 0 
L 794 531 
z
" transform="scale(0.015625)"/>
       </defs>
       <use xlink:href="#DejaVuSans-31"/>
       <use xlink:href="#DejaVuSans-30" transform="translate(63.623047 0)"/>
       <use xlink:href="#DejaVuSans-30" transform="translate(127.246094 0)"/>
      </g>
     </g>
    </g>
    <g id="ytick_2">
     <g id="line2d_7">
      <g>
       <use xlink:href="#ma981c93fd5" x="46.965625" y="133.494161" style="stroke: #000000; stroke-width: 0.8"/>
      </g>
     </g>
     <g id="text_8">
      <!-- 110 -->
      <g transform="translate(20.878125 137.293379) scale(0.1 -0.1)">
       <use xlink:href="#DejaVuSans-31"/>
       <use xlink:href="#DejaVuSans-31" transform="translate(63.623047 0)"/>
       <use xlink:href="#DejaVuSans-30" transform="translate(127.246094 0)"/>
      </g>
     </g>
    </g>
    <g id="ytick_3">
     <g id="line2d_8">
      <g>
       <use xlink:href="#ma981c93fd5" x="46.965625" y="105.936393" style="stroke: #000000; stroke-width: 0.8"/>
      </g>
     </g>
     <g id="text_9">
      <!-- 120 -->
      <g transform="translate(20.878125 109.735612) scale(0.1 -0.1)">
       <use xlink:href="#DejaVuSans-31"/>
       <use xlink:href="#DejaVuSans-32" transform="translate(63.623047 0)"/>
       <use xlink:href="#DejaVuSans-30" transform="translate(127.246094 0)"/>
      </g>
     </g>
    </g>
    <g id="ytick_4">
     <g id="line2d_9">
      <g>
       <use xlink:href="#ma981c93fd5" x="46.965625" y="78.378625" style="stroke: #000000; stroke-width: 0.8"/>
      </g>
     </g>
     <g id="text_10">
      <!-- 130 -->
      <g transform="translate(20.878125 82.177844) scale(0.1 -0.1)">
       <defs>
        <path id="DejaVuSans-33" d="M 2597 2516 
Q 3050 2419 3304 2112 
Q 3559 1806 3559 1356 
Q 3559 666 3084 287 
Q 2609 -91 1734 -91 
Q 1441 -91 1130 -33 
Q 819 25 488 141 
L 488 750 
Q 750 597 1062 519 
Q 1375 441 1716 441 
Q 2309 441 2620 675 
Q 2931 909 2931 1356 
Q 2931 1769 2642 2001 
Q 2353 2234 1838 2234 
L 1294 2234 
L 1294 2753 
L 1863 2753 
Q 2328 2753 2575 2939 
Q 2822 3125 2822 3475 
Q 2822 3834 2567 4026 
Q 2313 4219 1838 4219 
Q 1578 4219 1281 4162 
Q 984 4106 628 3988 
L 628 4550 
Q 988 4650 1302 4700 
Q 1616 4750 1894 4750 
Q 2613 4750 3031 4423 
Q 3450 4097 3450 3541 
Q 3450 3153 3228 2886 
Q 3006 2619 2597 2516 
z
" transform="scale(0.015625)"/>
       </defs>
       <use xlink:href="#DejaVuSans-31"/>
       <use xlink:href="#DejaVuSans-33" transform="translate(63.623047 0)"/>
       <use xlink:href="#DejaVuSans-30" transform="translate(127.246094 0)"/>
      </g>
     </g>
    </g>
    <g id="ytick_5">
     <g id="line2d_10">
      <g>
       <use xlink:href="#ma981c93fd5" x="46.965625" y="50.820857" style="stroke: #000000; stroke-width: 0.8"/>
      </g>
     </g>
     <g id="text_11">
      <!-- 140 -->
      <g transform="translate(20.878125 54.620076) scale(0.1 -0.1)">
       <use xlink:href="#DejaVuSans-31"/>
       <use xlink:href="#DejaVuSans-34" transform="translate(63.623047 0)"/>
       <use xlink:href="#DejaVuSans-30" transform="translate(127.246094 0)"/>
      </g>
     </g>
    </g>
    <g id="ytick_6">
     <g id="line2d_11">
      <g>
       <use xlink:href="#ma981c93fd5" x="46.965625" y="23.263089" style="stroke: #000000; stroke-width: 0.8"/>
      </g>
     </g>
     <g id="text_12">
      <!-- 150 -->
      <g transform="translate(20.878125 27.062308) scale(0.1 -0.1)">
       <defs>
        <path id="DejaVuSans-35" d="M 691 4666 
L 3169 4666 
L 3169 4134 
L 1269 4134 
L 1269 2991 
Q 1406 3038 1543 3061 
Q 1681 3084 1819 3084 
Q 2600 3084 3056 2656 
Q 3513 2228 3513 1497 
Q 3513 744 3044 326 
Q 2575 -91 1722 -91 
Q 1428 -91 1123 -41 
Q 819 9 494 109 
L 494 744 
Q 775 591 1075 516 
Q 1375 441 1709 441 
Q 2250 441 2565 725 
Q 2881 1009 2881 1497 
Q 2881 1984 2565 2268 
Q 2250 2553 1709 2553 
Q 1456 2553 1204 2497 
Q 953 2441 691 2322 
L 691 4666 
z
" transform="scale(0.015625)"/>
       </defs>
       <use xlink:href="#DejaVuSans-31"/>
       <use xlink:href="#DejaVuSans-35" transform="translate(63.623047 0)"/>
       <use xlink:href="#DejaVuSans-30" transform="translate(127.246094 0)"/>
      </g>
     </g>
    </g>
    <g id="text_13">
     <!-- Shifted [Product] / mM -->
     <g transform="translate(14.798438 154.117594) rotate(-90) scale(0.1 -0.1)">
      <defs>
       <path id="DejaVuSans-53" d="M 3425 4513 
L 3425 3897 
Q 3066 4069 2747 4153 
Q 2428 4238 2131 4238 
Q 1616 4238 1336 4038 
Q 1056 3838 1056 3469 
Q 1056 3159 1242 3001 
Q 1428 2844 1947 2747 
L 2328 2669 
Q 3034 2534 3370 2195 
Q 3706 1856 3706 1288 
Q 3706 609 3251 259 
Q 2797 -91 1919 -91 
Q 1588 -91 1214 -16 
Q 841 59 441 206 
L 441 856 
Q 825 641 1194 531 
Q 1563 422 1919 422 
Q 2459 422 2753 634 
Q 3047 847 3047 1241 
Q 3047 1584 2836 1778 
Q 2625 1972 2144 2069 
L 1759 2144 
Q 1053 2284 737 2584 
Q 422 2884 422 3419 
Q 422 4038 858 4394 
Q 1294 4750 2059 4750 
Q 2388 4750 2728 4690 
Q 3069 4631 3425 4513 
z
" transform="scale(0.015625)"/>
       <path id="DejaVuSans-68" d="M 3513 2113 
L 3513 0 
L 2938 0 
L 2938 2094 
Q 2938 2591 2744 2837 
Q 2550 3084 2163 3084 
Q 1697 3084 1428 2787 
Q 1159 2491 1159 1978 
L 1159 0 
L 581 0 
L 581 4863 
L 1159 4863 
L 1159 2956 
Q 1366 3272 1645 3428 
Q 1925 3584 2291 3584 
Q 2894 3584 3203 3211 
Q 3513 2838 3513 2113 
z
" transform="scale(0.015625)"/>
       <path id="DejaVuSans-69" d="M 603 3500 
L 1178 3500 
L 1178 0 
L 603 0 
L 603 3500 
z
M 603 4863 
L 1178 4863 
L 1178 4134 
L 603 4134 
L 603 4863 
z
" transform="scale(0.015625)"/>
       <path id="DejaVuSans-66" d="M 2375 4863 
L 2375 4384 
L 1825 4384 
Q 1516 4384 1395 4259 
Q 1275 4134 1275 3809 
L 1275 3500 
L 2222 3500 
L 2222 3053 
L 1275 3053 
L 1275 0 
L 697 0 
L 697 3053 
L 147 3053 
L 147 3500 
L 697 3500 
L 697 3744 
Q 697 4328 969 4595 
Q 1241 4863 1831 4863 
L 2375 4863 
z
" transform="scale(0.015625)"/>
       <path id="DejaVuSans-74" d="M 1172 4494 
L 1172 3500 
L 2356 3500 
L 2356 3053 
L 1172 3053 
L 1172 1153 
Q 1172 725 1289 603 
Q 1406 481 1766 481 
L 2356 481 
L 2356 0 
L 1766 0 
Q 1100 0 847 248 
Q 594 497 594 1153 
L 594 3053 
L 172 3053 
L 172 3500 
L 594 3500 
L 594 4494 
L 1172 4494 
z
" transform="scale(0.015625)"/>
       <path id="DejaVuSans-65" d="M 3597 1894 
L 3597 1613 
L 953 1613 
Q 991 1019 1311 708 
Q 1631 397 2203 397 
Q 2534 397 2845 478 
Q 3156 559 3463 722 
L 3463 178 
Q 3153 47 2828 -22 
Q 2503 -91 2169 -91 
Q 1331 -91 842 396 
Q 353 884 353 1716 
Q 353 2575 817 3079 
Q 1281 3584 2069 3584 
Q 2775 3584 3186 3129 
Q 3597 2675 3597 1894 
z
M 3022 2063 
Q 3016 2534 2758 2815 
Q 2500 3097 2075 3097 
Q 1594 3097 1305 2825 
Q 1016 2553 972 2059 
L 3022 2063 
z
" transform="scale(0.015625)"/>
       <path id="DejaVuSans-64" d="M 2906 2969 
L 2906 4863 
L 3481 4863 
L 3481 0 
L 2906 0 
L 2906 525 
Q 2725 213 2448 61 
Q 2172 -91 1784 -91 
Q 1150 -91 751 415 
Q 353 922 353 1747 
Q 353 2572 751 3078 
Q 1150 3584 1784 3584 
Q 2172 3584 2448 3432 
Q 2725 3281 2906 2969 
z
M 947 1747 
Q 947 1113 1208 752 
Q 1469 391 1925 391 
Q 2381 391 2643 752 
Q 2906 1113 2906 1747 
Q 2906 2381 2643 2742 
Q 2381 3103 1925 3103 
Q 1469 3103 1208 2742 
Q 947 2381 947 1747 
z
" transform="scale(0.015625)"/>
       <path id="DejaVuSans-20" transform="scale(0.015625)"/>
       <path id="DejaVuSans-50" d="M 1259 4147 
L 1259 2394 
L 2053 2394 
Q 2494 2394 2734 2622 
Q 2975 2850 2975 3272 
Q 2975 3691 2734 3919 
Q 2494 4147 2053 4147 
L 1259 4147 
z
M 628 4666 
L 2053 4666 
Q 2838 4666 3239 4311 
Q 3641 3956 3641 3272 
Q 3641 2581 3239 2228 
Q 2838 1875 2053 1875 
L 1259 1875 
L 1259 0 
L 628 0 
L 628 4666 
z
" transform="scale(0.015625)"/>
       <path id="DejaVuSans-72" d="M 2631 2963 
Q 2534 3019 2420 3045 
Q 2306 3072 2169 3072 
Q 1681 3072 1420 2755 
Q 1159 2438 1159 1844 
L 1159 0 
L 581 0 
L 581 3500 
L 1159 3500 
L 1159 2956 
Q 1341 3275 1631 3429 
Q 1922 3584 2338 3584 
Q 2397 3584 2469 3576 
Q 2541 3569 2628 3553 
L 2631 2963 
z
" transform="scale(0.015625)"/>
       <path id="DejaVuSans-6f" d="M 1959 3097 
Q 1497 3097 1228 2736 
Q 959 2375 959 1747 
Q 959 1119 1226 758 
Q 1494 397 1959 397 
Q 2419 397 2687 759 
Q 2956 1122 2956 1747 
Q 2956 2369 2687 2733 
Q 2419 3097 1959 3097 
z
M 1959 3584 
Q 2709 3584 3137 3096 
Q 3566 2609 3566 1747 
Q 3566 888 3137 398 
Q 2709 -91 1959 -91 
Q 1206 -91 779 398 
Q 353 888 353 1747 
Q 353 2609 779 3096 
Q 1206 3584 1959 3584 
z
" transform="scale(0.015625)"/>
       <path id="DejaVuSans-75" d="M 544 1381 
L 544 3500 
L 1119 3500 
L 1119 1403 
Q 1119 906 1312 657 
Q 1506 409 1894 409 
Q 2359 409 2629 706 
Q 2900 1003 2900 1516 
L 2900 3500 
L 3475 3500 
L 3475 0 
L 2900 0 
L 2900 538 
Q 2691 219 2414 64 
Q 2138 -91 1772 -91 
Q 1169 -91 856 284 
Q 544 659 544 1381 
z
M 1991 3584 
L 1991 3584 
z
" transform="scale(0.015625)"/>
       <path id="DejaVuSans-63" d="M 3122 3366 
L 3122 2828 
Q 2878 2963 2633 3030 
Q 2388 3097 2138 3097 
Q 1578 3097 1268 2742 
Q 959 2388 959 1747 
Q 959 1106 1268 751 
Q 1578 397 2138 397 
Q 2388 397 2633 464 
Q 2878 531 3122 666 
L 3122 134 
Q 2881 22 2623 -34 
Q 2366 -91 2075 -91 
Q 1284 -91 818 406 
Q 353 903 353 1747 
Q 353 2603 823 3093 
Q 1294 3584 2113 3584 
Q 2378 3584 2631 3529 
Q 2884 3475 3122 3366 
z
" transform="scale(0.015625)"/>
       <path id="DejaVuSans-2f" d="M 1625 4666 
L 2156 4666 
L 531 -594 
L 0 -594 
L 1625 4666 
z
" transform="scale(0.015625)"/>
       <path id="DejaVuSans-6d" d="M 3328 2828 
Q 3544 3216 3844 3400 
Q 4144 3584 4550 3584 
Q 5097 3584 5394 3201 
Q 5691 2819 5691 2113 
L 5691 0 
L 5113 0 
L 5113 2094 
Q 5113 2597 4934 2840 
Q 4756 3084 4391 3084 
Q 3944 3084 3684 2787 
Q 3425 2491 3425 1978 
L 3425 0 
L 2847 0 
L 2847 2094 
Q 2847 2600 2669 2842 
Q 2491 3084 2119 3084 
Q 1678 3084 1418 2786 
Q 1159 2488 1159 1978 
L 1159 0 
L 581 0 
L 581 3500 
L 1159 3500 
L 1159 2956 
Q 1356 3278 1631 3431 
Q 1906 3584 2284 3584 
Q 2666 3584 2933 3390 
Q 3200 3197 3328 2828 
z
" transform="scale(0.015625)"/>
       <path id="DejaVuSans-4d" d="M 628 4666 
L 1569 4666 
L 2759 1491 
L 3956 4666 
L 4897 4666 
L 4897 0 
L 4281 0 
L 4281 4097 
L 3078 897 
L 2444 897 
L 1241 4097 
L 1241 0 
L 628 0 
L 628 4666 
z
" transform="scale(0.015625)"/>
      </defs>
      <use xlink:href="#DejaVuSans-53"/>
      <use xlink:href="#DejaVuSans-68" transform="translate(63.476562 0)"/>
      <use xlink:href="#DejaVuSans-69" transform="translate(126.855469 0)"/>
      <use xlink:href="#DejaVuSans-66" transform="translate(154.638672 0)"/>
      <use xlink:href="#DejaVuSans-74" transform="translate(188.09375 0)"/>
      <use xlink:href="#DejaVuSans-65" transform="translate(227.302734 0)"/>
      <use xlink:href="#DejaVuSans-64" transform="translate(288.826172 0)"/>
      <use xlink:href="#DejaVuSans-20" transform="translate(352.302734 0)"/>
      <use xlink:href="#DejaVuSans-5b" transform="translate(384.089844 0)"/>
      <use xlink:href="#DejaVuSans-50" transform="translate(423.103516 0)"/>
      <use xlink:href="#DejaVuSans-72" transform="translate(481.65625 0)"/>
      <use xlink:href="#DejaVuSans-6f" transform="translate(520.519531 0)"/>
      <use xlink:href="#DejaVuSans-64" transform="translate(581.701172 0)"/>
      <use xlink:href="#DejaVuSans-75" transform="translate(645.177734 0)"/>
      <use xlink:href="#DejaVuSans-63" transform="translate(708.556641 0)"/>
      <use xlink:href="#DejaVuSans-74" transform="translate(763.537109 0)"/>
      <use xlink:href="#DejaVuSans-5d" transform="translate(802.746094 0)"/>
      <use xlink:href="#DejaVuSans-20" transform="translate(841.759766 0)"/>
      <use xlink:href="#DejaVuSans-2f" transform="translate(873.546875 0)"/>
      <use xlink:href="#DejaVuSans-20" transform="translate(907.238281 0)"/>
      <use xlink:href="#DejaVuSans-6d" transform="translate(939.025391 0)"/>
      <use xlink:href="#DejaVuSans-4d" transform="translate(1036.4375 0)"/>
     </g>
    </g>
   </g>
   <g id="line2d_12">
    <path d="M 46.965625 166.331343 
L 50.508274 164.002118 
L 57.03998 152.842634 
L 63.383883 144.563695 
L 69.756383 138.025039 
L 76.092176 131.333259 
L 82.614492 126.502313 
L 88.975468 122.418104 
L 95.310834 119.920043 
L 101.83315 116.452862 
L 108.173638 114.234123 
L 114.517968 111.96545 
L 121.056076 108.988854 
L 127.418332 106.623091 
L 133.751564 104.877312 
L 140.279002 103.40586 
L 146.616929 101.354084 
L 152.962966 99.795242 
L 159.522416 98.650592 
L 165.857782 97.675211 
L 172.192722 95.618864 
L 178.718452 94.506785 
L 185.07644 93.424158 
L 191.41138 92.0278 
L 197.964427 90.737745 
L 204.298513 89.36656 
L 210.657354 89.649653 
L 217.181804 87.73559 
L 223.516317 86.2645 
L 229.855525 86.6222 
L 236.210525 85.318288 
L 242.762718 85.404305 
L 249.095951 84.262968 
" clip-path="url(#p956e7d35b1)" style="fill: none; stroke: #1f77b4; stroke-width: 0.7; stroke-linecap: square"/>
    <defs>
     <path id="m0a673be311" d="M 0 0.9 
C 0.238683 0.9 0.467622 0.80517 0.636396 0.636396 
C 0.80517 0.467622 0.9 0.238683 0.9 0 
C 0.9 -0.238683 0.80517 -0.467622 0.636396 -0.636396 
C 0.467622 -0.80517 0.238683 -0.9 0 -0.9 
C -0.238683 -0.9 -0.467622 -0.80517 -0.636396 -0.636396 
C -0.80517 -0.467622 -0.9 -0.238683 -0.9 0 
C -0.9 0.238683 -0.80517 0.467622 -0.636396 0.636396 
C -0.467622 0.80517 -0.238683 0.9 0 0.9 
z
" style="stroke: #1f77b4"/>
    </defs>
    <g clip-path="url(#p956e7d35b1)">
     <use xlink:href="#m0a673be311" x="46.965625" y="166.331343" style="fill: #1f77b4; stroke: #1f77b4"/>
     <use xlink:href="#m0a673be311" x="50.508274" y="164.002118" style="fill: #1f77b4; stroke: #1f77b4"/>
     <use xlink:href="#m0a673be311" x="57.03998" y="152.842634" style="fill: #1f77b4; stroke: #1f77b4"/>
     <use xlink:href="#m0a673be311" x="63.383883" y="144.563695" style="fill: #1f77b4; stroke: #1f77b4"/>
     <use xlink:href="#m0a673be311" x="69.756383" y="138.025039" style="fill: #1f77b4; stroke: #1f77b4"/>
     <use xlink:href="#m0a673be311" x="76.092176" y="131.333259" style="fill: #1f77b4; stroke: #1f77b4"/>
     <use xlink:href="#m0a673be311" x="82.614492" y="126.502313" style="fill: #1f77b4; stroke: #1f77b4"/>
     <use xlink:href="#m0a673be311" x="88.975468" y="122.418104" style="fill: #1f77b4; stroke: #1f77b4"/>
     <use xlink:href="#m0a673be311" x="95.310834" y="119.920043" style="fill: #1f77b4; stroke: #1f77b4"/>
     <use xlink:href="#m0a673be311" x="101.83315" y="116.452862" style="fill: #1f77b4; stroke: #1f77b4"/>
     <use xlink:href="#m0a673be311" x="108.173638" y="114.234123" style="fill: #1f77b4; stroke: #1f77b4"/>
     <use xlink:href="#m0a673be311" x="114.517968" y="111.96545" style="fill: #1f77b4; stroke: #1f77b4"/>
     <use xlink:href="#m0a673be311" x="121.056076" y="108.988854" style="fill: #1f77b4; stroke: #1f77b4"/>
     <use xlink:href="#m0a673be311" x="127.418332" y="106.623091" style="fill: #1f77b4; stroke: #1f77b4"/>
     <use xlink:href="#m0a673be311" x="133.751564" y="104.877312" style="fill: #1f77b4; stroke: #1f77b4"/>
     <use xlink:href="#m0a673be311" x="140.279002" y="103.40586" style="fill: #1f77b4; stroke: #1f77b4"/>
     <use xlink:href="#m0a673be311" x="146.616929" y="101.354084" style="fill: #1f77b4; stroke: #1f77b4"/>
     <use xlink:href="#m0a673be311" x="152.962966" y="99.795242" style="fill: #1f77b4; stroke: #1f77b4"/>
     <use xlink:href="#m0a673be311" x="159.522416" y="98.650592" style="fill: #1f77b4; stroke: #1f77b4"/>
     <use xlink:href="#m0a673be311" x="165.857782" y="97.675211" style="fill: #1f77b4; stroke: #1f77b4"/>
     <use xlink:href="#m0a673be311" x="172.192722" y="95.618864" style="fill: #1f77b4; stroke: #1f77b4"/>
     <use xlink:href="#m0a673be311" x="178.718452" y="94.506785" style="fill: #1f77b4; stroke: #1f77b4"/>
     <use xlink:href="#m0a673be311" x="185.07644" y="93.424158" style="fill: #1f77b4; stroke: #1f77b4"/>
     <use xlink:href="#m0a673be311" x="191.41138" y="92.0278" style="fill: #1f77b4; stroke: #1f77b4"/>
     <use xlink:href="#m0a673be311" x="197.964427" y="90.737745" style="fill: #1f77b4; stroke: #1f77b4"/>
     <use xlink:href="#m0a673be311" x="204.298513" y="89.36656" style="fill: #1f77b4; stroke: #1f77b4"/>
     <use xlink:href="#m0a673be311" x="210.657354" y="89.649653" style="fill: #1f77b4; stroke: #1f77b4"/>
     <use xlink:href="#m0a673be311" x="217.181804" y="87.73559" style="fill: #1f77b4; stroke: #1f77b4"/>
     <use xlink:href="#m0a673be311" x="223.516317" y="86.2645" style="fill: #1f77b4; stroke: #1f77b4"/>
     <use xlink:href="#m0a673be311" x="229.855525" y="86.6222" style="fill: #1f77b4; stroke: #1f77b4"/>
     <use xlink:href="#m0a673be311" x="236.210525" y="85.318288" style="fill: #1f77b4; stroke: #1f77b4"/>
     <use xlink:href="#m0a673be311" x="242.762718" y="85.404305" style="fill: #1f77b4; stroke: #1f77b4"/>
     <use xlink:href="#m0a673be311" x="249.095951" y="84.262968" style="fill: #1f77b4; stroke: #1f77b4"/>
    </g>
   </g>
   <g id="line2d_13">
    <path d="M 46.965625 166.331343 
L 53.512697 137.175332 
L 59.846782 117.030221 
L 66.184283 100.902019 
L 72.734769 88.495161 
L 79.093184 77.831984 
L 85.427697 68.910976 
L 91.954707 62.336095 
L 98.28794 54.787897 
L 104.643794 49.750114 
L 110.978306 44.407368 
L 117.533061 40.014648 
L 123.866293 37.010906 
L 130.224281 34.360763 
L 136.747877 30.108092 
L 143.081536 27.815165 
" clip-path="url(#p956e7d35b1)" style="fill: none; stroke: #ff7f0e; stroke-width: 0.7; stroke-linecap: square"/>
    <defs>
     <path id="m59223d1afa" d="M 0 0.9 
C 0.238683 0.9 0.467622 0.80517 0.636396 0.636396 
C 0.80517 0.467622 0.9 0.238683 0.9 0 
C 0.9 -0.238683 0.80517 -0.467622 0.636396 -0.636396 
C 0.467622 -0.80517 0.238683 -0.9 0 -0.9 
C -0.238683 -0.9 -0.467622 -0.80517 -0.636396 -0.636396 
C -0.80517 -0.467622 -0.9 -0.238683 -0.9 0 
C -0.9 0.238683 -0.80517 0.467622 -0.636396 0.636396 
C -0.467622 0.80517 -0.238683 0.9 0 0.9 
z
" style="stroke: #ff7f0e"/>
    </defs>
    <g clip-path="url(#p956e7d35b1)">
     <use xlink:href="#m59223d1afa" x="46.965625" y="166.331343" style="fill: #ff7f0e; stroke: #ff7f0e"/>
     <use xlink:href="#m59223d1afa" x="53.512697" y="137.175332" style="fill: #ff7f0e; stroke: #ff7f0e"/>
     <use xlink:href="#m59223d1afa" x="59.846782" y="117.030221" style="fill: #ff7f0e; stroke: #ff7f0e"/>
     <use xlink:href="#m59223d1afa" x="66.184283" y="100.902019" style="fill: #ff7f0e; stroke: #ff7f0e"/>
     <use xlink:href="#m59223d1afa" x="72.734769" y="88.495161" style="fill: #ff7f0e; stroke: #ff7f0e"/>
     <use xlink:href="#m59223d1afa" x="79.093184" y="77.831984" style="fill: #ff7f0e; stroke: #ff7f0e"/>
     <use xlink:href="#m59223d1afa" x="85.427697" y="68.910976" style="fill: #ff7f0e; stroke: #ff7f0e"/>
     <use xlink:href="#m59223d1afa" x="91.954707" y="62.336095" style="fill: #ff7f0e; stroke: #ff7f0e"/>
     <use xlink:href="#m59223d1afa" x="98.28794" y="54.787897" style="fill: #ff7f0e; stroke: #ff7f0e"/>
     <use xlink:href="#m59223d1afa" x="104.643794" y="49.750114" style="fill: #ff7f0e; stroke: #ff7f0e"/>
     <use xlink:href="#m59223d1afa" x="110.978306" y="44.407368" style="fill: #ff7f0e; stroke: #ff7f0e"/>
     <use xlink:href="#m59223d1afa" x="117.533061" y="40.014648" style="fill: #ff7f0e; stroke: #ff7f0e"/>
     <use xlink:href="#m59223d1afa" x="123.866293" y="37.010906" style="fill: #ff7f0e; stroke: #ff7f0e"/>
     <use xlink:href="#m59223d1afa" x="130.224281" y="34.360763" style="fill: #ff7f0e; stroke: #ff7f0e"/>
     <use xlink:href="#m59223d1afa" x="136.747877" y="30.108092" style="fill: #ff7f0e; stroke: #ff7f0e"/>
     <use xlink:href="#m59223d1afa" x="143.081536" y="27.815165" style="fill: #ff7f0e; stroke: #ff7f0e"/>
    </g>
   </g>
   <g id="line2d_14">
    <path d="M 46.965625 166.331343 
L 53.506294 168.14971 
L 59.866843 165.056454 
L 66.203917 163.7419 
L 72.720684 162.07027 
L 79.066721 160.530193 
L 85.444343 159.322904 
L 91.970927 158.519415 
L 98.304159 156.844677 
L 104.637391 156.234963 
L 111.190012 155.024312 
L 117.523244 154.673807 
L 123.883793 151.709139 
L 130.404828 150.352941 
L 136.741475 149.313615 
L 143.087085 148.775657 
L 149.460439 147.439969 
L 155.981901 146.058971 
L 162.314279 144.419136 
L 168.674828 143.841454 
L 175.192876 142.245842 
L 181.541474 141.217776 
L 187.915681 140.352101 
L 194.440985 139.854264 
L 200.774217 138.957143 
L 207.111291 137.278581 
L 213.662204 137.253278 
L 219.99757 135.973571 
L 226.357265 135.866016 
L 232.687083 136.122434 
L 239.217508 134.825777 
" clip-path="url(#p956e7d35b1)" style="fill: none; stroke: #2ca02c; stroke-width: 0.7; stroke-linecap: square"/>
    <defs>
     <path id="m297ec4299b" d="M 0 0.9 
C 0.238683 0.9 0.467622 0.80517 0.636396 0.636396 
C 0.80517 0.467622 0.9 0.238683 0.9 0 
C 0.9 -0.238683 0.80517 -0.467622 0.636396 -0.636396 
C 0.467622 -0.80517 0.238683 -0.9 0 -0.9 
C -0.238683 -0.9 -0.467622 -0.80517 -0.636396 -0.636396 
C -0.80517 -0.467622 -0.9 -0.238683 -0.9 0 
C -0.9 0.238683 -0.80517 0.467622 -0.636396 0.636396 
C -0.467622 0.80517 -0.238683 0.9 0 0.9 
z
" style="stroke: #2ca02c"/>
    </defs>
    <g clip-path="url(#p956e7d35b1)">
     <use xlink:href="#m297ec4299b" x="46.965625" y="166.331343" style="fill: #2ca02c; stroke: #2ca02c"/>
     <use xlink:href="#m297ec4299b" x="53.506294" y="168.14971" style="fill: #2ca02c; stroke: #2ca02c"/>
     <use xlink:href="#m297ec4299b" x="59.866843" y="165.056454" style="fill: #2ca02c; stroke: #2ca02c"/>
     <use xlink:href="#m297ec4299b" x="66.203917" y="163.7419" style="fill: #2ca02c; stroke: #2ca02c"/>
     <use xlink:href="#m297ec4299b" x="72.720684" y="162.07027" style="fill: #2ca02c; stroke: #2ca02c"/>
     <use xlink:href="#m297ec4299b" x="79.066721" y="160.530193" style="fill: #2ca02c; stroke: #2ca02c"/>
     <use xlink:href="#m297ec4299b" x="85.444343" y="159.322904" style="fill: #2ca02c; stroke: #2ca02c"/>
     <use xlink:href="#m297ec4299b" x="91.970927" y="158.519415" style="fill: #2ca02c; stroke: #2ca02c"/>
     <use xlink:href="#m297ec4299b" x="98.304159" y="156.844677" style="fill: #2ca02c; stroke: #2ca02c"/>
     <use xlink:href="#m297ec4299b" x="104.637391" y="156.234963" style="fill: #2ca02c; stroke: #2ca02c"/>
     <use xlink:href="#m297ec4299b" x="111.190012" y="155.024312" style="fill: #2ca02c; stroke: #2ca02c"/>
     <use xlink:href="#m297ec4299b" x="117.523244" y="154.673807" style="fill: #2ca02c; stroke: #2ca02c"/>
     <use xlink:href="#m297ec4299b" x="123.883793" y="151.709139" style="fill: #2ca02c; stroke: #2ca02c"/>
     <use xlink:href="#m297ec4299b" x="130.404828" y="150.352941" style="fill: #2ca02c; stroke: #2ca02c"/>
     <use xlink:href="#m297ec4299b" x="136.741475" y="149.313615" style="fill: #2ca02c; stroke: #2ca02c"/>
     <use xlink:href="#m297ec4299b" x="143.087085" y="148.775657" style="fill: #2ca02c; stroke: #2ca02c"/>
     <use xlink:href="#m297ec4299b" x="149.460439" y="147.439969" style="fill: #2ca02c; stroke: #2ca02c"/>
     <use xlink:href="#m297ec4299b" x="155.981901" y="146.058971" style="fill: #2ca02c; stroke: #2ca02c"/>
     <use xlink:href="#m297ec4299b" x="162.314279" y="144.419136" style="fill: #2ca02c; stroke: #2ca02c"/>
     <use xlink:href="#m297ec4299b" x="168.674828" y="143.841454" style="fill: #2ca02c; stroke: #2ca02c"/>
     <use xlink:href="#m297ec4299b" x="175.192876" y="142.245842" style="fill: #2ca02c; stroke: #2ca02c"/>
     <use xlink:href="#m297ec4299b" x="181.541474" y="141.217776" style="fill: #2ca02c; stroke: #2ca02c"/>
     <use xlink:href="#m297ec4299b" x="187.915681" y="140.352101" style="fill: #2ca02c; stroke: #2ca02c"/>
     <use xlink:href="#m297ec4299b" x="194.440985" y="139.854264" style="fill: #2ca02c; stroke: #2ca02c"/>
     <use xlink:href="#m297ec4299b" x="200.774217" y="138.957143" style="fill: #2ca02c; stroke: #2ca02c"/>
     <use xlink:href="#m297ec4299b" x="207.111291" y="137.278581" style="fill: #2ca02c; stroke: #2ca02c"/>
     <use xlink:href="#m297ec4299b" x="213.662204" y="137.253278" style="fill: #2ca02c; stroke: #2ca02c"/>
     <use xlink:href="#m297ec4299b" x="219.99757" y="135.973571" style="fill: #2ca02c; stroke: #2ca02c"/>
     <use xlink:href="#m297ec4299b" x="226.357265" y="135.866016" style="fill: #2ca02c; stroke: #2ca02c"/>
     <use xlink:href="#m297ec4299b" x="232.687083" y="136.122434" style="fill: #2ca02c; stroke: #2ca02c"/>
     <use xlink:href="#m297ec4299b" x="239.217508" y="134.825777" style="fill: #2ca02c; stroke: #2ca02c"/>
    </g>
   </g>
   <g id="line2d_15">
    <path d="M 46.965625 166.331343 
L 53.335564 139.512499 
L 59.861295 122.01775 
L 66.195807 109.649622 
L 72.537149 100.753982 
L 79.080379 94.159973 
L 85.437087 89.600499 
L 91.771173 84.754872 
L 98.296049 81.8297 
L 104.642086 78.297122 
L 110.988123 75.986609 
L 117.333307 74.257199 
L 123.870988 72.069056 
L 130.230257 71.149047 
L 136.561355 70.010858 
L 143.092207 69.124291 
L 149.438244 67.897017 
L 155.807756 67.302749 
L 162.331352 67.180969 
L 168.665011 66.066163 
L 175.009768 65.706345 
L 181.553425 65.231443 
L 187.910132 64.610647 
L 194.242938 64.246669 
L 200.605621 65.063812 
L 207.120681 64.299477 
L 213.491474 64.762387 
L 219.825133 63.951687 
L 226.347448 63.889714 
L 232.693912 63.063282 
L 239.041656 62.980488 
L 245.588301 62.917446 
L 251.947996 63.435825 
L 258.280375 63.177025 
" clip-path="url(#p956e7d35b1)" style="fill: none; stroke: #d62728; stroke-width: 0.7; stroke-linecap: square"/>
    <defs>
     <path id="mdd61089447" d="M 0 0.9 
C 0.238683 0.9 0.467622 0.80517 0.636396 0.636396 
C 0.80517 0.467622 0.9 0.238683 0.9 0 
C 0.9 -0.238683 0.80517 -0.467622 0.636396 -0.636396 
C 0.467622 -0.80517 0.238683 -0.9 0 -0.9 
C -0.238683 -0.9 -0.467622 -0.80517 -0.636396 -0.636396 
C -0.80517 -0.467622 -0.9 -0.238683 -0.9 0 
C -0.9 0.238683 -0.80517 0.467622 -0.636396 0.636396 
C -0.467622 0.80517 -0.238683 0.9 0 0.9 
z
" style="stroke: #d62728"/>
    </defs>
    <g clip-path="url(#p956e7d35b1)">
     <use xlink:href="#mdd61089447" x="46.965625" y="166.331343" style="fill: #d62728; stroke: #d62728"/>
     <use xlink:href="#mdd61089447" x="53.335564" y="139.512499" style="fill: #d62728; stroke: #d62728"/>
     <use xlink:href="#mdd61089447" x="59.861295" y="122.01775" style="fill: #d62728; stroke: #d62728"/>
     <use xlink:href="#mdd61089447" x="66.195807" y="109.649622" style="fill: #d62728; stroke: #d62728"/>
     <use xlink:href="#mdd61089447" x="72.537149" y="100.753982" style="fill: #d62728; stroke: #d62728"/>
     <use xlink:href="#mdd61089447" x="79.080379" y="94.159973" style="fill: #d62728; stroke: #d62728"/>
     <use xlink:href="#mdd61089447" x="85.437087" y="89.600499" style="fill: #d62728; stroke: #d62728"/>
     <use xlink:href="#mdd61089447" x="91.771173" y="84.754872" style="fill: #d62728; stroke: #d62728"/>
     <use xlink:href="#mdd61089447" x="98.296049" y="81.8297" style="fill: #d62728; stroke: #d62728"/>
     <use xlink:href="#mdd61089447" x="104.642086" y="78.297122" style="fill: #d62728; stroke: #d62728"/>
     <use xlink:href="#mdd61089447" x="110.988123" y="75.986609" style="fill: #d62728; stroke: #d62728"/>
     <use xlink:href="#mdd61089447" x="117.333307" y="74.257199" style="fill: #d62728; stroke: #d62728"/>
     <use xlink:href="#mdd61089447" x="123.870988" y="72.069056" style="fill: #d62728; stroke: #d62728"/>
     <use xlink:href="#mdd61089447" x="130.230257" y="71.149047" style="fill: #d62728; stroke: #d62728"/>
     <use xlink:href="#mdd61089447" x="136.561355" y="70.010858" style="fill: #d62728; stroke: #d62728"/>
     <use xlink:href="#mdd61089447" x="143.092207" y="69.124291" style="fill: #d62728; stroke: #d62728"/>
     <use xlink:href="#mdd61089447" x="149.438244" y="67.897017" style="fill: #d62728; stroke: #d62728"/>
     <use xlink:href="#mdd61089447" x="155.807756" y="67.302749" style="fill: #d62728; stroke: #d62728"/>
     <use xlink:href="#mdd61089447" x="162.331352" y="67.180969" style="fill: #d62728; stroke: #d62728"/>
     <use xlink:href="#mdd61089447" x="168.665011" y="66.066163" style="fill: #d62728; stroke: #d62728"/>
     <use xlink:href="#mdd61089447" x="175.009768" y="65.706345" style="fill: #d62728; stroke: #d62728"/>
     <use xlink:href="#mdd61089447" x="181.553425" y="65.231443" style="fill: #d62728; stroke: #d62728"/>
     <use xlink:href="#mdd61089447" x="187.910132" y="64.610647" style="fill: #d62728; stroke: #d62728"/>
     <use xlink:href="#mdd61089447" x="194.242938" y="64.246669" style="fill: #d62728; stroke: #d62728"/>
     <use xlink:href="#mdd61089447" x="200.605621" y="65.063812" style="fill: #d62728; stroke: #d62728"/>
     <use xlink:href="#mdd61089447" x="207.120681" y="64.299477" style="fill: #d62728; stroke: #d62728"/>
     <use xlink:href="#mdd61089447" x="213.491474" y="64.762387" style="fill: #d62728; stroke: #d62728"/>
     <use xlink:href="#mdd61089447" x="219.825133" y="63.951687" style="fill: #d62728; stroke: #d62728"/>
     <use xlink:href="#mdd61089447" x="226.347448" y="63.889714" style="fill: #d62728; stroke: #d62728"/>
     <use xlink:href="#mdd61089447" x="232.693912" y="63.063282" style="fill: #d62728; stroke: #d62728"/>
     <use xlink:href="#mdd61089447" x="239.041656" y="62.980488" style="fill: #d62728; stroke: #d62728"/>
     <use xlink:href="#mdd61089447" x="245.588301" y="62.917446" style="fill: #d62728; stroke: #d62728"/>
     <use xlink:href="#mdd61089447" x="251.947996" y="63.435825" style="fill: #d62728; stroke: #d62728"/>
     <use xlink:href="#mdd61089447" x="258.280375" y="63.177025" style="fill: #d62728; stroke: #d62728"/>
    </g>
   </g>
   <g id="patch_3">
    <path d="M 46.965625 175.166437 
L 46.965625 20.798438 
" style="fill: none; stroke: #000000; stroke-width: 0.8; stroke-linejoin: miter; stroke-linecap: square"/>
   </g>
   <g id="patch_4">
    <path d="M 268.846113 175.166437 
L 268.846113 20.798438 
" style="fill: none; stroke: #000000; stroke-width: 0.8; stroke-linejoin: miter; stroke-linecap: square"/>
   </g>
   <g id="patch_5">
    <path d="M 46.965625 175.166437 
L 268.846113 175.166437 
" style="fill: none; stroke: #000000; stroke-width: 0.8; stroke-linejoin: miter; stroke-linecap: square"/>
   </g>
   <g id="patch_6">
    <path d="M 46.965625 20.798438 
L 268.846113 20.798438 
" style="fill: none; stroke: #000000; stroke-width: 0.8; stroke-linejoin: miter; stroke-linecap: square"/>
   </g>
   <g id="text_14">
    <!-- VTNA overlay plot for Product -->
    <g transform="translate(83.911338 14.798438) scale(0.1 -0.1)">
     <defs>
      <path id="DejaVuSans-56" d="M 1831 0 
L 50 4666 
L 709 4666 
L 2188 738 
L 3669 4666 
L 4325 4666 
L 2547 0 
L 1831 0 
z
" transform="scale(0.015625)"/>
      <path id="DejaVuSans-54" d="M -19 4666 
L 3928 4666 
L 3928 4134 
L 2272 4134 
L 2272 0 
L 1638 0 
L 1638 4134 
L -19 4134 
L -19 4666 
z
" transform="scale(0.015625)"/>
      <path id="DejaVuSans-4e" d="M 628 4666 
L 1478 4666 
L 3547 763 
L 3547 4666 
L 4159 4666 
L 4159 0 
L 3309 0 
L 1241 3903 
L 1241 0 
L 628 0 
L 628 4666 
z
" transform="scale(0.015625)"/>
      <path id="DejaVuSans-41" d="M 2188 4044 
L 1331 1722 
L 3047 1722 
L 2188 4044 
z
M 1831 4666 
L 2547 4666 
L 4325 0 
L 3669 0 
L 3244 1197 
L 1141 1197 
L 716 0 
L 50 0 
L 1831 4666 
z
" transform="scale(0.015625)"/>
      <path id="DejaVuSans-76" d="M 191 3500 
L 800 3500 
L 1894 563 
L 2988 3500 
L 3597 3500 
L 2284 0 
L 1503 0 
L 191 3500 
z
" transform="scale(0.015625)"/>
      <path id="DejaVuSans-6c" d="M 603 4863 
L 1178 4863 
L 1178 0 
L 603 0 
L 603 4863 
z
" transform="scale(0.015625)"/>
      <path id="DejaVuSans-61" d="M 2194 1759 
Q 1497 1759 1228 1600 
Q 959 1441 959 1056 
Q 959 750 1161 570 
Q 1363 391 1709 391 
Q 2188 391 2477 730 
Q 2766 1069 2766 1631 
L 2766 1759 
L 2194 1759 
z
M 3341 1997 
L 3341 0 
L 2766 0 
L 2766 531 
Q 2569 213 2275 61 
Q 1981 -91 1556 -91 
Q 1019 -91 701 211 
Q 384 513 384 1019 
Q 384 1609 779 1909 
Q 1175 2209 1959 2209 
L 2766 2209 
L 2766 2266 
Q 2766 2663 2505 2880 
Q 2244 3097 1772 3097 
Q 1472 3097 1187 3025 
Q 903 2953 641 2809 
L 641 3341 
Q 956 3463 1253 3523 
Q 1550 3584 1831 3584 
Q 2591 3584 2966 3190 
Q 3341 2797 3341 1997 
z
" transform="scale(0.015625)"/>
      <path id="DejaVuSans-79" d="M 2059 -325 
Q 1816 -950 1584 -1140 
Q 1353 -1331 966 -1331 
L 506 -1331 
L 506 -850 
L 844 -850 
Q 1081 -850 1212 -737 
Q 1344 -625 1503 -206 
L 1606 56 
L 191 3500 
L 800 3500 
L 1894 763 
L 2988 3500 
L 3597 3500 
L 2059 -325 
z
" transform="scale(0.015625)"/>
      <path id="DejaVuSans-70" d="M 1159 525 
L 1159 -1331 
L 581 -1331 
L 581 3500 
L 1159 3500 
L 1159 2969 
Q 1341 3281 1617 3432 
Q 1894 3584 2278 3584 
Q 2916 3584 3314 3078 
Q 3713 2572 3713 1747 
Q 3713 922 3314 415 
Q 2916 -91 2278 -91 
Q 1894 -91 1617 61 
Q 1341 213 1159 525 
z
M 3116 1747 
Q 3116 2381 2855 2742 
Q 2594 3103 2138 3103 
Q 1681 3103 1420 2742 
Q 1159 2381 1159 1747 
Q 1159 1113 1420 752 
Q 1681 391 2138 391 
Q 2594 391 2855 752 
Q 3116 1113 3116 1747 
z
" transform="scale(0.015625)"/>
     </defs>
     <use xlink:href="#DejaVuSans-56"/>
     <use xlink:href="#DejaVuSans-54" transform="translate(68.408203 0)"/>
     <use xlink:href="#DejaVuSans-4e" transform="translate(129.492188 0)"/>
     <use xlink:href="#DejaVuSans-41" transform="translate(204.296875 0)"/>
     <use xlink:href="#DejaVuSans-20" transform="translate(272.705078 0)"/>
     <use xlink:href="#DejaVuSans-6f" transform="translate(304.492188 0)"/>
     <use xlink:href="#DejaVuSans-76" transform="translate(365.673828 0)"/>
     <use xlink:href="#DejaVuSans-65" transform="translate(424.853516 0)"/>
     <use xlink:href="#DejaVuSans-72" transform="translate(486.376953 0)"/>
     <use xlink:href="#DejaVuSans-6c" transform="translate(527.490234 0)"/>
     <use xlink:href="#DejaVuSans-61" transform="translate(555.273438 0)"/>
     <use xlink:href="#DejaVuSans-79" transform="translate(616.552734 0)"/>
     <use xlink:href="#DejaVuSans-20" transform="translate(675.732422 0)"/>
     <use xlink:href="#DejaVuSans-70" transform="translate(707.519531 0)"/>
     <use xlink:href="#DejaVuSans-6c" transform="translate(770.996094 0)"/>
     <use xlink:href="#DejaVuSans-6f" transform="translate(798.779297 0)"/>
     <use xlink:href="#DejaVuSans-74" transform="translate(859.960938 0)"/>
     <use xlink:href="#DejaVuSans-20" transform="translate(899.169922 0)"/>
     <use xlink:href="#DejaVuSans-66" transform="translate(930.957031 0)"/>
     <use xlink:href="#DejaVuSans-6f" transform="translate(966.162109 0)"/>
     <use xlink:href="#DejaVuSans-72" transform="translate(1027.34375 0)"/>
     <use xlink:href="#DejaVuSans-20" transform="translate(1068.457031 0)"/>
     <use xlink:href="#DejaVuSans-50" transform="translate(1100.244141 0)"/>
     <use xlink:href="#DejaVuSans-72" transform="translate(1158.796875 0)"/>
     <use xlink:href="#DejaVuSans-6f" transform="translate(1197.660156 0)"/>
     <use xlink:href="#DejaVuSans-64" transform="translate(1258.841797 0)"/>
     <use xlink:href="#DejaVuSans-75" transform="translate(1322.318359 0)"/>
     <use xlink:href="#DejaVuSans-63" transform="translate(1385.697266 0)"/>
     <use xlink:href="#DejaVuSans-74" transform="translate(1440.677734 0)"/>
    </g>
   </g>
   <g id="legend_1">
    <g id="patch_7">
     <path d="M 275.846113 128.838687 
L 348.5633 128.838687 
Q 350.5633 128.838687 350.5633 126.838688 
L 350.5633 69.126188 
Q 350.5633 67.126188 348.5633 67.126188 
L 275.846113 67.126188 
Q 273.846113 67.126188 273.846113 69.126188 
L 273.846113 126.838688 
Q 273.846113 128.838687 275.846113 128.838687 
z
" style="fill: #ffffff; opacity: 0.8; stroke: #cccccc; stroke-linejoin: miter"/>
    </g>
    <g id="line2d_16">
     <path d="M 277.846113 75.224625 
L 287.846113 75.224625 
L 297.846113 75.224625 
" style="fill: none; stroke: #1f77b4; stroke-width: 0.7; stroke-linecap: square"/>
     <g>
      <use xlink:href="#m0a673be311" x="287.846113" y="75.224625" style="fill: #1f77b4; stroke: #1f77b4"/>
     </g>
    </g>
    <g id="text_15">
     <!-- Period 1 -->
     <g transform="translate(305.846113 78.724625) scale(0.1 -0.1)">
      <use xlink:href="#DejaVuSans-50"/>
      <use xlink:href="#DejaVuSans-65" transform="translate(56.677734 0)"/>
      <use xlink:href="#DejaVuSans-72" transform="translate(118.201172 0)"/>
      <use xlink:href="#DejaVuSans-69" transform="translate(159.314453 0)"/>
      <use xlink:href="#DejaVuSans-6f" transform="translate(187.097656 0)"/>
      <use xlink:href="#DejaVuSans-64" transform="translate(248.279297 0)"/>
      <use xlink:href="#DejaVuSans-20" transform="translate(311.755859 0)"/>
      <use xlink:href="#DejaVuSans-31" transform="translate(343.542969 0)"/>
     </g>
    </g>
    <g id="line2d_17">
     <path d="M 277.846113 89.90275 
L 287.846113 89.90275 
L 297.846113 89.90275 
" style="fill: none; stroke: #ff7f0e; stroke-width: 0.7; stroke-linecap: square"/>
     <g>
      <use xlink:href="#m59223d1afa" x="287.846113" y="89.90275" style="fill: #ff7f0e; stroke: #ff7f0e"/>
     </g>
    </g>
    <g id="text_16">
     <!-- Period 2 -->
     <g transform="translate(305.846113 93.40275) scale(0.1 -0.1)">
      <use xlink:href="#DejaVuSans-50"/>
      <use xlink:href="#DejaVuSans-65" transform="translate(56.677734 0)"/>
      <use xlink:href="#DejaVuSans-72" transform="translate(118.201172 0)"/>
      <use xlink:href="#DejaVuSans-69" transform="translate(159.314453 0)"/>
      <use xlink:href="#DejaVuSans-6f" transform="translate(187.097656 0)"/>
      <use xlink:href="#DejaVuSans-64" transform="translate(248.279297 0)"/>
      <use xlink:href="#DejaVuSans-20" transform="translate(311.755859 0)"/>
      <use xlink:href="#DejaVuSans-32" transform="translate(343.542969 0)"/>
     </g>
    </g>
    <g id="line2d_18">
     <path d="M 277.846113 104.580875 
L 287.846113 104.580875 
L 297.846113 104.580875 
" style="fill: none; stroke: #2ca02c; stroke-width: 0.7; stroke-linecap: square"/>
     <g>
      <use xlink:href="#m297ec4299b" x="287.846113" y="104.580875" style="fill: #2ca02c; stroke: #2ca02c"/>
     </g>
    </g>
    <g id="text_17">
     <!-- Period 3 -->
     <g transform="translate(305.846113 108.080875) scale(0.1 -0.1)">
      <use xlink:href="#DejaVuSans-50"/>
      <use xlink:href="#DejaVuSans-65" transform="translate(56.677734 0)"/>
      <use xlink:href="#DejaVuSans-72" transform="translate(118.201172 0)"/>
      <use xlink:href="#DejaVuSans-69" transform="translate(159.314453 0)"/>
      <use xlink:href="#DejaVuSans-6f" transform="translate(187.097656 0)"/>
      <use xlink:href="#DejaVuSans-64" transform="translate(248.279297 0)"/>
      <use xlink:href="#DejaVuSans-20" transform="translate(311.755859 0)"/>
      <use xlink:href="#DejaVuSans-33" transform="translate(343.542969 0)"/>
     </g>
    </g>
    <g id="line2d_19">
     <path d="M 277.846113 119.259 
L 287.846113 119.259 
L 297.846113 119.259 
" style="fill: none; stroke: #d62728; stroke-width: 0.7; stroke-linecap: square"/>
     <g>
      <use xlink:href="#mdd61089447" x="287.846113" y="119.259" style="fill: #d62728; stroke: #d62728"/>
     </g>
    </g>
    <g id="text_18">
     <!-- Period 4 -->
     <g transform="translate(305.846113 122.759) scale(0.1 -0.1)">
      <use xlink:href="#DejaVuSans-50"/>
      <use xlink:href="#DejaVuSans-65" transform="translate(56.677734 0)"/>
      <use xlink:href="#DejaVuSans-72" transform="translate(118.201172 0)"/>
      <use xlink:href="#DejaVuSans-69" transform="translate(159.314453 0)"/>
      <use xlink:href="#DejaVuSans-6f" transform="translate(187.097656 0)"/>
      <use xlink:href="#DejaVuSans-64" transform="translate(248.279297 0)"/>
      <use xlink:href="#DejaVuSans-20" transform="translate(311.755859 0)"/>
      <use xlink:href="#DejaVuSans-34" transform="translate(343.542969 0)"/>
     </g>
    </g>
   </g>
  </g>
 </g>
 <defs>
  <clipPath id="p956e7d35b1">
   <rect x="46.965625" y="20.798438" width="221.880488" height="154.368"/>
  </clipPath>
 </defs>
</svg>
