<?xml version="1.0" encoding="utf-8" standalone="no"?>
<!DOCTYPE svg PUBLIC "-//W3C//DTD SVG 1.1//EN"
  "http://www.w3.org/Graphics/SVG/1.1/DTD/svg11.dtd">
<svg xmlns:xlink="http://www.w3.org/1999/xlink" width="357.7633pt" height="201.280692pt" viewBox="0 0 357.7633 201.280692" xmlns="http://www.w3.org/2000/svg" version="1.1">
 <metadata>
  <rdf:RDF xmlns:dc="http://purl.org/dc/elements/1.1/" xmlns:cc="http://creativecommons.org/ns#" xmlns:rdf="http://www.w3.org/1999/02/22-rdf-syntax-ns#">
   <cc:Work>
    <dc:type rdf:resource="http://purl.org/dc/dcmitype/StillImage"/>
    <dc:date>2026-01-13T17:36:50.595984</dc:date>
    <dc:format>image/svg+xml</dc:format>
    <dc:creator>
     <cc:Agent>
      <dc:title>Matplotlib v3.10.0, https://matplotlib.org/</dc:title>
     </cc:Agent>
    </dc:creator>
   </cc:Work>
  </rdf:RDF>
 </metadata>
 <defs>
  <style type="text/css">*{stroke-linejoin: round; stroke-linecap: butt}</style>
 </defs>
 <g id="figure_1">
  <g id="patch_1">
   <path d="M 0 201.280692 
L 357.7633 201.280692 
L 357.7633 0 
L 0 0 
z
" style="fill: #ffffff"/>
  </g>
  <g id="axes_1">
   <g id="patch_2">
    <path d="M 46.965625 162.902567 
L 268.846113 162.902567 
L 268.846113 8.534567 
L 46.965625 8.534567 
z
" style="fill: #ffffff"/>
   </g>
   <g id="matplotlib.axis_1">
    <g id="xtick_1">
     <g id="line2d_1">
      <defs>
       <path id="mab52873bc7" d="M 0 0 
L 0 3.5 
" style="stroke: #000000; stroke-width: 0.8"/>
      </defs>
      <g>
       <use xlink:href="#mab52873bc7" x="46.965625" y="162.902567" style="stroke: #000000; stroke-width: 0.8"/>
      </g>
     </g>
     <g id="text_1">
      <!-- 0.0 -->
      <g transform="translate(39.014063 177.501004) scale(0.1 -0.1)">
       <defs>
        <path id="DejaVuSans-30" d="M 2034 4250 
Q 1547 4250 1301 3770 
Q 1056 3291 1056 2328 
Q 1056 1369 1301 889 
Q 1547 409 2034 409 
Q 2525 409 2770 889 
Q 3016 1369 3016 2328 
Q 3016 3291 2770 3770 
Q 2525 4250 2034 4250 
z
M 2034 4750 
Q 2819 4750 3233 4129 
Q 3647 3509 3647 2328 
Q 3647 1150 3233 529 
Q 2819 -91 2034 -91 
Q 1250 -91 836 529 
Q 422 1150 422 2328 
Q 422 3509 836 4129 
Q 1250 4750 2034 4750 
z
" transform="scale(0.015625)"/>
        <path id="DejaVuSans-2e" d="M 684 794 
L 1344 794 
L 1344 0 
L 684 0 
L 684 794 
z
" transform="scale(0.015625)"/>
       </defs>
       <use xlink:href="#DejaVuSans-30"/>
       <use xlink:href="#DejaVuSans-2e" transform="translate(63.623047 0)"/>
       <use xlink:href="#DejaVuSans-30" transform="translate(95.410156 0)"/>
      </g>
     </g>
    </g>
    <g id="xtick_2">
     <g id="line2d_2">
      <g>
       <use xlink:href="#mab52873bc7" x="96.414055" y="162.902567" style="stroke: #000000; stroke-width: 0.8"/>
      </g>
     </g>
     <g id="text_2">
      <!-- 0.5 -->
      <g transform="translate(88.462493 177.501004) scale(0.1 -0.1)">
       <defs>
        <path id="DejaVuSans-35" d="M 691 4666 
L 3169 4666 
L 3169 4134 
L 1269 4134 
L 1269 2991 
Q 1406 3038 1543 3061 
Q 1681 3084 1819 3084 
Q 2600 3084 3056 2656 
Q 3513 2228 3513 1497 
Q 3513 744 3044 326 
Q 2575 -91 1722 -91 
Q 1428 -91 1123 -41 
Q 819 9 494 109 
L 494 744 
Q 775 591 1075 516 
Q 1375 441 1709 441 
Q 2250 441 2565 725 
Q 2881 1009 2881 1497 
Q 2881 1984 2565 2268 
Q 2250 2553 1709 2553 
Q 1456 2553 1204 2497 
Q 953 2441 691 2322 
L 691 4666 
z
" transform="scale(0.015625)"/>
       </defs>
       <use xlink:href="#DejaVuSans-30"/>
       <use xlink:href="#DejaVuSans-2e" transform="translate(63.623047 0)"/>
       <use xlink:href="#DejaVuSans-35" transform="translate(95.410156 0)"/>
      </g>
     </g>
    </g>
    <g id="xtick_3">
     <g id="line2d_3">
      <g>
       <use xlink:href="#mab52873bc7" x="145.862486" y="162.902567" style="stroke: #000000; stroke-width: 0.8"/>
      </g>
     </g>
     <g id="text_3">
      <!-- 1.0 -->
      <g transform="translate(137.910923 177.501004) scale(0.1 -0.1)">
       <defs>
        <path id="DejaVuSans-31" d="M 794 531 
L 1825 531 
L 1825 4091 
L 703 3866 
L 703 4441 
L 1819 4666 
L 2450 4666 
L 2450 531 
L 3481 531 
L 3481 0 
L 794 0 
L 794 531 
z
" transform="scale(0.015625)"/>
       </defs>
       <use xlink:href="#DejaVuSans-31"/>
       <use xlink:href="#DejaVuSans-2e" transform="translate(63.623047 0)"/>
       <use xlink:href="#DejaVuSans-30" transform="translate(95.410156 0)"/>
      </g>
     </g>
    </g>
    <g id="xtick_4">
     <g id="line2d_4">
      <g>
       <use xlink:href="#mab52873bc7" x="195.310916" y="162.902567" style="stroke: #000000; stroke-width: 0.8"/>
      </g>
     </g>
     <g id="text_4">
      <!-- 1.5 -->
      <g transform="translate(187.359354 177.501004) scale(0.1 -0.1)">
       <use xlink:href="#DejaVuSans-31"/>
       <use xlink:href="#DejaVuSans-2e" transform="translate(63.623047 0)"/>
       <use xlink:href="#DejaVuSans-35" transform="translate(95.410156 0)"/>
      </g>
     </g>
    </g>
    <g id="xtick_5">
     <g id="line2d_5">
      <g>
       <use xlink:href="#mab52873bc7" x="244.759347" y="162.902567" style="stroke: #000000; stroke-width: 0.8"/>
      </g>
     </g>
     <g id="text_5">
      <!-- 2.0 -->
      <g transform="translate(236.807784 177.501004) scale(0.1 -0.1)">
       <defs>
        <path id="DejaVuSans-32" d="M 1228 531 
L 3431 531 
L 3431 0 
L 469 0 
L 469 531 
Q 828 903 1448 1529 
Q 2069 2156 2228 2338 
Q 2531 2678 2651 2914 
Q 2772 3150 2772 3378 
Q 2772 3750 2511 3984 
Q 2250 4219 1831 4219 
Q 1534 4219 1204 4116 
Q 875 4013 500 3803 
L 500 4441 
Q 881 4594 1212 4672 
Q 1544 4750 1819 4750 
Q 2544 4750 2975 4387 
Q 3406 4025 3406 3419 
Q 3406 3131 3298 2873 
Q 3191 2616 2906 2266 
Q 2828 2175 2409 1742 
Q 1991 1309 1228 531 
z
" transform="scale(0.015625)"/>
       </defs>
       <use xlink:href="#DejaVuSans-32"/>
       <use xlink:href="#DejaVuSans-2e" transform="translate(63.623047 0)"/>
       <use xlink:href="#DejaVuSans-30" transform="translate(95.410156 0)"/>
      </g>
     </g>
    </g>
    <g id="text_6">
     <!-- $Σ[Amine]^{1.80}[Phenol]^{-0.09}[ArOPh]^{1.05}Δt$. -->
     <g transform="translate(60.855869 192.001004) scale(0.1 -0.1)">
      <defs>
       <path id="DejaVuSans-3a3" d="M 1353 531 
L 3634 531 
L 3634 0 
L 628 0 
L 628 531 
L 2125 2481 
L 628 4134 
L 628 4666 
L 3578 4666 
L 3578 4134 
L 1353 4134 
L 2850 2494 
L 1353 531 
z
" transform="scale(0.015625)"/>
       <path id="DejaVuSans-5b" d="M 550 4863 
L 1875 4863 
L 1875 4416 
L 1125 4416 
L 1125 -397 
L 1875 -397 
L 1875 -844 
L 550 -844 
L 550 4863 
z
" transform="scale(0.015625)"/>
       <path id="DejaVuSans-Oblique-41" d="M 2356 4666 
L 3072 4666 
L 3938 0 
L 3278 0 
L 3084 1197 
L 984 1197 
L 325 0 
L -341 0 
L 2356 4666 
z
M 2584 4044 
L 1275 1722 
L 2988 1722 
L 2584 4044 
z
" transform="scale(0.015625)"/>
       <path id="DejaVuSans-Oblique-6d" d="M 5747 2113 
L 5338 0 
L 4763 0 
L 5166 2094 
Q 5191 2228 5203 2325 
Q 5216 2422 5216 2491 
Q 5216 2772 5059 2928 
Q 4903 3084 4622 3084 
Q 4203 3084 3875 2770 
Q 3547 2456 3450 1953 
L 3066 0 
L 2491 0 
L 2900 2094 
Q 2925 2209 2937 2307 
Q 2950 2406 2950 2484 
Q 2950 2769 2794 2926 
Q 2638 3084 2363 3084 
Q 1938 3084 1609 2770 
Q 1281 2456 1184 1953 
L 800 0 
L 225 0 
L 909 3500 
L 1484 3500 
L 1375 2956 
Q 1609 3263 1923 3423 
Q 2238 3584 2597 3584 
Q 2978 3584 3223 3384 
Q 3469 3184 3519 2828 
Q 3781 3197 4126 3390 
Q 4472 3584 4856 3584 
Q 5306 3584 5551 3325 
Q 5797 3066 5797 2591 
Q 5797 2488 5784 2364 
Q 5772 2241 5747 2113 
z
" transform="scale(0.015625)"/>
       <path id="DejaVuSans-Oblique-69" d="M 1172 4863 
L 1747 4863 
L 1606 4134 
L 1031 4134 
L 1172 4863 
z
M 909 3500 
L 1484 3500 
L 800 0 
L 225 0 
L 909 3500 
z
" transform="scale(0.015625)"/>
       <path id="DejaVuSans-Oblique-6e" d="M 3566 2113 
L 3156 0 
L 2578 0 
L 2988 2091 
Q 3016 2238 3031 2350 
Q 3047 2463 3047 2528 
Q 3047 2791 2881 2937 
Q 2716 3084 2419 3084 
Q 1956 3084 1622 2776 
Q 1288 2469 1184 1941 
L 800 0 
L 225 0 
L 903 3500 
L 1478 3500 
L 1363 2950 
Q 1603 3253 1940 3418 
Q 2278 3584 2650 3584 
Q 3113 3584 3367 3334 
Q 3622 3084 3622 2631 
Q 3622 2519 3608 2391 
Q 3594 2263 3566 2113 
z
" transform="scale(0.015625)"/>
       <path id="DejaVuSans-Oblique-65" d="M 3078 2063 
Q 3088 2113 3092 2166 
Q 3097 2219 3097 2272 
Q 3097 2653 2873 2875 
Q 2650 3097 2266 3097 
Q 1838 3097 1509 2826 
Q 1181 2556 1013 2059 
L 3078 2063 
z
M 3578 1613 
L 903 1613 
Q 884 1494 878 1425 
Q 872 1356 872 1306 
Q 872 872 1139 634 
Q 1406 397 1894 397 
Q 2269 397 2603 481 
Q 2938 566 3225 728 
L 3116 159 
Q 2806 34 2476 -28 
Q 2147 -91 1806 -91 
Q 1078 -91 686 257 
Q 294 606 294 1247 
Q 294 1794 489 2264 
Q 684 2734 1063 3103 
Q 1306 3334 1642 3459 
Q 1978 3584 2356 3584 
Q 2950 3584 3301 3228 
Q 3653 2872 3653 2272 
Q 3653 2128 3634 1964 
Q 3616 1800 3578 1613 
z
" transform="scale(0.015625)"/>
       <path id="DejaVuSans-5d" d="M 1947 4863 
L 1947 -844 
L 622 -844 
L 622 -397 
L 1369 -397 
L 1369 4416 
L 622 4416 
L 622 4863 
L 1947 4863 
z
" transform="scale(0.015625)"/>
       <path id="DejaVuSans-38" d="M 2034 2216 
Q 1584 2216 1326 1975 
Q 1069 1734 1069 1313 
Q 1069 891 1326 650 
Q 1584 409 2034 409 
Q 2484 409 2743 651 
Q 3003 894 3003 1313 
Q 3003 1734 2745 1975 
Q 2488 2216 2034 2216 
z
M 1403 2484 
Q 997 2584 770 2862 
Q 544 3141 544 3541 
Q 544 4100 942 4425 
Q 1341 4750 2034 4750 
Q 2731 4750 3128 4425 
Q 3525 4100 3525 3541 
Q 3525 3141 3298 2862 
Q 3072 2584 2669 2484 
Q 3125 2378 3379 2068 
Q 3634 1759 3634 1313 
Q 3634 634 3220 271 
Q 2806 -91 2034 -91 
Q 1263 -91 848 271 
Q 434 634 434 1313 
Q 434 1759 690 2068 
Q 947 2378 1403 2484 
z
M 1172 3481 
Q 1172 3119 1398 2916 
Q 1625 2713 2034 2713 
Q 2441 2713 2670 2916 
Q 2900 3119 2900 3481 
Q 2900 3844 2670 4047 
Q 2441 4250 2034 4250 
Q 1625 4250 1398 4047 
Q 1172 3844 1172 3481 
z
" transform="scale(0.015625)"/>
       <path id="DejaVuSans-Oblique-50" d="M 1081 4666 
L 2541 4666 
Q 3178 4666 3512 4369 
Q 3847 4072 3847 3500 
Q 3847 2731 3353 2303 
Q 2859 1875 1966 1875 
L 1172 1875 
L 806 0 
L 172 0 
L 1081 4666 
z
M 1613 4147 
L 1275 2394 
L 2069 2394 
Q 2606 2394 2893 2669 
Q 3181 2944 3181 3456 
Q 3181 3784 2986 3965 
Q 2791 4147 2438 4147 
L 1613 4147 
z
" transform="scale(0.015625)"/>
       <path id="DejaVuSans-Oblique-68" d="M 3566 2113 
L 3156 0 
L 2578 0 
L 2988 2091 
Q 3016 2238 3031 2350 
Q 3047 2463 3047 2528 
Q 3047 2791 2881 2937 
Q 2716 3084 2419 3084 
Q 1956 3084 1617 2771 
Q 1278 2459 1178 1941 
L 800 0 
L 225 0 
L 1172 4863 
L 1747 4863 
L 1375 2950 
Q 1594 3244 1934 3414 
Q 2275 3584 2650 3584 
Q 3113 3584 3367 3334 
Q 3622 3084 3622 2631 
Q 3622 2519 3608 2391 
Q 3594 2263 3566 2113 
z
" transform="scale(0.015625)"/>
       <path id="DejaVuSans-Oblique-6f" d="M 1625 -91 
Q 1009 -91 651 289 
Q 294 669 294 1325 
Q 294 1706 417 2101 
Q 541 2497 738 2766 
Q 1047 3184 1428 3384 
Q 1809 3584 2291 3584 
Q 2888 3584 3255 3212 
Q 3622 2841 3622 2241 
Q 3622 1825 3500 1412 
Q 3378 1000 3181 728 
Q 2875 309 2494 109 
Q 2113 -91 1625 -91 
z
M 891 1344 
Q 891 869 1089 633 
Q 1288 397 1691 397 
Q 2269 397 2648 901 
Q 3028 1406 3028 2181 
Q 3028 2634 2825 2865 
Q 2622 3097 2228 3097 
Q 1903 3097 1650 2945 
Q 1397 2794 1197 2484 
Q 1050 2253 970 1956 
Q 891 1659 891 1344 
z
" transform="scale(0.015625)"/>
       <path id="DejaVuSans-Oblique-6c" d="M 1172 4863 
L 1747 4863 
L 800 0 
L 225 0 
L 1172 4863 
z
" transform="scale(0.015625)"/>
       <path id="DejaVuSans-2212" d="M 678 2272 
L 4684 2272 
L 4684 1741 
L 678 1741 
L 678 2272 
z
" transform="scale(0.015625)"/>
       <path id="DejaVuSans-39" d="M 703 97 
L 703 672 
Q 941 559 1184 500 
Q 1428 441 1663 441 
Q 2288 441 2617 861 
Q 2947 1281 2994 2138 
Q 2813 1869 2534 1725 
Q 2256 1581 1919 1581 
Q 1219 1581 811 2004 
Q 403 2428 403 3163 
Q 403 3881 828 4315 
Q 1253 4750 1959 4750 
Q 2769 4750 3195 4129 
Q 3622 3509 3622 2328 
Q 3622 1225 3098 567 
Q 2575 -91 1691 -91 
Q 1453 -91 1209 -44 
Q 966 3 703 97 
z
M 1959 2075 
Q 2384 2075 2632 2365 
Q 2881 2656 2881 3163 
Q 2881 3666 2632 3958 
Q 2384 4250 1959 4250 
Q 1534 4250 1286 3958 
Q 1038 3666 1038 3163 
Q 1038 2656 1286 2365 
Q 1534 2075 1959 2075 
z
" transform="scale(0.015625)"/>
       <path id="DejaVuSans-Oblique-72" d="M 2853 2969 
Q 2766 3016 2653 3041 
Q 2541 3066 2413 3066 
Q 1953 3066 1609 2717 
Q 1266 2369 1153 1784 
L 800 0 
L 225 0 
L 909 3500 
L 1484 3500 
L 1375 2956 
Q 1603 3259 1920 3421 
Q 2238 3584 2597 3584 
Q 2691 3584 2781 3573 
Q 2872 3563 2963 3538 
L 2853 2969 
z
" transform="scale(0.015625)"/>
       <path id="DejaVuSans-Oblique-4f" d="M 2919 4238 
Q 2400 4238 2003 3986 
Q 1606 3734 1313 3219 
Q 1125 2891 1026 2522 
Q 928 2153 928 1778 
Q 928 1128 1239 775 
Q 1550 422 2119 422 
Q 2631 422 3032 676 
Q 3434 931 3719 1434 
Q 3909 1772 4009 2142 
Q 4109 2513 4109 2881 
Q 4109 3528 3796 3883 
Q 3484 4238 2919 4238 
z
M 2100 -91 
Q 1241 -91 748 418 
Q 256 928 256 1813 
Q 256 2319 448 2847 
Q 641 3375 978 3788 
Q 1375 4272 1862 4511 
Q 2350 4750 2938 4750 
Q 3794 4750 4287 4245 
Q 4781 3741 4781 2869 
Q 4781 2331 4593 1812 
Q 4406 1294 4056 872 
Q 3656 384 3173 146 
Q 2691 -91 2100 -91 
z
" transform="scale(0.015625)"/>
       <path id="DejaVuSans-394" d="M 2188 4044 
L 906 525 
L 3472 525 
L 2188 4044 
z
M 50 0 
L 1831 4666 
L 2547 4666 
L 4325 0 
L 50 0 
z
" transform="scale(0.015625)"/>
       <path id="DejaVuSans-Oblique-74" d="M 2706 3500 
L 2619 3053 
L 1472 3053 
L 1100 1153 
Q 1081 1047 1072 975 
Q 1063 903 1063 863 
Q 1063 663 1183 572 
Q 1303 481 1569 481 
L 2150 481 
L 2053 0 
L 1503 0 
Q 991 0 739 200 
Q 488 400 488 806 
Q 488 878 497 964 
Q 506 1050 525 1153 
L 897 3053 
L 409 3053 
L 500 3500 
L 978 3500 
L 1172 4494 
L 1747 4494 
L 1556 3500 
L 2706 3500 
z
" transform="scale(0.015625)"/>
      </defs>
      <use xlink:href="#DejaVuSans-3a3" transform="translate(0 0.765625)"/>
      <use xlink:href="#DejaVuSans-5b" transform="translate(63.183594 0.765625)"/>
      <use xlink:href="#DejaVuSans-Oblique-41" transform="translate(102.197266 0.765625)"/>
      <use xlink:href="#DejaVuSans-Oblique-6d" transform="translate(170.605469 0.765625)"/>
      <use xlink:href="#DejaVuSans-Oblique-69" transform="translate(268.017578 0.765625)"/>
      <use xlink:href="#DejaVuSans-Oblique-6e" transform="translate(295.800781 0.765625)"/>
      <use xlink:href="#DejaVuSans-Oblique-65" transform="translate(359.179688 0.765625)"/>
      <use xlink:href="#DejaVuSans-5d" transform="translate(420.703125 0.765625)"/>
      <use xlink:href="#DejaVuSans-31" transform="translate(460.673828 39.046875) scale(0.7)"/>
      <use xlink:href="#DejaVuSans-2e" transform="translate(505.209961 39.046875) scale(0.7)"/>
      <use xlink:href="#DejaVuSans-38" transform="translate(525.623438 39.046875) scale(0.7)"/>
      <use xlink:href="#DejaVuSans-30" transform="translate(570.15957 39.046875) scale(0.7)"/>
      <use xlink:href="#DejaVuSans-5b" transform="translate(617.430078 0.765625)"/>
      <use xlink:href="#DejaVuSans-Oblique-50" transform="translate(656.44375 0.765625)"/>
      <use xlink:href="#DejaVuSans-Oblique-68" transform="translate(716.746484 0.765625)"/>
      <use xlink:href="#DejaVuSans-Oblique-65" transform="translate(780.125391 0.765625)"/>
      <use xlink:href="#DejaVuSans-Oblique-6e" transform="translate(841.648828 0.765625)"/>
      <use xlink:href="#DejaVuSans-Oblique-6f" transform="translate(905.027734 0.765625)"/>
      <use xlink:href="#DejaVuSans-Oblique-6c" transform="translate(966.209375 0.765625)"/>
      <use xlink:href="#DejaVuSans-5d" transform="translate(993.992578 0.765625)"/>
      <use xlink:href="#DejaVuSans-2212" transform="translate(1033.963281 39.046875) scale(0.7)"/>
      <use xlink:href="#DejaVuSans-30" transform="translate(1092.615625 39.046875) scale(0.7)"/>
      <use xlink:href="#DejaVuSans-2e" transform="translate(1137.151758 39.046875) scale(0.7)"/>
      <use xlink:href="#DejaVuSans-30" transform="translate(1159.402734 39.046875) scale(0.7)"/>
      <use xlink:href="#DejaVuSans-39" transform="translate(1203.938867 39.046875) scale(0.7)"/>
      <use xlink:href="#DejaVuSans-5b" transform="translate(1251.209375 0.765625)"/>
      <use xlink:href="#DejaVuSans-Oblique-41" transform="translate(1290.223047 0.765625)"/>
      <use xlink:href="#DejaVuSans-Oblique-72" transform="translate(1358.63125 0.765625)"/>
      <use xlink:href="#DejaVuSans-Oblique-4f" transform="translate(1399.744531 0.765625)"/>
      <use xlink:href="#DejaVuSans-Oblique-50" transform="translate(1478.455469 0.765625)"/>
      <use xlink:href="#DejaVuSans-Oblique-68" transform="translate(1538.758203 0.765625)"/>
      <use xlink:href="#DejaVuSans-5d" transform="translate(1602.137109 0.765625)"/>
      <use xlink:href="#DejaVuSans-31" transform="translate(1642.107812 39.046875) scale(0.7)"/>
      <use xlink:href="#DejaVuSans-2e" transform="translate(1686.643945 39.046875) scale(0.7)"/>
      <use xlink:href="#DejaVuSans-30" transform="translate(1708.894922 39.046875) scale(0.7)"/>
      <use xlink:href="#DejaVuSans-35" transform="translate(1753.431055 39.046875) scale(0.7)"/>
      <use xlink:href="#DejaVuSans-394" transform="translate(1800.701562 0.765625)"/>
      <use xlink:href="#DejaVuSans-Oblique-74" transform="translate(1869.109766 0.765625)"/>
      <use xlink:href="#DejaVuSans-2e" transform="translate(1908.31875 0.765625)"/>
     </g>
    </g>
    <g id="text_7">
     <!-- 1e5 -->
     <g transform="translate(264.390219 190.179129) scale(0.1 -0.1)">
      <defs>
       <path id="DejaVuSans-65" d="M 3597 1894 
L 3597 1613 
L 953 1613 
Q 991 1019 1311 708 
Q 1631 397 2203 397 
Q 2534 397 2845 478 
Q 3156 559 3463 722 
L 3463 178 
Q 3153 47 2828 -22 
Q 2503 -91 2169 -91 
Q 1331 -91 842 396 
Q 353 884 353 1716 
Q 353 2575 817 3079 
Q 1281 3584 2069 3584 
Q 2775 3584 3186 3129 
Q 3597 2675 3597 1894 
z
M 3022 2063 
Q 3016 2534 2758 2815 
Q 2500 3097 2075 3097 
Q 1594 3097 1305 2825 
Q 1016 2553 972 2059 
L 3022 2063 
z
" transform="scale(0.015625)"/>
      </defs>
      <use xlink:href="#DejaVuSans-31"/>
      <use xlink:href="#DejaVuSans-65" transform="translate(63.623047 0)"/>
      <use xlink:href="#DejaVuSans-35" transform="translate(125.146484 0)"/>
     </g>
    </g>
   </g>
   <g id="matplotlib.axis_2">
    <g id="ytick_1">
     <g id="line2d_6">
      <defs>
       <path id="mbd26cdc35b" d="M 0 0 
L -3.5 0 
" style="stroke: #000000; stroke-width: 0.8"/>
      </defs>
      <g>
       <use xlink:href="#mbd26cdc35b" x="46.965625" y="148.788058" style="stroke: #000000; stroke-width: 0.8"/>
      </g>
     </g>
     <g id="text_8">
      <!-- 100 -->
      <g transform="translate(20.878125 152.587277) scale(0.1 -0.1)">
       <use xlink:href="#DejaVuSans-31"/>
       <use xlink:href="#DejaVuSans-30" transform="translate(63.623047 0)"/>
       <use xlink:href="#DejaVuSans-30" transform="translate(127.246094 0)"/>
      </g>
     </g>
    </g>
    <g id="ytick_2">
     <g id="line2d_7">
      <g>
       <use xlink:href="#mbd26cdc35b" x="46.965625" y="121.23029" style="stroke: #000000; stroke-width: 0.8"/>
      </g>
     </g>
     <g id="text_9">
      <!-- 110 -->
      <g transform="translate(20.878125 125.029509) scale(0.1 -0.1)">
       <use xlink:href="#DejaVuSans-31"/>
       <use xlink:href="#DejaVuSans-31" transform="translate(63.623047 0)"/>
       <use xlink:href="#DejaVuSans-30" transform="translate(127.246094 0)"/>
      </g>
     </g>
    </g>
    <g id="ytick_3">
     <g id="line2d_8">
      <g>
       <use xlink:href="#mbd26cdc35b" x="46.965625" y="93.672522" style="stroke: #000000; stroke-width: 0.8"/>
      </g>
     </g>
     <g id="text_10">
      <!-- 120 -->
      <g transform="translate(20.878125 97.471741) scale(0.1 -0.1)">
       <use xlink:href="#DejaVuSans-31"/>
       <use xlink:href="#DejaVuSans-32" transform="translate(63.623047 0)"/>
       <use xlink:href="#DejaVuSans-30" transform="translate(127.246094 0)"/>
      </g>
     </g>
    </g>
    <g id="ytick_4">
     <g id="line2d_9">
      <g>
       <use xlink:href="#mbd26cdc35b" x="46.965625" y="66.114754" style="stroke: #000000; stroke-width: 0.8"/>
      </g>
     </g>
     <g id="text_11">
      <!-- 130 -->
      <g transform="translate(20.878125 69.913973) scale(0.1 -0.1)">
       <defs>
        <path id="DejaVuSans-33" d="M 2597 2516 
Q 3050 2419 3304 2112 
Q 3559 1806 3559 1356 
Q 3559 666 3084 287 
Q 2609 -91 1734 -91 
Q 1441 -91 1130 -33 
Q 819 25 488 141 
L 488 750 
Q 750 597 1062 519 
Q 1375 441 1716 441 
Q 2309 441 2620 675 
Q 2931 909 2931 1356 
Q 2931 1769 2642 2001 
Q 2353 2234 1838 2234 
L 1294 2234 
L 1294 2753 
L 1863 2753 
Q 2328 2753 2575 2939 
Q 2822 3125 2822 3475 
Q 2822 3834 2567 4026 
Q 2313 4219 1838 4219 
Q 1578 4219 1281 4162 
Q 984 4106 628 3988 
L 628 4550 
Q 988 4650 1302 4700 
Q 1616 4750 1894 4750 
Q 2613 4750 3031 4423 
Q 3450 4097 3450 3541 
Q 3450 3153 3228 2886 
Q 3006 2619 2597 2516 
z
" transform="scale(0.015625)"/>
       </defs>
       <use xlink:href="#DejaVuSans-31"/>
       <use xlink:href="#DejaVuSans-33" transform="translate(63.623047 0)"/>
       <use xlink:href="#DejaVuSans-30" transform="translate(127.246094 0)"/>
      </g>
     </g>
    </g>
    <g id="ytick_5">
     <g id="line2d_10">
      <g>
       <use xlink:href="#mbd26cdc35b" x="46.965625" y="38.556987" style="stroke: #000000; stroke-width: 0.8"/>
      </g>
     </g>
     <g id="text_12">
      <!-- 140 -->
      <g transform="translate(20.878125 42.356205) scale(0.1 -0.1)">
       <defs>
        <path id="DejaVuSans-34" d="M 2419 4116 
L 825 1625 
L 2419 1625 
L 2419 4116 
z
M 2253 4666 
L 3047 4666 
L 3047 1625 
L 3713 1625 
L 3713 1100 
L 3047 1100 
L 3047 0 
L 2419 0 
L 2419 1100 
L 313 1100 
L 313 1709 
L 2253 4666 
z
" transform="scale(0.015625)"/>
       </defs>
       <use xlink:href="#DejaVuSans-31"/>
       <use xlink:href="#DejaVuSans-34" transform="translate(63.623047 0)"/>
       <use xlink:href="#DejaVuSans-30" transform="translate(127.246094 0)"/>
      </g>
     </g>
    </g>
    <g id="ytick_6">
     <g id="line2d_11">
      <g>
       <use xlink:href="#mbd26cdc35b" x="46.965625" y="10.999219" style="stroke: #000000; stroke-width: 0.8"/>
      </g>
     </g>
     <g id="text_13">
      <!-- 150 -->
      <g transform="translate(20.878125 14.798437) scale(0.1 -0.1)">
       <use xlink:href="#DejaVuSans-31"/>
       <use xlink:href="#DejaVuSans-35" transform="translate(63.623047 0)"/>
       <use xlink:href="#DejaVuSans-30" transform="translate(127.246094 0)"/>
      </g>
     </g>
    </g>
    <g id="text_14">
     <!-- Shifted [Product] / mM -->
     <g transform="translate(14.798438 141.853723) rotate(-90) scale(0.1 -0.1)">
      <defs>
       <path id="DejaVuSans-53" d="M 3425 4513 
L 3425 3897 
Q 3066 4069 2747 4153 
Q 2428 4238 2131 4238 
Q 1616 4238 1336 4038 
Q 1056 3838 1056 3469 
Q 1056 3159 1242 3001 
Q 1428 2844 1947 2747 
L 2328 2669 
Q 3034 2534 3370 2195 
Q 3706 1856 3706 1288 
Q 3706 609 3251 259 
Q 2797 -91 1919 -91 
Q 1588 -91 1214 -16 
Q 841 59 441 206 
L 441 856 
Q 825 641 1194 531 
Q 1563 422 1919 422 
Q 2459 422 2753 634 
Q 3047 847 3047 1241 
Q 3047 1584 2836 1778 
Q 2625 1972 2144 2069 
L 1759 2144 
Q 1053 2284 737 2584 
Q 422 2884 422 3419 
Q 422 4038 858 4394 
Q 1294 4750 2059 4750 
Q 2388 4750 2728 4690 
Q 3069 4631 3425 4513 
z
" transform="scale(0.015625)"/>
       <path id="DejaVuSans-68" d="M 3513 2113 
L 3513 0 
L 2938 0 
L 2938 2094 
Q 2938 2591 2744 2837 
Q 2550 3084 2163 3084 
Q 1697 3084 1428 2787 
Q 1159 2491 1159 1978 
L 1159 0 
L 581 0 
L 581 4863 
L 1159 4863 
L 1159 2956 
Q 1366 3272 1645 3428 
Q 1925 3584 2291 3584 
Q 2894 3584 3203 3211 
Q 3513 2838 3513 2113 
z
" transform="scale(0.015625)"/>
       <path id="DejaVuSans-69" d="M 603 3500 
L 1178 3500 
L 1178 0 
L 603 0 
L 603 3500 
z
M 603 4863 
L 1178 4863 
L 1178 4134 
L 603 4134 
L 603 4863 
z
" transform="scale(0.015625)"/>
       <path id="DejaVuSans-66" d="M 2375 4863 
L 2375 4384 
L 1825 4384 
Q 1516 4384 1395 4259 
Q 1275 4134 1275 3809 
L 1275 3500 
L 2222 3500 
L 2222 3053 
L 1275 3053 
L 1275 0 
L 697 0 
L 697 3053 
L 147 3053 
L 147 3500 
L 697 3500 
L 697 3744 
Q 697 4328 969 4595 
Q 1241 4863 1831 4863 
L 2375 4863 
z
" transform="scale(0.015625)"/>
       <path id="DejaVuSans-74" d="M 1172 4494 
L 1172 3500 
L 2356 3500 
L 2356 3053 
L 1172 3053 
L 1172 1153 
Q 1172 725 1289 603 
Q 1406 481 1766 481 
L 2356 481 
L 2356 0 
L 1766 0 
Q 1100 0 847 248 
Q 594 497 594 1153 
L 594 3053 
L 172 3053 
L 172 3500 
L 594 3500 
L 594 4494 
L 1172 4494 
z
" transform="scale(0.015625)"/>
       <path id="DejaVuSans-64" d="M 2906 2969 
L 2906 4863 
L 3481 4863 
L 3481 0 
L 2906 0 
L 2906 525 
Q 2725 213 2448 61 
Q 2172 -91 1784 -91 
Q 1150 -91 751 415 
Q 353 922 353 1747 
Q 353 2572 751 3078 
Q 1150 3584 1784 3584 
Q 2172 3584 2448 3432 
Q 2725 3281 2906 2969 
z
M 947 1747 
Q 947 1113 1208 752 
Q 1469 391 1925 391 
Q 2381 391 2643 752 
Q 2906 1113 2906 1747 
Q 2906 2381 2643 2742 
Q 2381 3103 1925 3103 
Q 1469 3103 1208 2742 
Q 947 2381 947 1747 
z
" transform="scale(0.015625)"/>
       <path id="DejaVuSans-20" transform="scale(0.015625)"/>
       <path id="DejaVuSans-50" d="M 1259 4147 
L 1259 2394 
L 2053 2394 
Q 2494 2394 2734 2622 
Q 2975 2850 2975 3272 
Q 2975 3691 2734 3919 
Q 2494 4147 2053 4147 
L 1259 4147 
z
M 628 4666 
L 2053 4666 
Q 2838 4666 3239 4311 
Q 3641 3956 3641 3272 
Q 3641 2581 3239 2228 
Q 2838 1875 2053 1875 
L 1259 1875 
L 1259 0 
L 628 0 
L 628 4666 
z
" transform="scale(0.015625)"/>
       <path id="DejaVuSans-72" d="M 2631 2963 
Q 2534 3019 2420 3045 
Q 2306 3072 2169 3072 
Q 1681 3072 1420 2755 
Q 1159 2438 1159 1844 
L 1159 0 
L 581 0 
L 581 3500 
L 1159 3500 
L 1159 2956 
Q 1341 3275 1631 3429 
Q 1922 3584 2338 3584 
Q 2397 3584 2469 3576 
Q 2541 3569 2628 3553 
L 2631 2963 
z
" transform="scale(0.015625)"/>
       <path id="DejaVuSans-6f" d="M 1959 3097 
Q 1497 3097 1228 2736 
Q 959 2375 959 1747 
Q 959 1119 1226 758 
Q 1494 397 1959 397 
Q 2419 397 2687 759 
Q 2956 1122 2956 1747 
Q 2956 2369 2687 2733 
Q 2419 3097 1959 3097 
z
M 1959 3584 
Q 2709 3584 3137 3096 
Q 3566 2609 3566 1747 
Q 3566 888 3137 398 
Q 2709 -91 1959 -91 
Q 1206 -91 779 398 
Q 353 888 353 1747 
Q 353 2609 779 3096 
Q 1206 3584 1959 3584 
z
" transform="scale(0.015625)"/>
       <path id="DejaVuSans-75" d="M 544 1381 
L 544 3500 
L 1119 3500 
L 1119 1403 
Q 1119 906 1312 657 
Q 1506 409 1894 409 
Q 2359 409 2629 706 
Q 2900 1003 2900 1516 
L 2900 3500 
L 3475 3500 
L 3475 0 
L 2900 0 
L 2900 538 
Q 2691 219 2414 64 
Q 2138 -91 1772 -91 
Q 1169 -91 856 284 
Q 544 659 544 1381 
z
M 1991 3584 
L 1991 3584 
z
" transform="scale(0.015625)"/>
       <path id="DejaVuSans-63" d="M 3122 3366 
L 3122 2828 
Q 2878 2963 2633 3030 
Q 2388 3097 2138 3097 
Q 1578 3097 1268 2742 
Q 959 2388 959 1747 
Q 959 1106 1268 751 
Q 1578 397 2138 397 
Q 2388 397 2633 464 
Q 2878 531 3122 666 
L 3122 134 
Q 2881 22 2623 -34 
Q 2366 -91 2075 -91 
Q 1284 -91 818 406 
Q 353 903 353 1747 
Q 353 2603 823 3093 
Q 1294 3584 2113 3584 
Q 2378 3584 2631 3529 
Q 2884 3475 3122 3366 
z
" transform="scale(0.015625)"/>
       <path id="DejaVuSans-2f" d="M 1625 4666 
L 2156 4666 
L 531 -594 
L 0 -594 
L 1625 4666 
z
" transform="scale(0.015625)"/>
       <path id="DejaVuSans-6d" d="M 3328 2828 
Q 3544 3216 3844 3400 
Q 4144 3584 4550 3584 
Q 5097 3584 5394 3201 
Q 5691 2819 5691 2113 
L 5691 0 
L 5113 0 
L 5113 2094 
Q 5113 2597 4934 2840 
Q 4756 3084 4391 3084 
Q 3944 3084 3684 2787 
Q 3425 2491 3425 1978 
L 3425 0 
L 2847 0 
L 2847 2094 
Q 2847 2600 2669 2842 
Q 2491 3084 2119 3084 
Q 1678 3084 1418 2786 
Q 1159 2488 1159 1978 
L 1159 0 
L 581 0 
L 581 3500 
L 1159 3500 
L 1159 2956 
Q 1356 3278 1631 3431 
Q 1906 3584 2284 3584 
Q 2666 3584 2933 3390 
Q 3200 3197 3328 2828 
z
" transform="scale(0.015625)"/>
       <path id="DejaVuSans-4d" d="M 628 4666 
L 1569 4666 
L 2759 1491 
L 3956 4666 
L 4897 4666 
L 4897 0 
L 4281 0 
L 4281 4097 
L 3078 897 
L 2444 897 
L 1241 4097 
L 1241 0 
L 628 0 
L 628 4666 
z
" transform="scale(0.015625)"/>
      </defs>
      <use xlink:href="#DejaVuSans-53"/>
      <use xlink:href="#DejaVuSans-68" transform="translate(63.476562 0)"/>
      <use xlink:href="#DejaVuSans-69" transform="translate(126.855469 0)"/>
      <use xlink:href="#DejaVuSans-66" transform="translate(154.638672 0)"/>
      <use xlink:href="#DejaVuSans-74" transform="translate(188.09375 0)"/>
      <use xlink:href="#DejaVuSans-65" transform="translate(227.302734 0)"/>
      <use xlink:href="#DejaVuSans-64" transform="translate(288.826172 0)"/>
      <use xlink:href="#DejaVuSans-20" transform="translate(352.302734 0)"/>
      <use xlink:href="#DejaVuSans-5b" transform="translate(384.089844 0)"/>
      <use xlink:href="#DejaVuSans-50" transform="translate(423.103516 0)"/>
      <use xlink:href="#DejaVuSans-72" transform="translate(481.65625 0)"/>
      <use xlink:href="#DejaVuSans-6f" transform="translate(520.519531 0)"/>
      <use xlink:href="#DejaVuSans-64" transform="translate(581.701172 0)"/>
      <use xlink:href="#DejaVuSans-75" transform="translate(645.177734 0)"/>
      <use xlink:href="#DejaVuSans-63" transform="translate(708.556641 0)"/>
      <use xlink:href="#DejaVuSans-74" transform="translate(763.537109 0)"/>
      <use xlink:href="#DejaVuSans-5d" transform="translate(802.746094 0)"/>
      <use xlink:href="#DejaVuSans-20" transform="translate(841.759766 0)"/>
      <use xlink:href="#DejaVuSans-2f" transform="translate(873.546875 0)"/>
      <use xlink:href="#DejaVuSans-20" transform="translate(907.238281 0)"/>
      <use xlink:href="#DejaVuSans-6d" transform="translate(939.025391 0)"/>
      <use xlink:href="#DejaVuSans-4d" transform="translate(1036.4375 0)"/>
     </g>
    </g>
   </g>
   <g id="line2d_12">
    <path d="M 46.965625 154.067472 
L 60.789302 151.738248 
L 79.589173 140.578764 
L 92.924867 132.299824 
L 103.463174 125.761169 
L 111.822557 119.069388 
L 118.814016 114.238442 
L 124.563407 110.154234 
L 129.55066 107.656172 
L 134.049229 104.188991 
L 137.892848 101.970252 
L 141.341416 99.701579 
L 144.448641 96.724983 
L 147.06336 94.359221 
L 149.36492 92.613441 
L 151.514567 91.141989 
L 153.379522 89.090214 
L 155.028285 87.531371 
L 156.568223 86.386721 
L 157.934609 85.411341 
L 159.145436 83.354994 
L 160.235742 82.242914 
L 161.196738 81.160288 
L 162.047404 79.763929 
L 162.814979 78.473875 
L 163.455957 77.102689 
L 164.058269 77.385782 
L 164.618168 75.47172 
L 165.054811 74.000629 
L 165.458546 74.358329 
L 165.83721 73.054417 
L 166.19304 73.140435 
L 166.50881 71.999098 
" clip-path="url(#pd4492ad353)" style="fill: none; stroke: #1f77b4; stroke-width: 0.7; stroke-linecap: square"/>
    <defs>
     <path id="m376b057c2d" d="M 0 0.9 
C 0.238683 0.9 0.467622 0.80517 0.636396 0.636396 
C 0.80517 0.467622 0.9 0.238683 0.9 0 
C 0.9 -0.238683 0.80517 -0.467622 0.636396 -0.636396 
C 0.467622 -0.80517 0.238683 -0.9 0 -0.9 
C -0.238683 -0.9 -0.467622 -0.80517 -0.636396 -0.636396 
C -0.80517 -0.467622 -0.9 -0.238683 -0.9 0 
C -0.9 0.238683 -0.80517 0.467622 -0.636396 0.636396 
C -0.467622 0.80517 -0.238683 0.9 0 0.9 
z
" style="stroke: #1f77b4"/>
    </defs>
    <g clip-path="url(#pd4492ad353)">
     <use xlink:href="#m376b057c2d" x="46.965625" y="154.067472" style="fill: #1f77b4; stroke: #1f77b4"/>
     <use xlink:href="#m376b057c2d" x="60.789302" y="151.738248" style="fill: #1f77b4; stroke: #1f77b4"/>
     <use xlink:href="#m376b057c2d" x="79.589173" y="140.578764" style="fill: #1f77b4; stroke: #1f77b4"/>
     <use xlink:href="#m376b057c2d" x="92.924867" y="132.299824" style="fill: #1f77b4; stroke: #1f77b4"/>
     <use xlink:href="#m376b057c2d" x="103.463174" y="125.761169" style="fill: #1f77b4; stroke: #1f77b4"/>
     <use xlink:href="#m376b057c2d" x="111.822557" y="119.069388" style="fill: #1f77b4; stroke: #1f77b4"/>
     <use xlink:href="#m376b057c2d" x="118.814016" y="114.238442" style="fill: #1f77b4; stroke: #1f77b4"/>
     <use xlink:href="#m376b057c2d" x="124.563407" y="110.154234" style="fill: #1f77b4; stroke: #1f77b4"/>
     <use xlink:href="#m376b057c2d" x="129.55066" y="107.656172" style="fill: #1f77b4; stroke: #1f77b4"/>
     <use xlink:href="#m376b057c2d" x="134.049229" y="104.188991" style="fill: #1f77b4; stroke: #1f77b4"/>
     <use xlink:href="#m376b057c2d" x="137.892848" y="101.970252" style="fill: #1f77b4; stroke: #1f77b4"/>
     <use xlink:href="#m376b057c2d" x="141.341416" y="99.701579" style="fill: #1f77b4; stroke: #1f77b4"/>
     <use xlink:href="#m376b057c2d" x="144.448641" y="96.724983" style="fill: #1f77b4; stroke: #1f77b4"/>
     <use xlink:href="#m376b057c2d" x="147.06336" y="94.359221" style="fill: #1f77b4; stroke: #1f77b4"/>
     <use xlink:href="#m376b057c2d" x="149.36492" y="92.613441" style="fill: #1f77b4; stroke: #1f77b4"/>
     <use xlink:href="#m376b057c2d" x="151.514567" y="91.141989" style="fill: #1f77b4; stroke: #1f77b4"/>
     <use xlink:href="#m376b057c2d" x="153.379522" y="89.090214" style="fill: #1f77b4; stroke: #1f77b4"/>
     <use xlink:href="#m376b057c2d" x="155.028285" y="87.531371" style="fill: #1f77b4; stroke: #1f77b4"/>
     <use xlink:href="#m376b057c2d" x="156.568223" y="86.386721" style="fill: #1f77b4; stroke: #1f77b4"/>
     <use xlink:href="#m376b057c2d" x="157.934609" y="85.411341" style="fill: #1f77b4; stroke: #1f77b4"/>
     <use xlink:href="#m376b057c2d" x="159.145436" y="83.354994" style="fill: #1f77b4; stroke: #1f77b4"/>
     <use xlink:href="#m376b057c2d" x="160.235742" y="82.242914" style="fill: #1f77b4; stroke: #1f77b4"/>
     <use xlink:href="#m376b057c2d" x="161.196738" y="81.160288" style="fill: #1f77b4; stroke: #1f77b4"/>
     <use xlink:href="#m376b057c2d" x="162.047404" y="79.763929" style="fill: #1f77b4; stroke: #1f77b4"/>
     <use xlink:href="#m376b057c2d" x="162.814979" y="78.473875" style="fill: #1f77b4; stroke: #1f77b4"/>
     <use xlink:href="#m376b057c2d" x="163.455957" y="77.102689" style="fill: #1f77b4; stroke: #1f77b4"/>
     <use xlink:href="#m376b057c2d" x="164.058269" y="77.385782" style="fill: #1f77b4; stroke: #1f77b4"/>
     <use xlink:href="#m376b057c2d" x="164.618168" y="75.47172" style="fill: #1f77b4; stroke: #1f77b4"/>
     <use xlink:href="#m376b057c2d" x="165.054811" y="74.000629" style="fill: #1f77b4; stroke: #1f77b4"/>
     <use xlink:href="#m376b057c2d" x="165.458546" y="74.358329" style="fill: #1f77b4; stroke: #1f77b4"/>
     <use xlink:href="#m376b057c2d" x="165.83721" y="73.054417" style="fill: #1f77b4; stroke: #1f77b4"/>
     <use xlink:href="#m376b057c2d" x="166.19304" y="73.140435" style="fill: #1f77b4; stroke: #1f77b4"/>
     <use xlink:href="#m376b057c2d" x="166.50881" y="71.999098" style="fill: #1f77b4; stroke: #1f77b4"/>
    </g>
   </g>
   <g id="line2d_13">
    <path d="M 46.965625 154.067472 
L 96.29997 124.911462 
L 129.325888 104.76635 
L 153.981219 88.638148 
L 173.668948 76.231291 
L 188.933794 65.568113 
L 201.342601 56.647105 
L 212.003983 50.072224 
L 220.749322 42.524027 
L 228.265092 37.486244 
L 234.77504 32.143498 
L 240.642674 27.750777 
L 245.684354 24.747035 
L 250.298108 22.096892 
L 254.559913 17.844221 
L 258.280375 15.551294 
" clip-path="url(#pd4492ad353)" style="fill: none; stroke: #ff7f0e; stroke-width: 0.7; stroke-linecap: square"/>
    <defs>
     <path id="m8a6694f38c" d="M 0 0.9 
C 0.238683 0.9 0.467622 0.80517 0.636396 0.636396 
C 0.80517 0.467622 0.9 0.238683 0.9 0 
C 0.9 -0.238683 0.80517 -0.467622 0.636396 -0.636396 
C 0.467622 -0.80517 0.238683 -0.9 0 -0.9 
C -0.238683 -0.9 -0.467622 -0.80517 -0.636396 -0.636396 
C -0.80517 -0.467622 -0.9 -0.238683 -0.9 0 
C -0.9 0.238683 -0.80517 0.467622 -0.636396 0.636396 
C -0.467622 0.80517 -0.238683 0.9 0 0.9 
z
" style="stroke: #ff7f0e"/>
    </defs>
    <g clip-path="url(#pd4492ad353)">
     <use xlink:href="#m8a6694f38c" x="46.965625" y="154.067472" style="fill: #ff7f0e; stroke: #ff7f0e"/>
     <use xlink:href="#m8a6694f38c" x="96.29997" y="124.911462" style="fill: #ff7f0e; stroke: #ff7f0e"/>
     <use xlink:href="#m8a6694f38c" x="129.325888" y="104.76635" style="fill: #ff7f0e; stroke: #ff7f0e"/>
     <use xlink:href="#m8a6694f38c" x="153.981219" y="88.638148" style="fill: #ff7f0e; stroke: #ff7f0e"/>
     <use xlink:href="#m8a6694f38c" x="173.668948" y="76.231291" style="fill: #ff7f0e; stroke: #ff7f0e"/>
     <use xlink:href="#m8a6694f38c" x="188.933794" y="65.568113" style="fill: #ff7f0e; stroke: #ff7f0e"/>
     <use xlink:href="#m8a6694f38c" x="201.342601" y="56.647105" style="fill: #ff7f0e; stroke: #ff7f0e"/>
     <use xlink:href="#m8a6694f38c" x="212.003983" y="50.072224" style="fill: #ff7f0e; stroke: #ff7f0e"/>
     <use xlink:href="#m8a6694f38c" x="220.749322" y="42.524027" style="fill: #ff7f0e; stroke: #ff7f0e"/>
     <use xlink:href="#m8a6694f38c" x="228.265092" y="37.486244" style="fill: #ff7f0e; stroke: #ff7f0e"/>
     <use xlink:href="#m8a6694f38c" x="234.77504" y="32.143498" style="fill: #ff7f0e; stroke: #ff7f0e"/>
     <use xlink:href="#m8a6694f38c" x="240.642674" y="27.750777" style="fill: #ff7f0e; stroke: #ff7f0e"/>
     <use xlink:href="#m8a6694f38c" x="245.684354" y="24.747035" style="fill: #ff7f0e; stroke: #ff7f0e"/>
     <use xlink:href="#m8a6694f38c" x="250.298108" y="22.096892" style="fill: #ff7f0e; stroke: #ff7f0e"/>
     <use xlink:href="#m8a6694f38c" x="254.559913" y="17.844221" style="fill: #ff7f0e; stroke: #ff7f0e"/>
     <use xlink:href="#m8a6694f38c" x="258.280375" y="15.551294" style="fill: #ff7f0e; stroke: #ff7f0e"/>
    </g>
   </g>
   <g id="line2d_14">
    <path d="M 46.965625 154.067472 
L 50.629792 155.88584 
L 54.065519 152.792584 
L 57.229229 151.478029 
L 60.28435 149.806399 
L 63.085833 148.266322 
L 65.76823 147.059033 
L 68.395709 146.255544 
L 70.82587 144.580806 
L 73.159904 143.971092 
L 75.484471 142.760442 
L 77.651971 142.409937 
L 79.684599 139.445268 
L 81.597695 138.089071 
L 83.368781 137.049745 
L 85.079082 136.511786 
L 86.724153 135.176099 
L 88.305777 133.7951 
L 89.73525 132.155265 
L 91.09775 131.577583 
L 92.425146 129.981972 
L 93.643844 128.953906 
L 94.805621 128.08823 
L 95.947064 127.590393 
L 97.015648 126.693273 
L 98.007424 125.01471 
L 98.982018 124.989407 
L 99.888754 123.7097 
L 100.764587 123.602146 
L 101.635247 123.858563 
L 102.504317 122.561906 
" clip-path="url(#pd4492ad353)" style="fill: none; stroke: #2ca02c; stroke-width: 0.7; stroke-linecap: square"/>
    <defs>
     <path id="m041ab50e4e" d="M 0 0.9 
C 0.238683 0.9 0.467622 0.80517 0.636396 0.636396 
C 0.80517 0.467622 0.9 0.238683 0.9 0 
C 0.9 -0.238683 0.80517 -0.467622 0.636396 -0.636396 
C 0.467622 -0.80517 0.238683 -0.9 0 -0.9 
C -0.238683 -0.9 -0.467622 -0.80517 -0.636396 -0.636396 
C -0.80517 -0.467622 -0.9 -0.238683 -0.9 0 
C -0.9 0.238683 -0.80517 0.467622 -0.636396 0.636396 
C -0.467622 0.80517 -0.238683 0.9 0 0.9 
z
" style="stroke: #2ca02c"/>
    </defs>
    <g clip-path="url(#pd4492ad353)">
     <use xlink:href="#m041ab50e4e" x="46.965625" y="154.067472" style="fill: #2ca02c; stroke: #2ca02c"/>
     <use xlink:href="#m041ab50e4e" x="50.629792" y="155.88584" style="fill: #2ca02c; stroke: #2ca02c"/>
     <use xlink:href="#m041ab50e4e" x="54.065519" y="152.792584" style="fill: #2ca02c; stroke: #2ca02c"/>
     <use xlink:href="#m041ab50e4e" x="57.229229" y="151.478029" style="fill: #2ca02c; stroke: #2ca02c"/>
     <use xlink:href="#m041ab50e4e" x="60.28435" y="149.806399" style="fill: #2ca02c; stroke: #2ca02c"/>
     <use xlink:href="#m041ab50e4e" x="63.085833" y="148.266322" style="fill: #2ca02c; stroke: #2ca02c"/>
     <use xlink:href="#m041ab50e4e" x="65.76823" y="147.059033" style="fill: #2ca02c; stroke: #2ca02c"/>
     <use xlink:href="#m041ab50e4e" x="68.395709" y="146.255544" style="fill: #2ca02c; stroke: #2ca02c"/>
     <use xlink:href="#m041ab50e4e" x="70.82587" y="144.580806" style="fill: #2ca02c; stroke: #2ca02c"/>
     <use xlink:href="#m041ab50e4e" x="73.159904" y="143.971092" style="fill: #2ca02c; stroke: #2ca02c"/>
     <use xlink:href="#m041ab50e4e" x="75.484471" y="142.760442" style="fill: #2ca02c; stroke: #2ca02c"/>
     <use xlink:href="#m041ab50e4e" x="77.651971" y="142.409937" style="fill: #2ca02c; stroke: #2ca02c"/>
     <use xlink:href="#m041ab50e4e" x="79.684599" y="139.445268" style="fill: #2ca02c; stroke: #2ca02c"/>
     <use xlink:href="#m041ab50e4e" x="81.597695" y="138.089071" style="fill: #2ca02c; stroke: #2ca02c"/>
     <use xlink:href="#m041ab50e4e" x="83.368781" y="137.049745" style="fill: #2ca02c; stroke: #2ca02c"/>
     <use xlink:href="#m041ab50e4e" x="85.079082" y="136.511786" style="fill: #2ca02c; stroke: #2ca02c"/>
     <use xlink:href="#m041ab50e4e" x="86.724153" y="135.176099" style="fill: #2ca02c; stroke: #2ca02c"/>
     <use xlink:href="#m041ab50e4e" x="88.305777" y="133.7951" style="fill: #2ca02c; stroke: #2ca02c"/>
     <use xlink:href="#m041ab50e4e" x="89.73525" y="132.155265" style="fill: #2ca02c; stroke: #2ca02c"/>
     <use xlink:href="#m041ab50e4e" x="91.09775" y="131.577583" style="fill: #2ca02c; stroke: #2ca02c"/>
     <use xlink:href="#m041ab50e4e" x="92.425146" y="129.981972" style="fill: #2ca02c; stroke: #2ca02c"/>
     <use xlink:href="#m041ab50e4e" x="93.643844" y="128.953906" style="fill: #2ca02c; stroke: #2ca02c"/>
     <use xlink:href="#m041ab50e4e" x="94.805621" y="128.08823" style="fill: #2ca02c; stroke: #2ca02c"/>
     <use xlink:href="#m041ab50e4e" x="95.947064" y="127.590393" style="fill: #2ca02c; stroke: #2ca02c"/>
     <use xlink:href="#m041ab50e4e" x="97.015648" y="126.693273" style="fill: #2ca02c; stroke: #2ca02c"/>
     <use xlink:href="#m041ab50e4e" x="98.007424" y="125.01471" style="fill: #2ca02c; stroke: #2ca02c"/>
     <use xlink:href="#m041ab50e4e" x="98.982018" y="124.989407" style="fill: #2ca02c; stroke: #2ca02c"/>
     <use xlink:href="#m041ab50e4e" x="99.888754" y="123.7097" style="fill: #2ca02c; stroke: #2ca02c"/>
     <use xlink:href="#m041ab50e4e" x="100.764587" y="123.602146" style="fill: #2ca02c; stroke: #2ca02c"/>
     <use xlink:href="#m041ab50e4e" x="101.635247" y="123.858563" style="fill: #2ca02c; stroke: #2ca02c"/>
     <use xlink:href="#m041ab50e4e" x="102.504317" y="122.561906" style="fill: #2ca02c; stroke: #2ca02c"/>
    </g>
   </g>
   <g id="line2d_15">
    <path d="M 46.965625 154.067472 
L 87.782655 127.248629 
L 114.805278 109.753879 
L 133.060451 97.385751 
L 146.711695 88.490111 
L 157.580952 81.896103 
L 165.961129 77.336628 
L 172.765755 72.491001 
L 178.385245 69.565829 
L 182.82902 66.033252 
L 186.523253 63.722738 
L 189.574769 61.993328 
L 192.170082 59.805185 
L 194.349474 58.885176 
L 196.304595 57.746987 
L 197.999733 56.86042 
L 199.39226 55.633146 
L 200.651894 55.038878 
L 201.818244 54.917099 
L 202.837254 53.802292 
L 203.708055 53.442475 
L 204.536843 52.967572 
L 205.252365 52.346777 
L 205.80167 51.982798 
L 206.334179 52.799941 
L 206.852044 52.035606 
L 207.245044 52.498517 
L 207.674174 51.687817 
L 208.057737 51.625843 
L 208.431984 50.799411 
L 208.812822 50.716617 
L 209.09097 50.653575 
L 209.409985 51.171954 
L 209.707267 50.913154 
" clip-path="url(#pd4492ad353)" style="fill: none; stroke: #d62728; stroke-width: 0.7; stroke-linecap: square"/>
    <defs>
     <path id="mc9e7582bc6" d="M 0 0.9 
C 0.238683 0.9 0.467622 0.80517 0.636396 0.636396 
C 0.80517 0.467622 0.9 0.238683 0.9 0 
C 0.9 -0.238683 0.80517 -0.467622 0.636396 -0.636396 
C 0.467622 -0.80517 0.238683 -0.9 0 -0.9 
C -0.238683 -0.9 -0.467622 -0.80517 -0.636396 -0.636396 
C -0.80517 -0.467622 -0.9 -0.238683 -0.9 0 
C -0.9 0.238683 -0.80517 0.467622 -0.636396 0.636396 
C -0.467622 0.80517 -0.238683 0.9 0 0.9 
z
" style="stroke: #d62728"/>
    </defs>
    <g clip-path="url(#pd4492ad353)">
     <use xlink:href="#mc9e7582bc6" x="46.965625" y="154.067472" style="fill: #d62728; stroke: #d62728"/>
     <use xlink:href="#mc9e7582bc6" x="87.782655" y="127.248629" style="fill: #d62728; stroke: #d62728"/>
     <use xlink:href="#mc9e7582bc6" x="114.805278" y="109.753879" style="fill: #d62728; stroke: #d62728"/>
     <use xlink:href="#mc9e7582bc6" x="133.060451" y="97.385751" style="fill: #d62728; stroke: #d62728"/>
     <use xlink:href="#mc9e7582bc6" x="146.711695" y="88.490111" style="fill: #d62728; stroke: #d62728"/>
     <use xlink:href="#mc9e7582bc6" x="157.580952" y="81.896103" style="fill: #d62728; stroke: #d62728"/>
     <use xlink:href="#mc9e7582bc6" x="165.961129" y="77.336628" style="fill: #d62728; stroke: #d62728"/>
     <use xlink:href="#mc9e7582bc6" x="172.765755" y="72.491001" style="fill: #d62728; stroke: #d62728"/>
     <use xlink:href="#mc9e7582bc6" x="178.385245" y="69.565829" style="fill: #d62728; stroke: #d62728"/>
     <use xlink:href="#mc9e7582bc6" x="182.82902" y="66.033252" style="fill: #d62728; stroke: #d62728"/>
     <use xlink:href="#mc9e7582bc6" x="186.523253" y="63.722738" style="fill: #d62728; stroke: #d62728"/>
     <use xlink:href="#mc9e7582bc6" x="189.574769" y="61.993328" style="fill: #d62728; stroke: #d62728"/>
     <use xlink:href="#mc9e7582bc6" x="192.170082" y="59.805185" style="fill: #d62728; stroke: #d62728"/>
     <use xlink:href="#mc9e7582bc6" x="194.349474" y="58.885176" style="fill: #d62728; stroke: #d62728"/>
     <use xlink:href="#mc9e7582bc6" x="196.304595" y="57.746987" style="fill: #d62728; stroke: #d62728"/>
     <use xlink:href="#mc9e7582bc6" x="197.999733" y="56.86042" style="fill: #d62728; stroke: #d62728"/>
     <use xlink:href="#mc9e7582bc6" x="199.39226" y="55.633146" style="fill: #d62728; stroke: #d62728"/>
     <use xlink:href="#mc9e7582bc6" x="200.651894" y="55.038878" style="fill: #d62728; stroke: #d62728"/>
     <use xlink:href="#mc9e7582bc6" x="201.818244" y="54.917099" style="fill: #d62728; stroke: #d62728"/>
     <use xlink:href="#mc9e7582bc6" x="202.837254" y="53.802292" style="fill: #d62728; stroke: #d62728"/>
     <use xlink:href="#mc9e7582bc6" x="203.708055" y="53.442475" style="fill: #d62728; stroke: #d62728"/>
     <use xlink:href="#mc9e7582bc6" x="204.536843" y="52.967572" style="fill: #d62728; stroke: #d62728"/>
     <use xlink:href="#mc9e7582bc6" x="205.252365" y="52.346777" style="fill: #d62728; stroke: #d62728"/>
     <use xlink:href="#mc9e7582bc6" x="205.80167" y="51.982798" style="fill: #d62728; stroke: #d62728"/>
     <use xlink:href="#mc9e7582bc6" x="206.334179" y="52.799941" style="fill: #d62728; stroke: #d62728"/>
     <use xlink:href="#mc9e7582bc6" x="206.852044" y="52.035606" style="fill: #d62728; stroke: #d62728"/>
     <use xlink:href="#mc9e7582bc6" x="207.245044" y="52.498517" style="fill: #d62728; stroke: #d62728"/>
     <use xlink:href="#mc9e7582bc6" x="207.674174" y="51.687817" style="fill: #d62728; stroke: #d62728"/>
     <use xlink:href="#mc9e7582bc6" x="208.057737" y="51.625843" style="fill: #d62728; stroke: #d62728"/>
     <use xlink:href="#mc9e7582bc6" x="208.431984" y="50.799411" style="fill: #d62728; stroke: #d62728"/>
     <use xlink:href="#mc9e7582bc6" x="208.812822" y="50.716617" style="fill: #d62728; stroke: #d62728"/>
     <use xlink:href="#mc9e7582bc6" x="209.09097" y="50.653575" style="fill: #d62728; stroke: #d62728"/>
     <use xlink:href="#mc9e7582bc6" x="209.409985" y="51.171954" style="fill: #d62728; stroke: #d62728"/>
     <use xlink:href="#mc9e7582bc6" x="209.707267" y="50.913154" style="fill: #d62728; stroke: #d62728"/>
    </g>
   </g>
   <g id="patch_3">
    <path d="M 46.965625 162.902567 
L 46.965625 8.534567 
" style="fill: none; stroke: #000000; stroke-width: 0.8; stroke-linejoin: miter; stroke-linecap: square"/>
   </g>
   <g id="patch_4">
    <path d="M 268.846113 162.902567 
L 268.846113 8.534567 
" style="fill: none; stroke: #000000; stroke-width: 0.8; stroke-linejoin: miter; stroke-linecap: square"/>
   </g>
   <g id="patch_5">
    <path d="M 46.965625 162.902567 
L 268.846113 162.902567 
" style="fill: none; stroke: #000000; stroke-width: 0.8; stroke-linejoin: miter; stroke-linecap: square"/>
   </g>
   <g id="patch_6">
    <path d="M 46.965625 8.534567 
L 268.846113 8.534567 
" style="fill: none; stroke: #000000; stroke-width: 0.8; stroke-linejoin: miter; stroke-linecap: square"/>
   </g>
   <g id="legend_1">
    <g id="patch_7">
     <path d="M 275.846113 116.574817 
L 348.5633 116.574817 
Q 350.5633 116.574817 350.5633 114.574817 
L 350.5633 56.862317 
Q 350.5633 54.862317 348.5633 54.862317 
L 275.846113 54.862317 
Q 273.846113 54.862317 273.846113 56.862317 
L 273.846113 114.574817 
Q 273.846113 116.574817 275.846113 116.574817 
z
" style="fill: #ffffff; opacity: 0.8; stroke: #cccccc; stroke-linejoin: miter"/>
    </g>
    <g id="line2d_16">
     <path d="M 277.846113 62.960754 
L 287.846113 62.960754 
L 297.846113 62.960754 
" style="fill: none; stroke: #1f77b4; stroke-width: 0.7; stroke-linecap: square"/>
     <g>
      <use xlink:href="#m376b057c2d" x="287.846113" y="62.960754" style="fill: #1f77b4; stroke: #1f77b4"/>
     </g>
    </g>
    <g id="text_15">
     <!-- Period 1 -->
     <g transform="translate(305.846113 66.460754) scale(0.1 -0.1)">
      <use xlink:href="#DejaVuSans-50"/>
      <use xlink:href="#DejaVuSans-65" transform="translate(56.677734 0)"/>
      <use xlink:href="#DejaVuSans-72" transform="translate(118.201172 0)"/>
      <use xlink:href="#DejaVuSans-69" transform="translate(159.314453 0)"/>
      <use xlink:href="#DejaVuSans-6f" transform="translate(187.097656 0)"/>
      <use xlink:href="#DejaVuSans-64" transform="translate(248.279297 0)"/>
      <use xlink:href="#DejaVuSans-20" transform="translate(311.755859 0)"/>
      <use xlink:href="#DejaVuSans-31" transform="translate(343.542969 0)"/>
     </g>
    </g>
    <g id="line2d_17">
     <path d="M 277.846113 77.638879 
L 287.846113 77.638879 
L 297.846113 77.638879 
" style="fill: none; stroke: #ff7f0e; stroke-width: 0.7; stroke-linecap: square"/>
     <g>
      <use xlink:href="#m8a6694f38c" x="287.846113" y="77.638879" style="fill: #ff7f0e; stroke: #ff7f0e"/>
     </g>
    </g>
    <g id="text_16">
     <!-- Period 2 -->
     <g transform="translate(305.846113 81.138879) scale(0.1 -0.1)">
      <use xlink:href="#DejaVuSans-50"/>
      <use xlink:href="#DejaVuSans-65" transform="translate(56.677734 0)"/>
      <use xlink:href="#DejaVuSans-72" transform="translate(118.201172 0)"/>
      <use xlink:href="#DejaVuSans-69" transform="translate(159.314453 0)"/>
      <use xlink:href="#DejaVuSans-6f" transform="translate(187.097656 0)"/>
      <use xlink:href="#DejaVuSans-64" transform="translate(248.279297 0)"/>
      <use xlink:href="#DejaVuSans-20" transform="translate(311.755859 0)"/>
      <use xlink:href="#DejaVuSans-32" transform="translate(343.542969 0)"/>
     </g>
    </g>
    <g id="line2d_18">
     <path d="M 277.846113 92.317004 
L 287.846113 92.317004 
L 297.846113 92.317004 
" style="fill: none; stroke: #2ca02c; stroke-width: 0.7; stroke-linecap: square"/>
     <g>
      <use xlink:href="#m041ab50e4e" x="287.846113" y="92.317004" style="fill: #2ca02c; stroke: #2ca02c"/>
     </g>
    </g>
    <g id="text_17">
     <!-- Period 3 -->
     <g transform="translate(305.846113 95.817004) scale(0.1 -0.1)">
      <use xlink:href="#DejaVuSans-50"/>
      <use xlink:href="#DejaVuSans-65" transform="translate(56.677734 0)"/>
      <use xlink:href="#DejaVuSans-72" transform="translate(118.201172 0)"/>
      <use xlink:href="#DejaVuSans-69" transform="translate(159.314453 0)"/>
      <use xlink:href="#DejaVuSans-6f" transform="translate(187.097656 0)"/>
      <use xlink:href="#DejaVuSans-64" transform="translate(248.279297 0)"/>
      <use xlink:href="#DejaVuSans-20" transform="translate(311.755859 0)"/>
      <use xlink:href="#DejaVuSans-33" transform="translate(343.542969 0)"/>
     </g>
    </g>
    <g id="line2d_19">
     <path d="M 277.846113 106.995129 
L 287.846113 106.995129 
L 297.846113 106.995129 
" style="fill: none; stroke: #d62728; stroke-width: 0.7; stroke-linecap: square"/>
     <g>
      <use xlink:href="#mc9e7582bc6" x="287.846113" y="106.995129" style="fill: #d62728; stroke: #d62728"/>
     </g>
    </g>
    <g id="text_18">
     <!-- Period 4 -->
     <g transform="translate(305.846113 110.495129) scale(0.1 -0.1)">
      <use xlink:href="#DejaVuSans-50"/>
      <use xlink:href="#DejaVuSans-65" transform="translate(56.677734 0)"/>
      <use xlink:href="#DejaVuSans-72" transform="translate(118.201172 0)"/>
      <use xlink:href="#DejaVuSans-69" transform="translate(159.314453 0)"/>
      <use xlink:href="#DejaVuSans-6f" transform="translate(187.097656 0)"/>
      <use xlink:href="#DejaVuSans-64" transform="translate(248.279297 0)"/>
      <use xlink:href="#DejaVuSans-20" transform="translate(311.755859 0)"/>
      <use xlink:href="#DejaVuSans-34" transform="translate(343.542969 0)"/>
     </g>
    </g>
   </g>
  </g>
 </g>
 <defs>
  <clipPath id="pd4492ad353">
   <rect x="46.965625" y="8.534567" width="221.880488" height="154.368"/>
  </clipPath>
 </defs>
</svg>
