<?xml version="1.0" encoding="utf-8" standalone="no"?>
<!DOCTYPE svg PUBLIC "-//W3C//DTD SVG 1.1//EN"
  "http://www.w3.org/Graphics/SVG/1.1/DTD/svg11.dtd">
<svg xmlns:xlink="http://www.w3.org/1999/xlink" width="360.88905pt" height="213.544562pt" viewBox="0 0 360.88905 213.544562" xmlns="http://www.w3.org/2000/svg" version="1.1">
 <metadata>
  <rdf:RDF xmlns:dc="http://purl.org/dc/elements/1.1/" xmlns:cc="http://creativecommons.org/ns#" xmlns:rdf="http://www.w3.org/1999/02/22-rdf-syntax-ns#">
   <cc:Work>
    <dc:type rdf:resource="http://purl.org/dc/dcmitype/StillImage"/>
    <dc:date>2026-01-13T17:04:53.841978</dc:date>
    <dc:format>image/svg+xml</dc:format>
    <dc:creator>
     <cc:Agent>
      <dc:title>Matplotlib v3.10.0, https://matplotlib.org/</dc:title>
     </cc:Agent>
    </dc:creator>
   </cc:Work>
  </rdf:RDF>
 </metadata>
 <defs>
  <style type="text/css">*{stroke-linejoin: round; stroke-linecap: butt}</style>
 </defs>
 <g id="figure_1">
  <g id="patch_1">
   <path d="M -0 213.544562 
L 360.88905 213.544562 
L 360.88905 0 
L -0 0 
z
" style="fill: #ffffff"/>
  </g>
  <g id="axes_1">
   <g id="patch_2">
    <path d="M 46.965625 175.166437 
L 261.853113 175.166437 
L 261.853113 20.798438 
L 46.965625 20.798438 
z
" style="fill: #ffffff"/>
   </g>
   <g id="matplotlib.axis_1">
    <g id="xtick_1">
     <g id="line2d_1">
      <defs>
       <path id="m0f4a023425" d="M 0 0 
L 0 3.5 
" style="stroke: #000000; stroke-width: 0.8"/>
      </defs>
      <g>
       <use xlink:href="#m0f4a023425" x="46.965625" y="175.166437" style="stroke: #000000; stroke-width: 0.8"/>
      </g>
     </g>
     <g id="text_1">
      <!-- 0.0 -->
      <g transform="translate(39.014063 189.764875) scale(0.1 -0.1)">
       <defs>
        <path id="DejaVuSans-30" d="M 2034 4250 
Q 1547 4250 1301 3770 
Q 1056 3291 1056 2328 
Q 1056 1369 1301 889 
Q 1547 409 2034 409 
Q 2525 409 2770 889 
Q 3016 1369 3016 2328 
Q 3016 3291 2770 3770 
Q 2525 4250 2034 4250 
z
M 2034 4750 
Q 2819 4750 3233 4129 
Q 3647 3509 3647 2328 
Q 3647 1150 3233 529 
Q 2819 -91 2034 -91 
Q 1250 -91 836 529 
Q 422 1150 422 2328 
Q 422 3509 836 4129 
Q 1250 4750 2034 4750 
z
" transform="scale(0.015625)"/>
        <path id="DejaVuSans-2e" d="M 684 794 
L 1344 794 
L 1344 0 
L 684 0 
L 684 794 
z
" transform="scale(0.015625)"/>
       </defs>
       <use xlink:href="#DejaVuSans-30"/>
       <use xlink:href="#DejaVuSans-2e" transform="translate(63.623047 0)"/>
       <use xlink:href="#DejaVuSans-30" transform="translate(95.410156 0)"/>
      </g>
     </g>
    </g>
    <g id="xtick_2">
     <g id="line2d_2">
      <g>
       <use xlink:href="#m0f4a023425" x="89.128982" y="175.166437" style="stroke: #000000; stroke-width: 0.8"/>
      </g>
     </g>
     <g id="text_2">
      <!-- 0.5 -->
      <g transform="translate(81.177419 189.764875) scale(0.1 -0.1)">
       <defs>
        <path id="DejaVuSans-35" d="M 691 4666 
L 3169 4666 
L 3169 4134 
L 1269 4134 
L 1269 2991 
Q 1406 3038 1543 3061 
Q 1681 3084 1819 3084 
Q 2600 3084 3056 2656 
Q 3513 2228 3513 1497 
Q 3513 744 3044 326 
Q 2575 -91 1722 -91 
Q 1428 -91 1123 -41 
Q 819 9 494 109 
L 494 744 
Q 775 591 1075 516 
Q 1375 441 1709 441 
Q 2250 441 2565 725 
Q 2881 1009 2881 1497 
Q 2881 1984 2565 2268 
Q 2250 2553 1709 2553 
Q 1456 2553 1204 2497 
Q 953 2441 691 2322 
L 691 4666 
z
" transform="scale(0.015625)"/>
       </defs>
       <use xlink:href="#DejaVuSans-30"/>
       <use xlink:href="#DejaVuSans-2e" transform="translate(63.623047 0)"/>
       <use xlink:href="#DejaVuSans-35" transform="translate(95.410156 0)"/>
      </g>
     </g>
    </g>
    <g id="xtick_3">
     <g id="line2d_3">
      <g>
       <use xlink:href="#m0f4a023425" x="131.292339" y="175.166437" style="stroke: #000000; stroke-width: 0.8"/>
      </g>
     </g>
     <g id="text_3">
      <!-- 1.0 -->
      <g transform="translate(123.340776 189.764875) scale(0.1 -0.1)">
       <defs>
        <path id="DejaVuSans-31" d="M 794 531 
L 1825 531 
L 1825 4091 
L 703 3866 
L 703 4441 
L 1819 4666 
L 2450 4666 
L 2450 531 
L 3481 531 
L 3481 0 
L 794 0 
L 794 531 
z
" transform="scale(0.015625)"/>
       </defs>
       <use xlink:href="#DejaVuSans-31"/>
       <use xlink:href="#DejaVuSans-2e" transform="translate(63.623047 0)"/>
       <use xlink:href="#DejaVuSans-30" transform="translate(95.410156 0)"/>
      </g>
     </g>
    </g>
    <g id="xtick_4">
     <g id="line2d_4">
      <g>
       <use xlink:href="#m0f4a023425" x="173.455695" y="175.166437" style="stroke: #000000; stroke-width: 0.8"/>
      </g>
     </g>
     <g id="text_4">
      <!-- 1.5 -->
      <g transform="translate(165.504133 189.764875) scale(0.1 -0.1)">
       <use xlink:href="#DejaVuSans-31"/>
       <use xlink:href="#DejaVuSans-2e" transform="translate(63.623047 0)"/>
       <use xlink:href="#DejaVuSans-35" transform="translate(95.410156 0)"/>
      </g>
     </g>
    </g>
    <g id="xtick_5">
     <g id="line2d_5">
      <g>
       <use xlink:href="#m0f4a023425" x="215.619052" y="175.166437" style="stroke: #000000; stroke-width: 0.8"/>
      </g>
     </g>
     <g id="text_5">
      <!-- 2.0 -->
      <g transform="translate(207.66749 189.764875) scale(0.1 -0.1)">
       <defs>
        <path id="DejaVuSans-32" d="M 1228 531 
L 3431 531 
L 3431 0 
L 469 0 
L 469 531 
Q 828 903 1448 1529 
Q 2069 2156 2228 2338 
Q 2531 2678 2651 2914 
Q 2772 3150 2772 3378 
Q 2772 3750 2511 3984 
Q 2250 4219 1831 4219 
Q 1534 4219 1204 4116 
Q 875 4013 500 3803 
L 500 4441 
Q 881 4594 1212 4672 
Q 1544 4750 1819 4750 
Q 2544 4750 2975 4387 
Q 3406 4025 3406 3419 
Q 3406 3131 3298 2873 
Q 3191 2616 2906 2266 
Q 2828 2175 2409 1742 
Q 1991 1309 1228 531 
z
" transform="scale(0.015625)"/>
       </defs>
       <use xlink:href="#DejaVuSans-32"/>
       <use xlink:href="#DejaVuSans-2e" transform="translate(63.623047 0)"/>
       <use xlink:href="#DejaVuSans-30" transform="translate(95.410156 0)"/>
      </g>
     </g>
    </g>
    <g id="xtick_6">
     <g id="line2d_6">
      <g>
       <use xlink:href="#m0f4a023425" x="257.782409" y="175.166437" style="stroke: #000000; stroke-width: 0.8"/>
      </g>
     </g>
     <g id="text_6">
      <!-- 2.5 -->
      <g transform="translate(249.830847 189.764875) scale(0.1 -0.1)">
       <use xlink:href="#DejaVuSans-32"/>
       <use xlink:href="#DejaVuSans-2e" transform="translate(63.623047 0)"/>
       <use xlink:href="#DejaVuSans-35" transform="translate(95.410156 0)"/>
      </g>
     </g>
    </g>
    <g id="text_7">
     <!-- $Σ[Amine]^{0.00}[Phenol]^{0.00}[ArOPh]^{0.00}Δt$. -->
     <g transform="translate(60.209369 204.264875) scale(0.1 -0.1)">
      <defs>
       <path id="DejaVuSans-3a3" d="M 1353 531 
L 3634 531 
L 3634 0 
L 628 0 
L 628 531 
L 2125 2481 
L 628 4134 
L 628 4666 
L 3578 4666 
L 3578 4134 
L 1353 4134 
L 2850 2494 
L 1353 531 
z
" transform="scale(0.015625)"/>
       <path id="DejaVuSans-5b" d="M 550 4863 
L 1875 4863 
L 1875 4416 
L 1125 4416 
L 1125 -397 
L 1875 -397 
L 1875 -844 
L 550 -844 
L 550 4863 
z
" transform="scale(0.015625)"/>
       <path id="DejaVuSans-Oblique-41" d="M 2356 4666 
L 3072 4666 
L 3938 0 
L 3278 0 
L 3084 1197 
L 984 1197 
L 325 0 
L -341 0 
L 2356 4666 
z
M 2584 4044 
L 1275 1722 
L 2988 1722 
L 2584 4044 
z
" transform="scale(0.015625)"/>
       <path id="DejaVuSans-Oblique-6d" d="M 5747 2113 
L 5338 0 
L 4763 0 
L 5166 2094 
Q 5191 2228 5203 2325 
Q 5216 2422 5216 2491 
Q 5216 2772 5059 2928 
Q 4903 3084 4622 3084 
Q 4203 3084 3875 2770 
Q 3547 2456 3450 1953 
L 3066 0 
L 2491 0 
L 2900 2094 
Q 2925 2209 2937 2307 
Q 2950 2406 2950 2484 
Q 2950 2769 2794 2926 
Q 2638 3084 2363 3084 
Q 1938 3084 1609 2770 
Q 1281 2456 1184 1953 
L 800 0 
L 225 0 
L 909 3500 
L 1484 3500 
L 1375 2956 
Q 1609 3263 1923 3423 
Q 2238 3584 2597 3584 
Q 2978 3584 3223 3384 
Q 3469 3184 3519 2828 
Q 3781 3197 4126 3390 
Q 4472 3584 4856 3584 
Q 5306 3584 5551 3325 
Q 5797 3066 5797 2591 
Q 5797 2488 5784 2364 
Q 5772 2241 5747 2113 
z
" transform="scale(0.015625)"/>
       <path id="DejaVuSans-Oblique-69" d="M 1172 4863 
L 1747 4863 
L 1606 4134 
L 1031 4134 
L 1172 4863 
z
M 909 3500 
L 1484 3500 
L 800 0 
L 225 0 
L 909 3500 
z
" transform="scale(0.015625)"/>
       <path id="DejaVuSans-Oblique-6e" d="M 3566 2113 
L 3156 0 
L 2578 0 
L 2988 2091 
Q 3016 2238 3031 2350 
Q 3047 2463 3047 2528 
Q 3047 2791 2881 2937 
Q 2716 3084 2419 3084 
Q 1956 3084 1622 2776 
Q 1288 2469 1184 1941 
L 800 0 
L 225 0 
L 903 3500 
L 1478 3500 
L 1363 2950 
Q 1603 3253 1940 3418 
Q 2278 3584 2650 3584 
Q 3113 3584 3367 3334 
Q 3622 3084 3622 2631 
Q 3622 2519 3608 2391 
Q 3594 2263 3566 2113 
z
" transform="scale(0.015625)"/>
       <path id="DejaVuSans-Oblique-65" d="M 3078 2063 
Q 3088 2113 3092 2166 
Q 3097 2219 3097 2272 
Q 3097 2653 2873 2875 
Q 2650 3097 2266 3097 
Q 1838 3097 1509 2826 
Q 1181 2556 1013 2059 
L 3078 2063 
z
M 3578 1613 
L 903 1613 
Q 884 1494 878 1425 
Q 872 1356 872 1306 
Q 872 872 1139 634 
Q 1406 397 1894 397 
Q 2269 397 2603 481 
Q 2938 566 3225 728 
L 3116 159 
Q 2806 34 2476 -28 
Q 2147 -91 1806 -91 
Q 1078 -91 686 257 
Q 294 606 294 1247 
Q 294 1794 489 2264 
Q 684 2734 1063 3103 
Q 1306 3334 1642 3459 
Q 1978 3584 2356 3584 
Q 2950 3584 3301 3228 
Q 3653 2872 3653 2272 
Q 3653 2128 3634 1964 
Q 3616 1800 3578 1613 
z
" transform="scale(0.015625)"/>
       <path id="DejaVuSans-5d" d="M 1947 4863 
L 1947 -844 
L 622 -844 
L 622 -397 
L 1369 -397 
L 1369 4416 
L 622 4416 
L 622 4863 
L 1947 4863 
z
" transform="scale(0.015625)"/>
       <path id="DejaVuSans-Oblique-50" d="M 1081 4666 
L 2541 4666 
Q 3178 4666 3512 4369 
Q 3847 4072 3847 3500 
Q 3847 2731 3353 2303 
Q 2859 1875 1966 1875 
L 1172 1875 
L 806 0 
L 172 0 
L 1081 4666 
z
M 1613 4147 
L 1275 2394 
L 2069 2394 
Q 2606 2394 2893 2669 
Q 3181 2944 3181 3456 
Q 3181 3784 2986 3965 
Q 2791 4147 2438 4147 
L 1613 4147 
z
" transform="scale(0.015625)"/>
       <path id="DejaVuSans-Oblique-68" d="M 3566 2113 
L 3156 0 
L 2578 0 
L 2988 2091 
Q 3016 2238 3031 2350 
Q 3047 2463 3047 2528 
Q 3047 2791 2881 2937 
Q 2716 3084 2419 3084 
Q 1956 3084 1617 2771 
Q 1278 2459 1178 1941 
L 800 0 
L 225 0 
L 1172 4863 
L 1747 4863 
L 1375 2950 
Q 1594 3244 1934 3414 
Q 2275 3584 2650 3584 
Q 3113 3584 3367 3334 
Q 3622 3084 3622 2631 
Q 3622 2519 3608 2391 
Q 3594 2263 3566 2113 
z
" transform="scale(0.015625)"/>
       <path id="DejaVuSans-Oblique-6f" d="M 1625 -91 
Q 1009 -91 651 289 
Q 294 669 294 1325 
Q 294 1706 417 2101 
Q 541 2497 738 2766 
Q 1047 3184 1428 3384 
Q 1809 3584 2291 3584 
Q 2888 3584 3255 3212 
Q 3622 2841 3622 2241 
Q 3622 1825 3500 1412 
Q 3378 1000 3181 728 
Q 2875 309 2494 109 
Q 2113 -91 1625 -91 
z
M 891 1344 
Q 891 869 1089 633 
Q 1288 397 1691 397 
Q 2269 397 2648 901 
Q 3028 1406 3028 2181 
Q 3028 2634 2825 2865 
Q 2622 3097 2228 3097 
Q 1903 3097 1650 2945 
Q 1397 2794 1197 2484 
Q 1050 2253 970 1956 
Q 891 1659 891 1344 
z
" transform="scale(0.015625)"/>
       <path id="DejaVuSans-Oblique-6c" d="M 1172 4863 
L 1747 4863 
L 800 0 
L 225 0 
L 1172 4863 
z
" transform="scale(0.015625)"/>
       <path id="DejaVuSans-Oblique-72" d="M 2853 2969 
Q 2766 3016 2653 3041 
Q 2541 3066 2413 3066 
Q 1953 3066 1609 2717 
Q 1266 2369 1153 1784 
L 800 0 
L 225 0 
L 909 3500 
L 1484 3500 
L 1375 2956 
Q 1603 3259 1920 3421 
Q 2238 3584 2597 3584 
Q 2691 3584 2781 3573 
Q 2872 3563 2963 3538 
L 2853 2969 
z
" transform="scale(0.015625)"/>
       <path id="DejaVuSans-Oblique-4f" d="M 2919 4238 
Q 2400 4238 2003 3986 
Q 1606 3734 1313 3219 
Q 1125 2891 1026 2522 
Q 928 2153 928 1778 
Q 928 1128 1239 775 
Q 1550 422 2119 422 
Q 2631 422 3032 676 
Q 3434 931 3719 1434 
Q 3909 1772 4009 2142 
Q 4109 2513 4109 2881 
Q 4109 3528 3796 3883 
Q 3484 4238 2919 4238 
z
M 2100 -91 
Q 1241 -91 748 418 
Q 256 928 256 1813 
Q 256 2319 448 2847 
Q 641 3375 978 3788 
Q 1375 4272 1862 4511 
Q 2350 4750 2938 4750 
Q 3794 4750 4287 4245 
Q 4781 3741 4781 2869 
Q 4781 2331 4593 1812 
Q 4406 1294 4056 872 
Q 3656 384 3173 146 
Q 2691 -91 2100 -91 
z
" transform="scale(0.015625)"/>
       <path id="DejaVuSans-394" d="M 2188 4044 
L 906 525 
L 3472 525 
L 2188 4044 
z
M 50 0 
L 1831 4666 
L 2547 4666 
L 4325 0 
L 50 0 
z
" transform="scale(0.015625)"/>
       <path id="DejaVuSans-Oblique-74" d="M 2706 3500 
L 2619 3053 
L 1472 3053 
L 1100 1153 
Q 1081 1047 1072 975 
Q 1063 903 1063 863 
Q 1063 663 1183 572 
Q 1303 481 1569 481 
L 2150 481 
L 2053 0 
L 1503 0 
Q 991 0 739 200 
Q 488 400 488 806 
Q 488 878 497 964 
Q 506 1050 525 1153 
L 897 3053 
L 409 3053 
L 500 3500 
L 978 3500 
L 1172 4494 
L 1747 4494 
L 1556 3500 
L 2706 3500 
z
" transform="scale(0.015625)"/>
      </defs>
      <use xlink:href="#DejaVuSans-3a3" transform="translate(0 0.765625)"/>
      <use xlink:href="#DejaVuSans-5b" transform="translate(63.183594 0.765625)"/>
      <use xlink:href="#DejaVuSans-Oblique-41" transform="translate(102.197266 0.765625)"/>
      <use xlink:href="#DejaVuSans-Oblique-6d" transform="translate(170.605469 0.765625)"/>
      <use xlink:href="#DejaVuSans-Oblique-69" transform="translate(268.017578 0.765625)"/>
      <use xlink:href="#DejaVuSans-Oblique-6e" transform="translate(295.800781 0.765625)"/>
      <use xlink:href="#DejaVuSans-Oblique-65" transform="translate(359.179688 0.765625)"/>
      <use xlink:href="#DejaVuSans-5d" transform="translate(420.703125 0.765625)"/>
      <use xlink:href="#DejaVuSans-30" transform="translate(460.673828 39.046875) scale(0.7)"/>
      <use xlink:href="#DejaVuSans-2e" transform="translate(505.209961 39.046875) scale(0.7)"/>
      <use xlink:href="#DejaVuSans-30" transform="translate(527.460938 39.046875) scale(0.7)"/>
      <use xlink:href="#DejaVuSans-30" transform="translate(571.99707 39.046875) scale(0.7)"/>
      <use xlink:href="#DejaVuSans-5b" transform="translate(619.267578 0.765625)"/>
      <use xlink:href="#DejaVuSans-Oblique-50" transform="translate(658.28125 0.765625)"/>
      <use xlink:href="#DejaVuSans-Oblique-68" transform="translate(718.583984 0.765625)"/>
      <use xlink:href="#DejaVuSans-Oblique-65" transform="translate(781.962891 0.765625)"/>
      <use xlink:href="#DejaVuSans-Oblique-6e" transform="translate(843.486328 0.765625)"/>
      <use xlink:href="#DejaVuSans-Oblique-6f" transform="translate(906.865234 0.765625)"/>
      <use xlink:href="#DejaVuSans-Oblique-6c" transform="translate(968.046875 0.765625)"/>
      <use xlink:href="#DejaVuSans-5d" transform="translate(995.830078 0.765625)"/>
      <use xlink:href="#DejaVuSans-30" transform="translate(1035.800781 39.046875) scale(0.7)"/>
      <use xlink:href="#DejaVuSans-2e" transform="translate(1080.336914 39.046875) scale(0.7)"/>
      <use xlink:href="#DejaVuSans-30" transform="translate(1102.587891 39.046875) scale(0.7)"/>
      <use xlink:href="#DejaVuSans-30" transform="translate(1147.124023 39.046875) scale(0.7)"/>
      <use xlink:href="#DejaVuSans-5b" transform="translate(1194.394531 0.765625)"/>
      <use xlink:href="#DejaVuSans-Oblique-41" transform="translate(1233.408203 0.765625)"/>
      <use xlink:href="#DejaVuSans-Oblique-72" transform="translate(1301.816406 0.765625)"/>
      <use xlink:href="#DejaVuSans-Oblique-4f" transform="translate(1342.929688 0.765625)"/>
      <use xlink:href="#DejaVuSans-Oblique-50" transform="translate(1421.640625 0.765625)"/>
      <use xlink:href="#DejaVuSans-Oblique-68" transform="translate(1481.943359 0.765625)"/>
      <use xlink:href="#DejaVuSans-5d" transform="translate(1545.322266 0.765625)"/>
      <use xlink:href="#DejaVuSans-30" transform="translate(1585.292969 39.046875) scale(0.7)"/>
      <use xlink:href="#DejaVuSans-2e" transform="translate(1629.829102 39.046875) scale(0.7)"/>
      <use xlink:href="#DejaVuSans-30" transform="translate(1652.080078 39.046875) scale(0.7)"/>
      <use xlink:href="#DejaVuSans-30" transform="translate(1696.616211 39.046875) scale(0.7)"/>
      <use xlink:href="#DejaVuSans-394" transform="translate(1743.886719 0.765625)"/>
      <use xlink:href="#DejaVuSans-Oblique-74" transform="translate(1812.294922 0.765625)"/>
      <use xlink:href="#DejaVuSans-2e" transform="translate(1851.503906 0.765625)"/>
     </g>
    </g>
    <g id="text_8">
     <!-- 1e1 -->
     <g transform="translate(256.942674 202.443) scale(0.1 -0.1)">
      <defs>
       <path id="DejaVuSans-65" d="M 3597 1894 
L 3597 1613 
L 953 1613 
Q 991 1019 1311 708 
Q 1631 397 2203 397 
Q 2534 397 2845 478 
Q 3156 559 3463 722 
L 3463 178 
Q 3153 47 2828 -22 
Q 2503 -91 2169 -91 
Q 1331 -91 842 396 
Q 353 884 353 1716 
Q 353 2575 817 3079 
Q 1281 3584 2069 3584 
Q 2775 3584 3186 3129 
Q 3597 2675 3597 1894 
z
M 3022 2063 
Q 3016 2534 2758 2815 
Q 2500 3097 2075 3097 
Q 1594 3097 1305 2825 
Q 1016 2553 972 2059 
L 3022 2063 
z
" transform="scale(0.015625)"/>
      </defs>
      <use xlink:href="#DejaVuSans-31"/>
      <use xlink:href="#DejaVuSans-65" transform="translate(63.623047 0)"/>
      <use xlink:href="#DejaVuSans-31" transform="translate(125.146484 0)"/>
     </g>
    </g>
   </g>
   <g id="matplotlib.axis_2">
    <g id="ytick_1">
     <g id="line2d_7">
      <defs>
       <path id="m2b6ba2de42" d="M 0 0 
L -3.5 0 
" style="stroke: #000000; stroke-width: 0.8"/>
      </defs>
      <g>
       <use xlink:href="#m2b6ba2de42" x="46.965625" y="156.418348" style="stroke: #000000; stroke-width: 0.8"/>
      </g>
     </g>
     <g id="text_9">
      <!-- 80 -->
      <g transform="translate(27.240625 160.217567) scale(0.1 -0.1)">
       <defs>
        <path id="DejaVuSans-38" d="M 2034 2216 
Q 1584 2216 1326 1975 
Q 1069 1734 1069 1313 
Q 1069 891 1326 650 
Q 1584 409 2034 409 
Q 2484 409 2743 651 
Q 3003 894 3003 1313 
Q 3003 1734 2745 1975 
Q 2488 2216 2034 2216 
z
M 1403 2484 
Q 997 2584 770 2862 
Q 544 3141 544 3541 
Q 544 4100 942 4425 
Q 1341 4750 2034 4750 
Q 2731 4750 3128 4425 
Q 3525 4100 3525 3541 
Q 3525 3141 3298 2862 
Q 3072 2584 2669 2484 
Q 3125 2378 3379 2068 
Q 3634 1759 3634 1313 
Q 3634 634 3220 271 
Q 2806 -91 2034 -91 
Q 1263 -91 848 271 
Q 434 634 434 1313 
Q 434 1759 690 2068 
Q 947 2378 1403 2484 
z
M 1172 3481 
Q 1172 3119 1398 2916 
Q 1625 2713 2034 2713 
Q 2441 2713 2670 2916 
Q 2900 3119 2900 3481 
Q 2900 3844 2670 4047 
Q 2441 4250 2034 4250 
Q 1625 4250 1398 4047 
Q 1172 3844 1172 3481 
z
" transform="scale(0.015625)"/>
       </defs>
       <use xlink:href="#DejaVuSans-38"/>
       <use xlink:href="#DejaVuSans-30" transform="translate(63.623047 0)"/>
      </g>
     </g>
    </g>
    <g id="ytick_2">
     <g id="line2d_8">
      <g>
       <use xlink:href="#m2b6ba2de42" x="46.965625" y="122.037407" style="stroke: #000000; stroke-width: 0.8"/>
      </g>
     </g>
     <g id="text_10">
      <!-- 90 -->
      <g transform="translate(27.240625 125.836626) scale(0.1 -0.1)">
       <defs>
        <path id="DejaVuSans-39" d="M 703 97 
L 703 672 
Q 941 559 1184 500 
Q 1428 441 1663 441 
Q 2288 441 2617 861 
Q 2947 1281 2994 2138 
Q 2813 1869 2534 1725 
Q 2256 1581 1919 1581 
Q 1219 1581 811 2004 
Q 403 2428 403 3163 
Q 403 3881 828 4315 
Q 1253 4750 1959 4750 
Q 2769 4750 3195 4129 
Q 3622 3509 3622 2328 
Q 3622 1225 3098 567 
Q 2575 -91 1691 -91 
Q 1453 -91 1209 -44 
Q 966 3 703 97 
z
M 1959 2075 
Q 2384 2075 2632 2365 
Q 2881 2656 2881 3163 
Q 2881 3666 2632 3958 
Q 2384 4250 1959 4250 
Q 1534 4250 1286 3958 
Q 1038 3666 1038 3163 
Q 1038 2656 1286 2365 
Q 1534 2075 1959 2075 
z
" transform="scale(0.015625)"/>
       </defs>
       <use xlink:href="#DejaVuSans-39"/>
       <use xlink:href="#DejaVuSans-30" transform="translate(63.623047 0)"/>
      </g>
     </g>
    </g>
    <g id="ytick_3">
     <g id="line2d_9">
      <g>
       <use xlink:href="#m2b6ba2de42" x="46.965625" y="87.656466" style="stroke: #000000; stroke-width: 0.8"/>
      </g>
     </g>
     <g id="text_11">
      <!-- 100 -->
      <g transform="translate(20.878125 91.455685) scale(0.1 -0.1)">
       <use xlink:href="#DejaVuSans-31"/>
       <use xlink:href="#DejaVuSans-30" transform="translate(63.623047 0)"/>
       <use xlink:href="#DejaVuSans-30" transform="translate(127.246094 0)"/>
      </g>
     </g>
    </g>
    <g id="ytick_4">
     <g id="line2d_10">
      <g>
       <use xlink:href="#m2b6ba2de42" x="46.965625" y="53.275525" style="stroke: #000000; stroke-width: 0.8"/>
      </g>
     </g>
     <g id="text_12">
      <!-- 110 -->
      <g transform="translate(20.878125 57.074744) scale(0.1 -0.1)">
       <use xlink:href="#DejaVuSans-31"/>
       <use xlink:href="#DejaVuSans-31" transform="translate(63.623047 0)"/>
       <use xlink:href="#DejaVuSans-30" transform="translate(127.246094 0)"/>
      </g>
     </g>
    </g>
    <g id="text_13">
     <!-- Shifted [Product] / mM -->
     <g transform="translate(14.798438 154.117594) rotate(-90) scale(0.1 -0.1)">
      <defs>
       <path id="DejaVuSans-53" d="M 3425 4513 
L 3425 3897 
Q 3066 4069 2747 4153 
Q 2428 4238 2131 4238 
Q 1616 4238 1336 4038 
Q 1056 3838 1056 3469 
Q 1056 3159 1242 3001 
Q 1428 2844 1947 2747 
L 2328 2669 
Q 3034 2534 3370 2195 
Q 3706 1856 3706 1288 
Q 3706 609 3251 259 
Q 2797 -91 1919 -91 
Q 1588 -91 1214 -16 
Q 841 59 441 206 
L 441 856 
Q 825 641 1194 531 
Q 1563 422 1919 422 
Q 2459 422 2753 634 
Q 3047 847 3047 1241 
Q 3047 1584 2836 1778 
Q 2625 1972 2144 2069 
L 1759 2144 
Q 1053 2284 737 2584 
Q 422 2884 422 3419 
Q 422 4038 858 4394 
Q 1294 4750 2059 4750 
Q 2388 4750 2728 4690 
Q 3069 4631 3425 4513 
z
" transform="scale(0.015625)"/>
       <path id="DejaVuSans-68" d="M 3513 2113 
L 3513 0 
L 2938 0 
L 2938 2094 
Q 2938 2591 2744 2837 
Q 2550 3084 2163 3084 
Q 1697 3084 1428 2787 
Q 1159 2491 1159 1978 
L 1159 0 
L 581 0 
L 581 4863 
L 1159 4863 
L 1159 2956 
Q 1366 3272 1645 3428 
Q 1925 3584 2291 3584 
Q 2894 3584 3203 3211 
Q 3513 2838 3513 2113 
z
" transform="scale(0.015625)"/>
       <path id="DejaVuSans-69" d="M 603 3500 
L 1178 3500 
L 1178 0 
L 603 0 
L 603 3500 
z
M 603 4863 
L 1178 4863 
L 1178 4134 
L 603 4134 
L 603 4863 
z
" transform="scale(0.015625)"/>
       <path id="DejaVuSans-66" d="M 2375 4863 
L 2375 4384 
L 1825 4384 
Q 1516 4384 1395 4259 
Q 1275 4134 1275 3809 
L 1275 3500 
L 2222 3500 
L 2222 3053 
L 1275 3053 
L 1275 0 
L 697 0 
L 697 3053 
L 147 3053 
L 147 3500 
L 697 3500 
L 697 3744 
Q 697 4328 969 4595 
Q 1241 4863 1831 4863 
L 2375 4863 
z
" transform="scale(0.015625)"/>
       <path id="DejaVuSans-74" d="M 1172 4494 
L 1172 3500 
L 2356 3500 
L 2356 3053 
L 1172 3053 
L 1172 1153 
Q 1172 725 1289 603 
Q 1406 481 1766 481 
L 2356 481 
L 2356 0 
L 1766 0 
Q 1100 0 847 248 
Q 594 497 594 1153 
L 594 3053 
L 172 3053 
L 172 3500 
L 594 3500 
L 594 4494 
L 1172 4494 
z
" transform="scale(0.015625)"/>
       <path id="DejaVuSans-64" d="M 2906 2969 
L 2906 4863 
L 3481 4863 
L 3481 0 
L 2906 0 
L 2906 525 
Q 2725 213 2448 61 
Q 2172 -91 1784 -91 
Q 1150 -91 751 415 
Q 353 922 353 1747 
Q 353 2572 751 3078 
Q 1150 3584 1784 3584 
Q 2172 3584 2448 3432 
Q 2725 3281 2906 2969 
z
M 947 1747 
Q 947 1113 1208 752 
Q 1469 391 1925 391 
Q 2381 391 2643 752 
Q 2906 1113 2906 1747 
Q 2906 2381 2643 2742 
Q 2381 3103 1925 3103 
Q 1469 3103 1208 2742 
Q 947 2381 947 1747 
z
" transform="scale(0.015625)"/>
       <path id="DejaVuSans-20" transform="scale(0.015625)"/>
       <path id="DejaVuSans-50" d="M 1259 4147 
L 1259 2394 
L 2053 2394 
Q 2494 2394 2734 2622 
Q 2975 2850 2975 3272 
Q 2975 3691 2734 3919 
Q 2494 4147 2053 4147 
L 1259 4147 
z
M 628 4666 
L 2053 4666 
Q 2838 4666 3239 4311 
Q 3641 3956 3641 3272 
Q 3641 2581 3239 2228 
Q 2838 1875 2053 1875 
L 1259 1875 
L 1259 0 
L 628 0 
L 628 4666 
z
" transform="scale(0.015625)"/>
       <path id="DejaVuSans-72" d="M 2631 2963 
Q 2534 3019 2420 3045 
Q 2306 3072 2169 3072 
Q 1681 3072 1420 2755 
Q 1159 2438 1159 1844 
L 1159 0 
L 581 0 
L 581 3500 
L 1159 3500 
L 1159 2956 
Q 1341 3275 1631 3429 
Q 1922 3584 2338 3584 
Q 2397 3584 2469 3576 
Q 2541 3569 2628 3553 
L 2631 2963 
z
" transform="scale(0.015625)"/>
       <path id="DejaVuSans-6f" d="M 1959 3097 
Q 1497 3097 1228 2736 
Q 959 2375 959 1747 
Q 959 1119 1226 758 
Q 1494 397 1959 397 
Q 2419 397 2687 759 
Q 2956 1122 2956 1747 
Q 2956 2369 2687 2733 
Q 2419 3097 1959 3097 
z
M 1959 3584 
Q 2709 3584 3137 3096 
Q 3566 2609 3566 1747 
Q 3566 888 3137 398 
Q 2709 -91 1959 -91 
Q 1206 -91 779 398 
Q 353 888 353 1747 
Q 353 2609 779 3096 
Q 1206 3584 1959 3584 
z
" transform="scale(0.015625)"/>
       <path id="DejaVuSans-75" d="M 544 1381 
L 544 3500 
L 1119 3500 
L 1119 1403 
Q 1119 906 1312 657 
Q 1506 409 1894 409 
Q 2359 409 2629 706 
Q 2900 1003 2900 1516 
L 2900 3500 
L 3475 3500 
L 3475 0 
L 2900 0 
L 2900 538 
Q 2691 219 2414 64 
Q 2138 -91 1772 -91 
Q 1169 -91 856 284 
Q 544 659 544 1381 
z
M 1991 3584 
L 1991 3584 
z
" transform="scale(0.015625)"/>
       <path id="DejaVuSans-63" d="M 3122 3366 
L 3122 2828 
Q 2878 2963 2633 3030 
Q 2388 3097 2138 3097 
Q 1578 3097 1268 2742 
Q 959 2388 959 1747 
Q 959 1106 1268 751 
Q 1578 397 2138 397 
Q 2388 397 2633 464 
Q 2878 531 3122 666 
L 3122 134 
Q 2881 22 2623 -34 
Q 2366 -91 2075 -91 
Q 1284 -91 818 406 
Q 353 903 353 1747 
Q 353 2603 823 3093 
Q 1294 3584 2113 3584 
Q 2378 3584 2631 3529 
Q 2884 3475 3122 3366 
z
" transform="scale(0.015625)"/>
       <path id="DejaVuSans-2f" d="M 1625 4666 
L 2156 4666 
L 531 -594 
L 0 -594 
L 1625 4666 
z
" transform="scale(0.015625)"/>
       <path id="DejaVuSans-6d" d="M 3328 2828 
Q 3544 3216 3844 3400 
Q 4144 3584 4550 3584 
Q 5097 3584 5394 3201 
Q 5691 2819 5691 2113 
L 5691 0 
L 5113 0 
L 5113 2094 
Q 5113 2597 4934 2840 
Q 4756 3084 4391 3084 
Q 3944 3084 3684 2787 
Q 3425 2491 3425 1978 
L 3425 0 
L 2847 0 
L 2847 2094 
Q 2847 2600 2669 2842 
Q 2491 3084 2119 3084 
Q 1678 3084 1418 2786 
Q 1159 2488 1159 1978 
L 1159 0 
L 581 0 
L 581 3500 
L 1159 3500 
L 1159 2956 
Q 1356 3278 1631 3431 
Q 1906 3584 2284 3584 
Q 2666 3584 2933 3390 
Q 3200 3197 3328 2828 
z
" transform="scale(0.015625)"/>
       <path id="DejaVuSans-4d" d="M 628 4666 
L 1569 4666 
L 2759 1491 
L 3956 4666 
L 4897 4666 
L 4897 0 
L 4281 0 
L 4281 4097 
L 3078 897 
L 2444 897 
L 1241 4097 
L 1241 0 
L 628 0 
L 628 4666 
z
" transform="scale(0.015625)"/>
      </defs>
      <use xlink:href="#DejaVuSans-53"/>
      <use xlink:href="#DejaVuSans-68" transform="translate(63.476562 0)"/>
      <use xlink:href="#DejaVuSans-69" transform="translate(126.855469 0)"/>
      <use xlink:href="#DejaVuSans-66" transform="translate(154.638672 0)"/>
      <use xlink:href="#DejaVuSans-74" transform="translate(188.09375 0)"/>
      <use xlink:href="#DejaVuSans-65" transform="translate(227.302734 0)"/>
      <use xlink:href="#DejaVuSans-64" transform="translate(288.826172 0)"/>
      <use xlink:href="#DejaVuSans-20" transform="translate(352.302734 0)"/>
      <use xlink:href="#DejaVuSans-5b" transform="translate(384.089844 0)"/>
      <use xlink:href="#DejaVuSans-50" transform="translate(423.103516 0)"/>
      <use xlink:href="#DejaVuSans-72" transform="translate(481.65625 0)"/>
      <use xlink:href="#DejaVuSans-6f" transform="translate(520.519531 0)"/>
      <use xlink:href="#DejaVuSans-64" transform="translate(581.701172 0)"/>
      <use xlink:href="#DejaVuSans-75" transform="translate(645.177734 0)"/>
      <use xlink:href="#DejaVuSans-63" transform="translate(708.556641 0)"/>
      <use xlink:href="#DejaVuSans-74" transform="translate(763.537109 0)"/>
      <use xlink:href="#DejaVuSans-5d" transform="translate(802.746094 0)"/>
      <use xlink:href="#DejaVuSans-20" transform="translate(841.759766 0)"/>
      <use xlink:href="#DejaVuSans-2f" transform="translate(873.546875 0)"/>
      <use xlink:href="#DejaVuSans-20" transform="translate(907.238281 0)"/>
      <use xlink:href="#DejaVuSans-6d" transform="translate(939.025391 0)"/>
      <use xlink:href="#DejaVuSans-4d" transform="translate(1036.4375 0)"/>
     </g>
    </g>
   </g>
   <g id="line2d_11">
    <path d="M 47.061757 168.14971 
L 49.153903 161.923981 
L 51.298613 156.270941 
L 53.393288 151.301277 
L 55.478407 146.660541 
L 57.629019 142.619423 
L 59.728473 138.193848 
L 61.811765 134.353978 
L 63.964344 131.275565 
L 66.04862 128.384127 
L 68.138517 124.998069 
L 70.294891 120.913361 
L 72.380713 118.699512 
L 74.468361 116.201868 
L 76.567956 114.623289 
L 78.714773 111.40977 
L 80.801438 109.66201 
L 82.889086 107.172462 
L 85.041104 105.252093 
L 87.132406 104.127251 
L 89.219352 102.302866 
L 91.372775 101.129677 
L 93.467451 100.093261 
L 95.550742 98.822779 
L 97.640499 95.812379 
L 99.795046 95.93839 
L 101.888738 93.844534 
L 103.971889 92.480235 
L 106.129809 91.791245 
L 108.221534 90.075302 
L 110.307495 89.382804 
L 112.462183 87.808107 
L 114.551659 87.515779 
L 116.63495 86.211867 
L 118.786406 85.732113 
L 120.892606 84.631986 
L 122.968449 84.346423 
L 125.058908 82.712209 
L 127.216547 82.817708 
L 129.299698 81.834232 
L 131.389455 81.013803 
L 133.539927 81.262451 
L 135.637273 80.35443 
L 137.720283 79.739979 
L 139.871457 79.34235 
L 141.970209 78.784319 
L 144.056171 77.569853 
L 146.202848 76.774746 
L 148.292182 76.042265 
L 150.39248 75.587799 
L 152.539297 75.746121 
L 154.623292 75.174938 
L 156.713189 75.364019 
L 158.809129 74.195396 
L 160.957493 73.499294 
L 163.044579 73.370269 
L 165.134476 72.211627 
L 167.293521 72.943714 
L 169.378639 73.51546 
L 171.467412 73.31066 
L 173.61943 71.335441 
L 175.711294 72.605962 
L 177.797537 71.475128 
L 179.887153 71.162824 
L 182.040577 69.961023 
L 184.131879 71.31362 
L 186.21756 70.113059 
L 188.371967 70.225506 
L 190.465518 69.331008 
L 192.54895 69.145928 
L 194.706168 69.865864 
L 196.797892 68.572941 
L 198.887508 69.170254 
L 200.970659 67.634673 
L 203.127455 68.195964 
L 205.21946 67.909309 
L 207.304298 67.909016 
L 209.458986 67.842124 
L 211.544807 68.337971 
L 213.636391 67.71411 
L 215.78363 67.423078 
L 217.8821 66.910923 
L 219.966094 66.929286 
L 222.11488 67.01937 
L 224.214615 65.740408 
L 226.297485 65.480254 
L 228.39202 64.871549 
L 230.536167 65.752974 
L 232.626064 65.600534 
L 234.719615 66.043936 
L 236.867135 65.769936 
L 238.957032 64.764847 
L 241.053254 65.033871 
L 243.198807 64.757652 
L 245.288985 64.126989 
L 247.385347 64.330795 
L 249.475525 64.006356 
L 251.620375 63.551121 
" clip-path="url(#p8a29822dea)" style="fill: none; stroke: #1f77b4; stroke-width: 0.7; stroke-linecap: square"/>
    <defs>
     <path id="m1ac9e51afb" d="M 0 0.9 
C 0.238683 0.9 0.467622 0.80517 0.636396 0.636396 
C 0.80517 0.467622 0.9 0.238683 0.9 0 
C 0.9 -0.238683 0.80517 -0.467622 0.636396 -0.636396 
C 0.467622 -0.80517 0.238683 -0.9 0 -0.9 
C -0.238683 -0.9 -0.467622 -0.80517 -0.636396 -0.636396 
C -0.80517 -0.467622 -0.9 -0.238683 -0.9 0 
C -0.9 0.238683 -0.80517 0.467622 -0.636396 0.636396 
C -0.467622 0.80517 -0.238683 0.9 0 0.9 
z
" style="stroke: #1f77b4"/>
    </defs>
    <g clip-path="url(#p8a29822dea)">
     <use xlink:href="#m1ac9e51afb" x="47.061757" y="168.14971" style="fill: #1f77b4; stroke: #1f77b4"/>
     <use xlink:href="#m1ac9e51afb" x="49.153903" y="161.923981" style="fill: #1f77b4; stroke: #1f77b4"/>
     <use xlink:href="#m1ac9e51afb" x="51.298613" y="156.270941" style="fill: #1f77b4; stroke: #1f77b4"/>
     <use xlink:href="#m1ac9e51afb" x="53.393288" y="151.301277" style="fill: #1f77b4; stroke: #1f77b4"/>
     <use xlink:href="#m1ac9e51afb" x="55.478407" y="146.660541" style="fill: #1f77b4; stroke: #1f77b4"/>
     <use xlink:href="#m1ac9e51afb" x="57.629019" y="142.619423" style="fill: #1f77b4; stroke: #1f77b4"/>
     <use xlink:href="#m1ac9e51afb" x="59.728473" y="138.193848" style="fill: #1f77b4; stroke: #1f77b4"/>
     <use xlink:href="#m1ac9e51afb" x="61.811765" y="134.353978" style="fill: #1f77b4; stroke: #1f77b4"/>
     <use xlink:href="#m1ac9e51afb" x="63.964344" y="131.275565" style="fill: #1f77b4; stroke: #1f77b4"/>
     <use xlink:href="#m1ac9e51afb" x="66.04862" y="128.384127" style="fill: #1f77b4; stroke: #1f77b4"/>
     <use xlink:href="#m1ac9e51afb" x="68.138517" y="124.998069" style="fill: #1f77b4; stroke: #1f77b4"/>
     <use xlink:href="#m1ac9e51afb" x="70.294891" y="120.913361" style="fill: #1f77b4; stroke: #1f77b4"/>
     <use xlink:href="#m1ac9e51afb" x="72.380713" y="118.699512" style="fill: #1f77b4; stroke: #1f77b4"/>
     <use xlink:href="#m1ac9e51afb" x="74.468361" y="116.201868" style="fill: #1f77b4; stroke: #1f77b4"/>
     <use xlink:href="#m1ac9e51afb" x="76.567956" y="114.623289" style="fill: #1f77b4; stroke: #1f77b4"/>
     <use xlink:href="#m1ac9e51afb" x="78.714773" y="111.40977" style="fill: #1f77b4; stroke: #1f77b4"/>
     <use xlink:href="#m1ac9e51afb" x="80.801438" y="109.66201" style="fill: #1f77b4; stroke: #1f77b4"/>
     <use xlink:href="#m1ac9e51afb" x="82.889086" y="107.172462" style="fill: #1f77b4; stroke: #1f77b4"/>
     <use xlink:href="#m1ac9e51afb" x="85.041104" y="105.252093" style="fill: #1f77b4; stroke: #1f77b4"/>
     <use xlink:href="#m1ac9e51afb" x="87.132406" y="104.127251" style="fill: #1f77b4; stroke: #1f77b4"/>
     <use xlink:href="#m1ac9e51afb" x="89.219352" y="102.302866" style="fill: #1f77b4; stroke: #1f77b4"/>
     <use xlink:href="#m1ac9e51afb" x="91.372775" y="101.129677" style="fill: #1f77b4; stroke: #1f77b4"/>
     <use xlink:href="#m1ac9e51afb" x="93.467451" y="100.093261" style="fill: #1f77b4; stroke: #1f77b4"/>
     <use xlink:href="#m1ac9e51afb" x="95.550742" y="98.822779" style="fill: #1f77b4; stroke: #1f77b4"/>
     <use xlink:href="#m1ac9e51afb" x="97.640499" y="95.812379" style="fill: #1f77b4; stroke: #1f77b4"/>
     <use xlink:href="#m1ac9e51afb" x="99.795046" y="95.93839" style="fill: #1f77b4; stroke: #1f77b4"/>
     <use xlink:href="#m1ac9e51afb" x="101.888738" y="93.844534" style="fill: #1f77b4; stroke: #1f77b4"/>
     <use xlink:href="#m1ac9e51afb" x="103.971889" y="92.480235" style="fill: #1f77b4; stroke: #1f77b4"/>
     <use xlink:href="#m1ac9e51afb" x="106.129809" y="91.791245" style="fill: #1f77b4; stroke: #1f77b4"/>
     <use xlink:href="#m1ac9e51afb" x="108.221534" y="90.075302" style="fill: #1f77b4; stroke: #1f77b4"/>
     <use xlink:href="#m1ac9e51afb" x="110.307495" y="89.382804" style="fill: #1f77b4; stroke: #1f77b4"/>
     <use xlink:href="#m1ac9e51afb" x="112.462183" y="87.808107" style="fill: #1f77b4; stroke: #1f77b4"/>
     <use xlink:href="#m1ac9e51afb" x="114.551659" y="87.515779" style="fill: #1f77b4; stroke: #1f77b4"/>
     <use xlink:href="#m1ac9e51afb" x="116.63495" y="86.211867" style="fill: #1f77b4; stroke: #1f77b4"/>
     <use xlink:href="#m1ac9e51afb" x="118.786406" y="85.732113" style="fill: #1f77b4; stroke: #1f77b4"/>
     <use xlink:href="#m1ac9e51afb" x="120.892606" y="84.631986" style="fill: #1f77b4; stroke: #1f77b4"/>
     <use xlink:href="#m1ac9e51afb" x="122.968449" y="84.346423" style="fill: #1f77b4; stroke: #1f77b4"/>
     <use xlink:href="#m1ac9e51afb" x="125.058908" y="82.712209" style="fill: #1f77b4; stroke: #1f77b4"/>
     <use xlink:href="#m1ac9e51afb" x="127.216547" y="82.817708" style="fill: #1f77b4; stroke: #1f77b4"/>
     <use xlink:href="#m1ac9e51afb" x="129.299698" y="81.834232" style="fill: #1f77b4; stroke: #1f77b4"/>
     <use xlink:href="#m1ac9e51afb" x="131.389455" y="81.013803" style="fill: #1f77b4; stroke: #1f77b4"/>
     <use xlink:href="#m1ac9e51afb" x="133.539927" y="81.262451" style="fill: #1f77b4; stroke: #1f77b4"/>
     <use xlink:href="#m1ac9e51afb" x="135.637273" y="80.35443" style="fill: #1f77b4; stroke: #1f77b4"/>
     <use xlink:href="#m1ac9e51afb" x="137.720283" y="79.739979" style="fill: #1f77b4; stroke: #1f77b4"/>
     <use xlink:href="#m1ac9e51afb" x="139.871457" y="79.34235" style="fill: #1f77b4; stroke: #1f77b4"/>
     <use xlink:href="#m1ac9e51afb" x="141.970209" y="78.784319" style="fill: #1f77b4; stroke: #1f77b4"/>
     <use xlink:href="#m1ac9e51afb" x="144.056171" y="77.569853" style="fill: #1f77b4; stroke: #1f77b4"/>
     <use xlink:href="#m1ac9e51afb" x="146.202848" y="76.774746" style="fill: #1f77b4; stroke: #1f77b4"/>
     <use xlink:href="#m1ac9e51afb" x="148.292182" y="76.042265" style="fill: #1f77b4; stroke: #1f77b4"/>
     <use xlink:href="#m1ac9e51afb" x="150.39248" y="75.587799" style="fill: #1f77b4; stroke: #1f77b4"/>
     <use xlink:href="#m1ac9e51afb" x="152.539297" y="75.746121" style="fill: #1f77b4; stroke: #1f77b4"/>
     <use xlink:href="#m1ac9e51afb" x="154.623292" y="75.174938" style="fill: #1f77b4; stroke: #1f77b4"/>
     <use xlink:href="#m1ac9e51afb" x="156.713189" y="75.364019" style="fill: #1f77b4; stroke: #1f77b4"/>
     <use xlink:href="#m1ac9e51afb" x="158.809129" y="74.195396" style="fill: #1f77b4; stroke: #1f77b4"/>
     <use xlink:href="#m1ac9e51afb" x="160.957493" y="73.499294" style="fill: #1f77b4; stroke: #1f77b4"/>
     <use xlink:href="#m1ac9e51afb" x="163.044579" y="73.370269" style="fill: #1f77b4; stroke: #1f77b4"/>
     <use xlink:href="#m1ac9e51afb" x="165.134476" y="72.211627" style="fill: #1f77b4; stroke: #1f77b4"/>
     <use xlink:href="#m1ac9e51afb" x="167.293521" y="72.943714" style="fill: #1f77b4; stroke: #1f77b4"/>
     <use xlink:href="#m1ac9e51afb" x="169.378639" y="73.51546" style="fill: #1f77b4; stroke: #1f77b4"/>
     <use xlink:href="#m1ac9e51afb" x="171.467412" y="73.31066" style="fill: #1f77b4; stroke: #1f77b4"/>
     <use xlink:href="#m1ac9e51afb" x="173.61943" y="71.335441" style="fill: #1f77b4; stroke: #1f77b4"/>
     <use xlink:href="#m1ac9e51afb" x="175.711294" y="72.605962" style="fill: #1f77b4; stroke: #1f77b4"/>
     <use xlink:href="#m1ac9e51afb" x="177.797537" y="71.475128" style="fill: #1f77b4; stroke: #1f77b4"/>
     <use xlink:href="#m1ac9e51afb" x="179.887153" y="71.162824" style="fill: #1f77b4; stroke: #1f77b4"/>
     <use xlink:href="#m1ac9e51afb" x="182.040577" y="69.961023" style="fill: #1f77b4; stroke: #1f77b4"/>
     <use xlink:href="#m1ac9e51afb" x="184.131879" y="71.31362" style="fill: #1f77b4; stroke: #1f77b4"/>
     <use xlink:href="#m1ac9e51afb" x="186.21756" y="70.113059" style="fill: #1f77b4; stroke: #1f77b4"/>
     <use xlink:href="#m1ac9e51afb" x="188.371967" y="70.225506" style="fill: #1f77b4; stroke: #1f77b4"/>
     <use xlink:href="#m1ac9e51afb" x="190.465518" y="69.331008" style="fill: #1f77b4; stroke: #1f77b4"/>
     <use xlink:href="#m1ac9e51afb" x="192.54895" y="69.145928" style="fill: #1f77b4; stroke: #1f77b4"/>
     <use xlink:href="#m1ac9e51afb" x="194.706168" y="69.865864" style="fill: #1f77b4; stroke: #1f77b4"/>
     <use xlink:href="#m1ac9e51afb" x="196.797892" y="68.572941" style="fill: #1f77b4; stroke: #1f77b4"/>
     <use xlink:href="#m1ac9e51afb" x="198.887508" y="69.170254" style="fill: #1f77b4; stroke: #1f77b4"/>
     <use xlink:href="#m1ac9e51afb" x="200.970659" y="67.634673" style="fill: #1f77b4; stroke: #1f77b4"/>
     <use xlink:href="#m1ac9e51afb" x="203.127455" y="68.195964" style="fill: #1f77b4; stroke: #1f77b4"/>
     <use xlink:href="#m1ac9e51afb" x="205.21946" y="67.909309" style="fill: #1f77b4; stroke: #1f77b4"/>
     <use xlink:href="#m1ac9e51afb" x="207.304298" y="67.909016" style="fill: #1f77b4; stroke: #1f77b4"/>
     <use xlink:href="#m1ac9e51afb" x="209.458986" y="67.842124" style="fill: #1f77b4; stroke: #1f77b4"/>
     <use xlink:href="#m1ac9e51afb" x="211.544807" y="68.337971" style="fill: #1f77b4; stroke: #1f77b4"/>
     <use xlink:href="#m1ac9e51afb" x="213.636391" y="67.71411" style="fill: #1f77b4; stroke: #1f77b4"/>
     <use xlink:href="#m1ac9e51afb" x="215.78363" y="67.423078" style="fill: #1f77b4; stroke: #1f77b4"/>
     <use xlink:href="#m1ac9e51afb" x="217.8821" y="66.910923" style="fill: #1f77b4; stroke: #1f77b4"/>
     <use xlink:href="#m1ac9e51afb" x="219.966094" y="66.929286" style="fill: #1f77b4; stroke: #1f77b4"/>
     <use xlink:href="#m1ac9e51afb" x="222.11488" y="67.01937" style="fill: #1f77b4; stroke: #1f77b4"/>
     <use xlink:href="#m1ac9e51afb" x="224.214615" y="65.740408" style="fill: #1f77b4; stroke: #1f77b4"/>
     <use xlink:href="#m1ac9e51afb" x="226.297485" y="65.480254" style="fill: #1f77b4; stroke: #1f77b4"/>
     <use xlink:href="#m1ac9e51afb" x="228.39202" y="64.871549" style="fill: #1f77b4; stroke: #1f77b4"/>
     <use xlink:href="#m1ac9e51afb" x="230.536167" y="65.752974" style="fill: #1f77b4; stroke: #1f77b4"/>
     <use xlink:href="#m1ac9e51afb" x="232.626064" y="65.600534" style="fill: #1f77b4; stroke: #1f77b4"/>
     <use xlink:href="#m1ac9e51afb" x="234.719615" y="66.043936" style="fill: #1f77b4; stroke: #1f77b4"/>
     <use xlink:href="#m1ac9e51afb" x="236.867135" y="65.769936" style="fill: #1f77b4; stroke: #1f77b4"/>
     <use xlink:href="#m1ac9e51afb" x="238.957032" y="64.764847" style="fill: #1f77b4; stroke: #1f77b4"/>
     <use xlink:href="#m1ac9e51afb" x="241.053254" y="65.033871" style="fill: #1f77b4; stroke: #1f77b4"/>
     <use xlink:href="#m1ac9e51afb" x="243.198807" y="64.757652" style="fill: #1f77b4; stroke: #1f77b4"/>
     <use xlink:href="#m1ac9e51afb" x="245.288985" y="64.126989" style="fill: #1f77b4; stroke: #1f77b4"/>
     <use xlink:href="#m1ac9e51afb" x="247.385347" y="64.330795" style="fill: #1f77b4; stroke: #1f77b4"/>
     <use xlink:href="#m1ac9e51afb" x="249.475525" y="64.006356" style="fill: #1f77b4; stroke: #1f77b4"/>
     <use xlink:href="#m1ac9e51afb" x="251.620375" y="63.551121" style="fill: #1f77b4; stroke: #1f77b4"/>
    </g>
   </g>
   <g id="line2d_12">
    <path d="M 46.965625 168.14971 
L 49.062409 161.030949 
L 51.210913 151.801253 
L 53.296875 145.780976 
L 55.386491 140.062536 
L 57.543287 134.12547 
L 59.632903 127.960881 
L 61.717881 123.485478 
L 63.872991 118.243551 
L 65.964715 112.886937 
L 68.04913 108.680466 
L 70.149568 104.404194 
L 72.297651 101.60026 
L 74.381083 96.6116 
L 76.470699 93.024914 
L 78.625246 89.723767 
L 80.718516 86.521044 
L 82.802511 83.355818 
L 84.96015 80.493302 
L 87.051874 78.730056 
L 89.137836 76.029695 
" clip-path="url(#p8a29822dea)" style="fill: none; stroke: #ff7f0e; stroke-width: 0.7; stroke-linecap: square"/>
    <defs>
     <path id="m0fa8a452c5" d="M 0 0.9 
C 0.238683 0.9 0.467622 0.80517 0.636396 0.636396 
C 0.80517 0.467622 0.9 0.238683 0.9 0 
C 0.9 -0.238683 0.80517 -0.467622 0.636396 -0.636396 
C 0.467622 -0.80517 0.238683 -0.9 0 -0.9 
C -0.238683 -0.9 -0.467622 -0.80517 -0.636396 -0.636396 
C -0.80517 -0.467622 -0.9 -0.238683 -0.9 0 
C -0.9 0.238683 -0.80517 0.467622 -0.636396 0.636396 
C -0.467622 0.80517 -0.238683 0.9 0 0.9 
z
" style="stroke: #ff7f0e"/>
    </defs>
    <g clip-path="url(#p8a29822dea)">
     <use xlink:href="#m0fa8a452c5" x="46.965625" y="168.14971" style="fill: #ff7f0e; stroke: #ff7f0e"/>
     <use xlink:href="#m0fa8a452c5" x="49.062409" y="161.030949" style="fill: #ff7f0e; stroke: #ff7f0e"/>
     <use xlink:href="#m0fa8a452c5" x="51.210913" y="151.801253" style="fill: #ff7f0e; stroke: #ff7f0e"/>
     <use xlink:href="#m0fa8a452c5" x="53.296875" y="145.780976" style="fill: #ff7f0e; stroke: #ff7f0e"/>
     <use xlink:href="#m0fa8a452c5" x="55.386491" y="140.062536" style="fill: #ff7f0e; stroke: #ff7f0e"/>
     <use xlink:href="#m0fa8a452c5" x="57.543287" y="134.12547" style="fill: #ff7f0e; stroke: #ff7f0e"/>
     <use xlink:href="#m0fa8a452c5" x="59.632903" y="127.960881" style="fill: #ff7f0e; stroke: #ff7f0e"/>
     <use xlink:href="#m0fa8a452c5" x="61.717881" y="123.485478" style="fill: #ff7f0e; stroke: #ff7f0e"/>
     <use xlink:href="#m0fa8a452c5" x="63.872991" y="118.243551" style="fill: #ff7f0e; stroke: #ff7f0e"/>
     <use xlink:href="#m0fa8a452c5" x="65.964715" y="112.886937" style="fill: #ff7f0e; stroke: #ff7f0e"/>
     <use xlink:href="#m0fa8a452c5" x="68.04913" y="108.680466" style="fill: #ff7f0e; stroke: #ff7f0e"/>
     <use xlink:href="#m0fa8a452c5" x="70.149568" y="104.404194" style="fill: #ff7f0e; stroke: #ff7f0e"/>
     <use xlink:href="#m0fa8a452c5" x="72.297651" y="101.60026" style="fill: #ff7f0e; stroke: #ff7f0e"/>
     <use xlink:href="#m0fa8a452c5" x="74.381083" y="96.6116" style="fill: #ff7f0e; stroke: #ff7f0e"/>
     <use xlink:href="#m0fa8a452c5" x="76.470699" y="93.024914" style="fill: #ff7f0e; stroke: #ff7f0e"/>
     <use xlink:href="#m0fa8a452c5" x="78.625246" y="89.723767" style="fill: #ff7f0e; stroke: #ff7f0e"/>
     <use xlink:href="#m0fa8a452c5" x="80.718516" y="86.521044" style="fill: #ff7f0e; stroke: #ff7f0e"/>
     <use xlink:href="#m0fa8a452c5" x="82.802511" y="83.355818" style="fill: #ff7f0e; stroke: #ff7f0e"/>
     <use xlink:href="#m0fa8a452c5" x="84.96015" y="80.493302" style="fill: #ff7f0e; stroke: #ff7f0e"/>
     <use xlink:href="#m0fa8a452c5" x="87.051874" y="78.730056" style="fill: #ff7f0e; stroke: #ff7f0e"/>
     <use xlink:href="#m0fa8a452c5" x="89.137836" y="76.029695" style="fill: #ff7f0e; stroke: #ff7f0e"/>
    </g>
   </g>
   <g id="line2d_13">
    <path d="M 46.965625 168.14971 
L 49.123827 161.981428 
L 51.215551 159.970527 
L 53.299404 156.63551 
L 55.454093 153.288119 
L 57.540335 154.443193 
L 59.6322 149.858997 
L 61.789418 147.129489 
L 63.87285 144.868564 
L 65.961342 141.723776 
L 68.053066 140.271653 
L 70.209019 139.022019 
L 72.292029 135.780362 
L 74.386564 133.081995 
L 76.540971 130.505893 
L 78.626792 130.75514 
L 80.775296 126.837539 
L 82.875875 126.654047 
L 84.964507 125.279615 
L 87.054264 122.175515 
L 89.197427 121.416666 
L 91.287324 119.213888 
L 93.383405 117.213299 
L 95.529098 115.013427 
L 97.618714 113.151457 
L 99.708752 112.676785 
L 101.865126 109.084338 
L 103.950948 109.005775 
L 106.041126 108.255737 
L 108.135801 106.633499 
L 110.2829 105.863849 
L 112.372516 103.920723 
L 114.467754 103.365213 
L 116.620896 102.038673 
L 118.705171 101.26542 
L 120.794084 99.354552 
L 122.952989 98.343786 
L 125.037967 97.18117 
L 127.125896 96.231943 
L 129.224788 95.459378 
L 131.369919 93.697155 
L 133.459816 92.309897 
L 135.547324 91.767168 
L 137.69892 90.995139 
L 139.790644 89.294313 
L 141.878574 87.574901 
L 144.031013 88.746778 
L 146.125267 85.516239 
L 148.210807 86.2805 
L 150.300002 86.004892 
L 152.453003 86.272747 
L 154.547257 83.312933 
L 156.632376 82.682182 
L 158.787907 84.056743 
L 160.879912 82.476449 
L 162.983583 82.256479 
L 165.12014 80.524731 
L 167.210037 79.395758 
L 169.301762 78.681988 
L 171.386037 77.930319 
L 173.540022 78.42642 
L 175.634136 77.067864 
L 177.717849 76.079903 
" clip-path="url(#p8a29822dea)" style="fill: none; stroke: #2ca02c; stroke-width: 0.7; stroke-linecap: square"/>
    <defs>
     <path id="m1dbb9c157a" d="M 0 0.9 
C 0.238683 0.9 0.467622 0.80517 0.636396 0.636396 
C 0.80517 0.467622 0.9 0.238683 0.9 0 
C 0.9 -0.238683 0.80517 -0.467622 0.636396 -0.636396 
C 0.467622 -0.80517 0.238683 -0.9 0 -0.9 
C -0.238683 -0.9 -0.467622 -0.80517 -0.636396 -0.636396 
C -0.80517 -0.467622 -0.9 -0.238683 -0.9 0 
C -0.9 0.238683 -0.80517 0.467622 -0.636396 0.636396 
C -0.467622 0.80517 -0.238683 0.9 0 0.9 
z
" style="stroke: #2ca02c"/>
    </defs>
    <g clip-path="url(#p8a29822dea)">
     <use xlink:href="#m1dbb9c157a" x="46.965625" y="168.14971" style="fill: #2ca02c; stroke: #2ca02c"/>
     <use xlink:href="#m1dbb9c157a" x="49.123827" y="161.981428" style="fill: #2ca02c; stroke: #2ca02c"/>
     <use xlink:href="#m1dbb9c157a" x="51.215551" y="159.970527" style="fill: #2ca02c; stroke: #2ca02c"/>
     <use xlink:href="#m1dbb9c157a" x="53.299404" y="156.63551" style="fill: #2ca02c; stroke: #2ca02c"/>
     <use xlink:href="#m1dbb9c157a" x="55.454093" y="153.288119" style="fill: #2ca02c; stroke: #2ca02c"/>
     <use xlink:href="#m1dbb9c157a" x="57.540335" y="154.443193" style="fill: #2ca02c; stroke: #2ca02c"/>
     <use xlink:href="#m1dbb9c157a" x="59.6322" y="149.858997" style="fill: #2ca02c; stroke: #2ca02c"/>
     <use xlink:href="#m1dbb9c157a" x="61.789418" y="147.129489" style="fill: #2ca02c; stroke: #2ca02c"/>
     <use xlink:href="#m1dbb9c157a" x="63.87285" y="144.868564" style="fill: #2ca02c; stroke: #2ca02c"/>
     <use xlink:href="#m1dbb9c157a" x="65.961342" y="141.723776" style="fill: #2ca02c; stroke: #2ca02c"/>
     <use xlink:href="#m1dbb9c157a" x="68.053066" y="140.271653" style="fill: #2ca02c; stroke: #2ca02c"/>
     <use xlink:href="#m1dbb9c157a" x="70.209019" y="139.022019" style="fill: #2ca02c; stroke: #2ca02c"/>
     <use xlink:href="#m1dbb9c157a" x="72.292029" y="135.780362" style="fill: #2ca02c; stroke: #2ca02c"/>
     <use xlink:href="#m1dbb9c157a" x="74.386564" y="133.081995" style="fill: #2ca02c; stroke: #2ca02c"/>
     <use xlink:href="#m1dbb9c157a" x="76.540971" y="130.505893" style="fill: #2ca02c; stroke: #2ca02c"/>
     <use xlink:href="#m1dbb9c157a" x="78.626792" y="130.75514" style="fill: #2ca02c; stroke: #2ca02c"/>
     <use xlink:href="#m1dbb9c157a" x="80.775296" y="126.837539" style="fill: #2ca02c; stroke: #2ca02c"/>
     <use xlink:href="#m1dbb9c157a" x="82.875875" y="126.654047" style="fill: #2ca02c; stroke: #2ca02c"/>
     <use xlink:href="#m1dbb9c157a" x="84.964507" y="125.279615" style="fill: #2ca02c; stroke: #2ca02c"/>
     <use xlink:href="#m1dbb9c157a" x="87.054264" y="122.175515" style="fill: #2ca02c; stroke: #2ca02c"/>
     <use xlink:href="#m1dbb9c157a" x="89.197427" y="121.416666" style="fill: #2ca02c; stroke: #2ca02c"/>
     <use xlink:href="#m1dbb9c157a" x="91.287324" y="119.213888" style="fill: #2ca02c; stroke: #2ca02c"/>
     <use xlink:href="#m1dbb9c157a" x="93.383405" y="117.213299" style="fill: #2ca02c; stroke: #2ca02c"/>
     <use xlink:href="#m1dbb9c157a" x="95.529098" y="115.013427" style="fill: #2ca02c; stroke: #2ca02c"/>
     <use xlink:href="#m1dbb9c157a" x="97.618714" y="113.151457" style="fill: #2ca02c; stroke: #2ca02c"/>
     <use xlink:href="#m1dbb9c157a" x="99.708752" y="112.676785" style="fill: #2ca02c; stroke: #2ca02c"/>
     <use xlink:href="#m1dbb9c157a" x="101.865126" y="109.084338" style="fill: #2ca02c; stroke: #2ca02c"/>
     <use xlink:href="#m1dbb9c157a" x="103.950948" y="109.005775" style="fill: #2ca02c; stroke: #2ca02c"/>
     <use xlink:href="#m1dbb9c157a" x="106.041126" y="108.255737" style="fill: #2ca02c; stroke: #2ca02c"/>
     <use xlink:href="#m1dbb9c157a" x="108.135801" y="106.633499" style="fill: #2ca02c; stroke: #2ca02c"/>
     <use xlink:href="#m1dbb9c157a" x="110.2829" y="105.863849" style="fill: #2ca02c; stroke: #2ca02c"/>
     <use xlink:href="#m1dbb9c157a" x="112.372516" y="103.920723" style="fill: #2ca02c; stroke: #2ca02c"/>
     <use xlink:href="#m1dbb9c157a" x="114.467754" y="103.365213" style="fill: #2ca02c; stroke: #2ca02c"/>
     <use xlink:href="#m1dbb9c157a" x="116.620896" y="102.038673" style="fill: #2ca02c; stroke: #2ca02c"/>
     <use xlink:href="#m1dbb9c157a" x="118.705171" y="101.26542" style="fill: #2ca02c; stroke: #2ca02c"/>
     <use xlink:href="#m1dbb9c157a" x="120.794084" y="99.354552" style="fill: #2ca02c; stroke: #2ca02c"/>
     <use xlink:href="#m1dbb9c157a" x="122.952989" y="98.343786" style="fill: #2ca02c; stroke: #2ca02c"/>
     <use xlink:href="#m1dbb9c157a" x="125.037967" y="97.18117" style="fill: #2ca02c; stroke: #2ca02c"/>
     <use xlink:href="#m1dbb9c157a" x="127.125896" y="96.231943" style="fill: #2ca02c; stroke: #2ca02c"/>
     <use xlink:href="#m1dbb9c157a" x="129.224788" y="95.459378" style="fill: #2ca02c; stroke: #2ca02c"/>
     <use xlink:href="#m1dbb9c157a" x="131.369919" y="93.697155" style="fill: #2ca02c; stroke: #2ca02c"/>
     <use xlink:href="#m1dbb9c157a" x="133.459816" y="92.309897" style="fill: #2ca02c; stroke: #2ca02c"/>
     <use xlink:href="#m1dbb9c157a" x="135.547324" y="91.767168" style="fill: #2ca02c; stroke: #2ca02c"/>
     <use xlink:href="#m1dbb9c157a" x="137.69892" y="90.995139" style="fill: #2ca02c; stroke: #2ca02c"/>
     <use xlink:href="#m1dbb9c157a" x="139.790644" y="89.294313" style="fill: #2ca02c; stroke: #2ca02c"/>
     <use xlink:href="#m1dbb9c157a" x="141.878574" y="87.574901" style="fill: #2ca02c; stroke: #2ca02c"/>
     <use xlink:href="#m1dbb9c157a" x="144.031013" y="88.746778" style="fill: #2ca02c; stroke: #2ca02c"/>
     <use xlink:href="#m1dbb9c157a" x="146.125267" y="85.516239" style="fill: #2ca02c; stroke: #2ca02c"/>
     <use xlink:href="#m1dbb9c157a" x="148.210807" y="86.2805" style="fill: #2ca02c; stroke: #2ca02c"/>
     <use xlink:href="#m1dbb9c157a" x="150.300002" y="86.004892" style="fill: #2ca02c; stroke: #2ca02c"/>
     <use xlink:href="#m1dbb9c157a" x="152.453003" y="86.272747" style="fill: #2ca02c; stroke: #2ca02c"/>
     <use xlink:href="#m1dbb9c157a" x="154.547257" y="83.312933" style="fill: #2ca02c; stroke: #2ca02c"/>
     <use xlink:href="#m1dbb9c157a" x="156.632376" y="82.682182" style="fill: #2ca02c; stroke: #2ca02c"/>
     <use xlink:href="#m1dbb9c157a" x="158.787907" y="84.056743" style="fill: #2ca02c; stroke: #2ca02c"/>
     <use xlink:href="#m1dbb9c157a" x="160.879912" y="82.476449" style="fill: #2ca02c; stroke: #2ca02c"/>
     <use xlink:href="#m1dbb9c157a" x="162.983583" y="82.256479" style="fill: #2ca02c; stroke: #2ca02c"/>
     <use xlink:href="#m1dbb9c157a" x="165.12014" y="80.524731" style="fill: #2ca02c; stroke: #2ca02c"/>
     <use xlink:href="#m1dbb9c157a" x="167.210037" y="79.395758" style="fill: #2ca02c; stroke: #2ca02c"/>
     <use xlink:href="#m1dbb9c157a" x="169.301762" y="78.681988" style="fill: #2ca02c; stroke: #2ca02c"/>
     <use xlink:href="#m1dbb9c157a" x="171.386037" y="77.930319" style="fill: #2ca02c; stroke: #2ca02c"/>
     <use xlink:href="#m1dbb9c157a" x="173.540022" y="78.42642" style="fill: #2ca02c; stroke: #2ca02c"/>
     <use xlink:href="#m1dbb9c157a" x="175.634136" y="77.067864" style="fill: #2ca02c; stroke: #2ca02c"/>
     <use xlink:href="#m1dbb9c157a" x="177.717849" y="76.079903" style="fill: #2ca02c; stroke: #2ca02c"/>
    </g>
   </g>
   <g id="line2d_14">
    <path d="M 46.965625 168.14971 
L 49.057349 162.104841 
L 51.147246 154.851825 
L 53.301794 149.464959 
L 55.38635 142.77456 
L 57.478074 137.610856 
L 59.563614 132.980503 
L 61.718162 128.591 
L 63.804124 124.679464 
L 65.895988 120.613788 
L 68.04646 117.085978 
L 70.142541 113.379937 
L 72.234265 109.030842 
L 74.377991 105.544673 
L 76.475337 101.807311 
L 78.558347 98.918868 
L 80.652882 96.169821 
L 82.80743 92.547038 
L 84.897327 90.408359 
L 86.981602 88.040412 
L 89.132074 85.702172 
L 91.228858 83.558515 
L 93.312711 81.150734 
L 95.464448 79.300161 
L 97.561794 77.737056 
L 99.644804 75.708756 
L 101.734701 74.120999 
L 103.885595 71.48372 
L 105.9828 70.927463 
L 108.06567 68.726964 
L 110.21825 68.650122 
L 112.315877 65.94352 
L 114.401698 64.715299 
L 116.548094 62.742302 
L 118.638694 61.919917 
L 120.738007 61.050765 
L 122.884825 58.573729 
L 124.970646 58.608974 
L 127.060965 57.497427 
L 129.154516 55.346998 
L 131.303161 54.818891 
L 133.403458 53.544357 
L 135.492512 52.91404 
L 137.637502 51.510866 
L 139.725572 48.84639 
L 141.823199 49.813878 
L 143.909161 49.016666 
L 146.057665 48.169817 
L 148.158103 47.755315 
L 150.241113 46.894297 
L 152.394396 46.859596 
L 154.479796 46.580366 
L 156.569552 45.394506 
L 158.725927 44.15224 
L 160.811467 44.520406 
L 162.912045 43.609222 
L 164.998288 42.992111 
L 167.14356 42.760524 
L 169.233738 40.792993 
L 171.323776 40.191283 
L 173.482399 40.058142 
L 175.565971 38.907463 
L 177.656009 38.762866 
L 179.813367 38.363191 
L 181.899329 38.855726 
L 183.988524 37.941476 
L 186.088821 37.872263 
L 188.233952 36.298698 
L 190.321319 36.172345 
L 192.41979 35.404316 
L 194.570261 35.397547 
L 196.653272 34.708299 
L 198.742607 34.772194 
L 200.903338 34.674834 
L 202.990986 34.052997 
L 205.075121 33.31567 
L 207.16544 33.031874 
L 209.322658 32.399951 
L 211.407495 31.91387 
L 213.497954 31.922189 
L 215.656999 31.288894 
L 217.739869 31.834133 
L 219.830328 31.391938 
L 221.984595 31.081609 
L 224.077443 30.347405 
L 226.163405 30.119799 
L 228.253162 29.28492 
L 230.409396 29.496764 
L 232.495498 28.997606 
L 234.585957 29.229752 
L 236.741348 28.807055 
L 238.833072 27.865697 
L 240.917769 28.326674 
L 243.071333 28.08601 
L 245.166571 27.815165 
" clip-path="url(#p8a29822dea)" style="fill: none; stroke: #d62728; stroke-width: 0.7; stroke-linecap: square"/>
    <defs>
     <path id="m73312f512e" d="M 0 0.9 
C 0.238683 0.9 0.467622 0.80517 0.636396 0.636396 
C 0.80517 0.467622 0.9 0.238683 0.9 0 
C 0.9 -0.238683 0.80517 -0.467622 0.636396 -0.636396 
C 0.467622 -0.80517 0.238683 -0.9 0 -0.9 
C -0.238683 -0.9 -0.467622 -0.80517 -0.636396 -0.636396 
C -0.80517 -0.467622 -0.9 -0.238683 -0.9 0 
C -0.9 0.238683 -0.80517 0.467622 -0.636396 0.636396 
C -0.467622 0.80517 -0.238683 0.9 0 0.9 
z
" style="stroke: #d62728"/>
    </defs>
    <g clip-path="url(#p8a29822dea)">
     <use xlink:href="#m73312f512e" x="46.965625" y="168.14971" style="fill: #d62728; stroke: #d62728"/>
     <use xlink:href="#m73312f512e" x="49.057349" y="162.104841" style="fill: #d62728; stroke: #d62728"/>
     <use xlink:href="#m73312f512e" x="51.147246" y="154.851825" style="fill: #d62728; stroke: #d62728"/>
     <use xlink:href="#m73312f512e" x="53.301794" y="149.464959" style="fill: #d62728; stroke: #d62728"/>
     <use xlink:href="#m73312f512e" x="55.38635" y="142.77456" style="fill: #d62728; stroke: #d62728"/>
     <use xlink:href="#m73312f512e" x="57.478074" y="137.610856" style="fill: #d62728; stroke: #d62728"/>
     <use xlink:href="#m73312f512e" x="59.563614" y="132.980503" style="fill: #d62728; stroke: #d62728"/>
     <use xlink:href="#m73312f512e" x="61.718162" y="128.591" style="fill: #d62728; stroke: #d62728"/>
     <use xlink:href="#m73312f512e" x="63.804124" y="124.679464" style="fill: #d62728; stroke: #d62728"/>
     <use xlink:href="#m73312f512e" x="65.895988" y="120.613788" style="fill: #d62728; stroke: #d62728"/>
     <use xlink:href="#m73312f512e" x="68.04646" y="117.085978" style="fill: #d62728; stroke: #d62728"/>
     <use xlink:href="#m73312f512e" x="70.142541" y="113.379937" style="fill: #d62728; stroke: #d62728"/>
     <use xlink:href="#m73312f512e" x="72.234265" y="109.030842" style="fill: #d62728; stroke: #d62728"/>
     <use xlink:href="#m73312f512e" x="74.377991" y="105.544673" style="fill: #d62728; stroke: #d62728"/>
     <use xlink:href="#m73312f512e" x="76.475337" y="101.807311" style="fill: #d62728; stroke: #d62728"/>
     <use xlink:href="#m73312f512e" x="78.558347" y="98.918868" style="fill: #d62728; stroke: #d62728"/>
     <use xlink:href="#m73312f512e" x="80.652882" y="96.169821" style="fill: #d62728; stroke: #d62728"/>
     <use xlink:href="#m73312f512e" x="82.80743" y="92.547038" style="fill: #d62728; stroke: #d62728"/>
     <use xlink:href="#m73312f512e" x="84.897327" y="90.408359" style="fill: #d62728; stroke: #d62728"/>
     <use xlink:href="#m73312f512e" x="86.981602" y="88.040412" style="fill: #d62728; stroke: #d62728"/>
     <use xlink:href="#m73312f512e" x="89.132074" y="85.702172" style="fill: #d62728; stroke: #d62728"/>
     <use xlink:href="#m73312f512e" x="91.228858" y="83.558515" style="fill: #d62728; stroke: #d62728"/>
     <use xlink:href="#m73312f512e" x="93.312711" y="81.150734" style="fill: #d62728; stroke: #d62728"/>
     <use xlink:href="#m73312f512e" x="95.464448" y="79.300161" style="fill: #d62728; stroke: #d62728"/>
     <use xlink:href="#m73312f512e" x="97.561794" y="77.737056" style="fill: #d62728; stroke: #d62728"/>
     <use xlink:href="#m73312f512e" x="99.644804" y="75.708756" style="fill: #d62728; stroke: #d62728"/>
     <use xlink:href="#m73312f512e" x="101.734701" y="74.120999" style="fill: #d62728; stroke: #d62728"/>
     <use xlink:href="#m73312f512e" x="103.885595" y="71.48372" style="fill: #d62728; stroke: #d62728"/>
     <use xlink:href="#m73312f512e" x="105.9828" y="70.927463" style="fill: #d62728; stroke: #d62728"/>
     <use xlink:href="#m73312f512e" x="108.06567" y="68.726964" style="fill: #d62728; stroke: #d62728"/>
     <use xlink:href="#m73312f512e" x="110.21825" y="68.650122" style="fill: #d62728; stroke: #d62728"/>
     <use xlink:href="#m73312f512e" x="112.315877" y="65.94352" style="fill: #d62728; stroke: #d62728"/>
     <use xlink:href="#m73312f512e" x="114.401698" y="64.715299" style="fill: #d62728; stroke: #d62728"/>
     <use xlink:href="#m73312f512e" x="116.548094" y="62.742302" style="fill: #d62728; stroke: #d62728"/>
     <use xlink:href="#m73312f512e" x="118.638694" y="61.919917" style="fill: #d62728; stroke: #d62728"/>
     <use xlink:href="#m73312f512e" x="120.738007" y="61.050765" style="fill: #d62728; stroke: #d62728"/>
     <use xlink:href="#m73312f512e" x="122.884825" y="58.573729" style="fill: #d62728; stroke: #d62728"/>
     <use xlink:href="#m73312f512e" x="124.970646" y="58.608974" style="fill: #d62728; stroke: #d62728"/>
     <use xlink:href="#m73312f512e" x="127.060965" y="57.497427" style="fill: #d62728; stroke: #d62728"/>
     <use xlink:href="#m73312f512e" x="129.154516" y="55.346998" style="fill: #d62728; stroke: #d62728"/>
     <use xlink:href="#m73312f512e" x="131.303161" y="54.818891" style="fill: #d62728; stroke: #d62728"/>
     <use xlink:href="#m73312f512e" x="133.403458" y="53.544357" style="fill: #d62728; stroke: #d62728"/>
     <use xlink:href="#m73312f512e" x="135.492512" y="52.91404" style="fill: #d62728; stroke: #d62728"/>
     <use xlink:href="#m73312f512e" x="137.637502" y="51.510866" style="fill: #d62728; stroke: #d62728"/>
     <use xlink:href="#m73312f512e" x="139.725572" y="48.84639" style="fill: #d62728; stroke: #d62728"/>
     <use xlink:href="#m73312f512e" x="141.823199" y="49.813878" style="fill: #d62728; stroke: #d62728"/>
     <use xlink:href="#m73312f512e" x="143.909161" y="49.016666" style="fill: #d62728; stroke: #d62728"/>
     <use xlink:href="#m73312f512e" x="146.057665" y="48.169817" style="fill: #d62728; stroke: #d62728"/>
     <use xlink:href="#m73312f512e" x="148.158103" y="47.755315" style="fill: #d62728; stroke: #d62728"/>
     <use xlink:href="#m73312f512e" x="150.241113" y="46.894297" style="fill: #d62728; stroke: #d62728"/>
     <use xlink:href="#m73312f512e" x="152.394396" y="46.859596" style="fill: #d62728; stroke: #d62728"/>
     <use xlink:href="#m73312f512e" x="154.479796" y="46.580366" style="fill: #d62728; stroke: #d62728"/>
     <use xlink:href="#m73312f512e" x="156.569552" y="45.394506" style="fill: #d62728; stroke: #d62728"/>
     <use xlink:href="#m73312f512e" x="158.725927" y="44.15224" style="fill: #d62728; stroke: #d62728"/>
     <use xlink:href="#m73312f512e" x="160.811467" y="44.520406" style="fill: #d62728; stroke: #d62728"/>
     <use xlink:href="#m73312f512e" x="162.912045" y="43.609222" style="fill: #d62728; stroke: #d62728"/>
     <use xlink:href="#m73312f512e" x="164.998288" y="42.992111" style="fill: #d62728; stroke: #d62728"/>
     <use xlink:href="#m73312f512e" x="167.14356" y="42.760524" style="fill: #d62728; stroke: #d62728"/>
     <use xlink:href="#m73312f512e" x="169.233738" y="40.792993" style="fill: #d62728; stroke: #d62728"/>
     <use xlink:href="#m73312f512e" x="171.323776" y="40.191283" style="fill: #d62728; stroke: #d62728"/>
     <use xlink:href="#m73312f512e" x="173.482399" y="40.058142" style="fill: #d62728; stroke: #d62728"/>
     <use xlink:href="#m73312f512e" x="175.565971" y="38.907463" style="fill: #d62728; stroke: #d62728"/>
     <use xlink:href="#m73312f512e" x="177.656009" y="38.762866" style="fill: #d62728; stroke: #d62728"/>
     <use xlink:href="#m73312f512e" x="179.813367" y="38.363191" style="fill: #d62728; stroke: #d62728"/>
     <use xlink:href="#m73312f512e" x="181.899329" y="38.855726" style="fill: #d62728; stroke: #d62728"/>
     <use xlink:href="#m73312f512e" x="183.988524" y="37.941476" style="fill: #d62728; stroke: #d62728"/>
     <use xlink:href="#m73312f512e" x="186.088821" y="37.872263" style="fill: #d62728; stroke: #d62728"/>
     <use xlink:href="#m73312f512e" x="188.233952" y="36.298698" style="fill: #d62728; stroke: #d62728"/>
     <use xlink:href="#m73312f512e" x="190.321319" y="36.172345" style="fill: #d62728; stroke: #d62728"/>
     <use xlink:href="#m73312f512e" x="192.41979" y="35.404316" style="fill: #d62728; stroke: #d62728"/>
     <use xlink:href="#m73312f512e" x="194.570261" y="35.397547" style="fill: #d62728; stroke: #d62728"/>
     <use xlink:href="#m73312f512e" x="196.653272" y="34.708299" style="fill: #d62728; stroke: #d62728"/>
     <use xlink:href="#m73312f512e" x="198.742607" y="34.772194" style="fill: #d62728; stroke: #d62728"/>
     <use xlink:href="#m73312f512e" x="200.903338" y="34.674834" style="fill: #d62728; stroke: #d62728"/>
     <use xlink:href="#m73312f512e" x="202.990986" y="34.052997" style="fill: #d62728; stroke: #d62728"/>
     <use xlink:href="#m73312f512e" x="205.075121" y="33.31567" style="fill: #d62728; stroke: #d62728"/>
     <use xlink:href="#m73312f512e" x="207.16544" y="33.031874" style="fill: #d62728; stroke: #d62728"/>
     <use xlink:href="#m73312f512e" x="209.322658" y="32.399951" style="fill: #d62728; stroke: #d62728"/>
     <use xlink:href="#m73312f512e" x="211.407495" y="31.91387" style="fill: #d62728; stroke: #d62728"/>
     <use xlink:href="#m73312f512e" x="213.497954" y="31.922189" style="fill: #d62728; stroke: #d62728"/>
     <use xlink:href="#m73312f512e" x="215.656999" y="31.288894" style="fill: #d62728; stroke: #d62728"/>
     <use xlink:href="#m73312f512e" x="217.739869" y="31.834133" style="fill: #d62728; stroke: #d62728"/>
     <use xlink:href="#m73312f512e" x="219.830328" y="31.391938" style="fill: #d62728; stroke: #d62728"/>
     <use xlink:href="#m73312f512e" x="221.984595" y="31.081609" style="fill: #d62728; stroke: #d62728"/>
     <use xlink:href="#m73312f512e" x="224.077443" y="30.347405" style="fill: #d62728; stroke: #d62728"/>
     <use xlink:href="#m73312f512e" x="226.163405" y="30.119799" style="fill: #d62728; stroke: #d62728"/>
     <use xlink:href="#m73312f512e" x="228.253162" y="29.28492" style="fill: #d62728; stroke: #d62728"/>
     <use xlink:href="#m73312f512e" x="230.409396" y="29.496764" style="fill: #d62728; stroke: #d62728"/>
     <use xlink:href="#m73312f512e" x="232.495498" y="28.997606" style="fill: #d62728; stroke: #d62728"/>
     <use xlink:href="#m73312f512e" x="234.585957" y="29.229752" style="fill: #d62728; stroke: #d62728"/>
     <use xlink:href="#m73312f512e" x="236.741348" y="28.807055" style="fill: #d62728; stroke: #d62728"/>
     <use xlink:href="#m73312f512e" x="238.833072" y="27.865697" style="fill: #d62728; stroke: #d62728"/>
     <use xlink:href="#m73312f512e" x="240.917769" y="28.326674" style="fill: #d62728; stroke: #d62728"/>
     <use xlink:href="#m73312f512e" x="243.071333" y="28.08601" style="fill: #d62728; stroke: #d62728"/>
     <use xlink:href="#m73312f512e" x="245.166571" y="27.815165" style="fill: #d62728; stroke: #d62728"/>
    </g>
   </g>
   <g id="patch_3">
    <path d="M 46.965625 175.166437 
L 46.965625 20.798438 
" style="fill: none; stroke: #000000; stroke-width: 0.8; stroke-linejoin: miter; stroke-linecap: square"/>
   </g>
   <g id="patch_4">
    <path d="M 261.853113 175.166437 
L 261.853113 20.798438 
" style="fill: none; stroke: #000000; stroke-width: 0.8; stroke-linejoin: miter; stroke-linecap: square"/>
   </g>
   <g id="patch_5">
    <path d="M 46.965625 175.166437 
L 261.853113 175.166437 
" style="fill: none; stroke: #000000; stroke-width: 0.8; stroke-linejoin: miter; stroke-linecap: square"/>
   </g>
   <g id="patch_6">
    <path d="M 46.965625 20.798438 
L 261.853113 20.798438 
" style="fill: none; stroke: #000000; stroke-width: 0.8; stroke-linejoin: miter; stroke-linecap: square"/>
   </g>
   <g id="text_14">
    <!-- VTNA overlay plot for Product -->
    <g transform="translate(80.414837 14.798438) scale(0.1 -0.1)">
     <defs>
      <path id="DejaVuSans-56" d="M 1831 0 
L 50 4666 
L 709 4666 
L 2188 738 
L 3669 4666 
L 4325 4666 
L 2547 0 
L 1831 0 
z
" transform="scale(0.015625)"/>
      <path id="DejaVuSans-54" d="M -19 4666 
L 3928 4666 
L 3928 4134 
L 2272 4134 
L 2272 0 
L 1638 0 
L 1638 4134 
L -19 4134 
L -19 4666 
z
" transform="scale(0.015625)"/>
      <path id="DejaVuSans-4e" d="M 628 4666 
L 1478 4666 
L 3547 763 
L 3547 4666 
L 4159 4666 
L 4159 0 
L 3309 0 
L 1241 3903 
L 1241 0 
L 628 0 
L 628 4666 
z
" transform="scale(0.015625)"/>
      <path id="DejaVuSans-41" d="M 2188 4044 
L 1331 1722 
L 3047 1722 
L 2188 4044 
z
M 1831 4666 
L 2547 4666 
L 4325 0 
L 3669 0 
L 3244 1197 
L 1141 1197 
L 716 0 
L 50 0 
L 1831 4666 
z
" transform="scale(0.015625)"/>
      <path id="DejaVuSans-76" d="M 191 3500 
L 800 3500 
L 1894 563 
L 2988 3500 
L 3597 3500 
L 2284 0 
L 1503 0 
L 191 3500 
z
" transform="scale(0.015625)"/>
      <path id="DejaVuSans-6c" d="M 603 4863 
L 1178 4863 
L 1178 0 
L 603 0 
L 603 4863 
z
" transform="scale(0.015625)"/>
      <path id="DejaVuSans-61" d="M 2194 1759 
Q 1497 1759 1228 1600 
Q 959 1441 959 1056 
Q 959 750 1161 570 
Q 1363 391 1709 391 
Q 2188 391 2477 730 
Q 2766 1069 2766 1631 
L 2766 1759 
L 2194 1759 
z
M 3341 1997 
L 3341 0 
L 2766 0 
L 2766 531 
Q 2569 213 2275 61 
Q 1981 -91 1556 -91 
Q 1019 -91 701 211 
Q 384 513 384 1019 
Q 384 1609 779 1909 
Q 1175 2209 1959 2209 
L 2766 2209 
L 2766 2266 
Q 2766 2663 2505 2880 
Q 2244 3097 1772 3097 
Q 1472 3097 1187 3025 
Q 903 2953 641 2809 
L 641 3341 
Q 956 3463 1253 3523 
Q 1550 3584 1831 3584 
Q 2591 3584 2966 3190 
Q 3341 2797 3341 1997 
z
" transform="scale(0.015625)"/>
      <path id="DejaVuSans-79" d="M 2059 -325 
Q 1816 -950 1584 -1140 
Q 1353 -1331 966 -1331 
L 506 -1331 
L 506 -850 
L 844 -850 
Q 1081 -850 1212 -737 
Q 1344 -625 1503 -206 
L 1606 56 
L 191 3500 
L 800 3500 
L 1894 763 
L 2988 3500 
L 3597 3500 
L 2059 -325 
z
" transform="scale(0.015625)"/>
      <path id="DejaVuSans-70" d="M 1159 525 
L 1159 -1331 
L 581 -1331 
L 581 3500 
L 1159 3500 
L 1159 2969 
Q 1341 3281 1617 3432 
Q 1894 3584 2278 3584 
Q 2916 3584 3314 3078 
Q 3713 2572 3713 1747 
Q 3713 922 3314 415 
Q 2916 -91 2278 -91 
Q 1894 -91 1617 61 
Q 1341 213 1159 525 
z
M 3116 1747 
Q 3116 2381 2855 2742 
Q 2594 3103 2138 3103 
Q 1681 3103 1420 2742 
Q 1159 2381 1159 1747 
Q 1159 1113 1420 752 
Q 1681 391 2138 391 
Q 2594 391 2855 752 
Q 3116 1113 3116 1747 
z
" transform="scale(0.015625)"/>
     </defs>
     <use xlink:href="#DejaVuSans-56"/>
     <use xlink:href="#DejaVuSans-54" transform="translate(68.408203 0)"/>
     <use xlink:href="#DejaVuSans-4e" transform="translate(129.492188 0)"/>
     <use xlink:href="#DejaVuSans-41" transform="translate(204.296875 0)"/>
     <use xlink:href="#DejaVuSans-20" transform="translate(272.705078 0)"/>
     <use xlink:href="#DejaVuSans-6f" transform="translate(304.492188 0)"/>
     <use xlink:href="#DejaVuSans-76" transform="translate(365.673828 0)"/>
     <use xlink:href="#DejaVuSans-65" transform="translate(424.853516 0)"/>
     <use xlink:href="#DejaVuSans-72" transform="translate(486.376953 0)"/>
     <use xlink:href="#DejaVuSans-6c" transform="translate(527.490234 0)"/>
     <use xlink:href="#DejaVuSans-61" transform="translate(555.273438 0)"/>
     <use xlink:href="#DejaVuSans-79" transform="translate(616.552734 0)"/>
     <use xlink:href="#DejaVuSans-20" transform="translate(675.732422 0)"/>
     <use xlink:href="#DejaVuSans-70" transform="translate(707.519531 0)"/>
     <use xlink:href="#DejaVuSans-6c" transform="translate(770.996094 0)"/>
     <use xlink:href="#DejaVuSans-6f" transform="translate(798.779297 0)"/>
     <use xlink:href="#DejaVuSans-74" transform="translate(859.960938 0)"/>
     <use xlink:href="#DejaVuSans-20" transform="translate(899.169922 0)"/>
     <use xlink:href="#DejaVuSans-66" transform="translate(930.957031 0)"/>
     <use xlink:href="#DejaVuSans-6f" transform="translate(966.162109 0)"/>
     <use xlink:href="#DejaVuSans-72" transform="translate(1027.34375 0)"/>
     <use xlink:href="#DejaVuSans-20" transform="translate(1068.457031 0)"/>
     <use xlink:href="#DejaVuSans-50" transform="translate(1100.244141 0)"/>
     <use xlink:href="#DejaVuSans-72" transform="translate(1158.796875 0)"/>
     <use xlink:href="#DejaVuSans-6f" transform="translate(1197.660156 0)"/>
     <use xlink:href="#DejaVuSans-64" transform="translate(1258.841797 0)"/>
     <use xlink:href="#DejaVuSans-75" transform="translate(1322.318359 0)"/>
     <use xlink:href="#DejaVuSans-63" transform="translate(1385.697266 0)"/>
     <use xlink:href="#DejaVuSans-74" transform="translate(1440.677734 0)"/>
    </g>
   </g>
   <g id="legend_1">
    <g id="patch_7">
     <path d="M 268.853113 128.838687 
L 351.68905 128.838687 
Q 353.68905 128.838687 353.68905 126.838688 
L 353.68905 69.126188 
Q 353.68905 67.126188 351.68905 67.126188 
L 268.853113 67.126188 
Q 266.853113 67.126188 266.853113 69.126188 
L 266.853113 126.838688 
Q 266.853113 128.838687 268.853113 128.838687 
z
" style="fill: #ffffff; opacity: 0.8; stroke: #cccccc; stroke-linejoin: miter"/>
    </g>
    <g id="line2d_15">
     <path d="M 270.853113 75.224625 
L 280.853113 75.224625 
L 290.853113 75.224625 
" style="fill: none; stroke: #1f77b4; stroke-width: 0.7; stroke-linecap: square"/>
     <g>
      <use xlink:href="#m1ac9e51afb" x="280.853113" y="75.224625" style="fill: #1f77b4; stroke: #1f77b4"/>
     </g>
    </g>
    <g id="text_15">
     <!-- Addition 1 -->
     <g transform="translate(298.853113 78.724625) scale(0.1 -0.1)">
      <defs>
       <path id="DejaVuSans-6e" d="M 3513 2113 
L 3513 0 
L 2938 0 
L 2938 2094 
Q 2938 2591 2744 2837 
Q 2550 3084 2163 3084 
Q 1697 3084 1428 2787 
Q 1159 2491 1159 1978 
L 1159 0 
L 581 0 
L 581 3500 
L 1159 3500 
L 1159 2956 
Q 1366 3272 1645 3428 
Q 1925 3584 2291 3584 
Q 2894 3584 3203 3211 
Q 3513 2838 3513 2113 
z
" transform="scale(0.015625)"/>
      </defs>
      <use xlink:href="#DejaVuSans-41"/>
      <use xlink:href="#DejaVuSans-64" transform="translate(66.658203 0)"/>
      <use xlink:href="#DejaVuSans-64" transform="translate(130.134766 0)"/>
      <use xlink:href="#DejaVuSans-69" transform="translate(193.611328 0)"/>
      <use xlink:href="#DejaVuSans-74" transform="translate(221.394531 0)"/>
      <use xlink:href="#DejaVuSans-69" transform="translate(260.603516 0)"/>
      <use xlink:href="#DejaVuSans-6f" transform="translate(288.386719 0)"/>
      <use xlink:href="#DejaVuSans-6e" transform="translate(349.568359 0)"/>
      <use xlink:href="#DejaVuSans-20" transform="translate(412.947266 0)"/>
      <use xlink:href="#DejaVuSans-31" transform="translate(444.734375 0)"/>
     </g>
    </g>
    <g id="line2d_16">
     <path d="M 270.853113 89.90275 
L 280.853113 89.90275 
L 290.853113 89.90275 
" style="fill: none; stroke: #ff7f0e; stroke-width: 0.7; stroke-linecap: square"/>
     <g>
      <use xlink:href="#m0fa8a452c5" x="280.853113" y="89.90275" style="fill: #ff7f0e; stroke: #ff7f0e"/>
     </g>
    </g>
    <g id="text_16">
     <!-- Addition 2 -->
     <g transform="translate(298.853113 93.40275) scale(0.1 -0.1)">
      <use xlink:href="#DejaVuSans-41"/>
      <use xlink:href="#DejaVuSans-64" transform="translate(66.658203 0)"/>
      <use xlink:href="#DejaVuSans-64" transform="translate(130.134766 0)"/>
      <use xlink:href="#DejaVuSans-69" transform="translate(193.611328 0)"/>
      <use xlink:href="#DejaVuSans-74" transform="translate(221.394531 0)"/>
      <use xlink:href="#DejaVuSans-69" transform="translate(260.603516 0)"/>
      <use xlink:href="#DejaVuSans-6f" transform="translate(288.386719 0)"/>
      <use xlink:href="#DejaVuSans-6e" transform="translate(349.568359 0)"/>
      <use xlink:href="#DejaVuSans-20" transform="translate(412.947266 0)"/>
      <use xlink:href="#DejaVuSans-32" transform="translate(444.734375 0)"/>
     </g>
    </g>
    <g id="line2d_17">
     <path d="M 270.853113 104.580875 
L 280.853113 104.580875 
L 290.853113 104.580875 
" style="fill: none; stroke: #2ca02c; stroke-width: 0.7; stroke-linecap: square"/>
     <g>
      <use xlink:href="#m1dbb9c157a" x="280.853113" y="104.580875" style="fill: #2ca02c; stroke: #2ca02c"/>
     </g>
    </g>
    <g id="text_17">
     <!-- Addition 3 -->
     <g transform="translate(298.853113 108.080875) scale(0.1 -0.1)">
      <defs>
       <path id="DejaVuSans-33" d="M 2597 2516 
Q 3050 2419 3304 2112 
Q 3559 1806 3559 1356 
Q 3559 666 3084 287 
Q 2609 -91 1734 -91 
Q 1441 -91 1130 -33 
Q 819 25 488 141 
L 488 750 
Q 750 597 1062 519 
Q 1375 441 1716 441 
Q 2309 441 2620 675 
Q 2931 909 2931 1356 
Q 2931 1769 2642 2001 
Q 2353 2234 1838 2234 
L 1294 2234 
L 1294 2753 
L 1863 2753 
Q 2328 2753 2575 2939 
Q 2822 3125 2822 3475 
Q 2822 3834 2567 4026 
Q 2313 4219 1838 4219 
Q 1578 4219 1281 4162 
Q 984 4106 628 3988 
L 628 4550 
Q 988 4650 1302 4700 
Q 1616 4750 1894 4750 
Q 2613 4750 3031 4423 
Q 3450 4097 3450 3541 
Q 3450 3153 3228 2886 
Q 3006 2619 2597 2516 
z
" transform="scale(0.015625)"/>
      </defs>
      <use xlink:href="#DejaVuSans-41"/>
      <use xlink:href="#DejaVuSans-64" transform="translate(66.658203 0)"/>
      <use xlink:href="#DejaVuSans-64" transform="translate(130.134766 0)"/>
      <use xlink:href="#DejaVuSans-69" transform="translate(193.611328 0)"/>
      <use xlink:href="#DejaVuSans-74" transform="translate(221.394531 0)"/>
      <use xlink:href="#DejaVuSans-69" transform="translate(260.603516 0)"/>
      <use xlink:href="#DejaVuSans-6f" transform="translate(288.386719 0)"/>
      <use xlink:href="#DejaVuSans-6e" transform="translate(349.568359 0)"/>
      <use xlink:href="#DejaVuSans-20" transform="translate(412.947266 0)"/>
      <use xlink:href="#DejaVuSans-33" transform="translate(444.734375 0)"/>
     </g>
    </g>
    <g id="line2d_18">
     <path d="M 270.853113 119.259 
L 280.853113 119.259 
L 290.853113 119.259 
" style="fill: none; stroke: #d62728; stroke-width: 0.7; stroke-linecap: square"/>
     <g>
      <use xlink:href="#m73312f512e" x="280.853113" y="119.259" style="fill: #d62728; stroke: #d62728"/>
     </g>
    </g>
    <g id="text_18">
     <!-- Addition 4 -->
     <g transform="translate(298.853113 122.759) scale(0.1 -0.1)">
      <defs>
       <path id="DejaVuSans-34" d="M 2419 4116 
L 825 1625 
L 2419 1625 
L 2419 4116 
z
M 2253 4666 
L 3047 4666 
L 3047 1625 
L 3713 1625 
L 3713 1100 
L 3047 1100 
L 3047 0 
L 2419 0 
L 2419 1100 
L 313 1100 
L 313 1709 
L 2253 4666 
z
" transform="scale(0.015625)"/>
      </defs>
      <use xlink:href="#DejaVuSans-41"/>
      <use xlink:href="#DejaVuSans-64" transform="translate(66.658203 0)"/>
      <use xlink:href="#DejaVuSans-64" transform="translate(130.134766 0)"/>
      <use xlink:href="#DejaVuSans-69" transform="translate(193.611328 0)"/>
      <use xlink:href="#DejaVuSans-74" transform="translate(221.394531 0)"/>
      <use xlink:href="#DejaVuSans-69" transform="translate(260.603516 0)"/>
      <use xlink:href="#DejaVuSans-6f" transform="translate(288.386719 0)"/>
      <use xlink:href="#DejaVuSans-6e" transform="translate(349.568359 0)"/>
      <use xlink:href="#DejaVuSans-20" transform="translate(412.947266 0)"/>
      <use xlink:href="#DejaVuSans-34" transform="translate(444.734375 0)"/>
     </g>
    </g>
   </g>
  </g>
 </g>
 <defs>
  <clipPath id="p8a29822dea">
   <rect x="46.965625" y="20.798438" width="214.887487" height="154.368"/>
  </clipPath>
 </defs>
</svg>
