<?xml version="1.0" encoding="utf-8" standalone="no"?>
<!DOCTYPE svg PUBLIC "-//W3C//DTD SVG 1.1//EN"
  "http://www.w3.org/Graphics/SVG/1.1/DTD/svg11.dtd">
<svg xmlns:xlink="http://www.w3.org/1999/xlink" width="354.52655pt" height="199.946125pt" viewBox="0 0 354.52655 199.946125" xmlns="http://www.w3.org/2000/svg" version="1.1">
 <metadata>
  <rdf:RDF xmlns:dc="http://purl.org/dc/elements/1.1/" xmlns:cc="http://creativecommons.org/ns#" xmlns:rdf="http://www.w3.org/1999/02/22-rdf-syntax-ns#">
   <cc:Work>
    <dc:type rdf:resource="http://purl.org/dc/dcmitype/StillImage"/>
    <dc:date>2026-01-13T17:03:54.929165</dc:date>
    <dc:format>image/svg+xml</dc:format>
    <dc:creator>
     <cc:Agent>
      <dc:title>Matplotlib v3.10.0, https://matplotlib.org/</dc:title>
     </cc:Agent>
    </dc:creator>
   </cc:Work>
  </rdf:RDF>
 </metadata>
 <defs>
  <style type="text/css">*{stroke-linejoin: round; stroke-linecap: butt}</style>
 </defs>
 <g id="figure_1">
  <g id="patch_1">
   <path d="M 0 199.946125 
L 354.52655 199.946125 
L 354.52655 0 
L 0 0 
z
" style="fill: #ffffff"/>
  </g>
  <g id="axes_1">
   <g id="patch_2">
    <path d="M 40.603125 161.568 
L 255.490612 161.568 
L 255.490612 7.2 
L 40.603125 7.2 
z
" style="fill: #ffffff"/>
   </g>
   <g id="matplotlib.axis_1">
    <g id="xtick_1">
     <g id="line2d_1">
      <defs>
       <path id="m73f54408a7" d="M 0 0 
L 0 3.5 
" style="stroke: #000000; stroke-width: 0.8"/>
      </defs>
      <g>
       <use xlink:href="#m73f54408a7" x="40.603125" y="161.568" style="stroke: #000000; stroke-width: 0.8"/>
      </g>
     </g>
     <g id="text_1">
      <!-- 0 -->
      <g transform="translate(37.421875 176.166437) scale(0.1 -0.1)">
       <defs>
        <path id="DejaVuSans-30" d="M 2034 4250 
Q 1547 4250 1301 3770 
Q 1056 3291 1056 2328 
Q 1056 1369 1301 889 
Q 1547 409 2034 409 
Q 2525 409 2770 889 
Q 3016 1369 3016 2328 
Q 3016 3291 2770 3770 
Q 2525 4250 2034 4250 
z
M 2034 4750 
Q 2819 4750 3233 4129 
Q 3647 3509 3647 2328 
Q 3647 1150 3233 529 
Q 2819 -91 2034 -91 
Q 1250 -91 836 529 
Q 422 1150 422 2328 
Q 422 3509 836 4129 
Q 1250 4750 2034 4750 
z
" transform="scale(0.015625)"/>
       </defs>
       <use xlink:href="#DejaVuSans-30"/>
      </g>
     </g>
    </g>
    <g id="xtick_2">
     <g id="line2d_2">
      <g>
       <use xlink:href="#m73f54408a7" x="79.92922" y="161.568" style="stroke: #000000; stroke-width: 0.8"/>
      </g>
     </g>
     <g id="text_2">
      <!-- 1 -->
      <g transform="translate(76.74797 176.166437) scale(0.1 -0.1)">
       <defs>
        <path id="DejaVuSans-31" d="M 794 531 
L 1825 531 
L 1825 4091 
L 703 3866 
L 703 4441 
L 1819 4666 
L 2450 4666 
L 2450 531 
L 3481 531 
L 3481 0 
L 794 0 
L 794 531 
z
" transform="scale(0.015625)"/>
       </defs>
       <use xlink:href="#DejaVuSans-31"/>
      </g>
     </g>
    </g>
    <g id="xtick_3">
     <g id="line2d_3">
      <g>
       <use xlink:href="#m73f54408a7" x="119.255316" y="161.568" style="stroke: #000000; stroke-width: 0.8"/>
      </g>
     </g>
     <g id="text_3">
      <!-- 2 -->
      <g transform="translate(116.074066 176.166437) scale(0.1 -0.1)">
       <defs>
        <path id="DejaVuSans-32" d="M 1228 531 
L 3431 531 
L 3431 0 
L 469 0 
L 469 531 
Q 828 903 1448 1529 
Q 2069 2156 2228 2338 
Q 2531 2678 2651 2914 
Q 2772 3150 2772 3378 
Q 2772 3750 2511 3984 
Q 2250 4219 1831 4219 
Q 1534 4219 1204 4116 
Q 875 4013 500 3803 
L 500 4441 
Q 881 4594 1212 4672 
Q 1544 4750 1819 4750 
Q 2544 4750 2975 4387 
Q 3406 4025 3406 3419 
Q 3406 3131 3298 2873 
Q 3191 2616 2906 2266 
Q 2828 2175 2409 1742 
Q 1991 1309 1228 531 
z
" transform="scale(0.015625)"/>
       </defs>
       <use xlink:href="#DejaVuSans-32"/>
      </g>
     </g>
    </g>
    <g id="xtick_4">
     <g id="line2d_4">
      <g>
       <use xlink:href="#m73f54408a7" x="158.581411" y="161.568" style="stroke: #000000; stroke-width: 0.8"/>
      </g>
     </g>
     <g id="text_4">
      <!-- 3 -->
      <g transform="translate(155.400161 176.166437) scale(0.1 -0.1)">
       <defs>
        <path id="DejaVuSans-33" d="M 2597 2516 
Q 3050 2419 3304 2112 
Q 3559 1806 3559 1356 
Q 3559 666 3084 287 
Q 2609 -91 1734 -91 
Q 1441 -91 1130 -33 
Q 819 25 488 141 
L 488 750 
Q 750 597 1062 519 
Q 1375 441 1716 441 
Q 2309 441 2620 675 
Q 2931 909 2931 1356 
Q 2931 1769 2642 2001 
Q 2353 2234 1838 2234 
L 1294 2234 
L 1294 2753 
L 1863 2753 
Q 2328 2753 2575 2939 
Q 2822 3125 2822 3475 
Q 2822 3834 2567 4026 
Q 2313 4219 1838 4219 
Q 1578 4219 1281 4162 
Q 984 4106 628 3988 
L 628 4550 
Q 988 4650 1302 4700 
Q 1616 4750 1894 4750 
Q 2613 4750 3031 4423 
Q 3450 4097 3450 3541 
Q 3450 3153 3228 2886 
Q 3006 2619 2597 2516 
z
" transform="scale(0.015625)"/>
       </defs>
       <use xlink:href="#DejaVuSans-33"/>
      </g>
     </g>
    </g>
    <g id="xtick_5">
     <g id="line2d_5">
      <g>
       <use xlink:href="#m73f54408a7" x="197.907506" y="161.568" style="stroke: #000000; stroke-width: 0.8"/>
      </g>
     </g>
     <g id="text_5">
      <!-- 4 -->
      <g transform="translate(194.726256 176.166437) scale(0.1 -0.1)">
       <defs>
        <path id="DejaVuSans-34" d="M 2419 4116 
L 825 1625 
L 2419 1625 
L 2419 4116 
z
M 2253 4666 
L 3047 4666 
L 3047 1625 
L 3713 1625 
L 3713 1100 
L 3047 1100 
L 3047 0 
L 2419 0 
L 2419 1100 
L 313 1100 
L 313 1709 
L 2253 4666 
z
" transform="scale(0.015625)"/>
       </defs>
       <use xlink:href="#DejaVuSans-34"/>
      </g>
     </g>
    </g>
    <g id="xtick_6">
     <g id="line2d_6">
      <g>
       <use xlink:href="#m73f54408a7" x="237.233602" y="161.568" style="stroke: #000000; stroke-width: 0.8"/>
      </g>
     </g>
     <g id="text_6">
      <!-- 5 -->
      <g transform="translate(234.052352 176.166437) scale(0.1 -0.1)">
       <defs>
        <path id="DejaVuSans-35" d="M 691 4666 
L 3169 4666 
L 3169 4134 
L 1269 4134 
L 1269 2991 
Q 1406 3038 1543 3061 
Q 1681 3084 1819 3084 
Q 2600 3084 3056 2656 
Q 3513 2228 3513 1497 
Q 3513 744 3044 326 
Q 2575 -91 1722 -91 
Q 1428 -91 1123 -41 
Q 819 9 494 109 
L 494 744 
Q 775 591 1075 516 
Q 1375 441 1709 441 
Q 2250 441 2565 725 
Q 2881 1009 2881 1497 
Q 2881 1984 2565 2268 
Q 2250 2553 1709 2553 
Q 1456 2553 1204 2497 
Q 953 2441 691 2322 
L 691 4666 
z
" transform="scale(0.015625)"/>
       </defs>
       <use xlink:href="#DejaVuSans-35"/>
      </g>
     </g>
    </g>
    <g id="text_7">
     <!-- $Σ[Amine]^{1.20}[Phenol]^{-0.09}[ArOPh]^{1.00}Δt$. -->
     <g transform="translate(51.096869 190.666437) scale(0.1 -0.1)">
      <defs>
       <path id="DejaVuSans-3a3" d="M 1353 531 
L 3634 531 
L 3634 0 
L 628 0 
L 628 531 
L 2125 2481 
L 628 4134 
L 628 4666 
L 3578 4666 
L 3578 4134 
L 1353 4134 
L 2850 2494 
L 1353 531 
z
" transform="scale(0.015625)"/>
       <path id="DejaVuSans-5b" d="M 550 4863 
L 1875 4863 
L 1875 4416 
L 1125 4416 
L 1125 -397 
L 1875 -397 
L 1875 -844 
L 550 -844 
L 550 4863 
z
" transform="scale(0.015625)"/>
       <path id="DejaVuSans-Oblique-41" d="M 2356 4666 
L 3072 4666 
L 3938 0 
L 3278 0 
L 3084 1197 
L 984 1197 
L 325 0 
L -341 0 
L 2356 4666 
z
M 2584 4044 
L 1275 1722 
L 2988 1722 
L 2584 4044 
z
" transform="scale(0.015625)"/>
       <path id="DejaVuSans-Oblique-6d" d="M 5747 2113 
L 5338 0 
L 4763 0 
L 5166 2094 
Q 5191 2228 5203 2325 
Q 5216 2422 5216 2491 
Q 5216 2772 5059 2928 
Q 4903 3084 4622 3084 
Q 4203 3084 3875 2770 
Q 3547 2456 3450 1953 
L 3066 0 
L 2491 0 
L 2900 2094 
Q 2925 2209 2937 2307 
Q 2950 2406 2950 2484 
Q 2950 2769 2794 2926 
Q 2638 3084 2363 3084 
Q 1938 3084 1609 2770 
Q 1281 2456 1184 1953 
L 800 0 
L 225 0 
L 909 3500 
L 1484 3500 
L 1375 2956 
Q 1609 3263 1923 3423 
Q 2238 3584 2597 3584 
Q 2978 3584 3223 3384 
Q 3469 3184 3519 2828 
Q 3781 3197 4126 3390 
Q 4472 3584 4856 3584 
Q 5306 3584 5551 3325 
Q 5797 3066 5797 2591 
Q 5797 2488 5784 2364 
Q 5772 2241 5747 2113 
z
" transform="scale(0.015625)"/>
       <path id="DejaVuSans-Oblique-69" d="M 1172 4863 
L 1747 4863 
L 1606 4134 
L 1031 4134 
L 1172 4863 
z
M 909 3500 
L 1484 3500 
L 800 0 
L 225 0 
L 909 3500 
z
" transform="scale(0.015625)"/>
       <path id="DejaVuSans-Oblique-6e" d="M 3566 2113 
L 3156 0 
L 2578 0 
L 2988 2091 
Q 3016 2238 3031 2350 
Q 3047 2463 3047 2528 
Q 3047 2791 2881 2937 
Q 2716 3084 2419 3084 
Q 1956 3084 1622 2776 
Q 1288 2469 1184 1941 
L 800 0 
L 225 0 
L 903 3500 
L 1478 3500 
L 1363 2950 
Q 1603 3253 1940 3418 
Q 2278 3584 2650 3584 
Q 3113 3584 3367 3334 
Q 3622 3084 3622 2631 
Q 3622 2519 3608 2391 
Q 3594 2263 3566 2113 
z
" transform="scale(0.015625)"/>
       <path id="DejaVuSans-Oblique-65" d="M 3078 2063 
Q 3088 2113 3092 2166 
Q 3097 2219 3097 2272 
Q 3097 2653 2873 2875 
Q 2650 3097 2266 3097 
Q 1838 3097 1509 2826 
Q 1181 2556 1013 2059 
L 3078 2063 
z
M 3578 1613 
L 903 1613 
Q 884 1494 878 1425 
Q 872 1356 872 1306 
Q 872 872 1139 634 
Q 1406 397 1894 397 
Q 2269 397 2603 481 
Q 2938 566 3225 728 
L 3116 159 
Q 2806 34 2476 -28 
Q 2147 -91 1806 -91 
Q 1078 -91 686 257 
Q 294 606 294 1247 
Q 294 1794 489 2264 
Q 684 2734 1063 3103 
Q 1306 3334 1642 3459 
Q 1978 3584 2356 3584 
Q 2950 3584 3301 3228 
Q 3653 2872 3653 2272 
Q 3653 2128 3634 1964 
Q 3616 1800 3578 1613 
z
" transform="scale(0.015625)"/>
       <path id="DejaVuSans-5d" d="M 1947 4863 
L 1947 -844 
L 622 -844 
L 622 -397 
L 1369 -397 
L 1369 4416 
L 622 4416 
L 622 4863 
L 1947 4863 
z
" transform="scale(0.015625)"/>
       <path id="DejaVuSans-2e" d="M 684 794 
L 1344 794 
L 1344 0 
L 684 0 
L 684 794 
z
" transform="scale(0.015625)"/>
       <path id="DejaVuSans-Oblique-50" d="M 1081 4666 
L 2541 4666 
Q 3178 4666 3512 4369 
Q 3847 4072 3847 3500 
Q 3847 2731 3353 2303 
Q 2859 1875 1966 1875 
L 1172 1875 
L 806 0 
L 172 0 
L 1081 4666 
z
M 1613 4147 
L 1275 2394 
L 2069 2394 
Q 2606 2394 2893 2669 
Q 3181 2944 3181 3456 
Q 3181 3784 2986 3965 
Q 2791 4147 2438 4147 
L 1613 4147 
z
" transform="scale(0.015625)"/>
       <path id="DejaVuSans-Oblique-68" d="M 3566 2113 
L 3156 0 
L 2578 0 
L 2988 2091 
Q 3016 2238 3031 2350 
Q 3047 2463 3047 2528 
Q 3047 2791 2881 2937 
Q 2716 3084 2419 3084 
Q 1956 3084 1617 2771 
Q 1278 2459 1178 1941 
L 800 0 
L 225 0 
L 1172 4863 
L 1747 4863 
L 1375 2950 
Q 1594 3244 1934 3414 
Q 2275 3584 2650 3584 
Q 3113 3584 3367 3334 
Q 3622 3084 3622 2631 
Q 3622 2519 3608 2391 
Q 3594 2263 3566 2113 
z
" transform="scale(0.015625)"/>
       <path id="DejaVuSans-Oblique-6f" d="M 1625 -91 
Q 1009 -91 651 289 
Q 294 669 294 1325 
Q 294 1706 417 2101 
Q 541 2497 738 2766 
Q 1047 3184 1428 3384 
Q 1809 3584 2291 3584 
Q 2888 3584 3255 3212 
Q 3622 2841 3622 2241 
Q 3622 1825 3500 1412 
Q 3378 1000 3181 728 
Q 2875 309 2494 109 
Q 2113 -91 1625 -91 
z
M 891 1344 
Q 891 869 1089 633 
Q 1288 397 1691 397 
Q 2269 397 2648 901 
Q 3028 1406 3028 2181 
Q 3028 2634 2825 2865 
Q 2622 3097 2228 3097 
Q 1903 3097 1650 2945 
Q 1397 2794 1197 2484 
Q 1050 2253 970 1956 
Q 891 1659 891 1344 
z
" transform="scale(0.015625)"/>
       <path id="DejaVuSans-Oblique-6c" d="M 1172 4863 
L 1747 4863 
L 800 0 
L 225 0 
L 1172 4863 
z
" transform="scale(0.015625)"/>
       <path id="DejaVuSans-2212" d="M 678 2272 
L 4684 2272 
L 4684 1741 
L 678 1741 
L 678 2272 
z
" transform="scale(0.015625)"/>
       <path id="DejaVuSans-39" d="M 703 97 
L 703 672 
Q 941 559 1184 500 
Q 1428 441 1663 441 
Q 2288 441 2617 861 
Q 2947 1281 2994 2138 
Q 2813 1869 2534 1725 
Q 2256 1581 1919 1581 
Q 1219 1581 811 2004 
Q 403 2428 403 3163 
Q 403 3881 828 4315 
Q 1253 4750 1959 4750 
Q 2769 4750 3195 4129 
Q 3622 3509 3622 2328 
Q 3622 1225 3098 567 
Q 2575 -91 1691 -91 
Q 1453 -91 1209 -44 
Q 966 3 703 97 
z
M 1959 2075 
Q 2384 2075 2632 2365 
Q 2881 2656 2881 3163 
Q 2881 3666 2632 3958 
Q 2384 4250 1959 4250 
Q 1534 4250 1286 3958 
Q 1038 3666 1038 3163 
Q 1038 2656 1286 2365 
Q 1534 2075 1959 2075 
z
" transform="scale(0.015625)"/>
       <path id="DejaVuSans-Oblique-72" d="M 2853 2969 
Q 2766 3016 2653 3041 
Q 2541 3066 2413 3066 
Q 1953 3066 1609 2717 
Q 1266 2369 1153 1784 
L 800 0 
L 225 0 
L 909 3500 
L 1484 3500 
L 1375 2956 
Q 1603 3259 1920 3421 
Q 2238 3584 2597 3584 
Q 2691 3584 2781 3573 
Q 2872 3563 2963 3538 
L 2853 2969 
z
" transform="scale(0.015625)"/>
       <path id="DejaVuSans-Oblique-4f" d="M 2919 4238 
Q 2400 4238 2003 3986 
Q 1606 3734 1313 3219 
Q 1125 2891 1026 2522 
Q 928 2153 928 1778 
Q 928 1128 1239 775 
Q 1550 422 2119 422 
Q 2631 422 3032 676 
Q 3434 931 3719 1434 
Q 3909 1772 4009 2142 
Q 4109 2513 4109 2881 
Q 4109 3528 3796 3883 
Q 3484 4238 2919 4238 
z
M 2100 -91 
Q 1241 -91 748 418 
Q 256 928 256 1813 
Q 256 2319 448 2847 
Q 641 3375 978 3788 
Q 1375 4272 1862 4511 
Q 2350 4750 2938 4750 
Q 3794 4750 4287 4245 
Q 4781 3741 4781 2869 
Q 4781 2331 4593 1812 
Q 4406 1294 4056 872 
Q 3656 384 3173 146 
Q 2691 -91 2100 -91 
z
" transform="scale(0.015625)"/>
       <path id="DejaVuSans-394" d="M 2188 4044 
L 906 525 
L 3472 525 
L 2188 4044 
z
M 50 0 
L 1831 4666 
L 2547 4666 
L 4325 0 
L 50 0 
z
" transform="scale(0.015625)"/>
       <path id="DejaVuSans-Oblique-74" d="M 2706 3500 
L 2619 3053 
L 1472 3053 
L 1100 1153 
Q 1081 1047 1072 975 
Q 1063 903 1063 863 
Q 1063 663 1183 572 
Q 1303 481 1569 481 
L 2150 481 
L 2053 0 
L 1503 0 
Q 991 0 739 200 
Q 488 400 488 806 
Q 488 878 497 964 
Q 506 1050 525 1153 
L 897 3053 
L 409 3053 
L 500 3500 
L 978 3500 
L 1172 4494 
L 1747 4494 
L 1556 3500 
L 2706 3500 
z
" transform="scale(0.015625)"/>
      </defs>
      <use xlink:href="#DejaVuSans-3a3" transform="translate(0 0.765625)"/>
      <use xlink:href="#DejaVuSans-5b" transform="translate(63.183594 0.765625)"/>
      <use xlink:href="#DejaVuSans-Oblique-41" transform="translate(102.197266 0.765625)"/>
      <use xlink:href="#DejaVuSans-Oblique-6d" transform="translate(170.605469 0.765625)"/>
      <use xlink:href="#DejaVuSans-Oblique-69" transform="translate(268.017578 0.765625)"/>
      <use xlink:href="#DejaVuSans-Oblique-6e" transform="translate(295.800781 0.765625)"/>
      <use xlink:href="#DejaVuSans-Oblique-65" transform="translate(359.179688 0.765625)"/>
      <use xlink:href="#DejaVuSans-5d" transform="translate(420.703125 0.765625)"/>
      <use xlink:href="#DejaVuSans-31" transform="translate(460.673828 39.046875) scale(0.7)"/>
      <use xlink:href="#DejaVuSans-2e" transform="translate(505.209961 39.046875) scale(0.7)"/>
      <use xlink:href="#DejaVuSans-32" transform="translate(523.610938 39.046875) scale(0.7)"/>
      <use xlink:href="#DejaVuSans-30" transform="translate(568.14707 39.046875) scale(0.7)"/>
      <use xlink:href="#DejaVuSans-5b" transform="translate(615.417578 0.765625)"/>
      <use xlink:href="#DejaVuSans-Oblique-50" transform="translate(654.43125 0.765625)"/>
      <use xlink:href="#DejaVuSans-Oblique-68" transform="translate(714.733984 0.765625)"/>
      <use xlink:href="#DejaVuSans-Oblique-65" transform="translate(778.112891 0.765625)"/>
      <use xlink:href="#DejaVuSans-Oblique-6e" transform="translate(839.636328 0.765625)"/>
      <use xlink:href="#DejaVuSans-Oblique-6f" transform="translate(903.015234 0.765625)"/>
      <use xlink:href="#DejaVuSans-Oblique-6c" transform="translate(964.196875 0.765625)"/>
      <use xlink:href="#DejaVuSans-5d" transform="translate(991.980078 0.765625)"/>
      <use xlink:href="#DejaVuSans-2212" transform="translate(1031.950781 39.046875) scale(0.7)"/>
      <use xlink:href="#DejaVuSans-30" transform="translate(1090.603125 39.046875) scale(0.7)"/>
      <use xlink:href="#DejaVuSans-2e" transform="translate(1135.139258 39.046875) scale(0.7)"/>
      <use xlink:href="#DejaVuSans-30" transform="translate(1157.390234 39.046875) scale(0.7)"/>
      <use xlink:href="#DejaVuSans-39" transform="translate(1201.926367 39.046875) scale(0.7)"/>
      <use xlink:href="#DejaVuSans-5b" transform="translate(1249.196875 0.765625)"/>
      <use xlink:href="#DejaVuSans-Oblique-41" transform="translate(1288.210547 0.765625)"/>
      <use xlink:href="#DejaVuSans-Oblique-72" transform="translate(1356.61875 0.765625)"/>
      <use xlink:href="#DejaVuSans-Oblique-4f" transform="translate(1397.732031 0.765625)"/>
      <use xlink:href="#DejaVuSans-Oblique-50" transform="translate(1476.442969 0.765625)"/>
      <use xlink:href="#DejaVuSans-Oblique-68" transform="translate(1536.745703 0.765625)"/>
      <use xlink:href="#DejaVuSans-5d" transform="translate(1600.124609 0.765625)"/>
      <use xlink:href="#DejaVuSans-31" transform="translate(1640.095313 39.046875) scale(0.7)"/>
      <use xlink:href="#DejaVuSans-2e" transform="translate(1684.631445 39.046875) scale(0.7)"/>
      <use xlink:href="#DejaVuSans-30" transform="translate(1706.882422 39.046875) scale(0.7)"/>
      <use xlink:href="#DejaVuSans-30" transform="translate(1751.418555 39.046875) scale(0.7)"/>
      <use xlink:href="#DejaVuSans-394" transform="translate(1798.689063 0.765625)"/>
      <use xlink:href="#DejaVuSans-Oblique-74" transform="translate(1867.097266 0.765625)"/>
      <use xlink:href="#DejaVuSans-2e" transform="translate(1906.30625 0.765625)"/>
     </g>
    </g>
    <g id="text_8">
     <!-- 1e4 -->
     <g transform="translate(250.580174 188.844562) scale(0.1 -0.1)">
      <defs>
       <path id="DejaVuSans-65" d="M 3597 1894 
L 3597 1613 
L 953 1613 
Q 991 1019 1311 708 
Q 1631 397 2203 397 
Q 2534 397 2845 478 
Q 3156 559 3463 722 
L 3463 178 
Q 3153 47 2828 -22 
Q 2503 -91 2169 -91 
Q 1331 -91 842 396 
Q 353 884 353 1716 
Q 353 2575 817 3079 
Q 1281 3584 2069 3584 
Q 2775 3584 3186 3129 
Q 3597 2675 3597 1894 
z
M 3022 2063 
Q 3016 2534 2758 2815 
Q 2500 3097 2075 3097 
Q 1594 3097 1305 2825 
Q 1016 2553 972 2059 
L 3022 2063 
z
" transform="scale(0.015625)"/>
      </defs>
      <use xlink:href="#DejaVuSans-31"/>
      <use xlink:href="#DejaVuSans-65" transform="translate(63.623047 0)"/>
      <use xlink:href="#DejaVuSans-34" transform="translate(125.146484 0)"/>
     </g>
    </g>
   </g>
   <g id="matplotlib.axis_2">
    <g id="ytick_1">
     <g id="line2d_7">
      <defs>
       <path id="mf9187c32a7" d="M 0 0 
L -3.5 0 
" style="stroke: #000000; stroke-width: 0.8"/>
      </defs>
      <g>
       <use xlink:href="#mf9187c32a7" x="40.603125" y="150.587613" style="stroke: #000000; stroke-width: 0.8"/>
      </g>
     </g>
     <g id="text_9">
      <!-- 60 -->
      <g transform="translate(20.878125 154.386832) scale(0.1 -0.1)">
       <defs>
        <path id="DejaVuSans-36" d="M 2113 2584 
Q 1688 2584 1439 2293 
Q 1191 2003 1191 1497 
Q 1191 994 1439 701 
Q 1688 409 2113 409 
Q 2538 409 2786 701 
Q 3034 994 3034 1497 
Q 3034 2003 2786 2293 
Q 2538 2584 2113 2584 
z
M 3366 4563 
L 3366 3988 
Q 3128 4100 2886 4159 
Q 2644 4219 2406 4219 
Q 1781 4219 1451 3797 
Q 1122 3375 1075 2522 
Q 1259 2794 1537 2939 
Q 1816 3084 2150 3084 
Q 2853 3084 3261 2657 
Q 3669 2231 3669 1497 
Q 3669 778 3244 343 
Q 2819 -91 2113 -91 
Q 1303 -91 875 529 
Q 447 1150 447 2328 
Q 447 3434 972 4092 
Q 1497 4750 2381 4750 
Q 2619 4750 2861 4703 
Q 3103 4656 3366 4563 
z
" transform="scale(0.015625)"/>
       </defs>
       <use xlink:href="#DejaVuSans-36"/>
       <use xlink:href="#DejaVuSans-30" transform="translate(63.623047 0)"/>
      </g>
     </g>
    </g>
    <g id="ytick_2">
     <g id="line2d_8">
      <g>
       <use xlink:href="#mf9187c32a7" x="40.603125" y="127.91117" style="stroke: #000000; stroke-width: 0.8"/>
      </g>
     </g>
     <g id="text_10">
      <!-- 65 -->
      <g transform="translate(20.878125 131.710389) scale(0.1 -0.1)">
       <use xlink:href="#DejaVuSans-36"/>
       <use xlink:href="#DejaVuSans-35" transform="translate(63.623047 0)"/>
      </g>
     </g>
    </g>
    <g id="ytick_3">
     <g id="line2d_9">
      <g>
       <use xlink:href="#mf9187c32a7" x="40.603125" y="105.234727" style="stroke: #000000; stroke-width: 0.8"/>
      </g>
     </g>
     <g id="text_11">
      <!-- 70 -->
      <g transform="translate(20.878125 109.033945) scale(0.1 -0.1)">
       <defs>
        <path id="DejaVuSans-37" d="M 525 4666 
L 3525 4666 
L 3525 4397 
L 1831 0 
L 1172 0 
L 2766 4134 
L 525 4134 
L 525 4666 
z
" transform="scale(0.015625)"/>
       </defs>
       <use xlink:href="#DejaVuSans-37"/>
       <use xlink:href="#DejaVuSans-30" transform="translate(63.623047 0)"/>
      </g>
     </g>
    </g>
    <g id="ytick_4">
     <g id="line2d_10">
      <g>
       <use xlink:href="#mf9187c32a7" x="40.603125" y="82.558283" style="stroke: #000000; stroke-width: 0.8"/>
      </g>
     </g>
     <g id="text_12">
      <!-- 75 -->
      <g transform="translate(20.878125 86.357502) scale(0.1 -0.1)">
       <use xlink:href="#DejaVuSans-37"/>
       <use xlink:href="#DejaVuSans-35" transform="translate(63.623047 0)"/>
      </g>
     </g>
    </g>
    <g id="ytick_5">
     <g id="line2d_11">
      <g>
       <use xlink:href="#mf9187c32a7" x="40.603125" y="59.88184" style="stroke: #000000; stroke-width: 0.8"/>
      </g>
     </g>
     <g id="text_13">
      <!-- 80 -->
      <g transform="translate(20.878125 63.681059) scale(0.1 -0.1)">
       <defs>
        <path id="DejaVuSans-38" d="M 2034 2216 
Q 1584 2216 1326 1975 
Q 1069 1734 1069 1313 
Q 1069 891 1326 650 
Q 1584 409 2034 409 
Q 2484 409 2743 651 
Q 3003 894 3003 1313 
Q 3003 1734 2745 1975 
Q 2488 2216 2034 2216 
z
M 1403 2484 
Q 997 2584 770 2862 
Q 544 3141 544 3541 
Q 544 4100 942 4425 
Q 1341 4750 2034 4750 
Q 2731 4750 3128 4425 
Q 3525 4100 3525 3541 
Q 3525 3141 3298 2862 
Q 3072 2584 2669 2484 
Q 3125 2378 3379 2068 
Q 3634 1759 3634 1313 
Q 3634 634 3220 271 
Q 2806 -91 2034 -91 
Q 1263 -91 848 271 
Q 434 634 434 1313 
Q 434 1759 690 2068 
Q 947 2378 1403 2484 
z
M 1172 3481 
Q 1172 3119 1398 2916 
Q 1625 2713 2034 2713 
Q 2441 2713 2670 2916 
Q 2900 3119 2900 3481 
Q 2900 3844 2670 4047 
Q 2441 4250 2034 4250 
Q 1625 4250 1398 4047 
Q 1172 3844 1172 3481 
z
" transform="scale(0.015625)"/>
       </defs>
       <use xlink:href="#DejaVuSans-38"/>
       <use xlink:href="#DejaVuSans-30" transform="translate(63.623047 0)"/>
      </g>
     </g>
    </g>
    <g id="ytick_6">
     <g id="line2d_12">
      <g>
       <use xlink:href="#mf9187c32a7" x="40.603125" y="37.205396" style="stroke: #000000; stroke-width: 0.8"/>
      </g>
     </g>
     <g id="text_14">
      <!-- 85 -->
      <g transform="translate(20.878125 41.004615) scale(0.1 -0.1)">
       <use xlink:href="#DejaVuSans-38"/>
       <use xlink:href="#DejaVuSans-35" transform="translate(63.623047 0)"/>
      </g>
     </g>
    </g>
    <g id="ytick_7">
     <g id="line2d_13">
      <g>
       <use xlink:href="#mf9187c32a7" x="40.603125" y="14.528953" style="stroke: #000000; stroke-width: 0.8"/>
      </g>
     </g>
     <g id="text_15">
      <!-- 90 -->
      <g transform="translate(20.878125 18.328172) scale(0.1 -0.1)">
       <use xlink:href="#DejaVuSans-39"/>
       <use xlink:href="#DejaVuSans-30" transform="translate(63.623047 0)"/>
      </g>
     </g>
    </g>
    <g id="text_16">
     <!-- Shifted [Product] / mM -->
     <g transform="translate(14.798438 140.519156) rotate(-90) scale(0.1 -0.1)">
      <defs>
       <path id="DejaVuSans-53" d="M 3425 4513 
L 3425 3897 
Q 3066 4069 2747 4153 
Q 2428 4238 2131 4238 
Q 1616 4238 1336 4038 
Q 1056 3838 1056 3469 
Q 1056 3159 1242 3001 
Q 1428 2844 1947 2747 
L 2328 2669 
Q 3034 2534 3370 2195 
Q 3706 1856 3706 1288 
Q 3706 609 3251 259 
Q 2797 -91 1919 -91 
Q 1588 -91 1214 -16 
Q 841 59 441 206 
L 441 856 
Q 825 641 1194 531 
Q 1563 422 1919 422 
Q 2459 422 2753 634 
Q 3047 847 3047 1241 
Q 3047 1584 2836 1778 
Q 2625 1972 2144 2069 
L 1759 2144 
Q 1053 2284 737 2584 
Q 422 2884 422 3419 
Q 422 4038 858 4394 
Q 1294 4750 2059 4750 
Q 2388 4750 2728 4690 
Q 3069 4631 3425 4513 
z
" transform="scale(0.015625)"/>
       <path id="DejaVuSans-68" d="M 3513 2113 
L 3513 0 
L 2938 0 
L 2938 2094 
Q 2938 2591 2744 2837 
Q 2550 3084 2163 3084 
Q 1697 3084 1428 2787 
Q 1159 2491 1159 1978 
L 1159 0 
L 581 0 
L 581 4863 
L 1159 4863 
L 1159 2956 
Q 1366 3272 1645 3428 
Q 1925 3584 2291 3584 
Q 2894 3584 3203 3211 
Q 3513 2838 3513 2113 
z
" transform="scale(0.015625)"/>
       <path id="DejaVuSans-69" d="M 603 3500 
L 1178 3500 
L 1178 0 
L 603 0 
L 603 3500 
z
M 603 4863 
L 1178 4863 
L 1178 4134 
L 603 4134 
L 603 4863 
z
" transform="scale(0.015625)"/>
       <path id="DejaVuSans-66" d="M 2375 4863 
L 2375 4384 
L 1825 4384 
Q 1516 4384 1395 4259 
Q 1275 4134 1275 3809 
L 1275 3500 
L 2222 3500 
L 2222 3053 
L 1275 3053 
L 1275 0 
L 697 0 
L 697 3053 
L 147 3053 
L 147 3500 
L 697 3500 
L 697 3744 
Q 697 4328 969 4595 
Q 1241 4863 1831 4863 
L 2375 4863 
z
" transform="scale(0.015625)"/>
       <path id="DejaVuSans-74" d="M 1172 4494 
L 1172 3500 
L 2356 3500 
L 2356 3053 
L 1172 3053 
L 1172 1153 
Q 1172 725 1289 603 
Q 1406 481 1766 481 
L 2356 481 
L 2356 0 
L 1766 0 
Q 1100 0 847 248 
Q 594 497 594 1153 
L 594 3053 
L 172 3053 
L 172 3500 
L 594 3500 
L 594 4494 
L 1172 4494 
z
" transform="scale(0.015625)"/>
       <path id="DejaVuSans-64" d="M 2906 2969 
L 2906 4863 
L 3481 4863 
L 3481 0 
L 2906 0 
L 2906 525 
Q 2725 213 2448 61 
Q 2172 -91 1784 -91 
Q 1150 -91 751 415 
Q 353 922 353 1747 
Q 353 2572 751 3078 
Q 1150 3584 1784 3584 
Q 2172 3584 2448 3432 
Q 2725 3281 2906 2969 
z
M 947 1747 
Q 947 1113 1208 752 
Q 1469 391 1925 391 
Q 2381 391 2643 752 
Q 2906 1113 2906 1747 
Q 2906 2381 2643 2742 
Q 2381 3103 1925 3103 
Q 1469 3103 1208 2742 
Q 947 2381 947 1747 
z
" transform="scale(0.015625)"/>
       <path id="DejaVuSans-20" transform="scale(0.015625)"/>
       <path id="DejaVuSans-50" d="M 1259 4147 
L 1259 2394 
L 2053 2394 
Q 2494 2394 2734 2622 
Q 2975 2850 2975 3272 
Q 2975 3691 2734 3919 
Q 2494 4147 2053 4147 
L 1259 4147 
z
M 628 4666 
L 2053 4666 
Q 2838 4666 3239 4311 
Q 3641 3956 3641 3272 
Q 3641 2581 3239 2228 
Q 2838 1875 2053 1875 
L 1259 1875 
L 1259 0 
L 628 0 
L 628 4666 
z
" transform="scale(0.015625)"/>
       <path id="DejaVuSans-72" d="M 2631 2963 
Q 2534 3019 2420 3045 
Q 2306 3072 2169 3072 
Q 1681 3072 1420 2755 
Q 1159 2438 1159 1844 
L 1159 0 
L 581 0 
L 581 3500 
L 1159 3500 
L 1159 2956 
Q 1341 3275 1631 3429 
Q 1922 3584 2338 3584 
Q 2397 3584 2469 3576 
Q 2541 3569 2628 3553 
L 2631 2963 
z
" transform="scale(0.015625)"/>
       <path id="DejaVuSans-6f" d="M 1959 3097 
Q 1497 3097 1228 2736 
Q 959 2375 959 1747 
Q 959 1119 1226 758 
Q 1494 397 1959 397 
Q 2419 397 2687 759 
Q 2956 1122 2956 1747 
Q 2956 2369 2687 2733 
Q 2419 3097 1959 3097 
z
M 1959 3584 
Q 2709 3584 3137 3096 
Q 3566 2609 3566 1747 
Q 3566 888 3137 398 
Q 2709 -91 1959 -91 
Q 1206 -91 779 398 
Q 353 888 353 1747 
Q 353 2609 779 3096 
Q 1206 3584 1959 3584 
z
" transform="scale(0.015625)"/>
       <path id="DejaVuSans-75" d="M 544 1381 
L 544 3500 
L 1119 3500 
L 1119 1403 
Q 1119 906 1312 657 
Q 1506 409 1894 409 
Q 2359 409 2629 706 
Q 2900 1003 2900 1516 
L 2900 3500 
L 3475 3500 
L 3475 0 
L 2900 0 
L 2900 538 
Q 2691 219 2414 64 
Q 2138 -91 1772 -91 
Q 1169 -91 856 284 
Q 544 659 544 1381 
z
M 1991 3584 
L 1991 3584 
z
" transform="scale(0.015625)"/>
       <path id="DejaVuSans-63" d="M 3122 3366 
L 3122 2828 
Q 2878 2963 2633 3030 
Q 2388 3097 2138 3097 
Q 1578 3097 1268 2742 
Q 959 2388 959 1747 
Q 959 1106 1268 751 
Q 1578 397 2138 397 
Q 2388 397 2633 464 
Q 2878 531 3122 666 
L 3122 134 
Q 2881 22 2623 -34 
Q 2366 -91 2075 -91 
Q 1284 -91 818 406 
Q 353 903 353 1747 
Q 353 2603 823 3093 
Q 1294 3584 2113 3584 
Q 2378 3584 2631 3529 
Q 2884 3475 3122 3366 
z
" transform="scale(0.015625)"/>
       <path id="DejaVuSans-2f" d="M 1625 4666 
L 2156 4666 
L 531 -594 
L 0 -594 
L 1625 4666 
z
" transform="scale(0.015625)"/>
       <path id="DejaVuSans-6d" d="M 3328 2828 
Q 3544 3216 3844 3400 
Q 4144 3584 4550 3584 
Q 5097 3584 5394 3201 
Q 5691 2819 5691 2113 
L 5691 0 
L 5113 0 
L 5113 2094 
Q 5113 2597 4934 2840 
Q 4756 3084 4391 3084 
Q 3944 3084 3684 2787 
Q 3425 2491 3425 1978 
L 3425 0 
L 2847 0 
L 2847 2094 
Q 2847 2600 2669 2842 
Q 2491 3084 2119 3084 
Q 1678 3084 1418 2786 
Q 1159 2488 1159 1978 
L 1159 0 
L 581 0 
L 581 3500 
L 1159 3500 
L 1159 2956 
Q 1356 3278 1631 3431 
Q 1906 3584 2284 3584 
Q 2666 3584 2933 3390 
Q 3200 3197 3328 2828 
z
" transform="scale(0.015625)"/>
       <path id="DejaVuSans-4d" d="M 628 4666 
L 1569 4666 
L 2759 1491 
L 3956 4666 
L 4897 4666 
L 4897 0 
L 4281 0 
L 4281 4097 
L 3078 897 
L 2444 897 
L 1241 4097 
L 1241 0 
L 628 0 
L 628 4666 
z
" transform="scale(0.015625)"/>
      </defs>
      <use xlink:href="#DejaVuSans-53"/>
      <use xlink:href="#DejaVuSans-68" transform="translate(63.476562 0)"/>
      <use xlink:href="#DejaVuSans-69" transform="translate(126.855469 0)"/>
      <use xlink:href="#DejaVuSans-66" transform="translate(154.638672 0)"/>
      <use xlink:href="#DejaVuSans-74" transform="translate(188.09375 0)"/>
      <use xlink:href="#DejaVuSans-65" transform="translate(227.302734 0)"/>
      <use xlink:href="#DejaVuSans-64" transform="translate(288.826172 0)"/>
      <use xlink:href="#DejaVuSans-20" transform="translate(352.302734 0)"/>
      <use xlink:href="#DejaVuSans-5b" transform="translate(384.089844 0)"/>
      <use xlink:href="#DejaVuSans-50" transform="translate(423.103516 0)"/>
      <use xlink:href="#DejaVuSans-72" transform="translate(481.65625 0)"/>
      <use xlink:href="#DejaVuSans-6f" transform="translate(520.519531 0)"/>
      <use xlink:href="#DejaVuSans-64" transform="translate(581.701172 0)"/>
      <use xlink:href="#DejaVuSans-75" transform="translate(645.177734 0)"/>
      <use xlink:href="#DejaVuSans-63" transform="translate(708.556641 0)"/>
      <use xlink:href="#DejaVuSans-74" transform="translate(763.537109 0)"/>
      <use xlink:href="#DejaVuSans-5d" transform="translate(802.746094 0)"/>
      <use xlink:href="#DejaVuSans-20" transform="translate(841.759766 0)"/>
      <use xlink:href="#DejaVuSans-2f" transform="translate(873.546875 0)"/>
      <use xlink:href="#DejaVuSans-20" transform="translate(907.238281 0)"/>
      <use xlink:href="#DejaVuSans-6d" transform="translate(939.025391 0)"/>
      <use xlink:href="#DejaVuSans-4d" transform="translate(1036.4375 0)"/>
     </g>
    </g>
   </g>
   <g id="line2d_14">
    <path d="M 40.603623 154.551273 
L 47.022239 150.402495 
L 52.75485 146.725563 
L 58.082572 144.255282 
L 63.234515 140.168497 
L 67.940788 136.363717 
L 72.301513 132.524293 
L 76.587037 129.295207 
L 80.551065 126.846267 
L 84.386856 124.747856 
L 88.202781 122.112962 
L 91.752674 119.764607 
L 95.190533 117.400611 
L 98.47511 114.386208 
L 101.732525 112.007595 
L 104.761324 109.795881 
L 107.721464 108.434647 
L 110.648435 105.383357 
L 113.39304 103.385964 
L 116.040862 101.802414 
L 118.7011 100.160007 
L 121.218984 98.08556 
L 123.627957 96.212923 
L 125.995187 95.059778 
L 128.36434 93.681698 
L 130.584428 90.985865 
L 132.741165 90.215017 
L 134.913991 88.207624 
L 136.94568 86.811927 
L 138.912141 84.739311 
L 140.896284 84.224453 
L 142.77652 82.280877 
L 144.594774 81.182984 
L 146.373213 79.901295 
L 148.153717 78.025009 
L 149.812079 76.472563 
L 151.444218 76.087272 
L 153.098996 74.798146 
L 154.663018 73.849208 
L 156.185523 72.420425 
L 157.712514 71.330744 
L 159.159391 70.050023 
L 160.599538 70.57759 
L 162.012868 68.948417 
L 163.425906 67.664007 
L 164.761611 66.27216 
L 166.058924 65.88838 
L 167.375795 64.523871 
L 168.615083 63.850657 
L 169.834925 63.096446 
" clip-path="url(#pc0771f3962)" style="fill: none; stroke: #1f77b4; stroke-width: 0.7; stroke-linecap: square"/>
    <defs>
     <path id="m53f6067eca" d="M 0 0.9 
C 0.238683 0.9 0.467622 0.80517 0.636396 0.636396 
C 0.80517 0.467622 0.9 0.238683 0.9 0 
C 0.9 -0.238683 0.80517 -0.467622 0.636396 -0.636396 
C 0.467622 -0.80517 0.238683 -0.9 0 -0.9 
C -0.238683 -0.9 -0.467622 -0.80517 -0.636396 -0.636396 
C -0.80517 -0.467622 -0.9 -0.238683 -0.9 0 
C -0.9 0.238683 -0.80517 0.467622 -0.636396 0.636396 
C -0.467622 0.80517 -0.238683 0.9 0 0.9 
z
" style="stroke: #1f77b4"/>
    </defs>
    <g clip-path="url(#pc0771f3962)">
     <use xlink:href="#m53f6067eca" x="40.603623" y="154.551273" style="fill: #1f77b4; stroke: #1f77b4"/>
     <use xlink:href="#m53f6067eca" x="47.022239" y="150.402495" style="fill: #1f77b4; stroke: #1f77b4"/>
     <use xlink:href="#m53f6067eca" x="52.75485" y="146.725563" style="fill: #1f77b4; stroke: #1f77b4"/>
     <use xlink:href="#m53f6067eca" x="58.082572" y="144.255282" style="fill: #1f77b4; stroke: #1f77b4"/>
     <use xlink:href="#m53f6067eca" x="63.234515" y="140.168497" style="fill: #1f77b4; stroke: #1f77b4"/>
     <use xlink:href="#m53f6067eca" x="67.940788" y="136.363717" style="fill: #1f77b4; stroke: #1f77b4"/>
     <use xlink:href="#m53f6067eca" x="72.301513" y="132.524293" style="fill: #1f77b4; stroke: #1f77b4"/>
     <use xlink:href="#m53f6067eca" x="76.587037" y="129.295207" style="fill: #1f77b4; stroke: #1f77b4"/>
     <use xlink:href="#m53f6067eca" x="80.551065" y="126.846267" style="fill: #1f77b4; stroke: #1f77b4"/>
     <use xlink:href="#m53f6067eca" x="84.386856" y="124.747856" style="fill: #1f77b4; stroke: #1f77b4"/>
     <use xlink:href="#m53f6067eca" x="88.202781" y="122.112962" style="fill: #1f77b4; stroke: #1f77b4"/>
     <use xlink:href="#m53f6067eca" x="91.752674" y="119.764607" style="fill: #1f77b4; stroke: #1f77b4"/>
     <use xlink:href="#m53f6067eca" x="95.190533" y="117.400611" style="fill: #1f77b4; stroke: #1f77b4"/>
     <use xlink:href="#m53f6067eca" x="98.47511" y="114.386208" style="fill: #1f77b4; stroke: #1f77b4"/>
     <use xlink:href="#m53f6067eca" x="101.732525" y="112.007595" style="fill: #1f77b4; stroke: #1f77b4"/>
     <use xlink:href="#m53f6067eca" x="104.761324" y="109.795881" style="fill: #1f77b4; stroke: #1f77b4"/>
     <use xlink:href="#m53f6067eca" x="107.721464" y="108.434647" style="fill: #1f77b4; stroke: #1f77b4"/>
     <use xlink:href="#m53f6067eca" x="110.648435" y="105.383357" style="fill: #1f77b4; stroke: #1f77b4"/>
     <use xlink:href="#m53f6067eca" x="113.39304" y="103.385964" style="fill: #1f77b4; stroke: #1f77b4"/>
     <use xlink:href="#m53f6067eca" x="116.040862" y="101.802414" style="fill: #1f77b4; stroke: #1f77b4"/>
     <use xlink:href="#m53f6067eca" x="118.7011" y="100.160007" style="fill: #1f77b4; stroke: #1f77b4"/>
     <use xlink:href="#m53f6067eca" x="121.218984" y="98.08556" style="fill: #1f77b4; stroke: #1f77b4"/>
     <use xlink:href="#m53f6067eca" x="123.627957" y="96.212923" style="fill: #1f77b4; stroke: #1f77b4"/>
     <use xlink:href="#m53f6067eca" x="125.995187" y="95.059778" style="fill: #1f77b4; stroke: #1f77b4"/>
     <use xlink:href="#m53f6067eca" x="128.36434" y="93.681698" style="fill: #1f77b4; stroke: #1f77b4"/>
     <use xlink:href="#m53f6067eca" x="130.584428" y="90.985865" style="fill: #1f77b4; stroke: #1f77b4"/>
     <use xlink:href="#m53f6067eca" x="132.741165" y="90.215017" style="fill: #1f77b4; stroke: #1f77b4"/>
     <use xlink:href="#m53f6067eca" x="134.913991" y="88.207624" style="fill: #1f77b4; stroke: #1f77b4"/>
     <use xlink:href="#m53f6067eca" x="136.94568" y="86.811927" style="fill: #1f77b4; stroke: #1f77b4"/>
     <use xlink:href="#m53f6067eca" x="138.912141" y="84.739311" style="fill: #1f77b4; stroke: #1f77b4"/>
     <use xlink:href="#m53f6067eca" x="140.896284" y="84.224453" style="fill: #1f77b4; stroke: #1f77b4"/>
     <use xlink:href="#m53f6067eca" x="142.77652" y="82.280877" style="fill: #1f77b4; stroke: #1f77b4"/>
     <use xlink:href="#m53f6067eca" x="144.594774" y="81.182984" style="fill: #1f77b4; stroke: #1f77b4"/>
     <use xlink:href="#m53f6067eca" x="146.373213" y="79.901295" style="fill: #1f77b4; stroke: #1f77b4"/>
     <use xlink:href="#m53f6067eca" x="148.153717" y="78.025009" style="fill: #1f77b4; stroke: #1f77b4"/>
     <use xlink:href="#m53f6067eca" x="149.812079" y="76.472563" style="fill: #1f77b4; stroke: #1f77b4"/>
     <use xlink:href="#m53f6067eca" x="151.444218" y="76.087272" style="fill: #1f77b4; stroke: #1f77b4"/>
     <use xlink:href="#m53f6067eca" x="153.098996" y="74.798146" style="fill: #1f77b4; stroke: #1f77b4"/>
     <use xlink:href="#m53f6067eca" x="154.663018" y="73.849208" style="fill: #1f77b4; stroke: #1f77b4"/>
     <use xlink:href="#m53f6067eca" x="156.185523" y="72.420425" style="fill: #1f77b4; stroke: #1f77b4"/>
     <use xlink:href="#m53f6067eca" x="157.712514" y="71.330744" style="fill: #1f77b4; stroke: #1f77b4"/>
     <use xlink:href="#m53f6067eca" x="159.159391" y="70.050023" style="fill: #1f77b4; stroke: #1f77b4"/>
     <use xlink:href="#m53f6067eca" x="160.599538" y="70.57759" style="fill: #1f77b4; stroke: #1f77b4"/>
     <use xlink:href="#m53f6067eca" x="162.012868" y="68.948417" style="fill: #1f77b4; stroke: #1f77b4"/>
     <use xlink:href="#m53f6067eca" x="163.425906" y="67.664007" style="fill: #1f77b4; stroke: #1f77b4"/>
     <use xlink:href="#m53f6067eca" x="164.761611" y="66.27216" style="fill: #1f77b4; stroke: #1f77b4"/>
     <use xlink:href="#m53f6067eca" x="166.058924" y="65.88838" style="fill: #1f77b4; stroke: #1f77b4"/>
     <use xlink:href="#m53f6067eca" x="167.375795" y="64.523871" style="fill: #1f77b4; stroke: #1f77b4"/>
     <use xlink:href="#m53f6067eca" x="168.615083" y="63.850657" style="fill: #1f77b4; stroke: #1f77b4"/>
     <use xlink:href="#m53f6067eca" x="169.834925" y="63.096446" style="fill: #1f77b4; stroke: #1f77b4"/>
    </g>
   </g>
   <g id="line2d_15">
    <path d="M 40.603125 154.551273 
L 51.56739 144.485064 
L 61.581379 137.5229 
L 71.107119 130.378447 
L 80.43432 124.149382 
L 89.093056 118.623303 
L 97.34706 111.958889 
L 105.485904 106.322631 
L 113.031696 100.725605 
L 120.237885 95.579922 
L 127.186326 90.469349 
L 134.043962 84.998808 
L 140.405869 80.449362 
L 146.545507 76.494019 
L 152.685577 72.299753 
L 158.487952 69.05458 
L 164.064364 64.610784 
L 169.587282 60.402219 
L 174.787873 57.366018 
L 179.870505 53.946418 
L 184.760588 50.328121 
" clip-path="url(#pc0771f3962)" style="fill: none; stroke: #ff7f0e; stroke-width: 0.7; stroke-linecap: square"/>
    <defs>
     <path id="m211fb3a008" d="M 0 0.9 
C 0.238683 0.9 0.467622 0.80517 0.636396 0.636396 
C 0.80517 0.467622 0.9 0.238683 0.9 0 
C 0.9 -0.238683 0.80517 -0.467622 0.636396 -0.636396 
C 0.467622 -0.80517 0.238683 -0.9 0 -0.9 
C -0.238683 -0.9 -0.467622 -0.80517 -0.636396 -0.636396 
C -0.80517 -0.467622 -0.9 -0.238683 -0.9 0 
C -0.9 0.238683 -0.80517 0.467622 -0.636396 0.636396 
C -0.467622 0.80517 -0.238683 0.9 0 0.9 
z
" style="stroke: #ff7f0e"/>
    </defs>
    <g clip-path="url(#pc0771f3962)">
     <use xlink:href="#m211fb3a008" x="40.603125" y="154.551273" style="fill: #ff7f0e; stroke: #ff7f0e"/>
     <use xlink:href="#m211fb3a008" x="51.56739" y="144.485064" style="fill: #ff7f0e; stroke: #ff7f0e"/>
     <use xlink:href="#m211fb3a008" x="61.581379" y="137.5229" style="fill: #ff7f0e; stroke: #ff7f0e"/>
     <use xlink:href="#m211fb3a008" x="71.107119" y="130.378447" style="fill: #ff7f0e; stroke: #ff7f0e"/>
     <use xlink:href="#m211fb3a008" x="80.43432" y="124.149382" style="fill: #ff7f0e; stroke: #ff7f0e"/>
     <use xlink:href="#m211fb3a008" x="89.093056" y="118.623303" style="fill: #ff7f0e; stroke: #ff7f0e"/>
     <use xlink:href="#m211fb3a008" x="97.34706" y="111.958889" style="fill: #ff7f0e; stroke: #ff7f0e"/>
     <use xlink:href="#m211fb3a008" x="105.485904" y="106.322631" style="fill: #ff7f0e; stroke: #ff7f0e"/>
     <use xlink:href="#m211fb3a008" x="113.031696" y="100.725605" style="fill: #ff7f0e; stroke: #ff7f0e"/>
     <use xlink:href="#m211fb3a008" x="120.237885" y="95.579922" style="fill: #ff7f0e; stroke: #ff7f0e"/>
     <use xlink:href="#m211fb3a008" x="127.186326" y="90.469349" style="fill: #ff7f0e; stroke: #ff7f0e"/>
     <use xlink:href="#m211fb3a008" x="134.043962" y="84.998808" style="fill: #ff7f0e; stroke: #ff7f0e"/>
     <use xlink:href="#m211fb3a008" x="140.405869" y="80.449362" style="fill: #ff7f0e; stroke: #ff7f0e"/>
     <use xlink:href="#m211fb3a008" x="146.545507" y="76.494019" style="fill: #ff7f0e; stroke: #ff7f0e"/>
     <use xlink:href="#m211fb3a008" x="152.685577" y="72.299753" style="fill: #ff7f0e; stroke: #ff7f0e"/>
     <use xlink:href="#m211fb3a008" x="158.487952" y="69.05458" style="fill: #ff7f0e; stroke: #ff7f0e"/>
     <use xlink:href="#m211fb3a008" x="164.064364" y="64.610784" style="fill: #ff7f0e; stroke: #ff7f0e"/>
     <use xlink:href="#m211fb3a008" x="169.587282" y="60.402219" style="fill: #ff7f0e; stroke: #ff7f0e"/>
     <use xlink:href="#m211fb3a008" x="174.787873" y="57.366018" style="fill: #ff7f0e; stroke: #ff7f0e"/>
     <use xlink:href="#m211fb3a008" x="179.870505" y="53.946418" style="fill: #ff7f0e; stroke: #ff7f0e"/>
     <use xlink:href="#m211fb3a008" x="184.760588" y="50.328121" style="fill: #ff7f0e; stroke: #ff7f0e"/>
    </g>
   </g>
   <g id="line2d_16">
    <path d="M 40.603125 154.551273 
L 44.654927 152.237437 
L 48.623468 149.313578 
L 52.601396 146.386992 
L 56.362424 143.543693 
L 59.997919 139.932301 
L 63.663139 138.33303 
L 67.140669 135.837157 
L 70.538979 132.966969 
L 73.819327 129.9834 
L 77.144592 128.428671 
L 80.308966 125.662019 
L 83.36953 123.121315 
L 86.448547 120.761368 
L 89.380054 118.58362 
L 92.267762 117.029342 
L 95.178378 114.701091 
L 97.941781 112.702588 
L 100.649149 111.13909 
L 103.315415 109.065039 
L 105.999731 107.977587 
L 108.558911 105.519952 
L 111.046602 103.419471 
L 113.571847 102.528903 
L 115.98338 100.716658 
L 118.351824 98.812812 
L 120.740306 97.228496 
L 123.001795 94.964522 
L 125.228722 93.746511 
L 127.423113 92.579947 
L 129.654748 90.633422 
L 131.76727 89.302255 
L 133.849396 87.631885 
L 135.939015 86.016955 
L 137.947094 84.772558 
L 139.916143 82.881013 
L 141.84731 82.266506 
L 143.812442 81.08582 
L 145.695534 79.662677 
L 147.563293 78.862616 
L 149.445545 77.341751 
L 151.237705 75.905464 
" clip-path="url(#pc0771f3962)" style="fill: none; stroke: #2ca02c; stroke-width: 0.7; stroke-linecap: square"/>
    <defs>
     <path id="m810c160f94" d="M 0 0.9 
C 0.238683 0.9 0.467622 0.80517 0.636396 0.636396 
C 0.80517 0.467622 0.9 0.238683 0.9 0 
C 0.9 -0.238683 0.80517 -0.467622 0.636396 -0.636396 
C 0.467622 -0.80517 0.238683 -0.9 0 -0.9 
C -0.238683 -0.9 -0.467622 -0.80517 -0.636396 -0.636396 
C -0.80517 -0.467622 -0.9 -0.238683 -0.9 0 
C -0.9 0.238683 -0.80517 0.467622 -0.636396 0.636396 
C -0.467622 0.80517 -0.238683 0.9 0 0.9 
z
" style="stroke: #2ca02c"/>
    </defs>
    <g clip-path="url(#pc0771f3962)">
     <use xlink:href="#m810c160f94" x="40.603125" y="154.551273" style="fill: #2ca02c; stroke: #2ca02c"/>
     <use xlink:href="#m810c160f94" x="44.654927" y="152.237437" style="fill: #2ca02c; stroke: #2ca02c"/>
     <use xlink:href="#m810c160f94" x="48.623468" y="149.313578" style="fill: #2ca02c; stroke: #2ca02c"/>
     <use xlink:href="#m810c160f94" x="52.601396" y="146.386992" style="fill: #2ca02c; stroke: #2ca02c"/>
     <use xlink:href="#m810c160f94" x="56.362424" y="143.543693" style="fill: #2ca02c; stroke: #2ca02c"/>
     <use xlink:href="#m810c160f94" x="59.997919" y="139.932301" style="fill: #2ca02c; stroke: #2ca02c"/>
     <use xlink:href="#m810c160f94" x="63.663139" y="138.33303" style="fill: #2ca02c; stroke: #2ca02c"/>
     <use xlink:href="#m810c160f94" x="67.140669" y="135.837157" style="fill: #2ca02c; stroke: #2ca02c"/>
     <use xlink:href="#m810c160f94" x="70.538979" y="132.966969" style="fill: #2ca02c; stroke: #2ca02c"/>
     <use xlink:href="#m810c160f94" x="73.819327" y="129.9834" style="fill: #2ca02c; stroke: #2ca02c"/>
     <use xlink:href="#m810c160f94" x="77.144592" y="128.428671" style="fill: #2ca02c; stroke: #2ca02c"/>
     <use xlink:href="#m810c160f94" x="80.308966" y="125.662019" style="fill: #2ca02c; stroke: #2ca02c"/>
     <use xlink:href="#m810c160f94" x="83.36953" y="123.121315" style="fill: #2ca02c; stroke: #2ca02c"/>
     <use xlink:href="#m810c160f94" x="86.448547" y="120.761368" style="fill: #2ca02c; stroke: #2ca02c"/>
     <use xlink:href="#m810c160f94" x="89.380054" y="118.58362" style="fill: #2ca02c; stroke: #2ca02c"/>
     <use xlink:href="#m810c160f94" x="92.267762" y="117.029342" style="fill: #2ca02c; stroke: #2ca02c"/>
     <use xlink:href="#m810c160f94" x="95.178378" y="114.701091" style="fill: #2ca02c; stroke: #2ca02c"/>
     <use xlink:href="#m810c160f94" x="97.941781" y="112.702588" style="fill: #2ca02c; stroke: #2ca02c"/>
     <use xlink:href="#m810c160f94" x="100.649149" y="111.13909" style="fill: #2ca02c; stroke: #2ca02c"/>
     <use xlink:href="#m810c160f94" x="103.315415" y="109.065039" style="fill: #2ca02c; stroke: #2ca02c"/>
     <use xlink:href="#m810c160f94" x="105.999731" y="107.977587" style="fill: #2ca02c; stroke: #2ca02c"/>
     <use xlink:href="#m810c160f94" x="108.558911" y="105.519952" style="fill: #2ca02c; stroke: #2ca02c"/>
     <use xlink:href="#m810c160f94" x="111.046602" y="103.419471" style="fill: #2ca02c; stroke: #2ca02c"/>
     <use xlink:href="#m810c160f94" x="113.571847" y="102.528903" style="fill: #2ca02c; stroke: #2ca02c"/>
     <use xlink:href="#m810c160f94" x="115.98338" y="100.716658" style="fill: #2ca02c; stroke: #2ca02c"/>
     <use xlink:href="#m810c160f94" x="118.351824" y="98.812812" style="fill: #2ca02c; stroke: #2ca02c"/>
     <use xlink:href="#m810c160f94" x="120.740306" y="97.228496" style="fill: #2ca02c; stroke: #2ca02c"/>
     <use xlink:href="#m810c160f94" x="123.001795" y="94.964522" style="fill: #2ca02c; stroke: #2ca02c"/>
     <use xlink:href="#m810c160f94" x="125.228722" y="93.746511" style="fill: #2ca02c; stroke: #2ca02c"/>
     <use xlink:href="#m810c160f94" x="127.423113" y="92.579947" style="fill: #2ca02c; stroke: #2ca02c"/>
     <use xlink:href="#m810c160f94" x="129.654748" y="90.633422" style="fill: #2ca02c; stroke: #2ca02c"/>
     <use xlink:href="#m810c160f94" x="131.76727" y="89.302255" style="fill: #2ca02c; stroke: #2ca02c"/>
     <use xlink:href="#m810c160f94" x="133.849396" y="87.631885" style="fill: #2ca02c; stroke: #2ca02c"/>
     <use xlink:href="#m810c160f94" x="135.939015" y="86.016955" style="fill: #2ca02c; stroke: #2ca02c"/>
     <use xlink:href="#m810c160f94" x="137.947094" y="84.772558" style="fill: #2ca02c; stroke: #2ca02c"/>
     <use xlink:href="#m810c160f94" x="139.916143" y="82.881013" style="fill: #2ca02c; stroke: #2ca02c"/>
     <use xlink:href="#m810c160f94" x="141.84731" y="82.266506" style="fill: #2ca02c; stroke: #2ca02c"/>
     <use xlink:href="#m810c160f94" x="143.812442" y="81.08582" style="fill: #2ca02c; stroke: #2ca02c"/>
     <use xlink:href="#m810c160f94" x="145.695534" y="79.662677" style="fill: #2ca02c; stroke: #2ca02c"/>
     <use xlink:href="#m810c160f94" x="147.563293" y="78.862616" style="fill: #2ca02c; stroke: #2ca02c"/>
     <use xlink:href="#m810c160f94" x="149.445545" y="77.341751" style="fill: #2ca02c; stroke: #2ca02c"/>
     <use xlink:href="#m810c160f94" x="151.237705" y="75.905464" style="fill: #2ca02c; stroke: #2ca02c"/>
    </g>
   </g>
   <g id="line2d_17">
    <path d="M 40.603125 154.551273 
L 49.63504 145.756292 
L 57.80614 139.605128 
L 65.502011 133.806572 
L 72.852445 129.147041 
L 80.086974 123.873013 
L 86.726753 118.893646 
L 93.127866 115.382201 
L 99.383841 110.304258 
L 105.180803 105.962588 
L 110.702952 101.925557 
L 116.164599 98.693333 
L 121.261165 94.803674 
L 126.158245 91.495586 
L 130.81871 88.18787 
L 135.448758 84.924566 
L 139.730815 82.425871 
L 143.842488 78.476486 
L 147.944564 76.308471 
L 151.794646 73.783705 
L 155.442006 71.093992 
L 159.057792 68.771395 
L 162.470698 66.490651 
L 165.750998 64.88546 
L 169.002705 62.618289 
L 172.057802 60.330194 
L 175.039023 58.984946 
L 177.90907 56.713177 
L 180.750451 55.329842 
L 183.376654 52.720771 
L 185.943052 52.00514 
L 188.509839 49.652921 
L 190.901058 47.945484 
L 193.231652 47.453606 
L 195.561383 45.178953 
L 197.747597 44.034994 
L 199.84192 42.231881 
L 201.868311 40.941015 
L 203.899419 39.035842 
L 205.820716 39.058419 
L 207.665695 36.992089 
L 209.534261 36.32491 
L 211.310723 34.496726 
L 212.999603 34.06958 
L 214.692235 33.036262 
L 216.275947 31.984516 
L 217.845386 31.746131 
L 219.352862 29.489403 
L 220.82857 29.250239 
L 222.2368 27.840604 
L 223.597786 27.116695 
L 224.994465 26.522663 
L 226.304937 25.628652 
L 227.561064 24.857124 
L 228.811728 23.751567 
L 229.97593 22.663772 
L 231.13079 22.240247 
L 232.283987 22.320432 
L 233.375493 21.364764 
L 234.445913 20.710897 
L 235.484548 19.944744 
L 236.529878 19.175268 
L 237.506717 18.311069 
L 238.447718 17.945334 
L 239.398515 17.35678 
L 240.275292 16.888403 
L 241.152459 16.894587 
L 242.048112 16.205264 
L 242.887572 15.719322 
L 243.679415 14.808219 
L 244.454276 14.703766 
L 245.257875 14.216727 
" clip-path="url(#pc0771f3962)" style="fill: none; stroke: #d62728; stroke-width: 0.7; stroke-linecap: square"/>
    <defs>
     <path id="m87cb88c42d" d="M 0 0.9 
C 0.238683 0.9 0.467622 0.80517 0.636396 0.636396 
C 0.80517 0.467622 0.9 0.238683 0.9 0 
C 0.9 -0.238683 0.80517 -0.467622 0.636396 -0.636396 
C 0.467622 -0.80517 0.238683 -0.9 0 -0.9 
C -0.238683 -0.9 -0.467622 -0.80517 -0.636396 -0.636396 
C -0.80517 -0.467622 -0.9 -0.238683 -0.9 0 
C -0.9 0.238683 -0.80517 0.467622 -0.636396 0.636396 
C -0.467622 0.80517 -0.238683 0.9 0 0.9 
z
" style="stroke: #d62728"/>
    </defs>
    <g clip-path="url(#pc0771f3962)">
     <use xlink:href="#m87cb88c42d" x="40.603125" y="154.551273" style="fill: #d62728; stroke: #d62728"/>
     <use xlink:href="#m87cb88c42d" x="49.63504" y="145.756292" style="fill: #d62728; stroke: #d62728"/>
     <use xlink:href="#m87cb88c42d" x="57.80614" y="139.605128" style="fill: #d62728; stroke: #d62728"/>
     <use xlink:href="#m87cb88c42d" x="65.502011" y="133.806572" style="fill: #d62728; stroke: #d62728"/>
     <use xlink:href="#m87cb88c42d" x="72.852445" y="129.147041" style="fill: #d62728; stroke: #d62728"/>
     <use xlink:href="#m87cb88c42d" x="80.086974" y="123.873013" style="fill: #d62728; stroke: #d62728"/>
     <use xlink:href="#m87cb88c42d" x="86.726753" y="118.893646" style="fill: #d62728; stroke: #d62728"/>
     <use xlink:href="#m87cb88c42d" x="93.127866" y="115.382201" style="fill: #d62728; stroke: #d62728"/>
     <use xlink:href="#m87cb88c42d" x="99.383841" y="110.304258" style="fill: #d62728; stroke: #d62728"/>
     <use xlink:href="#m87cb88c42d" x="105.180803" y="105.962588" style="fill: #d62728; stroke: #d62728"/>
     <use xlink:href="#m87cb88c42d" x="110.702952" y="101.925557" style="fill: #d62728; stroke: #d62728"/>
     <use xlink:href="#m87cb88c42d" x="116.164599" y="98.693333" style="fill: #d62728; stroke: #d62728"/>
     <use xlink:href="#m87cb88c42d" x="121.261165" y="94.803674" style="fill: #d62728; stroke: #d62728"/>
     <use xlink:href="#m87cb88c42d" x="126.158245" y="91.495586" style="fill: #d62728; stroke: #d62728"/>
     <use xlink:href="#m87cb88c42d" x="130.81871" y="88.18787" style="fill: #d62728; stroke: #d62728"/>
     <use xlink:href="#m87cb88c42d" x="135.448758" y="84.924566" style="fill: #d62728; stroke: #d62728"/>
     <use xlink:href="#m87cb88c42d" x="139.730815" y="82.425871" style="fill: #d62728; stroke: #d62728"/>
     <use xlink:href="#m87cb88c42d" x="143.842488" y="78.476486" style="fill: #d62728; stroke: #d62728"/>
     <use xlink:href="#m87cb88c42d" x="147.944564" y="76.308471" style="fill: #d62728; stroke: #d62728"/>
     <use xlink:href="#m87cb88c42d" x="151.794646" y="73.783705" style="fill: #d62728; stroke: #d62728"/>
     <use xlink:href="#m87cb88c42d" x="155.442006" y="71.093992" style="fill: #d62728; stroke: #d62728"/>
     <use xlink:href="#m87cb88c42d" x="159.057792" y="68.771395" style="fill: #d62728; stroke: #d62728"/>
     <use xlink:href="#m87cb88c42d" x="162.470698" y="66.490651" style="fill: #d62728; stroke: #d62728"/>
     <use xlink:href="#m87cb88c42d" x="165.750998" y="64.88546" style="fill: #d62728; stroke: #d62728"/>
     <use xlink:href="#m87cb88c42d" x="169.002705" y="62.618289" style="fill: #d62728; stroke: #d62728"/>
     <use xlink:href="#m87cb88c42d" x="172.057802" y="60.330194" style="fill: #d62728; stroke: #d62728"/>
     <use xlink:href="#m87cb88c42d" x="175.039023" y="58.984946" style="fill: #d62728; stroke: #d62728"/>
     <use xlink:href="#m87cb88c42d" x="177.90907" y="56.713177" style="fill: #d62728; stroke: #d62728"/>
     <use xlink:href="#m87cb88c42d" x="180.750451" y="55.329842" style="fill: #d62728; stroke: #d62728"/>
     <use xlink:href="#m87cb88c42d" x="183.376654" y="52.720771" style="fill: #d62728; stroke: #d62728"/>
     <use xlink:href="#m87cb88c42d" x="185.943052" y="52.00514" style="fill: #d62728; stroke: #d62728"/>
     <use xlink:href="#m87cb88c42d" x="188.509839" y="49.652921" style="fill: #d62728; stroke: #d62728"/>
     <use xlink:href="#m87cb88c42d" x="190.901058" y="47.945484" style="fill: #d62728; stroke: #d62728"/>
     <use xlink:href="#m87cb88c42d" x="193.231652" y="47.453606" style="fill: #d62728; stroke: #d62728"/>
     <use xlink:href="#m87cb88c42d" x="195.561383" y="45.178953" style="fill: #d62728; stroke: #d62728"/>
     <use xlink:href="#m87cb88c42d" x="197.747597" y="44.034994" style="fill: #d62728; stroke: #d62728"/>
     <use xlink:href="#m87cb88c42d" x="199.84192" y="42.231881" style="fill: #d62728; stroke: #d62728"/>
     <use xlink:href="#m87cb88c42d" x="201.868311" y="40.941015" style="fill: #d62728; stroke: #d62728"/>
     <use xlink:href="#m87cb88c42d" x="203.899419" y="39.035842" style="fill: #d62728; stroke: #d62728"/>
     <use xlink:href="#m87cb88c42d" x="205.820716" y="39.058419" style="fill: #d62728; stroke: #d62728"/>
     <use xlink:href="#m87cb88c42d" x="207.665695" y="36.992089" style="fill: #d62728; stroke: #d62728"/>
     <use xlink:href="#m87cb88c42d" x="209.534261" y="36.32491" style="fill: #d62728; stroke: #d62728"/>
     <use xlink:href="#m87cb88c42d" x="211.310723" y="34.496726" style="fill: #d62728; stroke: #d62728"/>
     <use xlink:href="#m87cb88c42d" x="212.999603" y="34.06958" style="fill: #d62728; stroke: #d62728"/>
     <use xlink:href="#m87cb88c42d" x="214.692235" y="33.036262" style="fill: #d62728; stroke: #d62728"/>
     <use xlink:href="#m87cb88c42d" x="216.275947" y="31.984516" style="fill: #d62728; stroke: #d62728"/>
     <use xlink:href="#m87cb88c42d" x="217.845386" y="31.746131" style="fill: #d62728; stroke: #d62728"/>
     <use xlink:href="#m87cb88c42d" x="219.352862" y="29.489403" style="fill: #d62728; stroke: #d62728"/>
     <use xlink:href="#m87cb88c42d" x="220.82857" y="29.250239" style="fill: #d62728; stroke: #d62728"/>
     <use xlink:href="#m87cb88c42d" x="222.2368" y="27.840604" style="fill: #d62728; stroke: #d62728"/>
     <use xlink:href="#m87cb88c42d" x="223.597786" y="27.116695" style="fill: #d62728; stroke: #d62728"/>
     <use xlink:href="#m87cb88c42d" x="224.994465" y="26.522663" style="fill: #d62728; stroke: #d62728"/>
     <use xlink:href="#m87cb88c42d" x="226.304937" y="25.628652" style="fill: #d62728; stroke: #d62728"/>
     <use xlink:href="#m87cb88c42d" x="227.561064" y="24.857124" style="fill: #d62728; stroke: #d62728"/>
     <use xlink:href="#m87cb88c42d" x="228.811728" y="23.751567" style="fill: #d62728; stroke: #d62728"/>
     <use xlink:href="#m87cb88c42d" x="229.97593" y="22.663772" style="fill: #d62728; stroke: #d62728"/>
     <use xlink:href="#m87cb88c42d" x="231.13079" y="22.240247" style="fill: #d62728; stroke: #d62728"/>
     <use xlink:href="#m87cb88c42d" x="232.283987" y="22.320432" style="fill: #d62728; stroke: #d62728"/>
     <use xlink:href="#m87cb88c42d" x="233.375493" y="21.364764" style="fill: #d62728; stroke: #d62728"/>
     <use xlink:href="#m87cb88c42d" x="234.445913" y="20.710897" style="fill: #d62728; stroke: #d62728"/>
     <use xlink:href="#m87cb88c42d" x="235.484548" y="19.944744" style="fill: #d62728; stroke: #d62728"/>
     <use xlink:href="#m87cb88c42d" x="236.529878" y="19.175268" style="fill: #d62728; stroke: #d62728"/>
     <use xlink:href="#m87cb88c42d" x="237.506717" y="18.311069" style="fill: #d62728; stroke: #d62728"/>
     <use xlink:href="#m87cb88c42d" x="238.447718" y="17.945334" style="fill: #d62728; stroke: #d62728"/>
     <use xlink:href="#m87cb88c42d" x="239.398515" y="17.35678" style="fill: #d62728; stroke: #d62728"/>
     <use xlink:href="#m87cb88c42d" x="240.275292" y="16.888403" style="fill: #d62728; stroke: #d62728"/>
     <use xlink:href="#m87cb88c42d" x="241.152459" y="16.894587" style="fill: #d62728; stroke: #d62728"/>
     <use xlink:href="#m87cb88c42d" x="242.048112" y="16.205264" style="fill: #d62728; stroke: #d62728"/>
     <use xlink:href="#m87cb88c42d" x="242.887572" y="15.719322" style="fill: #d62728; stroke: #d62728"/>
     <use xlink:href="#m87cb88c42d" x="243.679415" y="14.808219" style="fill: #d62728; stroke: #d62728"/>
     <use xlink:href="#m87cb88c42d" x="244.454276" y="14.703766" style="fill: #d62728; stroke: #d62728"/>
     <use xlink:href="#m87cb88c42d" x="245.257875" y="14.216727" style="fill: #d62728; stroke: #d62728"/>
    </g>
   </g>
   <g id="patch_3">
    <path d="M 40.603125 161.568 
L 40.603125 7.2 
" style="fill: none; stroke: #000000; stroke-width: 0.8; stroke-linejoin: miter; stroke-linecap: square"/>
   </g>
   <g id="patch_4">
    <path d="M 255.490612 161.568 
L 255.490612 7.2 
" style="fill: none; stroke: #000000; stroke-width: 0.8; stroke-linejoin: miter; stroke-linecap: square"/>
   </g>
   <g id="patch_5">
    <path d="M 40.603125 161.568 
L 255.490613 161.568 
" style="fill: none; stroke: #000000; stroke-width: 0.8; stroke-linejoin: miter; stroke-linecap: square"/>
   </g>
   <g id="patch_6">
    <path d="M 40.603125 7.2 
L 255.490613 7.2 
" style="fill: none; stroke: #000000; stroke-width: 0.8; stroke-linejoin: miter; stroke-linecap: square"/>
   </g>
   <g id="legend_1">
    <g id="patch_7">
     <path d="M 262.490612 115.24025 
L 345.32655 115.24025 
Q 347.32655 115.24025 347.32655 113.24025 
L 347.32655 55.52775 
Q 347.32655 53.52775 345.32655 53.52775 
L 262.490612 53.52775 
Q 260.490612 53.52775 260.490612 55.52775 
L 260.490612 113.24025 
Q 260.490612 115.24025 262.490612 115.24025 
z
" style="fill: #ffffff; opacity: 0.8; stroke: #cccccc; stroke-linejoin: miter"/>
    </g>
    <g id="line2d_18">
     <path d="M 264.490612 61.626187 
L 274.490612 61.626187 
L 284.490612 61.626187 
" style="fill: none; stroke: #1f77b4; stroke-width: 0.7; stroke-linecap: square"/>
     <g>
      <use xlink:href="#m53f6067eca" x="274.490612" y="61.626187" style="fill: #1f77b4; stroke: #1f77b4"/>
     </g>
    </g>
    <g id="text_17">
     <!-- Addition 1 -->
     <g transform="translate(292.490612 65.126187) scale(0.1 -0.1)">
      <defs>
       <path id="DejaVuSans-41" d="M 2188 4044 
L 1331 1722 
L 3047 1722 
L 2188 4044 
z
M 1831 4666 
L 2547 4666 
L 4325 0 
L 3669 0 
L 3244 1197 
L 1141 1197 
L 716 0 
L 50 0 
L 1831 4666 
z
" transform="scale(0.015625)"/>
       <path id="DejaVuSans-6e" d="M 3513 2113 
L 3513 0 
L 2938 0 
L 2938 2094 
Q 2938 2591 2744 2837 
Q 2550 3084 2163 3084 
Q 1697 3084 1428 2787 
Q 1159 2491 1159 1978 
L 1159 0 
L 581 0 
L 581 3500 
L 1159 3500 
L 1159 2956 
Q 1366 3272 1645 3428 
Q 1925 3584 2291 3584 
Q 2894 3584 3203 3211 
Q 3513 2838 3513 2113 
z
" transform="scale(0.015625)"/>
      </defs>
      <use xlink:href="#DejaVuSans-41"/>
      <use xlink:href="#DejaVuSans-64" transform="translate(66.658203 0)"/>
      <use xlink:href="#DejaVuSans-64" transform="translate(130.134766 0)"/>
      <use xlink:href="#DejaVuSans-69" transform="translate(193.611328 0)"/>
      <use xlink:href="#DejaVuSans-74" transform="translate(221.394531 0)"/>
      <use xlink:href="#DejaVuSans-69" transform="translate(260.603516 0)"/>
      <use xlink:href="#DejaVuSans-6f" transform="translate(288.386719 0)"/>
      <use xlink:href="#DejaVuSans-6e" transform="translate(349.568359 0)"/>
      <use xlink:href="#DejaVuSans-20" transform="translate(412.947266 0)"/>
      <use xlink:href="#DejaVuSans-31" transform="translate(444.734375 0)"/>
     </g>
    </g>
    <g id="line2d_19">
     <path d="M 264.490612 76.304312 
L 274.490612 76.304312 
L 284.490612 76.304312 
" style="fill: none; stroke: #ff7f0e; stroke-width: 0.7; stroke-linecap: square"/>
     <g>
      <use xlink:href="#m211fb3a008" x="274.490612" y="76.304312" style="fill: #ff7f0e; stroke: #ff7f0e"/>
     </g>
    </g>
    <g id="text_18">
     <!-- Addition 2 -->
     <g transform="translate(292.490612 79.804312) scale(0.1 -0.1)">
      <use xlink:href="#DejaVuSans-41"/>
      <use xlink:href="#DejaVuSans-64" transform="translate(66.658203 0)"/>
      <use xlink:href="#DejaVuSans-64" transform="translate(130.134766 0)"/>
      <use xlink:href="#DejaVuSans-69" transform="translate(193.611328 0)"/>
      <use xlink:href="#DejaVuSans-74" transform="translate(221.394531 0)"/>
      <use xlink:href="#DejaVuSans-69" transform="translate(260.603516 0)"/>
      <use xlink:href="#DejaVuSans-6f" transform="translate(288.386719 0)"/>
      <use xlink:href="#DejaVuSans-6e" transform="translate(349.568359 0)"/>
      <use xlink:href="#DejaVuSans-20" transform="translate(412.947266 0)"/>
      <use xlink:href="#DejaVuSans-32" transform="translate(444.734375 0)"/>
     </g>
    </g>
    <g id="line2d_20">
     <path d="M 264.490612 90.982437 
L 274.490612 90.982437 
L 284.490612 90.982437 
" style="fill: none; stroke: #2ca02c; stroke-width: 0.7; stroke-linecap: square"/>
     <g>
      <use xlink:href="#m810c160f94" x="274.490612" y="90.982437" style="fill: #2ca02c; stroke: #2ca02c"/>
     </g>
    </g>
    <g id="text_19">
     <!-- Addition 3 -->
     <g transform="translate(292.490612 94.482437) scale(0.1 -0.1)">
      <use xlink:href="#DejaVuSans-41"/>
      <use xlink:href="#DejaVuSans-64" transform="translate(66.658203 0)"/>
      <use xlink:href="#DejaVuSans-64" transform="translate(130.134766 0)"/>
      <use xlink:href="#DejaVuSans-69" transform="translate(193.611328 0)"/>
      <use xlink:href="#DejaVuSans-74" transform="translate(221.394531 0)"/>
      <use xlink:href="#DejaVuSans-69" transform="translate(260.603516 0)"/>
      <use xlink:href="#DejaVuSans-6f" transform="translate(288.386719 0)"/>
      <use xlink:href="#DejaVuSans-6e" transform="translate(349.568359 0)"/>
      <use xlink:href="#DejaVuSans-20" transform="translate(412.947266 0)"/>
      <use xlink:href="#DejaVuSans-33" transform="translate(444.734375 0)"/>
     </g>
    </g>
    <g id="line2d_21">
     <path d="M 264.490612 105.660562 
L 274.490612 105.660562 
L 284.490612 105.660562 
" style="fill: none; stroke: #d62728; stroke-width: 0.7; stroke-linecap: square"/>
     <g>
      <use xlink:href="#m87cb88c42d" x="274.490612" y="105.660562" style="fill: #d62728; stroke: #d62728"/>
     </g>
    </g>
    <g id="text_20">
     <!-- Addition 4 -->
     <g transform="translate(292.490612 109.160562) scale(0.1 -0.1)">
      <use xlink:href="#DejaVuSans-41"/>
      <use xlink:href="#DejaVuSans-64" transform="translate(66.658203 0)"/>
      <use xlink:href="#DejaVuSans-64" transform="translate(130.134766 0)"/>
      <use xlink:href="#DejaVuSans-69" transform="translate(193.611328 0)"/>
      <use xlink:href="#DejaVuSans-74" transform="translate(221.394531 0)"/>
      <use xlink:href="#DejaVuSans-69" transform="translate(260.603516 0)"/>
      <use xlink:href="#DejaVuSans-6f" transform="translate(288.386719 0)"/>
      <use xlink:href="#DejaVuSans-6e" transform="translate(349.568359 0)"/>
      <use xlink:href="#DejaVuSans-20" transform="translate(412.947266 0)"/>
      <use xlink:href="#DejaVuSans-34" transform="translate(444.734375 0)"/>
     </g>
    </g>
   </g>
  </g>
 </g>
 <defs>
  <clipPath id="pc0771f3962">
   <rect x="40.603125" y="7.2" width="214.887487" height="154.368"/>
  </clipPath>
 </defs>
</svg>
