<?xml version="1.0" encoding="utf-8" standalone="no"?>
<!DOCTYPE svg PUBLIC "-//W3C//DTD SVG 1.1//EN"
  "http://www.w3.org/Graphics/SVG/1.1/DTD/svg11.dtd">
<svg xmlns:xlink="http://www.w3.org/1999/xlink" width="295.2816pt" height="229.028187pt" viewBox="0 0 295.2816 229.028187" xmlns="http://www.w3.org/2000/svg" version="1.1">
 <metadata>
  <rdf:RDF xmlns:dc="http://purl.org/dc/elements/1.1/" xmlns:cc="http://creativecommons.org/ns#" xmlns:rdf="http://www.w3.org/1999/02/22-rdf-syntax-ns#">
   <cc:Work>
    <dc:type rdf:resource="http://purl.org/dc/dcmitype/StillImage"/>
    <dc:date>2026-01-13T17:04:22.966820</dc:date>
    <dc:format>image/svg+xml</dc:format>
    <dc:creator>
     <cc:Agent>
      <dc:title>Matplotlib v3.10.0, https://matplotlib.org/</dc:title>
     </cc:Agent>
    </dc:creator>
   </cc:Work>
  </rdf:RDF>
 </metadata>
 <defs>
  <style type="text/css">*{stroke-linejoin: round; stroke-linecap: butt}</style>
 </defs>
 <g id="figure_1">
  <g id="patch_1">
   <path d="M 0 229.028187 
L 295.2816 229.028187 
L 295.2816 0 
L 0 0 
z
" style="fill: #ffffff"/>
  </g>
  <g id="axes_1">
   <g id="patch_2">
    <path d="M 43.78125 190.650062 
L 273.17125 190.650062 
L 273.17125 43.194062 
L 43.78125 43.194062 
z
" style="fill: #ffffff"/>
   </g>
   <g id="matplotlib.axis_1">
    <g id="xtick_1">
     <g id="line2d_1">
      <defs>
       <path id="md0b9048a2a" d="M 0 0 
L 0 3.5 
" style="stroke: #000000; stroke-width: 0.8"/>
      </defs>
      <g>
       <use xlink:href="#md0b9048a2a" x="43.78125" y="190.650062" style="stroke: #000000; stroke-width: 0.8"/>
      </g>
     </g>
     <g id="text_1">
      <!-- 0 -->
      <g transform="translate(40.6 205.2485) scale(0.1 -0.1)">
       <defs>
        <path id="DejaVuSans-30" d="M 2034 4250 
Q 1547 4250 1301 3770 
Q 1056 3291 1056 2328 
Q 1056 1369 1301 889 
Q 1547 409 2034 409 
Q 2525 409 2770 889 
Q 3016 1369 3016 2328 
Q 3016 3291 2770 3770 
Q 2525 4250 2034 4250 
z
M 2034 4750 
Q 2819 4750 3233 4129 
Q 3647 3509 3647 2328 
Q 3647 1150 3233 529 
Q 2819 -91 2034 -91 
Q 1250 -91 836 529 
Q 422 1150 422 2328 
Q 422 3509 836 4129 
Q 1250 4750 2034 4750 
z
" transform="scale(0.015625)"/>
       </defs>
       <use xlink:href="#DejaVuSans-30"/>
      </g>
     </g>
    </g>
    <g id="xtick_2">
     <g id="line2d_2">
      <g>
       <use xlink:href="#md0b9048a2a" x="87.759553" y="190.650062" style="stroke: #000000; stroke-width: 0.8"/>
      </g>
     </g>
     <g id="text_2">
      <!-- 1 -->
      <g transform="translate(84.578303 205.2485) scale(0.1 -0.1)">
       <defs>
        <path id="DejaVuSans-31" d="M 794 531 
L 1825 531 
L 1825 4091 
L 703 3866 
L 703 4441 
L 1819 4666 
L 2450 4666 
L 2450 531 
L 3481 531 
L 3481 0 
L 794 0 
L 794 531 
z
" transform="scale(0.015625)"/>
       </defs>
       <use xlink:href="#DejaVuSans-31"/>
      </g>
     </g>
    </g>
    <g id="xtick_3">
     <g id="line2d_3">
      <g>
       <use xlink:href="#md0b9048a2a" x="131.737856" y="190.650062" style="stroke: #000000; stroke-width: 0.8"/>
      </g>
     </g>
     <g id="text_3">
      <!-- 2 -->
      <g transform="translate(128.556606 205.2485) scale(0.1 -0.1)">
       <defs>
        <path id="DejaVuSans-32" d="M 1228 531 
L 3431 531 
L 3431 0 
L 469 0 
L 469 531 
Q 828 903 1448 1529 
Q 2069 2156 2228 2338 
Q 2531 2678 2651 2914 
Q 2772 3150 2772 3378 
Q 2772 3750 2511 3984 
Q 2250 4219 1831 4219 
Q 1534 4219 1204 4116 
Q 875 4013 500 3803 
L 500 4441 
Q 881 4594 1212 4672 
Q 1544 4750 1819 4750 
Q 2544 4750 2975 4387 
Q 3406 4025 3406 3419 
Q 3406 3131 3298 2873 
Q 3191 2616 2906 2266 
Q 2828 2175 2409 1742 
Q 1991 1309 1228 531 
z
" transform="scale(0.015625)"/>
       </defs>
       <use xlink:href="#DejaVuSans-32"/>
      </g>
     </g>
    </g>
    <g id="xtick_4">
     <g id="line2d_4">
      <g>
       <use xlink:href="#md0b9048a2a" x="175.716158" y="190.650062" style="stroke: #000000; stroke-width: 0.8"/>
      </g>
     </g>
     <g id="text_4">
      <!-- 3 -->
      <g transform="translate(172.534908 205.2485) scale(0.1 -0.1)">
       <defs>
        <path id="DejaVuSans-33" d="M 2597 2516 
Q 3050 2419 3304 2112 
Q 3559 1806 3559 1356 
Q 3559 666 3084 287 
Q 2609 -91 1734 -91 
Q 1441 -91 1130 -33 
Q 819 25 488 141 
L 488 750 
Q 750 597 1062 519 
Q 1375 441 1716 441 
Q 2309 441 2620 675 
Q 2931 909 2931 1356 
Q 2931 1769 2642 2001 
Q 2353 2234 1838 2234 
L 1294 2234 
L 1294 2753 
L 1863 2753 
Q 2328 2753 2575 2939 
Q 2822 3125 2822 3475 
Q 2822 3834 2567 4026 
Q 2313 4219 1838 4219 
Q 1578 4219 1281 4162 
Q 984 4106 628 3988 
L 628 4550 
Q 988 4650 1302 4700 
Q 1616 4750 1894 4750 
Q 2613 4750 3031 4423 
Q 3450 4097 3450 3541 
Q 3450 3153 3228 2886 
Q 3006 2619 2597 2516 
z
" transform="scale(0.015625)"/>
       </defs>
       <use xlink:href="#DejaVuSans-33"/>
      </g>
     </g>
    </g>
    <g id="xtick_5">
     <g id="line2d_5">
      <g>
       <use xlink:href="#md0b9048a2a" x="219.694461" y="190.650062" style="stroke: #000000; stroke-width: 0.8"/>
      </g>
     </g>
     <g id="text_5">
      <!-- 4 -->
      <g transform="translate(216.513211 205.2485) scale(0.1 -0.1)">
       <defs>
        <path id="DejaVuSans-34" d="M 2419 4116 
L 825 1625 
L 2419 1625 
L 2419 4116 
z
M 2253 4666 
L 3047 4666 
L 3047 1625 
L 3713 1625 
L 3713 1100 
L 3047 1100 
L 3047 0 
L 2419 0 
L 2419 1100 
L 313 1100 
L 313 1709 
L 2253 4666 
z
" transform="scale(0.015625)"/>
       </defs>
       <use xlink:href="#DejaVuSans-34"/>
      </g>
     </g>
    </g>
    <g id="xtick_6">
     <g id="line2d_6">
      <g>
       <use xlink:href="#md0b9048a2a" x="263.672764" y="190.650062" style="stroke: #000000; stroke-width: 0.8"/>
      </g>
     </g>
     <g id="text_6">
      <!-- 5 -->
      <g transform="translate(260.491514 205.2485) scale(0.1 -0.1)">
       <defs>
        <path id="DejaVuSans-35" d="M 691 4666 
L 3169 4666 
L 3169 4134 
L 1269 4134 
L 1269 2991 
Q 1406 3038 1543 3061 
Q 1681 3084 1819 3084 
Q 2600 3084 3056 2656 
Q 3513 2228 3513 1497 
Q 3513 744 3044 326 
Q 2575 -91 1722 -91 
Q 1428 -91 1123 -41 
Q 819 9 494 109 
L 494 744 
Q 775 591 1075 516 
Q 1375 441 1709 441 
Q 2250 441 2565 725 
Q 2881 1009 2881 1497 
Q 2881 1984 2565 2268 
Q 2250 2553 1709 2553 
Q 1456 2553 1204 2497 
Q 953 2441 691 2322 
L 691 4666 
z
" transform="scale(0.015625)"/>
       </defs>
       <use xlink:href="#DejaVuSans-35"/>
      </g>
     </g>
    </g>
    <g id="text_7">
     <!-- $Σ[Amine]^{1.03}[Phenol]^{0.05}[ArOPh]^{1.00}Δt$. -->
     <g transform="translate(64.27625 219.7485) scale(0.1 -0.1)">
      <defs>
       <path id="DejaVuSans-3a3" d="M 1353 531 
L 3634 531 
L 3634 0 
L 628 0 
L 628 531 
L 2125 2481 
L 628 4134 
L 628 4666 
L 3578 4666 
L 3578 4134 
L 1353 4134 
L 2850 2494 
L 1353 531 
z
" transform="scale(0.015625)"/>
       <path id="DejaVuSans-5b" d="M 550 4863 
L 1875 4863 
L 1875 4416 
L 1125 4416 
L 1125 -397 
L 1875 -397 
L 1875 -844 
L 550 -844 
L 550 4863 
z
" transform="scale(0.015625)"/>
       <path id="DejaVuSans-Oblique-41" d="M 2356 4666 
L 3072 4666 
L 3938 0 
L 3278 0 
L 3084 1197 
L 984 1197 
L 325 0 
L -341 0 
L 2356 4666 
z
M 2584 4044 
L 1275 1722 
L 2988 1722 
L 2584 4044 
z
" transform="scale(0.015625)"/>
       <path id="DejaVuSans-Oblique-6d" d="M 5747 2113 
L 5338 0 
L 4763 0 
L 5166 2094 
Q 5191 2228 5203 2325 
Q 5216 2422 5216 2491 
Q 5216 2772 5059 2928 
Q 4903 3084 4622 3084 
Q 4203 3084 3875 2770 
Q 3547 2456 3450 1953 
L 3066 0 
L 2491 0 
L 2900 2094 
Q 2925 2209 2937 2307 
Q 2950 2406 2950 2484 
Q 2950 2769 2794 2926 
Q 2638 3084 2363 3084 
Q 1938 3084 1609 2770 
Q 1281 2456 1184 1953 
L 800 0 
L 225 0 
L 909 3500 
L 1484 3500 
L 1375 2956 
Q 1609 3263 1923 3423 
Q 2238 3584 2597 3584 
Q 2978 3584 3223 3384 
Q 3469 3184 3519 2828 
Q 3781 3197 4126 3390 
Q 4472 3584 4856 3584 
Q 5306 3584 5551 3325 
Q 5797 3066 5797 2591 
Q 5797 2488 5784 2364 
Q 5772 2241 5747 2113 
z
" transform="scale(0.015625)"/>
       <path id="DejaVuSans-Oblique-69" d="M 1172 4863 
L 1747 4863 
L 1606 4134 
L 1031 4134 
L 1172 4863 
z
M 909 3500 
L 1484 3500 
L 800 0 
L 225 0 
L 909 3500 
z
" transform="scale(0.015625)"/>
       <path id="DejaVuSans-Oblique-6e" d="M 3566 2113 
L 3156 0 
L 2578 0 
L 2988 2091 
Q 3016 2238 3031 2350 
Q 3047 2463 3047 2528 
Q 3047 2791 2881 2937 
Q 2716 3084 2419 3084 
Q 1956 3084 1622 2776 
Q 1288 2469 1184 1941 
L 800 0 
L 225 0 
L 903 3500 
L 1478 3500 
L 1363 2950 
Q 1603 3253 1940 3418 
Q 2278 3584 2650 3584 
Q 3113 3584 3367 3334 
Q 3622 3084 3622 2631 
Q 3622 2519 3608 2391 
Q 3594 2263 3566 2113 
z
" transform="scale(0.015625)"/>
       <path id="DejaVuSans-Oblique-65" d="M 3078 2063 
Q 3088 2113 3092 2166 
Q 3097 2219 3097 2272 
Q 3097 2653 2873 2875 
Q 2650 3097 2266 3097 
Q 1838 3097 1509 2826 
Q 1181 2556 1013 2059 
L 3078 2063 
z
M 3578 1613 
L 903 1613 
Q 884 1494 878 1425 
Q 872 1356 872 1306 
Q 872 872 1139 634 
Q 1406 397 1894 397 
Q 2269 397 2603 481 
Q 2938 566 3225 728 
L 3116 159 
Q 2806 34 2476 -28 
Q 2147 -91 1806 -91 
Q 1078 -91 686 257 
Q 294 606 294 1247 
Q 294 1794 489 2264 
Q 684 2734 1063 3103 
Q 1306 3334 1642 3459 
Q 1978 3584 2356 3584 
Q 2950 3584 3301 3228 
Q 3653 2872 3653 2272 
Q 3653 2128 3634 1964 
Q 3616 1800 3578 1613 
z
" transform="scale(0.015625)"/>
       <path id="DejaVuSans-5d" d="M 1947 4863 
L 1947 -844 
L 622 -844 
L 622 -397 
L 1369 -397 
L 1369 4416 
L 622 4416 
L 622 4863 
L 1947 4863 
z
" transform="scale(0.015625)"/>
       <path id="DejaVuSans-2e" d="M 684 794 
L 1344 794 
L 1344 0 
L 684 0 
L 684 794 
z
" transform="scale(0.015625)"/>
       <path id="DejaVuSans-Oblique-50" d="M 1081 4666 
L 2541 4666 
Q 3178 4666 3512 4369 
Q 3847 4072 3847 3500 
Q 3847 2731 3353 2303 
Q 2859 1875 1966 1875 
L 1172 1875 
L 806 0 
L 172 0 
L 1081 4666 
z
M 1613 4147 
L 1275 2394 
L 2069 2394 
Q 2606 2394 2893 2669 
Q 3181 2944 3181 3456 
Q 3181 3784 2986 3965 
Q 2791 4147 2438 4147 
L 1613 4147 
z
" transform="scale(0.015625)"/>
       <path id="DejaVuSans-Oblique-68" d="M 3566 2113 
L 3156 0 
L 2578 0 
L 2988 2091 
Q 3016 2238 3031 2350 
Q 3047 2463 3047 2528 
Q 3047 2791 2881 2937 
Q 2716 3084 2419 3084 
Q 1956 3084 1617 2771 
Q 1278 2459 1178 1941 
L 800 0 
L 225 0 
L 1172 4863 
L 1747 4863 
L 1375 2950 
Q 1594 3244 1934 3414 
Q 2275 3584 2650 3584 
Q 3113 3584 3367 3334 
Q 3622 3084 3622 2631 
Q 3622 2519 3608 2391 
Q 3594 2263 3566 2113 
z
" transform="scale(0.015625)"/>
       <path id="DejaVuSans-Oblique-6f" d="M 1625 -91 
Q 1009 -91 651 289 
Q 294 669 294 1325 
Q 294 1706 417 2101 
Q 541 2497 738 2766 
Q 1047 3184 1428 3384 
Q 1809 3584 2291 3584 
Q 2888 3584 3255 3212 
Q 3622 2841 3622 2241 
Q 3622 1825 3500 1412 
Q 3378 1000 3181 728 
Q 2875 309 2494 109 
Q 2113 -91 1625 -91 
z
M 891 1344 
Q 891 869 1089 633 
Q 1288 397 1691 397 
Q 2269 397 2648 901 
Q 3028 1406 3028 2181 
Q 3028 2634 2825 2865 
Q 2622 3097 2228 3097 
Q 1903 3097 1650 2945 
Q 1397 2794 1197 2484 
Q 1050 2253 970 1956 
Q 891 1659 891 1344 
z
" transform="scale(0.015625)"/>
       <path id="DejaVuSans-Oblique-6c" d="M 1172 4863 
L 1747 4863 
L 800 0 
L 225 0 
L 1172 4863 
z
" transform="scale(0.015625)"/>
       <path id="DejaVuSans-Oblique-72" d="M 2853 2969 
Q 2766 3016 2653 3041 
Q 2541 3066 2413 3066 
Q 1953 3066 1609 2717 
Q 1266 2369 1153 1784 
L 800 0 
L 225 0 
L 909 3500 
L 1484 3500 
L 1375 2956 
Q 1603 3259 1920 3421 
Q 2238 3584 2597 3584 
Q 2691 3584 2781 3573 
Q 2872 3563 2963 3538 
L 2853 2969 
z
" transform="scale(0.015625)"/>
       <path id="DejaVuSans-Oblique-4f" d="M 2919 4238 
Q 2400 4238 2003 3986 
Q 1606 3734 1313 3219 
Q 1125 2891 1026 2522 
Q 928 2153 928 1778 
Q 928 1128 1239 775 
Q 1550 422 2119 422 
Q 2631 422 3032 676 
Q 3434 931 3719 1434 
Q 3909 1772 4009 2142 
Q 4109 2513 4109 2881 
Q 4109 3528 3796 3883 
Q 3484 4238 2919 4238 
z
M 2100 -91 
Q 1241 -91 748 418 
Q 256 928 256 1813 
Q 256 2319 448 2847 
Q 641 3375 978 3788 
Q 1375 4272 1862 4511 
Q 2350 4750 2938 4750 
Q 3794 4750 4287 4245 
Q 4781 3741 4781 2869 
Q 4781 2331 4593 1812 
Q 4406 1294 4056 872 
Q 3656 384 3173 146 
Q 2691 -91 2100 -91 
z
" transform="scale(0.015625)"/>
       <path id="DejaVuSans-394" d="M 2188 4044 
L 906 525 
L 3472 525 
L 2188 4044 
z
M 50 0 
L 1831 4666 
L 2547 4666 
L 4325 0 
L 50 0 
z
" transform="scale(0.015625)"/>
       <path id="DejaVuSans-Oblique-74" d="M 2706 3500 
L 2619 3053 
L 1472 3053 
L 1100 1153 
Q 1081 1047 1072 975 
Q 1063 903 1063 863 
Q 1063 663 1183 572 
Q 1303 481 1569 481 
L 2150 481 
L 2053 0 
L 1503 0 
Q 991 0 739 200 
Q 488 400 488 806 
Q 488 878 497 964 
Q 506 1050 525 1153 
L 897 3053 
L 409 3053 
L 500 3500 
L 978 3500 
L 1172 4494 
L 1747 4494 
L 1556 3500 
L 2706 3500 
z
" transform="scale(0.015625)"/>
      </defs>
      <use xlink:href="#DejaVuSans-3a3" transform="translate(0 0.765625)"/>
      <use xlink:href="#DejaVuSans-5b" transform="translate(63.183594 0.765625)"/>
      <use xlink:href="#DejaVuSans-Oblique-41" transform="translate(102.197266 0.765625)"/>
      <use xlink:href="#DejaVuSans-Oblique-6d" transform="translate(170.605469 0.765625)"/>
      <use xlink:href="#DejaVuSans-Oblique-69" transform="translate(268.017578 0.765625)"/>
      <use xlink:href="#DejaVuSans-Oblique-6e" transform="translate(295.800781 0.765625)"/>
      <use xlink:href="#DejaVuSans-Oblique-65" transform="translate(359.179688 0.765625)"/>
      <use xlink:href="#DejaVuSans-5d" transform="translate(420.703125 0.765625)"/>
      <use xlink:href="#DejaVuSans-31" transform="translate(460.673828 39.046875) scale(0.7)"/>
      <use xlink:href="#DejaVuSans-2e" transform="translate(505.209961 39.046875) scale(0.7)"/>
      <use xlink:href="#DejaVuSans-30" transform="translate(527.460938 39.046875) scale(0.7)"/>
      <use xlink:href="#DejaVuSans-33" transform="translate(571.99707 39.046875) scale(0.7)"/>
      <use xlink:href="#DejaVuSans-5b" transform="translate(619.267578 0.765625)"/>
      <use xlink:href="#DejaVuSans-Oblique-50" transform="translate(658.28125 0.765625)"/>
      <use xlink:href="#DejaVuSans-Oblique-68" transform="translate(718.583984 0.765625)"/>
      <use xlink:href="#DejaVuSans-Oblique-65" transform="translate(781.962891 0.765625)"/>
      <use xlink:href="#DejaVuSans-Oblique-6e" transform="translate(843.486328 0.765625)"/>
      <use xlink:href="#DejaVuSans-Oblique-6f" transform="translate(906.865234 0.765625)"/>
      <use xlink:href="#DejaVuSans-Oblique-6c" transform="translate(968.046875 0.765625)"/>
      <use xlink:href="#DejaVuSans-5d" transform="translate(995.830078 0.765625)"/>
      <use xlink:href="#DejaVuSans-30" transform="translate(1035.800781 39.046875) scale(0.7)"/>
      <use xlink:href="#DejaVuSans-2e" transform="translate(1080.336914 39.046875) scale(0.7)"/>
      <use xlink:href="#DejaVuSans-30" transform="translate(1102.587891 39.046875) scale(0.7)"/>
      <use xlink:href="#DejaVuSans-35" transform="translate(1147.124023 39.046875) scale(0.7)"/>
      <use xlink:href="#DejaVuSans-5b" transform="translate(1194.394531 0.765625)"/>
      <use xlink:href="#DejaVuSans-Oblique-41" transform="translate(1233.408203 0.765625)"/>
      <use xlink:href="#DejaVuSans-Oblique-72" transform="translate(1301.816406 0.765625)"/>
      <use xlink:href="#DejaVuSans-Oblique-4f" transform="translate(1342.929688 0.765625)"/>
      <use xlink:href="#DejaVuSans-Oblique-50" transform="translate(1421.640625 0.765625)"/>
      <use xlink:href="#DejaVuSans-Oblique-68" transform="translate(1481.943359 0.765625)"/>
      <use xlink:href="#DejaVuSans-5d" transform="translate(1545.322266 0.765625)"/>
      <use xlink:href="#DejaVuSans-31" transform="translate(1585.292969 39.046875) scale(0.7)"/>
      <use xlink:href="#DejaVuSans-2e" transform="translate(1629.829102 39.046875) scale(0.7)"/>
      <use xlink:href="#DejaVuSans-30" transform="translate(1652.080078 39.046875) scale(0.7)"/>
      <use xlink:href="#DejaVuSans-30" transform="translate(1696.616211 39.046875) scale(0.7)"/>
      <use xlink:href="#DejaVuSans-394" transform="translate(1743.886719 0.765625)"/>
      <use xlink:href="#DejaVuSans-Oblique-74" transform="translate(1812.294922 0.765625)"/>
      <use xlink:href="#DejaVuSans-2e" transform="translate(1851.503906 0.765625)"/>
     </g>
    </g>
    <g id="text_8">
     <!-- 1e4 -->
     <g transform="translate(269.203475 217.926625) scale(0.1 -0.1)">
      <defs>
       <path id="DejaVuSans-65" d="M 3597 1894 
L 3597 1613 
L 953 1613 
Q 991 1019 1311 708 
Q 1631 397 2203 397 
Q 2534 397 2845 478 
Q 3156 559 3463 722 
L 3463 178 
Q 3153 47 2828 -22 
Q 2503 -91 2169 -91 
Q 1331 -91 842 396 
Q 353 884 353 1716 
Q 353 2575 817 3079 
Q 1281 3584 2069 3584 
Q 2775 3584 3186 3129 
Q 3597 2675 3597 1894 
z
M 3022 2063 
Q 3016 2534 2758 2815 
Q 2500 3097 2075 3097 
Q 1594 3097 1305 2825 
Q 1016 2553 972 2059 
L 3022 2063 
z
" transform="scale(0.015625)"/>
      </defs>
      <use xlink:href="#DejaVuSans-31"/>
      <use xlink:href="#DejaVuSans-65" transform="translate(63.623047 0)"/>
      <use xlink:href="#DejaVuSans-34" transform="translate(125.146484 0)"/>
     </g>
    </g>
   </g>
   <g id="matplotlib.axis_2">
    <g id="ytick_1">
     <g id="line2d_7">
      <defs>
       <path id="mf9ae305ae8" d="M 0 0 
L -3.5 0 
" style="stroke: #000000; stroke-width: 0.8"/>
      </defs>
      <g>
       <use xlink:href="#mf9ae305ae8" x="43.78125" y="171.676941" style="stroke: #000000; stroke-width: 0.8"/>
      </g>
     </g>
     <g id="text_9">
      <!-- 0.8 -->
      <g transform="translate(20.878125 175.47616) scale(0.1 -0.1)">
       <defs>
        <path id="DejaVuSans-38" d="M 2034 2216 
Q 1584 2216 1326 1975 
Q 1069 1734 1069 1313 
Q 1069 891 1326 650 
Q 1584 409 2034 409 
Q 2484 409 2743 651 
Q 3003 894 3003 1313 
Q 3003 1734 2745 1975 
Q 2488 2216 2034 2216 
z
M 1403 2484 
Q 997 2584 770 2862 
Q 544 3141 544 3541 
Q 544 4100 942 4425 
Q 1341 4750 2034 4750 
Q 2731 4750 3128 4425 
Q 3525 4100 3525 3541 
Q 3525 3141 3298 2862 
Q 3072 2584 2669 2484 
Q 3125 2378 3379 2068 
Q 3634 1759 3634 1313 
Q 3634 634 3220 271 
Q 2806 -91 2034 -91 
Q 1263 -91 848 271 
Q 434 634 434 1313 
Q 434 1759 690 2068 
Q 947 2378 1403 2484 
z
M 1172 3481 
Q 1172 3119 1398 2916 
Q 1625 2713 2034 2713 
Q 2441 2713 2670 2916 
Q 2900 3119 2900 3481 
Q 2900 3844 2670 4047 
Q 2441 4250 2034 4250 
Q 1625 4250 1398 4047 
Q 1172 3844 1172 3481 
z
" transform="scale(0.015625)"/>
       </defs>
       <use xlink:href="#DejaVuSans-30"/>
       <use xlink:href="#DejaVuSans-2e" transform="translate(63.623047 0)"/>
       <use xlink:href="#DejaVuSans-38" transform="translate(95.410156 0)"/>
      </g>
     </g>
    </g>
    <g id="ytick_2">
     <g id="line2d_8">
      <g>
       <use xlink:href="#mf9ae305ae8" x="43.78125" y="139.849669" style="stroke: #000000; stroke-width: 0.8"/>
      </g>
     </g>
     <g id="text_10">
      <!-- 0.9 -->
      <g transform="translate(20.878125 143.648888) scale(0.1 -0.1)">
       <defs>
        <path id="DejaVuSans-39" d="M 703 97 
L 703 672 
Q 941 559 1184 500 
Q 1428 441 1663 441 
Q 2288 441 2617 861 
Q 2947 1281 2994 2138 
Q 2813 1869 2534 1725 
Q 2256 1581 1919 1581 
Q 1219 1581 811 2004 
Q 403 2428 403 3163 
Q 403 3881 828 4315 
Q 1253 4750 1959 4750 
Q 2769 4750 3195 4129 
Q 3622 3509 3622 2328 
Q 3622 1225 3098 567 
Q 2575 -91 1691 -91 
Q 1453 -91 1209 -44 
Q 966 3 703 97 
z
M 1959 2075 
Q 2384 2075 2632 2365 
Q 2881 2656 2881 3163 
Q 2881 3666 2632 3958 
Q 2384 4250 1959 4250 
Q 1534 4250 1286 3958 
Q 1038 3666 1038 3163 
Q 1038 2656 1286 2365 
Q 1534 2075 1959 2075 
z
" transform="scale(0.015625)"/>
       </defs>
       <use xlink:href="#DejaVuSans-30"/>
       <use xlink:href="#DejaVuSans-2e" transform="translate(63.623047 0)"/>
       <use xlink:href="#DejaVuSans-39" transform="translate(95.410156 0)"/>
      </g>
     </g>
    </g>
    <g id="ytick_3">
     <g id="line2d_9">
      <g>
       <use xlink:href="#mf9ae305ae8" x="43.78125" y="108.022397" style="stroke: #000000; stroke-width: 0.8"/>
      </g>
     </g>
     <g id="text_11">
      <!-- 1.0 -->
      <g transform="translate(20.878125 111.821616) scale(0.1 -0.1)">
       <use xlink:href="#DejaVuSans-31"/>
       <use xlink:href="#DejaVuSans-2e" transform="translate(63.623047 0)"/>
       <use xlink:href="#DejaVuSans-30" transform="translate(95.410156 0)"/>
      </g>
     </g>
    </g>
    <g id="ytick_4">
     <g id="line2d_10">
      <g>
       <use xlink:href="#mf9ae305ae8" x="43.78125" y="76.195125" style="stroke: #000000; stroke-width: 0.8"/>
      </g>
     </g>
     <g id="text_12">
      <!-- 1.1 -->
      <g transform="translate(20.878125 79.994344) scale(0.1 -0.1)">
       <use xlink:href="#DejaVuSans-31"/>
       <use xlink:href="#DejaVuSans-2e" transform="translate(63.623047 0)"/>
       <use xlink:href="#DejaVuSans-31" transform="translate(95.410156 0)"/>
      </g>
     </g>
    </g>
    <g id="ytick_5">
     <g id="line2d_11">
      <g>
       <use xlink:href="#mf9ae305ae8" x="43.78125" y="44.367854" style="stroke: #000000; stroke-width: 0.8"/>
      </g>
     </g>
     <g id="text_13">
      <!-- 1.2 -->
      <g transform="translate(20.878125 48.167072) scale(0.1 -0.1)">
       <use xlink:href="#DejaVuSans-31"/>
       <use xlink:href="#DejaVuSans-2e" transform="translate(63.623047 0)"/>
       <use xlink:href="#DejaVuSans-32" transform="translate(95.410156 0)"/>
      </g>
     </g>
    </g>
    <g id="text_14">
     <!-- Shifted Scaled [Product] -->
     <g transform="translate(14.798438 177.22675) rotate(-90) scale(0.1 -0.1)">
      <defs>
       <path id="DejaVuSans-53" d="M 3425 4513 
L 3425 3897 
Q 3066 4069 2747 4153 
Q 2428 4238 2131 4238 
Q 1616 4238 1336 4038 
Q 1056 3838 1056 3469 
Q 1056 3159 1242 3001 
Q 1428 2844 1947 2747 
L 2328 2669 
Q 3034 2534 3370 2195 
Q 3706 1856 3706 1288 
Q 3706 609 3251 259 
Q 2797 -91 1919 -91 
Q 1588 -91 1214 -16 
Q 841 59 441 206 
L 441 856 
Q 825 641 1194 531 
Q 1563 422 1919 422 
Q 2459 422 2753 634 
Q 3047 847 3047 1241 
Q 3047 1584 2836 1778 
Q 2625 1972 2144 2069 
L 1759 2144 
Q 1053 2284 737 2584 
Q 422 2884 422 3419 
Q 422 4038 858 4394 
Q 1294 4750 2059 4750 
Q 2388 4750 2728 4690 
Q 3069 4631 3425 4513 
z
" transform="scale(0.015625)"/>
       <path id="DejaVuSans-68" d="M 3513 2113 
L 3513 0 
L 2938 0 
L 2938 2094 
Q 2938 2591 2744 2837 
Q 2550 3084 2163 3084 
Q 1697 3084 1428 2787 
Q 1159 2491 1159 1978 
L 1159 0 
L 581 0 
L 581 4863 
L 1159 4863 
L 1159 2956 
Q 1366 3272 1645 3428 
Q 1925 3584 2291 3584 
Q 2894 3584 3203 3211 
Q 3513 2838 3513 2113 
z
" transform="scale(0.015625)"/>
       <path id="DejaVuSans-69" d="M 603 3500 
L 1178 3500 
L 1178 0 
L 603 0 
L 603 3500 
z
M 603 4863 
L 1178 4863 
L 1178 4134 
L 603 4134 
L 603 4863 
z
" transform="scale(0.015625)"/>
       <path id="DejaVuSans-66" d="M 2375 4863 
L 2375 4384 
L 1825 4384 
Q 1516 4384 1395 4259 
Q 1275 4134 1275 3809 
L 1275 3500 
L 2222 3500 
L 2222 3053 
L 1275 3053 
L 1275 0 
L 697 0 
L 697 3053 
L 147 3053 
L 147 3500 
L 697 3500 
L 697 3744 
Q 697 4328 969 4595 
Q 1241 4863 1831 4863 
L 2375 4863 
z
" transform="scale(0.015625)"/>
       <path id="DejaVuSans-74" d="M 1172 4494 
L 1172 3500 
L 2356 3500 
L 2356 3053 
L 1172 3053 
L 1172 1153 
Q 1172 725 1289 603 
Q 1406 481 1766 481 
L 2356 481 
L 2356 0 
L 1766 0 
Q 1100 0 847 248 
Q 594 497 594 1153 
L 594 3053 
L 172 3053 
L 172 3500 
L 594 3500 
L 594 4494 
L 1172 4494 
z
" transform="scale(0.015625)"/>
       <path id="DejaVuSans-64" d="M 2906 2969 
L 2906 4863 
L 3481 4863 
L 3481 0 
L 2906 0 
L 2906 525 
Q 2725 213 2448 61 
Q 2172 -91 1784 -91 
Q 1150 -91 751 415 
Q 353 922 353 1747 
Q 353 2572 751 3078 
Q 1150 3584 1784 3584 
Q 2172 3584 2448 3432 
Q 2725 3281 2906 2969 
z
M 947 1747 
Q 947 1113 1208 752 
Q 1469 391 1925 391 
Q 2381 391 2643 752 
Q 2906 1113 2906 1747 
Q 2906 2381 2643 2742 
Q 2381 3103 1925 3103 
Q 1469 3103 1208 2742 
Q 947 2381 947 1747 
z
" transform="scale(0.015625)"/>
       <path id="DejaVuSans-20" transform="scale(0.015625)"/>
       <path id="DejaVuSans-63" d="M 3122 3366 
L 3122 2828 
Q 2878 2963 2633 3030 
Q 2388 3097 2138 3097 
Q 1578 3097 1268 2742 
Q 959 2388 959 1747 
Q 959 1106 1268 751 
Q 1578 397 2138 397 
Q 2388 397 2633 464 
Q 2878 531 3122 666 
L 3122 134 
Q 2881 22 2623 -34 
Q 2366 -91 2075 -91 
Q 1284 -91 818 406 
Q 353 903 353 1747 
Q 353 2603 823 3093 
Q 1294 3584 2113 3584 
Q 2378 3584 2631 3529 
Q 2884 3475 3122 3366 
z
" transform="scale(0.015625)"/>
       <path id="DejaVuSans-61" d="M 2194 1759 
Q 1497 1759 1228 1600 
Q 959 1441 959 1056 
Q 959 750 1161 570 
Q 1363 391 1709 391 
Q 2188 391 2477 730 
Q 2766 1069 2766 1631 
L 2766 1759 
L 2194 1759 
z
M 3341 1997 
L 3341 0 
L 2766 0 
L 2766 531 
Q 2569 213 2275 61 
Q 1981 -91 1556 -91 
Q 1019 -91 701 211 
Q 384 513 384 1019 
Q 384 1609 779 1909 
Q 1175 2209 1959 2209 
L 2766 2209 
L 2766 2266 
Q 2766 2663 2505 2880 
Q 2244 3097 1772 3097 
Q 1472 3097 1187 3025 
Q 903 2953 641 2809 
L 641 3341 
Q 956 3463 1253 3523 
Q 1550 3584 1831 3584 
Q 2591 3584 2966 3190 
Q 3341 2797 3341 1997 
z
" transform="scale(0.015625)"/>
       <path id="DejaVuSans-6c" d="M 603 4863 
L 1178 4863 
L 1178 0 
L 603 0 
L 603 4863 
z
" transform="scale(0.015625)"/>
       <path id="DejaVuSans-50" d="M 1259 4147 
L 1259 2394 
L 2053 2394 
Q 2494 2394 2734 2622 
Q 2975 2850 2975 3272 
Q 2975 3691 2734 3919 
Q 2494 4147 2053 4147 
L 1259 4147 
z
M 628 4666 
L 2053 4666 
Q 2838 4666 3239 4311 
Q 3641 3956 3641 3272 
Q 3641 2581 3239 2228 
Q 2838 1875 2053 1875 
L 1259 1875 
L 1259 0 
L 628 0 
L 628 4666 
z
" transform="scale(0.015625)"/>
       <path id="DejaVuSans-72" d="M 2631 2963 
Q 2534 3019 2420 3045 
Q 2306 3072 2169 3072 
Q 1681 3072 1420 2755 
Q 1159 2438 1159 1844 
L 1159 0 
L 581 0 
L 581 3500 
L 1159 3500 
L 1159 2956 
Q 1341 3275 1631 3429 
Q 1922 3584 2338 3584 
Q 2397 3584 2469 3576 
Q 2541 3569 2628 3553 
L 2631 2963 
z
" transform="scale(0.015625)"/>
       <path id="DejaVuSans-6f" d="M 1959 3097 
Q 1497 3097 1228 2736 
Q 959 2375 959 1747 
Q 959 1119 1226 758 
Q 1494 397 1959 397 
Q 2419 397 2687 759 
Q 2956 1122 2956 1747 
Q 2956 2369 2687 2733 
Q 2419 3097 1959 3097 
z
M 1959 3584 
Q 2709 3584 3137 3096 
Q 3566 2609 3566 1747 
Q 3566 888 3137 398 
Q 2709 -91 1959 -91 
Q 1206 -91 779 398 
Q 353 888 353 1747 
Q 353 2609 779 3096 
Q 1206 3584 1959 3584 
z
" transform="scale(0.015625)"/>
       <path id="DejaVuSans-75" d="M 544 1381 
L 544 3500 
L 1119 3500 
L 1119 1403 
Q 1119 906 1312 657 
Q 1506 409 1894 409 
Q 2359 409 2629 706 
Q 2900 1003 2900 1516 
L 2900 3500 
L 3475 3500 
L 3475 0 
L 2900 0 
L 2900 538 
Q 2691 219 2414 64 
Q 2138 -91 1772 -91 
Q 1169 -91 856 284 
Q 544 659 544 1381 
z
M 1991 3584 
L 1991 3584 
z
" transform="scale(0.015625)"/>
      </defs>
      <use xlink:href="#DejaVuSans-53"/>
      <use xlink:href="#DejaVuSans-68" transform="translate(63.476562 0)"/>
      <use xlink:href="#DejaVuSans-69" transform="translate(126.855469 0)"/>
      <use xlink:href="#DejaVuSans-66" transform="translate(154.638672 0)"/>
      <use xlink:href="#DejaVuSans-74" transform="translate(188.09375 0)"/>
      <use xlink:href="#DejaVuSans-65" transform="translate(227.302734 0)"/>
      <use xlink:href="#DejaVuSans-64" transform="translate(288.826172 0)"/>
      <use xlink:href="#DejaVuSans-20" transform="translate(352.302734 0)"/>
      <use xlink:href="#DejaVuSans-53" transform="translate(384.089844 0)"/>
      <use xlink:href="#DejaVuSans-63" transform="translate(447.566406 0)"/>
      <use xlink:href="#DejaVuSans-61" transform="translate(502.546875 0)"/>
      <use xlink:href="#DejaVuSans-6c" transform="translate(563.826172 0)"/>
      <use xlink:href="#DejaVuSans-65" transform="translate(591.609375 0)"/>
      <use xlink:href="#DejaVuSans-64" transform="translate(653.132812 0)"/>
      <use xlink:href="#DejaVuSans-20" transform="translate(716.609375 0)"/>
      <use xlink:href="#DejaVuSans-5b" transform="translate(748.396484 0)"/>
      <use xlink:href="#DejaVuSans-50" transform="translate(787.410156 0)"/>
      <use xlink:href="#DejaVuSans-72" transform="translate(845.962891 0)"/>
      <use xlink:href="#DejaVuSans-6f" transform="translate(884.826172 0)"/>
      <use xlink:href="#DejaVuSans-64" transform="translate(946.007812 0)"/>
      <use xlink:href="#DejaVuSans-75" transform="translate(1009.484375 0)"/>
      <use xlink:href="#DejaVuSans-63" transform="translate(1072.863281 0)"/>
      <use xlink:href="#DejaVuSans-74" transform="translate(1127.84375 0)"/>
      <use xlink:href="#DejaVuSans-5d" transform="translate(1167.052734 0)"/>
     </g>
    </g>
   </g>
   <g id="line2d_12">
    <path d="M 43.7813 183.947517 
L 49.100387 178.217559 
L 54.435957 173.014686 
L 59.434853 168.440769 
L 64.190217 164.169587 
L 68.874941 160.450274 
L 73.229014 156.37712 
L 77.341679 152.843029 
L 81.416285 150.009758 
L 85.208779 147.348573 
L 88.842892 144.232156 
L 92.395722 140.472724 
L 95.669915 138.43517 
L 98.826348 136.136419 
L 101.898652 134.683547 
L 104.912117 131.725929 
L 107.720692 130.117348 
L 110.432405 127.82605 
L 113.119162 126.058604 
L 115.65498 125.023337 
L 118.114545 123.344232 
L 120.580463 122.264468 
L 122.927346 121.310584 
L 125.205299 120.141274 
L 127.391547 117.3706 
L 129.579418 117.486576 
L 131.661009 115.55946 
L 133.65557 114.303804 
L 135.673543 113.669679 
L 137.570543 112.090382 
L 139.404504 111.453029 
L 141.246178 110.003729 
L 142.986785 109.73468 
L 144.68386 108.534602 
L 146.396751 108.093052 
L 148.038102 107.080531 
L 149.627493 106.817708 
L 151.185944 105.313631 
L 152.757443 105.410729 
L 154.256996 104.50557 
L 155.722429 103.750473 
L 157.214212 103.979321 
L 158.65438 103.143609 
L 160.053401 102.578088 
L 161.475847 102.212123 
L 162.842032 101.69853 
L 164.160645 100.580775 
L 165.474331 99.848984 
L 166.720839 99.174832 
L 167.948907 98.756557 
L 169.196602 98.902272 
L 170.397196 98.376574 
L 171.593648 98.550597 
L 172.773417 97.475034 
L 173.942364 96.834365 
L 175.060647 96.715615 
L 176.155969 95.649238 
L 177.27772 96.323028 
L 178.386234 96.849244 
L 179.504071 96.660752 
L 180.607913 94.842826 
L 181.666086 96.012172 
L 182.724721 94.971389 
L 183.75521 94.683955 
L 184.785233 93.577856 
L 185.788008 94.822742 
L 186.790123 93.717785 
L 187.803265 93.821278 
L 188.771654 92.998011 
L 189.713897 92.82767 
L 190.699882 93.490275 
L 191.643395 92.300311 
L 192.571931 92.850058 
L 193.477346 91.43676 
L 194.394188 91.953354 
L 195.289473 91.689526 
L 196.176313 91.689256 
L 197.091313 91.627691 
L 197.98645 92.084052 
L 198.881866 91.509871 
L 199.781636 91.242014 
L 200.64358 90.770644 
L 201.487719 90.787545 
L 202.360093 90.870454 
L 203.189055 89.69334 
L 203.980029 89.453903 
L 204.757295 88.89367 
L 205.557711 89.704905 
L 206.352491 89.564604 
L 207.155757 89.972697 
L 207.982864 89.720517 
L 208.76152 88.795466 
L 209.529038 89.043066 
L 210.315073 88.788844 
L 211.061748 88.208401 
L 211.801902 88.395978 
L 212.537823 88.097375 
L 213.275173 87.678391 
" clip-path="url(#p19b2f8b61a)" style="fill: none; stroke: #1f77b4; stroke-width: 0.7; stroke-linecap: square"/>
    <defs>
     <path id="mc5e6b94cb9" d="M 0 0.9 
C 0.238683 0.9 0.467622 0.80517 0.636396 0.636396 
C 0.80517 0.467622 0.9 0.238683 0.9 0 
C 0.9 -0.238683 0.80517 -0.467622 0.636396 -0.636396 
C 0.467622 -0.80517 0.238683 -0.9 0 -0.9 
C -0.238683 -0.9 -0.467622 -0.80517 -0.636396 -0.636396 
C -0.80517 -0.467622 -0.9 -0.238683 -0.9 0 
C -0.9 0.238683 -0.80517 0.467622 -0.636396 0.636396 
C -0.467622 0.80517 -0.238683 0.9 0 0.9 
z
" style="stroke: #1f77b4"/>
    </defs>
    <g clip-path="url(#p19b2f8b61a)">
     <use xlink:href="#mc5e6b94cb9" x="43.7813" y="183.947517" style="fill: #1f77b4; stroke: #1f77b4"/>
     <use xlink:href="#mc5e6b94cb9" x="49.100387" y="178.217559" style="fill: #1f77b4; stroke: #1f77b4"/>
     <use xlink:href="#mc5e6b94cb9" x="54.435957" y="173.014686" style="fill: #1f77b4; stroke: #1f77b4"/>
     <use xlink:href="#mc5e6b94cb9" x="59.434853" y="168.440769" style="fill: #1f77b4; stroke: #1f77b4"/>
     <use xlink:href="#mc5e6b94cb9" x="64.190217" y="164.169587" style="fill: #1f77b4; stroke: #1f77b4"/>
     <use xlink:href="#mc5e6b94cb9" x="68.874941" y="160.450274" style="fill: #1f77b4; stroke: #1f77b4"/>
     <use xlink:href="#mc5e6b94cb9" x="73.229014" y="156.37712" style="fill: #1f77b4; stroke: #1f77b4"/>
     <use xlink:href="#mc5e6b94cb9" x="77.341679" y="152.843029" style="fill: #1f77b4; stroke: #1f77b4"/>
     <use xlink:href="#mc5e6b94cb9" x="81.416285" y="150.009758" style="fill: #1f77b4; stroke: #1f77b4"/>
     <use xlink:href="#mc5e6b94cb9" x="85.208779" y="147.348573" style="fill: #1f77b4; stroke: #1f77b4"/>
     <use xlink:href="#mc5e6b94cb9" x="88.842892" y="144.232156" style="fill: #1f77b4; stroke: #1f77b4"/>
     <use xlink:href="#mc5e6b94cb9" x="92.395722" y="140.472724" style="fill: #1f77b4; stroke: #1f77b4"/>
     <use xlink:href="#mc5e6b94cb9" x="95.669915" y="138.43517" style="fill: #1f77b4; stroke: #1f77b4"/>
     <use xlink:href="#mc5e6b94cb9" x="98.826348" y="136.136419" style="fill: #1f77b4; stroke: #1f77b4"/>
     <use xlink:href="#mc5e6b94cb9" x="101.898652" y="134.683547" style="fill: #1f77b4; stroke: #1f77b4"/>
     <use xlink:href="#mc5e6b94cb9" x="104.912117" y="131.725929" style="fill: #1f77b4; stroke: #1f77b4"/>
     <use xlink:href="#mc5e6b94cb9" x="107.720692" y="130.117348" style="fill: #1f77b4; stroke: #1f77b4"/>
     <use xlink:href="#mc5e6b94cb9" x="110.432405" y="127.82605" style="fill: #1f77b4; stroke: #1f77b4"/>
     <use xlink:href="#mc5e6b94cb9" x="113.119162" y="126.058604" style="fill: #1f77b4; stroke: #1f77b4"/>
     <use xlink:href="#mc5e6b94cb9" x="115.65498" y="125.023337" style="fill: #1f77b4; stroke: #1f77b4"/>
     <use xlink:href="#mc5e6b94cb9" x="118.114545" y="123.344232" style="fill: #1f77b4; stroke: #1f77b4"/>
     <use xlink:href="#mc5e6b94cb9" x="120.580463" y="122.264468" style="fill: #1f77b4; stroke: #1f77b4"/>
     <use xlink:href="#mc5e6b94cb9" x="122.927346" y="121.310584" style="fill: #1f77b4; stroke: #1f77b4"/>
     <use xlink:href="#mc5e6b94cb9" x="125.205299" y="120.141274" style="fill: #1f77b4; stroke: #1f77b4"/>
     <use xlink:href="#mc5e6b94cb9" x="127.391547" y="117.3706" style="fill: #1f77b4; stroke: #1f77b4"/>
     <use xlink:href="#mc5e6b94cb9" x="129.579418" y="117.486576" style="fill: #1f77b4; stroke: #1f77b4"/>
     <use xlink:href="#mc5e6b94cb9" x="131.661009" y="115.55946" style="fill: #1f77b4; stroke: #1f77b4"/>
     <use xlink:href="#mc5e6b94cb9" x="133.65557" y="114.303804" style="fill: #1f77b4; stroke: #1f77b4"/>
     <use xlink:href="#mc5e6b94cb9" x="135.673543" y="113.669679" style="fill: #1f77b4; stroke: #1f77b4"/>
     <use xlink:href="#mc5e6b94cb9" x="137.570543" y="112.090382" style="fill: #1f77b4; stroke: #1f77b4"/>
     <use xlink:href="#mc5e6b94cb9" x="139.404504" y="111.453029" style="fill: #1f77b4; stroke: #1f77b4"/>
     <use xlink:href="#mc5e6b94cb9" x="141.246178" y="110.003729" style="fill: #1f77b4; stroke: #1f77b4"/>
     <use xlink:href="#mc5e6b94cb9" x="142.986785" y="109.73468" style="fill: #1f77b4; stroke: #1f77b4"/>
     <use xlink:href="#mc5e6b94cb9" x="144.68386" y="108.534602" style="fill: #1f77b4; stroke: #1f77b4"/>
     <use xlink:href="#mc5e6b94cb9" x="146.396751" y="108.093052" style="fill: #1f77b4; stroke: #1f77b4"/>
     <use xlink:href="#mc5e6b94cb9" x="148.038102" y="107.080531" style="fill: #1f77b4; stroke: #1f77b4"/>
     <use xlink:href="#mc5e6b94cb9" x="149.627493" y="106.817708" style="fill: #1f77b4; stroke: #1f77b4"/>
     <use xlink:href="#mc5e6b94cb9" x="151.185944" y="105.313631" style="fill: #1f77b4; stroke: #1f77b4"/>
     <use xlink:href="#mc5e6b94cb9" x="152.757443" y="105.410729" style="fill: #1f77b4; stroke: #1f77b4"/>
     <use xlink:href="#mc5e6b94cb9" x="154.256996" y="104.50557" style="fill: #1f77b4; stroke: #1f77b4"/>
     <use xlink:href="#mc5e6b94cb9" x="155.722429" y="103.750473" style="fill: #1f77b4; stroke: #1f77b4"/>
     <use xlink:href="#mc5e6b94cb9" x="157.214212" y="103.979321" style="fill: #1f77b4; stroke: #1f77b4"/>
     <use xlink:href="#mc5e6b94cb9" x="158.65438" y="103.143609" style="fill: #1f77b4; stroke: #1f77b4"/>
     <use xlink:href="#mc5e6b94cb9" x="160.053401" y="102.578088" style="fill: #1f77b4; stroke: #1f77b4"/>
     <use xlink:href="#mc5e6b94cb9" x="161.475847" y="102.212123" style="fill: #1f77b4; stroke: #1f77b4"/>
     <use xlink:href="#mc5e6b94cb9" x="162.842032" y="101.69853" style="fill: #1f77b4; stroke: #1f77b4"/>
     <use xlink:href="#mc5e6b94cb9" x="164.160645" y="100.580775" style="fill: #1f77b4; stroke: #1f77b4"/>
     <use xlink:href="#mc5e6b94cb9" x="165.474331" y="99.848984" style="fill: #1f77b4; stroke: #1f77b4"/>
     <use xlink:href="#mc5e6b94cb9" x="166.720839" y="99.174832" style="fill: #1f77b4; stroke: #1f77b4"/>
     <use xlink:href="#mc5e6b94cb9" x="167.948907" y="98.756557" style="fill: #1f77b4; stroke: #1f77b4"/>
     <use xlink:href="#mc5e6b94cb9" x="169.196602" y="98.902272" style="fill: #1f77b4; stroke: #1f77b4"/>
     <use xlink:href="#mc5e6b94cb9" x="170.397196" y="98.376574" style="fill: #1f77b4; stroke: #1f77b4"/>
     <use xlink:href="#mc5e6b94cb9" x="171.593648" y="98.550597" style="fill: #1f77b4; stroke: #1f77b4"/>
     <use xlink:href="#mc5e6b94cb9" x="172.773417" y="97.475034" style="fill: #1f77b4; stroke: #1f77b4"/>
     <use xlink:href="#mc5e6b94cb9" x="173.942364" y="96.834365" style="fill: #1f77b4; stroke: #1f77b4"/>
     <use xlink:href="#mc5e6b94cb9" x="175.060647" y="96.715615" style="fill: #1f77b4; stroke: #1f77b4"/>
     <use xlink:href="#mc5e6b94cb9" x="176.155969" y="95.649238" style="fill: #1f77b4; stroke: #1f77b4"/>
     <use xlink:href="#mc5e6b94cb9" x="177.27772" y="96.323028" style="fill: #1f77b4; stroke: #1f77b4"/>
     <use xlink:href="#mc5e6b94cb9" x="178.386234" y="96.849244" style="fill: #1f77b4; stroke: #1f77b4"/>
     <use xlink:href="#mc5e6b94cb9" x="179.504071" y="96.660752" style="fill: #1f77b4; stroke: #1f77b4"/>
     <use xlink:href="#mc5e6b94cb9" x="180.607913" y="94.842826" style="fill: #1f77b4; stroke: #1f77b4"/>
     <use xlink:href="#mc5e6b94cb9" x="181.666086" y="96.012172" style="fill: #1f77b4; stroke: #1f77b4"/>
     <use xlink:href="#mc5e6b94cb9" x="182.724721" y="94.971389" style="fill: #1f77b4; stroke: #1f77b4"/>
     <use xlink:href="#mc5e6b94cb9" x="183.75521" y="94.683955" style="fill: #1f77b4; stroke: #1f77b4"/>
     <use xlink:href="#mc5e6b94cb9" x="184.785233" y="93.577856" style="fill: #1f77b4; stroke: #1f77b4"/>
     <use xlink:href="#mc5e6b94cb9" x="185.788008" y="94.822742" style="fill: #1f77b4; stroke: #1f77b4"/>
     <use xlink:href="#mc5e6b94cb9" x="186.790123" y="93.717785" style="fill: #1f77b4; stroke: #1f77b4"/>
     <use xlink:href="#mc5e6b94cb9" x="187.803265" y="93.821278" style="fill: #1f77b4; stroke: #1f77b4"/>
     <use xlink:href="#mc5e6b94cb9" x="188.771654" y="92.998011" style="fill: #1f77b4; stroke: #1f77b4"/>
     <use xlink:href="#mc5e6b94cb9" x="189.713897" y="92.82767" style="fill: #1f77b4; stroke: #1f77b4"/>
     <use xlink:href="#mc5e6b94cb9" x="190.699882" y="93.490275" style="fill: #1f77b4; stroke: #1f77b4"/>
     <use xlink:href="#mc5e6b94cb9" x="191.643395" y="92.300311" style="fill: #1f77b4; stroke: #1f77b4"/>
     <use xlink:href="#mc5e6b94cb9" x="192.571931" y="92.850058" style="fill: #1f77b4; stroke: #1f77b4"/>
     <use xlink:href="#mc5e6b94cb9" x="193.477346" y="91.43676" style="fill: #1f77b4; stroke: #1f77b4"/>
     <use xlink:href="#mc5e6b94cb9" x="194.394188" y="91.953354" style="fill: #1f77b4; stroke: #1f77b4"/>
     <use xlink:href="#mc5e6b94cb9" x="195.289473" y="91.689526" style="fill: #1f77b4; stroke: #1f77b4"/>
     <use xlink:href="#mc5e6b94cb9" x="196.176313" y="91.689256" style="fill: #1f77b4; stroke: #1f77b4"/>
     <use xlink:href="#mc5e6b94cb9" x="197.091313" y="91.627691" style="fill: #1f77b4; stroke: #1f77b4"/>
     <use xlink:href="#mc5e6b94cb9" x="197.98645" y="92.084052" style="fill: #1f77b4; stroke: #1f77b4"/>
     <use xlink:href="#mc5e6b94cb9" x="198.881866" y="91.509871" style="fill: #1f77b4; stroke: #1f77b4"/>
     <use xlink:href="#mc5e6b94cb9" x="199.781636" y="91.242014" style="fill: #1f77b4; stroke: #1f77b4"/>
     <use xlink:href="#mc5e6b94cb9" x="200.64358" y="90.770644" style="fill: #1f77b4; stroke: #1f77b4"/>
     <use xlink:href="#mc5e6b94cb9" x="201.487719" y="90.787545" style="fill: #1f77b4; stroke: #1f77b4"/>
     <use xlink:href="#mc5e6b94cb9" x="202.360093" y="90.870454" style="fill: #1f77b4; stroke: #1f77b4"/>
     <use xlink:href="#mc5e6b94cb9" x="203.189055" y="89.69334" style="fill: #1f77b4; stroke: #1f77b4"/>
     <use xlink:href="#mc5e6b94cb9" x="203.980029" y="89.453903" style="fill: #1f77b4; stroke: #1f77b4"/>
     <use xlink:href="#mc5e6b94cb9" x="204.757295" y="88.89367" style="fill: #1f77b4; stroke: #1f77b4"/>
     <use xlink:href="#mc5e6b94cb9" x="205.557711" y="89.704905" style="fill: #1f77b4; stroke: #1f77b4"/>
     <use xlink:href="#mc5e6b94cb9" x="206.352491" y="89.564604" style="fill: #1f77b4; stroke: #1f77b4"/>
     <use xlink:href="#mc5e6b94cb9" x="207.155757" y="89.972697" style="fill: #1f77b4; stroke: #1f77b4"/>
     <use xlink:href="#mc5e6b94cb9" x="207.982864" y="89.720517" style="fill: #1f77b4; stroke: #1f77b4"/>
     <use xlink:href="#mc5e6b94cb9" x="208.76152" y="88.795466" style="fill: #1f77b4; stroke: #1f77b4"/>
     <use xlink:href="#mc5e6b94cb9" x="209.529038" y="89.043066" style="fill: #1f77b4; stroke: #1f77b4"/>
     <use xlink:href="#mc5e6b94cb9" x="210.315073" y="88.788844" style="fill: #1f77b4; stroke: #1f77b4"/>
     <use xlink:href="#mc5e6b94cb9" x="211.061748" y="88.208401" style="fill: #1f77b4; stroke: #1f77b4"/>
     <use xlink:href="#mc5e6b94cb9" x="211.801902" y="88.395978" style="fill: #1f77b4; stroke: #1f77b4"/>
     <use xlink:href="#mc5e6b94cb9" x="212.537823" y="88.097375" style="fill: #1f77b4; stroke: #1f77b4"/>
     <use xlink:href="#mc5e6b94cb9" x="213.275173" y="87.678391" style="fill: #1f77b4; stroke: #1f77b4"/>
    </g>
   </g>
   <g id="line2d_13">
    <path d="M 43.78125 183.947517 
L 52.373039 177.395641 
L 60.674742 168.900931 
L 68.259833 163.360065 
L 75.473361 158.096999 
L 82.553952 152.632718 
L 89.076636 146.959031 
L 95.269658 142.840017 
L 101.367669 138.015518 
L 106.995442 133.085465 
L 112.351439 129.213967 
L 117.521768 125.278226 
L 122.624874 122.697577 
L 127.380883 118.106176 
L 131.944304 114.805108 
L 136.48633 111.76684 
L 140.762104 108.819158 
L 144.876983 105.905988 
L 148.983349 103.271422 
L 152.849622 101.648587 
L 156.604589 99.163264 
" clip-path="url(#p19b2f8b61a)" style="fill: none; stroke: #ff7f0e; stroke-width: 0.7; stroke-linecap: square"/>
    <defs>
     <path id="m6f68c1f988" d="M 0 0.9 
C 0.238683 0.9 0.467622 0.80517 0.636396 0.636396 
C 0.80517 0.467622 0.9 0.238683 0.9 0 
C 0.9 -0.238683 0.80517 -0.467622 0.636396 -0.636396 
C 0.467622 -0.80517 0.238683 -0.9 0 -0.9 
C -0.238683 -0.9 -0.467622 -0.80517 -0.636396 -0.636396 
C -0.80517 -0.467622 -0.9 -0.238683 -0.9 0 
C -0.9 0.238683 -0.80517 0.467622 -0.636396 0.636396 
C -0.467622 0.80517 -0.238683 0.9 0 0.9 
z
" style="stroke: #ff7f0e"/>
    </defs>
    <g clip-path="url(#p19b2f8b61a)">
     <use xlink:href="#m6f68c1f988" x="43.78125" y="183.947517" style="fill: #ff7f0e; stroke: #ff7f0e"/>
     <use xlink:href="#m6f68c1f988" x="52.373039" y="177.395641" style="fill: #ff7f0e; stroke: #ff7f0e"/>
     <use xlink:href="#m6f68c1f988" x="60.674742" y="168.900931" style="fill: #ff7f0e; stroke: #ff7f0e"/>
     <use xlink:href="#m6f68c1f988" x="68.259833" y="163.360065" style="fill: #ff7f0e; stroke: #ff7f0e"/>
     <use xlink:href="#m6f68c1f988" x="75.473361" y="158.096999" style="fill: #ff7f0e; stroke: #ff7f0e"/>
     <use xlink:href="#m6f68c1f988" x="82.553952" y="152.632718" style="fill: #ff7f0e; stroke: #ff7f0e"/>
     <use xlink:href="#m6f68c1f988" x="89.076636" y="146.959031" style="fill: #ff7f0e; stroke: #ff7f0e"/>
     <use xlink:href="#m6f68c1f988" x="95.269658" y="142.840017" style="fill: #ff7f0e; stroke: #ff7f0e"/>
     <use xlink:href="#m6f68c1f988" x="101.367669" y="138.015518" style="fill: #ff7f0e; stroke: #ff7f0e"/>
     <use xlink:href="#m6f68c1f988" x="106.995442" y="133.085465" style="fill: #ff7f0e; stroke: #ff7f0e"/>
     <use xlink:href="#m6f68c1f988" x="112.351439" y="129.213967" style="fill: #ff7f0e; stroke: #ff7f0e"/>
     <use xlink:href="#m6f68c1f988" x="117.521768" y="125.278226" style="fill: #ff7f0e; stroke: #ff7f0e"/>
     <use xlink:href="#m6f68c1f988" x="122.624874" y="122.697577" style="fill: #ff7f0e; stroke: #ff7f0e"/>
     <use xlink:href="#m6f68c1f988" x="127.380883" y="118.106176" style="fill: #ff7f0e; stroke: #ff7f0e"/>
     <use xlink:href="#m6f68c1f988" x="131.944304" y="114.805108" style="fill: #ff7f0e; stroke: #ff7f0e"/>
     <use xlink:href="#m6f68c1f988" x="136.48633" y="111.76684" style="fill: #ff7f0e; stroke: #ff7f0e"/>
     <use xlink:href="#m6f68c1f988" x="140.762104" y="108.819158" style="fill: #ff7f0e; stroke: #ff7f0e"/>
     <use xlink:href="#m6f68c1f988" x="144.876983" y="105.905988" style="fill: #ff7f0e; stroke: #ff7f0e"/>
     <use xlink:href="#m6f68c1f988" x="148.983349" y="103.271422" style="fill: #ff7f0e; stroke: #ff7f0e"/>
     <use xlink:href="#m6f68c1f988" x="152.849622" y="101.648587" style="fill: #ff7f0e; stroke: #ff7f0e"/>
     <use xlink:href="#m6f68c1f988" x="156.604589" y="99.163264" style="fill: #ff7f0e; stroke: #ff7f0e"/>
    </g>
   </g>
   <g id="line2d_14">
    <path d="M 43.78125 183.947517 
L 48.127105 178.270432 
L 52.067069 176.419664 
L 55.865364 173.350223 
L 59.610719 170.269393 
L 63.155858 171.332486 
L 66.616312 167.113342 
L 70.002122 164.601192 
L 73.14695 162.520311 
L 76.183187 159.625951 
L 79.126412 158.289463 
L 82.090745 157.139341 
L 84.876956 154.155826 
L 87.581354 151.672337 
L 90.250311 149.301377 
L 92.773192 149.530776 
L 95.292912 145.925144 
L 97.677205 145.756264 
L 100.007825 144.491281 
L 102.264946 141.634369 
L 104.511621 140.93595 
L 106.637577 138.908585 
L 108.700773 137.067308 
L 110.743049 135.042617 
L 112.661257 133.328921 
L 114.53712 132.892049 
L 116.407041 129.585677 
L 118.157225 129.513371 
L 119.888422 128.823061 
L 121.589112 127.330005 
L 123.296568 126.621645 
L 124.910074 124.833255 
L 126.487791 124.321981 
L 128.077257 123.101078 
L 129.57955 122.3894 
L 131.042759 120.6307 
L 132.50989 119.700424 
L 133.899281 118.63039 
L 135.26622 117.756753 
L 136.610474 117.04571 
L 137.943791 115.423817 
L 139.197723 114.14703 
L 140.415421 113.64752 
L 141.651454 112.936969 
L 142.815451 111.371584 
L 143.931385 109.789094 
L 145.076807 110.867652 
L 146.162093 107.894369 
L 147.20195 108.597769 
L 148.244784 108.34411 
L 149.321859 108.590634 
L 150.330833 105.866518 
L 151.28947 105.285996 
L 152.285557 106.551097 
L 153.247781 105.096645 
L 154.195482 104.894192 
L 155.134642 103.300348 
L 156.019144 102.261278 
L 156.881136 101.604347 
L 157.720527 100.912536 
L 158.583869 101.369131 
L 159.411531 100.118761 
L 160.208319 99.209474 
" clip-path="url(#p19b2f8b61a)" style="fill: none; stroke: #2ca02c; stroke-width: 0.7; stroke-linecap: square"/>
    <defs>
     <path id="mccc9609ad8" d="M 0 0.9 
C 0.238683 0.9 0.467622 0.80517 0.636396 0.636396 
C 0.80517 0.467622 0.9 0.238683 0.9 0 
C 0.9 -0.238683 0.80517 -0.467622 0.636396 -0.636396 
C 0.467622 -0.80517 0.238683 -0.9 0 -0.9 
C -0.238683 -0.9 -0.467622 -0.80517 -0.636396 -0.636396 
C -0.80517 -0.467622 -0.9 -0.238683 -0.9 0 
C -0.9 0.238683 -0.80517 0.467622 -0.636396 0.636396 
C -0.467622 0.80517 -0.238683 0.9 0 0.9 
z
" style="stroke: #2ca02c"/>
    </defs>
    <g clip-path="url(#p19b2f8b61a)">
     <use xlink:href="#mccc9609ad8" x="43.78125" y="183.947517" style="fill: #2ca02c; stroke: #2ca02c"/>
     <use xlink:href="#mccc9609ad8" x="48.127105" y="178.270432" style="fill: #2ca02c; stroke: #2ca02c"/>
     <use xlink:href="#mccc9609ad8" x="52.067069" y="176.419664" style="fill: #2ca02c; stroke: #2ca02c"/>
     <use xlink:href="#mccc9609ad8" x="55.865364" y="173.350223" style="fill: #2ca02c; stroke: #2ca02c"/>
     <use xlink:href="#mccc9609ad8" x="59.610719" y="170.269393" style="fill: #2ca02c; stroke: #2ca02c"/>
     <use xlink:href="#mccc9609ad8" x="63.155858" y="171.332486" style="fill: #2ca02c; stroke: #2ca02c"/>
     <use xlink:href="#mccc9609ad8" x="66.616312" y="167.113342" style="fill: #2ca02c; stroke: #2ca02c"/>
     <use xlink:href="#mccc9609ad8" x="70.002122" y="164.601192" style="fill: #2ca02c; stroke: #2ca02c"/>
     <use xlink:href="#mccc9609ad8" x="73.14695" y="162.520311" style="fill: #2ca02c; stroke: #2ca02c"/>
     <use xlink:href="#mccc9609ad8" x="76.183187" y="159.625951" style="fill: #2ca02c; stroke: #2ca02c"/>
     <use xlink:href="#mccc9609ad8" x="79.126412" y="158.289463" style="fill: #2ca02c; stroke: #2ca02c"/>
     <use xlink:href="#mccc9609ad8" x="82.090745" y="157.139341" style="fill: #2ca02c; stroke: #2ca02c"/>
     <use xlink:href="#mccc9609ad8" x="84.876956" y="154.155826" style="fill: #2ca02c; stroke: #2ca02c"/>
     <use xlink:href="#mccc9609ad8" x="87.581354" y="151.672337" style="fill: #2ca02c; stroke: #2ca02c"/>
     <use xlink:href="#mccc9609ad8" x="90.250311" y="149.301377" style="fill: #2ca02c; stroke: #2ca02c"/>
     <use xlink:href="#mccc9609ad8" x="92.773192" y="149.530776" style="fill: #2ca02c; stroke: #2ca02c"/>
     <use xlink:href="#mccc9609ad8" x="95.292912" y="145.925144" style="fill: #2ca02c; stroke: #2ca02c"/>
     <use xlink:href="#mccc9609ad8" x="97.677205" y="145.756264" style="fill: #2ca02c; stroke: #2ca02c"/>
     <use xlink:href="#mccc9609ad8" x="100.007825" y="144.491281" style="fill: #2ca02c; stroke: #2ca02c"/>
     <use xlink:href="#mccc9609ad8" x="102.264946" y="141.634369" style="fill: #2ca02c; stroke: #2ca02c"/>
     <use xlink:href="#mccc9609ad8" x="104.511621" y="140.93595" style="fill: #2ca02c; stroke: #2ca02c"/>
     <use xlink:href="#mccc9609ad8" x="106.637577" y="138.908585" style="fill: #2ca02c; stroke: #2ca02c"/>
     <use xlink:href="#mccc9609ad8" x="108.700773" y="137.067308" style="fill: #2ca02c; stroke: #2ca02c"/>
     <use xlink:href="#mccc9609ad8" x="110.743049" y="135.042617" style="fill: #2ca02c; stroke: #2ca02c"/>
     <use xlink:href="#mccc9609ad8" x="112.661257" y="133.328921" style="fill: #2ca02c; stroke: #2ca02c"/>
     <use xlink:href="#mccc9609ad8" x="114.53712" y="132.892049" style="fill: #2ca02c; stroke: #2ca02c"/>
     <use xlink:href="#mccc9609ad8" x="116.407041" y="129.585677" style="fill: #2ca02c; stroke: #2ca02c"/>
     <use xlink:href="#mccc9609ad8" x="118.157225" y="129.513371" style="fill: #2ca02c; stroke: #2ca02c"/>
     <use xlink:href="#mccc9609ad8" x="119.888422" y="128.823061" style="fill: #2ca02c; stroke: #2ca02c"/>
     <use xlink:href="#mccc9609ad8" x="121.589112" y="127.330005" style="fill: #2ca02c; stroke: #2ca02c"/>
     <use xlink:href="#mccc9609ad8" x="123.296568" y="126.621645" style="fill: #2ca02c; stroke: #2ca02c"/>
     <use xlink:href="#mccc9609ad8" x="124.910074" y="124.833255" style="fill: #2ca02c; stroke: #2ca02c"/>
     <use xlink:href="#mccc9609ad8" x="126.487791" y="124.321981" style="fill: #2ca02c; stroke: #2ca02c"/>
     <use xlink:href="#mccc9609ad8" x="128.077257" y="123.101078" style="fill: #2ca02c; stroke: #2ca02c"/>
     <use xlink:href="#mccc9609ad8" x="129.57955" y="122.3894" style="fill: #2ca02c; stroke: #2ca02c"/>
     <use xlink:href="#mccc9609ad8" x="131.042759" y="120.6307" style="fill: #2ca02c; stroke: #2ca02c"/>
     <use xlink:href="#mccc9609ad8" x="132.50989" y="119.700424" style="fill: #2ca02c; stroke: #2ca02c"/>
     <use xlink:href="#mccc9609ad8" x="133.899281" y="118.63039" style="fill: #2ca02c; stroke: #2ca02c"/>
     <use xlink:href="#mccc9609ad8" x="135.26622" y="117.756753" style="fill: #2ca02c; stroke: #2ca02c"/>
     <use xlink:href="#mccc9609ad8" x="136.610474" y="117.04571" style="fill: #2ca02c; stroke: #2ca02c"/>
     <use xlink:href="#mccc9609ad8" x="137.943791" y="115.423817" style="fill: #2ca02c; stroke: #2ca02c"/>
     <use xlink:href="#mccc9609ad8" x="139.197723" y="114.14703" style="fill: #2ca02c; stroke: #2ca02c"/>
     <use xlink:href="#mccc9609ad8" x="140.415421" y="113.64752" style="fill: #2ca02c; stroke: #2ca02c"/>
     <use xlink:href="#mccc9609ad8" x="141.651454" y="112.936969" style="fill: #2ca02c; stroke: #2ca02c"/>
     <use xlink:href="#mccc9609ad8" x="142.815451" y="111.371584" style="fill: #2ca02c; stroke: #2ca02c"/>
     <use xlink:href="#mccc9609ad8" x="143.931385" y="109.789094" style="fill: #2ca02c; stroke: #2ca02c"/>
     <use xlink:href="#mccc9609ad8" x="145.076807" y="110.867652" style="fill: #2ca02c; stroke: #2ca02c"/>
     <use xlink:href="#mccc9609ad8" x="146.162093" y="107.894369" style="fill: #2ca02c; stroke: #2ca02c"/>
     <use xlink:href="#mccc9609ad8" x="147.20195" y="108.597769" style="fill: #2ca02c; stroke: #2ca02c"/>
     <use xlink:href="#mccc9609ad8" x="148.244784" y="108.34411" style="fill: #2ca02c; stroke: #2ca02c"/>
     <use xlink:href="#mccc9609ad8" x="149.321859" y="108.590634" style="fill: #2ca02c; stroke: #2ca02c"/>
     <use xlink:href="#mccc9609ad8" x="150.330833" y="105.866518" style="fill: #2ca02c; stroke: #2ca02c"/>
     <use xlink:href="#mccc9609ad8" x="151.28947" y="105.285996" style="fill: #2ca02c; stroke: #2ca02c"/>
     <use xlink:href="#mccc9609ad8" x="152.285557" y="106.551097" style="fill: #2ca02c; stroke: #2ca02c"/>
     <use xlink:href="#mccc9609ad8" x="153.247781" y="105.096645" style="fill: #2ca02c; stroke: #2ca02c"/>
     <use xlink:href="#mccc9609ad8" x="154.195482" y="104.894192" style="fill: #2ca02c; stroke: #2ca02c"/>
     <use xlink:href="#mccc9609ad8" x="155.134642" y="103.300348" style="fill: #2ca02c; stroke: #2ca02c"/>
     <use xlink:href="#mccc9609ad8" x="156.019144" y="102.261278" style="fill: #2ca02c; stroke: #2ca02c"/>
     <use xlink:href="#mccc9609ad8" x="156.881136" y="101.604347" style="fill: #2ca02c; stroke: #2ca02c"/>
     <use xlink:href="#mccc9609ad8" x="157.720527" y="100.912536" style="fill: #2ca02c; stroke: #2ca02c"/>
     <use xlink:href="#mccc9609ad8" x="158.583869" y="101.369131" style="fill: #2ca02c; stroke: #2ca02c"/>
     <use xlink:href="#mccc9609ad8" x="159.411531" y="100.118761" style="fill: #2ca02c; stroke: #2ca02c"/>
     <use xlink:href="#mccc9609ad8" x="160.208319" y="99.209474" style="fill: #2ca02c; stroke: #2ca02c"/>
    </g>
   </g>
   <g id="line2d_15">
    <path d="M 43.78125 183.947517 
L 52.681905 178.384017 
L 61.028875 171.708578 
L 69.115191 166.750682 
L 76.48231 160.593057 
L 83.429604 155.840553 
L 89.998468 151.578927 
L 96.438803 147.538972 
L 102.363703 143.938922 
L 108.00435 140.197007 
L 113.487994 136.950125 
L 118.589102 133.539206 
L 123.440054 129.536442 
L 128.178782 126.327885 
L 132.60246 122.88814 
L 136.782535 120.229711 
L 140.810341 117.699577 
L 144.787591 114.365287 
L 148.511019 112.396916 
L 152.124024 110.217536 
L 155.700066 108.065496 
L 159.03234 106.092544 
L 162.209465 103.876501 
L 165.365257 102.173293 
L 168.354489 100.734663 
L 171.233523 98.867882 
L 174.01841 97.406562 
L 176.771636 94.979297 
L 179.378284 94.467336 
L 181.902088 92.442069 
L 184.446349 92.371345 
L 186.850078 89.880278 
L 189.1365 88.749863 
L 191.402985 86.933981 
L 193.536771 86.177085 
L 195.646215 85.377145 
L 197.748106 83.097363 
L 199.724595 83.129801 
L 201.667996 82.10677 
L 203.53972 80.127585 
L 205.387141 79.641532 
L 207.142847 78.468493 
L 208.852555 77.888369 
L 210.559868 76.596935 
L 212.175153 74.144637 
L 213.781271 75.035082 
L 215.351788 74.301354 
L 216.935811 73.521942 
L 218.436555 73.140448 
L 219.876743 72.347995 
L 221.346224 72.316057 
L 222.763914 72.059063 
L 224.145681 70.967636 
L 225.50375 69.824296 
L 226.794964 70.163144 
L 228.078826 69.324519 
L 229.312517 68.75655 
L 230.542014 68.543405 
L 231.7094 66.732554 
L 232.850756 66.178759 
L 234.013832 66.056222 
L 235.113793 64.997174 
L 236.199351 64.864091 
L 237.297272 64.496244 
L 238.340652 64.949557 
L 239.358402 64.10811 
L 240.360055 64.044409 
L 241.373283 62.596151 
L 242.320609 62.47986 
L 243.263298 61.772992 
L 244.213909 61.766762 
L 245.107464 61.1324 
L 245.982792 61.191207 
L 246.879621 61.1016 
L 247.734623 60.529281 
L 248.565868 59.85067 
L 249.381616 59.589473 
L 250.205826 59.007873 
L 250.998214 58.560499 
L 251.770278 58.568156 
L 252.556643 57.985291 
L 253.321261 58.487112 
L 254.089445 58.08013 
L 254.85933 57.794513 
L 255.582211 57.118776 
L 256.306378 56.909295 
L 257.008259 56.140899 
L 257.69898 56.335874 
L 258.374173 55.876465 
L 259.052123 56.090125 
L 259.718509 55.701088 
L 260.334745 54.834693 
L 260.949707 55.258961 
L 261.604663 55.037462 
L 262.247917 54.788185 
" clip-path="url(#p19b2f8b61a)" style="fill: none; stroke: #d62728; stroke-width: 0.7; stroke-linecap: square"/>
    <defs>
     <path id="ma6de8a9650" d="M 0 0.9 
C 0.238683 0.9 0.467622 0.80517 0.636396 0.636396 
C 0.80517 0.467622 0.9 0.238683 0.9 0 
C 0.9 -0.238683 0.80517 -0.467622 0.636396 -0.636396 
C 0.467622 -0.80517 0.238683 -0.9 0 -0.9 
C -0.238683 -0.9 -0.467622 -0.80517 -0.636396 -0.636396 
C -0.80517 -0.467622 -0.9 -0.238683 -0.9 0 
C -0.9 0.238683 -0.80517 0.467622 -0.636396 0.636396 
C -0.467622 0.80517 -0.238683 0.9 0 0.9 
z
" style="stroke: #d62728"/>
    </defs>
    <g clip-path="url(#p19b2f8b61a)">
     <use xlink:href="#ma6de8a9650" x="43.78125" y="183.947517" style="fill: #d62728; stroke: #d62728"/>
     <use xlink:href="#ma6de8a9650" x="52.681905" y="178.384017" style="fill: #d62728; stroke: #d62728"/>
     <use xlink:href="#ma6de8a9650" x="61.028875" y="171.708578" style="fill: #d62728; stroke: #d62728"/>
     <use xlink:href="#ma6de8a9650" x="69.115191" y="166.750682" style="fill: #d62728; stroke: #d62728"/>
     <use xlink:href="#ma6de8a9650" x="76.48231" y="160.593057" style="fill: #d62728; stroke: #d62728"/>
     <use xlink:href="#ma6de8a9650" x="83.429604" y="155.840553" style="fill: #d62728; stroke: #d62728"/>
     <use xlink:href="#ma6de8a9650" x="89.998468" y="151.578927" style="fill: #d62728; stroke: #d62728"/>
     <use xlink:href="#ma6de8a9650" x="96.438803" y="147.538972" style="fill: #d62728; stroke: #d62728"/>
     <use xlink:href="#ma6de8a9650" x="102.363703" y="143.938922" style="fill: #d62728; stroke: #d62728"/>
     <use xlink:href="#ma6de8a9650" x="108.00435" y="140.197007" style="fill: #d62728; stroke: #d62728"/>
     <use xlink:href="#ma6de8a9650" x="113.487994" y="136.950125" style="fill: #d62728; stroke: #d62728"/>
     <use xlink:href="#ma6de8a9650" x="118.589102" y="133.539206" style="fill: #d62728; stroke: #d62728"/>
     <use xlink:href="#ma6de8a9650" x="123.440054" y="129.536442" style="fill: #d62728; stroke: #d62728"/>
     <use xlink:href="#ma6de8a9650" x="128.178782" y="126.327885" style="fill: #d62728; stroke: #d62728"/>
     <use xlink:href="#ma6de8a9650" x="132.60246" y="122.88814" style="fill: #d62728; stroke: #d62728"/>
     <use xlink:href="#ma6de8a9650" x="136.782535" y="120.229711" style="fill: #d62728; stroke: #d62728"/>
     <use xlink:href="#ma6de8a9650" x="140.810341" y="117.699577" style="fill: #d62728; stroke: #d62728"/>
     <use xlink:href="#ma6de8a9650" x="144.787591" y="114.365287" style="fill: #d62728; stroke: #d62728"/>
     <use xlink:href="#ma6de8a9650" x="148.511019" y="112.396916" style="fill: #d62728; stroke: #d62728"/>
     <use xlink:href="#ma6de8a9650" x="152.124024" y="110.217536" style="fill: #d62728; stroke: #d62728"/>
     <use xlink:href="#ma6de8a9650" x="155.700066" y="108.065496" style="fill: #d62728; stroke: #d62728"/>
     <use xlink:href="#ma6de8a9650" x="159.03234" y="106.092544" style="fill: #d62728; stroke: #d62728"/>
     <use xlink:href="#ma6de8a9650" x="162.209465" y="103.876501" style="fill: #d62728; stroke: #d62728"/>
     <use xlink:href="#ma6de8a9650" x="165.365257" y="102.173293" style="fill: #d62728; stroke: #d62728"/>
     <use xlink:href="#ma6de8a9650" x="168.354489" y="100.734663" style="fill: #d62728; stroke: #d62728"/>
     <use xlink:href="#ma6de8a9650" x="171.233523" y="98.867882" style="fill: #d62728; stroke: #d62728"/>
     <use xlink:href="#ma6de8a9650" x="174.01841" y="97.406562" style="fill: #d62728; stroke: #d62728"/>
     <use xlink:href="#ma6de8a9650" x="176.771636" y="94.979297" style="fill: #d62728; stroke: #d62728"/>
     <use xlink:href="#ma6de8a9650" x="179.378284" y="94.467336" style="fill: #d62728; stroke: #d62728"/>
     <use xlink:href="#ma6de8a9650" x="181.902088" y="92.442069" style="fill: #d62728; stroke: #d62728"/>
     <use xlink:href="#ma6de8a9650" x="184.446349" y="92.371345" style="fill: #d62728; stroke: #d62728"/>
     <use xlink:href="#ma6de8a9650" x="186.850078" y="89.880278" style="fill: #d62728; stroke: #d62728"/>
     <use xlink:href="#ma6de8a9650" x="189.1365" y="88.749863" style="fill: #d62728; stroke: #d62728"/>
     <use xlink:href="#ma6de8a9650" x="191.402985" y="86.933981" style="fill: #d62728; stroke: #d62728"/>
     <use xlink:href="#ma6de8a9650" x="193.536771" y="86.177085" style="fill: #d62728; stroke: #d62728"/>
     <use xlink:href="#ma6de8a9650" x="195.646215" y="85.377145" style="fill: #d62728; stroke: #d62728"/>
     <use xlink:href="#ma6de8a9650" x="197.748106" y="83.097363" style="fill: #d62728; stroke: #d62728"/>
     <use xlink:href="#ma6de8a9650" x="199.724595" y="83.129801" style="fill: #d62728; stroke: #d62728"/>
     <use xlink:href="#ma6de8a9650" x="201.667996" y="82.10677" style="fill: #d62728; stroke: #d62728"/>
     <use xlink:href="#ma6de8a9650" x="203.53972" y="80.127585" style="fill: #d62728; stroke: #d62728"/>
     <use xlink:href="#ma6de8a9650" x="205.387141" y="79.641532" style="fill: #d62728; stroke: #d62728"/>
     <use xlink:href="#ma6de8a9650" x="207.142847" y="78.468493" style="fill: #d62728; stroke: #d62728"/>
     <use xlink:href="#ma6de8a9650" x="208.852555" y="77.888369" style="fill: #d62728; stroke: #d62728"/>
     <use xlink:href="#ma6de8a9650" x="210.559868" y="76.596935" style="fill: #d62728; stroke: #d62728"/>
     <use xlink:href="#ma6de8a9650" x="212.175153" y="74.144637" style="fill: #d62728; stroke: #d62728"/>
     <use xlink:href="#ma6de8a9650" x="213.781271" y="75.035082" style="fill: #d62728; stroke: #d62728"/>
     <use xlink:href="#ma6de8a9650" x="215.351788" y="74.301354" style="fill: #d62728; stroke: #d62728"/>
     <use xlink:href="#ma6de8a9650" x="216.935811" y="73.521942" style="fill: #d62728; stroke: #d62728"/>
     <use xlink:href="#ma6de8a9650" x="218.436555" y="73.140448" style="fill: #d62728; stroke: #d62728"/>
     <use xlink:href="#ma6de8a9650" x="219.876743" y="72.347995" style="fill: #d62728; stroke: #d62728"/>
     <use xlink:href="#ma6de8a9650" x="221.346224" y="72.316057" style="fill: #d62728; stroke: #d62728"/>
     <use xlink:href="#ma6de8a9650" x="222.763914" y="72.059063" style="fill: #d62728; stroke: #d62728"/>
     <use xlink:href="#ma6de8a9650" x="224.145681" y="70.967636" style="fill: #d62728; stroke: #d62728"/>
     <use xlink:href="#ma6de8a9650" x="225.50375" y="69.824296" style="fill: #d62728; stroke: #d62728"/>
     <use xlink:href="#ma6de8a9650" x="226.794964" y="70.163144" style="fill: #d62728; stroke: #d62728"/>
     <use xlink:href="#ma6de8a9650" x="228.078826" y="69.324519" style="fill: #d62728; stroke: #d62728"/>
     <use xlink:href="#ma6de8a9650" x="229.312517" y="68.75655" style="fill: #d62728; stroke: #d62728"/>
     <use xlink:href="#ma6de8a9650" x="230.542014" y="68.543405" style="fill: #d62728; stroke: #d62728"/>
     <use xlink:href="#ma6de8a9650" x="231.7094" y="66.732554" style="fill: #d62728; stroke: #d62728"/>
     <use xlink:href="#ma6de8a9650" x="232.850756" y="66.178759" style="fill: #d62728; stroke: #d62728"/>
     <use xlink:href="#ma6de8a9650" x="234.013832" y="66.056222" style="fill: #d62728; stroke: #d62728"/>
     <use xlink:href="#ma6de8a9650" x="235.113793" y="64.997174" style="fill: #d62728; stroke: #d62728"/>
     <use xlink:href="#ma6de8a9650" x="236.199351" y="64.864091" style="fill: #d62728; stroke: #d62728"/>
     <use xlink:href="#ma6de8a9650" x="237.297272" y="64.496244" style="fill: #d62728; stroke: #d62728"/>
     <use xlink:href="#ma6de8a9650" x="238.340652" y="64.949557" style="fill: #d62728; stroke: #d62728"/>
     <use xlink:href="#ma6de8a9650" x="239.358402" y="64.10811" style="fill: #d62728; stroke: #d62728"/>
     <use xlink:href="#ma6de8a9650" x="240.360055" y="64.044409" style="fill: #d62728; stroke: #d62728"/>
     <use xlink:href="#ma6de8a9650" x="241.373283" y="62.596151" style="fill: #d62728; stroke: #d62728"/>
     <use xlink:href="#ma6de8a9650" x="242.320609" y="62.47986" style="fill: #d62728; stroke: #d62728"/>
     <use xlink:href="#ma6de8a9650" x="243.263298" y="61.772992" style="fill: #d62728; stroke: #d62728"/>
     <use xlink:href="#ma6de8a9650" x="244.213909" y="61.766762" style="fill: #d62728; stroke: #d62728"/>
     <use xlink:href="#ma6de8a9650" x="245.107464" y="61.1324" style="fill: #d62728; stroke: #d62728"/>
     <use xlink:href="#ma6de8a9650" x="245.982792" y="61.191207" style="fill: #d62728; stroke: #d62728"/>
     <use xlink:href="#ma6de8a9650" x="246.879621" y="61.1016" style="fill: #d62728; stroke: #d62728"/>
     <use xlink:href="#ma6de8a9650" x="247.734623" y="60.529281" style="fill: #d62728; stroke: #d62728"/>
     <use xlink:href="#ma6de8a9650" x="248.565868" y="59.85067" style="fill: #d62728; stroke: #d62728"/>
     <use xlink:href="#ma6de8a9650" x="249.381616" y="59.589473" style="fill: #d62728; stroke: #d62728"/>
     <use xlink:href="#ma6de8a9650" x="250.205826" y="59.007873" style="fill: #d62728; stroke: #d62728"/>
     <use xlink:href="#ma6de8a9650" x="250.998214" y="58.560499" style="fill: #d62728; stroke: #d62728"/>
     <use xlink:href="#ma6de8a9650" x="251.770278" y="58.568156" style="fill: #d62728; stroke: #d62728"/>
     <use xlink:href="#ma6de8a9650" x="252.556643" y="57.985291" style="fill: #d62728; stroke: #d62728"/>
     <use xlink:href="#ma6de8a9650" x="253.321261" y="58.487112" style="fill: #d62728; stroke: #d62728"/>
     <use xlink:href="#ma6de8a9650" x="254.089445" y="58.08013" style="fill: #d62728; stroke: #d62728"/>
     <use xlink:href="#ma6de8a9650" x="254.85933" y="57.794513" style="fill: #d62728; stroke: #d62728"/>
     <use xlink:href="#ma6de8a9650" x="255.582211" y="57.118776" style="fill: #d62728; stroke: #d62728"/>
     <use xlink:href="#ma6de8a9650" x="256.306378" y="56.909295" style="fill: #d62728; stroke: #d62728"/>
     <use xlink:href="#ma6de8a9650" x="257.008259" y="56.140899" style="fill: #d62728; stroke: #d62728"/>
     <use xlink:href="#ma6de8a9650" x="257.69898" y="56.335874" style="fill: #d62728; stroke: #d62728"/>
     <use xlink:href="#ma6de8a9650" x="258.374173" y="55.876465" style="fill: #d62728; stroke: #d62728"/>
     <use xlink:href="#ma6de8a9650" x="259.052123" y="56.090125" style="fill: #d62728; stroke: #d62728"/>
     <use xlink:href="#ma6de8a9650" x="259.718509" y="55.701088" style="fill: #d62728; stroke: #d62728"/>
     <use xlink:href="#ma6de8a9650" x="260.334745" y="54.834693" style="fill: #d62728; stroke: #d62728"/>
     <use xlink:href="#ma6de8a9650" x="260.949707" y="55.258961" style="fill: #d62728; stroke: #d62728"/>
     <use xlink:href="#ma6de8a9650" x="261.604663" y="55.037462" style="fill: #d62728; stroke: #d62728"/>
     <use xlink:href="#ma6de8a9650" x="262.247917" y="54.788185" style="fill: #d62728; stroke: #d62728"/>
    </g>
   </g>
   <g id="line2d_16">
    <path d="M 43.78125 172.2358 
L 45.987984 171.000051 
L 48.194718 169.764301 
L 50.401452 168.528552 
L 52.608186 167.292802 
L 54.81492 166.057053 
L 57.021654 164.821304 
L 59.228388 163.585554 
L 61.435122 162.349805 
L 63.641856 161.114055 
L 65.84859 159.878306 
L 68.055324 158.642556 
L 70.262058 157.406807 
L 72.468792 156.171058 
L 74.675526 154.935308 
L 76.88226 153.699559 
L 79.088994 152.463809 
L 81.295728 151.22806 
L 83.502462 149.992311 
L 85.709196 148.756561 
L 87.91593 147.520812 
L 90.122664 146.285062 
L 92.329398 145.049313 
L 94.536132 143.813563 
L 96.742866 142.577814 
L 98.9496 141.342065 
L 101.156334 140.106315 
L 103.363068 138.870566 
L 105.569802 137.634816 
L 107.776536 136.399067 
L 109.98327 135.163318 
L 112.190004 133.927568 
L 114.396738 132.691819 
L 116.603472 131.456069 
L 118.810206 130.22032 
L 121.01694 128.98457 
L 123.223674 127.748821 
L 125.430408 126.513072 
L 127.637142 125.277322 
L 129.843876 124.041573 
L 132.05061 122.805823 
L 134.257344 121.570074 
L 136.464078 120.334325 
L 138.670812 119.098575 
L 140.877546 117.862826 
L 143.08428 116.627076 
L 145.291014 115.391327 
L 147.497748 114.155578 
L 149.704482 112.919828 
L 151.911216 111.684079 
L 154.11795 110.448329 
L 156.324684 109.21258 
L 158.531418 107.97683 
L 160.738152 106.741081 
L 162.944886 105.505332 
L 165.15162 104.269582 
L 167.358354 103.033833 
L 169.565088 101.798083 
L 171.771822 100.562334 
L 173.978556 99.326585 
L 176.18529 98.090835 
L 178.392024 96.855086 
L 180.598758 95.619336 
L 182.805492 94.383587 
L 185.012226 93.147837 
L 187.21896 91.912088 
L 189.425694 90.676339 
L 191.632428 89.440589 
L 193.839162 88.20484 
L 196.045896 86.96909 
L 198.25263 85.733341 
L 200.459364 84.497592 
L 202.666098 83.261842 
L 204.872832 82.026093 
L 207.079566 80.790343 
L 209.286301 79.554594 
L 211.493035 78.318844 
L 213.699769 77.083095 
L 215.906503 75.847346 
L 218.113237 74.611596 
L 220.319971 73.375847 
L 222.526705 72.140097 
L 224.733439 70.904348 
L 226.940173 69.668599 
L 229.146907 68.432849 
L 231.353641 67.1971 
L 233.560375 65.96135 
L 235.767109 64.725601 
L 237.973843 63.489852 
L 240.180577 62.254102 
L 242.387311 61.018353 
L 244.594045 59.782603 
L 246.800779 58.546854 
L 249.007513 57.311104 
L 251.214247 56.075355 
L 253.420981 54.839606 
L 255.627715 53.603856 
L 257.834449 52.368107 
L 260.041183 51.132357 
L 262.247917 49.896608 
" clip-path="url(#p19b2f8b61a)" style="fill: none; stroke-dasharray: 1.5,2.475; stroke-dashoffset: 0; stroke: #000000; stroke-width: 1.5"/>
   </g>
   <g id="patch_3">
    <path d="M 43.78125 190.650062 
L 43.78125 43.194062 
" style="fill: none; stroke: #000000; stroke-width: 0.8; stroke-linejoin: miter; stroke-linecap: square"/>
   </g>
   <g id="patch_4">
    <path d="M 273.17125 190.650062 
L 273.17125 43.194062 
" style="fill: none; stroke: #000000; stroke-width: 0.8; stroke-linejoin: miter; stroke-linecap: square"/>
   </g>
   <g id="patch_5">
    <path d="M 43.78125 190.650062 
L 273.17125 190.650062 
" style="fill: none; stroke: #000000; stroke-width: 0.8; stroke-linejoin: miter; stroke-linecap: square"/>
   </g>
   <g id="patch_6">
    <path d="M 43.78125 43.194062 
L 273.17125 43.194062 
" style="fill: none; stroke: #000000; stroke-width: 0.8; stroke-linejoin: miter; stroke-linecap: square"/>
   </g>
   <g id="text_15">
    <!--  -->
    <g transform="translate(158.47625 14.798437) scale(0.1 -0.1)"/>
    <!-- GOF (RMSE): 0.01616 -->
    <g transform="translate(104.227813 25.99625) scale(0.1 -0.1)">
     <defs>
      <path id="DejaVuSans-47" d="M 3809 666 
L 3809 1919 
L 2778 1919 
L 2778 2438 
L 4434 2438 
L 4434 434 
Q 4069 175 3628 42 
Q 3188 -91 2688 -91 
Q 1594 -91 976 548 
Q 359 1188 359 2328 
Q 359 3472 976 4111 
Q 1594 4750 2688 4750 
Q 3144 4750 3555 4637 
Q 3966 4525 4313 4306 
L 4313 3634 
Q 3963 3931 3569 4081 
Q 3175 4231 2741 4231 
Q 1884 4231 1454 3753 
Q 1025 3275 1025 2328 
Q 1025 1384 1454 906 
Q 1884 428 2741 428 
Q 3075 428 3337 486 
Q 3600 544 3809 666 
z
" transform="scale(0.015625)"/>
      <path id="DejaVuSans-4f" d="M 2522 4238 
Q 1834 4238 1429 3725 
Q 1025 3213 1025 2328 
Q 1025 1447 1429 934 
Q 1834 422 2522 422 
Q 3209 422 3611 934 
Q 4013 1447 4013 2328 
Q 4013 3213 3611 3725 
Q 3209 4238 2522 4238 
z
M 2522 4750 
Q 3503 4750 4090 4092 
Q 4678 3434 4678 2328 
Q 4678 1225 4090 567 
Q 3503 -91 2522 -91 
Q 1538 -91 948 565 
Q 359 1222 359 2328 
Q 359 3434 948 4092 
Q 1538 4750 2522 4750 
z
" transform="scale(0.015625)"/>
      <path id="DejaVuSans-46" d="M 628 4666 
L 3309 4666 
L 3309 4134 
L 1259 4134 
L 1259 2759 
L 3109 2759 
L 3109 2228 
L 1259 2228 
L 1259 0 
L 628 0 
L 628 4666 
z
" transform="scale(0.015625)"/>
      <path id="DejaVuSans-28" d="M 1984 4856 
Q 1566 4138 1362 3434 
Q 1159 2731 1159 2009 
Q 1159 1288 1364 580 
Q 1569 -128 1984 -844 
L 1484 -844 
Q 1016 -109 783 600 
Q 550 1309 550 2009 
Q 550 2706 781 3412 
Q 1013 4119 1484 4856 
L 1984 4856 
z
" transform="scale(0.015625)"/>
      <path id="DejaVuSans-52" d="M 2841 2188 
Q 3044 2119 3236 1894 
Q 3428 1669 3622 1275 
L 4263 0 
L 3584 0 
L 2988 1197 
Q 2756 1666 2539 1819 
Q 2322 1972 1947 1972 
L 1259 1972 
L 1259 0 
L 628 0 
L 628 4666 
L 2053 4666 
Q 2853 4666 3247 4331 
Q 3641 3997 3641 3322 
Q 3641 2881 3436 2590 
Q 3231 2300 2841 2188 
z
M 1259 4147 
L 1259 2491 
L 2053 2491 
Q 2509 2491 2742 2702 
Q 2975 2913 2975 3322 
Q 2975 3731 2742 3939 
Q 2509 4147 2053 4147 
L 1259 4147 
z
" transform="scale(0.015625)"/>
      <path id="DejaVuSans-4d" d="M 628 4666 
L 1569 4666 
L 2759 1491 
L 3956 4666 
L 4897 4666 
L 4897 0 
L 4281 0 
L 4281 4097 
L 3078 897 
L 2444 897 
L 1241 4097 
L 1241 0 
L 628 0 
L 628 4666 
z
" transform="scale(0.015625)"/>
      <path id="DejaVuSans-45" d="M 628 4666 
L 3578 4666 
L 3578 4134 
L 1259 4134 
L 1259 2753 
L 3481 2753 
L 3481 2222 
L 1259 2222 
L 1259 531 
L 3634 531 
L 3634 0 
L 628 0 
L 628 4666 
z
" transform="scale(0.015625)"/>
      <path id="DejaVuSans-29" d="M 513 4856 
L 1013 4856 
Q 1481 4119 1714 3412 
Q 1947 2706 1947 2009 
Q 1947 1309 1714 600 
Q 1481 -109 1013 -844 
L 513 -844 
Q 928 -128 1133 580 
Q 1338 1288 1338 2009 
Q 1338 2731 1133 3434 
Q 928 4138 513 4856 
z
" transform="scale(0.015625)"/>
      <path id="DejaVuSans-3a" d="M 750 794 
L 1409 794 
L 1409 0 
L 750 0 
L 750 794 
z
M 750 3309 
L 1409 3309 
L 1409 2516 
L 750 2516 
L 750 3309 
z
" transform="scale(0.015625)"/>
      <path id="DejaVuSans-36" d="M 2113 2584 
Q 1688 2584 1439 2293 
Q 1191 2003 1191 1497 
Q 1191 994 1439 701 
Q 1688 409 2113 409 
Q 2538 409 2786 701 
Q 3034 994 3034 1497 
Q 3034 2003 2786 2293 
Q 2538 2584 2113 2584 
z
M 3366 4563 
L 3366 3988 
Q 3128 4100 2886 4159 
Q 2644 4219 2406 4219 
Q 1781 4219 1451 3797 
Q 1122 3375 1075 2522 
Q 1259 2794 1537 2939 
Q 1816 3084 2150 3084 
Q 2853 3084 3261 2657 
Q 3669 2231 3669 1497 
Q 3669 778 3244 343 
Q 2819 -91 2113 -91 
Q 1303 -91 875 529 
Q 447 1150 447 2328 
Q 447 3434 972 4092 
Q 1497 4750 2381 4750 
Q 2619 4750 2861 4703 
Q 3103 4656 3366 4563 
z
" transform="scale(0.015625)"/>
     </defs>
     <use xlink:href="#DejaVuSans-47"/>
     <use xlink:href="#DejaVuSans-4f" transform="translate(77.490234 0)"/>
     <use xlink:href="#DejaVuSans-46" transform="translate(156.201172 0)"/>
     <use xlink:href="#DejaVuSans-20" transform="translate(213.720703 0)"/>
     <use xlink:href="#DejaVuSans-28" transform="translate(245.507812 0)"/>
     <use xlink:href="#DejaVuSans-52" transform="translate(284.521484 0)"/>
     <use xlink:href="#DejaVuSans-4d" transform="translate(354.003906 0)"/>
     <use xlink:href="#DejaVuSans-53" transform="translate(440.283203 0)"/>
     <use xlink:href="#DejaVuSans-45" transform="translate(503.759766 0)"/>
     <use xlink:href="#DejaVuSans-29" transform="translate(566.943359 0)"/>
     <use xlink:href="#DejaVuSans-3a" transform="translate(605.957031 0)"/>
     <use xlink:href="#DejaVuSans-20" transform="translate(639.648438 0)"/>
     <use xlink:href="#DejaVuSans-30" transform="translate(671.435547 0)"/>
     <use xlink:href="#DejaVuSans-2e" transform="translate(735.058594 0)"/>
     <use xlink:href="#DejaVuSans-30" transform="translate(766.845703 0)"/>
     <use xlink:href="#DejaVuSans-31" transform="translate(830.46875 0)"/>
     <use xlink:href="#DejaVuSans-36" transform="translate(894.091797 0)"/>
     <use xlink:href="#DejaVuSans-31" transform="translate(957.714844 0)"/>
     <use xlink:href="#DejaVuSans-36" transform="translate(1021.337891 0)"/>
    </g>
    <!-- Slope (non-scaled tT and y): 7.783e-04 ± 7.53e-06 -->
    <g transform="translate(31.131719 37.194062) scale(0.1 -0.1)">
     <defs>
      <path id="DejaVuSans-70" d="M 1159 525 
L 1159 -1331 
L 581 -1331 
L 581 3500 
L 1159 3500 
L 1159 2969 
Q 1341 3281 1617 3432 
Q 1894 3584 2278 3584 
Q 2916 3584 3314 3078 
Q 3713 2572 3713 1747 
Q 3713 922 3314 415 
Q 2916 -91 2278 -91 
Q 1894 -91 1617 61 
Q 1341 213 1159 525 
z
M 3116 1747 
Q 3116 2381 2855 2742 
Q 2594 3103 2138 3103 
Q 1681 3103 1420 2742 
Q 1159 2381 1159 1747 
Q 1159 1113 1420 752 
Q 1681 391 2138 391 
Q 2594 391 2855 752 
Q 3116 1113 3116 1747 
z
" transform="scale(0.015625)"/>
      <path id="DejaVuSans-6e" d="M 3513 2113 
L 3513 0 
L 2938 0 
L 2938 2094 
Q 2938 2591 2744 2837 
Q 2550 3084 2163 3084 
Q 1697 3084 1428 2787 
Q 1159 2491 1159 1978 
L 1159 0 
L 581 0 
L 581 3500 
L 1159 3500 
L 1159 2956 
Q 1366 3272 1645 3428 
Q 1925 3584 2291 3584 
Q 2894 3584 3203 3211 
Q 3513 2838 3513 2113 
z
" transform="scale(0.015625)"/>
      <path id="DejaVuSans-2d" d="M 313 2009 
L 1997 2009 
L 1997 1497 
L 313 1497 
L 313 2009 
z
" transform="scale(0.015625)"/>
      <path id="DejaVuSans-73" d="M 2834 3397 
L 2834 2853 
Q 2591 2978 2328 3040 
Q 2066 3103 1784 3103 
Q 1356 3103 1142 2972 
Q 928 2841 928 2578 
Q 928 2378 1081 2264 
Q 1234 2150 1697 2047 
L 1894 2003 
Q 2506 1872 2764 1633 
Q 3022 1394 3022 966 
Q 3022 478 2636 193 
Q 2250 -91 1575 -91 
Q 1294 -91 989 -36 
Q 684 19 347 128 
L 347 722 
Q 666 556 975 473 
Q 1284 391 1588 391 
Q 1994 391 2212 530 
Q 2431 669 2431 922 
Q 2431 1156 2273 1281 
Q 2116 1406 1581 1522 
L 1381 1569 
Q 847 1681 609 1914 
Q 372 2147 372 2553 
Q 372 3047 722 3315 
Q 1072 3584 1716 3584 
Q 2034 3584 2315 3537 
Q 2597 3491 2834 3397 
z
" transform="scale(0.015625)"/>
      <path id="DejaVuSans-54" d="M -19 4666 
L 3928 4666 
L 3928 4134 
L 2272 4134 
L 2272 0 
L 1638 0 
L 1638 4134 
L -19 4134 
L -19 4666 
z
" transform="scale(0.015625)"/>
      <path id="DejaVuSans-79" d="M 2059 -325 
Q 1816 -950 1584 -1140 
Q 1353 -1331 966 -1331 
L 506 -1331 
L 506 -850 
L 844 -850 
Q 1081 -850 1212 -737 
Q 1344 -625 1503 -206 
L 1606 56 
L 191 3500 
L 800 3500 
L 1894 763 
L 2988 3500 
L 3597 3500 
L 2059 -325 
z
" transform="scale(0.015625)"/>
      <path id="DejaVuSans-37" d="M 525 4666 
L 3525 4666 
L 3525 4397 
L 1831 0 
L 1172 0 
L 2766 4134 
L 525 4134 
L 525 4666 
z
" transform="scale(0.015625)"/>
      <path id="DejaVuSans-b1" d="M 2944 4013 
L 2944 2803 
L 4684 2803 
L 4684 2272 
L 2944 2272 
L 2944 1063 
L 2419 1063 
L 2419 2272 
L 678 2272 
L 678 2803 
L 2419 2803 
L 2419 4013 
L 2944 4013 
z
M 678 531 
L 4684 531 
L 4684 0 
L 678 0 
L 678 531 
z
" transform="scale(0.015625)"/>
     </defs>
     <use xlink:href="#DejaVuSans-53"/>
     <use xlink:href="#DejaVuSans-6c" transform="translate(63.476562 0)"/>
     <use xlink:href="#DejaVuSans-6f" transform="translate(91.259766 0)"/>
     <use xlink:href="#DejaVuSans-70" transform="translate(152.441406 0)"/>
     <use xlink:href="#DejaVuSans-65" transform="translate(215.917969 0)"/>
     <use xlink:href="#DejaVuSans-20" transform="translate(277.441406 0)"/>
     <use xlink:href="#DejaVuSans-28" transform="translate(309.228516 0)"/>
     <use xlink:href="#DejaVuSans-6e" transform="translate(348.242188 0)"/>
     <use xlink:href="#DejaVuSans-6f" transform="translate(411.621094 0)"/>
     <use xlink:href="#DejaVuSans-6e" transform="translate(472.802734 0)"/>
     <use xlink:href="#DejaVuSans-2d" transform="translate(536.181641 0)"/>
     <use xlink:href="#DejaVuSans-73" transform="translate(572.265625 0)"/>
     <use xlink:href="#DejaVuSans-63" transform="translate(624.365234 0)"/>
     <use xlink:href="#DejaVuSans-61" transform="translate(679.345703 0)"/>
     <use xlink:href="#DejaVuSans-6c" transform="translate(740.625 0)"/>
     <use xlink:href="#DejaVuSans-65" transform="translate(768.408203 0)"/>
     <use xlink:href="#DejaVuSans-64" transform="translate(829.931641 0)"/>
     <use xlink:href="#DejaVuSans-20" transform="translate(893.408203 0)"/>
     <use xlink:href="#DejaVuSans-74" transform="translate(925.195312 0)"/>
     <use xlink:href="#DejaVuSans-54" transform="translate(964.404297 0)"/>
     <use xlink:href="#DejaVuSans-20" transform="translate(1025.488281 0)"/>
     <use xlink:href="#DejaVuSans-61" transform="translate(1057.275391 0)"/>
     <use xlink:href="#DejaVuSans-6e" transform="translate(1118.554688 0)"/>
     <use xlink:href="#DejaVuSans-64" transform="translate(1181.933594 0)"/>
     <use xlink:href="#DejaVuSans-20" transform="translate(1245.410156 0)"/>
     <use xlink:href="#DejaVuSans-79" transform="translate(1277.197266 0)"/>
     <use xlink:href="#DejaVuSans-29" transform="translate(1336.376953 0)"/>
     <use xlink:href="#DejaVuSans-3a" transform="translate(1375.390625 0)"/>
     <use xlink:href="#DejaVuSans-20" transform="translate(1409.082031 0)"/>
     <use xlink:href="#DejaVuSans-37" transform="translate(1440.869141 0)"/>
     <use xlink:href="#DejaVuSans-2e" transform="translate(1504.492188 0)"/>
     <use xlink:href="#DejaVuSans-37" transform="translate(1536.279297 0)"/>
     <use xlink:href="#DejaVuSans-38" transform="translate(1599.902344 0)"/>
     <use xlink:href="#DejaVuSans-33" transform="translate(1663.525391 0)"/>
     <use xlink:href="#DejaVuSans-65" transform="translate(1727.148438 0)"/>
     <use xlink:href="#DejaVuSans-2d" transform="translate(1788.671875 0)"/>
     <use xlink:href="#DejaVuSans-30" transform="translate(1824.755859 0)"/>
     <use xlink:href="#DejaVuSans-34" transform="translate(1888.378906 0)"/>
     <use xlink:href="#DejaVuSans-20" transform="translate(1952.001953 0)"/>
     <use xlink:href="#DejaVuSans-b1" transform="translate(1983.789062 0)"/>
     <use xlink:href="#DejaVuSans-20" transform="translate(2067.578125 0)"/>
     <use xlink:href="#DejaVuSans-37" transform="translate(2099.365234 0)"/>
     <use xlink:href="#DejaVuSans-2e" transform="translate(2162.988281 0)"/>
     <use xlink:href="#DejaVuSans-35" transform="translate(2194.775391 0)"/>
     <use xlink:href="#DejaVuSans-33" transform="translate(2258.398438 0)"/>
     <use xlink:href="#DejaVuSans-65" transform="translate(2322.021484 0)"/>
     <use xlink:href="#DejaVuSans-2d" transform="translate(2383.544922 0)"/>
     <use xlink:href="#DejaVuSans-30" transform="translate(2419.628906 0)"/>
     <use xlink:href="#DejaVuSans-36" transform="translate(2483.251953 0)"/>
    </g>
   </g>
   <g id="legend_1">
    <g id="patch_7">
     <path d="M 50.78125 109.906562 
L 133.617188 109.906562 
Q 135.617188 109.906562 135.617188 107.906562 
L 135.617188 50.194062 
Q 135.617188 48.194062 133.617188 48.194062 
L 50.78125 48.194062 
Q 48.78125 48.194062 48.78125 50.194062 
L 48.78125 107.906562 
Q 48.78125 109.906562 50.78125 109.906562 
z
" style="fill: #ffffff; opacity: 0.8; stroke: #cccccc; stroke-linejoin: miter"/>
    </g>
    <g id="line2d_17">
     <path d="M 52.78125 56.2925 
L 62.78125 56.2925 
L 72.78125 56.2925 
" style="fill: none; stroke: #1f77b4; stroke-width: 0.7; stroke-linecap: square"/>
     <g>
      <use xlink:href="#mc5e6b94cb9" x="62.78125" y="56.2925" style="fill: #1f77b4; stroke: #1f77b4"/>
     </g>
    </g>
    <g id="text_16">
     <!-- Addition 1 -->
     <g transform="translate(80.78125 59.7925) scale(0.1 -0.1)">
      <defs>
       <path id="DejaVuSans-41" d="M 2188 4044 
L 1331 1722 
L 3047 1722 
L 2188 4044 
z
M 1831 4666 
L 2547 4666 
L 4325 0 
L 3669 0 
L 3244 1197 
L 1141 1197 
L 716 0 
L 50 0 
L 1831 4666 
z
" transform="scale(0.015625)"/>
      </defs>
      <use xlink:href="#DejaVuSans-41"/>
      <use xlink:href="#DejaVuSans-64" transform="translate(66.658203 0)"/>
      <use xlink:href="#DejaVuSans-64" transform="translate(130.134766 0)"/>
      <use xlink:href="#DejaVuSans-69" transform="translate(193.611328 0)"/>
      <use xlink:href="#DejaVuSans-74" transform="translate(221.394531 0)"/>
      <use xlink:href="#DejaVuSans-69" transform="translate(260.603516 0)"/>
      <use xlink:href="#DejaVuSans-6f" transform="translate(288.386719 0)"/>
      <use xlink:href="#DejaVuSans-6e" transform="translate(349.568359 0)"/>
      <use xlink:href="#DejaVuSans-20" transform="translate(412.947266 0)"/>
      <use xlink:href="#DejaVuSans-31" transform="translate(444.734375 0)"/>
     </g>
    </g>
    <g id="line2d_18">
     <path d="M 52.78125 70.970625 
L 62.78125 70.970625 
L 72.78125 70.970625 
" style="fill: none; stroke: #ff7f0e; stroke-width: 0.7; stroke-linecap: square"/>
     <g>
      <use xlink:href="#m6f68c1f988" x="62.78125" y="70.970625" style="fill: #ff7f0e; stroke: #ff7f0e"/>
     </g>
    </g>
    <g id="text_17">
     <!-- Addition 2 -->
     <g transform="translate(80.78125 74.470625) scale(0.1 -0.1)">
      <use xlink:href="#DejaVuSans-41"/>
      <use xlink:href="#DejaVuSans-64" transform="translate(66.658203 0)"/>
      <use xlink:href="#DejaVuSans-64" transform="translate(130.134766 0)"/>
      <use xlink:href="#DejaVuSans-69" transform="translate(193.611328 0)"/>
      <use xlink:href="#DejaVuSans-74" transform="translate(221.394531 0)"/>
      <use xlink:href="#DejaVuSans-69" transform="translate(260.603516 0)"/>
      <use xlink:href="#DejaVuSans-6f" transform="translate(288.386719 0)"/>
      <use xlink:href="#DejaVuSans-6e" transform="translate(349.568359 0)"/>
      <use xlink:href="#DejaVuSans-20" transform="translate(412.947266 0)"/>
      <use xlink:href="#DejaVuSans-32" transform="translate(444.734375 0)"/>
     </g>
    </g>
    <g id="line2d_19">
     <path d="M 52.78125 85.64875 
L 62.78125 85.64875 
L 72.78125 85.64875 
" style="fill: none; stroke: #2ca02c; stroke-width: 0.7; stroke-linecap: square"/>
     <g>
      <use xlink:href="#mccc9609ad8" x="62.78125" y="85.64875" style="fill: #2ca02c; stroke: #2ca02c"/>
     </g>
    </g>
    <g id="text_18">
     <!-- Addition 3 -->
     <g transform="translate(80.78125 89.14875) scale(0.1 -0.1)">
      <use xlink:href="#DejaVuSans-41"/>
      <use xlink:href="#DejaVuSans-64" transform="translate(66.658203 0)"/>
      <use xlink:href="#DejaVuSans-64" transform="translate(130.134766 0)"/>
      <use xlink:href="#DejaVuSans-69" transform="translate(193.611328 0)"/>
      <use xlink:href="#DejaVuSans-74" transform="translate(221.394531 0)"/>
      <use xlink:href="#DejaVuSans-69" transform="translate(260.603516 0)"/>
      <use xlink:href="#DejaVuSans-6f" transform="translate(288.386719 0)"/>
      <use xlink:href="#DejaVuSans-6e" transform="translate(349.568359 0)"/>
      <use xlink:href="#DejaVuSans-20" transform="translate(412.947266 0)"/>
      <use xlink:href="#DejaVuSans-33" transform="translate(444.734375 0)"/>
     </g>
    </g>
    <g id="line2d_20">
     <path d="M 52.78125 100.326875 
L 62.78125 100.326875 
L 72.78125 100.326875 
" style="fill: none; stroke: #d62728; stroke-width: 0.7; stroke-linecap: square"/>
     <g>
      <use xlink:href="#ma6de8a9650" x="62.78125" y="100.326875" style="fill: #d62728; stroke: #d62728"/>
     </g>
    </g>
    <g id="text_19">
     <!-- Addition 4 -->
     <g transform="translate(80.78125 103.826875) scale(0.1 -0.1)">
      <use xlink:href="#DejaVuSans-41"/>
      <use xlink:href="#DejaVuSans-64" transform="translate(66.658203 0)"/>
      <use xlink:href="#DejaVuSans-64" transform="translate(130.134766 0)"/>
      <use xlink:href="#DejaVuSans-69" transform="translate(193.611328 0)"/>
      <use xlink:href="#DejaVuSans-74" transform="translate(221.394531 0)"/>
      <use xlink:href="#DejaVuSans-69" transform="translate(260.603516 0)"/>
      <use xlink:href="#DejaVuSans-6f" transform="translate(288.386719 0)"/>
      <use xlink:href="#DejaVuSans-6e" transform="translate(349.568359 0)"/>
      <use xlink:href="#DejaVuSans-20" transform="translate(412.947266 0)"/>
      <use xlink:href="#DejaVuSans-34" transform="translate(444.734375 0)"/>
     </g>
    </g>
   </g>
   <g id="legend_2">
    <g id="patch_8">
     <path d="M 108.255156 185.650062 
L 208.697344 185.650062 
Q 210.697344 185.650062 210.697344 183.650062 
L 210.697344 158.774125 
Q 210.697344 156.774125 208.697344 156.774125 
L 108.255156 156.774125 
Q 106.255156 156.774125 106.255156 158.774125 
L 106.255156 183.650062 
Q 106.255156 185.650062 108.255156 185.650062 
z
" style="fill: #ffffff; opacity: 0.8; stroke: #cccccc; stroke-linejoin: miter"/>
    </g>
    <g id="line2d_21">
     <path d="M 110.255156 171.511312 
L 120.255156 171.511312 
L 130.255156 171.511312 
" style="fill: none; stroke-dasharray: 1.5,2.475; stroke-dashoffset: 0; stroke: #000000; stroke-width: 1.5"/>
    </g>
    <g id="text_20">
     <!-- 1. order -->
     <g transform="translate(138.255156 168.372562) scale(0.1 -0.1)">
      <use xlink:href="#DejaVuSans-31"/>
      <use xlink:href="#DejaVuSans-2e" transform="translate(63.623047 0)"/>
      <use xlink:href="#DejaVuSans-20" transform="translate(95.410156 0)"/>
      <use xlink:href="#DejaVuSans-6f" transform="translate(127.197266 0)"/>
      <use xlink:href="#DejaVuSans-72" transform="translate(188.378906 0)"/>
      <use xlink:href="#DejaVuSans-64" transform="translate(227.742188 0)"/>
      <use xlink:href="#DejaVuSans-65" transform="translate(291.21875 0)"/>
      <use xlink:href="#DejaVuSans-72" transform="translate(352.742188 0)"/>
     </g>
     <!-- polynomial fit -->
     <g transform="translate(138.255156 179.570375) scale(0.1 -0.1)">
      <defs>
       <path id="DejaVuSans-6d" d="M 3328 2828 
Q 3544 3216 3844 3400 
Q 4144 3584 4550 3584 
Q 5097 3584 5394 3201 
Q 5691 2819 5691 2113 
L 5691 0 
L 5113 0 
L 5113 2094 
Q 5113 2597 4934 2840 
Q 4756 3084 4391 3084 
Q 3944 3084 3684 2787 
Q 3425 2491 3425 1978 
L 3425 0 
L 2847 0 
L 2847 2094 
Q 2847 2600 2669 2842 
Q 2491 3084 2119 3084 
Q 1678 3084 1418 2786 
Q 1159 2488 1159 1978 
L 1159 0 
L 581 0 
L 581 3500 
L 1159 3500 
L 1159 2956 
Q 1356 3278 1631 3431 
Q 1906 3584 2284 3584 
Q 2666 3584 2933 3390 
Q 3200 3197 3328 2828 
z
" transform="scale(0.015625)"/>
      </defs>
      <use xlink:href="#DejaVuSans-70"/>
      <use xlink:href="#DejaVuSans-6f" transform="translate(63.476562 0)"/>
      <use xlink:href="#DejaVuSans-6c" transform="translate(124.658203 0)"/>
      <use xlink:href="#DejaVuSans-79" transform="translate(152.441406 0)"/>
      <use xlink:href="#DejaVuSans-6e" transform="translate(211.621094 0)"/>
      <use xlink:href="#DejaVuSans-6f" transform="translate(275 0)"/>
      <use xlink:href="#DejaVuSans-6d" transform="translate(336.181641 0)"/>
      <use xlink:href="#DejaVuSans-69" transform="translate(433.59375 0)"/>
      <use xlink:href="#DejaVuSans-61" transform="translate(461.376953 0)"/>
      <use xlink:href="#DejaVuSans-6c" transform="translate(522.65625 0)"/>
      <use xlink:href="#DejaVuSans-20" transform="translate(550.439453 0)"/>
      <use xlink:href="#DejaVuSans-66" transform="translate(582.226562 0)"/>
      <use xlink:href="#DejaVuSans-69" transform="translate(617.431641 0)"/>
      <use xlink:href="#DejaVuSans-74" transform="translate(645.214844 0)"/>
     </g>
    </g>
   </g>
  </g>
 </g>
 <defs>
  <clipPath id="p19b2f8b61a">
   <rect x="43.78125" y="43.194062" width="229.39" height="147.456"/>
  </clipPath>
 </defs>
</svg>
