<?xml version="1.0" encoding="utf-8" standalone="no"?>
<!DOCTYPE svg PUBLIC "-//W3C//DTD SVG 1.1//EN"
  "http://www.w3.org/Graphics/SVG/1.1/DTD/svg11.dtd">
<svg xmlns:xlink="http://www.w3.org/1999/xlink" width="360.88905pt" height="199.946125pt" viewBox="0 0 360.88905 199.946125" xmlns="http://www.w3.org/2000/svg" version="1.1">
 <metadata>
  <rdf:RDF xmlns:dc="http://purl.org/dc/elements/1.1/" xmlns:cc="http://creativecommons.org/ns#" xmlns:rdf="http://www.w3.org/1999/02/22-rdf-syntax-ns#">
   <cc:Work>
    <dc:type rdf:resource="http://purl.org/dc/dcmitype/StillImage"/>
    <dc:date>2026-01-13T17:04:23.622254</dc:date>
    <dc:format>image/svg+xml</dc:format>
    <dc:creator>
     <cc:Agent>
      <dc:title>Matplotlib v3.10.0, https://matplotlib.org/</dc:title>
     </cc:Agent>
    </dc:creator>
   </cc:Work>
  </rdf:RDF>
 </metadata>
 <defs>
  <style type="text/css">*{stroke-linejoin: round; stroke-linecap: butt}</style>
 </defs>
 <g id="figure_1">
  <g id="patch_1">
   <path d="M -0 199.946125 
L 360.88905 199.946125 
L 360.88905 0 
L -0 0 
z
" style="fill: #ffffff"/>
  </g>
  <g id="axes_1">
   <g id="patch_2">
    <path d="M 46.965625 161.568 
L 261.853113 161.568 
L 261.853113 7.2 
L 46.965625 7.2 
z
" style="fill: #ffffff"/>
   </g>
   <g id="matplotlib.axis_1">
    <g id="xtick_1">
     <g id="line2d_1">
      <defs>
       <path id="m7bf624517d" d="M 0 0 
L 0 3.5 
" style="stroke: #000000; stroke-width: 0.8"/>
      </defs>
      <g>
       <use xlink:href="#m7bf624517d" x="46.965625" y="161.568" style="stroke: #000000; stroke-width: 0.8"/>
      </g>
     </g>
     <g id="text_1">
      <!-- 0 -->
      <g transform="translate(43.784375 176.166437) scale(0.1 -0.1)">
       <defs>
        <path id="DejaVuSans-30" d="M 2034 4250 
Q 1547 4250 1301 3770 
Q 1056 3291 1056 2328 
Q 1056 1369 1301 889 
Q 1547 409 2034 409 
Q 2525 409 2770 889 
Q 3016 1369 3016 2328 
Q 3016 3291 2770 3770 
Q 2525 4250 2034 4250 
z
M 2034 4750 
Q 2819 4750 3233 4129 
Q 3647 3509 3647 2328 
Q 3647 1150 3233 529 
Q 2819 -91 2034 -91 
Q 1250 -91 836 529 
Q 422 1150 422 2328 
Q 422 3509 836 4129 
Q 1250 4750 2034 4750 
z
" transform="scale(0.015625)"/>
       </defs>
       <use xlink:href="#DejaVuSans-30"/>
      </g>
     </g>
    </g>
    <g id="xtick_2">
     <g id="line2d_2">
      <g>
       <use xlink:href="#m7bf624517d" x="88.163528" y="161.568" style="stroke: #000000; stroke-width: 0.8"/>
      </g>
     </g>
     <g id="text_2">
      <!-- 1 -->
      <g transform="translate(84.982278 176.166437) scale(0.1 -0.1)">
       <defs>
        <path id="DejaVuSans-31" d="M 794 531 
L 1825 531 
L 1825 4091 
L 703 3866 
L 703 4441 
L 1819 4666 
L 2450 4666 
L 2450 531 
L 3481 531 
L 3481 0 
L 794 0 
L 794 531 
z
" transform="scale(0.015625)"/>
       </defs>
       <use xlink:href="#DejaVuSans-31"/>
      </g>
     </g>
    </g>
    <g id="xtick_3">
     <g id="line2d_3">
      <g>
       <use xlink:href="#m7bf624517d" x="129.361431" y="161.568" style="stroke: #000000; stroke-width: 0.8"/>
      </g>
     </g>
     <g id="text_3">
      <!-- 2 -->
      <g transform="translate(126.180181 176.166437) scale(0.1 -0.1)">
       <defs>
        <path id="DejaVuSans-32" d="M 1228 531 
L 3431 531 
L 3431 0 
L 469 0 
L 469 531 
Q 828 903 1448 1529 
Q 2069 2156 2228 2338 
Q 2531 2678 2651 2914 
Q 2772 3150 2772 3378 
Q 2772 3750 2511 3984 
Q 2250 4219 1831 4219 
Q 1534 4219 1204 4116 
Q 875 4013 500 3803 
L 500 4441 
Q 881 4594 1212 4672 
Q 1544 4750 1819 4750 
Q 2544 4750 2975 4387 
Q 3406 4025 3406 3419 
Q 3406 3131 3298 2873 
Q 3191 2616 2906 2266 
Q 2828 2175 2409 1742 
Q 1991 1309 1228 531 
z
" transform="scale(0.015625)"/>
       </defs>
       <use xlink:href="#DejaVuSans-32"/>
      </g>
     </g>
    </g>
    <g id="xtick_4">
     <g id="line2d_4">
      <g>
       <use xlink:href="#m7bf624517d" x="170.559334" y="161.568" style="stroke: #000000; stroke-width: 0.8"/>
      </g>
     </g>
     <g id="text_4">
      <!-- 3 -->
      <g transform="translate(167.378084 176.166437) scale(0.1 -0.1)">
       <defs>
        <path id="DejaVuSans-33" d="M 2597 2516 
Q 3050 2419 3304 2112 
Q 3559 1806 3559 1356 
Q 3559 666 3084 287 
Q 2609 -91 1734 -91 
Q 1441 -91 1130 -33 
Q 819 25 488 141 
L 488 750 
Q 750 597 1062 519 
Q 1375 441 1716 441 
Q 2309 441 2620 675 
Q 2931 909 2931 1356 
Q 2931 1769 2642 2001 
Q 2353 2234 1838 2234 
L 1294 2234 
L 1294 2753 
L 1863 2753 
Q 2328 2753 2575 2939 
Q 2822 3125 2822 3475 
Q 2822 3834 2567 4026 
Q 2313 4219 1838 4219 
Q 1578 4219 1281 4162 
Q 984 4106 628 3988 
L 628 4550 
Q 988 4650 1302 4700 
Q 1616 4750 1894 4750 
Q 2613 4750 3031 4423 
Q 3450 4097 3450 3541 
Q 3450 3153 3228 2886 
Q 3006 2619 2597 2516 
z
" transform="scale(0.015625)"/>
       </defs>
       <use xlink:href="#DejaVuSans-33"/>
      </g>
     </g>
    </g>
    <g id="xtick_5">
     <g id="line2d_5">
      <g>
       <use xlink:href="#m7bf624517d" x="211.757237" y="161.568" style="stroke: #000000; stroke-width: 0.8"/>
      </g>
     </g>
     <g id="text_5">
      <!-- 4 -->
      <g transform="translate(208.575987 176.166437) scale(0.1 -0.1)">
       <defs>
        <path id="DejaVuSans-34" d="M 2419 4116 
L 825 1625 
L 2419 1625 
L 2419 4116 
z
M 2253 4666 
L 3047 4666 
L 3047 1625 
L 3713 1625 
L 3713 1100 
L 3047 1100 
L 3047 0 
L 2419 0 
L 2419 1100 
L 313 1100 
L 313 1709 
L 2253 4666 
z
" transform="scale(0.015625)"/>
       </defs>
       <use xlink:href="#DejaVuSans-34"/>
      </g>
     </g>
    </g>
    <g id="xtick_6">
     <g id="line2d_6">
      <g>
       <use xlink:href="#m7bf624517d" x="252.955141" y="161.568" style="stroke: #000000; stroke-width: 0.8"/>
      </g>
     </g>
     <g id="text_6">
      <!-- 5 -->
      <g transform="translate(249.773891 176.166437) scale(0.1 -0.1)">
       <defs>
        <path id="DejaVuSans-35" d="M 691 4666 
L 3169 4666 
L 3169 4134 
L 1269 4134 
L 1269 2991 
Q 1406 3038 1543 3061 
Q 1681 3084 1819 3084 
Q 2600 3084 3056 2656 
Q 3513 2228 3513 1497 
Q 3513 744 3044 326 
Q 2575 -91 1722 -91 
Q 1428 -91 1123 -41 
Q 819 9 494 109 
L 494 744 
Q 775 591 1075 516 
Q 1375 441 1709 441 
Q 2250 441 2565 725 
Q 2881 1009 2881 1497 
Q 2881 1984 2565 2268 
Q 2250 2553 1709 2553 
Q 1456 2553 1204 2497 
Q 953 2441 691 2322 
L 691 4666 
z
" transform="scale(0.015625)"/>
       </defs>
       <use xlink:href="#DejaVuSans-35"/>
      </g>
     </g>
    </g>
    <g id="text_7">
     <!-- $Σ[Amine]^{1.03}[Phenol]^{0.05}[ArOPh]^{1.00}Δt$. -->
     <g transform="translate(60.209369 190.666437) scale(0.1 -0.1)">
      <defs>
       <path id="DejaVuSans-3a3" d="M 1353 531 
L 3634 531 
L 3634 0 
L 628 0 
L 628 531 
L 2125 2481 
L 628 4134 
L 628 4666 
L 3578 4666 
L 3578 4134 
L 1353 4134 
L 2850 2494 
L 1353 531 
z
" transform="scale(0.015625)"/>
       <path id="DejaVuSans-5b" d="M 550 4863 
L 1875 4863 
L 1875 4416 
L 1125 4416 
L 1125 -397 
L 1875 -397 
L 1875 -844 
L 550 -844 
L 550 4863 
z
" transform="scale(0.015625)"/>
       <path id="DejaVuSans-Oblique-41" d="M 2356 4666 
L 3072 4666 
L 3938 0 
L 3278 0 
L 3084 1197 
L 984 1197 
L 325 0 
L -341 0 
L 2356 4666 
z
M 2584 4044 
L 1275 1722 
L 2988 1722 
L 2584 4044 
z
" transform="scale(0.015625)"/>
       <path id="DejaVuSans-Oblique-6d" d="M 5747 2113 
L 5338 0 
L 4763 0 
L 5166 2094 
Q 5191 2228 5203 2325 
Q 5216 2422 5216 2491 
Q 5216 2772 5059 2928 
Q 4903 3084 4622 3084 
Q 4203 3084 3875 2770 
Q 3547 2456 3450 1953 
L 3066 0 
L 2491 0 
L 2900 2094 
Q 2925 2209 2937 2307 
Q 2950 2406 2950 2484 
Q 2950 2769 2794 2926 
Q 2638 3084 2363 3084 
Q 1938 3084 1609 2770 
Q 1281 2456 1184 1953 
L 800 0 
L 225 0 
L 909 3500 
L 1484 3500 
L 1375 2956 
Q 1609 3263 1923 3423 
Q 2238 3584 2597 3584 
Q 2978 3584 3223 3384 
Q 3469 3184 3519 2828 
Q 3781 3197 4126 3390 
Q 4472 3584 4856 3584 
Q 5306 3584 5551 3325 
Q 5797 3066 5797 2591 
Q 5797 2488 5784 2364 
Q 5772 2241 5747 2113 
z
" transform="scale(0.015625)"/>
       <path id="DejaVuSans-Oblique-69" d="M 1172 4863 
L 1747 4863 
L 1606 4134 
L 1031 4134 
L 1172 4863 
z
M 909 3500 
L 1484 3500 
L 800 0 
L 225 0 
L 909 3500 
z
" transform="scale(0.015625)"/>
       <path id="DejaVuSans-Oblique-6e" d="M 3566 2113 
L 3156 0 
L 2578 0 
L 2988 2091 
Q 3016 2238 3031 2350 
Q 3047 2463 3047 2528 
Q 3047 2791 2881 2937 
Q 2716 3084 2419 3084 
Q 1956 3084 1622 2776 
Q 1288 2469 1184 1941 
L 800 0 
L 225 0 
L 903 3500 
L 1478 3500 
L 1363 2950 
Q 1603 3253 1940 3418 
Q 2278 3584 2650 3584 
Q 3113 3584 3367 3334 
Q 3622 3084 3622 2631 
Q 3622 2519 3608 2391 
Q 3594 2263 3566 2113 
z
" transform="scale(0.015625)"/>
       <path id="DejaVuSans-Oblique-65" d="M 3078 2063 
Q 3088 2113 3092 2166 
Q 3097 2219 3097 2272 
Q 3097 2653 2873 2875 
Q 2650 3097 2266 3097 
Q 1838 3097 1509 2826 
Q 1181 2556 1013 2059 
L 3078 2063 
z
M 3578 1613 
L 903 1613 
Q 884 1494 878 1425 
Q 872 1356 872 1306 
Q 872 872 1139 634 
Q 1406 397 1894 397 
Q 2269 397 2603 481 
Q 2938 566 3225 728 
L 3116 159 
Q 2806 34 2476 -28 
Q 2147 -91 1806 -91 
Q 1078 -91 686 257 
Q 294 606 294 1247 
Q 294 1794 489 2264 
Q 684 2734 1063 3103 
Q 1306 3334 1642 3459 
Q 1978 3584 2356 3584 
Q 2950 3584 3301 3228 
Q 3653 2872 3653 2272 
Q 3653 2128 3634 1964 
Q 3616 1800 3578 1613 
z
" transform="scale(0.015625)"/>
       <path id="DejaVuSans-5d" d="M 1947 4863 
L 1947 -844 
L 622 -844 
L 622 -397 
L 1369 -397 
L 1369 4416 
L 622 4416 
L 622 4863 
L 1947 4863 
z
" transform="scale(0.015625)"/>
       <path id="DejaVuSans-2e" d="M 684 794 
L 1344 794 
L 1344 0 
L 684 0 
L 684 794 
z
" transform="scale(0.015625)"/>
       <path id="DejaVuSans-Oblique-50" d="M 1081 4666 
L 2541 4666 
Q 3178 4666 3512 4369 
Q 3847 4072 3847 3500 
Q 3847 2731 3353 2303 
Q 2859 1875 1966 1875 
L 1172 1875 
L 806 0 
L 172 0 
L 1081 4666 
z
M 1613 4147 
L 1275 2394 
L 2069 2394 
Q 2606 2394 2893 2669 
Q 3181 2944 3181 3456 
Q 3181 3784 2986 3965 
Q 2791 4147 2438 4147 
L 1613 4147 
z
" transform="scale(0.015625)"/>
       <path id="DejaVuSans-Oblique-68" d="M 3566 2113 
L 3156 0 
L 2578 0 
L 2988 2091 
Q 3016 2238 3031 2350 
Q 3047 2463 3047 2528 
Q 3047 2791 2881 2937 
Q 2716 3084 2419 3084 
Q 1956 3084 1617 2771 
Q 1278 2459 1178 1941 
L 800 0 
L 225 0 
L 1172 4863 
L 1747 4863 
L 1375 2950 
Q 1594 3244 1934 3414 
Q 2275 3584 2650 3584 
Q 3113 3584 3367 3334 
Q 3622 3084 3622 2631 
Q 3622 2519 3608 2391 
Q 3594 2263 3566 2113 
z
" transform="scale(0.015625)"/>
       <path id="DejaVuSans-Oblique-6f" d="M 1625 -91 
Q 1009 -91 651 289 
Q 294 669 294 1325 
Q 294 1706 417 2101 
Q 541 2497 738 2766 
Q 1047 3184 1428 3384 
Q 1809 3584 2291 3584 
Q 2888 3584 3255 3212 
Q 3622 2841 3622 2241 
Q 3622 1825 3500 1412 
Q 3378 1000 3181 728 
Q 2875 309 2494 109 
Q 2113 -91 1625 -91 
z
M 891 1344 
Q 891 869 1089 633 
Q 1288 397 1691 397 
Q 2269 397 2648 901 
Q 3028 1406 3028 2181 
Q 3028 2634 2825 2865 
Q 2622 3097 2228 3097 
Q 1903 3097 1650 2945 
Q 1397 2794 1197 2484 
Q 1050 2253 970 1956 
Q 891 1659 891 1344 
z
" transform="scale(0.015625)"/>
       <path id="DejaVuSans-Oblique-6c" d="M 1172 4863 
L 1747 4863 
L 800 0 
L 225 0 
L 1172 4863 
z
" transform="scale(0.015625)"/>
       <path id="DejaVuSans-Oblique-72" d="M 2853 2969 
Q 2766 3016 2653 3041 
Q 2541 3066 2413 3066 
Q 1953 3066 1609 2717 
Q 1266 2369 1153 1784 
L 800 0 
L 225 0 
L 909 3500 
L 1484 3500 
L 1375 2956 
Q 1603 3259 1920 3421 
Q 2238 3584 2597 3584 
Q 2691 3584 2781 3573 
Q 2872 3563 2963 3538 
L 2853 2969 
z
" transform="scale(0.015625)"/>
       <path id="DejaVuSans-Oblique-4f" d="M 2919 4238 
Q 2400 4238 2003 3986 
Q 1606 3734 1313 3219 
Q 1125 2891 1026 2522 
Q 928 2153 928 1778 
Q 928 1128 1239 775 
Q 1550 422 2119 422 
Q 2631 422 3032 676 
Q 3434 931 3719 1434 
Q 3909 1772 4009 2142 
Q 4109 2513 4109 2881 
Q 4109 3528 3796 3883 
Q 3484 4238 2919 4238 
z
M 2100 -91 
Q 1241 -91 748 418 
Q 256 928 256 1813 
Q 256 2319 448 2847 
Q 641 3375 978 3788 
Q 1375 4272 1862 4511 
Q 2350 4750 2938 4750 
Q 3794 4750 4287 4245 
Q 4781 3741 4781 2869 
Q 4781 2331 4593 1812 
Q 4406 1294 4056 872 
Q 3656 384 3173 146 
Q 2691 -91 2100 -91 
z
" transform="scale(0.015625)"/>
       <path id="DejaVuSans-394" d="M 2188 4044 
L 906 525 
L 3472 525 
L 2188 4044 
z
M 50 0 
L 1831 4666 
L 2547 4666 
L 4325 0 
L 50 0 
z
" transform="scale(0.015625)"/>
       <path id="DejaVuSans-Oblique-74" d="M 2706 3500 
L 2619 3053 
L 1472 3053 
L 1100 1153 
Q 1081 1047 1072 975 
Q 1063 903 1063 863 
Q 1063 663 1183 572 
Q 1303 481 1569 481 
L 2150 481 
L 2053 0 
L 1503 0 
Q 991 0 739 200 
Q 488 400 488 806 
Q 488 878 497 964 
Q 506 1050 525 1153 
L 897 3053 
L 409 3053 
L 500 3500 
L 978 3500 
L 1172 4494 
L 1747 4494 
L 1556 3500 
L 2706 3500 
z
" transform="scale(0.015625)"/>
      </defs>
      <use xlink:href="#DejaVuSans-3a3" transform="translate(0 0.765625)"/>
      <use xlink:href="#DejaVuSans-5b" transform="translate(63.183594 0.765625)"/>
      <use xlink:href="#DejaVuSans-Oblique-41" transform="translate(102.197266 0.765625)"/>
      <use xlink:href="#DejaVuSans-Oblique-6d" transform="translate(170.605469 0.765625)"/>
      <use xlink:href="#DejaVuSans-Oblique-69" transform="translate(268.017578 0.765625)"/>
      <use xlink:href="#DejaVuSans-Oblique-6e" transform="translate(295.800781 0.765625)"/>
      <use xlink:href="#DejaVuSans-Oblique-65" transform="translate(359.179688 0.765625)"/>
      <use xlink:href="#DejaVuSans-5d" transform="translate(420.703125 0.765625)"/>
      <use xlink:href="#DejaVuSans-31" transform="translate(460.673828 39.046875) scale(0.7)"/>
      <use xlink:href="#DejaVuSans-2e" transform="translate(505.209961 39.046875) scale(0.7)"/>
      <use xlink:href="#DejaVuSans-30" transform="translate(527.460938 39.046875) scale(0.7)"/>
      <use xlink:href="#DejaVuSans-33" transform="translate(571.99707 39.046875) scale(0.7)"/>
      <use xlink:href="#DejaVuSans-5b" transform="translate(619.267578 0.765625)"/>
      <use xlink:href="#DejaVuSans-Oblique-50" transform="translate(658.28125 0.765625)"/>
      <use xlink:href="#DejaVuSans-Oblique-68" transform="translate(718.583984 0.765625)"/>
      <use xlink:href="#DejaVuSans-Oblique-65" transform="translate(781.962891 0.765625)"/>
      <use xlink:href="#DejaVuSans-Oblique-6e" transform="translate(843.486328 0.765625)"/>
      <use xlink:href="#DejaVuSans-Oblique-6f" transform="translate(906.865234 0.765625)"/>
      <use xlink:href="#DejaVuSans-Oblique-6c" transform="translate(968.046875 0.765625)"/>
      <use xlink:href="#DejaVuSans-5d" transform="translate(995.830078 0.765625)"/>
      <use xlink:href="#DejaVuSans-30" transform="translate(1035.800781 39.046875) scale(0.7)"/>
      <use xlink:href="#DejaVuSans-2e" transform="translate(1080.336914 39.046875) scale(0.7)"/>
      <use xlink:href="#DejaVuSans-30" transform="translate(1102.587891 39.046875) scale(0.7)"/>
      <use xlink:href="#DejaVuSans-35" transform="translate(1147.124023 39.046875) scale(0.7)"/>
      <use xlink:href="#DejaVuSans-5b" transform="translate(1194.394531 0.765625)"/>
      <use xlink:href="#DejaVuSans-Oblique-41" transform="translate(1233.408203 0.765625)"/>
      <use xlink:href="#DejaVuSans-Oblique-72" transform="translate(1301.816406 0.765625)"/>
      <use xlink:href="#DejaVuSans-Oblique-4f" transform="translate(1342.929688 0.765625)"/>
      <use xlink:href="#DejaVuSans-Oblique-50" transform="translate(1421.640625 0.765625)"/>
      <use xlink:href="#DejaVuSans-Oblique-68" transform="translate(1481.943359 0.765625)"/>
      <use xlink:href="#DejaVuSans-5d" transform="translate(1545.322266 0.765625)"/>
      <use xlink:href="#DejaVuSans-31" transform="translate(1585.292969 39.046875) scale(0.7)"/>
      <use xlink:href="#DejaVuSans-2e" transform="translate(1629.829102 39.046875) scale(0.7)"/>
      <use xlink:href="#DejaVuSans-30" transform="translate(1652.080078 39.046875) scale(0.7)"/>
      <use xlink:href="#DejaVuSans-30" transform="translate(1696.616211 39.046875) scale(0.7)"/>
      <use xlink:href="#DejaVuSans-394" transform="translate(1743.886719 0.765625)"/>
      <use xlink:href="#DejaVuSans-Oblique-74" transform="translate(1812.294922 0.765625)"/>
      <use xlink:href="#DejaVuSans-2e" transform="translate(1851.503906 0.765625)"/>
     </g>
    </g>
    <g id="text_8">
     <!-- 1e4 -->
     <g transform="translate(256.942674 188.844562) scale(0.1 -0.1)">
      <defs>
       <path id="DejaVuSans-65" d="M 3597 1894 
L 3597 1613 
L 953 1613 
Q 991 1019 1311 708 
Q 1631 397 2203 397 
Q 2534 397 2845 478 
Q 3156 559 3463 722 
L 3463 178 
Q 3153 47 2828 -22 
Q 2503 -91 2169 -91 
Q 1331 -91 842 396 
Q 353 884 353 1716 
Q 353 2575 817 3079 
Q 1281 3584 2069 3584 
Q 2775 3584 3186 3129 
Q 3597 2675 3597 1894 
z
M 3022 2063 
Q 3016 2534 2758 2815 
Q 2500 3097 2075 3097 
Q 1594 3097 1305 2825 
Q 1016 2553 972 2059 
L 3022 2063 
z
" transform="scale(0.015625)"/>
      </defs>
      <use xlink:href="#DejaVuSans-31"/>
      <use xlink:href="#DejaVuSans-65" transform="translate(63.623047 0)"/>
      <use xlink:href="#DejaVuSans-34" transform="translate(125.146484 0)"/>
     </g>
    </g>
   </g>
   <g id="matplotlib.axis_2">
    <g id="ytick_1">
     <g id="line2d_7">
      <defs>
       <path id="m6547180f94" d="M 0 0 
L -3.5 0 
" style="stroke: #000000; stroke-width: 0.8"/>
      </defs>
      <g>
       <use xlink:href="#m6547180f94" x="46.965625" y="142.819911" style="stroke: #000000; stroke-width: 0.8"/>
      </g>
     </g>
     <g id="text_9">
      <!-- 80 -->
      <g transform="translate(27.240625 146.619129) scale(0.1 -0.1)">
       <defs>
        <path id="DejaVuSans-38" d="M 2034 2216 
Q 1584 2216 1326 1975 
Q 1069 1734 1069 1313 
Q 1069 891 1326 650 
Q 1584 409 2034 409 
Q 2484 409 2743 651 
Q 3003 894 3003 1313 
Q 3003 1734 2745 1975 
Q 2488 2216 2034 2216 
z
M 1403 2484 
Q 997 2584 770 2862 
Q 544 3141 544 3541 
Q 544 4100 942 4425 
Q 1341 4750 2034 4750 
Q 2731 4750 3128 4425 
Q 3525 4100 3525 3541 
Q 3525 3141 3298 2862 
Q 3072 2584 2669 2484 
Q 3125 2378 3379 2068 
Q 3634 1759 3634 1313 
Q 3634 634 3220 271 
Q 2806 -91 2034 -91 
Q 1263 -91 848 271 
Q 434 634 434 1313 
Q 434 1759 690 2068 
Q 947 2378 1403 2484 
z
M 1172 3481 
Q 1172 3119 1398 2916 
Q 1625 2713 2034 2713 
Q 2441 2713 2670 2916 
Q 2900 3119 2900 3481 
Q 2900 3844 2670 4047 
Q 2441 4250 2034 4250 
Q 1625 4250 1398 4047 
Q 1172 3844 1172 3481 
z
" transform="scale(0.015625)"/>
       </defs>
       <use xlink:href="#DejaVuSans-38"/>
       <use xlink:href="#DejaVuSans-30" transform="translate(63.623047 0)"/>
      </g>
     </g>
    </g>
    <g id="ytick_2">
     <g id="line2d_8">
      <g>
       <use xlink:href="#m6547180f94" x="46.965625" y="108.43897" style="stroke: #000000; stroke-width: 0.8"/>
      </g>
     </g>
     <g id="text_10">
      <!-- 90 -->
      <g transform="translate(27.240625 112.238188) scale(0.1 -0.1)">
       <defs>
        <path id="DejaVuSans-39" d="M 703 97 
L 703 672 
Q 941 559 1184 500 
Q 1428 441 1663 441 
Q 2288 441 2617 861 
Q 2947 1281 2994 2138 
Q 2813 1869 2534 1725 
Q 2256 1581 1919 1581 
Q 1219 1581 811 2004 
Q 403 2428 403 3163 
Q 403 3881 828 4315 
Q 1253 4750 1959 4750 
Q 2769 4750 3195 4129 
Q 3622 3509 3622 2328 
Q 3622 1225 3098 567 
Q 2575 -91 1691 -91 
Q 1453 -91 1209 -44 
Q 966 3 703 97 
z
M 1959 2075 
Q 2384 2075 2632 2365 
Q 2881 2656 2881 3163 
Q 2881 3666 2632 3958 
Q 2384 4250 1959 4250 
Q 1534 4250 1286 3958 
Q 1038 3666 1038 3163 
Q 1038 2656 1286 2365 
Q 1534 2075 1959 2075 
z
" transform="scale(0.015625)"/>
       </defs>
       <use xlink:href="#DejaVuSans-39"/>
       <use xlink:href="#DejaVuSans-30" transform="translate(63.623047 0)"/>
      </g>
     </g>
    </g>
    <g id="ytick_3">
     <g id="line2d_9">
      <g>
       <use xlink:href="#m6547180f94" x="46.965625" y="74.058029" style="stroke: #000000; stroke-width: 0.8"/>
      </g>
     </g>
     <g id="text_11">
      <!-- 100 -->
      <g transform="translate(20.878125 77.857247) scale(0.1 -0.1)">
       <use xlink:href="#DejaVuSans-31"/>
       <use xlink:href="#DejaVuSans-30" transform="translate(63.623047 0)"/>
       <use xlink:href="#DejaVuSans-30" transform="translate(127.246094 0)"/>
      </g>
     </g>
    </g>
    <g id="ytick_4">
     <g id="line2d_10">
      <g>
       <use xlink:href="#m6547180f94" x="46.965625" y="39.677088" style="stroke: #000000; stroke-width: 0.8"/>
      </g>
     </g>
     <g id="text_12">
      <!-- 110 -->
      <g transform="translate(20.878125 43.476306) scale(0.1 -0.1)">
       <use xlink:href="#DejaVuSans-31"/>
       <use xlink:href="#DejaVuSans-31" transform="translate(63.623047 0)"/>
       <use xlink:href="#DejaVuSans-30" transform="translate(127.246094 0)"/>
      </g>
     </g>
    </g>
    <g id="text_13">
     <!-- Shifted [Product] / mM -->
     <g transform="translate(14.798438 140.519156) rotate(-90) scale(0.1 -0.1)">
      <defs>
       <path id="DejaVuSans-53" d="M 3425 4513 
L 3425 3897 
Q 3066 4069 2747 4153 
Q 2428 4238 2131 4238 
Q 1616 4238 1336 4038 
Q 1056 3838 1056 3469 
Q 1056 3159 1242 3001 
Q 1428 2844 1947 2747 
L 2328 2669 
Q 3034 2534 3370 2195 
Q 3706 1856 3706 1288 
Q 3706 609 3251 259 
Q 2797 -91 1919 -91 
Q 1588 -91 1214 -16 
Q 841 59 441 206 
L 441 856 
Q 825 641 1194 531 
Q 1563 422 1919 422 
Q 2459 422 2753 634 
Q 3047 847 3047 1241 
Q 3047 1584 2836 1778 
Q 2625 1972 2144 2069 
L 1759 2144 
Q 1053 2284 737 2584 
Q 422 2884 422 3419 
Q 422 4038 858 4394 
Q 1294 4750 2059 4750 
Q 2388 4750 2728 4690 
Q 3069 4631 3425 4513 
z
" transform="scale(0.015625)"/>
       <path id="DejaVuSans-68" d="M 3513 2113 
L 3513 0 
L 2938 0 
L 2938 2094 
Q 2938 2591 2744 2837 
Q 2550 3084 2163 3084 
Q 1697 3084 1428 2787 
Q 1159 2491 1159 1978 
L 1159 0 
L 581 0 
L 581 4863 
L 1159 4863 
L 1159 2956 
Q 1366 3272 1645 3428 
Q 1925 3584 2291 3584 
Q 2894 3584 3203 3211 
Q 3513 2838 3513 2113 
z
" transform="scale(0.015625)"/>
       <path id="DejaVuSans-69" d="M 603 3500 
L 1178 3500 
L 1178 0 
L 603 0 
L 603 3500 
z
M 603 4863 
L 1178 4863 
L 1178 4134 
L 603 4134 
L 603 4863 
z
" transform="scale(0.015625)"/>
       <path id="DejaVuSans-66" d="M 2375 4863 
L 2375 4384 
L 1825 4384 
Q 1516 4384 1395 4259 
Q 1275 4134 1275 3809 
L 1275 3500 
L 2222 3500 
L 2222 3053 
L 1275 3053 
L 1275 0 
L 697 0 
L 697 3053 
L 147 3053 
L 147 3500 
L 697 3500 
L 697 3744 
Q 697 4328 969 4595 
Q 1241 4863 1831 4863 
L 2375 4863 
z
" transform="scale(0.015625)"/>
       <path id="DejaVuSans-74" d="M 1172 4494 
L 1172 3500 
L 2356 3500 
L 2356 3053 
L 1172 3053 
L 1172 1153 
Q 1172 725 1289 603 
Q 1406 481 1766 481 
L 2356 481 
L 2356 0 
L 1766 0 
Q 1100 0 847 248 
Q 594 497 594 1153 
L 594 3053 
L 172 3053 
L 172 3500 
L 594 3500 
L 594 4494 
L 1172 4494 
z
" transform="scale(0.015625)"/>
       <path id="DejaVuSans-64" d="M 2906 2969 
L 2906 4863 
L 3481 4863 
L 3481 0 
L 2906 0 
L 2906 525 
Q 2725 213 2448 61 
Q 2172 -91 1784 -91 
Q 1150 -91 751 415 
Q 353 922 353 1747 
Q 353 2572 751 3078 
Q 1150 3584 1784 3584 
Q 2172 3584 2448 3432 
Q 2725 3281 2906 2969 
z
M 947 1747 
Q 947 1113 1208 752 
Q 1469 391 1925 391 
Q 2381 391 2643 752 
Q 2906 1113 2906 1747 
Q 2906 2381 2643 2742 
Q 2381 3103 1925 3103 
Q 1469 3103 1208 2742 
Q 947 2381 947 1747 
z
" transform="scale(0.015625)"/>
       <path id="DejaVuSans-20" transform="scale(0.015625)"/>
       <path id="DejaVuSans-50" d="M 1259 4147 
L 1259 2394 
L 2053 2394 
Q 2494 2394 2734 2622 
Q 2975 2850 2975 3272 
Q 2975 3691 2734 3919 
Q 2494 4147 2053 4147 
L 1259 4147 
z
M 628 4666 
L 2053 4666 
Q 2838 4666 3239 4311 
Q 3641 3956 3641 3272 
Q 3641 2581 3239 2228 
Q 2838 1875 2053 1875 
L 1259 1875 
L 1259 0 
L 628 0 
L 628 4666 
z
" transform="scale(0.015625)"/>
       <path id="DejaVuSans-72" d="M 2631 2963 
Q 2534 3019 2420 3045 
Q 2306 3072 2169 3072 
Q 1681 3072 1420 2755 
Q 1159 2438 1159 1844 
L 1159 0 
L 581 0 
L 581 3500 
L 1159 3500 
L 1159 2956 
Q 1341 3275 1631 3429 
Q 1922 3584 2338 3584 
Q 2397 3584 2469 3576 
Q 2541 3569 2628 3553 
L 2631 2963 
z
" transform="scale(0.015625)"/>
       <path id="DejaVuSans-6f" d="M 1959 3097 
Q 1497 3097 1228 2736 
Q 959 2375 959 1747 
Q 959 1119 1226 758 
Q 1494 397 1959 397 
Q 2419 397 2687 759 
Q 2956 1122 2956 1747 
Q 2956 2369 2687 2733 
Q 2419 3097 1959 3097 
z
M 1959 3584 
Q 2709 3584 3137 3096 
Q 3566 2609 3566 1747 
Q 3566 888 3137 398 
Q 2709 -91 1959 -91 
Q 1206 -91 779 398 
Q 353 888 353 1747 
Q 353 2609 779 3096 
Q 1206 3584 1959 3584 
z
" transform="scale(0.015625)"/>
       <path id="DejaVuSans-75" d="M 544 1381 
L 544 3500 
L 1119 3500 
L 1119 1403 
Q 1119 906 1312 657 
Q 1506 409 1894 409 
Q 2359 409 2629 706 
Q 2900 1003 2900 1516 
L 2900 3500 
L 3475 3500 
L 3475 0 
L 2900 0 
L 2900 538 
Q 2691 219 2414 64 
Q 2138 -91 1772 -91 
Q 1169 -91 856 284 
Q 544 659 544 1381 
z
M 1991 3584 
L 1991 3584 
z
" transform="scale(0.015625)"/>
       <path id="DejaVuSans-63" d="M 3122 3366 
L 3122 2828 
Q 2878 2963 2633 3030 
Q 2388 3097 2138 3097 
Q 1578 3097 1268 2742 
Q 959 2388 959 1747 
Q 959 1106 1268 751 
Q 1578 397 2138 397 
Q 2388 397 2633 464 
Q 2878 531 3122 666 
L 3122 134 
Q 2881 22 2623 -34 
Q 2366 -91 2075 -91 
Q 1284 -91 818 406 
Q 353 903 353 1747 
Q 353 2603 823 3093 
Q 1294 3584 2113 3584 
Q 2378 3584 2631 3529 
Q 2884 3475 3122 3366 
z
" transform="scale(0.015625)"/>
       <path id="DejaVuSans-2f" d="M 1625 4666 
L 2156 4666 
L 531 -594 
L 0 -594 
L 1625 4666 
z
" transform="scale(0.015625)"/>
       <path id="DejaVuSans-6d" d="M 3328 2828 
Q 3544 3216 3844 3400 
Q 4144 3584 4550 3584 
Q 5097 3584 5394 3201 
Q 5691 2819 5691 2113 
L 5691 0 
L 5113 0 
L 5113 2094 
Q 5113 2597 4934 2840 
Q 4756 3084 4391 3084 
Q 3944 3084 3684 2787 
Q 3425 2491 3425 1978 
L 3425 0 
L 2847 0 
L 2847 2094 
Q 2847 2600 2669 2842 
Q 2491 3084 2119 3084 
Q 1678 3084 1418 2786 
Q 1159 2488 1159 1978 
L 1159 0 
L 581 0 
L 581 3500 
L 1159 3500 
L 1159 2956 
Q 1356 3278 1631 3431 
Q 1906 3584 2284 3584 
Q 2666 3584 2933 3390 
Q 3200 3197 3328 2828 
z
" transform="scale(0.015625)"/>
       <path id="DejaVuSans-4d" d="M 628 4666 
L 1569 4666 
L 2759 1491 
L 3956 4666 
L 4897 4666 
L 4897 0 
L 4281 0 
L 4281 4097 
L 3078 897 
L 2444 897 
L 1241 4097 
L 1241 0 
L 628 0 
L 628 4666 
z
" transform="scale(0.015625)"/>
      </defs>
      <use xlink:href="#DejaVuSans-53"/>
      <use xlink:href="#DejaVuSans-68" transform="translate(63.476562 0)"/>
      <use xlink:href="#DejaVuSans-69" transform="translate(126.855469 0)"/>
      <use xlink:href="#DejaVuSans-66" transform="translate(154.638672 0)"/>
      <use xlink:href="#DejaVuSans-74" transform="translate(188.09375 0)"/>
      <use xlink:href="#DejaVuSans-65" transform="translate(227.302734 0)"/>
      <use xlink:href="#DejaVuSans-64" transform="translate(288.826172 0)"/>
      <use xlink:href="#DejaVuSans-20" transform="translate(352.302734 0)"/>
      <use xlink:href="#DejaVuSans-5b" transform="translate(384.089844 0)"/>
      <use xlink:href="#DejaVuSans-50" transform="translate(423.103516 0)"/>
      <use xlink:href="#DejaVuSans-72" transform="translate(481.65625 0)"/>
      <use xlink:href="#DejaVuSans-6f" transform="translate(520.519531 0)"/>
      <use xlink:href="#DejaVuSans-64" transform="translate(581.701172 0)"/>
      <use xlink:href="#DejaVuSans-75" transform="translate(645.177734 0)"/>
      <use xlink:href="#DejaVuSans-63" transform="translate(708.556641 0)"/>
      <use xlink:href="#DejaVuSans-74" transform="translate(763.537109 0)"/>
      <use xlink:href="#DejaVuSans-5d" transform="translate(802.746094 0)"/>
      <use xlink:href="#DejaVuSans-20" transform="translate(841.759766 0)"/>
      <use xlink:href="#DejaVuSans-2f" transform="translate(873.546875 0)"/>
      <use xlink:href="#DejaVuSans-20" transform="translate(907.238281 0)"/>
      <use xlink:href="#DejaVuSans-6d" transform="translate(939.025391 0)"/>
      <use xlink:href="#DejaVuSans-4d" transform="translate(1036.4375 0)"/>
     </g>
    </g>
   </g>
   <g id="line2d_11">
    <path d="M 46.965672 154.551273 
L 51.948475 148.325543 
L 56.946719 142.672504 
L 61.629575 137.702839 
L 66.084295 133.062103 
L 70.472841 129.020985 
L 74.55164 124.595411 
L 78.404294 120.755541 
L 82.221295 117.677128 
L 85.77402 114.78569 
L 89.178377 111.399631 
L 92.506589 107.314923 
L 95.57378 105.101075 
L 98.530657 102.60343 
L 101.408724 101.024851 
L 104.231672 97.811332 
L 106.862682 96.063573 
L 109.402956 93.574025 
L 111.919851 91.653656 
L 114.295348 90.528814 
L 116.599414 88.704428 
L 118.909432 87.53124 
L 121.10794 86.494823 
L 123.241876 85.224341 
L 125.289905 82.213942 
L 127.339454 82.339953 
L 129.289443 80.246097 
L 131.157903 78.881798 
L 133.048297 78.192807 
L 134.825364 76.476864 
L 136.543379 75.784366 
L 138.268618 74.209669 
L 139.89918 73.917341 
L 141.488962 72.613429 
L 143.093561 72.133675 
L 144.631142 71.033548 
L 146.120049 70.747985 
L 147.579971 69.113771 
L 149.052117 69.21927 
L 150.456865 68.235794 
L 151.82965 67.415365 
L 153.22712 67.664013 
L 154.576237 66.755993 
L 155.886809 66.141542 
L 157.219325 65.743913 
L 158.499137 65.185882 
L 159.734385 63.971415 
L 160.965016 63.176308 
L 162.132718 62.443827 
L 163.283145 61.989361 
L 164.451958 62.147684 
L 165.576647 61.576501 
L 166.697458 61.765582 
L 167.802639 60.596958 
L 168.897683 59.900856 
L 169.945266 59.771831 
L 170.97134 58.613189 
L 172.022171 59.345277 
L 173.060602 59.917023 
L 174.107767 59.712222 
L 175.141822 57.737004 
L 176.133095 59.007525 
L 177.124801 57.876691 
L 178.09014 57.564387 
L 179.055043 56.362586 
L 179.994421 57.715183 
L 180.93318 56.514622 
L 181.882269 56.627069 
L 182.789435 55.732571 
L 183.672106 55.547491 
L 184.595756 56.267427 
L 185.479618 54.974504 
L 186.34945 55.571816 
L 187.197622 54.036236 
L 188.0565 54.597527 
L 188.895184 54.310872 
L 189.725956 54.310578 
L 190.583108 54.243687 
L 191.421651 54.739534 
L 192.260458 54.115673 
L 193.103342 53.82464 
L 193.910792 53.312486 
L 194.701563 53.330849 
L 195.518784 53.420932 
L 196.295337 52.14197 
L 197.036304 51.881816 
L 197.76443 51.273111 
L 198.514242 52.154536 
L 199.258774 52.002096 
L 200.011257 52.445499 
L 200.786072 52.171499 
L 201.5155 51.16641 
L 202.234494 51.435434 
L 202.970834 51.159215 
L 203.670302 50.528551 
L 204.363662 50.732358 
L 205.053057 50.407918 
L 205.74379 49.952683 
" clip-path="url(#p94bbdee90e)" style="fill: none; stroke: #1f77b4; stroke-width: 0.7; stroke-linecap: square"/>
    <defs>
     <path id="mabd487e325" d="M 0 0.9 
C 0.238683 0.9 0.467622 0.80517 0.636396 0.636396 
C 0.80517 0.467622 0.9 0.238683 0.9 0 
C 0.9 -0.238683 0.80517 -0.467622 0.636396 -0.636396 
C 0.467622 -0.80517 0.238683 -0.9 0 -0.9 
C -0.238683 -0.9 -0.467622 -0.80517 -0.636396 -0.636396 
C -0.80517 -0.467622 -0.9 -0.238683 -0.9 0 
C -0.9 0.238683 -0.80517 0.467622 -0.636396 0.636396 
C -0.467622 0.80517 -0.238683 0.9 0 0.9 
z
" style="stroke: #1f77b4"/>
    </defs>
    <g clip-path="url(#p94bbdee90e)">
     <use xlink:href="#mabd487e325" x="46.965672" y="154.551273" style="fill: #1f77b4; stroke: #1f77b4"/>
     <use xlink:href="#mabd487e325" x="51.948475" y="148.325543" style="fill: #1f77b4; stroke: #1f77b4"/>
     <use xlink:href="#mabd487e325" x="56.946719" y="142.672504" style="fill: #1f77b4; stroke: #1f77b4"/>
     <use xlink:href="#mabd487e325" x="61.629575" y="137.702839" style="fill: #1f77b4; stroke: #1f77b4"/>
     <use xlink:href="#mabd487e325" x="66.084295" y="133.062103" style="fill: #1f77b4; stroke: #1f77b4"/>
     <use xlink:href="#mabd487e325" x="70.472841" y="129.020985" style="fill: #1f77b4; stroke: #1f77b4"/>
     <use xlink:href="#mabd487e325" x="74.55164" y="124.595411" style="fill: #1f77b4; stroke: #1f77b4"/>
     <use xlink:href="#mabd487e325" x="78.404294" y="120.755541" style="fill: #1f77b4; stroke: #1f77b4"/>
     <use xlink:href="#mabd487e325" x="82.221295" y="117.677128" style="fill: #1f77b4; stroke: #1f77b4"/>
     <use xlink:href="#mabd487e325" x="85.77402" y="114.78569" style="fill: #1f77b4; stroke: #1f77b4"/>
     <use xlink:href="#mabd487e325" x="89.178377" y="111.399631" style="fill: #1f77b4; stroke: #1f77b4"/>
     <use xlink:href="#mabd487e325" x="92.506589" y="107.314923" style="fill: #1f77b4; stroke: #1f77b4"/>
     <use xlink:href="#mabd487e325" x="95.57378" y="105.101075" style="fill: #1f77b4; stroke: #1f77b4"/>
     <use xlink:href="#mabd487e325" x="98.530657" y="102.60343" style="fill: #1f77b4; stroke: #1f77b4"/>
     <use xlink:href="#mabd487e325" x="101.408724" y="101.024851" style="fill: #1f77b4; stroke: #1f77b4"/>
     <use xlink:href="#mabd487e325" x="104.231672" y="97.811332" style="fill: #1f77b4; stroke: #1f77b4"/>
     <use xlink:href="#mabd487e325" x="106.862682" y="96.063573" style="fill: #1f77b4; stroke: #1f77b4"/>
     <use xlink:href="#mabd487e325" x="109.402956" y="93.574025" style="fill: #1f77b4; stroke: #1f77b4"/>
     <use xlink:href="#mabd487e325" x="111.919851" y="91.653656" style="fill: #1f77b4; stroke: #1f77b4"/>
     <use xlink:href="#mabd487e325" x="114.295348" y="90.528814" style="fill: #1f77b4; stroke: #1f77b4"/>
     <use xlink:href="#mabd487e325" x="116.599414" y="88.704428" style="fill: #1f77b4; stroke: #1f77b4"/>
     <use xlink:href="#mabd487e325" x="118.909432" y="87.53124" style="fill: #1f77b4; stroke: #1f77b4"/>
     <use xlink:href="#mabd487e325" x="121.10794" y="86.494823" style="fill: #1f77b4; stroke: #1f77b4"/>
     <use xlink:href="#mabd487e325" x="123.241876" y="85.224341" style="fill: #1f77b4; stroke: #1f77b4"/>
     <use xlink:href="#mabd487e325" x="125.289905" y="82.213942" style="fill: #1f77b4; stroke: #1f77b4"/>
     <use xlink:href="#mabd487e325" x="127.339454" y="82.339953" style="fill: #1f77b4; stroke: #1f77b4"/>
     <use xlink:href="#mabd487e325" x="129.289443" y="80.246097" style="fill: #1f77b4; stroke: #1f77b4"/>
     <use xlink:href="#mabd487e325" x="131.157903" y="78.881798" style="fill: #1f77b4; stroke: #1f77b4"/>
     <use xlink:href="#mabd487e325" x="133.048297" y="78.192807" style="fill: #1f77b4; stroke: #1f77b4"/>
     <use xlink:href="#mabd487e325" x="134.825364" y="76.476864" style="fill: #1f77b4; stroke: #1f77b4"/>
     <use xlink:href="#mabd487e325" x="136.543379" y="75.784366" style="fill: #1f77b4; stroke: #1f77b4"/>
     <use xlink:href="#mabd487e325" x="138.268618" y="74.209669" style="fill: #1f77b4; stroke: #1f77b4"/>
     <use xlink:href="#mabd487e325" x="139.89918" y="73.917341" style="fill: #1f77b4; stroke: #1f77b4"/>
     <use xlink:href="#mabd487e325" x="141.488962" y="72.613429" style="fill: #1f77b4; stroke: #1f77b4"/>
     <use xlink:href="#mabd487e325" x="143.093561" y="72.133675" style="fill: #1f77b4; stroke: #1f77b4"/>
     <use xlink:href="#mabd487e325" x="144.631142" y="71.033548" style="fill: #1f77b4; stroke: #1f77b4"/>
     <use xlink:href="#mabd487e325" x="146.120049" y="70.747985" style="fill: #1f77b4; stroke: #1f77b4"/>
     <use xlink:href="#mabd487e325" x="147.579971" y="69.113771" style="fill: #1f77b4; stroke: #1f77b4"/>
     <use xlink:href="#mabd487e325" x="149.052117" y="69.21927" style="fill: #1f77b4; stroke: #1f77b4"/>
     <use xlink:href="#mabd487e325" x="150.456865" y="68.235794" style="fill: #1f77b4; stroke: #1f77b4"/>
     <use xlink:href="#mabd487e325" x="151.82965" y="67.415365" style="fill: #1f77b4; stroke: #1f77b4"/>
     <use xlink:href="#mabd487e325" x="153.22712" y="67.664013" style="fill: #1f77b4; stroke: #1f77b4"/>
     <use xlink:href="#mabd487e325" x="154.576237" y="66.755993" style="fill: #1f77b4; stroke: #1f77b4"/>
     <use xlink:href="#mabd487e325" x="155.886809" y="66.141542" style="fill: #1f77b4; stroke: #1f77b4"/>
     <use xlink:href="#mabd487e325" x="157.219325" y="65.743913" style="fill: #1f77b4; stroke: #1f77b4"/>
     <use xlink:href="#mabd487e325" x="158.499137" y="65.185882" style="fill: #1f77b4; stroke: #1f77b4"/>
     <use xlink:href="#mabd487e325" x="159.734385" y="63.971415" style="fill: #1f77b4; stroke: #1f77b4"/>
     <use xlink:href="#mabd487e325" x="160.965016" y="63.176308" style="fill: #1f77b4; stroke: #1f77b4"/>
     <use xlink:href="#mabd487e325" x="162.132718" y="62.443827" style="fill: #1f77b4; stroke: #1f77b4"/>
     <use xlink:href="#mabd487e325" x="163.283145" y="61.989361" style="fill: #1f77b4; stroke: #1f77b4"/>
     <use xlink:href="#mabd487e325" x="164.451958" y="62.147684" style="fill: #1f77b4; stroke: #1f77b4"/>
     <use xlink:href="#mabd487e325" x="165.576647" y="61.576501" style="fill: #1f77b4; stroke: #1f77b4"/>
     <use xlink:href="#mabd487e325" x="166.697458" y="61.765582" style="fill: #1f77b4; stroke: #1f77b4"/>
     <use xlink:href="#mabd487e325" x="167.802639" y="60.596958" style="fill: #1f77b4; stroke: #1f77b4"/>
     <use xlink:href="#mabd487e325" x="168.897683" y="59.900856" style="fill: #1f77b4; stroke: #1f77b4"/>
     <use xlink:href="#mabd487e325" x="169.945266" y="59.771831" style="fill: #1f77b4; stroke: #1f77b4"/>
     <use xlink:href="#mabd487e325" x="170.97134" y="58.613189" style="fill: #1f77b4; stroke: #1f77b4"/>
     <use xlink:href="#mabd487e325" x="172.022171" y="59.345277" style="fill: #1f77b4; stroke: #1f77b4"/>
     <use xlink:href="#mabd487e325" x="173.060602" y="59.917023" style="fill: #1f77b4; stroke: #1f77b4"/>
     <use xlink:href="#mabd487e325" x="174.107767" y="59.712222" style="fill: #1f77b4; stroke: #1f77b4"/>
     <use xlink:href="#mabd487e325" x="175.141822" y="57.737004" style="fill: #1f77b4; stroke: #1f77b4"/>
     <use xlink:href="#mabd487e325" x="176.133095" y="59.007525" style="fill: #1f77b4; stroke: #1f77b4"/>
     <use xlink:href="#mabd487e325" x="177.124801" y="57.876691" style="fill: #1f77b4; stroke: #1f77b4"/>
     <use xlink:href="#mabd487e325" x="178.09014" y="57.564387" style="fill: #1f77b4; stroke: #1f77b4"/>
     <use xlink:href="#mabd487e325" x="179.055043" y="56.362586" style="fill: #1f77b4; stroke: #1f77b4"/>
     <use xlink:href="#mabd487e325" x="179.994421" y="57.715183" style="fill: #1f77b4; stroke: #1f77b4"/>
     <use xlink:href="#mabd487e325" x="180.93318" y="56.514622" style="fill: #1f77b4; stroke: #1f77b4"/>
     <use xlink:href="#mabd487e325" x="181.882269" y="56.627069" style="fill: #1f77b4; stroke: #1f77b4"/>
     <use xlink:href="#mabd487e325" x="182.789435" y="55.732571" style="fill: #1f77b4; stroke: #1f77b4"/>
     <use xlink:href="#mabd487e325" x="183.672106" y="55.547491" style="fill: #1f77b4; stroke: #1f77b4"/>
     <use xlink:href="#mabd487e325" x="184.595756" y="56.267427" style="fill: #1f77b4; stroke: #1f77b4"/>
     <use xlink:href="#mabd487e325" x="185.479618" y="54.974504" style="fill: #1f77b4; stroke: #1f77b4"/>
     <use xlink:href="#mabd487e325" x="186.34945" y="55.571816" style="fill: #1f77b4; stroke: #1f77b4"/>
     <use xlink:href="#mabd487e325" x="187.197622" y="54.036236" style="fill: #1f77b4; stroke: #1f77b4"/>
     <use xlink:href="#mabd487e325" x="188.0565" y="54.597527" style="fill: #1f77b4; stroke: #1f77b4"/>
     <use xlink:href="#mabd487e325" x="188.895184" y="54.310872" style="fill: #1f77b4; stroke: #1f77b4"/>
     <use xlink:href="#mabd487e325" x="189.725956" y="54.310578" style="fill: #1f77b4; stroke: #1f77b4"/>
     <use xlink:href="#mabd487e325" x="190.583108" y="54.243687" style="fill: #1f77b4; stroke: #1f77b4"/>
     <use xlink:href="#mabd487e325" x="191.421651" y="54.739534" style="fill: #1f77b4; stroke: #1f77b4"/>
     <use xlink:href="#mabd487e325" x="192.260458" y="54.115673" style="fill: #1f77b4; stroke: #1f77b4"/>
     <use xlink:href="#mabd487e325" x="193.103342" y="53.82464" style="fill: #1f77b4; stroke: #1f77b4"/>
     <use xlink:href="#mabd487e325" x="193.910792" y="53.312486" style="fill: #1f77b4; stroke: #1f77b4"/>
     <use xlink:href="#mabd487e325" x="194.701563" y="53.330849" style="fill: #1f77b4; stroke: #1f77b4"/>
     <use xlink:href="#mabd487e325" x="195.518784" y="53.420932" style="fill: #1f77b4; stroke: #1f77b4"/>
     <use xlink:href="#mabd487e325" x="196.295337" y="52.14197" style="fill: #1f77b4; stroke: #1f77b4"/>
     <use xlink:href="#mabd487e325" x="197.036304" y="51.881816" style="fill: #1f77b4; stroke: #1f77b4"/>
     <use xlink:href="#mabd487e325" x="197.76443" y="51.273111" style="fill: #1f77b4; stroke: #1f77b4"/>
     <use xlink:href="#mabd487e325" x="198.514242" y="52.154536" style="fill: #1f77b4; stroke: #1f77b4"/>
     <use xlink:href="#mabd487e325" x="199.258774" y="52.002096" style="fill: #1f77b4; stroke: #1f77b4"/>
     <use xlink:href="#mabd487e325" x="200.011257" y="52.445499" style="fill: #1f77b4; stroke: #1f77b4"/>
     <use xlink:href="#mabd487e325" x="200.786072" y="52.171499" style="fill: #1f77b4; stroke: #1f77b4"/>
     <use xlink:href="#mabd487e325" x="201.5155" y="51.16641" style="fill: #1f77b4; stroke: #1f77b4"/>
     <use xlink:href="#mabd487e325" x="202.234494" y="51.435434" style="fill: #1f77b4; stroke: #1f77b4"/>
     <use xlink:href="#mabd487e325" x="202.970834" y="51.159215" style="fill: #1f77b4; stroke: #1f77b4"/>
     <use xlink:href="#mabd487e325" x="203.670302" y="50.528551" style="fill: #1f77b4; stroke: #1f77b4"/>
     <use xlink:href="#mabd487e325" x="204.363662" y="50.732358" style="fill: #1f77b4; stroke: #1f77b4"/>
     <use xlink:href="#mabd487e325" x="205.053057" y="50.407918" style="fill: #1f77b4; stroke: #1f77b4"/>
     <use xlink:href="#mabd487e325" x="205.74379" y="49.952683" style="fill: #1f77b4; stroke: #1f77b4"/>
    </g>
   </g>
   <g id="line2d_12">
    <path d="M 46.965625 154.551273 
L 55.014224 147.432511 
L 62.791076 138.202816 
L 69.896622 132.182539 
L 76.654095 126.464098 
L 83.287036 120.527033 
L 89.397342 114.362444 
L 95.198829 109.887041 
L 100.911311 104.645113 
L 106.183285 99.288499 
L 111.200664 95.082028 
L 116.044114 90.805757 
L 120.824591 88.001822 
L 125.279915 83.013162 
L 129.554828 79.426477 
L 133.809697 76.125329 
L 137.815148 72.922606 
L 141.669876 69.75738 
L 145.516629 66.894865 
L 149.138468 65.131618 
L 152.656038 62.431258 
" clip-path="url(#p94bbdee90e)" style="fill: none; stroke: #ff7f0e; stroke-width: 0.7; stroke-linecap: square"/>
    <defs>
     <path id="m6c328cd2b8" d="M 0 0.9 
C 0.238683 0.9 0.467622 0.80517 0.636396 0.636396 
C 0.80517 0.467622 0.9 0.238683 0.9 0 
C 0.9 -0.238683 0.80517 -0.467622 0.636396 -0.636396 
C 0.467622 -0.80517 0.238683 -0.9 0 -0.9 
C -0.238683 -0.9 -0.467622 -0.80517 -0.636396 -0.636396 
C -0.80517 -0.467622 -0.9 -0.238683 -0.9 0 
C -0.9 0.238683 -0.80517 0.467622 -0.636396 0.636396 
C -0.467622 0.80517 -0.238683 0.9 0 0.9 
z
" style="stroke: #ff7f0e"/>
    </defs>
    <g clip-path="url(#p94bbdee90e)">
     <use xlink:href="#m6c328cd2b8" x="46.965625" y="154.551273" style="fill: #ff7f0e; stroke: #ff7f0e"/>
     <use xlink:href="#m6c328cd2b8" x="55.014224" y="147.432511" style="fill: #ff7f0e; stroke: #ff7f0e"/>
     <use xlink:href="#m6c328cd2b8" x="62.791076" y="138.202816" style="fill: #ff7f0e; stroke: #ff7f0e"/>
     <use xlink:href="#m6c328cd2b8" x="69.896622" y="132.182539" style="fill: #ff7f0e; stroke: #ff7f0e"/>
     <use xlink:href="#m6c328cd2b8" x="76.654095" y="126.464098" style="fill: #ff7f0e; stroke: #ff7f0e"/>
     <use xlink:href="#m6c328cd2b8" x="83.287036" y="120.527033" style="fill: #ff7f0e; stroke: #ff7f0e"/>
     <use xlink:href="#m6c328cd2b8" x="89.397342" y="114.362444" style="fill: #ff7f0e; stroke: #ff7f0e"/>
     <use xlink:href="#m6c328cd2b8" x="95.198829" y="109.887041" style="fill: #ff7f0e; stroke: #ff7f0e"/>
     <use xlink:href="#m6c328cd2b8" x="100.911311" y="104.645113" style="fill: #ff7f0e; stroke: #ff7f0e"/>
     <use xlink:href="#m6c328cd2b8" x="106.183285" y="99.288499" style="fill: #ff7f0e; stroke: #ff7f0e"/>
     <use xlink:href="#m6c328cd2b8" x="111.200664" y="95.082028" style="fill: #ff7f0e; stroke: #ff7f0e"/>
     <use xlink:href="#m6c328cd2b8" x="116.044114" y="90.805757" style="fill: #ff7f0e; stroke: #ff7f0e"/>
     <use xlink:href="#m6c328cd2b8" x="120.824591" y="88.001822" style="fill: #ff7f0e; stroke: #ff7f0e"/>
     <use xlink:href="#m6c328cd2b8" x="125.279915" y="83.013162" style="fill: #ff7f0e; stroke: #ff7f0e"/>
     <use xlink:href="#m6c328cd2b8" x="129.554828" y="79.426477" style="fill: #ff7f0e; stroke: #ff7f0e"/>
     <use xlink:href="#m6c328cd2b8" x="133.809697" y="76.125329" style="fill: #ff7f0e; stroke: #ff7f0e"/>
     <use xlink:href="#m6c328cd2b8" x="137.815148" y="72.922606" style="fill: #ff7f0e; stroke: #ff7f0e"/>
     <use xlink:href="#m6c328cd2b8" x="141.669876" y="69.75738" style="fill: #ff7f0e; stroke: #ff7f0e"/>
     <use xlink:href="#m6c328cd2b8" x="145.516629" y="66.894865" style="fill: #ff7f0e; stroke: #ff7f0e"/>
     <use xlink:href="#m6c328cd2b8" x="149.138468" y="65.131618" style="fill: #ff7f0e; stroke: #ff7f0e"/>
     <use xlink:href="#m6c328cd2b8" x="152.656038" y="62.431258" style="fill: #ff7f0e; stroke: #ff7f0e"/>
    </g>
   </g>
   <g id="line2d_13">
    <path d="M 46.965625 154.551273 
L 51.036726 148.382991 
L 54.727597 146.37209 
L 58.285756 143.037072 
L 61.794322 139.689681 
L 65.11533 140.844755 
L 68.357007 136.26056 
L 71.528759 133.531051 
L 74.474764 131.270127 
L 77.319044 128.125339 
L 80.076192 126.673215 
L 82.853114 125.423581 
L 85.463175 122.181924 
L 87.996595 119.483557 
L 90.496816 116.907456 
L 92.860194 117.156703 
L 95.220613 113.239101 
L 97.454166 113.05561 
L 99.637439 111.681177 
L 101.75186 108.577077 
L 103.856496 107.818229 
L 105.848045 105.615451 
L 107.780801 103.614861 
L 109.69396 101.414989 
L 111.490895 99.553019 
L 113.248162 99.078348 
L 114.999862 95.4859 
L 116.639396 95.407337 
L 118.261144 94.6573 
L 119.854313 93.035061 
L 121.45382 92.265412 
L 122.965316 90.322285 
L 124.443287 89.766775 
L 125.932263 88.440235 
L 127.339578 87.666982 
L 128.71028 85.756115 
L 130.084656 84.745348 
L 131.386206 83.582732 
L 132.666725 82.633505 
L 133.925992 81.860941 
L 135.175015 80.098718 
L 136.34967 78.71146 
L 137.490383 78.16873 
L 138.648271 77.396701 
L 139.738678 75.695875 
L 140.784061 73.976463 
L 141.857066 75.148341 
L 142.873738 71.917802 
L 143.847854 72.682062 
L 144.824757 72.406455 
L 145.833737 72.67431 
L 146.778921 69.714495 
L 147.676952 69.083745 
L 148.610064 70.458306 
L 149.511454 68.878011 
L 150.399239 68.658042 
L 151.279024 66.926294 
L 152.107606 65.79732 
L 152.915101 65.08355 
L 153.701424 64.331882 
L 154.510184 64.827982 
L 155.28552 63.469427 
L 156.031933 62.481466 
" clip-path="url(#p94bbdee90e)" style="fill: none; stroke: #2ca02c; stroke-width: 0.7; stroke-linecap: square"/>
    <defs>
     <path id="mbd932d72e3" d="M 0 0.9 
C 0.238683 0.9 0.467622 0.80517 0.636396 0.636396 
C 0.80517 0.467622 0.9 0.238683 0.9 0 
C 0.9 -0.238683 0.80517 -0.467622 0.636396 -0.636396 
C 0.467622 -0.80517 0.238683 -0.9 0 -0.9 
C -0.238683 -0.9 -0.467622 -0.80517 -0.636396 -0.636396 
C -0.80517 -0.467622 -0.9 -0.238683 -0.9 0 
C -0.9 0.238683 -0.80517 0.467622 -0.636396 0.636396 
C -0.467622 0.80517 -0.238683 0.9 0 0.9 
z
" style="stroke: #2ca02c"/>
    </defs>
    <g clip-path="url(#p94bbdee90e)">
     <use xlink:href="#mbd932d72e3" x="46.965625" y="154.551273" style="fill: #2ca02c; stroke: #2ca02c"/>
     <use xlink:href="#mbd932d72e3" x="51.036726" y="148.382991" style="fill: #2ca02c; stroke: #2ca02c"/>
     <use xlink:href="#mbd932d72e3" x="54.727597" y="146.37209" style="fill: #2ca02c; stroke: #2ca02c"/>
     <use xlink:href="#mbd932d72e3" x="58.285756" y="143.037072" style="fill: #2ca02c; stroke: #2ca02c"/>
     <use xlink:href="#mbd932d72e3" x="61.794322" y="139.689681" style="fill: #2ca02c; stroke: #2ca02c"/>
     <use xlink:href="#mbd932d72e3" x="65.11533" y="140.844755" style="fill: #2ca02c; stroke: #2ca02c"/>
     <use xlink:href="#mbd932d72e3" x="68.357007" y="136.26056" style="fill: #2ca02c; stroke: #2ca02c"/>
     <use xlink:href="#mbd932d72e3" x="71.528759" y="133.531051" style="fill: #2ca02c; stroke: #2ca02c"/>
     <use xlink:href="#mbd932d72e3" x="74.474764" y="131.270127" style="fill: #2ca02c; stroke: #2ca02c"/>
     <use xlink:href="#mbd932d72e3" x="77.319044" y="128.125339" style="fill: #2ca02c; stroke: #2ca02c"/>
     <use xlink:href="#mbd932d72e3" x="80.076192" y="126.673215" style="fill: #2ca02c; stroke: #2ca02c"/>
     <use xlink:href="#mbd932d72e3" x="82.853114" y="125.423581" style="fill: #2ca02c; stroke: #2ca02c"/>
     <use xlink:href="#mbd932d72e3" x="85.463175" y="122.181924" style="fill: #2ca02c; stroke: #2ca02c"/>
     <use xlink:href="#mbd932d72e3" x="87.996595" y="119.483557" style="fill: #2ca02c; stroke: #2ca02c"/>
     <use xlink:href="#mbd932d72e3" x="90.496816" y="116.907456" style="fill: #2ca02c; stroke: #2ca02c"/>
     <use xlink:href="#mbd932d72e3" x="92.860194" y="117.156703" style="fill: #2ca02c; stroke: #2ca02c"/>
     <use xlink:href="#mbd932d72e3" x="95.220613" y="113.239101" style="fill: #2ca02c; stroke: #2ca02c"/>
     <use xlink:href="#mbd932d72e3" x="97.454166" y="113.05561" style="fill: #2ca02c; stroke: #2ca02c"/>
     <use xlink:href="#mbd932d72e3" x="99.637439" y="111.681177" style="fill: #2ca02c; stroke: #2ca02c"/>
     <use xlink:href="#mbd932d72e3" x="101.75186" y="108.577077" style="fill: #2ca02c; stroke: #2ca02c"/>
     <use xlink:href="#mbd932d72e3" x="103.856496" y="107.818229" style="fill: #2ca02c; stroke: #2ca02c"/>
     <use xlink:href="#mbd932d72e3" x="105.848045" y="105.615451" style="fill: #2ca02c; stroke: #2ca02c"/>
     <use xlink:href="#mbd932d72e3" x="107.780801" y="103.614861" style="fill: #2ca02c; stroke: #2ca02c"/>
     <use xlink:href="#mbd932d72e3" x="109.69396" y="101.414989" style="fill: #2ca02c; stroke: #2ca02c"/>
     <use xlink:href="#mbd932d72e3" x="111.490895" y="99.553019" style="fill: #2ca02c; stroke: #2ca02c"/>
     <use xlink:href="#mbd932d72e3" x="113.248162" y="99.078348" style="fill: #2ca02c; stroke: #2ca02c"/>
     <use xlink:href="#mbd932d72e3" x="114.999862" y="95.4859" style="fill: #2ca02c; stroke: #2ca02c"/>
     <use xlink:href="#mbd932d72e3" x="116.639396" y="95.407337" style="fill: #2ca02c; stroke: #2ca02c"/>
     <use xlink:href="#mbd932d72e3" x="118.261144" y="94.6573" style="fill: #2ca02c; stroke: #2ca02c"/>
     <use xlink:href="#mbd932d72e3" x="119.854313" y="93.035061" style="fill: #2ca02c; stroke: #2ca02c"/>
     <use xlink:href="#mbd932d72e3" x="121.45382" y="92.265412" style="fill: #2ca02c; stroke: #2ca02c"/>
     <use xlink:href="#mbd932d72e3" x="122.965316" y="90.322285" style="fill: #2ca02c; stroke: #2ca02c"/>
     <use xlink:href="#mbd932d72e3" x="124.443287" y="89.766775" style="fill: #2ca02c; stroke: #2ca02c"/>
     <use xlink:href="#mbd932d72e3" x="125.932263" y="88.440235" style="fill: #2ca02c; stroke: #2ca02c"/>
     <use xlink:href="#mbd932d72e3" x="127.339578" y="87.666982" style="fill: #2ca02c; stroke: #2ca02c"/>
     <use xlink:href="#mbd932d72e3" x="128.71028" y="85.756115" style="fill: #2ca02c; stroke: #2ca02c"/>
     <use xlink:href="#mbd932d72e3" x="130.084656" y="84.745348" style="fill: #2ca02c; stroke: #2ca02c"/>
     <use xlink:href="#mbd932d72e3" x="131.386206" y="83.582732" style="fill: #2ca02c; stroke: #2ca02c"/>
     <use xlink:href="#mbd932d72e3" x="132.666725" y="82.633505" style="fill: #2ca02c; stroke: #2ca02c"/>
     <use xlink:href="#mbd932d72e3" x="133.925992" y="81.860941" style="fill: #2ca02c; stroke: #2ca02c"/>
     <use xlink:href="#mbd932d72e3" x="135.175015" y="80.098718" style="fill: #2ca02c; stroke: #2ca02c"/>
     <use xlink:href="#mbd932d72e3" x="136.34967" y="78.71146" style="fill: #2ca02c; stroke: #2ca02c"/>
     <use xlink:href="#mbd932d72e3" x="137.490383" y="78.16873" style="fill: #2ca02c; stroke: #2ca02c"/>
     <use xlink:href="#mbd932d72e3" x="138.648271" y="77.396701" style="fill: #2ca02c; stroke: #2ca02c"/>
     <use xlink:href="#mbd932d72e3" x="139.738678" y="75.695875" style="fill: #2ca02c; stroke: #2ca02c"/>
     <use xlink:href="#mbd932d72e3" x="140.784061" y="73.976463" style="fill: #2ca02c; stroke: #2ca02c"/>
     <use xlink:href="#mbd932d72e3" x="141.857066" y="75.148341" style="fill: #2ca02c; stroke: #2ca02c"/>
     <use xlink:href="#mbd932d72e3" x="142.873738" y="71.917802" style="fill: #2ca02c; stroke: #2ca02c"/>
     <use xlink:href="#mbd932d72e3" x="143.847854" y="72.682062" style="fill: #2ca02c; stroke: #2ca02c"/>
     <use xlink:href="#mbd932d72e3" x="144.824757" y="72.406455" style="fill: #2ca02c; stroke: #2ca02c"/>
     <use xlink:href="#mbd932d72e3" x="145.833737" y="72.67431" style="fill: #2ca02c; stroke: #2ca02c"/>
     <use xlink:href="#mbd932d72e3" x="146.778921" y="69.714495" style="fill: #2ca02c; stroke: #2ca02c"/>
     <use xlink:href="#mbd932d72e3" x="147.676952" y="69.083745" style="fill: #2ca02c; stroke: #2ca02c"/>
     <use xlink:href="#mbd932d72e3" x="148.610064" y="70.458306" style="fill: #2ca02c; stroke: #2ca02c"/>
     <use xlink:href="#mbd932d72e3" x="149.511454" y="68.878011" style="fill: #2ca02c; stroke: #2ca02c"/>
     <use xlink:href="#mbd932d72e3" x="150.399239" y="68.658042" style="fill: #2ca02c; stroke: #2ca02c"/>
     <use xlink:href="#mbd932d72e3" x="151.279024" y="66.926294" style="fill: #2ca02c; stroke: #2ca02c"/>
     <use xlink:href="#mbd932d72e3" x="152.107606" y="65.79732" style="fill: #2ca02c; stroke: #2ca02c"/>
     <use xlink:href="#mbd932d72e3" x="152.915101" y="65.08355" style="fill: #2ca02c; stroke: #2ca02c"/>
     <use xlink:href="#mbd932d72e3" x="153.701424" y="64.331882" style="fill: #2ca02c; stroke: #2ca02c"/>
     <use xlink:href="#mbd932d72e3" x="154.510184" y="64.827982" style="fill: #2ca02c; stroke: #2ca02c"/>
     <use xlink:href="#mbd932d72e3" x="155.28552" y="63.469427" style="fill: #2ca02c; stroke: #2ca02c"/>
     <use xlink:href="#mbd932d72e3" x="156.031933" y="62.481466" style="fill: #2ca02c; stroke: #2ca02c"/>
    </g>
   </g>
   <g id="line2d_14">
    <path d="M 46.965625 154.551273 
L 55.303562 148.506404 
L 63.122819 141.253388 
L 70.697902 135.866521 
L 77.599256 129.176122 
L 84.107327 124.012419 
L 90.260895 119.382065 
L 96.294058 114.992562 
L 101.844374 111.081026 
L 107.128407 107.01535 
L 112.265364 103.48754 
L 117.043969 99.781499 
L 121.588234 95.432405 
L 126.02737 91.946235 
L 130.171374 88.208873 
L 134.087175 85.320431 
L 137.860335 82.571383 
L 141.586135 78.948601 
L 145.074161 76.809921 
L 148.458744 74.441975 
L 151.808701 72.103735 
L 154.930302 69.960077 
L 157.906562 67.552297 
L 160.862838 65.701723 
L 163.663085 64.138619 
L 166.3601 62.110318 
L 168.968921 60.522561 
L 171.548082 57.885283 
L 173.989933 57.329025 
L 176.354177 55.128527 
L 178.737584 55.051684 
L 180.989344 52.345083 
L 183.131214 51.116861 
L 185.254407 49.143865 
L 187.253291 48.32148 
L 189.229371 47.452327 
L 191.198377 44.975292 
L 193.049908 45.010536 
L 194.870443 43.89899 
L 196.623833 41.74856 
L 198.354456 41.220454 
L 199.999163 39.945919 
L 201.600779 39.315602 
L 203.200152 37.912429 
L 204.713315 35.247952 
L 206.217891 36.215441 
L 207.689117 35.418228 
L 209.172995 34.57138 
L 210.578859 34.156877 
L 211.927995 33.29586 
L 213.304573 33.261158 
L 214.632633 32.981928 
L 215.927041 31.796068 
L 217.199251 30.553803 
L 218.408831 30.921969 
L 219.611525 30.010784 
L 220.76722 29.393673 
L 221.918985 29.162086 
L 223.012567 27.194555 
L 224.081764 26.592845 
L 225.171308 26.459705 
L 226.201727 25.309026 
L 227.218653 25.164429 
L 228.247162 24.764754 
L 229.224577 25.257289 
L 230.177983 24.343038 
L 231.11631 24.273825 
L 232.065479 22.70026 
L 232.952913 22.573907 
L 233.836003 21.805879 
L 234.726514 21.799109 
L 235.563578 21.109862 
L 236.383565 21.173756 
L 237.223695 21.076396 
L 238.024642 20.454559 
L 238.803334 19.717233 
L 239.567508 19.433436 
L 240.33961 18.801514 
L 241.081902 18.315433 
L 241.805155 18.323751 
L 242.541803 17.690456 
L 243.258081 18.235695 
L 243.977699 17.7935 
L 244.69891 17.483171 
L 245.376089 16.748967 
L 246.054473 16.521362 
L 246.711979 15.686482 
L 247.359032 15.898326 
L 247.991537 15.399169 
L 248.626626 15.631314 
L 249.250882 15.208618 
L 249.828158 14.267259 
L 250.404241 14.728237 
L 251.01779 14.487573 
L 251.620375 14.216727 
" clip-path="url(#p94bbdee90e)" style="fill: none; stroke: #d62728; stroke-width: 0.7; stroke-linecap: square"/>
    <defs>
     <path id="m825f16f09b" d="M 0 0.9 
C 0.238683 0.9 0.467622 0.80517 0.636396 0.636396 
C 0.80517 0.467622 0.9 0.238683 0.9 0 
C 0.9 -0.238683 0.80517 -0.467622 0.636396 -0.636396 
C 0.467622 -0.80517 0.238683 -0.9 0 -0.9 
C -0.238683 -0.9 -0.467622 -0.80517 -0.636396 -0.636396 
C -0.80517 -0.467622 -0.9 -0.238683 -0.9 0 
C -0.9 0.238683 -0.80517 0.467622 -0.636396 0.636396 
C -0.467622 0.80517 -0.238683 0.9 0 0.9 
z
" style="stroke: #d62728"/>
    </defs>
    <g clip-path="url(#p94bbdee90e)">
     <use xlink:href="#m825f16f09b" x="46.965625" y="154.551273" style="fill: #d62728; stroke: #d62728"/>
     <use xlink:href="#m825f16f09b" x="55.303562" y="148.506404" style="fill: #d62728; stroke: #d62728"/>
     <use xlink:href="#m825f16f09b" x="63.122819" y="141.253388" style="fill: #d62728; stroke: #d62728"/>
     <use xlink:href="#m825f16f09b" x="70.697902" y="135.866521" style="fill: #d62728; stroke: #d62728"/>
     <use xlink:href="#m825f16f09b" x="77.599256" y="129.176122" style="fill: #d62728; stroke: #d62728"/>
     <use xlink:href="#m825f16f09b" x="84.107327" y="124.012419" style="fill: #d62728; stroke: #d62728"/>
     <use xlink:href="#m825f16f09b" x="90.260895" y="119.382065" style="fill: #d62728; stroke: #d62728"/>
     <use xlink:href="#m825f16f09b" x="96.294058" y="114.992562" style="fill: #d62728; stroke: #d62728"/>
     <use xlink:href="#m825f16f09b" x="101.844374" y="111.081026" style="fill: #d62728; stroke: #d62728"/>
     <use xlink:href="#m825f16f09b" x="107.128407" y="107.01535" style="fill: #d62728; stroke: #d62728"/>
     <use xlink:href="#m825f16f09b" x="112.265364" y="103.48754" style="fill: #d62728; stroke: #d62728"/>
     <use xlink:href="#m825f16f09b" x="117.043969" y="99.781499" style="fill: #d62728; stroke: #d62728"/>
     <use xlink:href="#m825f16f09b" x="121.588234" y="95.432405" style="fill: #d62728; stroke: #d62728"/>
     <use xlink:href="#m825f16f09b" x="126.02737" y="91.946235" style="fill: #d62728; stroke: #d62728"/>
     <use xlink:href="#m825f16f09b" x="130.171374" y="88.208873" style="fill: #d62728; stroke: #d62728"/>
     <use xlink:href="#m825f16f09b" x="134.087175" y="85.320431" style="fill: #d62728; stroke: #d62728"/>
     <use xlink:href="#m825f16f09b" x="137.860335" y="82.571383" style="fill: #d62728; stroke: #d62728"/>
     <use xlink:href="#m825f16f09b" x="141.586135" y="78.948601" style="fill: #d62728; stroke: #d62728"/>
     <use xlink:href="#m825f16f09b" x="145.074161" y="76.809921" style="fill: #d62728; stroke: #d62728"/>
     <use xlink:href="#m825f16f09b" x="148.458744" y="74.441975" style="fill: #d62728; stroke: #d62728"/>
     <use xlink:href="#m825f16f09b" x="151.808701" y="72.103735" style="fill: #d62728; stroke: #d62728"/>
     <use xlink:href="#m825f16f09b" x="154.930302" y="69.960077" style="fill: #d62728; stroke: #d62728"/>
     <use xlink:href="#m825f16f09b" x="157.906562" y="67.552297" style="fill: #d62728; stroke: #d62728"/>
     <use xlink:href="#m825f16f09b" x="160.862838" y="65.701723" style="fill: #d62728; stroke: #d62728"/>
     <use xlink:href="#m825f16f09b" x="163.663085" y="64.138619" style="fill: #d62728; stroke: #d62728"/>
     <use xlink:href="#m825f16f09b" x="166.3601" y="62.110318" style="fill: #d62728; stroke: #d62728"/>
     <use xlink:href="#m825f16f09b" x="168.968921" y="60.522561" style="fill: #d62728; stroke: #d62728"/>
     <use xlink:href="#m825f16f09b" x="171.548082" y="57.885283" style="fill: #d62728; stroke: #d62728"/>
     <use xlink:href="#m825f16f09b" x="173.989933" y="57.329025" style="fill: #d62728; stroke: #d62728"/>
     <use xlink:href="#m825f16f09b" x="176.354177" y="55.128527" style="fill: #d62728; stroke: #d62728"/>
     <use xlink:href="#m825f16f09b" x="178.737584" y="55.051684" style="fill: #d62728; stroke: #d62728"/>
     <use xlink:href="#m825f16f09b" x="180.989344" y="52.345083" style="fill: #d62728; stroke: #d62728"/>
     <use xlink:href="#m825f16f09b" x="183.131214" y="51.116861" style="fill: #d62728; stroke: #d62728"/>
     <use xlink:href="#m825f16f09b" x="185.254407" y="49.143865" style="fill: #d62728; stroke: #d62728"/>
     <use xlink:href="#m825f16f09b" x="187.253291" y="48.32148" style="fill: #d62728; stroke: #d62728"/>
     <use xlink:href="#m825f16f09b" x="189.229371" y="47.452327" style="fill: #d62728; stroke: #d62728"/>
     <use xlink:href="#m825f16f09b" x="191.198377" y="44.975292" style="fill: #d62728; stroke: #d62728"/>
     <use xlink:href="#m825f16f09b" x="193.049908" y="45.010536" style="fill: #d62728; stroke: #d62728"/>
     <use xlink:href="#m825f16f09b" x="194.870443" y="43.89899" style="fill: #d62728; stroke: #d62728"/>
     <use xlink:href="#m825f16f09b" x="196.623833" y="41.74856" style="fill: #d62728; stroke: #d62728"/>
     <use xlink:href="#m825f16f09b" x="198.354456" y="41.220454" style="fill: #d62728; stroke: #d62728"/>
     <use xlink:href="#m825f16f09b" x="199.999163" y="39.945919" style="fill: #d62728; stroke: #d62728"/>
     <use xlink:href="#m825f16f09b" x="201.600779" y="39.315602" style="fill: #d62728; stroke: #d62728"/>
     <use xlink:href="#m825f16f09b" x="203.200152" y="37.912429" style="fill: #d62728; stroke: #d62728"/>
     <use xlink:href="#m825f16f09b" x="204.713315" y="35.247952" style="fill: #d62728; stroke: #d62728"/>
     <use xlink:href="#m825f16f09b" x="206.217891" y="36.215441" style="fill: #d62728; stroke: #d62728"/>
     <use xlink:href="#m825f16f09b" x="207.689117" y="35.418228" style="fill: #d62728; stroke: #d62728"/>
     <use xlink:href="#m825f16f09b" x="209.172995" y="34.57138" style="fill: #d62728; stroke: #d62728"/>
     <use xlink:href="#m825f16f09b" x="210.578859" y="34.156877" style="fill: #d62728; stroke: #d62728"/>
     <use xlink:href="#m825f16f09b" x="211.927995" y="33.29586" style="fill: #d62728; stroke: #d62728"/>
     <use xlink:href="#m825f16f09b" x="213.304573" y="33.261158" style="fill: #d62728; stroke: #d62728"/>
     <use xlink:href="#m825f16f09b" x="214.632633" y="32.981928" style="fill: #d62728; stroke: #d62728"/>
     <use xlink:href="#m825f16f09b" x="215.927041" y="31.796068" style="fill: #d62728; stroke: #d62728"/>
     <use xlink:href="#m825f16f09b" x="217.199251" y="30.553803" style="fill: #d62728; stroke: #d62728"/>
     <use xlink:href="#m825f16f09b" x="218.408831" y="30.921969" style="fill: #d62728; stroke: #d62728"/>
     <use xlink:href="#m825f16f09b" x="219.611525" y="30.010784" style="fill: #d62728; stroke: #d62728"/>
     <use xlink:href="#m825f16f09b" x="220.76722" y="29.393673" style="fill: #d62728; stroke: #d62728"/>
     <use xlink:href="#m825f16f09b" x="221.918985" y="29.162086" style="fill: #d62728; stroke: #d62728"/>
     <use xlink:href="#m825f16f09b" x="223.012567" y="27.194555" style="fill: #d62728; stroke: #d62728"/>
     <use xlink:href="#m825f16f09b" x="224.081764" y="26.592845" style="fill: #d62728; stroke: #d62728"/>
     <use xlink:href="#m825f16f09b" x="225.171308" y="26.459705" style="fill: #d62728; stroke: #d62728"/>
     <use xlink:href="#m825f16f09b" x="226.201727" y="25.309026" style="fill: #d62728; stroke: #d62728"/>
     <use xlink:href="#m825f16f09b" x="227.218653" y="25.164429" style="fill: #d62728; stroke: #d62728"/>
     <use xlink:href="#m825f16f09b" x="228.247162" y="24.764754" style="fill: #d62728; stroke: #d62728"/>
     <use xlink:href="#m825f16f09b" x="229.224577" y="25.257289" style="fill: #d62728; stroke: #d62728"/>
     <use xlink:href="#m825f16f09b" x="230.177983" y="24.343038" style="fill: #d62728; stroke: #d62728"/>
     <use xlink:href="#m825f16f09b" x="231.11631" y="24.273825" style="fill: #d62728; stroke: #d62728"/>
     <use xlink:href="#m825f16f09b" x="232.065479" y="22.70026" style="fill: #d62728; stroke: #d62728"/>
     <use xlink:href="#m825f16f09b" x="232.952913" y="22.573907" style="fill: #d62728; stroke: #d62728"/>
     <use xlink:href="#m825f16f09b" x="233.836003" y="21.805879" style="fill: #d62728; stroke: #d62728"/>
     <use xlink:href="#m825f16f09b" x="234.726514" y="21.799109" style="fill: #d62728; stroke: #d62728"/>
     <use xlink:href="#m825f16f09b" x="235.563578" y="21.109862" style="fill: #d62728; stroke: #d62728"/>
     <use xlink:href="#m825f16f09b" x="236.383565" y="21.173756" style="fill: #d62728; stroke: #d62728"/>
     <use xlink:href="#m825f16f09b" x="237.223695" y="21.076396" style="fill: #d62728; stroke: #d62728"/>
     <use xlink:href="#m825f16f09b" x="238.024642" y="20.454559" style="fill: #d62728; stroke: #d62728"/>
     <use xlink:href="#m825f16f09b" x="238.803334" y="19.717233" style="fill: #d62728; stroke: #d62728"/>
     <use xlink:href="#m825f16f09b" x="239.567508" y="19.433436" style="fill: #d62728; stroke: #d62728"/>
     <use xlink:href="#m825f16f09b" x="240.33961" y="18.801514" style="fill: #d62728; stroke: #d62728"/>
     <use xlink:href="#m825f16f09b" x="241.081902" y="18.315433" style="fill: #d62728; stroke: #d62728"/>
     <use xlink:href="#m825f16f09b" x="241.805155" y="18.323751" style="fill: #d62728; stroke: #d62728"/>
     <use xlink:href="#m825f16f09b" x="242.541803" y="17.690456" style="fill: #d62728; stroke: #d62728"/>
     <use xlink:href="#m825f16f09b" x="243.258081" y="18.235695" style="fill: #d62728; stroke: #d62728"/>
     <use xlink:href="#m825f16f09b" x="243.977699" y="17.7935" style="fill: #d62728; stroke: #d62728"/>
     <use xlink:href="#m825f16f09b" x="244.69891" y="17.483171" style="fill: #d62728; stroke: #d62728"/>
     <use xlink:href="#m825f16f09b" x="245.376089" y="16.748967" style="fill: #d62728; stroke: #d62728"/>
     <use xlink:href="#m825f16f09b" x="246.054473" y="16.521362" style="fill: #d62728; stroke: #d62728"/>
     <use xlink:href="#m825f16f09b" x="246.711979" y="15.686482" style="fill: #d62728; stroke: #d62728"/>
     <use xlink:href="#m825f16f09b" x="247.359032" y="15.898326" style="fill: #d62728; stroke: #d62728"/>
     <use xlink:href="#m825f16f09b" x="247.991537" y="15.399169" style="fill: #d62728; stroke: #d62728"/>
     <use xlink:href="#m825f16f09b" x="248.626626" y="15.631314" style="fill: #d62728; stroke: #d62728"/>
     <use xlink:href="#m825f16f09b" x="249.250882" y="15.208618" style="fill: #d62728; stroke: #d62728"/>
     <use xlink:href="#m825f16f09b" x="249.828158" y="14.267259" style="fill: #d62728; stroke: #d62728"/>
     <use xlink:href="#m825f16f09b" x="250.404241" y="14.728237" style="fill: #d62728; stroke: #d62728"/>
     <use xlink:href="#m825f16f09b" x="251.01779" y="14.487573" style="fill: #d62728; stroke: #d62728"/>
     <use xlink:href="#m825f16f09b" x="251.620375" y="14.216727" style="fill: #d62728; stroke: #d62728"/>
    </g>
   </g>
   <g id="patch_3">
    <path d="M 46.965625 161.568 
L 46.965625 7.2 
" style="fill: none; stroke: #000000; stroke-width: 0.8; stroke-linejoin: miter; stroke-linecap: square"/>
   </g>
   <g id="patch_4">
    <path d="M 261.853113 161.568 
L 261.853113 7.2 
" style="fill: none; stroke: #000000; stroke-width: 0.8; stroke-linejoin: miter; stroke-linecap: square"/>
   </g>
   <g id="patch_5">
    <path d="M 46.965625 161.568 
L 261.853113 161.568 
" style="fill: none; stroke: #000000; stroke-width: 0.8; stroke-linejoin: miter; stroke-linecap: square"/>
   </g>
   <g id="patch_6">
    <path d="M 46.965625 7.2 
L 261.853113 7.2 
" style="fill: none; stroke: #000000; stroke-width: 0.8; stroke-linejoin: miter; stroke-linecap: square"/>
   </g>
   <g id="legend_1">
    <g id="patch_7">
     <path d="M 268.853113 115.24025 
L 351.68905 115.24025 
Q 353.68905 115.24025 353.68905 113.24025 
L 353.68905 55.52775 
Q 353.68905 53.52775 351.68905 53.52775 
L 268.853113 53.52775 
Q 266.853113 53.52775 266.853113 55.52775 
L 266.853113 113.24025 
Q 266.853113 115.24025 268.853113 115.24025 
z
" style="fill: #ffffff; opacity: 0.8; stroke: #cccccc; stroke-linejoin: miter"/>
    </g>
    <g id="line2d_15">
     <path d="M 270.853113 61.626187 
L 280.853113 61.626187 
L 290.853113 61.626187 
" style="fill: none; stroke: #1f77b4; stroke-width: 0.7; stroke-linecap: square"/>
     <g>
      <use xlink:href="#mabd487e325" x="280.853113" y="61.626187" style="fill: #1f77b4; stroke: #1f77b4"/>
     </g>
    </g>
    <g id="text_14">
     <!-- Addition 1 -->
     <g transform="translate(298.853113 65.126187) scale(0.1 -0.1)">
      <defs>
       <path id="DejaVuSans-41" d="M 2188 4044 
L 1331 1722 
L 3047 1722 
L 2188 4044 
z
M 1831 4666 
L 2547 4666 
L 4325 0 
L 3669 0 
L 3244 1197 
L 1141 1197 
L 716 0 
L 50 0 
L 1831 4666 
z
" transform="scale(0.015625)"/>
       <path id="DejaVuSans-6e" d="M 3513 2113 
L 3513 0 
L 2938 0 
L 2938 2094 
Q 2938 2591 2744 2837 
Q 2550 3084 2163 3084 
Q 1697 3084 1428 2787 
Q 1159 2491 1159 1978 
L 1159 0 
L 581 0 
L 581 3500 
L 1159 3500 
L 1159 2956 
Q 1366 3272 1645 3428 
Q 1925 3584 2291 3584 
Q 2894 3584 3203 3211 
Q 3513 2838 3513 2113 
z
" transform="scale(0.015625)"/>
      </defs>
      <use xlink:href="#DejaVuSans-41"/>
      <use xlink:href="#DejaVuSans-64" transform="translate(66.658203 0)"/>
      <use xlink:href="#DejaVuSans-64" transform="translate(130.134766 0)"/>
      <use xlink:href="#DejaVuSans-69" transform="translate(193.611328 0)"/>
      <use xlink:href="#DejaVuSans-74" transform="translate(221.394531 0)"/>
      <use xlink:href="#DejaVuSans-69" transform="translate(260.603516 0)"/>
      <use xlink:href="#DejaVuSans-6f" transform="translate(288.386719 0)"/>
      <use xlink:href="#DejaVuSans-6e" transform="translate(349.568359 0)"/>
      <use xlink:href="#DejaVuSans-20" transform="translate(412.947266 0)"/>
      <use xlink:href="#DejaVuSans-31" transform="translate(444.734375 0)"/>
     </g>
    </g>
    <g id="line2d_16">
     <path d="M 270.853113 76.304312 
L 280.853113 76.304312 
L 290.853113 76.304312 
" style="fill: none; stroke: #ff7f0e; stroke-width: 0.7; stroke-linecap: square"/>
     <g>
      <use xlink:href="#m6c328cd2b8" x="280.853113" y="76.304312" style="fill: #ff7f0e; stroke: #ff7f0e"/>
     </g>
    </g>
    <g id="text_15">
     <!-- Addition 2 -->
     <g transform="translate(298.853113 79.804312) scale(0.1 -0.1)">
      <use xlink:href="#DejaVuSans-41"/>
      <use xlink:href="#DejaVuSans-64" transform="translate(66.658203 0)"/>
      <use xlink:href="#DejaVuSans-64" transform="translate(130.134766 0)"/>
      <use xlink:href="#DejaVuSans-69" transform="translate(193.611328 0)"/>
      <use xlink:href="#DejaVuSans-74" transform="translate(221.394531 0)"/>
      <use xlink:href="#DejaVuSans-69" transform="translate(260.603516 0)"/>
      <use xlink:href="#DejaVuSans-6f" transform="translate(288.386719 0)"/>
      <use xlink:href="#DejaVuSans-6e" transform="translate(349.568359 0)"/>
      <use xlink:href="#DejaVuSans-20" transform="translate(412.947266 0)"/>
      <use xlink:href="#DejaVuSans-32" transform="translate(444.734375 0)"/>
     </g>
    </g>
    <g id="line2d_17">
     <path d="M 270.853113 90.982437 
L 280.853113 90.982437 
L 290.853113 90.982437 
" style="fill: none; stroke: #2ca02c; stroke-width: 0.7; stroke-linecap: square"/>
     <g>
      <use xlink:href="#mbd932d72e3" x="280.853113" y="90.982437" style="fill: #2ca02c; stroke: #2ca02c"/>
     </g>
    </g>
    <g id="text_16">
     <!-- Addition 3 -->
     <g transform="translate(298.853113 94.482437) scale(0.1 -0.1)">
      <use xlink:href="#DejaVuSans-41"/>
      <use xlink:href="#DejaVuSans-64" transform="translate(66.658203 0)"/>
      <use xlink:href="#DejaVuSans-64" transform="translate(130.134766 0)"/>
      <use xlink:href="#DejaVuSans-69" transform="translate(193.611328 0)"/>
      <use xlink:href="#DejaVuSans-74" transform="translate(221.394531 0)"/>
      <use xlink:href="#DejaVuSans-69" transform="translate(260.603516 0)"/>
      <use xlink:href="#DejaVuSans-6f" transform="translate(288.386719 0)"/>
      <use xlink:href="#DejaVuSans-6e" transform="translate(349.568359 0)"/>
      <use xlink:href="#DejaVuSans-20" transform="translate(412.947266 0)"/>
      <use xlink:href="#DejaVuSans-33" transform="translate(444.734375 0)"/>
     </g>
    </g>
    <g id="line2d_18">
     <path d="M 270.853113 105.660562 
L 280.853113 105.660562 
L 290.853113 105.660562 
" style="fill: none; stroke: #d62728; stroke-width: 0.7; stroke-linecap: square"/>
     <g>
      <use xlink:href="#m825f16f09b" x="280.853113" y="105.660562" style="fill: #d62728; stroke: #d62728"/>
     </g>
    </g>
    <g id="text_17">
     <!-- Addition 4 -->
     <g transform="translate(298.853113 109.160562) scale(0.1 -0.1)">
      <use xlink:href="#DejaVuSans-41"/>
      <use xlink:href="#DejaVuSans-64" transform="translate(66.658203 0)"/>
      <use xlink:href="#DejaVuSans-64" transform="translate(130.134766 0)"/>
      <use xlink:href="#DejaVuSans-69" transform="translate(193.611328 0)"/>
      <use xlink:href="#DejaVuSans-74" transform="translate(221.394531 0)"/>
      <use xlink:href="#DejaVuSans-69" transform="translate(260.603516 0)"/>
      <use xlink:href="#DejaVuSans-6f" transform="translate(288.386719 0)"/>
      <use xlink:href="#DejaVuSans-6e" transform="translate(349.568359 0)"/>
      <use xlink:href="#DejaVuSans-20" transform="translate(412.947266 0)"/>
      <use xlink:href="#DejaVuSans-34" transform="translate(444.734375 0)"/>
     </g>
    </g>
   </g>
  </g>
 </g>
 <defs>
  <clipPath id="p94bbdee90e">
   <rect x="46.965625" y="7.2" width="214.887487" height="154.368"/>
  </clipPath>
 </defs>
</svg>
