<?xml version="1.0" encoding="utf-8" standalone="no"?>
<!DOCTYPE svg PUBLIC "-//W3C//DTD SVG 1.1//EN"
  "http://www.w3.org/Graphics/SVG/1.1/DTD/svg11.dtd">
<svg xmlns:xlink="http://www.w3.org/1999/xlink" width="295.2816pt" height="229.028187pt" viewBox="0 0 295.2816 229.028187" xmlns="http://www.w3.org/2000/svg" version="1.1">
 <metadata>
  <rdf:RDF xmlns:dc="http://purl.org/dc/elements/1.1/" xmlns:cc="http://creativecommons.org/ns#" xmlns:rdf="http://www.w3.org/1999/02/22-rdf-syntax-ns#">
   <cc:Work>
    <dc:type rdf:resource="http://purl.org/dc/dcmitype/StillImage"/>
    <dc:date>2026-01-13T17:04:52.379648</dc:date>
    <dc:format>image/svg+xml</dc:format>
    <dc:creator>
     <cc:Agent>
      <dc:title>Matplotlib v3.10.0, https://matplotlib.org/</dc:title>
     </cc:Agent>
    </dc:creator>
   </cc:Work>
  </rdf:RDF>
 </metadata>
 <defs>
  <style type="text/css">*{stroke-linejoin: round; stroke-linecap: butt}</style>
 </defs>
 <g id="figure_1">
  <g id="patch_1">
   <path d="M 0 229.028187 
L 295.2816 229.028187 
L 295.2816 0 
L 0 0 
z
" style="fill: #ffffff"/>
  </g>
  <g id="axes_1">
   <g id="patch_2">
    <path d="M 43.78125 190.650062 
L 273.17125 190.650062 
L 273.17125 43.194062 
L 43.78125 43.194062 
z
" style="fill: #ffffff"/>
   </g>
   <g id="matplotlib.axis_1">
    <g id="xtick_1">
     <g id="line2d_1">
      <defs>
       <path id="m8ac443797d" d="M 0 0 
L 0 3.5 
" style="stroke: #000000; stroke-width: 0.8"/>
      </defs>
      <g>
       <use xlink:href="#m8ac443797d" x="43.78125" y="190.650062" style="stroke: #000000; stroke-width: 0.8"/>
      </g>
     </g>
     <g id="text_1">
      <!-- 0 -->
      <g transform="translate(40.6 205.2485) scale(0.1 -0.1)">
       <defs>
        <path id="DejaVuSans-30" d="M 2034 4250 
Q 1547 4250 1301 3770 
Q 1056 3291 1056 2328 
Q 1056 1369 1301 889 
Q 1547 409 2034 409 
Q 2525 409 2770 889 
Q 3016 1369 3016 2328 
Q 3016 3291 2770 3770 
Q 2525 4250 2034 4250 
z
M 2034 4750 
Q 2819 4750 3233 4129 
Q 3647 3509 3647 2328 
Q 3647 1150 3233 529 
Q 2819 -91 2034 -91 
Q 1250 -91 836 529 
Q 422 1150 422 2328 
Q 422 3509 836 4129 
Q 1250 4750 2034 4750 
z
" transform="scale(0.015625)"/>
       </defs>
       <use xlink:href="#DejaVuSans-30"/>
      </g>
     </g>
    </g>
    <g id="xtick_2">
     <g id="line2d_2">
      <g>
       <use xlink:href="#m8ac443797d" x="103.058508" y="190.650062" style="stroke: #000000; stroke-width: 0.8"/>
      </g>
     </g>
     <g id="text_2">
      <!-- 1 -->
      <g transform="translate(99.877258 205.2485) scale(0.1 -0.1)">
       <defs>
        <path id="DejaVuSans-31" d="M 794 531 
L 1825 531 
L 1825 4091 
L 703 3866 
L 703 4441 
L 1819 4666 
L 2450 4666 
L 2450 531 
L 3481 531 
L 3481 0 
L 794 0 
L 794 531 
z
" transform="scale(0.015625)"/>
       </defs>
       <use xlink:href="#DejaVuSans-31"/>
      </g>
     </g>
    </g>
    <g id="xtick_3">
     <g id="line2d_3">
      <g>
       <use xlink:href="#m8ac443797d" x="162.335765" y="190.650062" style="stroke: #000000; stroke-width: 0.8"/>
      </g>
     </g>
     <g id="text_3">
      <!-- 2 -->
      <g transform="translate(159.154515 205.2485) scale(0.1 -0.1)">
       <defs>
        <path id="DejaVuSans-32" d="M 1228 531 
L 3431 531 
L 3431 0 
L 469 0 
L 469 531 
Q 828 903 1448 1529 
Q 2069 2156 2228 2338 
Q 2531 2678 2651 2914 
Q 2772 3150 2772 3378 
Q 2772 3750 2511 3984 
Q 2250 4219 1831 4219 
Q 1534 4219 1204 4116 
Q 875 4013 500 3803 
L 500 4441 
Q 881 4594 1212 4672 
Q 1544 4750 1819 4750 
Q 2544 4750 2975 4387 
Q 3406 4025 3406 3419 
Q 3406 3131 3298 2873 
Q 3191 2616 2906 2266 
Q 2828 2175 2409 1742 
Q 1991 1309 1228 531 
z
" transform="scale(0.015625)"/>
       </defs>
       <use xlink:href="#DejaVuSans-32"/>
      </g>
     </g>
    </g>
    <g id="xtick_4">
     <g id="line2d_4">
      <g>
       <use xlink:href="#m8ac443797d" x="221.613023" y="190.650062" style="stroke: #000000; stroke-width: 0.8"/>
      </g>
     </g>
     <g id="text_4">
      <!-- 3 -->
      <g transform="translate(218.431773 205.2485) scale(0.1 -0.1)">
       <defs>
        <path id="DejaVuSans-33" d="M 2597 2516 
Q 3050 2419 3304 2112 
Q 3559 1806 3559 1356 
Q 3559 666 3084 287 
Q 2609 -91 1734 -91 
Q 1441 -91 1130 -33 
Q 819 25 488 141 
L 488 750 
Q 750 597 1062 519 
Q 1375 441 1716 441 
Q 2309 441 2620 675 
Q 2931 909 2931 1356 
Q 2931 1769 2642 2001 
Q 2353 2234 1838 2234 
L 1294 2234 
L 1294 2753 
L 1863 2753 
Q 2328 2753 2575 2939 
Q 2822 3125 2822 3475 
Q 2822 3834 2567 4026 
Q 2313 4219 1838 4219 
Q 1578 4219 1281 4162 
Q 984 4106 628 3988 
L 628 4550 
Q 988 4650 1302 4700 
Q 1616 4750 1894 4750 
Q 2613 4750 3031 4423 
Q 3450 4097 3450 3541 
Q 3450 3153 3228 2886 
Q 3006 2619 2597 2516 
z
" transform="scale(0.015625)"/>
       </defs>
       <use xlink:href="#DejaVuSans-33"/>
      </g>
     </g>
    </g>
    <g id="text_5">
     <!-- $Σ[Amine]^{1.18}[Phenol]^{0.12}[ArOPh]^{1.31}Δt$. -->
     <g transform="translate(64.27625 219.7485) scale(0.1 -0.1)">
      <defs>
       <path id="DejaVuSans-3a3" d="M 1353 531 
L 3634 531 
L 3634 0 
L 628 0 
L 628 531 
L 2125 2481 
L 628 4134 
L 628 4666 
L 3578 4666 
L 3578 4134 
L 1353 4134 
L 2850 2494 
L 1353 531 
z
" transform="scale(0.015625)"/>
       <path id="DejaVuSans-5b" d="M 550 4863 
L 1875 4863 
L 1875 4416 
L 1125 4416 
L 1125 -397 
L 1875 -397 
L 1875 -844 
L 550 -844 
L 550 4863 
z
" transform="scale(0.015625)"/>
       <path id="DejaVuSans-Oblique-41" d="M 2356 4666 
L 3072 4666 
L 3938 0 
L 3278 0 
L 3084 1197 
L 984 1197 
L 325 0 
L -341 0 
L 2356 4666 
z
M 2584 4044 
L 1275 1722 
L 2988 1722 
L 2584 4044 
z
" transform="scale(0.015625)"/>
       <path id="DejaVuSans-Oblique-6d" d="M 5747 2113 
L 5338 0 
L 4763 0 
L 5166 2094 
Q 5191 2228 5203 2325 
Q 5216 2422 5216 2491 
Q 5216 2772 5059 2928 
Q 4903 3084 4622 3084 
Q 4203 3084 3875 2770 
Q 3547 2456 3450 1953 
L 3066 0 
L 2491 0 
L 2900 2094 
Q 2925 2209 2937 2307 
Q 2950 2406 2950 2484 
Q 2950 2769 2794 2926 
Q 2638 3084 2363 3084 
Q 1938 3084 1609 2770 
Q 1281 2456 1184 1953 
L 800 0 
L 225 0 
L 909 3500 
L 1484 3500 
L 1375 2956 
Q 1609 3263 1923 3423 
Q 2238 3584 2597 3584 
Q 2978 3584 3223 3384 
Q 3469 3184 3519 2828 
Q 3781 3197 4126 3390 
Q 4472 3584 4856 3584 
Q 5306 3584 5551 3325 
Q 5797 3066 5797 2591 
Q 5797 2488 5784 2364 
Q 5772 2241 5747 2113 
z
" transform="scale(0.015625)"/>
       <path id="DejaVuSans-Oblique-69" d="M 1172 4863 
L 1747 4863 
L 1606 4134 
L 1031 4134 
L 1172 4863 
z
M 909 3500 
L 1484 3500 
L 800 0 
L 225 0 
L 909 3500 
z
" transform="scale(0.015625)"/>
       <path id="DejaVuSans-Oblique-6e" d="M 3566 2113 
L 3156 0 
L 2578 0 
L 2988 2091 
Q 3016 2238 3031 2350 
Q 3047 2463 3047 2528 
Q 3047 2791 2881 2937 
Q 2716 3084 2419 3084 
Q 1956 3084 1622 2776 
Q 1288 2469 1184 1941 
L 800 0 
L 225 0 
L 903 3500 
L 1478 3500 
L 1363 2950 
Q 1603 3253 1940 3418 
Q 2278 3584 2650 3584 
Q 3113 3584 3367 3334 
Q 3622 3084 3622 2631 
Q 3622 2519 3608 2391 
Q 3594 2263 3566 2113 
z
" transform="scale(0.015625)"/>
       <path id="DejaVuSans-Oblique-65" d="M 3078 2063 
Q 3088 2113 3092 2166 
Q 3097 2219 3097 2272 
Q 3097 2653 2873 2875 
Q 2650 3097 2266 3097 
Q 1838 3097 1509 2826 
Q 1181 2556 1013 2059 
L 3078 2063 
z
M 3578 1613 
L 903 1613 
Q 884 1494 878 1425 
Q 872 1356 872 1306 
Q 872 872 1139 634 
Q 1406 397 1894 397 
Q 2269 397 2603 481 
Q 2938 566 3225 728 
L 3116 159 
Q 2806 34 2476 -28 
Q 2147 -91 1806 -91 
Q 1078 -91 686 257 
Q 294 606 294 1247 
Q 294 1794 489 2264 
Q 684 2734 1063 3103 
Q 1306 3334 1642 3459 
Q 1978 3584 2356 3584 
Q 2950 3584 3301 3228 
Q 3653 2872 3653 2272 
Q 3653 2128 3634 1964 
Q 3616 1800 3578 1613 
z
" transform="scale(0.015625)"/>
       <path id="DejaVuSans-5d" d="M 1947 4863 
L 1947 -844 
L 622 -844 
L 622 -397 
L 1369 -397 
L 1369 4416 
L 622 4416 
L 622 4863 
L 1947 4863 
z
" transform="scale(0.015625)"/>
       <path id="DejaVuSans-2e" d="M 684 794 
L 1344 794 
L 1344 0 
L 684 0 
L 684 794 
z
" transform="scale(0.015625)"/>
       <path id="DejaVuSans-38" d="M 2034 2216 
Q 1584 2216 1326 1975 
Q 1069 1734 1069 1313 
Q 1069 891 1326 650 
Q 1584 409 2034 409 
Q 2484 409 2743 651 
Q 3003 894 3003 1313 
Q 3003 1734 2745 1975 
Q 2488 2216 2034 2216 
z
M 1403 2484 
Q 997 2584 770 2862 
Q 544 3141 544 3541 
Q 544 4100 942 4425 
Q 1341 4750 2034 4750 
Q 2731 4750 3128 4425 
Q 3525 4100 3525 3541 
Q 3525 3141 3298 2862 
Q 3072 2584 2669 2484 
Q 3125 2378 3379 2068 
Q 3634 1759 3634 1313 
Q 3634 634 3220 271 
Q 2806 -91 2034 -91 
Q 1263 -91 848 271 
Q 434 634 434 1313 
Q 434 1759 690 2068 
Q 947 2378 1403 2484 
z
M 1172 3481 
Q 1172 3119 1398 2916 
Q 1625 2713 2034 2713 
Q 2441 2713 2670 2916 
Q 2900 3119 2900 3481 
Q 2900 3844 2670 4047 
Q 2441 4250 2034 4250 
Q 1625 4250 1398 4047 
Q 1172 3844 1172 3481 
z
" transform="scale(0.015625)"/>
       <path id="DejaVuSans-Oblique-50" d="M 1081 4666 
L 2541 4666 
Q 3178 4666 3512 4369 
Q 3847 4072 3847 3500 
Q 3847 2731 3353 2303 
Q 2859 1875 1966 1875 
L 1172 1875 
L 806 0 
L 172 0 
L 1081 4666 
z
M 1613 4147 
L 1275 2394 
L 2069 2394 
Q 2606 2394 2893 2669 
Q 3181 2944 3181 3456 
Q 3181 3784 2986 3965 
Q 2791 4147 2438 4147 
L 1613 4147 
z
" transform="scale(0.015625)"/>
       <path id="DejaVuSans-Oblique-68" d="M 3566 2113 
L 3156 0 
L 2578 0 
L 2988 2091 
Q 3016 2238 3031 2350 
Q 3047 2463 3047 2528 
Q 3047 2791 2881 2937 
Q 2716 3084 2419 3084 
Q 1956 3084 1617 2771 
Q 1278 2459 1178 1941 
L 800 0 
L 225 0 
L 1172 4863 
L 1747 4863 
L 1375 2950 
Q 1594 3244 1934 3414 
Q 2275 3584 2650 3584 
Q 3113 3584 3367 3334 
Q 3622 3084 3622 2631 
Q 3622 2519 3608 2391 
Q 3594 2263 3566 2113 
z
" transform="scale(0.015625)"/>
       <path id="DejaVuSans-Oblique-6f" d="M 1625 -91 
Q 1009 -91 651 289 
Q 294 669 294 1325 
Q 294 1706 417 2101 
Q 541 2497 738 2766 
Q 1047 3184 1428 3384 
Q 1809 3584 2291 3584 
Q 2888 3584 3255 3212 
Q 3622 2841 3622 2241 
Q 3622 1825 3500 1412 
Q 3378 1000 3181 728 
Q 2875 309 2494 109 
Q 2113 -91 1625 -91 
z
M 891 1344 
Q 891 869 1089 633 
Q 1288 397 1691 397 
Q 2269 397 2648 901 
Q 3028 1406 3028 2181 
Q 3028 2634 2825 2865 
Q 2622 3097 2228 3097 
Q 1903 3097 1650 2945 
Q 1397 2794 1197 2484 
Q 1050 2253 970 1956 
Q 891 1659 891 1344 
z
" transform="scale(0.015625)"/>
       <path id="DejaVuSans-Oblique-6c" d="M 1172 4863 
L 1747 4863 
L 800 0 
L 225 0 
L 1172 4863 
z
" transform="scale(0.015625)"/>
       <path id="DejaVuSans-Oblique-72" d="M 2853 2969 
Q 2766 3016 2653 3041 
Q 2541 3066 2413 3066 
Q 1953 3066 1609 2717 
Q 1266 2369 1153 1784 
L 800 0 
L 225 0 
L 909 3500 
L 1484 3500 
L 1375 2956 
Q 1603 3259 1920 3421 
Q 2238 3584 2597 3584 
Q 2691 3584 2781 3573 
Q 2872 3563 2963 3538 
L 2853 2969 
z
" transform="scale(0.015625)"/>
       <path id="DejaVuSans-Oblique-4f" d="M 2919 4238 
Q 2400 4238 2003 3986 
Q 1606 3734 1313 3219 
Q 1125 2891 1026 2522 
Q 928 2153 928 1778 
Q 928 1128 1239 775 
Q 1550 422 2119 422 
Q 2631 422 3032 676 
Q 3434 931 3719 1434 
Q 3909 1772 4009 2142 
Q 4109 2513 4109 2881 
Q 4109 3528 3796 3883 
Q 3484 4238 2919 4238 
z
M 2100 -91 
Q 1241 -91 748 418 
Q 256 928 256 1813 
Q 256 2319 448 2847 
Q 641 3375 978 3788 
Q 1375 4272 1862 4511 
Q 2350 4750 2938 4750 
Q 3794 4750 4287 4245 
Q 4781 3741 4781 2869 
Q 4781 2331 4593 1812 
Q 4406 1294 4056 872 
Q 3656 384 3173 146 
Q 2691 -91 2100 -91 
z
" transform="scale(0.015625)"/>
       <path id="DejaVuSans-394" d="M 2188 4044 
L 906 525 
L 3472 525 
L 2188 4044 
z
M 50 0 
L 1831 4666 
L 2547 4666 
L 4325 0 
L 50 0 
z
" transform="scale(0.015625)"/>
       <path id="DejaVuSans-Oblique-74" d="M 2706 3500 
L 2619 3053 
L 1472 3053 
L 1100 1153 
Q 1081 1047 1072 975 
Q 1063 903 1063 863 
Q 1063 663 1183 572 
Q 1303 481 1569 481 
L 2150 481 
L 2053 0 
L 1503 0 
Q 991 0 739 200 
Q 488 400 488 806 
Q 488 878 497 964 
Q 506 1050 525 1153 
L 897 3053 
L 409 3053 
L 500 3500 
L 978 3500 
L 1172 4494 
L 1747 4494 
L 1556 3500 
L 2706 3500 
z
" transform="scale(0.015625)"/>
      </defs>
      <use xlink:href="#DejaVuSans-3a3" transform="translate(0 0.765625)"/>
      <use xlink:href="#DejaVuSans-5b" transform="translate(63.183594 0.765625)"/>
      <use xlink:href="#DejaVuSans-Oblique-41" transform="translate(102.197266 0.765625)"/>
      <use xlink:href="#DejaVuSans-Oblique-6d" transform="translate(170.605469 0.765625)"/>
      <use xlink:href="#DejaVuSans-Oblique-69" transform="translate(268.017578 0.765625)"/>
      <use xlink:href="#DejaVuSans-Oblique-6e" transform="translate(295.800781 0.765625)"/>
      <use xlink:href="#DejaVuSans-Oblique-65" transform="translate(359.179688 0.765625)"/>
      <use xlink:href="#DejaVuSans-5d" transform="translate(420.703125 0.765625)"/>
      <use xlink:href="#DejaVuSans-31" transform="translate(460.673828 39.046875) scale(0.7)"/>
      <use xlink:href="#DejaVuSans-2e" transform="translate(505.209961 39.046875) scale(0.7)"/>
      <use xlink:href="#DejaVuSans-31" transform="translate(527.460938 39.046875) scale(0.7)"/>
      <use xlink:href="#DejaVuSans-38" transform="translate(571.99707 39.046875) scale(0.7)"/>
      <use xlink:href="#DejaVuSans-5b" transform="translate(619.267578 0.765625)"/>
      <use xlink:href="#DejaVuSans-Oblique-50" transform="translate(658.28125 0.765625)"/>
      <use xlink:href="#DejaVuSans-Oblique-68" transform="translate(718.583984 0.765625)"/>
      <use xlink:href="#DejaVuSans-Oblique-65" transform="translate(781.962891 0.765625)"/>
      <use xlink:href="#DejaVuSans-Oblique-6e" transform="translate(843.486328 0.765625)"/>
      <use xlink:href="#DejaVuSans-Oblique-6f" transform="translate(906.865234 0.765625)"/>
      <use xlink:href="#DejaVuSans-Oblique-6c" transform="translate(968.046875 0.765625)"/>
      <use xlink:href="#DejaVuSans-5d" transform="translate(995.830078 0.765625)"/>
      <use xlink:href="#DejaVuSans-30" transform="translate(1035.800781 39.046875) scale(0.7)"/>
      <use xlink:href="#DejaVuSans-2e" transform="translate(1080.336914 39.046875) scale(0.7)"/>
      <use xlink:href="#DejaVuSans-31" transform="translate(1102.587891 39.046875) scale(0.7)"/>
      <use xlink:href="#DejaVuSans-32" transform="translate(1147.124023 39.046875) scale(0.7)"/>
      <use xlink:href="#DejaVuSans-5b" transform="translate(1194.394531 0.765625)"/>
      <use xlink:href="#DejaVuSans-Oblique-41" transform="translate(1233.408203 0.765625)"/>
      <use xlink:href="#DejaVuSans-Oblique-72" transform="translate(1301.816406 0.765625)"/>
      <use xlink:href="#DejaVuSans-Oblique-4f" transform="translate(1342.929688 0.765625)"/>
      <use xlink:href="#DejaVuSans-Oblique-50" transform="translate(1421.640625 0.765625)"/>
      <use xlink:href="#DejaVuSans-Oblique-68" transform="translate(1481.943359 0.765625)"/>
      <use xlink:href="#DejaVuSans-5d" transform="translate(1545.322266 0.765625)"/>
      <use xlink:href="#DejaVuSans-31" transform="translate(1585.292969 39.046875) scale(0.7)"/>
      <use xlink:href="#DejaVuSans-2e" transform="translate(1629.829102 39.046875) scale(0.7)"/>
      <use xlink:href="#DejaVuSans-33" transform="translate(1652.080078 39.046875) scale(0.7)"/>
      <use xlink:href="#DejaVuSans-31" transform="translate(1696.616211 39.046875) scale(0.7)"/>
      <use xlink:href="#DejaVuSans-394" transform="translate(1743.886719 0.765625)"/>
      <use xlink:href="#DejaVuSans-Oblique-74" transform="translate(1812.294922 0.765625)"/>
      <use xlink:href="#DejaVuSans-2e" transform="translate(1851.503906 0.765625)"/>
     </g>
    </g>
    <g id="text_6">
     <!-- 1e5 -->
     <g transform="translate(269.203475 217.926625) scale(0.1 -0.1)">
      <defs>
       <path id="DejaVuSans-65" d="M 3597 1894 
L 3597 1613 
L 953 1613 
Q 991 1019 1311 708 
Q 1631 397 2203 397 
Q 2534 397 2845 478 
Q 3156 559 3463 722 
L 3463 178 
Q 3153 47 2828 -22 
Q 2503 -91 2169 -91 
Q 1331 -91 842 396 
Q 353 884 353 1716 
Q 353 2575 817 3079 
Q 1281 3584 2069 3584 
Q 2775 3584 3186 3129 
Q 3597 2675 3597 1894 
z
M 3022 2063 
Q 3016 2534 2758 2815 
Q 2500 3097 2075 3097 
Q 1594 3097 1305 2825 
Q 1016 2553 972 2059 
L 3022 2063 
z
" transform="scale(0.015625)"/>
       <path id="DejaVuSans-35" d="M 691 4666 
L 3169 4666 
L 3169 4134 
L 1269 4134 
L 1269 2991 
Q 1406 3038 1543 3061 
Q 1681 3084 1819 3084 
Q 2600 3084 3056 2656 
Q 3513 2228 3513 1497 
Q 3513 744 3044 326 
Q 2575 -91 1722 -91 
Q 1428 -91 1123 -41 
Q 819 9 494 109 
L 494 744 
Q 775 591 1075 516 
Q 1375 441 1709 441 
Q 2250 441 2565 725 
Q 2881 1009 2881 1497 
Q 2881 1984 2565 2268 
Q 2250 2553 1709 2553 
Q 1456 2553 1204 2497 
Q 953 2441 691 2322 
L 691 4666 
z
" transform="scale(0.015625)"/>
      </defs>
      <use xlink:href="#DejaVuSans-31"/>
      <use xlink:href="#DejaVuSans-65" transform="translate(63.623047 0)"/>
      <use xlink:href="#DejaVuSans-35" transform="translate(125.146484 0)"/>
     </g>
    </g>
   </g>
   <g id="matplotlib.axis_2">
    <g id="ytick_1">
     <g id="line2d_5">
      <defs>
       <path id="m1c1a770c49" d="M 0 0 
L -3.5 0 
" style="stroke: #000000; stroke-width: 0.8"/>
      </defs>
      <g>
       <use xlink:href="#m1c1a770c49" x="43.78125" y="171.212225" style="stroke: #000000; stroke-width: 0.8"/>
      </g>
     </g>
     <g id="text_7">
      <!-- 0.8 -->
      <g transform="translate(20.878125 175.011444) scale(0.1 -0.1)">
       <use xlink:href="#DejaVuSans-30"/>
       <use xlink:href="#DejaVuSans-2e" transform="translate(63.623047 0)"/>
       <use xlink:href="#DejaVuSans-38" transform="translate(95.410156 0)"/>
      </g>
     </g>
    </g>
    <g id="ytick_2">
     <g id="line2d_6">
      <g>
       <use xlink:href="#m1c1a770c49" x="43.78125" y="138.179577" style="stroke: #000000; stroke-width: 0.8"/>
      </g>
     </g>
     <g id="text_8">
      <!-- 0.9 -->
      <g transform="translate(20.878125 141.978796) scale(0.1 -0.1)">
       <defs>
        <path id="DejaVuSans-39" d="M 703 97 
L 703 672 
Q 941 559 1184 500 
Q 1428 441 1663 441 
Q 2288 441 2617 861 
Q 2947 1281 2994 2138 
Q 2813 1869 2534 1725 
Q 2256 1581 1919 1581 
Q 1219 1581 811 2004 
Q 403 2428 403 3163 
Q 403 3881 828 4315 
Q 1253 4750 1959 4750 
Q 2769 4750 3195 4129 
Q 3622 3509 3622 2328 
Q 3622 1225 3098 567 
Q 2575 -91 1691 -91 
Q 1453 -91 1209 -44 
Q 966 3 703 97 
z
M 1959 2075 
Q 2384 2075 2632 2365 
Q 2881 2656 2881 3163 
Q 2881 3666 2632 3958 
Q 2384 4250 1959 4250 
Q 1534 4250 1286 3958 
Q 1038 3666 1038 3163 
Q 1038 2656 1286 2365 
Q 1534 2075 1959 2075 
z
" transform="scale(0.015625)"/>
       </defs>
       <use xlink:href="#DejaVuSans-30"/>
       <use xlink:href="#DejaVuSans-2e" transform="translate(63.623047 0)"/>
       <use xlink:href="#DejaVuSans-39" transform="translate(95.410156 0)"/>
      </g>
     </g>
    </g>
    <g id="ytick_3">
     <g id="line2d_7">
      <g>
       <use xlink:href="#m1c1a770c49" x="43.78125" y="105.146929" style="stroke: #000000; stroke-width: 0.8"/>
      </g>
     </g>
     <g id="text_9">
      <!-- 1.0 -->
      <g transform="translate(20.878125 108.946148) scale(0.1 -0.1)">
       <use xlink:href="#DejaVuSans-31"/>
       <use xlink:href="#DejaVuSans-2e" transform="translate(63.623047 0)"/>
       <use xlink:href="#DejaVuSans-30" transform="translate(95.410156 0)"/>
      </g>
     </g>
    </g>
    <g id="ytick_4">
     <g id="line2d_8">
      <g>
       <use xlink:href="#m1c1a770c49" x="43.78125" y="72.114281" style="stroke: #000000; stroke-width: 0.8"/>
      </g>
     </g>
     <g id="text_10">
      <!-- 1.1 -->
      <g transform="translate(20.878125 75.9135) scale(0.1 -0.1)">
       <use xlink:href="#DejaVuSans-31"/>
       <use xlink:href="#DejaVuSans-2e" transform="translate(63.623047 0)"/>
       <use xlink:href="#DejaVuSans-31" transform="translate(95.410156 0)"/>
      </g>
     </g>
    </g>
    <g id="text_11">
     <!-- Shifted Scaled [Product] -->
     <g transform="translate(14.798438 177.22675) rotate(-90) scale(0.1 -0.1)">
      <defs>
       <path id="DejaVuSans-53" d="M 3425 4513 
L 3425 3897 
Q 3066 4069 2747 4153 
Q 2428 4238 2131 4238 
Q 1616 4238 1336 4038 
Q 1056 3838 1056 3469 
Q 1056 3159 1242 3001 
Q 1428 2844 1947 2747 
L 2328 2669 
Q 3034 2534 3370 2195 
Q 3706 1856 3706 1288 
Q 3706 609 3251 259 
Q 2797 -91 1919 -91 
Q 1588 -91 1214 -16 
Q 841 59 441 206 
L 441 856 
Q 825 641 1194 531 
Q 1563 422 1919 422 
Q 2459 422 2753 634 
Q 3047 847 3047 1241 
Q 3047 1584 2836 1778 
Q 2625 1972 2144 2069 
L 1759 2144 
Q 1053 2284 737 2584 
Q 422 2884 422 3419 
Q 422 4038 858 4394 
Q 1294 4750 2059 4750 
Q 2388 4750 2728 4690 
Q 3069 4631 3425 4513 
z
" transform="scale(0.015625)"/>
       <path id="DejaVuSans-68" d="M 3513 2113 
L 3513 0 
L 2938 0 
L 2938 2094 
Q 2938 2591 2744 2837 
Q 2550 3084 2163 3084 
Q 1697 3084 1428 2787 
Q 1159 2491 1159 1978 
L 1159 0 
L 581 0 
L 581 4863 
L 1159 4863 
L 1159 2956 
Q 1366 3272 1645 3428 
Q 1925 3584 2291 3584 
Q 2894 3584 3203 3211 
Q 3513 2838 3513 2113 
z
" transform="scale(0.015625)"/>
       <path id="DejaVuSans-69" d="M 603 3500 
L 1178 3500 
L 1178 0 
L 603 0 
L 603 3500 
z
M 603 4863 
L 1178 4863 
L 1178 4134 
L 603 4134 
L 603 4863 
z
" transform="scale(0.015625)"/>
       <path id="DejaVuSans-66" d="M 2375 4863 
L 2375 4384 
L 1825 4384 
Q 1516 4384 1395 4259 
Q 1275 4134 1275 3809 
L 1275 3500 
L 2222 3500 
L 2222 3053 
L 1275 3053 
L 1275 0 
L 697 0 
L 697 3053 
L 147 3053 
L 147 3500 
L 697 3500 
L 697 3744 
Q 697 4328 969 4595 
Q 1241 4863 1831 4863 
L 2375 4863 
z
" transform="scale(0.015625)"/>
       <path id="DejaVuSans-74" d="M 1172 4494 
L 1172 3500 
L 2356 3500 
L 2356 3053 
L 1172 3053 
L 1172 1153 
Q 1172 725 1289 603 
Q 1406 481 1766 481 
L 2356 481 
L 2356 0 
L 1766 0 
Q 1100 0 847 248 
Q 594 497 594 1153 
L 594 3053 
L 172 3053 
L 172 3500 
L 594 3500 
L 594 4494 
L 1172 4494 
z
" transform="scale(0.015625)"/>
       <path id="DejaVuSans-64" d="M 2906 2969 
L 2906 4863 
L 3481 4863 
L 3481 0 
L 2906 0 
L 2906 525 
Q 2725 213 2448 61 
Q 2172 -91 1784 -91 
Q 1150 -91 751 415 
Q 353 922 353 1747 
Q 353 2572 751 3078 
Q 1150 3584 1784 3584 
Q 2172 3584 2448 3432 
Q 2725 3281 2906 2969 
z
M 947 1747 
Q 947 1113 1208 752 
Q 1469 391 1925 391 
Q 2381 391 2643 752 
Q 2906 1113 2906 1747 
Q 2906 2381 2643 2742 
Q 2381 3103 1925 3103 
Q 1469 3103 1208 2742 
Q 947 2381 947 1747 
z
" transform="scale(0.015625)"/>
       <path id="DejaVuSans-20" transform="scale(0.015625)"/>
       <path id="DejaVuSans-63" d="M 3122 3366 
L 3122 2828 
Q 2878 2963 2633 3030 
Q 2388 3097 2138 3097 
Q 1578 3097 1268 2742 
Q 959 2388 959 1747 
Q 959 1106 1268 751 
Q 1578 397 2138 397 
Q 2388 397 2633 464 
Q 2878 531 3122 666 
L 3122 134 
Q 2881 22 2623 -34 
Q 2366 -91 2075 -91 
Q 1284 -91 818 406 
Q 353 903 353 1747 
Q 353 2603 823 3093 
Q 1294 3584 2113 3584 
Q 2378 3584 2631 3529 
Q 2884 3475 3122 3366 
z
" transform="scale(0.015625)"/>
       <path id="DejaVuSans-61" d="M 2194 1759 
Q 1497 1759 1228 1600 
Q 959 1441 959 1056 
Q 959 750 1161 570 
Q 1363 391 1709 391 
Q 2188 391 2477 730 
Q 2766 1069 2766 1631 
L 2766 1759 
L 2194 1759 
z
M 3341 1997 
L 3341 0 
L 2766 0 
L 2766 531 
Q 2569 213 2275 61 
Q 1981 -91 1556 -91 
Q 1019 -91 701 211 
Q 384 513 384 1019 
Q 384 1609 779 1909 
Q 1175 2209 1959 2209 
L 2766 2209 
L 2766 2266 
Q 2766 2663 2505 2880 
Q 2244 3097 1772 3097 
Q 1472 3097 1187 3025 
Q 903 2953 641 2809 
L 641 3341 
Q 956 3463 1253 3523 
Q 1550 3584 1831 3584 
Q 2591 3584 2966 3190 
Q 3341 2797 3341 1997 
z
" transform="scale(0.015625)"/>
       <path id="DejaVuSans-6c" d="M 603 4863 
L 1178 4863 
L 1178 0 
L 603 0 
L 603 4863 
z
" transform="scale(0.015625)"/>
       <path id="DejaVuSans-50" d="M 1259 4147 
L 1259 2394 
L 2053 2394 
Q 2494 2394 2734 2622 
Q 2975 2850 2975 3272 
Q 2975 3691 2734 3919 
Q 2494 4147 2053 4147 
L 1259 4147 
z
M 628 4666 
L 2053 4666 
Q 2838 4666 3239 4311 
Q 3641 3956 3641 3272 
Q 3641 2581 3239 2228 
Q 2838 1875 2053 1875 
L 1259 1875 
L 1259 0 
L 628 0 
L 628 4666 
z
" transform="scale(0.015625)"/>
       <path id="DejaVuSans-72" d="M 2631 2963 
Q 2534 3019 2420 3045 
Q 2306 3072 2169 3072 
Q 1681 3072 1420 2755 
Q 1159 2438 1159 1844 
L 1159 0 
L 581 0 
L 581 3500 
L 1159 3500 
L 1159 2956 
Q 1341 3275 1631 3429 
Q 1922 3584 2338 3584 
Q 2397 3584 2469 3576 
Q 2541 3569 2628 3553 
L 2631 2963 
z
" transform="scale(0.015625)"/>
       <path id="DejaVuSans-6f" d="M 1959 3097 
Q 1497 3097 1228 2736 
Q 959 2375 959 1747 
Q 959 1119 1226 758 
Q 1494 397 1959 397 
Q 2419 397 2687 759 
Q 2956 1122 2956 1747 
Q 2956 2369 2687 2733 
Q 2419 3097 1959 3097 
z
M 1959 3584 
Q 2709 3584 3137 3096 
Q 3566 2609 3566 1747 
Q 3566 888 3137 398 
Q 2709 -91 1959 -91 
Q 1206 -91 779 398 
Q 353 888 353 1747 
Q 353 2609 779 3096 
Q 1206 3584 1959 3584 
z
" transform="scale(0.015625)"/>
       <path id="DejaVuSans-75" d="M 544 1381 
L 544 3500 
L 1119 3500 
L 1119 1403 
Q 1119 906 1312 657 
Q 1506 409 1894 409 
Q 2359 409 2629 706 
Q 2900 1003 2900 1516 
L 2900 3500 
L 3475 3500 
L 3475 0 
L 2900 0 
L 2900 538 
Q 2691 219 2414 64 
Q 2138 -91 1772 -91 
Q 1169 -91 856 284 
Q 544 659 544 1381 
z
M 1991 3584 
L 1991 3584 
z
" transform="scale(0.015625)"/>
      </defs>
      <use xlink:href="#DejaVuSans-53"/>
      <use xlink:href="#DejaVuSans-68" transform="translate(63.476562 0)"/>
      <use xlink:href="#DejaVuSans-69" transform="translate(126.855469 0)"/>
      <use xlink:href="#DejaVuSans-66" transform="translate(154.638672 0)"/>
      <use xlink:href="#DejaVuSans-74" transform="translate(188.09375 0)"/>
      <use xlink:href="#DejaVuSans-65" transform="translate(227.302734 0)"/>
      <use xlink:href="#DejaVuSans-64" transform="translate(288.826172 0)"/>
      <use xlink:href="#DejaVuSans-20" transform="translate(352.302734 0)"/>
      <use xlink:href="#DejaVuSans-53" transform="translate(384.089844 0)"/>
      <use xlink:href="#DejaVuSans-63" transform="translate(447.566406 0)"/>
      <use xlink:href="#DejaVuSans-61" transform="translate(502.546875 0)"/>
      <use xlink:href="#DejaVuSans-6c" transform="translate(563.826172 0)"/>
      <use xlink:href="#DejaVuSans-65" transform="translate(591.609375 0)"/>
      <use xlink:href="#DejaVuSans-64" transform="translate(653.132812 0)"/>
      <use xlink:href="#DejaVuSans-20" transform="translate(716.609375 0)"/>
      <use xlink:href="#DejaVuSans-5b" transform="translate(748.396484 0)"/>
      <use xlink:href="#DejaVuSans-50" transform="translate(787.410156 0)"/>
      <use xlink:href="#DejaVuSans-72" transform="translate(845.962891 0)"/>
      <use xlink:href="#DejaVuSans-6f" transform="translate(884.826172 0)"/>
      <use xlink:href="#DejaVuSans-64" transform="translate(946.007812 0)"/>
      <use xlink:href="#DejaVuSans-75" transform="translate(1009.484375 0)"/>
      <use xlink:href="#DejaVuSans-63" transform="translate(1072.863281 0)"/>
      <use xlink:href="#DejaVuSans-74" transform="translate(1127.84375 0)"/>
      <use xlink:href="#DejaVuSans-5d" transform="translate(1167.052734 0)"/>
     </g>
    </g>
   </g>
   <g id="line2d_9">
    <path d="M 43.781257 183.947517 
L 49.410536 178.000551 
L 55.336504 172.600633 
L 60.987471 167.853491 
L 66.406737 163.420549 
L 71.76364 159.560377 
L 76.745551 155.332962 
L 81.44833 151.665027 
L 86.102268 148.724453 
L 90.424526 145.962483 
L 94.551406 142.728039 
L 98.568602 138.826228 
L 102.254004 136.711507 
L 105.793582 134.325697 
L 109.227573 132.817801 
L 112.579891 129.748171 
L 115.690404 128.078669 
L 118.682878 125.700594 
L 121.634738 123.866211 
L 124.410918 122.791735 
L 127.094465 121.049039 
L 129.77599 119.928381 
L 132.321477 118.938371 
L 134.78445 117.724777 
L 137.135667 114.849171 
L 139.480468 114.96954 
L 141.705658 112.969439 
L 143.828193 111.666228 
L 145.969251 111.008088 
L 147.973216 109.368978 
L 149.902161 108.707487 
L 151.832087 107.203299 
L 153.649303 106.92406 
L 155.415314 105.678532 
L 157.192584 105.22026 
L 158.890741 104.169392 
L 160.531663 103.896616 
L 162.13494 102.335575 
L 163.746155 102.436351 
L 165.281443 101.496911 
L 166.776595 100.713217 
L 168.295787 100.950732 
L 169.760317 100.083369 
L 171.179017 99.496431 
L 172.618442 99.116606 
L 173.997823 98.583561 
L 175.32363 97.423474 
L 176.638771 96.663969 
L 177.88239 95.964286 
L 179.104283 95.530169 
L 180.344474 95.681402 
L 181.536078 95.135795 
L 182.722635 95.316409 
L 183.890016 94.200112 
L 185.041277 93.535179 
L 186.14029 93.411931 
L 187.213868 92.305169 
L 188.311919 93.004476 
L 189.400125 93.550621 
L 190.49844 93.354991 
L 191.576473 91.468215 
L 192.607883 92.681847 
L 193.640263 91.601648 
L 194.641222 91.303327 
L 195.637535 90.155338 
L 196.607716 91.447371 
L 197.577347 90.300567 
L 198.554901 90.407979 
L 199.487118 89.553533 
L 200.391415 89.37674 
L 201.338935 90.06444 
L 202.243838 88.829409 
L 203.132542 89.399976 
L 203.996246 87.933153 
L 204.868112 88.469312 
L 205.720345 88.195492 
L 206.563897 88.195212 
L 207.434003 88.131316 
L 208.28659 88.60496 
L 209.139221 88.009033 
L 209.993369 87.731032 
L 210.809149 87.24181 
L 211.606204 87.259351 
L 212.430141 87.345401 
L 213.210097 86.123706 
L 213.95017 85.875201 
L 214.674942 85.293751 
L 215.421789 86.135709 
L 216.165327 85.990095 
L 216.917948 86.413643 
L 217.693262 86.151912 
L 218.419653 85.191827 
L 219.134094 85.448805 
L 219.865929 85.184954 
L 220.558492 84.582529 
L 221.243837 84.77721 
L 221.92505 84.467298 
L 222.604982 84.032446 
" clip-path="url(#pee14a1b130)" style="fill: none; stroke: #1f77b4; stroke-width: 0.7; stroke-linecap: square"/>
    <defs>
     <path id="mf107a43be1" d="M 0 0.9 
C 0.238683 0.9 0.467622 0.80517 0.636396 0.636396 
C 0.80517 0.467622 0.9 0.238683 0.9 0 
C 0.9 -0.238683 0.80517 -0.467622 0.636396 -0.636396 
C 0.467622 -0.80517 0.238683 -0.9 0 -0.9 
C -0.238683 -0.9 -0.467622 -0.80517 -0.636396 -0.636396 
C -0.80517 -0.467622 -0.9 -0.238683 -0.9 0 
C -0.9 0.238683 -0.80517 0.467622 -0.636396 0.636396 
C -0.467622 0.80517 -0.238683 0.9 0 0.9 
z
" style="stroke: #1f77b4"/>
    </defs>
    <g clip-path="url(#pee14a1b130)">
     <use xlink:href="#mf107a43be1" x="43.781257" y="183.947517" style="fill: #1f77b4; stroke: #1f77b4"/>
     <use xlink:href="#mf107a43be1" x="49.410536" y="178.000551" style="fill: #1f77b4; stroke: #1f77b4"/>
     <use xlink:href="#mf107a43be1" x="55.336504" y="172.600633" style="fill: #1f77b4; stroke: #1f77b4"/>
     <use xlink:href="#mf107a43be1" x="60.987471" y="167.853491" style="fill: #1f77b4; stroke: #1f77b4"/>
     <use xlink:href="#mf107a43be1" x="66.406737" y="163.420549" style="fill: #1f77b4; stroke: #1f77b4"/>
     <use xlink:href="#mf107a43be1" x="71.76364" y="159.560377" style="fill: #1f77b4; stroke: #1f77b4"/>
     <use xlink:href="#mf107a43be1" x="76.745551" y="155.332962" style="fill: #1f77b4; stroke: #1f77b4"/>
     <use xlink:href="#mf107a43be1" x="81.44833" y="151.665027" style="fill: #1f77b4; stroke: #1f77b4"/>
     <use xlink:href="#mf107a43be1" x="86.102268" y="148.724453" style="fill: #1f77b4; stroke: #1f77b4"/>
     <use xlink:href="#mf107a43be1" x="90.424526" y="145.962483" style="fill: #1f77b4; stroke: #1f77b4"/>
     <use xlink:href="#mf107a43be1" x="94.551406" y="142.728039" style="fill: #1f77b4; stroke: #1f77b4"/>
     <use xlink:href="#mf107a43be1" x="98.568602" y="138.826228" style="fill: #1f77b4; stroke: #1f77b4"/>
     <use xlink:href="#mf107a43be1" x="102.254004" y="136.711507" style="fill: #1f77b4; stroke: #1f77b4"/>
     <use xlink:href="#mf107a43be1" x="105.793582" y="134.325697" style="fill: #1f77b4; stroke: #1f77b4"/>
     <use xlink:href="#mf107a43be1" x="109.227573" y="132.817801" style="fill: #1f77b4; stroke: #1f77b4"/>
     <use xlink:href="#mf107a43be1" x="112.579891" y="129.748171" style="fill: #1f77b4; stroke: #1f77b4"/>
     <use xlink:href="#mf107a43be1" x="115.690404" y="128.078669" style="fill: #1f77b4; stroke: #1f77b4"/>
     <use xlink:href="#mf107a43be1" x="118.682878" y="125.700594" style="fill: #1f77b4; stroke: #1f77b4"/>
     <use xlink:href="#mf107a43be1" x="121.634738" y="123.866211" style="fill: #1f77b4; stroke: #1f77b4"/>
     <use xlink:href="#mf107a43be1" x="124.410918" y="122.791735" style="fill: #1f77b4; stroke: #1f77b4"/>
     <use xlink:href="#mf107a43be1" x="127.094465" y="121.049039" style="fill: #1f77b4; stroke: #1f77b4"/>
     <use xlink:href="#mf107a43be1" x="129.77599" y="119.928381" style="fill: #1f77b4; stroke: #1f77b4"/>
     <use xlink:href="#mf107a43be1" x="132.321477" y="118.938371" style="fill: #1f77b4; stroke: #1f77b4"/>
     <use xlink:href="#mf107a43be1" x="134.78445" y="117.724777" style="fill: #1f77b4; stroke: #1f77b4"/>
     <use xlink:href="#mf107a43be1" x="137.135667" y="114.849171" style="fill: #1f77b4; stroke: #1f77b4"/>
     <use xlink:href="#mf107a43be1" x="139.480468" y="114.96954" style="fill: #1f77b4; stroke: #1f77b4"/>
     <use xlink:href="#mf107a43be1" x="141.705658" y="112.969439" style="fill: #1f77b4; stroke: #1f77b4"/>
     <use xlink:href="#mf107a43be1" x="143.828193" y="111.666228" style="fill: #1f77b4; stroke: #1f77b4"/>
     <use xlink:href="#mf107a43be1" x="145.969251" y="111.008088" style="fill: #1f77b4; stroke: #1f77b4"/>
     <use xlink:href="#mf107a43be1" x="147.973216" y="109.368978" style="fill: #1f77b4; stroke: #1f77b4"/>
     <use xlink:href="#mf107a43be1" x="149.902161" y="108.707487" style="fill: #1f77b4; stroke: #1f77b4"/>
     <use xlink:href="#mf107a43be1" x="151.832087" y="107.203299" style="fill: #1f77b4; stroke: #1f77b4"/>
     <use xlink:href="#mf107a43be1" x="153.649303" y="106.92406" style="fill: #1f77b4; stroke: #1f77b4"/>
     <use xlink:href="#mf107a43be1" x="155.415314" y="105.678532" style="fill: #1f77b4; stroke: #1f77b4"/>
     <use xlink:href="#mf107a43be1" x="157.192584" y="105.22026" style="fill: #1f77b4; stroke: #1f77b4"/>
     <use xlink:href="#mf107a43be1" x="158.890741" y="104.169392" style="fill: #1f77b4; stroke: #1f77b4"/>
     <use xlink:href="#mf107a43be1" x="160.531663" y="103.896616" style="fill: #1f77b4; stroke: #1f77b4"/>
     <use xlink:href="#mf107a43be1" x="162.13494" y="102.335575" style="fill: #1f77b4; stroke: #1f77b4"/>
     <use xlink:href="#mf107a43be1" x="163.746155" y="102.436351" style="fill: #1f77b4; stroke: #1f77b4"/>
     <use xlink:href="#mf107a43be1" x="165.281443" y="101.496911" style="fill: #1f77b4; stroke: #1f77b4"/>
     <use xlink:href="#mf107a43be1" x="166.776595" y="100.713217" style="fill: #1f77b4; stroke: #1f77b4"/>
     <use xlink:href="#mf107a43be1" x="168.295787" y="100.950732" style="fill: #1f77b4; stroke: #1f77b4"/>
     <use xlink:href="#mf107a43be1" x="169.760317" y="100.083369" style="fill: #1f77b4; stroke: #1f77b4"/>
     <use xlink:href="#mf107a43be1" x="171.179017" y="99.496431" style="fill: #1f77b4; stroke: #1f77b4"/>
     <use xlink:href="#mf107a43be1" x="172.618442" y="99.116606" style="fill: #1f77b4; stroke: #1f77b4"/>
     <use xlink:href="#mf107a43be1" x="173.997823" y="98.583561" style="fill: #1f77b4; stroke: #1f77b4"/>
     <use xlink:href="#mf107a43be1" x="175.32363" y="97.423474" style="fill: #1f77b4; stroke: #1f77b4"/>
     <use xlink:href="#mf107a43be1" x="176.638771" y="96.663969" style="fill: #1f77b4; stroke: #1f77b4"/>
     <use xlink:href="#mf107a43be1" x="177.88239" y="95.964286" style="fill: #1f77b4; stroke: #1f77b4"/>
     <use xlink:href="#mf107a43be1" x="179.104283" y="95.530169" style="fill: #1f77b4; stroke: #1f77b4"/>
     <use xlink:href="#mf107a43be1" x="180.344474" y="95.681402" style="fill: #1f77b4; stroke: #1f77b4"/>
     <use xlink:href="#mf107a43be1" x="181.536078" y="95.135795" style="fill: #1f77b4; stroke: #1f77b4"/>
     <use xlink:href="#mf107a43be1" x="182.722635" y="95.316409" style="fill: #1f77b4; stroke: #1f77b4"/>
     <use xlink:href="#mf107a43be1" x="183.890016" y="94.200112" style="fill: #1f77b4; stroke: #1f77b4"/>
     <use xlink:href="#mf107a43be1" x="185.041277" y="93.535179" style="fill: #1f77b4; stroke: #1f77b4"/>
     <use xlink:href="#mf107a43be1" x="186.14029" y="93.411931" style="fill: #1f77b4; stroke: #1f77b4"/>
     <use xlink:href="#mf107a43be1" x="187.213868" y="92.305169" style="fill: #1f77b4; stroke: #1f77b4"/>
     <use xlink:href="#mf107a43be1" x="188.311919" y="93.004476" style="fill: #1f77b4; stroke: #1f77b4"/>
     <use xlink:href="#mf107a43be1" x="189.400125" y="93.550621" style="fill: #1f77b4; stroke: #1f77b4"/>
     <use xlink:href="#mf107a43be1" x="190.49844" y="93.354991" style="fill: #1f77b4; stroke: #1f77b4"/>
     <use xlink:href="#mf107a43be1" x="191.576473" y="91.468215" style="fill: #1f77b4; stroke: #1f77b4"/>
     <use xlink:href="#mf107a43be1" x="192.607883" y="92.681847" style="fill: #1f77b4; stroke: #1f77b4"/>
     <use xlink:href="#mf107a43be1" x="193.640263" y="91.601648" style="fill: #1f77b4; stroke: #1f77b4"/>
     <use xlink:href="#mf107a43be1" x="194.641222" y="91.303327" style="fill: #1f77b4; stroke: #1f77b4"/>
     <use xlink:href="#mf107a43be1" x="195.637535" y="90.155338" style="fill: #1f77b4; stroke: #1f77b4"/>
     <use xlink:href="#mf107a43be1" x="196.607716" y="91.447371" style="fill: #1f77b4; stroke: #1f77b4"/>
     <use xlink:href="#mf107a43be1" x="197.577347" y="90.300567" style="fill: #1f77b4; stroke: #1f77b4"/>
     <use xlink:href="#mf107a43be1" x="198.554901" y="90.407979" style="fill: #1f77b4; stroke: #1f77b4"/>
     <use xlink:href="#mf107a43be1" x="199.487118" y="89.553533" style="fill: #1f77b4; stroke: #1f77b4"/>
     <use xlink:href="#mf107a43be1" x="200.391415" y="89.37674" style="fill: #1f77b4; stroke: #1f77b4"/>
     <use xlink:href="#mf107a43be1" x="201.338935" y="90.06444" style="fill: #1f77b4; stroke: #1f77b4"/>
     <use xlink:href="#mf107a43be1" x="202.243838" y="88.829409" style="fill: #1f77b4; stroke: #1f77b4"/>
     <use xlink:href="#mf107a43be1" x="203.132542" y="89.399976" style="fill: #1f77b4; stroke: #1f77b4"/>
     <use xlink:href="#mf107a43be1" x="203.996246" y="87.933153" style="fill: #1f77b4; stroke: #1f77b4"/>
     <use xlink:href="#mf107a43be1" x="204.868112" y="88.469312" style="fill: #1f77b4; stroke: #1f77b4"/>
     <use xlink:href="#mf107a43be1" x="205.720345" y="88.195492" style="fill: #1f77b4; stroke: #1f77b4"/>
     <use xlink:href="#mf107a43be1" x="206.563897" y="88.195212" style="fill: #1f77b4; stroke: #1f77b4"/>
     <use xlink:href="#mf107a43be1" x="207.434003" y="88.131316" style="fill: #1f77b4; stroke: #1f77b4"/>
     <use xlink:href="#mf107a43be1" x="208.28659" y="88.60496" style="fill: #1f77b4; stroke: #1f77b4"/>
     <use xlink:href="#mf107a43be1" x="209.139221" y="88.009033" style="fill: #1f77b4; stroke: #1f77b4"/>
     <use xlink:href="#mf107a43be1" x="209.993369" y="87.731032" style="fill: #1f77b4; stroke: #1f77b4"/>
     <use xlink:href="#mf107a43be1" x="210.809149" y="87.24181" style="fill: #1f77b4; stroke: #1f77b4"/>
     <use xlink:href="#mf107a43be1" x="211.606204" y="87.259351" style="fill: #1f77b4; stroke: #1f77b4"/>
     <use xlink:href="#mf107a43be1" x="212.430141" y="87.345401" style="fill: #1f77b4; stroke: #1f77b4"/>
     <use xlink:href="#mf107a43be1" x="213.210097" y="86.123706" style="fill: #1f77b4; stroke: #1f77b4"/>
     <use xlink:href="#mf107a43be1" x="213.95017" y="85.875201" style="fill: #1f77b4; stroke: #1f77b4"/>
     <use xlink:href="#mf107a43be1" x="214.674942" y="85.293751" style="fill: #1f77b4; stroke: #1f77b4"/>
     <use xlink:href="#mf107a43be1" x="215.421789" y="86.135709" style="fill: #1f77b4; stroke: #1f77b4"/>
     <use xlink:href="#mf107a43be1" x="216.165327" y="85.990095" style="fill: #1f77b4; stroke: #1f77b4"/>
     <use xlink:href="#mf107a43be1" x="216.917948" y="86.413643" style="fill: #1f77b4; stroke: #1f77b4"/>
     <use xlink:href="#mf107a43be1" x="217.693262" y="86.151912" style="fill: #1f77b4; stroke: #1f77b4"/>
     <use xlink:href="#mf107a43be1" x="218.419653" y="85.191827" style="fill: #1f77b4; stroke: #1f77b4"/>
     <use xlink:href="#mf107a43be1" x="219.134094" y="85.448805" style="fill: #1f77b4; stroke: #1f77b4"/>
     <use xlink:href="#mf107a43be1" x="219.865929" y="85.184954" style="fill: #1f77b4; stroke: #1f77b4"/>
     <use xlink:href="#mf107a43be1" x="220.558492" y="84.582529" style="fill: #1f77b4; stroke: #1f77b4"/>
     <use xlink:href="#mf107a43be1" x="221.243837" y="84.77721" style="fill: #1f77b4; stroke: #1f77b4"/>
     <use xlink:href="#mf107a43be1" x="221.92505" y="84.467298" style="fill: #1f77b4; stroke: #1f77b4"/>
     <use xlink:href="#mf107a43be1" x="222.604982" y="84.032446" style="fill: #1f77b4; stroke: #1f77b4"/>
    </g>
   </g>
   <g id="line2d_10">
    <path d="M 43.78125 183.947517 
L 55.136113 177.147506 
L 66.019983 168.331081 
L 75.871885 162.580368 
L 85.159132 157.117977 
L 94.200268 151.44675 
L 102.463019 145.558188 
L 110.241113 141.283176 
L 117.832989 136.275962 
L 124.778915 131.159196 
L 131.337407 127.141074 
L 137.620665 123.056278 
L 143.784089 120.377893 
L 149.488441 115.612605 
L 154.919868 112.186518 
L 160.29345 109.033183 
L 165.326586 105.973865 
L 170.142252 102.950366 
L 174.914882 100.216023 
L 179.383552 98.531728 
L 183.702901 95.952279 
" clip-path="url(#pee14a1b130)" style="fill: none; stroke: #ff7f0e; stroke-width: 0.7; stroke-linecap: square"/>
    <defs>
     <path id="md5362a9f89" d="M 0 0.9 
C 0.238683 0.9 0.467622 0.80517 0.636396 0.636396 
C 0.80517 0.467622 0.9 0.238683 0.9 0 
C 0.9 -0.238683 0.80517 -0.467622 0.636396 -0.636396 
C 0.467622 -0.80517 0.238683 -0.9 0 -0.9 
C -0.238683 -0.9 -0.467622 -0.80517 -0.636396 -0.636396 
C -0.80517 -0.467622 -0.9 -0.238683 -0.9 0 
C -0.9 0.238683 -0.80517 0.467622 -0.636396 0.636396 
C -0.467622 0.80517 -0.238683 0.9 0 0.9 
z
" style="stroke: #ff7f0e"/>
    </defs>
    <g clip-path="url(#pee14a1b130)">
     <use xlink:href="#md5362a9f89" x="43.78125" y="183.947517" style="fill: #ff7f0e; stroke: #ff7f0e"/>
     <use xlink:href="#md5362a9f89" x="55.136113" y="177.147506" style="fill: #ff7f0e; stroke: #ff7f0e"/>
     <use xlink:href="#md5362a9f89" x="66.019983" y="168.331081" style="fill: #ff7f0e; stroke: #ff7f0e"/>
     <use xlink:href="#md5362a9f89" x="75.871885" y="162.580368" style="fill: #ff7f0e; stroke: #ff7f0e"/>
     <use xlink:href="#md5362a9f89" x="85.159132" y="157.117977" style="fill: #ff7f0e; stroke: #ff7f0e"/>
     <use xlink:href="#md5362a9f89" x="94.200268" y="151.44675" style="fill: #ff7f0e; stroke: #ff7f0e"/>
     <use xlink:href="#md5362a9f89" x="102.463019" y="145.558188" style="fill: #ff7f0e; stroke: #ff7f0e"/>
     <use xlink:href="#md5362a9f89" x="110.241113" y="141.283176" style="fill: #ff7f0e; stroke: #ff7f0e"/>
     <use xlink:href="#md5362a9f89" x="117.832989" y="136.275962" style="fill: #ff7f0e; stroke: #ff7f0e"/>
     <use xlink:href="#md5362a9f89" x="124.778915" y="131.159196" style="fill: #ff7f0e; stroke: #ff7f0e"/>
     <use xlink:href="#md5362a9f89" x="131.337407" y="127.141074" style="fill: #ff7f0e; stroke: #ff7f0e"/>
     <use xlink:href="#md5362a9f89" x="137.620665" y="123.056278" style="fill: #ff7f0e; stroke: #ff7f0e"/>
     <use xlink:href="#md5362a9f89" x="143.784089" y="120.377893" style="fill: #ff7f0e; stroke: #ff7f0e"/>
     <use xlink:href="#md5362a9f89" x="149.488441" y="115.612605" style="fill: #ff7f0e; stroke: #ff7f0e"/>
     <use xlink:href="#md5362a9f89" x="154.919868" y="112.186518" style="fill: #ff7f0e; stroke: #ff7f0e"/>
     <use xlink:href="#md5362a9f89" x="160.29345" y="109.033183" style="fill: #ff7f0e; stroke: #ff7f0e"/>
     <use xlink:href="#md5362a9f89" x="165.326586" y="105.973865" style="fill: #ff7f0e; stroke: #ff7f0e"/>
     <use xlink:href="#md5362a9f89" x="170.142252" y="102.950366" style="fill: #ff7f0e; stroke: #ff7f0e"/>
     <use xlink:href="#md5362a9f89" x="174.914882" y="100.216023" style="fill: #ff7f0e; stroke: #ff7f0e"/>
     <use xlink:href="#md5362a9f89" x="179.383552" y="98.531728" style="fill: #ff7f0e; stroke: #ff7f0e"/>
     <use xlink:href="#md5362a9f89" x="183.702901" y="95.952279" style="fill: #ff7f0e; stroke: #ff7f0e"/>
    </g>
   </g>
   <g id="line2d_11">
    <path d="M 43.78125 183.947517 
L 49.25968 178.055427 
L 54.151875 176.134566 
L 58.83803 172.948878 
L 63.4133 169.75137 
L 67.720463 170.854724 
L 71.900411 166.475791 
L 75.946375 163.868499 
L 79.673514 161.70881 
L 83.245574 158.704834 
L 86.686112 157.317731 
L 90.134211 156.12405 
L 93.359708 153.027542 
L 96.472284 150.449998 
L 99.518993 147.989244 
L 102.383555 148.227331 
L 105.226715 144.485145 
L 107.900064 144.309869 
L 110.503205 142.996978 
L 113.009628 140.031868 
L 115.490794 139.306997 
L 117.823663 137.202851 
L 120.074251 135.29184 
L 122.288585 133.19047 
L 124.354072 131.411872 
L 126.36497 130.958454 
L 128.357152 127.526863 
L 130.210513 127.451818 
L 132.038096 126.735364 
L 133.827334 125.185763 
L 135.617206 124.450575 
L 137.298636 122.594455 
L 138.934977 122.063818 
L 140.577195 120.796675 
L 142.121925 120.058045 
L 143.618286 118.232739 
L 145.110286 117.267231 
L 146.518724 116.156673 
L 147.900758 115.249948 
L 149.253784 114.511976 
L 150.588063 112.828659 
L 151.83479 111.503516 
L 153.038287 110.985088 
L 154.256471 110.247628 
L 155.396572 108.622958 
L 156.481658 106.980535 
L 157.594872 108.09994 
L 158.644384 105.014052 
L 159.641914 105.744092 
L 160.641833 105.480825 
L 161.675317 105.736687 
L 162.636427 102.909401 
L 163.541887 102.306893 
L 164.483 103.619907 
L 165.391114 102.110372 
L 166.282543 101.900252 
L 167.162241 100.246044 
L 167.985283 99.167622 
L 168.783473 98.485812 
L 169.557323 97.767801 
L 170.352459 98.241687 
L 171.112667 96.943963 
L 171.840354 96.000239 
" clip-path="url(#pee14a1b130)" style="fill: none; stroke: #2ca02c; stroke-width: 0.7; stroke-linecap: square"/>
    <defs>
     <path id="m93a5d50998" d="M 0 0.9 
C 0.238683 0.9 0.467622 0.80517 0.636396 0.636396 
C 0.80517 0.467622 0.9 0.238683 0.9 0 
C 0.9 -0.238683 0.80517 -0.467622 0.636396 -0.636396 
C 0.467622 -0.80517 0.238683 -0.9 0 -0.9 
C -0.238683 -0.9 -0.467622 -0.80517 -0.636396 -0.636396 
C -0.80517 -0.467622 -0.9 -0.238683 -0.9 0 
C -0.9 0.238683 -0.80517 0.467622 -0.636396 0.636396 
C -0.467622 0.80517 -0.238683 0.9 0 0.9 
z
" style="stroke: #2ca02c"/>
    </defs>
    <g clip-path="url(#pee14a1b130)">
     <use xlink:href="#m93a5d50998" x="43.78125" y="183.947517" style="fill: #2ca02c; stroke: #2ca02c"/>
     <use xlink:href="#m93a5d50998" x="49.25968" y="178.055427" style="fill: #2ca02c; stroke: #2ca02c"/>
     <use xlink:href="#m93a5d50998" x="54.151875" y="176.134566" style="fill: #2ca02c; stroke: #2ca02c"/>
     <use xlink:href="#m93a5d50998" x="58.83803" y="172.948878" style="fill: #2ca02c; stroke: #2ca02c"/>
     <use xlink:href="#m93a5d50998" x="63.4133" y="169.75137" style="fill: #2ca02c; stroke: #2ca02c"/>
     <use xlink:href="#m93a5d50998" x="67.720463" y="170.854724" style="fill: #2ca02c; stroke: #2ca02c"/>
     <use xlink:href="#m93a5d50998" x="71.900411" y="166.475791" style="fill: #2ca02c; stroke: #2ca02c"/>
     <use xlink:href="#m93a5d50998" x="75.946375" y="163.868499" style="fill: #2ca02c; stroke: #2ca02c"/>
     <use xlink:href="#m93a5d50998" x="79.673514" y="161.70881" style="fill: #2ca02c; stroke: #2ca02c"/>
     <use xlink:href="#m93a5d50998" x="83.245574" y="158.704834" style="fill: #2ca02c; stroke: #2ca02c"/>
     <use xlink:href="#m93a5d50998" x="86.686112" y="157.317731" style="fill: #2ca02c; stroke: #2ca02c"/>
     <use xlink:href="#m93a5d50998" x="90.134211" y="156.12405" style="fill: #2ca02c; stroke: #2ca02c"/>
     <use xlink:href="#m93a5d50998" x="93.359708" y="153.027542" style="fill: #2ca02c; stroke: #2ca02c"/>
     <use xlink:href="#m93a5d50998" x="96.472284" y="150.449998" style="fill: #2ca02c; stroke: #2ca02c"/>
     <use xlink:href="#m93a5d50998" x="99.518993" y="147.989244" style="fill: #2ca02c; stroke: #2ca02c"/>
     <use xlink:href="#m93a5d50998" x="102.383555" y="148.227331" style="fill: #2ca02c; stroke: #2ca02c"/>
     <use xlink:href="#m93a5d50998" x="105.226715" y="144.485145" style="fill: #2ca02c; stroke: #2ca02c"/>
     <use xlink:href="#m93a5d50998" x="107.900064" y="144.309869" style="fill: #2ca02c; stroke: #2ca02c"/>
     <use xlink:href="#m93a5d50998" x="110.503205" y="142.996978" style="fill: #2ca02c; stroke: #2ca02c"/>
     <use xlink:href="#m93a5d50998" x="113.009628" y="140.031868" style="fill: #2ca02c; stroke: #2ca02c"/>
     <use xlink:href="#m93a5d50998" x="115.490794" y="139.306997" style="fill: #2ca02c; stroke: #2ca02c"/>
     <use xlink:href="#m93a5d50998" x="117.823663" y="137.202851" style="fill: #2ca02c; stroke: #2ca02c"/>
     <use xlink:href="#m93a5d50998" x="120.074251" y="135.29184" style="fill: #2ca02c; stroke: #2ca02c"/>
     <use xlink:href="#m93a5d50998" x="122.288585" y="133.19047" style="fill: #2ca02c; stroke: #2ca02c"/>
     <use xlink:href="#m93a5d50998" x="124.354072" y="131.411872" style="fill: #2ca02c; stroke: #2ca02c"/>
     <use xlink:href="#m93a5d50998" x="126.36497" y="130.958454" style="fill: #2ca02c; stroke: #2ca02c"/>
     <use xlink:href="#m93a5d50998" x="128.357152" y="127.526863" style="fill: #2ca02c; stroke: #2ca02c"/>
     <use xlink:href="#m93a5d50998" x="130.210513" y="127.451818" style="fill: #2ca02c; stroke: #2ca02c"/>
     <use xlink:href="#m93a5d50998" x="132.038096" y="126.735364" style="fill: #2ca02c; stroke: #2ca02c"/>
     <use xlink:href="#m93a5d50998" x="133.827334" y="125.185763" style="fill: #2ca02c; stroke: #2ca02c"/>
     <use xlink:href="#m93a5d50998" x="135.617206" y="124.450575" style="fill: #2ca02c; stroke: #2ca02c"/>
     <use xlink:href="#m93a5d50998" x="137.298636" y="122.594455" style="fill: #2ca02c; stroke: #2ca02c"/>
     <use xlink:href="#m93a5d50998" x="138.934977" y="122.063818" style="fill: #2ca02c; stroke: #2ca02c"/>
     <use xlink:href="#m93a5d50998" x="140.577195" y="120.796675" style="fill: #2ca02c; stroke: #2ca02c"/>
     <use xlink:href="#m93a5d50998" x="142.121925" y="120.058045" style="fill: #2ca02c; stroke: #2ca02c"/>
     <use xlink:href="#m93a5d50998" x="143.618286" y="118.232739" style="fill: #2ca02c; stroke: #2ca02c"/>
     <use xlink:href="#m93a5d50998" x="145.110286" y="117.267231" style="fill: #2ca02c; stroke: #2ca02c"/>
     <use xlink:href="#m93a5d50998" x="146.518724" y="116.156673" style="fill: #2ca02c; stroke: #2ca02c"/>
     <use xlink:href="#m93a5d50998" x="147.900758" y="115.249948" style="fill: #2ca02c; stroke: #2ca02c"/>
     <use xlink:href="#m93a5d50998" x="149.253784" y="114.511976" style="fill: #2ca02c; stroke: #2ca02c"/>
     <use xlink:href="#m93a5d50998" x="150.588063" y="112.828659" style="fill: #2ca02c; stroke: #2ca02c"/>
     <use xlink:href="#m93a5d50998" x="151.83479" y="111.503516" style="fill: #2ca02c; stroke: #2ca02c"/>
     <use xlink:href="#m93a5d50998" x="153.038287" y="110.985088" style="fill: #2ca02c; stroke: #2ca02c"/>
     <use xlink:href="#m93a5d50998" x="154.256471" y="110.247628" style="fill: #2ca02c; stroke: #2ca02c"/>
     <use xlink:href="#m93a5d50998" x="155.396572" y="108.622958" style="fill: #2ca02c; stroke: #2ca02c"/>
     <use xlink:href="#m93a5d50998" x="156.481658" y="106.980535" style="fill: #2ca02c; stroke: #2ca02c"/>
     <use xlink:href="#m93a5d50998" x="157.594872" y="108.09994" style="fill: #2ca02c; stroke: #2ca02c"/>
     <use xlink:href="#m93a5d50998" x="158.644384" y="105.014052" style="fill: #2ca02c; stroke: #2ca02c"/>
     <use xlink:href="#m93a5d50998" x="159.641914" y="105.744092" style="fill: #2ca02c; stroke: #2ca02c"/>
     <use xlink:href="#m93a5d50998" x="160.641833" y="105.480825" style="fill: #2ca02c; stroke: #2ca02c"/>
     <use xlink:href="#m93a5d50998" x="161.675317" y="105.736687" style="fill: #2ca02c; stroke: #2ca02c"/>
     <use xlink:href="#m93a5d50998" x="162.636427" y="102.909401" style="fill: #2ca02c; stroke: #2ca02c"/>
     <use xlink:href="#m93a5d50998" x="163.541887" y="102.306893" style="fill: #2ca02c; stroke: #2ca02c"/>
     <use xlink:href="#m93a5d50998" x="164.483" y="103.619907" style="fill: #2ca02c; stroke: #2ca02c"/>
     <use xlink:href="#m93a5d50998" x="165.391114" y="102.110372" style="fill: #2ca02c; stroke: #2ca02c"/>
     <use xlink:href="#m93a5d50998" x="166.282543" y="101.900252" style="fill: #2ca02c; stroke: #2ca02c"/>
     <use xlink:href="#m93a5d50998" x="167.162241" y="100.246044" style="fill: #2ca02c; stroke: #2ca02c"/>
     <use xlink:href="#m93a5d50998" x="167.985283" y="99.167622" style="fill: #2ca02c; stroke: #2ca02c"/>
     <use xlink:href="#m93a5d50998" x="168.783473" y="98.485812" style="fill: #2ca02c; stroke: #2ca02c"/>
     <use xlink:href="#m93a5d50998" x="169.557323" y="97.767801" style="fill: #2ca02c; stroke: #2ca02c"/>
     <use xlink:href="#m93a5d50998" x="170.352459" y="98.241687" style="fill: #2ca02c; stroke: #2ca02c"/>
     <use xlink:href="#m93a5d50998" x="171.112667" y="96.943963" style="fill: #2ca02c; stroke: #2ca02c"/>
     <use xlink:href="#m93a5d50998" x="171.840354" y="96.000239" style="fill: #2ca02c; stroke: #2ca02c"/>
    </g>
   </g>
   <g id="line2d_12">
    <path d="M 43.78125 183.947517 
L 55.427769 178.173314 
L 66.169957 171.24506 
L 76.407772 166.099396 
L 85.588611 159.708567 
L 94.104844 154.776074 
L 102.044229 150.35305 
L 109.719482 146.160092 
L 116.683338 142.423699 
L 123.219559 138.540069 
L 129.476064 135.17022 
L 135.22259 131.630122 
L 140.616995 127.475762 
L 145.81897 124.14569 
L 150.613613 120.575673 
L 155.082178 117.816564 
L 159.337432 115.190608 
L 163.493131 111.730039 
L 167.346803 109.687122 
L 171.058904 107.425203 
L 174.690312 105.19166 
L 178.030691 103.143987 
L 181.178476 100.844018 
L 184.271111 99.076305 
L 187.177216 97.583191 
L 189.952264 95.64571 
L 192.608777 94.129046 
L 195.205401 91.609855 
L 197.643493 91.078504 
L 199.987251 88.976536 
L 202.333251 88.903134 
L 204.530074 86.317723 
L 206.593224 85.144497 
L 208.616488 83.259844 
L 210.502683 82.474282 
L 212.35919 81.644047 
L 214.195913 79.277923 
L 215.906707 79.31159 
L 217.579396 78.249814 
L 219.172335 76.195672 
L 220.726733 75.691212 
L 222.191786 74.473747 
L 223.609844 73.871653 
L 225.014495 72.531308 
L 226.333269 69.986136 
L 227.641041 70.910304 
L 228.913021 70.148788 
L 230.18818 69.339858 
L 231.384939 68.943915 
L 232.522089 68.121451 
L 233.677956 68.088303 
L 234.791851 67.821576 
L 235.868607 66.688814 
L 236.911661 65.502173 
L 237.898341 65.853854 
L 238.875612 64.983468 
L 239.805469 64.393989 
L 240.723357 64.172772 
L 241.588453 62.293339 
L 242.429006 61.718571 
L 243.282153 61.591393 
L 244.084186 60.492236 
L 244.872014 60.354114 
L 245.663876 59.972335 
L 246.412307 60.442816 
L 247.136426 59.569502 
L 247.844583 59.503388 
L 248.559143 58.000281 
L 249.219269 57.879586 
L 249.874253 57.145947 
L 250.531578 57.13948 
L 251.143797 56.481094 
L 251.739217 56.542128 
L 252.347487 56.449128 
L 252.925099 55.855134 
L 253.482262 55.150822 
L 254.025494 54.879733 
L 254.570891 54.276106 
L 255.094562 53.811789 
L 255.60031 53.819736 
L 256.113285 53.214797 
L 256.613323 53.735622 
L 257.115836 53.313227 
L 257.615204 53.016793 
L 258.079259 52.315464 
L 258.545028 52.09805 
L 258.99196 51.300553 
L 259.425392 51.502912 
L 259.850495 51.026104 
L 260.277638 51.247855 
L 260.691273 50.844085 
L 261.068205 49.944877 
L 261.444569 50.385214 
L 261.849236 50.155326 
L 262.247917 49.896608 
" clip-path="url(#pee14a1b130)" style="fill: none; stroke: #d62728; stroke-width: 0.7; stroke-linecap: square"/>
    <defs>
     <path id="m52a0746f50" d="M 0 0.9 
C 0.238683 0.9 0.467622 0.80517 0.636396 0.636396 
C 0.80517 0.467622 0.9 0.238683 0.9 0 
C 0.9 -0.238683 0.80517 -0.467622 0.636396 -0.636396 
C 0.467622 -0.80517 0.238683 -0.9 0 -0.9 
C -0.238683 -0.9 -0.467622 -0.80517 -0.636396 -0.636396 
C -0.80517 -0.467622 -0.9 -0.238683 -0.9 0 
C -0.9 0.238683 -0.80517 0.467622 -0.636396 0.636396 
C -0.467622 0.80517 -0.238683 0.9 0 0.9 
z
" style="stroke: #d62728"/>
    </defs>
    <g clip-path="url(#pee14a1b130)">
     <use xlink:href="#m52a0746f50" x="43.78125" y="183.947517" style="fill: #d62728; stroke: #d62728"/>
     <use xlink:href="#m52a0746f50" x="55.427769" y="178.173314" style="fill: #d62728; stroke: #d62728"/>
     <use xlink:href="#m52a0746f50" x="66.169957" y="171.24506" style="fill: #d62728; stroke: #d62728"/>
     <use xlink:href="#m52a0746f50" x="76.407772" y="166.099396" style="fill: #d62728; stroke: #d62728"/>
     <use xlink:href="#m52a0746f50" x="85.588611" y="159.708567" style="fill: #d62728; stroke: #d62728"/>
     <use xlink:href="#m52a0746f50" x="94.104844" y="154.776074" style="fill: #d62728; stroke: #d62728"/>
     <use xlink:href="#m52a0746f50" x="102.044229" y="150.35305" style="fill: #d62728; stroke: #d62728"/>
     <use xlink:href="#m52a0746f50" x="109.719482" y="146.160092" style="fill: #d62728; stroke: #d62728"/>
     <use xlink:href="#m52a0746f50" x="116.683338" y="142.423699" style="fill: #d62728; stroke: #d62728"/>
     <use xlink:href="#m52a0746f50" x="123.219559" y="138.540069" style="fill: #d62728; stroke: #d62728"/>
     <use xlink:href="#m52a0746f50" x="129.476064" y="135.17022" style="fill: #d62728; stroke: #d62728"/>
     <use xlink:href="#m52a0746f50" x="135.22259" y="131.630122" style="fill: #d62728; stroke: #d62728"/>
     <use xlink:href="#m52a0746f50" x="140.616995" y="127.475762" style="fill: #d62728; stroke: #d62728"/>
     <use xlink:href="#m52a0746f50" x="145.81897" y="124.14569" style="fill: #d62728; stroke: #d62728"/>
     <use xlink:href="#m52a0746f50" x="150.613613" y="120.575673" style="fill: #d62728; stroke: #d62728"/>
     <use xlink:href="#m52a0746f50" x="155.082178" y="117.816564" style="fill: #d62728; stroke: #d62728"/>
     <use xlink:href="#m52a0746f50" x="159.337432" y="115.190608" style="fill: #d62728; stroke: #d62728"/>
     <use xlink:href="#m52a0746f50" x="163.493131" y="111.730039" style="fill: #d62728; stroke: #d62728"/>
     <use xlink:href="#m52a0746f50" x="167.346803" y="109.687122" style="fill: #d62728; stroke: #d62728"/>
     <use xlink:href="#m52a0746f50" x="171.058904" y="107.425203" style="fill: #d62728; stroke: #d62728"/>
     <use xlink:href="#m52a0746f50" x="174.690312" y="105.19166" style="fill: #d62728; stroke: #d62728"/>
     <use xlink:href="#m52a0746f50" x="178.030691" y="103.143987" style="fill: #d62728; stroke: #d62728"/>
     <use xlink:href="#m52a0746f50" x="181.178476" y="100.844018" style="fill: #d62728; stroke: #d62728"/>
     <use xlink:href="#m52a0746f50" x="184.271111" y="99.076305" style="fill: #d62728; stroke: #d62728"/>
     <use xlink:href="#m52a0746f50" x="187.177216" y="97.583191" style="fill: #d62728; stroke: #d62728"/>
     <use xlink:href="#m52a0746f50" x="189.952264" y="95.64571" style="fill: #d62728; stroke: #d62728"/>
     <use xlink:href="#m52a0746f50" x="192.608777" y="94.129046" style="fill: #d62728; stroke: #d62728"/>
     <use xlink:href="#m52a0746f50" x="195.205401" y="91.609855" style="fill: #d62728; stroke: #d62728"/>
     <use xlink:href="#m52a0746f50" x="197.643493" y="91.078504" style="fill: #d62728; stroke: #d62728"/>
     <use xlink:href="#m52a0746f50" x="199.987251" y="88.976536" style="fill: #d62728; stroke: #d62728"/>
     <use xlink:href="#m52a0746f50" x="202.333251" y="88.903134" style="fill: #d62728; stroke: #d62728"/>
     <use xlink:href="#m52a0746f50" x="204.530074" y="86.317723" style="fill: #d62728; stroke: #d62728"/>
     <use xlink:href="#m52a0746f50" x="206.593224" y="85.144497" style="fill: #d62728; stroke: #d62728"/>
     <use xlink:href="#m52a0746f50" x="208.616488" y="83.259844" style="fill: #d62728; stroke: #d62728"/>
     <use xlink:href="#m52a0746f50" x="210.502683" y="82.474282" style="fill: #d62728; stroke: #d62728"/>
     <use xlink:href="#m52a0746f50" x="212.35919" y="81.644047" style="fill: #d62728; stroke: #d62728"/>
     <use xlink:href="#m52a0746f50" x="214.195913" y="79.277923" style="fill: #d62728; stroke: #d62728"/>
     <use xlink:href="#m52a0746f50" x="215.906707" y="79.31159" style="fill: #d62728; stroke: #d62728"/>
     <use xlink:href="#m52a0746f50" x="217.579396" y="78.249814" style="fill: #d62728; stroke: #d62728"/>
     <use xlink:href="#m52a0746f50" x="219.172335" y="76.195672" style="fill: #d62728; stroke: #d62728"/>
     <use xlink:href="#m52a0746f50" x="220.726733" y="75.691212" style="fill: #d62728; stroke: #d62728"/>
     <use xlink:href="#m52a0746f50" x="222.191786" y="74.473747" style="fill: #d62728; stroke: #d62728"/>
     <use xlink:href="#m52a0746f50" x="223.609844" y="73.871653" style="fill: #d62728; stroke: #d62728"/>
     <use xlink:href="#m52a0746f50" x="225.014495" y="72.531308" style="fill: #d62728; stroke: #d62728"/>
     <use xlink:href="#m52a0746f50" x="226.333269" y="69.986136" style="fill: #d62728; stroke: #d62728"/>
     <use xlink:href="#m52a0746f50" x="227.641041" y="70.910304" style="fill: #d62728; stroke: #d62728"/>
     <use xlink:href="#m52a0746f50" x="228.913021" y="70.148788" style="fill: #d62728; stroke: #d62728"/>
     <use xlink:href="#m52a0746f50" x="230.18818" y="69.339858" style="fill: #d62728; stroke: #d62728"/>
     <use xlink:href="#m52a0746f50" x="231.384939" y="68.943915" style="fill: #d62728; stroke: #d62728"/>
     <use xlink:href="#m52a0746f50" x="232.522089" y="68.121451" style="fill: #d62728; stroke: #d62728"/>
     <use xlink:href="#m52a0746f50" x="233.677956" y="68.088303" style="fill: #d62728; stroke: #d62728"/>
     <use xlink:href="#m52a0746f50" x="234.791851" y="67.821576" style="fill: #d62728; stroke: #d62728"/>
     <use xlink:href="#m52a0746f50" x="235.868607" y="66.688814" style="fill: #d62728; stroke: #d62728"/>
     <use xlink:href="#m52a0746f50" x="236.911661" y="65.502173" style="fill: #d62728; stroke: #d62728"/>
     <use xlink:href="#m52a0746f50" x="237.898341" y="65.853854" style="fill: #d62728; stroke: #d62728"/>
     <use xlink:href="#m52a0746f50" x="238.875612" y="64.983468" style="fill: #d62728; stroke: #d62728"/>
     <use xlink:href="#m52a0746f50" x="239.805469" y="64.393989" style="fill: #d62728; stroke: #d62728"/>
     <use xlink:href="#m52a0746f50" x="240.723357" y="64.172772" style="fill: #d62728; stroke: #d62728"/>
     <use xlink:href="#m52a0746f50" x="241.588453" y="62.293339" style="fill: #d62728; stroke: #d62728"/>
     <use xlink:href="#m52a0746f50" x="242.429006" y="61.718571" style="fill: #d62728; stroke: #d62728"/>
     <use xlink:href="#m52a0746f50" x="243.282153" y="61.591393" style="fill: #d62728; stroke: #d62728"/>
     <use xlink:href="#m52a0746f50" x="244.084186" y="60.492236" style="fill: #d62728; stroke: #d62728"/>
     <use xlink:href="#m52a0746f50" x="244.872014" y="60.354114" style="fill: #d62728; stroke: #d62728"/>
     <use xlink:href="#m52a0746f50" x="245.663876" y="59.972335" style="fill: #d62728; stroke: #d62728"/>
     <use xlink:href="#m52a0746f50" x="246.412307" y="60.442816" style="fill: #d62728; stroke: #d62728"/>
     <use xlink:href="#m52a0746f50" x="247.136426" y="59.569502" style="fill: #d62728; stroke: #d62728"/>
     <use xlink:href="#m52a0746f50" x="247.844583" y="59.503388" style="fill: #d62728; stroke: #d62728"/>
     <use xlink:href="#m52a0746f50" x="248.559143" y="58.000281" style="fill: #d62728; stroke: #d62728"/>
     <use xlink:href="#m52a0746f50" x="249.219269" y="57.879586" style="fill: #d62728; stroke: #d62728"/>
     <use xlink:href="#m52a0746f50" x="249.874253" y="57.145947" style="fill: #d62728; stroke: #d62728"/>
     <use xlink:href="#m52a0746f50" x="250.531578" y="57.13948" style="fill: #d62728; stroke: #d62728"/>
     <use xlink:href="#m52a0746f50" x="251.143797" y="56.481094" style="fill: #d62728; stroke: #d62728"/>
     <use xlink:href="#m52a0746f50" x="251.739217" y="56.542128" style="fill: #d62728; stroke: #d62728"/>
     <use xlink:href="#m52a0746f50" x="252.347487" y="56.449128" style="fill: #d62728; stroke: #d62728"/>
     <use xlink:href="#m52a0746f50" x="252.925099" y="55.855134" style="fill: #d62728; stroke: #d62728"/>
     <use xlink:href="#m52a0746f50" x="253.482262" y="55.150822" style="fill: #d62728; stroke: #d62728"/>
     <use xlink:href="#m52a0746f50" x="254.025494" y="54.879733" style="fill: #d62728; stroke: #d62728"/>
     <use xlink:href="#m52a0746f50" x="254.570891" y="54.276106" style="fill: #d62728; stroke: #d62728"/>
     <use xlink:href="#m52a0746f50" x="255.094562" y="53.811789" style="fill: #d62728; stroke: #d62728"/>
     <use xlink:href="#m52a0746f50" x="255.60031" y="53.819736" style="fill: #d62728; stroke: #d62728"/>
     <use xlink:href="#m52a0746f50" x="256.113285" y="53.214797" style="fill: #d62728; stroke: #d62728"/>
     <use xlink:href="#m52a0746f50" x="256.613323" y="53.735622" style="fill: #d62728; stroke: #d62728"/>
     <use xlink:href="#m52a0746f50" x="257.115836" y="53.313227" style="fill: #d62728; stroke: #d62728"/>
     <use xlink:href="#m52a0746f50" x="257.615204" y="53.016793" style="fill: #d62728; stroke: #d62728"/>
     <use xlink:href="#m52a0746f50" x="258.079259" y="52.315464" style="fill: #d62728; stroke: #d62728"/>
     <use xlink:href="#m52a0746f50" x="258.545028" y="52.09805" style="fill: #d62728; stroke: #d62728"/>
     <use xlink:href="#m52a0746f50" x="258.99196" y="51.300553" style="fill: #d62728; stroke: #d62728"/>
     <use xlink:href="#m52a0746f50" x="259.425392" y="51.502912" style="fill: #d62728; stroke: #d62728"/>
     <use xlink:href="#m52a0746f50" x="259.850495" y="51.026104" style="fill: #d62728; stroke: #d62728"/>
     <use xlink:href="#m52a0746f50" x="260.277638" y="51.247855" style="fill: #d62728; stroke: #d62728"/>
     <use xlink:href="#m52a0746f50" x="260.691273" y="50.844085" style="fill: #d62728; stroke: #d62728"/>
     <use xlink:href="#m52a0746f50" x="261.068205" y="49.944877" style="fill: #d62728; stroke: #d62728"/>
     <use xlink:href="#m52a0746f50" x="261.444569" y="50.385214" style="fill: #d62728; stroke: #d62728"/>
     <use xlink:href="#m52a0746f50" x="261.849236" y="50.155326" style="fill: #d62728; stroke: #d62728"/>
     <use xlink:href="#m52a0746f50" x="262.247917" y="49.896608" style="fill: #d62728; stroke: #d62728"/>
    </g>
   </g>
   <g id="line2d_13">
    <path d="M 43.78125 178.018628 
L 45.987984 176.735799 
L 48.194718 175.452969 
L 50.401452 174.170139 
L 52.608186 172.88731 
L 54.81492 171.60448 
L 57.021654 170.321651 
L 59.228388 169.038821 
L 61.435122 167.755991 
L 63.641856 166.473162 
L 65.84859 165.190332 
L 68.055324 163.907503 
L 70.262058 162.624673 
L 72.468792 161.341843 
L 74.675526 160.059014 
L 76.88226 158.776184 
L 79.088994 157.493355 
L 81.295728 156.210525 
L 83.502462 154.927695 
L 85.709196 153.644866 
L 87.91593 152.362036 
L 90.122664 151.079207 
L 92.329398 149.796377 
L 94.536132 148.513547 
L 96.742866 147.230718 
L 98.9496 145.947888 
L 101.156334 144.665058 
L 103.363068 143.382229 
L 105.569802 142.099399 
L 107.776536 140.81657 
L 109.98327 139.53374 
L 112.190004 138.25091 
L 114.396738 136.968081 
L 116.603472 135.685251 
L 118.810206 134.402422 
L 121.01694 133.119592 
L 123.223674 131.836762 
L 125.430408 130.553933 
L 127.637142 129.271103 
L 129.843876 127.988274 
L 132.05061 126.705444 
L 134.257344 125.422614 
L 136.464078 124.139785 
L 138.670812 122.856955 
L 140.877546 121.574126 
L 143.08428 120.291296 
L 145.291014 119.008466 
L 147.497748 117.725637 
L 149.704482 116.442807 
L 151.911216 115.159977 
L 154.11795 113.877148 
L 156.324684 112.594318 
L 158.531418 111.311489 
L 160.738152 110.028659 
L 162.944886 108.745829 
L 165.15162 107.463 
L 167.358354 106.18017 
L 169.565088 104.897341 
L 171.771822 103.614511 
L 173.978556 102.331681 
L 176.18529 101.048852 
L 178.392024 99.766022 
L 180.598758 98.483193 
L 182.805492 97.200363 
L 185.012226 95.917533 
L 187.21896 94.634704 
L 189.425694 93.351874 
L 191.632428 92.069045 
L 193.839162 90.786215 
L 196.045896 89.503385 
L 198.25263 88.220556 
L 200.459364 86.937726 
L 202.666098 85.654896 
L 204.872832 84.372067 
L 207.079566 83.089237 
L 209.286301 81.806408 
L 211.493035 80.523578 
L 213.699769 79.240748 
L 215.906503 77.957919 
L 218.113237 76.675089 
L 220.319971 75.39226 
L 222.526705 74.10943 
L 224.733439 72.8266 
L 226.940173 71.543771 
L 229.146907 70.260941 
L 231.353641 68.978112 
L 233.560375 67.695282 
L 235.767109 66.412452 
L 237.973843 65.129623 
L 240.180577 63.846793 
L 242.387311 62.563963 
L 244.594045 61.281134 
L 246.800779 59.998304 
L 249.007513 58.715475 
L 251.214247 57.432645 
L 253.420981 56.149815 
L 255.627715 54.866986 
L 257.834449 53.584156 
L 260.041183 52.301327 
L 262.247917 51.018497 
" clip-path="url(#pee14a1b130)" style="fill: none; stroke-dasharray: 1.5,2.475; stroke-dashoffset: 0; stroke: #000000; stroke-width: 1.5"/>
   </g>
   <g id="patch_3">
    <path d="M 43.78125 190.650062 
L 43.78125 43.194062 
" style="fill: none; stroke: #000000; stroke-width: 0.8; stroke-linejoin: miter; stroke-linecap: square"/>
   </g>
   <g id="patch_4">
    <path d="M 273.17125 190.650062 
L 273.17125 43.194062 
" style="fill: none; stroke: #000000; stroke-width: 0.8; stroke-linejoin: miter; stroke-linecap: square"/>
   </g>
   <g id="patch_5">
    <path d="M 43.78125 190.650062 
L 273.17125 190.650062 
" style="fill: none; stroke: #000000; stroke-width: 0.8; stroke-linejoin: miter; stroke-linecap: square"/>
   </g>
   <g id="patch_6">
    <path d="M 43.78125 43.194062 
L 273.17125 43.194062 
" style="fill: none; stroke: #000000; stroke-width: 0.8; stroke-linejoin: miter; stroke-linecap: square"/>
   </g>
   <g id="text_12">
    <!--  -->
    <g transform="translate(158.47625 14.798437) scale(0.1 -0.1)"/>
    <!-- GOF (RMSE): 0.01358 -->
    <g transform="translate(104.227813 25.99625) scale(0.1 -0.1)">
     <defs>
      <path id="DejaVuSans-47" d="M 3809 666 
L 3809 1919 
L 2778 1919 
L 2778 2438 
L 4434 2438 
L 4434 434 
Q 4069 175 3628 42 
Q 3188 -91 2688 -91 
Q 1594 -91 976 548 
Q 359 1188 359 2328 
Q 359 3472 976 4111 
Q 1594 4750 2688 4750 
Q 3144 4750 3555 4637 
Q 3966 4525 4313 4306 
L 4313 3634 
Q 3963 3931 3569 4081 
Q 3175 4231 2741 4231 
Q 1884 4231 1454 3753 
Q 1025 3275 1025 2328 
Q 1025 1384 1454 906 
Q 1884 428 2741 428 
Q 3075 428 3337 486 
Q 3600 544 3809 666 
z
" transform="scale(0.015625)"/>
      <path id="DejaVuSans-4f" d="M 2522 4238 
Q 1834 4238 1429 3725 
Q 1025 3213 1025 2328 
Q 1025 1447 1429 934 
Q 1834 422 2522 422 
Q 3209 422 3611 934 
Q 4013 1447 4013 2328 
Q 4013 3213 3611 3725 
Q 3209 4238 2522 4238 
z
M 2522 4750 
Q 3503 4750 4090 4092 
Q 4678 3434 4678 2328 
Q 4678 1225 4090 567 
Q 3503 -91 2522 -91 
Q 1538 -91 948 565 
Q 359 1222 359 2328 
Q 359 3434 948 4092 
Q 1538 4750 2522 4750 
z
" transform="scale(0.015625)"/>
      <path id="DejaVuSans-46" d="M 628 4666 
L 3309 4666 
L 3309 4134 
L 1259 4134 
L 1259 2759 
L 3109 2759 
L 3109 2228 
L 1259 2228 
L 1259 0 
L 628 0 
L 628 4666 
z
" transform="scale(0.015625)"/>
      <path id="DejaVuSans-28" d="M 1984 4856 
Q 1566 4138 1362 3434 
Q 1159 2731 1159 2009 
Q 1159 1288 1364 580 
Q 1569 -128 1984 -844 
L 1484 -844 
Q 1016 -109 783 600 
Q 550 1309 550 2009 
Q 550 2706 781 3412 
Q 1013 4119 1484 4856 
L 1984 4856 
z
" transform="scale(0.015625)"/>
      <path id="DejaVuSans-52" d="M 2841 2188 
Q 3044 2119 3236 1894 
Q 3428 1669 3622 1275 
L 4263 0 
L 3584 0 
L 2988 1197 
Q 2756 1666 2539 1819 
Q 2322 1972 1947 1972 
L 1259 1972 
L 1259 0 
L 628 0 
L 628 4666 
L 2053 4666 
Q 2853 4666 3247 4331 
Q 3641 3997 3641 3322 
Q 3641 2881 3436 2590 
Q 3231 2300 2841 2188 
z
M 1259 4147 
L 1259 2491 
L 2053 2491 
Q 2509 2491 2742 2702 
Q 2975 2913 2975 3322 
Q 2975 3731 2742 3939 
Q 2509 4147 2053 4147 
L 1259 4147 
z
" transform="scale(0.015625)"/>
      <path id="DejaVuSans-4d" d="M 628 4666 
L 1569 4666 
L 2759 1491 
L 3956 4666 
L 4897 4666 
L 4897 0 
L 4281 0 
L 4281 4097 
L 3078 897 
L 2444 897 
L 1241 4097 
L 1241 0 
L 628 0 
L 628 4666 
z
" transform="scale(0.015625)"/>
      <path id="DejaVuSans-45" d="M 628 4666 
L 3578 4666 
L 3578 4134 
L 1259 4134 
L 1259 2753 
L 3481 2753 
L 3481 2222 
L 1259 2222 
L 1259 531 
L 3634 531 
L 3634 0 
L 628 0 
L 628 4666 
z
" transform="scale(0.015625)"/>
      <path id="DejaVuSans-29" d="M 513 4856 
L 1013 4856 
Q 1481 4119 1714 3412 
Q 1947 2706 1947 2009 
Q 1947 1309 1714 600 
Q 1481 -109 1013 -844 
L 513 -844 
Q 928 -128 1133 580 
Q 1338 1288 1338 2009 
Q 1338 2731 1133 3434 
Q 928 4138 513 4856 
z
" transform="scale(0.015625)"/>
      <path id="DejaVuSans-3a" d="M 750 794 
L 1409 794 
L 1409 0 
L 750 0 
L 750 794 
z
M 750 3309 
L 1409 3309 
L 1409 2516 
L 750 2516 
L 750 3309 
z
" transform="scale(0.015625)"/>
     </defs>
     <use xlink:href="#DejaVuSans-47"/>
     <use xlink:href="#DejaVuSans-4f" transform="translate(77.490234 0)"/>
     <use xlink:href="#DejaVuSans-46" transform="translate(156.201172 0)"/>
     <use xlink:href="#DejaVuSans-20" transform="translate(213.720703 0)"/>
     <use xlink:href="#DejaVuSans-28" transform="translate(245.507812 0)"/>
     <use xlink:href="#DejaVuSans-52" transform="translate(284.521484 0)"/>
     <use xlink:href="#DejaVuSans-4d" transform="translate(354.003906 0)"/>
     <use xlink:href="#DejaVuSans-53" transform="translate(440.283203 0)"/>
     <use xlink:href="#DejaVuSans-45" transform="translate(503.759766 0)"/>
     <use xlink:href="#DejaVuSans-29" transform="translate(566.943359 0)"/>
     <use xlink:href="#DejaVuSans-3a" transform="translate(605.957031 0)"/>
     <use xlink:href="#DejaVuSans-20" transform="translate(639.648438 0)"/>
     <use xlink:href="#DejaVuSans-30" transform="translate(671.435547 0)"/>
     <use xlink:href="#DejaVuSans-2e" transform="translate(735.058594 0)"/>
     <use xlink:href="#DejaVuSans-30" transform="translate(766.845703 0)"/>
     <use xlink:href="#DejaVuSans-31" transform="translate(830.46875 0)"/>
     <use xlink:href="#DejaVuSans-33" transform="translate(894.091797 0)"/>
     <use xlink:href="#DejaVuSans-35" transform="translate(957.714844 0)"/>
     <use xlink:href="#DejaVuSans-38" transform="translate(1021.337891 0)"/>
    </g>
    <!-- Slope (non-scaled tT and y): 1.049e-04 ± 8.50e-07 -->
    <g transform="translate(31.131719 37.194062) scale(0.1 -0.1)">
     <defs>
      <path id="DejaVuSans-70" d="M 1159 525 
L 1159 -1331 
L 581 -1331 
L 581 3500 
L 1159 3500 
L 1159 2969 
Q 1341 3281 1617 3432 
Q 1894 3584 2278 3584 
Q 2916 3584 3314 3078 
Q 3713 2572 3713 1747 
Q 3713 922 3314 415 
Q 2916 -91 2278 -91 
Q 1894 -91 1617 61 
Q 1341 213 1159 525 
z
M 3116 1747 
Q 3116 2381 2855 2742 
Q 2594 3103 2138 3103 
Q 1681 3103 1420 2742 
Q 1159 2381 1159 1747 
Q 1159 1113 1420 752 
Q 1681 391 2138 391 
Q 2594 391 2855 752 
Q 3116 1113 3116 1747 
z
" transform="scale(0.015625)"/>
      <path id="DejaVuSans-6e" d="M 3513 2113 
L 3513 0 
L 2938 0 
L 2938 2094 
Q 2938 2591 2744 2837 
Q 2550 3084 2163 3084 
Q 1697 3084 1428 2787 
Q 1159 2491 1159 1978 
L 1159 0 
L 581 0 
L 581 3500 
L 1159 3500 
L 1159 2956 
Q 1366 3272 1645 3428 
Q 1925 3584 2291 3584 
Q 2894 3584 3203 3211 
Q 3513 2838 3513 2113 
z
" transform="scale(0.015625)"/>
      <path id="DejaVuSans-2d" d="M 313 2009 
L 1997 2009 
L 1997 1497 
L 313 1497 
L 313 2009 
z
" transform="scale(0.015625)"/>
      <path id="DejaVuSans-73" d="M 2834 3397 
L 2834 2853 
Q 2591 2978 2328 3040 
Q 2066 3103 1784 3103 
Q 1356 3103 1142 2972 
Q 928 2841 928 2578 
Q 928 2378 1081 2264 
Q 1234 2150 1697 2047 
L 1894 2003 
Q 2506 1872 2764 1633 
Q 3022 1394 3022 966 
Q 3022 478 2636 193 
Q 2250 -91 1575 -91 
Q 1294 -91 989 -36 
Q 684 19 347 128 
L 347 722 
Q 666 556 975 473 
Q 1284 391 1588 391 
Q 1994 391 2212 530 
Q 2431 669 2431 922 
Q 2431 1156 2273 1281 
Q 2116 1406 1581 1522 
L 1381 1569 
Q 847 1681 609 1914 
Q 372 2147 372 2553 
Q 372 3047 722 3315 
Q 1072 3584 1716 3584 
Q 2034 3584 2315 3537 
Q 2597 3491 2834 3397 
z
" transform="scale(0.015625)"/>
      <path id="DejaVuSans-54" d="M -19 4666 
L 3928 4666 
L 3928 4134 
L 2272 4134 
L 2272 0 
L 1638 0 
L 1638 4134 
L -19 4134 
L -19 4666 
z
" transform="scale(0.015625)"/>
      <path id="DejaVuSans-79" d="M 2059 -325 
Q 1816 -950 1584 -1140 
Q 1353 -1331 966 -1331 
L 506 -1331 
L 506 -850 
L 844 -850 
Q 1081 -850 1212 -737 
Q 1344 -625 1503 -206 
L 1606 56 
L 191 3500 
L 800 3500 
L 1894 763 
L 2988 3500 
L 3597 3500 
L 2059 -325 
z
" transform="scale(0.015625)"/>
      <path id="DejaVuSans-34" d="M 2419 4116 
L 825 1625 
L 2419 1625 
L 2419 4116 
z
M 2253 4666 
L 3047 4666 
L 3047 1625 
L 3713 1625 
L 3713 1100 
L 3047 1100 
L 3047 0 
L 2419 0 
L 2419 1100 
L 313 1100 
L 313 1709 
L 2253 4666 
z
" transform="scale(0.015625)"/>
      <path id="DejaVuSans-b1" d="M 2944 4013 
L 2944 2803 
L 4684 2803 
L 4684 2272 
L 2944 2272 
L 2944 1063 
L 2419 1063 
L 2419 2272 
L 678 2272 
L 678 2803 
L 2419 2803 
L 2419 4013 
L 2944 4013 
z
M 678 531 
L 4684 531 
L 4684 0 
L 678 0 
L 678 531 
z
" transform="scale(0.015625)"/>
      <path id="DejaVuSans-37" d="M 525 4666 
L 3525 4666 
L 3525 4397 
L 1831 0 
L 1172 0 
L 2766 4134 
L 525 4134 
L 525 4666 
z
" transform="scale(0.015625)"/>
     </defs>
     <use xlink:href="#DejaVuSans-53"/>
     <use xlink:href="#DejaVuSans-6c" transform="translate(63.476562 0)"/>
     <use xlink:href="#DejaVuSans-6f" transform="translate(91.259766 0)"/>
     <use xlink:href="#DejaVuSans-70" transform="translate(152.441406 0)"/>
     <use xlink:href="#DejaVuSans-65" transform="translate(215.917969 0)"/>
     <use xlink:href="#DejaVuSans-20" transform="translate(277.441406 0)"/>
     <use xlink:href="#DejaVuSans-28" transform="translate(309.228516 0)"/>
     <use xlink:href="#DejaVuSans-6e" transform="translate(348.242188 0)"/>
     <use xlink:href="#DejaVuSans-6f" transform="translate(411.621094 0)"/>
     <use xlink:href="#DejaVuSans-6e" transform="translate(472.802734 0)"/>
     <use xlink:href="#DejaVuSans-2d" transform="translate(536.181641 0)"/>
     <use xlink:href="#DejaVuSans-73" transform="translate(572.265625 0)"/>
     <use xlink:href="#DejaVuSans-63" transform="translate(624.365234 0)"/>
     <use xlink:href="#DejaVuSans-61" transform="translate(679.345703 0)"/>
     <use xlink:href="#DejaVuSans-6c" transform="translate(740.625 0)"/>
     <use xlink:href="#DejaVuSans-65" transform="translate(768.408203 0)"/>
     <use xlink:href="#DejaVuSans-64" transform="translate(829.931641 0)"/>
     <use xlink:href="#DejaVuSans-20" transform="translate(893.408203 0)"/>
     <use xlink:href="#DejaVuSans-74" transform="translate(925.195312 0)"/>
     <use xlink:href="#DejaVuSans-54" transform="translate(964.404297 0)"/>
     <use xlink:href="#DejaVuSans-20" transform="translate(1025.488281 0)"/>
     <use xlink:href="#DejaVuSans-61" transform="translate(1057.275391 0)"/>
     <use xlink:href="#DejaVuSans-6e" transform="translate(1118.554688 0)"/>
     <use xlink:href="#DejaVuSans-64" transform="translate(1181.933594 0)"/>
     <use xlink:href="#DejaVuSans-20" transform="translate(1245.410156 0)"/>
     <use xlink:href="#DejaVuSans-79" transform="translate(1277.197266 0)"/>
     <use xlink:href="#DejaVuSans-29" transform="translate(1336.376953 0)"/>
     <use xlink:href="#DejaVuSans-3a" transform="translate(1375.390625 0)"/>
     <use xlink:href="#DejaVuSans-20" transform="translate(1409.082031 0)"/>
     <use xlink:href="#DejaVuSans-31" transform="translate(1440.869141 0)"/>
     <use xlink:href="#DejaVuSans-2e" transform="translate(1504.492188 0)"/>
     <use xlink:href="#DejaVuSans-30" transform="translate(1536.279297 0)"/>
     <use xlink:href="#DejaVuSans-34" transform="translate(1599.902344 0)"/>
     <use xlink:href="#DejaVuSans-39" transform="translate(1663.525391 0)"/>
     <use xlink:href="#DejaVuSans-65" transform="translate(1727.148438 0)"/>
     <use xlink:href="#DejaVuSans-2d" transform="translate(1788.671875 0)"/>
     <use xlink:href="#DejaVuSans-30" transform="translate(1824.755859 0)"/>
     <use xlink:href="#DejaVuSans-34" transform="translate(1888.378906 0)"/>
     <use xlink:href="#DejaVuSans-20" transform="translate(1952.001953 0)"/>
     <use xlink:href="#DejaVuSans-b1" transform="translate(1983.789062 0)"/>
     <use xlink:href="#DejaVuSans-20" transform="translate(2067.578125 0)"/>
     <use xlink:href="#DejaVuSans-38" transform="translate(2099.365234 0)"/>
     <use xlink:href="#DejaVuSans-2e" transform="translate(2162.988281 0)"/>
     <use xlink:href="#DejaVuSans-35" transform="translate(2194.775391 0)"/>
     <use xlink:href="#DejaVuSans-30" transform="translate(2258.398438 0)"/>
     <use xlink:href="#DejaVuSans-65" transform="translate(2322.021484 0)"/>
     <use xlink:href="#DejaVuSans-2d" transform="translate(2383.544922 0)"/>
     <use xlink:href="#DejaVuSans-30" transform="translate(2419.628906 0)"/>
     <use xlink:href="#DejaVuSans-37" transform="translate(2483.251953 0)"/>
    </g>
   </g>
   <g id="legend_1">
    <g id="patch_7">
     <path d="M 50.78125 109.906562 
L 133.617188 109.906562 
Q 135.617188 109.906562 135.617188 107.906562 
L 135.617188 50.194062 
Q 135.617188 48.194062 133.617188 48.194062 
L 50.78125 48.194062 
Q 48.78125 48.194062 48.78125 50.194062 
L 48.78125 107.906562 
Q 48.78125 109.906562 50.78125 109.906562 
z
" style="fill: #ffffff; opacity: 0.8; stroke: #cccccc; stroke-linejoin: miter"/>
    </g>
    <g id="line2d_14">
     <path d="M 52.78125 56.2925 
L 62.78125 56.2925 
L 72.78125 56.2925 
" style="fill: none; stroke: #1f77b4; stroke-width: 0.7; stroke-linecap: square"/>
     <g>
      <use xlink:href="#mf107a43be1" x="62.78125" y="56.2925" style="fill: #1f77b4; stroke: #1f77b4"/>
     </g>
    </g>
    <g id="text_13">
     <!-- Addition 1 -->
     <g transform="translate(80.78125 59.7925) scale(0.1 -0.1)">
      <defs>
       <path id="DejaVuSans-41" d="M 2188 4044 
L 1331 1722 
L 3047 1722 
L 2188 4044 
z
M 1831 4666 
L 2547 4666 
L 4325 0 
L 3669 0 
L 3244 1197 
L 1141 1197 
L 716 0 
L 50 0 
L 1831 4666 
z
" transform="scale(0.015625)"/>
      </defs>
      <use xlink:href="#DejaVuSans-41"/>
      <use xlink:href="#DejaVuSans-64" transform="translate(66.658203 0)"/>
      <use xlink:href="#DejaVuSans-64" transform="translate(130.134766 0)"/>
      <use xlink:href="#DejaVuSans-69" transform="translate(193.611328 0)"/>
      <use xlink:href="#DejaVuSans-74" transform="translate(221.394531 0)"/>
      <use xlink:href="#DejaVuSans-69" transform="translate(260.603516 0)"/>
      <use xlink:href="#DejaVuSans-6f" transform="translate(288.386719 0)"/>
      <use xlink:href="#DejaVuSans-6e" transform="translate(349.568359 0)"/>
      <use xlink:href="#DejaVuSans-20" transform="translate(412.947266 0)"/>
      <use xlink:href="#DejaVuSans-31" transform="translate(444.734375 0)"/>
     </g>
    </g>
    <g id="line2d_15">
     <path d="M 52.78125 70.970625 
L 62.78125 70.970625 
L 72.78125 70.970625 
" style="fill: none; stroke: #ff7f0e; stroke-width: 0.7; stroke-linecap: square"/>
     <g>
      <use xlink:href="#md5362a9f89" x="62.78125" y="70.970625" style="fill: #ff7f0e; stroke: #ff7f0e"/>
     </g>
    </g>
    <g id="text_14">
     <!-- Addition 2 -->
     <g transform="translate(80.78125 74.470625) scale(0.1 -0.1)">
      <use xlink:href="#DejaVuSans-41"/>
      <use xlink:href="#DejaVuSans-64" transform="translate(66.658203 0)"/>
      <use xlink:href="#DejaVuSans-64" transform="translate(130.134766 0)"/>
      <use xlink:href="#DejaVuSans-69" transform="translate(193.611328 0)"/>
      <use xlink:href="#DejaVuSans-74" transform="translate(221.394531 0)"/>
      <use xlink:href="#DejaVuSans-69" transform="translate(260.603516 0)"/>
      <use xlink:href="#DejaVuSans-6f" transform="translate(288.386719 0)"/>
      <use xlink:href="#DejaVuSans-6e" transform="translate(349.568359 0)"/>
      <use xlink:href="#DejaVuSans-20" transform="translate(412.947266 0)"/>
      <use xlink:href="#DejaVuSans-32" transform="translate(444.734375 0)"/>
     </g>
    </g>
    <g id="line2d_16">
     <path d="M 52.78125 85.64875 
L 62.78125 85.64875 
L 72.78125 85.64875 
" style="fill: none; stroke: #2ca02c; stroke-width: 0.7; stroke-linecap: square"/>
     <g>
      <use xlink:href="#m93a5d50998" x="62.78125" y="85.64875" style="fill: #2ca02c; stroke: #2ca02c"/>
     </g>
    </g>
    <g id="text_15">
     <!-- Addition 3 -->
     <g transform="translate(80.78125 89.14875) scale(0.1 -0.1)">
      <use xlink:href="#DejaVuSans-41"/>
      <use xlink:href="#DejaVuSans-64" transform="translate(66.658203 0)"/>
      <use xlink:href="#DejaVuSans-64" transform="translate(130.134766 0)"/>
      <use xlink:href="#DejaVuSans-69" transform="translate(193.611328 0)"/>
      <use xlink:href="#DejaVuSans-74" transform="translate(221.394531 0)"/>
      <use xlink:href="#DejaVuSans-69" transform="translate(260.603516 0)"/>
      <use xlink:href="#DejaVuSans-6f" transform="translate(288.386719 0)"/>
      <use xlink:href="#DejaVuSans-6e" transform="translate(349.568359 0)"/>
      <use xlink:href="#DejaVuSans-20" transform="translate(412.947266 0)"/>
      <use xlink:href="#DejaVuSans-33" transform="translate(444.734375 0)"/>
     </g>
    </g>
    <g id="line2d_17">
     <path d="M 52.78125 100.326875 
L 62.78125 100.326875 
L 72.78125 100.326875 
" style="fill: none; stroke: #d62728; stroke-width: 0.7; stroke-linecap: square"/>
     <g>
      <use xlink:href="#m52a0746f50" x="62.78125" y="100.326875" style="fill: #d62728; stroke: #d62728"/>
     </g>
    </g>
    <g id="text_16">
     <!-- Addition 4 -->
     <g transform="translate(80.78125 103.826875) scale(0.1 -0.1)">
      <use xlink:href="#DejaVuSans-41"/>
      <use xlink:href="#DejaVuSans-64" transform="translate(66.658203 0)"/>
      <use xlink:href="#DejaVuSans-64" transform="translate(130.134766 0)"/>
      <use xlink:href="#DejaVuSans-69" transform="translate(193.611328 0)"/>
      <use xlink:href="#DejaVuSans-74" transform="translate(221.394531 0)"/>
      <use xlink:href="#DejaVuSans-69" transform="translate(260.603516 0)"/>
      <use xlink:href="#DejaVuSans-6f" transform="translate(288.386719 0)"/>
      <use xlink:href="#DejaVuSans-6e" transform="translate(349.568359 0)"/>
      <use xlink:href="#DejaVuSans-20" transform="translate(412.947266 0)"/>
      <use xlink:href="#DejaVuSans-34" transform="translate(444.734375 0)"/>
     </g>
    </g>
   </g>
   <g id="legend_2">
    <g id="patch_8">
     <path d="M 108.255156 185.650062 
L 208.697344 185.650062 
Q 210.697344 185.650062 210.697344 183.650062 
L 210.697344 158.774125 
Q 210.697344 156.774125 208.697344 156.774125 
L 108.255156 156.774125 
Q 106.255156 156.774125 106.255156 158.774125 
L 106.255156 183.650062 
Q 106.255156 185.650062 108.255156 185.650062 
z
" style="fill: #ffffff; opacity: 0.8; stroke: #cccccc; stroke-linejoin: miter"/>
    </g>
    <g id="line2d_18">
     <path d="M 110.255156 171.511312 
L 120.255156 171.511312 
L 130.255156 171.511312 
" style="fill: none; stroke-dasharray: 1.5,2.475; stroke-dashoffset: 0; stroke: #000000; stroke-width: 1.5"/>
    </g>
    <g id="text_17">
     <!-- 1. order -->
     <g transform="translate(138.255156 168.372562) scale(0.1 -0.1)">
      <use xlink:href="#DejaVuSans-31"/>
      <use xlink:href="#DejaVuSans-2e" transform="translate(63.623047 0)"/>
      <use xlink:href="#DejaVuSans-20" transform="translate(95.410156 0)"/>
      <use xlink:href="#DejaVuSans-6f" transform="translate(127.197266 0)"/>
      <use xlink:href="#DejaVuSans-72" transform="translate(188.378906 0)"/>
      <use xlink:href="#DejaVuSans-64" transform="translate(227.742188 0)"/>
      <use xlink:href="#DejaVuSans-65" transform="translate(291.21875 0)"/>
      <use xlink:href="#DejaVuSans-72" transform="translate(352.742188 0)"/>
     </g>
     <!-- polynomial fit -->
     <g transform="translate(138.255156 179.570375) scale(0.1 -0.1)">
      <defs>
       <path id="DejaVuSans-6d" d="M 3328 2828 
Q 3544 3216 3844 3400 
Q 4144 3584 4550 3584 
Q 5097 3584 5394 3201 
Q 5691 2819 5691 2113 
L 5691 0 
L 5113 0 
L 5113 2094 
Q 5113 2597 4934 2840 
Q 4756 3084 4391 3084 
Q 3944 3084 3684 2787 
Q 3425 2491 3425 1978 
L 3425 0 
L 2847 0 
L 2847 2094 
Q 2847 2600 2669 2842 
Q 2491 3084 2119 3084 
Q 1678 3084 1418 2786 
Q 1159 2488 1159 1978 
L 1159 0 
L 581 0 
L 581 3500 
L 1159 3500 
L 1159 2956 
Q 1356 3278 1631 3431 
Q 1906 3584 2284 3584 
Q 2666 3584 2933 3390 
Q 3200 3197 3328 2828 
z
" transform="scale(0.015625)"/>
      </defs>
      <use xlink:href="#DejaVuSans-70"/>
      <use xlink:href="#DejaVuSans-6f" transform="translate(63.476562 0)"/>
      <use xlink:href="#DejaVuSans-6c" transform="translate(124.658203 0)"/>
      <use xlink:href="#DejaVuSans-79" transform="translate(152.441406 0)"/>
      <use xlink:href="#DejaVuSans-6e" transform="translate(211.621094 0)"/>
      <use xlink:href="#DejaVuSans-6f" transform="translate(275 0)"/>
      <use xlink:href="#DejaVuSans-6d" transform="translate(336.181641 0)"/>
      <use xlink:href="#DejaVuSans-69" transform="translate(433.59375 0)"/>
      <use xlink:href="#DejaVuSans-61" transform="translate(461.376953 0)"/>
      <use xlink:href="#DejaVuSans-6c" transform="translate(522.65625 0)"/>
      <use xlink:href="#DejaVuSans-20" transform="translate(550.439453 0)"/>
      <use xlink:href="#DejaVuSans-66" transform="translate(582.226562 0)"/>
      <use xlink:href="#DejaVuSans-69" transform="translate(617.431641 0)"/>
      <use xlink:href="#DejaVuSans-74" transform="translate(645.214844 0)"/>
     </g>
    </g>
   </g>
  </g>
 </g>
 <defs>
  <clipPath id="pee14a1b130">
   <rect x="43.78125" y="43.194062" width="229.39" height="147.456"/>
  </clipPath>
 </defs>
</svg>
