<?xml version="1.0" encoding="utf-8" standalone="no"?>
<!DOCTYPE svg PUBLIC "-//W3C//DTD SVG 1.1//EN"
  "http://www.w3.org/Graphics/SVG/1.1/DTD/svg11.dtd">
<svg xmlns:xlink="http://www.w3.org/1999/xlink" width="295.2816pt" height="229.028187pt" viewBox="0 0 295.2816 229.028187" xmlns="http://www.w3.org/2000/svg" version="1.1">
 <metadata>
  <rdf:RDF xmlns:dc="http://purl.org/dc/elements/1.1/" xmlns:cc="http://creativecommons.org/ns#" xmlns:rdf="http://www.w3.org/1999/02/22-rdf-syntax-ns#">
   <cc:Work>
    <dc:type rdf:resource="http://purl.org/dc/dcmitype/StillImage"/>
    <dc:date>2026-01-13T17:04:15.820346</dc:date>
    <dc:format>image/svg+xml</dc:format>
    <dc:creator>
     <cc:Agent>
      <dc:title>Matplotlib v3.10.0, https://matplotlib.org/</dc:title>
     </cc:Agent>
    </dc:creator>
   </cc:Work>
  </rdf:RDF>
 </metadata>
 <defs>
  <style type="text/css">*{stroke-linejoin: round; stroke-linecap: butt}</style>
 </defs>
 <g id="figure_1">
  <g id="patch_1">
   <path d="M 0 229.028187 
L 295.2816 229.028187 
L 295.2816 0 
L 0 0 
z
" style="fill: #ffffff"/>
  </g>
  <g id="axes_1">
   <g id="patch_2">
    <path d="M 43.78125 190.650062 
L 273.17125 190.650062 
L 273.17125 43.194062 
L 43.78125 43.194062 
z
" style="fill: #ffffff"/>
   </g>
   <g id="matplotlib.axis_1">
    <g id="xtick_1">
     <g id="line2d_1">
      <defs>
       <path id="m3ac7d02202" d="M 0 0 
L 0 3.5 
" style="stroke: #000000; stroke-width: 0.8"/>
      </defs>
      <g>
       <use xlink:href="#m3ac7d02202" x="43.78125" y="190.650062" style="stroke: #000000; stroke-width: 0.8"/>
      </g>
     </g>
     <g id="text_1">
      <!-- 0 -->
      <g transform="translate(40.6 205.2485) scale(0.1 -0.1)">
       <defs>
        <path id="DejaVuSans-30" d="M 2034 4250 
Q 1547 4250 1301 3770 
Q 1056 3291 1056 2328 
Q 1056 1369 1301 889 
Q 1547 409 2034 409 
Q 2525 409 2770 889 
Q 3016 1369 3016 2328 
Q 3016 3291 2770 3770 
Q 2525 4250 2034 4250 
z
M 2034 4750 
Q 2819 4750 3233 4129 
Q 3647 3509 3647 2328 
Q 3647 1150 3233 529 
Q 2819 -91 2034 -91 
Q 1250 -91 836 529 
Q 422 1150 422 2328 
Q 422 3509 836 4129 
Q 1250 4750 2034 4750 
z
" transform="scale(0.015625)"/>
       </defs>
       <use xlink:href="#DejaVuSans-30"/>
      </g>
     </g>
    </g>
    <g id="xtick_2">
     <g id="line2d_2">
      <g>
       <use xlink:href="#m3ac7d02202" x="90.457041" y="190.650062" style="stroke: #000000; stroke-width: 0.8"/>
      </g>
     </g>
     <g id="text_2">
      <!-- 2 -->
      <g transform="translate(87.275791 205.2485) scale(0.1 -0.1)">
       <defs>
        <path id="DejaVuSans-32" d="M 1228 531 
L 3431 531 
L 3431 0 
L 469 0 
L 469 531 
Q 828 903 1448 1529 
Q 2069 2156 2228 2338 
Q 2531 2678 2651 2914 
Q 2772 3150 2772 3378 
Q 2772 3750 2511 3984 
Q 2250 4219 1831 4219 
Q 1534 4219 1204 4116 
Q 875 4013 500 3803 
L 500 4441 
Q 881 4594 1212 4672 
Q 1544 4750 1819 4750 
Q 2544 4750 2975 4387 
Q 3406 4025 3406 3419 
Q 3406 3131 3298 2873 
Q 3191 2616 2906 2266 
Q 2828 2175 2409 1742 
Q 1991 1309 1228 531 
z
" transform="scale(0.015625)"/>
       </defs>
       <use xlink:href="#DejaVuSans-32"/>
      </g>
     </g>
    </g>
    <g id="xtick_3">
     <g id="line2d_3">
      <g>
       <use xlink:href="#m3ac7d02202" x="137.132832" y="190.650062" style="stroke: #000000; stroke-width: 0.8"/>
      </g>
     </g>
     <g id="text_3">
      <!-- 4 -->
      <g transform="translate(133.951582 205.2485) scale(0.1 -0.1)">
       <defs>
        <path id="DejaVuSans-34" d="M 2419 4116 
L 825 1625 
L 2419 1625 
L 2419 4116 
z
M 2253 4666 
L 3047 4666 
L 3047 1625 
L 3713 1625 
L 3713 1100 
L 3047 1100 
L 3047 0 
L 2419 0 
L 2419 1100 
L 313 1100 
L 313 1709 
L 2253 4666 
z
" transform="scale(0.015625)"/>
       </defs>
       <use xlink:href="#DejaVuSans-34"/>
      </g>
     </g>
    </g>
    <g id="xtick_4">
     <g id="line2d_4">
      <g>
       <use xlink:href="#m3ac7d02202" x="183.808623" y="190.650062" style="stroke: #000000; stroke-width: 0.8"/>
      </g>
     </g>
     <g id="text_4">
      <!-- 6 -->
      <g transform="translate(180.627373 205.2485) scale(0.1 -0.1)">
       <defs>
        <path id="DejaVuSans-36" d="M 2113 2584 
Q 1688 2584 1439 2293 
Q 1191 2003 1191 1497 
Q 1191 994 1439 701 
Q 1688 409 2113 409 
Q 2538 409 2786 701 
Q 3034 994 3034 1497 
Q 3034 2003 2786 2293 
Q 2538 2584 2113 2584 
z
M 3366 4563 
L 3366 3988 
Q 3128 4100 2886 4159 
Q 2644 4219 2406 4219 
Q 1781 4219 1451 3797 
Q 1122 3375 1075 2522 
Q 1259 2794 1537 2939 
Q 1816 3084 2150 3084 
Q 2853 3084 3261 2657 
Q 3669 2231 3669 1497 
Q 3669 778 3244 343 
Q 2819 -91 2113 -91 
Q 1303 -91 875 529 
Q 447 1150 447 2328 
Q 447 3434 972 4092 
Q 1497 4750 2381 4750 
Q 2619 4750 2861 4703 
Q 3103 4656 3366 4563 
z
" transform="scale(0.015625)"/>
       </defs>
       <use xlink:href="#DejaVuSans-36"/>
      </g>
     </g>
    </g>
    <g id="xtick_5">
     <g id="line2d_5">
      <g>
       <use xlink:href="#m3ac7d02202" x="230.484414" y="190.650062" style="stroke: #000000; stroke-width: 0.8"/>
      </g>
     </g>
     <g id="text_5">
      <!-- 8 -->
      <g transform="translate(227.303164 205.2485) scale(0.1 -0.1)">
       <defs>
        <path id="DejaVuSans-38" d="M 2034 2216 
Q 1584 2216 1326 1975 
Q 1069 1734 1069 1313 
Q 1069 891 1326 650 
Q 1584 409 2034 409 
Q 2484 409 2743 651 
Q 3003 894 3003 1313 
Q 3003 1734 2745 1975 
Q 2488 2216 2034 2216 
z
M 1403 2484 
Q 997 2584 770 2862 
Q 544 3141 544 3541 
Q 544 4100 942 4425 
Q 1341 4750 2034 4750 
Q 2731 4750 3128 4425 
Q 3525 4100 3525 3541 
Q 3525 3141 3298 2862 
Q 3072 2584 2669 2484 
Q 3125 2378 3379 2068 
Q 3634 1759 3634 1313 
Q 3634 634 3220 271 
Q 2806 -91 2034 -91 
Q 1263 -91 848 271 
Q 434 634 434 1313 
Q 434 1759 690 2068 
Q 947 2378 1403 2484 
z
M 1172 3481 
Q 1172 3119 1398 2916 
Q 1625 2713 2034 2713 
Q 2441 2713 2670 2916 
Q 2900 3119 2900 3481 
Q 2900 3844 2670 4047 
Q 2441 4250 2034 4250 
Q 1625 4250 1398 4047 
Q 1172 3844 1172 3481 
z
" transform="scale(0.015625)"/>
       </defs>
       <use xlink:href="#DejaVuSans-38"/>
      </g>
     </g>
    </g>
    <g id="text_6">
     <!-- $Σ[Amine]^{1.25}[Phenol]^{-0.08}[ArOPh]^{1.09}Δt$. -->
     <g transform="translate(61.52625 219.7485) scale(0.1 -0.1)">
      <defs>
       <path id="DejaVuSans-3a3" d="M 1353 531 
L 3634 531 
L 3634 0 
L 628 0 
L 628 531 
L 2125 2481 
L 628 4134 
L 628 4666 
L 3578 4666 
L 3578 4134 
L 1353 4134 
L 2850 2494 
L 1353 531 
z
" transform="scale(0.015625)"/>
       <path id="DejaVuSans-5b" d="M 550 4863 
L 1875 4863 
L 1875 4416 
L 1125 4416 
L 1125 -397 
L 1875 -397 
L 1875 -844 
L 550 -844 
L 550 4863 
z
" transform="scale(0.015625)"/>
       <path id="DejaVuSans-Oblique-41" d="M 2356 4666 
L 3072 4666 
L 3938 0 
L 3278 0 
L 3084 1197 
L 984 1197 
L 325 0 
L -341 0 
L 2356 4666 
z
M 2584 4044 
L 1275 1722 
L 2988 1722 
L 2584 4044 
z
" transform="scale(0.015625)"/>
       <path id="DejaVuSans-Oblique-6d" d="M 5747 2113 
L 5338 0 
L 4763 0 
L 5166 2094 
Q 5191 2228 5203 2325 
Q 5216 2422 5216 2491 
Q 5216 2772 5059 2928 
Q 4903 3084 4622 3084 
Q 4203 3084 3875 2770 
Q 3547 2456 3450 1953 
L 3066 0 
L 2491 0 
L 2900 2094 
Q 2925 2209 2937 2307 
Q 2950 2406 2950 2484 
Q 2950 2769 2794 2926 
Q 2638 3084 2363 3084 
Q 1938 3084 1609 2770 
Q 1281 2456 1184 1953 
L 800 0 
L 225 0 
L 909 3500 
L 1484 3500 
L 1375 2956 
Q 1609 3263 1923 3423 
Q 2238 3584 2597 3584 
Q 2978 3584 3223 3384 
Q 3469 3184 3519 2828 
Q 3781 3197 4126 3390 
Q 4472 3584 4856 3584 
Q 5306 3584 5551 3325 
Q 5797 3066 5797 2591 
Q 5797 2488 5784 2364 
Q 5772 2241 5747 2113 
z
" transform="scale(0.015625)"/>
       <path id="DejaVuSans-Oblique-69" d="M 1172 4863 
L 1747 4863 
L 1606 4134 
L 1031 4134 
L 1172 4863 
z
M 909 3500 
L 1484 3500 
L 800 0 
L 225 0 
L 909 3500 
z
" transform="scale(0.015625)"/>
       <path id="DejaVuSans-Oblique-6e" d="M 3566 2113 
L 3156 0 
L 2578 0 
L 2988 2091 
Q 3016 2238 3031 2350 
Q 3047 2463 3047 2528 
Q 3047 2791 2881 2937 
Q 2716 3084 2419 3084 
Q 1956 3084 1622 2776 
Q 1288 2469 1184 1941 
L 800 0 
L 225 0 
L 903 3500 
L 1478 3500 
L 1363 2950 
Q 1603 3253 1940 3418 
Q 2278 3584 2650 3584 
Q 3113 3584 3367 3334 
Q 3622 3084 3622 2631 
Q 3622 2519 3608 2391 
Q 3594 2263 3566 2113 
z
" transform="scale(0.015625)"/>
       <path id="DejaVuSans-Oblique-65" d="M 3078 2063 
Q 3088 2113 3092 2166 
Q 3097 2219 3097 2272 
Q 3097 2653 2873 2875 
Q 2650 3097 2266 3097 
Q 1838 3097 1509 2826 
Q 1181 2556 1013 2059 
L 3078 2063 
z
M 3578 1613 
L 903 1613 
Q 884 1494 878 1425 
Q 872 1356 872 1306 
Q 872 872 1139 634 
Q 1406 397 1894 397 
Q 2269 397 2603 481 
Q 2938 566 3225 728 
L 3116 159 
Q 2806 34 2476 -28 
Q 2147 -91 1806 -91 
Q 1078 -91 686 257 
Q 294 606 294 1247 
Q 294 1794 489 2264 
Q 684 2734 1063 3103 
Q 1306 3334 1642 3459 
Q 1978 3584 2356 3584 
Q 2950 3584 3301 3228 
Q 3653 2872 3653 2272 
Q 3653 2128 3634 1964 
Q 3616 1800 3578 1613 
z
" transform="scale(0.015625)"/>
       <path id="DejaVuSans-5d" d="M 1947 4863 
L 1947 -844 
L 622 -844 
L 622 -397 
L 1369 -397 
L 1369 4416 
L 622 4416 
L 622 4863 
L 1947 4863 
z
" transform="scale(0.015625)"/>
       <path id="DejaVuSans-31" d="M 794 531 
L 1825 531 
L 1825 4091 
L 703 3866 
L 703 4441 
L 1819 4666 
L 2450 4666 
L 2450 531 
L 3481 531 
L 3481 0 
L 794 0 
L 794 531 
z
" transform="scale(0.015625)"/>
       <path id="DejaVuSans-2e" d="M 684 794 
L 1344 794 
L 1344 0 
L 684 0 
L 684 794 
z
" transform="scale(0.015625)"/>
       <path id="DejaVuSans-35" d="M 691 4666 
L 3169 4666 
L 3169 4134 
L 1269 4134 
L 1269 2991 
Q 1406 3038 1543 3061 
Q 1681 3084 1819 3084 
Q 2600 3084 3056 2656 
Q 3513 2228 3513 1497 
Q 3513 744 3044 326 
Q 2575 -91 1722 -91 
Q 1428 -91 1123 -41 
Q 819 9 494 109 
L 494 744 
Q 775 591 1075 516 
Q 1375 441 1709 441 
Q 2250 441 2565 725 
Q 2881 1009 2881 1497 
Q 2881 1984 2565 2268 
Q 2250 2553 1709 2553 
Q 1456 2553 1204 2497 
Q 953 2441 691 2322 
L 691 4666 
z
" transform="scale(0.015625)"/>
       <path id="DejaVuSans-Oblique-50" d="M 1081 4666 
L 2541 4666 
Q 3178 4666 3512 4369 
Q 3847 4072 3847 3500 
Q 3847 2731 3353 2303 
Q 2859 1875 1966 1875 
L 1172 1875 
L 806 0 
L 172 0 
L 1081 4666 
z
M 1613 4147 
L 1275 2394 
L 2069 2394 
Q 2606 2394 2893 2669 
Q 3181 2944 3181 3456 
Q 3181 3784 2986 3965 
Q 2791 4147 2438 4147 
L 1613 4147 
z
" transform="scale(0.015625)"/>
       <path id="DejaVuSans-Oblique-68" d="M 3566 2113 
L 3156 0 
L 2578 0 
L 2988 2091 
Q 3016 2238 3031 2350 
Q 3047 2463 3047 2528 
Q 3047 2791 2881 2937 
Q 2716 3084 2419 3084 
Q 1956 3084 1617 2771 
Q 1278 2459 1178 1941 
L 800 0 
L 225 0 
L 1172 4863 
L 1747 4863 
L 1375 2950 
Q 1594 3244 1934 3414 
Q 2275 3584 2650 3584 
Q 3113 3584 3367 3334 
Q 3622 3084 3622 2631 
Q 3622 2519 3608 2391 
Q 3594 2263 3566 2113 
z
" transform="scale(0.015625)"/>
       <path id="DejaVuSans-Oblique-6f" d="M 1625 -91 
Q 1009 -91 651 289 
Q 294 669 294 1325 
Q 294 1706 417 2101 
Q 541 2497 738 2766 
Q 1047 3184 1428 3384 
Q 1809 3584 2291 3584 
Q 2888 3584 3255 3212 
Q 3622 2841 3622 2241 
Q 3622 1825 3500 1412 
Q 3378 1000 3181 728 
Q 2875 309 2494 109 
Q 2113 -91 1625 -91 
z
M 891 1344 
Q 891 869 1089 633 
Q 1288 397 1691 397 
Q 2269 397 2648 901 
Q 3028 1406 3028 2181 
Q 3028 2634 2825 2865 
Q 2622 3097 2228 3097 
Q 1903 3097 1650 2945 
Q 1397 2794 1197 2484 
Q 1050 2253 970 1956 
Q 891 1659 891 1344 
z
" transform="scale(0.015625)"/>
       <path id="DejaVuSans-Oblique-6c" d="M 1172 4863 
L 1747 4863 
L 800 0 
L 225 0 
L 1172 4863 
z
" transform="scale(0.015625)"/>
       <path id="DejaVuSans-2212" d="M 678 2272 
L 4684 2272 
L 4684 1741 
L 678 1741 
L 678 2272 
z
" transform="scale(0.015625)"/>
       <path id="DejaVuSans-Oblique-72" d="M 2853 2969 
Q 2766 3016 2653 3041 
Q 2541 3066 2413 3066 
Q 1953 3066 1609 2717 
Q 1266 2369 1153 1784 
L 800 0 
L 225 0 
L 909 3500 
L 1484 3500 
L 1375 2956 
Q 1603 3259 1920 3421 
Q 2238 3584 2597 3584 
Q 2691 3584 2781 3573 
Q 2872 3563 2963 3538 
L 2853 2969 
z
" transform="scale(0.015625)"/>
       <path id="DejaVuSans-Oblique-4f" d="M 2919 4238 
Q 2400 4238 2003 3986 
Q 1606 3734 1313 3219 
Q 1125 2891 1026 2522 
Q 928 2153 928 1778 
Q 928 1128 1239 775 
Q 1550 422 2119 422 
Q 2631 422 3032 676 
Q 3434 931 3719 1434 
Q 3909 1772 4009 2142 
Q 4109 2513 4109 2881 
Q 4109 3528 3796 3883 
Q 3484 4238 2919 4238 
z
M 2100 -91 
Q 1241 -91 748 418 
Q 256 928 256 1813 
Q 256 2319 448 2847 
Q 641 3375 978 3788 
Q 1375 4272 1862 4511 
Q 2350 4750 2938 4750 
Q 3794 4750 4287 4245 
Q 4781 3741 4781 2869 
Q 4781 2331 4593 1812 
Q 4406 1294 4056 872 
Q 3656 384 3173 146 
Q 2691 -91 2100 -91 
z
" transform="scale(0.015625)"/>
       <path id="DejaVuSans-39" d="M 703 97 
L 703 672 
Q 941 559 1184 500 
Q 1428 441 1663 441 
Q 2288 441 2617 861 
Q 2947 1281 2994 2138 
Q 2813 1869 2534 1725 
Q 2256 1581 1919 1581 
Q 1219 1581 811 2004 
Q 403 2428 403 3163 
Q 403 3881 828 4315 
Q 1253 4750 1959 4750 
Q 2769 4750 3195 4129 
Q 3622 3509 3622 2328 
Q 3622 1225 3098 567 
Q 2575 -91 1691 -91 
Q 1453 -91 1209 -44 
Q 966 3 703 97 
z
M 1959 2075 
Q 2384 2075 2632 2365 
Q 2881 2656 2881 3163 
Q 2881 3666 2632 3958 
Q 2384 4250 1959 4250 
Q 1534 4250 1286 3958 
Q 1038 3666 1038 3163 
Q 1038 2656 1286 2365 
Q 1534 2075 1959 2075 
z
" transform="scale(0.015625)"/>
       <path id="DejaVuSans-394" d="M 2188 4044 
L 906 525 
L 3472 525 
L 2188 4044 
z
M 50 0 
L 1831 4666 
L 2547 4666 
L 4325 0 
L 50 0 
z
" transform="scale(0.015625)"/>
       <path id="DejaVuSans-Oblique-74" d="M 2706 3500 
L 2619 3053 
L 1472 3053 
L 1100 1153 
Q 1081 1047 1072 975 
Q 1063 903 1063 863 
Q 1063 663 1183 572 
Q 1303 481 1569 481 
L 2150 481 
L 2053 0 
L 1503 0 
Q 991 0 739 200 
Q 488 400 488 806 
Q 488 878 497 964 
Q 506 1050 525 1153 
L 897 3053 
L 409 3053 
L 500 3500 
L 978 3500 
L 1172 4494 
L 1747 4494 
L 1556 3500 
L 2706 3500 
z
" transform="scale(0.015625)"/>
      </defs>
      <use xlink:href="#DejaVuSans-3a3" transform="translate(0 0.765625)"/>
      <use xlink:href="#DejaVuSans-5b" transform="translate(63.183594 0.765625)"/>
      <use xlink:href="#DejaVuSans-Oblique-41" transform="translate(102.197266 0.765625)"/>
      <use xlink:href="#DejaVuSans-Oblique-6d" transform="translate(170.605469 0.765625)"/>
      <use xlink:href="#DejaVuSans-Oblique-69" transform="translate(268.017578 0.765625)"/>
      <use xlink:href="#DejaVuSans-Oblique-6e" transform="translate(295.800781 0.765625)"/>
      <use xlink:href="#DejaVuSans-Oblique-65" transform="translate(359.179688 0.765625)"/>
      <use xlink:href="#DejaVuSans-5d" transform="translate(420.703125 0.765625)"/>
      <use xlink:href="#DejaVuSans-31" transform="translate(460.673828 39.046875) scale(0.7)"/>
      <use xlink:href="#DejaVuSans-2e" transform="translate(505.209961 39.046875) scale(0.7)"/>
      <use xlink:href="#DejaVuSans-32" transform="translate(523.610938 39.046875) scale(0.7)"/>
      <use xlink:href="#DejaVuSans-35" transform="translate(568.14707 39.046875) scale(0.7)"/>
      <use xlink:href="#DejaVuSans-5b" transform="translate(615.417578 0.765625)"/>
      <use xlink:href="#DejaVuSans-Oblique-50" transform="translate(654.43125 0.765625)"/>
      <use xlink:href="#DejaVuSans-Oblique-68" transform="translate(714.733984 0.765625)"/>
      <use xlink:href="#DejaVuSans-Oblique-65" transform="translate(778.112891 0.765625)"/>
      <use xlink:href="#DejaVuSans-Oblique-6e" transform="translate(839.636328 0.765625)"/>
      <use xlink:href="#DejaVuSans-Oblique-6f" transform="translate(903.015234 0.765625)"/>
      <use xlink:href="#DejaVuSans-Oblique-6c" transform="translate(964.196875 0.765625)"/>
      <use xlink:href="#DejaVuSans-5d" transform="translate(991.980078 0.765625)"/>
      <use xlink:href="#DejaVuSans-2212" transform="translate(1031.950781 39.046875) scale(0.7)"/>
      <use xlink:href="#DejaVuSans-30" transform="translate(1090.603125 39.046875) scale(0.7)"/>
      <use xlink:href="#DejaVuSans-2e" transform="translate(1135.139258 39.046875) scale(0.7)"/>
      <use xlink:href="#DejaVuSans-30" transform="translate(1157.390234 39.046875) scale(0.7)"/>
      <use xlink:href="#DejaVuSans-38" transform="translate(1201.926367 39.046875) scale(0.7)"/>
      <use xlink:href="#DejaVuSans-5b" transform="translate(1249.196875 0.765625)"/>
      <use xlink:href="#DejaVuSans-Oblique-41" transform="translate(1288.210547 0.765625)"/>
      <use xlink:href="#DejaVuSans-Oblique-72" transform="translate(1356.61875 0.765625)"/>
      <use xlink:href="#DejaVuSans-Oblique-4f" transform="translate(1397.732031 0.765625)"/>
      <use xlink:href="#DejaVuSans-Oblique-50" transform="translate(1476.442969 0.765625)"/>
      <use xlink:href="#DejaVuSans-Oblique-68" transform="translate(1536.745703 0.765625)"/>
      <use xlink:href="#DejaVuSans-5d" transform="translate(1600.124609 0.765625)"/>
      <use xlink:href="#DejaVuSans-31" transform="translate(1640.095313 39.046875) scale(0.7)"/>
      <use xlink:href="#DejaVuSans-2e" transform="translate(1684.631445 39.046875) scale(0.7)"/>
      <use xlink:href="#DejaVuSans-30" transform="translate(1706.882422 39.046875) scale(0.7)"/>
      <use xlink:href="#DejaVuSans-39" transform="translate(1751.418555 39.046875) scale(0.7)"/>
      <use xlink:href="#DejaVuSans-394" transform="translate(1798.689063 0.765625)"/>
      <use xlink:href="#DejaVuSans-Oblique-74" transform="translate(1867.097266 0.765625)"/>
      <use xlink:href="#DejaVuSans-2e" transform="translate(1906.30625 0.765625)"/>
     </g>
    </g>
    <g id="text_7">
     <!-- 1e4 -->
     <g transform="translate(269.203475 217.926625) scale(0.1 -0.1)">
      <defs>
       <path id="DejaVuSans-65" d="M 3597 1894 
L 3597 1613 
L 953 1613 
Q 991 1019 1311 708 
Q 1631 397 2203 397 
Q 2534 397 2845 478 
Q 3156 559 3463 722 
L 3463 178 
Q 3153 47 2828 -22 
Q 2503 -91 2169 -91 
Q 1331 -91 842 396 
Q 353 884 353 1716 
Q 353 2575 817 3079 
Q 1281 3584 2069 3584 
Q 2775 3584 3186 3129 
Q 3597 2675 3597 1894 
z
M 3022 2063 
Q 3016 2534 2758 2815 
Q 2500 3097 2075 3097 
Q 1594 3097 1305 2825 
Q 1016 2553 972 2059 
L 3022 2063 
z
" transform="scale(0.015625)"/>
      </defs>
      <use xlink:href="#DejaVuSans-31"/>
      <use xlink:href="#DejaVuSans-65" transform="translate(63.623047 0)"/>
      <use xlink:href="#DejaVuSans-34" transform="translate(125.146484 0)"/>
     </g>
    </g>
   </g>
   <g id="matplotlib.axis_2">
    <g id="ytick_1">
     <g id="line2d_6">
      <defs>
       <path id="me2da322171" d="M 0 0 
L -3.5 0 
" style="stroke: #000000; stroke-width: 0.8"/>
      </defs>
      <g>
       <use xlink:href="#me2da322171" x="43.78125" y="180.84603" style="stroke: #000000; stroke-width: 0.8"/>
      </g>
     </g>
     <g id="text_8">
      <!-- 0.8 -->
      <g transform="translate(20.878125 184.645249) scale(0.1 -0.1)">
       <use xlink:href="#DejaVuSans-30"/>
       <use xlink:href="#DejaVuSans-2e" transform="translate(63.623047 0)"/>
       <use xlink:href="#DejaVuSans-38" transform="translate(95.410156 0)"/>
      </g>
     </g>
    </g>
    <g id="ytick_2">
     <g id="line2d_7">
      <g>
       <use xlink:href="#me2da322171" x="43.78125" y="148.519361" style="stroke: #000000; stroke-width: 0.8"/>
      </g>
     </g>
     <g id="text_9">
      <!-- 0.9 -->
      <g transform="translate(20.878125 152.318579) scale(0.1 -0.1)">
       <use xlink:href="#DejaVuSans-30"/>
       <use xlink:href="#DejaVuSans-2e" transform="translate(63.623047 0)"/>
       <use xlink:href="#DejaVuSans-39" transform="translate(95.410156 0)"/>
      </g>
     </g>
    </g>
    <g id="ytick_3">
     <g id="line2d_8">
      <g>
       <use xlink:href="#me2da322171" x="43.78125" y="116.192691" style="stroke: #000000; stroke-width: 0.8"/>
      </g>
     </g>
     <g id="text_10">
      <!-- 1.0 -->
      <g transform="translate(20.878125 119.99191) scale(0.1 -0.1)">
       <use xlink:href="#DejaVuSans-31"/>
       <use xlink:href="#DejaVuSans-2e" transform="translate(63.623047 0)"/>
       <use xlink:href="#DejaVuSans-30" transform="translate(95.410156 0)"/>
      </g>
     </g>
    </g>
    <g id="ytick_4">
     <g id="line2d_9">
      <g>
       <use xlink:href="#me2da322171" x="43.78125" y="83.866021" style="stroke: #000000; stroke-width: 0.8"/>
      </g>
     </g>
     <g id="text_11">
      <!-- 1.1 -->
      <g transform="translate(20.878125 87.66524) scale(0.1 -0.1)">
       <use xlink:href="#DejaVuSans-31"/>
       <use xlink:href="#DejaVuSans-2e" transform="translate(63.623047 0)"/>
       <use xlink:href="#DejaVuSans-31" transform="translate(95.410156 0)"/>
      </g>
     </g>
    </g>
    <g id="ytick_5">
     <g id="line2d_10">
      <g>
       <use xlink:href="#me2da322171" x="43.78125" y="51.539352" style="stroke: #000000; stroke-width: 0.8"/>
      </g>
     </g>
     <g id="text_12">
      <!-- 1.2 -->
      <g transform="translate(20.878125 55.338571) scale(0.1 -0.1)">
       <use xlink:href="#DejaVuSans-31"/>
       <use xlink:href="#DejaVuSans-2e" transform="translate(63.623047 0)"/>
       <use xlink:href="#DejaVuSans-32" transform="translate(95.410156 0)"/>
      </g>
     </g>
    </g>
    <g id="text_13">
     <!-- Shifted Scaled [Product] -->
     <g transform="translate(14.798438 177.22675) rotate(-90) scale(0.1 -0.1)">
      <defs>
       <path id="DejaVuSans-53" d="M 3425 4513 
L 3425 3897 
Q 3066 4069 2747 4153 
Q 2428 4238 2131 4238 
Q 1616 4238 1336 4038 
Q 1056 3838 1056 3469 
Q 1056 3159 1242 3001 
Q 1428 2844 1947 2747 
L 2328 2669 
Q 3034 2534 3370 2195 
Q 3706 1856 3706 1288 
Q 3706 609 3251 259 
Q 2797 -91 1919 -91 
Q 1588 -91 1214 -16 
Q 841 59 441 206 
L 441 856 
Q 825 641 1194 531 
Q 1563 422 1919 422 
Q 2459 422 2753 634 
Q 3047 847 3047 1241 
Q 3047 1584 2836 1778 
Q 2625 1972 2144 2069 
L 1759 2144 
Q 1053 2284 737 2584 
Q 422 2884 422 3419 
Q 422 4038 858 4394 
Q 1294 4750 2059 4750 
Q 2388 4750 2728 4690 
Q 3069 4631 3425 4513 
z
" transform="scale(0.015625)"/>
       <path id="DejaVuSans-68" d="M 3513 2113 
L 3513 0 
L 2938 0 
L 2938 2094 
Q 2938 2591 2744 2837 
Q 2550 3084 2163 3084 
Q 1697 3084 1428 2787 
Q 1159 2491 1159 1978 
L 1159 0 
L 581 0 
L 581 4863 
L 1159 4863 
L 1159 2956 
Q 1366 3272 1645 3428 
Q 1925 3584 2291 3584 
Q 2894 3584 3203 3211 
Q 3513 2838 3513 2113 
z
" transform="scale(0.015625)"/>
       <path id="DejaVuSans-69" d="M 603 3500 
L 1178 3500 
L 1178 0 
L 603 0 
L 603 3500 
z
M 603 4863 
L 1178 4863 
L 1178 4134 
L 603 4134 
L 603 4863 
z
" transform="scale(0.015625)"/>
       <path id="DejaVuSans-66" d="M 2375 4863 
L 2375 4384 
L 1825 4384 
Q 1516 4384 1395 4259 
Q 1275 4134 1275 3809 
L 1275 3500 
L 2222 3500 
L 2222 3053 
L 1275 3053 
L 1275 0 
L 697 0 
L 697 3053 
L 147 3053 
L 147 3500 
L 697 3500 
L 697 3744 
Q 697 4328 969 4595 
Q 1241 4863 1831 4863 
L 2375 4863 
z
" transform="scale(0.015625)"/>
       <path id="DejaVuSans-74" d="M 1172 4494 
L 1172 3500 
L 2356 3500 
L 2356 3053 
L 1172 3053 
L 1172 1153 
Q 1172 725 1289 603 
Q 1406 481 1766 481 
L 2356 481 
L 2356 0 
L 1766 0 
Q 1100 0 847 248 
Q 594 497 594 1153 
L 594 3053 
L 172 3053 
L 172 3500 
L 594 3500 
L 594 4494 
L 1172 4494 
z
" transform="scale(0.015625)"/>
       <path id="DejaVuSans-64" d="M 2906 2969 
L 2906 4863 
L 3481 4863 
L 3481 0 
L 2906 0 
L 2906 525 
Q 2725 213 2448 61 
Q 2172 -91 1784 -91 
Q 1150 -91 751 415 
Q 353 922 353 1747 
Q 353 2572 751 3078 
Q 1150 3584 1784 3584 
Q 2172 3584 2448 3432 
Q 2725 3281 2906 2969 
z
M 947 1747 
Q 947 1113 1208 752 
Q 1469 391 1925 391 
Q 2381 391 2643 752 
Q 2906 1113 2906 1747 
Q 2906 2381 2643 2742 
Q 2381 3103 1925 3103 
Q 1469 3103 1208 2742 
Q 947 2381 947 1747 
z
" transform="scale(0.015625)"/>
       <path id="DejaVuSans-20" transform="scale(0.015625)"/>
       <path id="DejaVuSans-63" d="M 3122 3366 
L 3122 2828 
Q 2878 2963 2633 3030 
Q 2388 3097 2138 3097 
Q 1578 3097 1268 2742 
Q 959 2388 959 1747 
Q 959 1106 1268 751 
Q 1578 397 2138 397 
Q 2388 397 2633 464 
Q 2878 531 3122 666 
L 3122 134 
Q 2881 22 2623 -34 
Q 2366 -91 2075 -91 
Q 1284 -91 818 406 
Q 353 903 353 1747 
Q 353 2603 823 3093 
Q 1294 3584 2113 3584 
Q 2378 3584 2631 3529 
Q 2884 3475 3122 3366 
z
" transform="scale(0.015625)"/>
       <path id="DejaVuSans-61" d="M 2194 1759 
Q 1497 1759 1228 1600 
Q 959 1441 959 1056 
Q 959 750 1161 570 
Q 1363 391 1709 391 
Q 2188 391 2477 730 
Q 2766 1069 2766 1631 
L 2766 1759 
L 2194 1759 
z
M 3341 1997 
L 3341 0 
L 2766 0 
L 2766 531 
Q 2569 213 2275 61 
Q 1981 -91 1556 -91 
Q 1019 -91 701 211 
Q 384 513 384 1019 
Q 384 1609 779 1909 
Q 1175 2209 1959 2209 
L 2766 2209 
L 2766 2266 
Q 2766 2663 2505 2880 
Q 2244 3097 1772 3097 
Q 1472 3097 1187 3025 
Q 903 2953 641 2809 
L 641 3341 
Q 956 3463 1253 3523 
Q 1550 3584 1831 3584 
Q 2591 3584 2966 3190 
Q 3341 2797 3341 1997 
z
" transform="scale(0.015625)"/>
       <path id="DejaVuSans-6c" d="M 603 4863 
L 1178 4863 
L 1178 0 
L 603 0 
L 603 4863 
z
" transform="scale(0.015625)"/>
       <path id="DejaVuSans-50" d="M 1259 4147 
L 1259 2394 
L 2053 2394 
Q 2494 2394 2734 2622 
Q 2975 2850 2975 3272 
Q 2975 3691 2734 3919 
Q 2494 4147 2053 4147 
L 1259 4147 
z
M 628 4666 
L 2053 4666 
Q 2838 4666 3239 4311 
Q 3641 3956 3641 3272 
Q 3641 2581 3239 2228 
Q 2838 1875 2053 1875 
L 1259 1875 
L 1259 0 
L 628 0 
L 628 4666 
z
" transform="scale(0.015625)"/>
       <path id="DejaVuSans-72" d="M 2631 2963 
Q 2534 3019 2420 3045 
Q 2306 3072 2169 3072 
Q 1681 3072 1420 2755 
Q 1159 2438 1159 1844 
L 1159 0 
L 581 0 
L 581 3500 
L 1159 3500 
L 1159 2956 
Q 1341 3275 1631 3429 
Q 1922 3584 2338 3584 
Q 2397 3584 2469 3576 
Q 2541 3569 2628 3553 
L 2631 2963 
z
" transform="scale(0.015625)"/>
       <path id="DejaVuSans-6f" d="M 1959 3097 
Q 1497 3097 1228 2736 
Q 959 2375 959 1747 
Q 959 1119 1226 758 
Q 1494 397 1959 397 
Q 2419 397 2687 759 
Q 2956 1122 2956 1747 
Q 2956 2369 2687 2733 
Q 2419 3097 1959 3097 
z
M 1959 3584 
Q 2709 3584 3137 3096 
Q 3566 2609 3566 1747 
Q 3566 888 3137 398 
Q 2709 -91 1959 -91 
Q 1206 -91 779 398 
Q 353 888 353 1747 
Q 353 2609 779 3096 
Q 1206 3584 1959 3584 
z
" transform="scale(0.015625)"/>
       <path id="DejaVuSans-75" d="M 544 1381 
L 544 3500 
L 1119 3500 
L 1119 1403 
Q 1119 906 1312 657 
Q 1506 409 1894 409 
Q 2359 409 2629 706 
Q 2900 1003 2900 1516 
L 2900 3500 
L 3475 3500 
L 3475 0 
L 2900 0 
L 2900 538 
Q 2691 219 2414 64 
Q 2138 -91 1772 -91 
Q 1169 -91 856 284 
Q 544 659 544 1381 
z
M 1991 3584 
L 1991 3584 
z
" transform="scale(0.015625)"/>
      </defs>
      <use xlink:href="#DejaVuSans-53"/>
      <use xlink:href="#DejaVuSans-68" transform="translate(63.476562 0)"/>
      <use xlink:href="#DejaVuSans-69" transform="translate(126.855469 0)"/>
      <use xlink:href="#DejaVuSans-66" transform="translate(154.638672 0)"/>
      <use xlink:href="#DejaVuSans-74" transform="translate(188.09375 0)"/>
      <use xlink:href="#DejaVuSans-65" transform="translate(227.302734 0)"/>
      <use xlink:href="#DejaVuSans-64" transform="translate(288.826172 0)"/>
      <use xlink:href="#DejaVuSans-20" transform="translate(352.302734 0)"/>
      <use xlink:href="#DejaVuSans-53" transform="translate(384.089844 0)"/>
      <use xlink:href="#DejaVuSans-63" transform="translate(447.566406 0)"/>
      <use xlink:href="#DejaVuSans-61" transform="translate(502.546875 0)"/>
      <use xlink:href="#DejaVuSans-6c" transform="translate(563.826172 0)"/>
      <use xlink:href="#DejaVuSans-65" transform="translate(591.609375 0)"/>
      <use xlink:href="#DejaVuSans-64" transform="translate(653.132812 0)"/>
      <use xlink:href="#DejaVuSans-20" transform="translate(716.609375 0)"/>
      <use xlink:href="#DejaVuSans-5b" transform="translate(748.396484 0)"/>
      <use xlink:href="#DejaVuSans-50" transform="translate(787.410156 0)"/>
      <use xlink:href="#DejaVuSans-72" transform="translate(845.962891 0)"/>
      <use xlink:href="#DejaVuSans-6f" transform="translate(884.826172 0)"/>
      <use xlink:href="#DejaVuSans-64" transform="translate(946.007812 0)"/>
      <use xlink:href="#DejaVuSans-75" transform="translate(1009.484375 0)"/>
      <use xlink:href="#DejaVuSans-63" transform="translate(1072.863281 0)"/>
      <use xlink:href="#DejaVuSans-74" transform="translate(1127.84375 0)"/>
      <use xlink:href="#DejaVuSans-5d" transform="translate(1167.052734 0)"/>
     </g>
    </g>
   </g>
   <g id="line2d_11">
    <path d="M 43.781545 183.947517 
L 50.693409 179.994329 
L 56.932204 176.490741 
L 62.753686 174.136918 
L 68.396747 170.2428 
L 73.56039 166.617392 
L 78.348798 162.958974 
L 83.05602 159.88212 
L 87.410161 157.548631 
L 91.622763 155.549148 
L 95.811783 153.038473 
L 99.707365 150.800828 
L 103.478658 148.54828 
L 107.079345 145.675988 
L 110.647256 143.409511 
L 113.961765 141.302066 
L 117.199354 140.005006 
L 120.398198 137.097566 
L 123.394468 135.194337 
L 126.282872 133.685442 
L 129.18299 132.120465 
L 131.925419 130.143815 
L 134.546542 128.359461 
L 137.120316 127.26068 
L 139.694297 125.947567 
L 142.103686 123.378826 
L 144.442157 122.644319 
L 146.796212 120.731562 
L 148.994913 119.401664 
L 151.120666 117.426759 
L 153.26392 116.936173 
L 155.293227 115.084225 
L 157.253718 114.038091 
L 159.169603 112.816825 
L 161.085501 111.028995 
L 162.867671 109.549737 
L 164.620384 109.18261 
L 166.396637 107.954258 
L 168.074037 107.050057 
L 169.705337 105.688632 
L 171.339715 104.650323 
L 172.88696 103.42998 
L 174.426638 103.932676 
L 175.936863 102.380308 
L 177.445118 101.15645 
L 178.869143 99.83022 
L 180.251092 99.464533 
L 181.652781 98.164352 
L 182.970396 97.522876 
L 184.26647 96.804221 
" clip-path="url(#p087d4df2b4)" style="fill: none; stroke: #1f77b4; stroke-width: 0.7; stroke-linecap: square"/>
    <defs>
     <path id="m53cef2a0fc" d="M 0 0.9 
C 0.238683 0.9 0.467622 0.80517 0.636396 0.636396 
C 0.80517 0.467622 0.9 0.238683 0.9 0 
C 0.9 -0.238683 0.80517 -0.467622 0.636396 -0.636396 
C 0.467622 -0.80517 0.238683 -0.9 0 -0.9 
C -0.238683 -0.9 -0.467622 -0.80517 -0.636396 -0.636396 
C -0.80517 -0.467622 -0.9 -0.238683 -0.9 0 
C -0.9 0.238683 -0.80517 0.467622 -0.636396 0.636396 
C -0.467622 0.80517 -0.238683 0.9 0 0.9 
z
" style="stroke: #1f77b4"/>
    </defs>
    <g clip-path="url(#p087d4df2b4)">
     <use xlink:href="#m53cef2a0fc" x="43.781545" y="183.947517" style="fill: #1f77b4; stroke: #1f77b4"/>
     <use xlink:href="#m53cef2a0fc" x="50.693409" y="179.994329" style="fill: #1f77b4; stroke: #1f77b4"/>
     <use xlink:href="#m53cef2a0fc" x="56.932204" y="176.490741" style="fill: #1f77b4; stroke: #1f77b4"/>
     <use xlink:href="#m53cef2a0fc" x="62.753686" y="174.136918" style="fill: #1f77b4; stroke: #1f77b4"/>
     <use xlink:href="#m53cef2a0fc" x="68.396747" y="170.2428" style="fill: #1f77b4; stroke: #1f77b4"/>
     <use xlink:href="#m53cef2a0fc" x="73.56039" y="166.617392" style="fill: #1f77b4; stroke: #1f77b4"/>
     <use xlink:href="#m53cef2a0fc" x="78.348798" y="162.958974" style="fill: #1f77b4; stroke: #1f77b4"/>
     <use xlink:href="#m53cef2a0fc" x="83.05602" y="159.88212" style="fill: #1f77b4; stroke: #1f77b4"/>
     <use xlink:href="#m53cef2a0fc" x="87.410161" y="157.548631" style="fill: #1f77b4; stroke: #1f77b4"/>
     <use xlink:href="#m53cef2a0fc" x="91.622763" y="155.549148" style="fill: #1f77b4; stroke: #1f77b4"/>
     <use xlink:href="#m53cef2a0fc" x="95.811783" y="153.038473" style="fill: #1f77b4; stroke: #1f77b4"/>
     <use xlink:href="#m53cef2a0fc" x="99.707365" y="150.800828" style="fill: #1f77b4; stroke: #1f77b4"/>
     <use xlink:href="#m53cef2a0fc" x="103.478658" y="148.54828" style="fill: #1f77b4; stroke: #1f77b4"/>
     <use xlink:href="#m53cef2a0fc" x="107.079345" y="145.675988" style="fill: #1f77b4; stroke: #1f77b4"/>
     <use xlink:href="#m53cef2a0fc" x="110.647256" y="143.409511" style="fill: #1f77b4; stroke: #1f77b4"/>
     <use xlink:href="#m53cef2a0fc" x="113.961765" y="141.302066" style="fill: #1f77b4; stroke: #1f77b4"/>
     <use xlink:href="#m53cef2a0fc" x="117.199354" y="140.005006" style="fill: #1f77b4; stroke: #1f77b4"/>
     <use xlink:href="#m53cef2a0fc" x="120.398198" y="137.097566" style="fill: #1f77b4; stroke: #1f77b4"/>
     <use xlink:href="#m53cef2a0fc" x="123.394468" y="135.194337" style="fill: #1f77b4; stroke: #1f77b4"/>
     <use xlink:href="#m53cef2a0fc" x="126.282872" y="133.685442" style="fill: #1f77b4; stroke: #1f77b4"/>
     <use xlink:href="#m53cef2a0fc" x="129.18299" y="132.120465" style="fill: #1f77b4; stroke: #1f77b4"/>
     <use xlink:href="#m53cef2a0fc" x="131.925419" y="130.143815" style="fill: #1f77b4; stroke: #1f77b4"/>
     <use xlink:href="#m53cef2a0fc" x="134.546542" y="128.359461" style="fill: #1f77b4; stroke: #1f77b4"/>
     <use xlink:href="#m53cef2a0fc" x="137.120316" y="127.26068" style="fill: #1f77b4; stroke: #1f77b4"/>
     <use xlink:href="#m53cef2a0fc" x="139.694297" y="125.947567" style="fill: #1f77b4; stroke: #1f77b4"/>
     <use xlink:href="#m53cef2a0fc" x="142.103686" y="123.378826" style="fill: #1f77b4; stroke: #1f77b4"/>
     <use xlink:href="#m53cef2a0fc" x="144.442157" y="122.644319" style="fill: #1f77b4; stroke: #1f77b4"/>
     <use xlink:href="#m53cef2a0fc" x="146.796212" y="120.731562" style="fill: #1f77b4; stroke: #1f77b4"/>
     <use xlink:href="#m53cef2a0fc" x="148.994913" y="119.401664" style="fill: #1f77b4; stroke: #1f77b4"/>
     <use xlink:href="#m53cef2a0fc" x="151.120666" y="117.426759" style="fill: #1f77b4; stroke: #1f77b4"/>
     <use xlink:href="#m53cef2a0fc" x="153.26392" y="116.936173" style="fill: #1f77b4; stroke: #1f77b4"/>
     <use xlink:href="#m53cef2a0fc" x="155.293227" y="115.084225" style="fill: #1f77b4; stroke: #1f77b4"/>
     <use xlink:href="#m53cef2a0fc" x="157.253718" y="114.038091" style="fill: #1f77b4; stroke: #1f77b4"/>
     <use xlink:href="#m53cef2a0fc" x="159.169603" y="112.816825" style="fill: #1f77b4; stroke: #1f77b4"/>
     <use xlink:href="#m53cef2a0fc" x="161.085501" y="111.028995" style="fill: #1f77b4; stroke: #1f77b4"/>
     <use xlink:href="#m53cef2a0fc" x="162.867671" y="109.549737" style="fill: #1f77b4; stroke: #1f77b4"/>
     <use xlink:href="#m53cef2a0fc" x="164.620384" y="109.18261" style="fill: #1f77b4; stroke: #1f77b4"/>
     <use xlink:href="#m53cef2a0fc" x="166.396637" y="107.954258" style="fill: #1f77b4; stroke: #1f77b4"/>
     <use xlink:href="#m53cef2a0fc" x="168.074037" y="107.050057" style="fill: #1f77b4; stroke: #1f77b4"/>
     <use xlink:href="#m53cef2a0fc" x="169.705337" y="105.688632" style="fill: #1f77b4; stroke: #1f77b4"/>
     <use xlink:href="#m53cef2a0fc" x="171.339715" y="104.650323" style="fill: #1f77b4; stroke: #1f77b4"/>
     <use xlink:href="#m53cef2a0fc" x="172.88696" y="103.42998" style="fill: #1f77b4; stroke: #1f77b4"/>
     <use xlink:href="#m53cef2a0fc" x="174.426638" y="103.932676" style="fill: #1f77b4; stroke: #1f77b4"/>
     <use xlink:href="#m53cef2a0fc" x="175.936863" y="102.380308" style="fill: #1f77b4; stroke: #1f77b4"/>
     <use xlink:href="#m53cef2a0fc" x="177.445118" y="101.15645" style="fill: #1f77b4; stroke: #1f77b4"/>
     <use xlink:href="#m53cef2a0fc" x="178.869143" y="99.83022" style="fill: #1f77b4; stroke: #1f77b4"/>
     <use xlink:href="#m53cef2a0fc" x="180.251092" y="99.464533" style="fill: #1f77b4; stroke: #1f77b4"/>
     <use xlink:href="#m53cef2a0fc" x="181.652781" y="98.164352" style="fill: #1f77b4; stroke: #1f77b4"/>
     <use xlink:href="#m53cef2a0fc" x="182.970396" y="97.522876" style="fill: #1f77b4; stroke: #1f77b4"/>
     <use xlink:href="#m53cef2a0fc" x="184.26647" y="96.804221" style="fill: #1f77b4; stroke: #1f77b4"/>
    </g>
   </g>
   <g id="line2d_12">
    <path d="M 43.78125 183.947517 
L 56.496721 174.355868 
L 68.084715 167.721927 
L 79.08604 160.914291 
L 89.834904 154.978888 
L 99.79297 149.71333 
L 109.268655 143.363101 
L 118.592854 137.992558 
L 127.218237 132.659398 
L 135.439488 127.756302 
L 143.351588 122.88666 
L 151.144309 117.674022 
L 158.358391 113.339054 
L 165.308662 109.570181 
L 172.248905 105.573649 
L 178.797426 102.481466 
L 185.079886 98.247167 
L 191.289482 94.237011 
L 197.126333 91.343948 
L 202.823126 88.085561 
L 208.295326 84.637844 
" clip-path="url(#p087d4df2b4)" style="fill: none; stroke: #ff7f0e; stroke-width: 0.7; stroke-linecap: square"/>
    <defs>
     <path id="mb96a2ddcec" d="M 0 0.9 
C 0.238683 0.9 0.467622 0.80517 0.636396 0.636396 
C 0.80517 0.467622 0.9 0.238683 0.9 0 
C 0.9 -0.238683 0.80517 -0.467622 0.636396 -0.636396 
C 0.467622 -0.80517 0.238683 -0.9 0 -0.9 
C -0.238683 -0.9 -0.467622 -0.80517 -0.636396 -0.636396 
C -0.80517 -0.467622 -0.9 -0.238683 -0.9 0 
C -0.9 0.238683 -0.80517 0.467622 -0.636396 0.636396 
C -0.467622 0.80517 -0.238683 0.9 0 0.9 
z
" style="stroke: #ff7f0e"/>
    </defs>
    <g clip-path="url(#p087d4df2b4)">
     <use xlink:href="#mb96a2ddcec" x="43.78125" y="183.947517" style="fill: #ff7f0e; stroke: #ff7f0e"/>
     <use xlink:href="#mb96a2ddcec" x="56.496721" y="174.355868" style="fill: #ff7f0e; stroke: #ff7f0e"/>
     <use xlink:href="#mb96a2ddcec" x="68.084715" y="167.721927" style="fill: #ff7f0e; stroke: #ff7f0e"/>
     <use xlink:href="#mb96a2ddcec" x="79.08604" y="160.914291" style="fill: #ff7f0e; stroke: #ff7f0e"/>
     <use xlink:href="#mb96a2ddcec" x="89.834904" y="154.978888" style="fill: #ff7f0e; stroke: #ff7f0e"/>
     <use xlink:href="#mb96a2ddcec" x="99.79297" y="149.71333" style="fill: #ff7f0e; stroke: #ff7f0e"/>
     <use xlink:href="#mb96a2ddcec" x="109.268655" y="143.363101" style="fill: #ff7f0e; stroke: #ff7f0e"/>
     <use xlink:href="#mb96a2ddcec" x="118.592854" y="137.992558" style="fill: #ff7f0e; stroke: #ff7f0e"/>
     <use xlink:href="#mb96a2ddcec" x="127.218237" y="132.659398" style="fill: #ff7f0e; stroke: #ff7f0e"/>
     <use xlink:href="#mb96a2ddcec" x="135.439488" y="127.756302" style="fill: #ff7f0e; stroke: #ff7f0e"/>
     <use xlink:href="#mb96a2ddcec" x="143.351588" y="122.88666" style="fill: #ff7f0e; stroke: #ff7f0e"/>
     <use xlink:href="#mb96a2ddcec" x="151.144309" y="117.674022" style="fill: #ff7f0e; stroke: #ff7f0e"/>
     <use xlink:href="#mb96a2ddcec" x="158.358391" y="113.339054" style="fill: #ff7f0e; stroke: #ff7f0e"/>
     <use xlink:href="#mb96a2ddcec" x="165.308662" y="109.570181" style="fill: #ff7f0e; stroke: #ff7f0e"/>
     <use xlink:href="#mb96a2ddcec" x="172.248905" y="105.573649" style="fill: #ff7f0e; stroke: #ff7f0e"/>
     <use xlink:href="#mb96a2ddcec" x="178.797426" y="102.481466" style="fill: #ff7f0e; stroke: #ff7f0e"/>
     <use xlink:href="#mb96a2ddcec" x="185.079886" y="98.247167" style="fill: #ff7f0e; stroke: #ff7f0e"/>
     <use xlink:href="#mb96a2ddcec" x="191.289482" y="94.237011" style="fill: #ff7f0e; stroke: #ff7f0e"/>
     <use xlink:href="#mb96a2ddcec" x="197.126333" y="91.343948" style="fill: #ff7f0e; stroke: #ff7f0e"/>
     <use xlink:href="#mb96a2ddcec" x="202.823126" y="88.085561" style="fill: #ff7f0e; stroke: #ff7f0e"/>
     <use xlink:href="#mb96a2ddcec" x="208.295326" y="84.637844" style="fill: #ff7f0e; stroke: #ff7f0e"/>
    </g>
   </g>
   <g id="line2d_13">
    <path d="M 43.78125 183.947517 
L 48.387623 181.742764 
L 52.892948 178.956748 
L 57.40077 176.168132 
L 61.655207 173.458877 
L 65.75977 170.01774 
L 69.891277 168.493865 
L 73.806547 166.115656 
L 77.626011 163.38078 
L 81.305379 160.537868 
L 85.030599 159.056435 
L 88.571339 156.420214 
L 91.989284 153.999288 
L 95.422643 151.750598 
L 98.687185 149.675517 
L 101.899334 148.194514 
L 105.134255 145.976026 
L 108.200862 144.07174 
L 111.200793 142.581951 
L 114.151835 140.605679 
L 117.119682 139.569493 
L 119.945683 137.22772 
L 122.687179 135.226265 
L 125.46709 134.377681 
L 128.12003 132.650873 
L 130.721784 130.836781 
L 133.341972 129.327156 
L 135.819398 127.169914 
L 138.256164 126.009325 
L 140.655841 124.897757 
L 143.093796 123.042999 
L 145.398377 121.774588 
L 147.667082 120.182966 
L 149.940892 118.64417 
L 152.123609 117.458439 
L 154.261552 115.656068 
L 156.356291 115.070532 
L 158.486178 113.945508 
L 160.525128 112.589457 
L 162.54594 111.827113 
L 164.580446 110.377948 
L 166.514965 109.009373 
" clip-path="url(#p087d4df2b4)" style="fill: none; stroke: #2ca02c; stroke-width: 0.7; stroke-linecap: square"/>
    <defs>
     <path id="mc422878898" d="M 0 0.9 
C 0.238683 0.9 0.467622 0.80517 0.636396 0.636396 
C 0.80517 0.467622 0.9 0.238683 0.9 0 
C 0.9 -0.238683 0.80517 -0.467622 0.636396 -0.636396 
C 0.467622 -0.80517 0.238683 -0.9 0 -0.9 
C -0.238683 -0.9 -0.467622 -0.80517 -0.636396 -0.636396 
C -0.80517 -0.467622 -0.9 -0.238683 -0.9 0 
C -0.9 0.238683 -0.80517 0.467622 -0.636396 0.636396 
C -0.467622 0.80517 -0.238683 0.9 0 0.9 
z
" style="stroke: #2ca02c"/>
    </defs>
    <g clip-path="url(#p087d4df2b4)">
     <use xlink:href="#mc422878898" x="43.78125" y="183.947517" style="fill: #2ca02c; stroke: #2ca02c"/>
     <use xlink:href="#mc422878898" x="48.387623" y="181.742764" style="fill: #2ca02c; stroke: #2ca02c"/>
     <use xlink:href="#mc422878898" x="52.892948" y="178.956748" style="fill: #2ca02c; stroke: #2ca02c"/>
     <use xlink:href="#mc422878898" x="57.40077" y="176.168132" style="fill: #2ca02c; stroke: #2ca02c"/>
     <use xlink:href="#mc422878898" x="61.655207" y="173.458877" style="fill: #2ca02c; stroke: #2ca02c"/>
     <use xlink:href="#mc422878898" x="65.75977" y="170.01774" style="fill: #2ca02c; stroke: #2ca02c"/>
     <use xlink:href="#mc422878898" x="69.891277" y="168.493865" style="fill: #2ca02c; stroke: #2ca02c"/>
     <use xlink:href="#mc422878898" x="73.806547" y="166.115656" style="fill: #2ca02c; stroke: #2ca02c"/>
     <use xlink:href="#mc422878898" x="77.626011" y="163.38078" style="fill: #2ca02c; stroke: #2ca02c"/>
     <use xlink:href="#mc422878898" x="81.305379" y="160.537868" style="fill: #2ca02c; stroke: #2ca02c"/>
     <use xlink:href="#mc422878898" x="85.030599" y="159.056435" style="fill: #2ca02c; stroke: #2ca02c"/>
     <use xlink:href="#mc422878898" x="88.571339" y="156.420214" style="fill: #2ca02c; stroke: #2ca02c"/>
     <use xlink:href="#mc422878898" x="91.989284" y="153.999288" style="fill: #2ca02c; stroke: #2ca02c"/>
     <use xlink:href="#mc422878898" x="95.422643" y="151.750598" style="fill: #2ca02c; stroke: #2ca02c"/>
     <use xlink:href="#mc422878898" x="98.687185" y="149.675517" style="fill: #2ca02c; stroke: #2ca02c"/>
     <use xlink:href="#mc422878898" x="101.899334" y="148.194514" style="fill: #2ca02c; stroke: #2ca02c"/>
     <use xlink:href="#mc422878898" x="105.134255" y="145.976026" style="fill: #2ca02c; stroke: #2ca02c"/>
     <use xlink:href="#mc422878898" x="108.200862" y="144.07174" style="fill: #2ca02c; stroke: #2ca02c"/>
     <use xlink:href="#mc422878898" x="111.200793" y="142.581951" style="fill: #2ca02c; stroke: #2ca02c"/>
     <use xlink:href="#mc422878898" x="114.151835" y="140.605679" style="fill: #2ca02c; stroke: #2ca02c"/>
     <use xlink:href="#mc422878898" x="117.119682" y="139.569493" style="fill: #2ca02c; stroke: #2ca02c"/>
     <use xlink:href="#mc422878898" x="119.945683" y="137.22772" style="fill: #2ca02c; stroke: #2ca02c"/>
     <use xlink:href="#mc422878898" x="122.687179" y="135.226265" style="fill: #2ca02c; stroke: #2ca02c"/>
     <use xlink:href="#mc422878898" x="125.46709" y="134.377681" style="fill: #2ca02c; stroke: #2ca02c"/>
     <use xlink:href="#mc422878898" x="128.12003" y="132.650873" style="fill: #2ca02c; stroke: #2ca02c"/>
     <use xlink:href="#mc422878898" x="130.721784" y="130.836781" style="fill: #2ca02c; stroke: #2ca02c"/>
     <use xlink:href="#mc422878898" x="133.341972" y="129.327156" style="fill: #2ca02c; stroke: #2ca02c"/>
     <use xlink:href="#mc422878898" x="135.819398" y="127.169914" style="fill: #2ca02c; stroke: #2ca02c"/>
     <use xlink:href="#mc422878898" x="138.256164" y="126.009325" style="fill: #2ca02c; stroke: #2ca02c"/>
     <use xlink:href="#mc422878898" x="140.655841" y="124.897757" style="fill: #2ca02c; stroke: #2ca02c"/>
     <use xlink:href="#mc422878898" x="143.093796" y="123.042999" style="fill: #2ca02c; stroke: #2ca02c"/>
     <use xlink:href="#mc422878898" x="145.398377" y="121.774588" style="fill: #2ca02c; stroke: #2ca02c"/>
     <use xlink:href="#mc422878898" x="147.667082" y="120.182966" style="fill: #2ca02c; stroke: #2ca02c"/>
     <use xlink:href="#mc422878898" x="149.940892" y="118.64417" style="fill: #2ca02c; stroke: #2ca02c"/>
     <use xlink:href="#mc422878898" x="152.123609" y="117.458439" style="fill: #2ca02c; stroke: #2ca02c"/>
     <use xlink:href="#mc422878898" x="154.261552" y="115.656068" style="fill: #2ca02c; stroke: #2ca02c"/>
     <use xlink:href="#mc422878898" x="156.356291" y="115.070532" style="fill: #2ca02c; stroke: #2ca02c"/>
     <use xlink:href="#mc422878898" x="158.486178" y="113.945508" style="fill: #2ca02c; stroke: #2ca02c"/>
     <use xlink:href="#mc422878898" x="160.525128" y="112.589457" style="fill: #2ca02c; stroke: #2ca02c"/>
     <use xlink:href="#mc422878898" x="162.54594" y="111.827113" style="fill: #2ca02c; stroke: #2ca02c"/>
     <use xlink:href="#mc422878898" x="164.580446" y="110.377948" style="fill: #2ca02c; stroke: #2ca02c"/>
     <use xlink:href="#mc422878898" x="166.514965" y="109.009373" style="fill: #2ca02c; stroke: #2ca02c"/>
    </g>
   </g>
   <g id="line2d_14">
    <path d="M 43.78125 183.947517 
L 54.160769 175.567165 
L 63.495697 169.70599 
L 72.248031 164.180801 
L 80.574762 159.740938 
L 88.737618 154.715548 
L 96.198353 149.970928 
L 103.366726 146.625026 
L 110.345427 141.786476 
L 116.783365 137.64949 
L 122.894467 133.802779 
L 128.917464 130.722935 
L 134.518887 127.016649 
L 139.881608 123.864517 
L 144.966128 120.712739 
L 149.998485 117.603281 
L 154.636563 115.222384 
L 159.075981 111.459188 
L 163.491535 109.393381 
L 167.622796 106.987642 
L 171.519618 104.424733 
L 175.368456 102.211632 
L 178.992786 100.038411 
L 182.465283 98.508894 
L 185.894669 96.348606 
L 189.109014 94.168381 
L 192.239171 92.886553 
L 195.241245 90.721884 
L 198.20296 89.403765 
L 200.930156 86.917695 
L 203.587727 86.235803 
L 206.240363 83.994476 
L 208.702703 82.367534 
L 211.096599 81.898845 
L 213.483295 79.731428 
L 215.715745 78.6414 
L 217.847076 76.923292 
L 219.902813 75.693283 
L 221.958475 73.877927 
L 223.898122 73.899439 
L 225.754448 71.930524 
L 227.631657 71.294799 
L 229.412416 69.552802 
L 231.098455 69.145794 
L 232.783886 68.16119 
L 234.355364 67.159027 
L 235.910957 66.931881 
L 237.400423 64.781543 
L 238.851792 64.553654 
L 240.233447 63.210475 
L 241.566026 62.520694 
L 242.933047 61.954667 
L 244.211575 61.102803 
L 245.432037 60.367648 
L 246.643306 59.314211 
L 247.766926 58.277699 
L 248.880406 57.87414 
L 249.989633 57.950545 
L 251.036324 57.039931 
L 252.061537 56.41689 
L 253.053222 55.686857 
L 254.049788 54.953656 
L 254.976976 54.130199 
L 255.867772 53.781706 
L 256.766155 53.220899 
L 257.590361 52.774603 
L 258.415196 52.780496 
L 259.256596 52.123669 
L 260.042572 51.660637 
L 260.780221 50.792487 
L 261.500508 50.692958 
L 262.247917 50.22888 
" clip-path="url(#p087d4df2b4)" style="fill: none; stroke: #d62728; stroke-width: 0.7; stroke-linecap: square"/>
    <defs>
     <path id="ma22a09e5b2" d="M 0 0.9 
C 0.238683 0.9 0.467622 0.80517 0.636396 0.636396 
C 0.80517 0.467622 0.9 0.238683 0.9 0 
C 0.9 -0.238683 0.80517 -0.467622 0.636396 -0.636396 
C 0.467622 -0.80517 0.238683 -0.9 0 -0.9 
C -0.238683 -0.9 -0.467622 -0.80517 -0.636396 -0.636396 
C -0.80517 -0.467622 -0.9 -0.238683 -0.9 0 
C -0.9 0.238683 -0.80517 0.467622 -0.636396 0.636396 
C -0.467622 0.80517 -0.238683 0.9 0 0.9 
z
" style="stroke: #d62728"/>
    </defs>
    <g clip-path="url(#p087d4df2b4)">
     <use xlink:href="#ma22a09e5b2" x="43.78125" y="183.947517" style="fill: #d62728; stroke: #d62728"/>
     <use xlink:href="#ma22a09e5b2" x="54.160769" y="175.567165" style="fill: #d62728; stroke: #d62728"/>
     <use xlink:href="#ma22a09e5b2" x="63.495697" y="169.70599" style="fill: #d62728; stroke: #d62728"/>
     <use xlink:href="#ma22a09e5b2" x="72.248031" y="164.180801" style="fill: #d62728; stroke: #d62728"/>
     <use xlink:href="#ma22a09e5b2" x="80.574762" y="159.740938" style="fill: #d62728; stroke: #d62728"/>
     <use xlink:href="#ma22a09e5b2" x="88.737618" y="154.715548" style="fill: #d62728; stroke: #d62728"/>
     <use xlink:href="#ma22a09e5b2" x="96.198353" y="149.970928" style="fill: #d62728; stroke: #d62728"/>
     <use xlink:href="#ma22a09e5b2" x="103.366726" y="146.625026" style="fill: #d62728; stroke: #d62728"/>
     <use xlink:href="#ma22a09e5b2" x="110.345427" y="141.786476" style="fill: #d62728; stroke: #d62728"/>
     <use xlink:href="#ma22a09e5b2" x="116.783365" y="137.64949" style="fill: #d62728; stroke: #d62728"/>
     <use xlink:href="#ma22a09e5b2" x="122.894467" y="133.802779" style="fill: #d62728; stroke: #d62728"/>
     <use xlink:href="#ma22a09e5b2" x="128.917464" y="130.722935" style="fill: #d62728; stroke: #d62728"/>
     <use xlink:href="#ma22a09e5b2" x="134.518887" y="127.016649" style="fill: #d62728; stroke: #d62728"/>
     <use xlink:href="#ma22a09e5b2" x="139.881608" y="123.864517" style="fill: #d62728; stroke: #d62728"/>
     <use xlink:href="#ma22a09e5b2" x="144.966128" y="120.712739" style="fill: #d62728; stroke: #d62728"/>
     <use xlink:href="#ma22a09e5b2" x="149.998485" y="117.603281" style="fill: #d62728; stroke: #d62728"/>
     <use xlink:href="#ma22a09e5b2" x="154.636563" y="115.222384" style="fill: #d62728; stroke: #d62728"/>
     <use xlink:href="#ma22a09e5b2" x="159.075981" y="111.459188" style="fill: #d62728; stroke: #d62728"/>
     <use xlink:href="#ma22a09e5b2" x="163.491535" y="109.393381" style="fill: #d62728; stroke: #d62728"/>
     <use xlink:href="#ma22a09e5b2" x="167.622796" y="106.987642" style="fill: #d62728; stroke: #d62728"/>
     <use xlink:href="#ma22a09e5b2" x="171.519618" y="104.424733" style="fill: #d62728; stroke: #d62728"/>
     <use xlink:href="#ma22a09e5b2" x="175.368456" y="102.211632" style="fill: #d62728; stroke: #d62728"/>
     <use xlink:href="#ma22a09e5b2" x="178.992786" y="100.038411" style="fill: #d62728; stroke: #d62728"/>
     <use xlink:href="#ma22a09e5b2" x="182.465283" y="98.508894" style="fill: #d62728; stroke: #d62728"/>
     <use xlink:href="#ma22a09e5b2" x="185.894669" y="96.348606" style="fill: #d62728; stroke: #d62728"/>
     <use xlink:href="#ma22a09e5b2" x="189.109014" y="94.168381" style="fill: #d62728; stroke: #d62728"/>
     <use xlink:href="#ma22a09e5b2" x="192.239171" y="92.886553" style="fill: #d62728; stroke: #d62728"/>
     <use xlink:href="#ma22a09e5b2" x="195.241245" y="90.721884" style="fill: #d62728; stroke: #d62728"/>
     <use xlink:href="#ma22a09e5b2" x="198.20296" y="89.403765" style="fill: #d62728; stroke: #d62728"/>
     <use xlink:href="#ma22a09e5b2" x="200.930156" y="86.917695" style="fill: #d62728; stroke: #d62728"/>
     <use xlink:href="#ma22a09e5b2" x="203.587727" y="86.235803" style="fill: #d62728; stroke: #d62728"/>
     <use xlink:href="#ma22a09e5b2" x="206.240363" y="83.994476" style="fill: #d62728; stroke: #d62728"/>
     <use xlink:href="#ma22a09e5b2" x="208.702703" y="82.367534" style="fill: #d62728; stroke: #d62728"/>
     <use xlink:href="#ma22a09e5b2" x="211.096599" y="81.898845" style="fill: #d62728; stroke: #d62728"/>
     <use xlink:href="#ma22a09e5b2" x="213.483295" y="79.731428" style="fill: #d62728; stroke: #d62728"/>
     <use xlink:href="#ma22a09e5b2" x="215.715745" y="78.6414" style="fill: #d62728; stroke: #d62728"/>
     <use xlink:href="#ma22a09e5b2" x="217.847076" y="76.923292" style="fill: #d62728; stroke: #d62728"/>
     <use xlink:href="#ma22a09e5b2" x="219.902813" y="75.693283" style="fill: #d62728; stroke: #d62728"/>
     <use xlink:href="#ma22a09e5b2" x="221.958475" y="73.877927" style="fill: #d62728; stroke: #d62728"/>
     <use xlink:href="#ma22a09e5b2" x="223.898122" y="73.899439" style="fill: #d62728; stroke: #d62728"/>
     <use xlink:href="#ma22a09e5b2" x="225.754448" y="71.930524" style="fill: #d62728; stroke: #d62728"/>
     <use xlink:href="#ma22a09e5b2" x="227.631657" y="71.294799" style="fill: #d62728; stroke: #d62728"/>
     <use xlink:href="#ma22a09e5b2" x="229.412416" y="69.552802" style="fill: #d62728; stroke: #d62728"/>
     <use xlink:href="#ma22a09e5b2" x="231.098455" y="69.145794" style="fill: #d62728; stroke: #d62728"/>
     <use xlink:href="#ma22a09e5b2" x="232.783886" y="68.16119" style="fill: #d62728; stroke: #d62728"/>
     <use xlink:href="#ma22a09e5b2" x="234.355364" y="67.159027" style="fill: #d62728; stroke: #d62728"/>
     <use xlink:href="#ma22a09e5b2" x="235.910957" y="66.931881" style="fill: #d62728; stroke: #d62728"/>
     <use xlink:href="#ma22a09e5b2" x="237.400423" y="64.781543" style="fill: #d62728; stroke: #d62728"/>
     <use xlink:href="#ma22a09e5b2" x="238.851792" y="64.553654" style="fill: #d62728; stroke: #d62728"/>
     <use xlink:href="#ma22a09e5b2" x="240.233447" y="63.210475" style="fill: #d62728; stroke: #d62728"/>
     <use xlink:href="#ma22a09e5b2" x="241.566026" y="62.520694" style="fill: #d62728; stroke: #d62728"/>
     <use xlink:href="#ma22a09e5b2" x="242.933047" y="61.954667" style="fill: #d62728; stroke: #d62728"/>
     <use xlink:href="#ma22a09e5b2" x="244.211575" y="61.102803" style="fill: #d62728; stroke: #d62728"/>
     <use xlink:href="#ma22a09e5b2" x="245.432037" y="60.367648" style="fill: #d62728; stroke: #d62728"/>
     <use xlink:href="#ma22a09e5b2" x="246.643306" y="59.314211" style="fill: #d62728; stroke: #d62728"/>
     <use xlink:href="#ma22a09e5b2" x="247.766926" y="58.277699" style="fill: #d62728; stroke: #d62728"/>
     <use xlink:href="#ma22a09e5b2" x="248.880406" y="57.87414" style="fill: #d62728; stroke: #d62728"/>
     <use xlink:href="#ma22a09e5b2" x="249.989633" y="57.950545" style="fill: #d62728; stroke: #d62728"/>
     <use xlink:href="#ma22a09e5b2" x="251.036324" y="57.039931" style="fill: #d62728; stroke: #d62728"/>
     <use xlink:href="#ma22a09e5b2" x="252.061537" y="56.41689" style="fill: #d62728; stroke: #d62728"/>
     <use xlink:href="#ma22a09e5b2" x="253.053222" y="55.686857" style="fill: #d62728; stroke: #d62728"/>
     <use xlink:href="#ma22a09e5b2" x="254.049788" y="54.953656" style="fill: #d62728; stroke: #d62728"/>
     <use xlink:href="#ma22a09e5b2" x="254.976976" y="54.130199" style="fill: #d62728; stroke: #d62728"/>
     <use xlink:href="#ma22a09e5b2" x="255.867772" y="53.781706" style="fill: #d62728; stroke: #d62728"/>
     <use xlink:href="#ma22a09e5b2" x="256.766155" y="53.220899" style="fill: #d62728; stroke: #d62728"/>
     <use xlink:href="#ma22a09e5b2" x="257.590361" y="52.774603" style="fill: #d62728; stroke: #d62728"/>
     <use xlink:href="#ma22a09e5b2" x="258.415196" y="52.780496" style="fill: #d62728; stroke: #d62728"/>
     <use xlink:href="#ma22a09e5b2" x="259.256596" y="52.123669" style="fill: #d62728; stroke: #d62728"/>
     <use xlink:href="#ma22a09e5b2" x="260.042572" y="51.660637" style="fill: #d62728; stroke: #d62728"/>
     <use xlink:href="#ma22a09e5b2" x="260.780221" y="50.792487" style="fill: #d62728; stroke: #d62728"/>
     <use xlink:href="#ma22a09e5b2" x="261.500508" y="50.692958" style="fill: #d62728; stroke: #d62728"/>
     <use xlink:href="#ma22a09e5b2" x="262.247917" y="50.22888" style="fill: #d62728; stroke: #d62728"/>
    </g>
   </g>
   <g id="line2d_15">
    <path d="M 43.78125 183.71355 
L 45.987984 182.361863 
L 48.194718 181.010177 
L 50.401452 179.658491 
L 52.608186 178.306804 
L 54.81492 176.955118 
L 57.021654 175.603432 
L 59.228388 174.251746 
L 61.435122 172.900059 
L 63.641856 171.548373 
L 65.84859 170.196687 
L 68.055324 168.845 
L 70.262058 167.493314 
L 72.468792 166.141628 
L 74.675526 164.789942 
L 76.88226 163.438255 
L 79.088994 162.086569 
L 81.295728 160.734883 
L 83.502462 159.383197 
L 85.709196 158.03151 
L 87.91593 156.679824 
L 90.122664 155.328138 
L 92.329398 153.976451 
L 94.536132 152.624765 
L 96.742866 151.273079 
L 98.9496 149.921393 
L 101.156334 148.569706 
L 103.363068 147.21802 
L 105.569802 145.866334 
L 107.776536 144.514647 
L 109.98327 143.162961 
L 112.190004 141.811275 
L 114.396738 140.459589 
L 116.603472 139.107902 
L 118.810206 137.756216 
L 121.01694 136.40453 
L 123.223674 135.052844 
L 125.430408 133.701157 
L 127.637142 132.349471 
L 129.843876 130.997785 
L 132.05061 129.646098 
L 134.257344 128.294412 
L 136.464078 126.942726 
L 138.670812 125.59104 
L 140.877546 124.239353 
L 143.08428 122.887667 
L 145.291014 121.535981 
L 147.497748 120.184294 
L 149.704482 118.832608 
L 151.911216 117.480922 
L 154.11795 116.129236 
L 156.324684 114.777549 
L 158.531418 113.425863 
L 160.738152 112.074177 
L 162.944886 110.72249 
L 165.15162 109.370804 
L 167.358354 108.019118 
L 169.565088 106.667432 
L 171.771822 105.315745 
L 173.978556 103.964059 
L 176.18529 102.612373 
L 178.392024 101.260687 
L 180.598758 99.909 
L 182.805492 98.557314 
L 185.012226 97.205628 
L 187.21896 95.853941 
L 189.425694 94.502255 
L 191.632428 93.150569 
L 193.839162 91.798883 
L 196.045896 90.447196 
L 198.25263 89.09551 
L 200.459364 87.743824 
L 202.666098 86.392137 
L 204.872832 85.040451 
L 207.079566 83.688765 
L 209.286301 82.337079 
L 211.493035 80.985392 
L 213.699769 79.633706 
L 215.906503 78.28202 
L 218.113237 76.930334 
L 220.319971 75.578647 
L 222.526705 74.226961 
L 224.733439 72.875275 
L 226.940173 71.523588 
L 229.146907 70.171902 
L 231.353641 68.820216 
L 233.560375 67.46853 
L 235.767109 66.116843 
L 237.973843 64.765157 
L 240.180577 63.413471 
L 242.387311 62.061784 
L 244.594045 60.710098 
L 246.800779 59.358412 
L 249.007513 58.006726 
L 251.214247 56.655039 
L 253.420981 55.303353 
L 255.627715 53.951667 
L 257.834449 52.599981 
L 260.041183 51.248294 
L 262.247917 49.896608 
" clip-path="url(#p087d4df2b4)" style="fill: none; stroke-dasharray: 1.5,2.475; stroke-dashoffset: 0; stroke: #000000; stroke-width: 1.5"/>
   </g>
   <g id="patch_3">
    <path d="M 43.78125 190.650062 
L 43.78125 43.194062 
" style="fill: none; stroke: #000000; stroke-width: 0.8; stroke-linejoin: miter; stroke-linecap: square"/>
   </g>
   <g id="patch_4">
    <path d="M 273.17125 190.650062 
L 273.17125 43.194062 
" style="fill: none; stroke: #000000; stroke-width: 0.8; stroke-linejoin: miter; stroke-linecap: square"/>
   </g>
   <g id="patch_5">
    <path d="M 43.78125 190.650062 
L 273.17125 190.650062 
" style="fill: none; stroke: #000000; stroke-width: 0.8; stroke-linejoin: miter; stroke-linecap: square"/>
   </g>
   <g id="patch_6">
    <path d="M 43.78125 43.194062 
L 273.17125 43.194062 
" style="fill: none; stroke: #000000; stroke-width: 0.8; stroke-linejoin: miter; stroke-linecap: square"/>
   </g>
   <g id="text_14">
    <!--  -->
    <g transform="translate(158.47625 14.798437) scale(0.1 -0.1)"/>
    <!-- GOF (RMSE): 0.00232 -->
    <g transform="translate(104.227813 25.99625) scale(0.1 -0.1)">
     <defs>
      <path id="DejaVuSans-47" d="M 3809 666 
L 3809 1919 
L 2778 1919 
L 2778 2438 
L 4434 2438 
L 4434 434 
Q 4069 175 3628 42 
Q 3188 -91 2688 -91 
Q 1594 -91 976 548 
Q 359 1188 359 2328 
Q 359 3472 976 4111 
Q 1594 4750 2688 4750 
Q 3144 4750 3555 4637 
Q 3966 4525 4313 4306 
L 4313 3634 
Q 3963 3931 3569 4081 
Q 3175 4231 2741 4231 
Q 1884 4231 1454 3753 
Q 1025 3275 1025 2328 
Q 1025 1384 1454 906 
Q 1884 428 2741 428 
Q 3075 428 3337 486 
Q 3600 544 3809 666 
z
" transform="scale(0.015625)"/>
      <path id="DejaVuSans-4f" d="M 2522 4238 
Q 1834 4238 1429 3725 
Q 1025 3213 1025 2328 
Q 1025 1447 1429 934 
Q 1834 422 2522 422 
Q 3209 422 3611 934 
Q 4013 1447 4013 2328 
Q 4013 3213 3611 3725 
Q 3209 4238 2522 4238 
z
M 2522 4750 
Q 3503 4750 4090 4092 
Q 4678 3434 4678 2328 
Q 4678 1225 4090 567 
Q 3503 -91 2522 -91 
Q 1538 -91 948 565 
Q 359 1222 359 2328 
Q 359 3434 948 4092 
Q 1538 4750 2522 4750 
z
" transform="scale(0.015625)"/>
      <path id="DejaVuSans-46" d="M 628 4666 
L 3309 4666 
L 3309 4134 
L 1259 4134 
L 1259 2759 
L 3109 2759 
L 3109 2228 
L 1259 2228 
L 1259 0 
L 628 0 
L 628 4666 
z
" transform="scale(0.015625)"/>
      <path id="DejaVuSans-28" d="M 1984 4856 
Q 1566 4138 1362 3434 
Q 1159 2731 1159 2009 
Q 1159 1288 1364 580 
Q 1569 -128 1984 -844 
L 1484 -844 
Q 1016 -109 783 600 
Q 550 1309 550 2009 
Q 550 2706 781 3412 
Q 1013 4119 1484 4856 
L 1984 4856 
z
" transform="scale(0.015625)"/>
      <path id="DejaVuSans-52" d="M 2841 2188 
Q 3044 2119 3236 1894 
Q 3428 1669 3622 1275 
L 4263 0 
L 3584 0 
L 2988 1197 
Q 2756 1666 2539 1819 
Q 2322 1972 1947 1972 
L 1259 1972 
L 1259 0 
L 628 0 
L 628 4666 
L 2053 4666 
Q 2853 4666 3247 4331 
Q 3641 3997 3641 3322 
Q 3641 2881 3436 2590 
Q 3231 2300 2841 2188 
z
M 1259 4147 
L 1259 2491 
L 2053 2491 
Q 2509 2491 2742 2702 
Q 2975 2913 2975 3322 
Q 2975 3731 2742 3939 
Q 2509 4147 2053 4147 
L 1259 4147 
z
" transform="scale(0.015625)"/>
      <path id="DejaVuSans-4d" d="M 628 4666 
L 1569 4666 
L 2759 1491 
L 3956 4666 
L 4897 4666 
L 4897 0 
L 4281 0 
L 4281 4097 
L 3078 897 
L 2444 897 
L 1241 4097 
L 1241 0 
L 628 0 
L 628 4666 
z
" transform="scale(0.015625)"/>
      <path id="DejaVuSans-45" d="M 628 4666 
L 3578 4666 
L 3578 4134 
L 1259 4134 
L 1259 2753 
L 3481 2753 
L 3481 2222 
L 1259 2222 
L 1259 531 
L 3634 531 
L 3634 0 
L 628 0 
L 628 4666 
z
" transform="scale(0.015625)"/>
      <path id="DejaVuSans-29" d="M 513 4856 
L 1013 4856 
Q 1481 4119 1714 3412 
Q 1947 2706 1947 2009 
Q 1947 1309 1714 600 
Q 1481 -109 1013 -844 
L 513 -844 
Q 928 -128 1133 580 
Q 1338 1288 1338 2009 
Q 1338 2731 1133 3434 
Q 928 4138 513 4856 
z
" transform="scale(0.015625)"/>
      <path id="DejaVuSans-3a" d="M 750 794 
L 1409 794 
L 1409 0 
L 750 0 
L 750 794 
z
M 750 3309 
L 1409 3309 
L 1409 2516 
L 750 2516 
L 750 3309 
z
" transform="scale(0.015625)"/>
      <path id="DejaVuSans-33" d="M 2597 2516 
Q 3050 2419 3304 2112 
Q 3559 1806 3559 1356 
Q 3559 666 3084 287 
Q 2609 -91 1734 -91 
Q 1441 -91 1130 -33 
Q 819 25 488 141 
L 488 750 
Q 750 597 1062 519 
Q 1375 441 1716 441 
Q 2309 441 2620 675 
Q 2931 909 2931 1356 
Q 2931 1769 2642 2001 
Q 2353 2234 1838 2234 
L 1294 2234 
L 1294 2753 
L 1863 2753 
Q 2328 2753 2575 2939 
Q 2822 3125 2822 3475 
Q 2822 3834 2567 4026 
Q 2313 4219 1838 4219 
Q 1578 4219 1281 4162 
Q 984 4106 628 3988 
L 628 4550 
Q 988 4650 1302 4700 
Q 1616 4750 1894 4750 
Q 2613 4750 3031 4423 
Q 3450 4097 3450 3541 
Q 3450 3153 3228 2886 
Q 3006 2619 2597 2516 
z
" transform="scale(0.015625)"/>
     </defs>
     <use xlink:href="#DejaVuSans-47"/>
     <use xlink:href="#DejaVuSans-4f" transform="translate(77.490234 0)"/>
     <use xlink:href="#DejaVuSans-46" transform="translate(156.201172 0)"/>
     <use xlink:href="#DejaVuSans-20" transform="translate(213.720703 0)"/>
     <use xlink:href="#DejaVuSans-28" transform="translate(245.507812 0)"/>
     <use xlink:href="#DejaVuSans-52" transform="translate(284.521484 0)"/>
     <use xlink:href="#DejaVuSans-4d" transform="translate(354.003906 0)"/>
     <use xlink:href="#DejaVuSans-53" transform="translate(440.283203 0)"/>
     <use xlink:href="#DejaVuSans-45" transform="translate(503.759766 0)"/>
     <use xlink:href="#DejaVuSans-29" transform="translate(566.943359 0)"/>
     <use xlink:href="#DejaVuSans-3a" transform="translate(605.957031 0)"/>
     <use xlink:href="#DejaVuSans-20" transform="translate(639.648438 0)"/>
     <use xlink:href="#DejaVuSans-30" transform="translate(671.435547 0)"/>
     <use xlink:href="#DejaVuSans-2e" transform="translate(735.058594 0)"/>
     <use xlink:href="#DejaVuSans-30" transform="translate(766.845703 0)"/>
     <use xlink:href="#DejaVuSans-30" transform="translate(830.46875 0)"/>
     <use xlink:href="#DejaVuSans-32" transform="translate(894.091797 0)"/>
     <use xlink:href="#DejaVuSans-33" transform="translate(957.714844 0)"/>
     <use xlink:href="#DejaVuSans-32" transform="translate(1021.337891 0)"/>
    </g>
    <!-- Slope (non-scaled tT and y): 3.308e-04 ± 5.0e-07 -->
    <g transform="translate(34.312969 37.194062) scale(0.1 -0.1)">
     <defs>
      <path id="DejaVuSans-70" d="M 1159 525 
L 1159 -1331 
L 581 -1331 
L 581 3500 
L 1159 3500 
L 1159 2969 
Q 1341 3281 1617 3432 
Q 1894 3584 2278 3584 
Q 2916 3584 3314 3078 
Q 3713 2572 3713 1747 
Q 3713 922 3314 415 
Q 2916 -91 2278 -91 
Q 1894 -91 1617 61 
Q 1341 213 1159 525 
z
M 3116 1747 
Q 3116 2381 2855 2742 
Q 2594 3103 2138 3103 
Q 1681 3103 1420 2742 
Q 1159 2381 1159 1747 
Q 1159 1113 1420 752 
Q 1681 391 2138 391 
Q 2594 391 2855 752 
Q 3116 1113 3116 1747 
z
" transform="scale(0.015625)"/>
      <path id="DejaVuSans-6e" d="M 3513 2113 
L 3513 0 
L 2938 0 
L 2938 2094 
Q 2938 2591 2744 2837 
Q 2550 3084 2163 3084 
Q 1697 3084 1428 2787 
Q 1159 2491 1159 1978 
L 1159 0 
L 581 0 
L 581 3500 
L 1159 3500 
L 1159 2956 
Q 1366 3272 1645 3428 
Q 1925 3584 2291 3584 
Q 2894 3584 3203 3211 
Q 3513 2838 3513 2113 
z
" transform="scale(0.015625)"/>
      <path id="DejaVuSans-2d" d="M 313 2009 
L 1997 2009 
L 1997 1497 
L 313 1497 
L 313 2009 
z
" transform="scale(0.015625)"/>
      <path id="DejaVuSans-73" d="M 2834 3397 
L 2834 2853 
Q 2591 2978 2328 3040 
Q 2066 3103 1784 3103 
Q 1356 3103 1142 2972 
Q 928 2841 928 2578 
Q 928 2378 1081 2264 
Q 1234 2150 1697 2047 
L 1894 2003 
Q 2506 1872 2764 1633 
Q 3022 1394 3022 966 
Q 3022 478 2636 193 
Q 2250 -91 1575 -91 
Q 1294 -91 989 -36 
Q 684 19 347 128 
L 347 722 
Q 666 556 975 473 
Q 1284 391 1588 391 
Q 1994 391 2212 530 
Q 2431 669 2431 922 
Q 2431 1156 2273 1281 
Q 2116 1406 1581 1522 
L 1381 1569 
Q 847 1681 609 1914 
Q 372 2147 372 2553 
Q 372 3047 722 3315 
Q 1072 3584 1716 3584 
Q 2034 3584 2315 3537 
Q 2597 3491 2834 3397 
z
" transform="scale(0.015625)"/>
      <path id="DejaVuSans-54" d="M -19 4666 
L 3928 4666 
L 3928 4134 
L 2272 4134 
L 2272 0 
L 1638 0 
L 1638 4134 
L -19 4134 
L -19 4666 
z
" transform="scale(0.015625)"/>
      <path id="DejaVuSans-79" d="M 2059 -325 
Q 1816 -950 1584 -1140 
Q 1353 -1331 966 -1331 
L 506 -1331 
L 506 -850 
L 844 -850 
Q 1081 -850 1212 -737 
Q 1344 -625 1503 -206 
L 1606 56 
L 191 3500 
L 800 3500 
L 1894 763 
L 2988 3500 
L 3597 3500 
L 2059 -325 
z
" transform="scale(0.015625)"/>
      <path id="DejaVuSans-b1" d="M 2944 4013 
L 2944 2803 
L 4684 2803 
L 4684 2272 
L 2944 2272 
L 2944 1063 
L 2419 1063 
L 2419 2272 
L 678 2272 
L 678 2803 
L 2419 2803 
L 2419 4013 
L 2944 4013 
z
M 678 531 
L 4684 531 
L 4684 0 
L 678 0 
L 678 531 
z
" transform="scale(0.015625)"/>
      <path id="DejaVuSans-37" d="M 525 4666 
L 3525 4666 
L 3525 4397 
L 1831 0 
L 1172 0 
L 2766 4134 
L 525 4134 
L 525 4666 
z
" transform="scale(0.015625)"/>
     </defs>
     <use xlink:href="#DejaVuSans-53"/>
     <use xlink:href="#DejaVuSans-6c" transform="translate(63.476562 0)"/>
     <use xlink:href="#DejaVuSans-6f" transform="translate(91.259766 0)"/>
     <use xlink:href="#DejaVuSans-70" transform="translate(152.441406 0)"/>
     <use xlink:href="#DejaVuSans-65" transform="translate(215.917969 0)"/>
     <use xlink:href="#DejaVuSans-20" transform="translate(277.441406 0)"/>
     <use xlink:href="#DejaVuSans-28" transform="translate(309.228516 0)"/>
     <use xlink:href="#DejaVuSans-6e" transform="translate(348.242188 0)"/>
     <use xlink:href="#DejaVuSans-6f" transform="translate(411.621094 0)"/>
     <use xlink:href="#DejaVuSans-6e" transform="translate(472.802734 0)"/>
     <use xlink:href="#DejaVuSans-2d" transform="translate(536.181641 0)"/>
     <use xlink:href="#DejaVuSans-73" transform="translate(572.265625 0)"/>
     <use xlink:href="#DejaVuSans-63" transform="translate(624.365234 0)"/>
     <use xlink:href="#DejaVuSans-61" transform="translate(679.345703 0)"/>
     <use xlink:href="#DejaVuSans-6c" transform="translate(740.625 0)"/>
     <use xlink:href="#DejaVuSans-65" transform="translate(768.408203 0)"/>
     <use xlink:href="#DejaVuSans-64" transform="translate(829.931641 0)"/>
     <use xlink:href="#DejaVuSans-20" transform="translate(893.408203 0)"/>
     <use xlink:href="#DejaVuSans-74" transform="translate(925.195312 0)"/>
     <use xlink:href="#DejaVuSans-54" transform="translate(964.404297 0)"/>
     <use xlink:href="#DejaVuSans-20" transform="translate(1025.488281 0)"/>
     <use xlink:href="#DejaVuSans-61" transform="translate(1057.275391 0)"/>
     <use xlink:href="#DejaVuSans-6e" transform="translate(1118.554688 0)"/>
     <use xlink:href="#DejaVuSans-64" transform="translate(1181.933594 0)"/>
     <use xlink:href="#DejaVuSans-20" transform="translate(1245.410156 0)"/>
     <use xlink:href="#DejaVuSans-79" transform="translate(1277.197266 0)"/>
     <use xlink:href="#DejaVuSans-29" transform="translate(1336.376953 0)"/>
     <use xlink:href="#DejaVuSans-3a" transform="translate(1375.390625 0)"/>
     <use xlink:href="#DejaVuSans-20" transform="translate(1409.082031 0)"/>
     <use xlink:href="#DejaVuSans-33" transform="translate(1440.869141 0)"/>
     <use xlink:href="#DejaVuSans-2e" transform="translate(1504.492188 0)"/>
     <use xlink:href="#DejaVuSans-33" transform="translate(1536.279297 0)"/>
     <use xlink:href="#DejaVuSans-30" transform="translate(1599.902344 0)"/>
     <use xlink:href="#DejaVuSans-38" transform="translate(1663.525391 0)"/>
     <use xlink:href="#DejaVuSans-65" transform="translate(1727.148438 0)"/>
     <use xlink:href="#DejaVuSans-2d" transform="translate(1788.671875 0)"/>
     <use xlink:href="#DejaVuSans-30" transform="translate(1824.755859 0)"/>
     <use xlink:href="#DejaVuSans-34" transform="translate(1888.378906 0)"/>
     <use xlink:href="#DejaVuSans-20" transform="translate(1952.001953 0)"/>
     <use xlink:href="#DejaVuSans-b1" transform="translate(1983.789062 0)"/>
     <use xlink:href="#DejaVuSans-20" transform="translate(2067.578125 0)"/>
     <use xlink:href="#DejaVuSans-35" transform="translate(2099.365234 0)"/>
     <use xlink:href="#DejaVuSans-2e" transform="translate(2162.988281 0)"/>
     <use xlink:href="#DejaVuSans-30" transform="translate(2194.775391 0)"/>
     <use xlink:href="#DejaVuSans-65" transform="translate(2258.398438 0)"/>
     <use xlink:href="#DejaVuSans-2d" transform="translate(2319.921875 0)"/>
     <use xlink:href="#DejaVuSans-30" transform="translate(2356.005859 0)"/>
     <use xlink:href="#DejaVuSans-37" transform="translate(2419.628906 0)"/>
    </g>
   </g>
   <g id="legend_1">
    <g id="patch_7">
     <path d="M 50.78125 109.906562 
L 133.617188 109.906562 
Q 135.617188 109.906562 135.617188 107.906562 
L 135.617188 50.194062 
Q 135.617188 48.194062 133.617188 48.194062 
L 50.78125 48.194062 
Q 48.78125 48.194062 48.78125 50.194062 
L 48.78125 107.906562 
Q 48.78125 109.906562 50.78125 109.906562 
z
" style="fill: #ffffff; opacity: 0.8; stroke: #cccccc; stroke-linejoin: miter"/>
    </g>
    <g id="line2d_16">
     <path d="M 52.78125 56.2925 
L 62.78125 56.2925 
L 72.78125 56.2925 
" style="fill: none; stroke: #1f77b4; stroke-width: 0.7; stroke-linecap: square"/>
     <g>
      <use xlink:href="#m53cef2a0fc" x="62.78125" y="56.2925" style="fill: #1f77b4; stroke: #1f77b4"/>
     </g>
    </g>
    <g id="text_15">
     <!-- Addition 1 -->
     <g transform="translate(80.78125 59.7925) scale(0.1 -0.1)">
      <defs>
       <path id="DejaVuSans-41" d="M 2188 4044 
L 1331 1722 
L 3047 1722 
L 2188 4044 
z
M 1831 4666 
L 2547 4666 
L 4325 0 
L 3669 0 
L 3244 1197 
L 1141 1197 
L 716 0 
L 50 0 
L 1831 4666 
z
" transform="scale(0.015625)"/>
      </defs>
      <use xlink:href="#DejaVuSans-41"/>
      <use xlink:href="#DejaVuSans-64" transform="translate(66.658203 0)"/>
      <use xlink:href="#DejaVuSans-64" transform="translate(130.134766 0)"/>
      <use xlink:href="#DejaVuSans-69" transform="translate(193.611328 0)"/>
      <use xlink:href="#DejaVuSans-74" transform="translate(221.394531 0)"/>
      <use xlink:href="#DejaVuSans-69" transform="translate(260.603516 0)"/>
      <use xlink:href="#DejaVuSans-6f" transform="translate(288.386719 0)"/>
      <use xlink:href="#DejaVuSans-6e" transform="translate(349.568359 0)"/>
      <use xlink:href="#DejaVuSans-20" transform="translate(412.947266 0)"/>
      <use xlink:href="#DejaVuSans-31" transform="translate(444.734375 0)"/>
     </g>
    </g>
    <g id="line2d_17">
     <path d="M 52.78125 70.970625 
L 62.78125 70.970625 
L 72.78125 70.970625 
" style="fill: none; stroke: #ff7f0e; stroke-width: 0.7; stroke-linecap: square"/>
     <g>
      <use xlink:href="#mb96a2ddcec" x="62.78125" y="70.970625" style="fill: #ff7f0e; stroke: #ff7f0e"/>
     </g>
    </g>
    <g id="text_16">
     <!-- Addition 2 -->
     <g transform="translate(80.78125 74.470625) scale(0.1 -0.1)">
      <use xlink:href="#DejaVuSans-41"/>
      <use xlink:href="#DejaVuSans-64" transform="translate(66.658203 0)"/>
      <use xlink:href="#DejaVuSans-64" transform="translate(130.134766 0)"/>
      <use xlink:href="#DejaVuSans-69" transform="translate(193.611328 0)"/>
      <use xlink:href="#DejaVuSans-74" transform="translate(221.394531 0)"/>
      <use xlink:href="#DejaVuSans-69" transform="translate(260.603516 0)"/>
      <use xlink:href="#DejaVuSans-6f" transform="translate(288.386719 0)"/>
      <use xlink:href="#DejaVuSans-6e" transform="translate(349.568359 0)"/>
      <use xlink:href="#DejaVuSans-20" transform="translate(412.947266 0)"/>
      <use xlink:href="#DejaVuSans-32" transform="translate(444.734375 0)"/>
     </g>
    </g>
    <g id="line2d_18">
     <path d="M 52.78125 85.64875 
L 62.78125 85.64875 
L 72.78125 85.64875 
" style="fill: none; stroke: #2ca02c; stroke-width: 0.7; stroke-linecap: square"/>
     <g>
      <use xlink:href="#mc422878898" x="62.78125" y="85.64875" style="fill: #2ca02c; stroke: #2ca02c"/>
     </g>
    </g>
    <g id="text_17">
     <!-- Addition 3 -->
     <g transform="translate(80.78125 89.14875) scale(0.1 -0.1)">
      <use xlink:href="#DejaVuSans-41"/>
      <use xlink:href="#DejaVuSans-64" transform="translate(66.658203 0)"/>
      <use xlink:href="#DejaVuSans-64" transform="translate(130.134766 0)"/>
      <use xlink:href="#DejaVuSans-69" transform="translate(193.611328 0)"/>
      <use xlink:href="#DejaVuSans-74" transform="translate(221.394531 0)"/>
      <use xlink:href="#DejaVuSans-69" transform="translate(260.603516 0)"/>
      <use xlink:href="#DejaVuSans-6f" transform="translate(288.386719 0)"/>
      <use xlink:href="#DejaVuSans-6e" transform="translate(349.568359 0)"/>
      <use xlink:href="#DejaVuSans-20" transform="translate(412.947266 0)"/>
      <use xlink:href="#DejaVuSans-33" transform="translate(444.734375 0)"/>
     </g>
    </g>
    <g id="line2d_19">
     <path d="M 52.78125 100.326875 
L 62.78125 100.326875 
L 72.78125 100.326875 
" style="fill: none; stroke: #d62728; stroke-width: 0.7; stroke-linecap: square"/>
     <g>
      <use xlink:href="#ma22a09e5b2" x="62.78125" y="100.326875" style="fill: #d62728; stroke: #d62728"/>
     </g>
    </g>
    <g id="text_18">
     <!-- Addition 4 -->
     <g transform="translate(80.78125 103.826875) scale(0.1 -0.1)">
      <use xlink:href="#DejaVuSans-41"/>
      <use xlink:href="#DejaVuSans-64" transform="translate(66.658203 0)"/>
      <use xlink:href="#DejaVuSans-64" transform="translate(130.134766 0)"/>
      <use xlink:href="#DejaVuSans-69" transform="translate(193.611328 0)"/>
      <use xlink:href="#DejaVuSans-74" transform="translate(221.394531 0)"/>
      <use xlink:href="#DejaVuSans-69" transform="translate(260.603516 0)"/>
      <use xlink:href="#DejaVuSans-6f" transform="translate(288.386719 0)"/>
      <use xlink:href="#DejaVuSans-6e" transform="translate(349.568359 0)"/>
      <use xlink:href="#DejaVuSans-20" transform="translate(412.947266 0)"/>
      <use xlink:href="#DejaVuSans-34" transform="translate(444.734375 0)"/>
     </g>
    </g>
   </g>
   <g id="legend_2">
    <g id="patch_8">
     <path d="M 108.255156 185.650062 
L 208.697344 185.650062 
Q 210.697344 185.650062 210.697344 183.650062 
L 210.697344 158.774125 
Q 210.697344 156.774125 208.697344 156.774125 
L 108.255156 156.774125 
Q 106.255156 156.774125 106.255156 158.774125 
L 106.255156 183.650062 
Q 106.255156 185.650062 108.255156 185.650062 
z
" style="fill: #ffffff; opacity: 0.8; stroke: #cccccc; stroke-linejoin: miter"/>
    </g>
    <g id="line2d_20">
     <path d="M 110.255156 171.511312 
L 120.255156 171.511312 
L 130.255156 171.511312 
" style="fill: none; stroke-dasharray: 1.5,2.475; stroke-dashoffset: 0; stroke: #000000; stroke-width: 1.5"/>
    </g>
    <g id="text_19">
     <!-- 1. order -->
     <g transform="translate(138.255156 168.372562) scale(0.1 -0.1)">
      <use xlink:href="#DejaVuSans-31"/>
      <use xlink:href="#DejaVuSans-2e" transform="translate(63.623047 0)"/>
      <use xlink:href="#DejaVuSans-20" transform="translate(95.410156 0)"/>
      <use xlink:href="#DejaVuSans-6f" transform="translate(127.197266 0)"/>
      <use xlink:href="#DejaVuSans-72" transform="translate(188.378906 0)"/>
      <use xlink:href="#DejaVuSans-64" transform="translate(227.742188 0)"/>
      <use xlink:href="#DejaVuSans-65" transform="translate(291.21875 0)"/>
      <use xlink:href="#DejaVuSans-72" transform="translate(352.742188 0)"/>
     </g>
     <!-- polynomial fit -->
     <g transform="translate(138.255156 179.570375) scale(0.1 -0.1)">
      <defs>
       <path id="DejaVuSans-6d" d="M 3328 2828 
Q 3544 3216 3844 3400 
Q 4144 3584 4550 3584 
Q 5097 3584 5394 3201 
Q 5691 2819 5691 2113 
L 5691 0 
L 5113 0 
L 5113 2094 
Q 5113 2597 4934 2840 
Q 4756 3084 4391 3084 
Q 3944 3084 3684 2787 
Q 3425 2491 3425 1978 
L 3425 0 
L 2847 0 
L 2847 2094 
Q 2847 2600 2669 2842 
Q 2491 3084 2119 3084 
Q 1678 3084 1418 2786 
Q 1159 2488 1159 1978 
L 1159 0 
L 581 0 
L 581 3500 
L 1159 3500 
L 1159 2956 
Q 1356 3278 1631 3431 
Q 1906 3584 2284 3584 
Q 2666 3584 2933 3390 
Q 3200 3197 3328 2828 
z
" transform="scale(0.015625)"/>
      </defs>
      <use xlink:href="#DejaVuSans-70"/>
      <use xlink:href="#DejaVuSans-6f" transform="translate(63.476562 0)"/>
      <use xlink:href="#DejaVuSans-6c" transform="translate(124.658203 0)"/>
      <use xlink:href="#DejaVuSans-79" transform="translate(152.441406 0)"/>
      <use xlink:href="#DejaVuSans-6e" transform="translate(211.621094 0)"/>
      <use xlink:href="#DejaVuSans-6f" transform="translate(275 0)"/>
      <use xlink:href="#DejaVuSans-6d" transform="translate(336.181641 0)"/>
      <use xlink:href="#DejaVuSans-69" transform="translate(433.59375 0)"/>
      <use xlink:href="#DejaVuSans-61" transform="translate(461.376953 0)"/>
      <use xlink:href="#DejaVuSans-6c" transform="translate(522.65625 0)"/>
      <use xlink:href="#DejaVuSans-20" transform="translate(550.439453 0)"/>
      <use xlink:href="#DejaVuSans-66" transform="translate(582.226562 0)"/>
      <use xlink:href="#DejaVuSans-69" transform="translate(617.431641 0)"/>
      <use xlink:href="#DejaVuSans-74" transform="translate(645.214844 0)"/>
     </g>
    </g>
   </g>
  </g>
 </g>
 <defs>
  <clipPath id="p087d4df2b4">
   <rect x="43.78125" y="43.194062" width="229.39" height="147.456"/>
  </clipPath>
 </defs>
</svg>
