<?xml version="1.0" encoding="utf-8" standalone="no"?>
<!DOCTYPE svg PUBLIC "-//W3C//DTD SVG 1.1//EN"
  "http://www.w3.org/Graphics/SVG/1.1/DTD/svg11.dtd">
<svg xmlns:xlink="http://www.w3.org/1999/xlink" width="360.88905pt" height="199.946125pt" viewBox="0 0 360.88905 199.946125" xmlns="http://www.w3.org/2000/svg" version="1.1">
 <metadata>
  <rdf:RDF xmlns:dc="http://purl.org/dc/elements/1.1/" xmlns:cc="http://creativecommons.org/ns#" xmlns:rdf="http://www.w3.org/1999/02/22-rdf-syntax-ns#">
   <cc:Work>
    <dc:type rdf:resource="http://purl.org/dc/dcmitype/StillImage"/>
    <dc:date>2026-01-13T17:04:52.985792</dc:date>
    <dc:format>image/svg+xml</dc:format>
    <dc:creator>
     <cc:Agent>
      <dc:title>Matplotlib v3.10.0, https://matplotlib.org/</dc:title>
     </cc:Agent>
    </dc:creator>
   </cc:Work>
  </rdf:RDF>
 </metadata>
 <defs>
  <style type="text/css">*{stroke-linejoin: round; stroke-linecap: butt}</style>
 </defs>
 <g id="figure_1">
  <g id="patch_1">
   <path d="M -0 199.946125 
L 360.88905 199.946125 
L 360.88905 0 
L -0 0 
z
" style="fill: #ffffff"/>
  </g>
  <g id="axes_1">
   <g id="patch_2">
    <path d="M 46.965625 161.568 
L 261.853113 161.568 
L 261.853113 7.2 
L 46.965625 7.2 
z
" style="fill: #ffffff"/>
   </g>
   <g id="matplotlib.axis_1">
    <g id="xtick_1">
     <g id="line2d_1">
      <defs>
       <path id="m89e291abea" d="M 0 0 
L 0 3.5 
" style="stroke: #000000; stroke-width: 0.8"/>
      </defs>
      <g>
       <use xlink:href="#m89e291abea" x="46.965625" y="161.568" style="stroke: #000000; stroke-width: 0.8"/>
      </g>
     </g>
     <g id="text_1">
      <!-- 0 -->
      <g transform="translate(43.784375 176.166437) scale(0.1 -0.1)">
       <defs>
        <path id="DejaVuSans-30" d="M 2034 4250 
Q 1547 4250 1301 3770 
Q 1056 3291 1056 2328 
Q 1056 1369 1301 889 
Q 1547 409 2034 409 
Q 2525 409 2770 889 
Q 3016 1369 3016 2328 
Q 3016 3291 2770 3770 
Q 2525 4250 2034 4250 
z
M 2034 4750 
Q 2819 4750 3233 4129 
Q 3647 3509 3647 2328 
Q 3647 1150 3233 529 
Q 2819 -91 2034 -91 
Q 1250 -91 836 529 
Q 422 1150 422 2328 
Q 422 3509 836 4129 
Q 1250 4750 2034 4750 
z
" transform="scale(0.015625)"/>
       </defs>
       <use xlink:href="#DejaVuSans-30"/>
      </g>
     </g>
    </g>
    <g id="xtick_2">
     <g id="line2d_2">
      <g>
       <use xlink:href="#m89e291abea" x="102.495251" y="161.568" style="stroke: #000000; stroke-width: 0.8"/>
      </g>
     </g>
     <g id="text_2">
      <!-- 1 -->
      <g transform="translate(99.314001 176.166437) scale(0.1 -0.1)">
       <defs>
        <path id="DejaVuSans-31" d="M 794 531 
L 1825 531 
L 1825 4091 
L 703 3866 
L 703 4441 
L 1819 4666 
L 2450 4666 
L 2450 531 
L 3481 531 
L 3481 0 
L 794 0 
L 794 531 
z
" transform="scale(0.015625)"/>
       </defs>
       <use xlink:href="#DejaVuSans-31"/>
      </g>
     </g>
    </g>
    <g id="xtick_3">
     <g id="line2d_3">
      <g>
       <use xlink:href="#m89e291abea" x="158.024877" y="161.568" style="stroke: #000000; stroke-width: 0.8"/>
      </g>
     </g>
     <g id="text_3">
      <!-- 2 -->
      <g transform="translate(154.843627 176.166437) scale(0.1 -0.1)">
       <defs>
        <path id="DejaVuSans-32" d="M 1228 531 
L 3431 531 
L 3431 0 
L 469 0 
L 469 531 
Q 828 903 1448 1529 
Q 2069 2156 2228 2338 
Q 2531 2678 2651 2914 
Q 2772 3150 2772 3378 
Q 2772 3750 2511 3984 
Q 2250 4219 1831 4219 
Q 1534 4219 1204 4116 
Q 875 4013 500 3803 
L 500 4441 
Q 881 4594 1212 4672 
Q 1544 4750 1819 4750 
Q 2544 4750 2975 4387 
Q 3406 4025 3406 3419 
Q 3406 3131 3298 2873 
Q 3191 2616 2906 2266 
Q 2828 2175 2409 1742 
Q 1991 1309 1228 531 
z
" transform="scale(0.015625)"/>
       </defs>
       <use xlink:href="#DejaVuSans-32"/>
      </g>
     </g>
    </g>
    <g id="xtick_4">
     <g id="line2d_4">
      <g>
       <use xlink:href="#m89e291abea" x="213.554504" y="161.568" style="stroke: #000000; stroke-width: 0.8"/>
      </g>
     </g>
     <g id="text_4">
      <!-- 3 -->
      <g transform="translate(210.373254 176.166437) scale(0.1 -0.1)">
       <defs>
        <path id="DejaVuSans-33" d="M 2597 2516 
Q 3050 2419 3304 2112 
Q 3559 1806 3559 1356 
Q 3559 666 3084 287 
Q 2609 -91 1734 -91 
Q 1441 -91 1130 -33 
Q 819 25 488 141 
L 488 750 
Q 750 597 1062 519 
Q 1375 441 1716 441 
Q 2309 441 2620 675 
Q 2931 909 2931 1356 
Q 2931 1769 2642 2001 
Q 2353 2234 1838 2234 
L 1294 2234 
L 1294 2753 
L 1863 2753 
Q 2328 2753 2575 2939 
Q 2822 3125 2822 3475 
Q 2822 3834 2567 4026 
Q 2313 4219 1838 4219 
Q 1578 4219 1281 4162 
Q 984 4106 628 3988 
L 628 4550 
Q 988 4650 1302 4700 
Q 1616 4750 1894 4750 
Q 2613 4750 3031 4423 
Q 3450 4097 3450 3541 
Q 3450 3153 3228 2886 
Q 3006 2619 2597 2516 
z
" transform="scale(0.015625)"/>
       </defs>
       <use xlink:href="#DejaVuSans-33"/>
      </g>
     </g>
    </g>
    <g id="text_5">
     <!-- $Σ[Amine]^{1.18}[Phenol]^{0.12}[ArOPh]^{1.31}Δt$. -->
     <g transform="translate(60.209369 190.666437) scale(0.1 -0.1)">
      <defs>
       <path id="DejaVuSans-3a3" d="M 1353 531 
L 3634 531 
L 3634 0 
L 628 0 
L 628 531 
L 2125 2481 
L 628 4134 
L 628 4666 
L 3578 4666 
L 3578 4134 
L 1353 4134 
L 2850 2494 
L 1353 531 
z
" transform="scale(0.015625)"/>
       <path id="DejaVuSans-5b" d="M 550 4863 
L 1875 4863 
L 1875 4416 
L 1125 4416 
L 1125 -397 
L 1875 -397 
L 1875 -844 
L 550 -844 
L 550 4863 
z
" transform="scale(0.015625)"/>
       <path id="DejaVuSans-Oblique-41" d="M 2356 4666 
L 3072 4666 
L 3938 0 
L 3278 0 
L 3084 1197 
L 984 1197 
L 325 0 
L -341 0 
L 2356 4666 
z
M 2584 4044 
L 1275 1722 
L 2988 1722 
L 2584 4044 
z
" transform="scale(0.015625)"/>
       <path id="DejaVuSans-Oblique-6d" d="M 5747 2113 
L 5338 0 
L 4763 0 
L 5166 2094 
Q 5191 2228 5203 2325 
Q 5216 2422 5216 2491 
Q 5216 2772 5059 2928 
Q 4903 3084 4622 3084 
Q 4203 3084 3875 2770 
Q 3547 2456 3450 1953 
L 3066 0 
L 2491 0 
L 2900 2094 
Q 2925 2209 2937 2307 
Q 2950 2406 2950 2484 
Q 2950 2769 2794 2926 
Q 2638 3084 2363 3084 
Q 1938 3084 1609 2770 
Q 1281 2456 1184 1953 
L 800 0 
L 225 0 
L 909 3500 
L 1484 3500 
L 1375 2956 
Q 1609 3263 1923 3423 
Q 2238 3584 2597 3584 
Q 2978 3584 3223 3384 
Q 3469 3184 3519 2828 
Q 3781 3197 4126 3390 
Q 4472 3584 4856 3584 
Q 5306 3584 5551 3325 
Q 5797 3066 5797 2591 
Q 5797 2488 5784 2364 
Q 5772 2241 5747 2113 
z
" transform="scale(0.015625)"/>
       <path id="DejaVuSans-Oblique-69" d="M 1172 4863 
L 1747 4863 
L 1606 4134 
L 1031 4134 
L 1172 4863 
z
M 909 3500 
L 1484 3500 
L 800 0 
L 225 0 
L 909 3500 
z
" transform="scale(0.015625)"/>
       <path id="DejaVuSans-Oblique-6e" d="M 3566 2113 
L 3156 0 
L 2578 0 
L 2988 2091 
Q 3016 2238 3031 2350 
Q 3047 2463 3047 2528 
Q 3047 2791 2881 2937 
Q 2716 3084 2419 3084 
Q 1956 3084 1622 2776 
Q 1288 2469 1184 1941 
L 800 0 
L 225 0 
L 903 3500 
L 1478 3500 
L 1363 2950 
Q 1603 3253 1940 3418 
Q 2278 3584 2650 3584 
Q 3113 3584 3367 3334 
Q 3622 3084 3622 2631 
Q 3622 2519 3608 2391 
Q 3594 2263 3566 2113 
z
" transform="scale(0.015625)"/>
       <path id="DejaVuSans-Oblique-65" d="M 3078 2063 
Q 3088 2113 3092 2166 
Q 3097 2219 3097 2272 
Q 3097 2653 2873 2875 
Q 2650 3097 2266 3097 
Q 1838 3097 1509 2826 
Q 1181 2556 1013 2059 
L 3078 2063 
z
M 3578 1613 
L 903 1613 
Q 884 1494 878 1425 
Q 872 1356 872 1306 
Q 872 872 1139 634 
Q 1406 397 1894 397 
Q 2269 397 2603 481 
Q 2938 566 3225 728 
L 3116 159 
Q 2806 34 2476 -28 
Q 2147 -91 1806 -91 
Q 1078 -91 686 257 
Q 294 606 294 1247 
Q 294 1794 489 2264 
Q 684 2734 1063 3103 
Q 1306 3334 1642 3459 
Q 1978 3584 2356 3584 
Q 2950 3584 3301 3228 
Q 3653 2872 3653 2272 
Q 3653 2128 3634 1964 
Q 3616 1800 3578 1613 
z
" transform="scale(0.015625)"/>
       <path id="DejaVuSans-5d" d="M 1947 4863 
L 1947 -844 
L 622 -844 
L 622 -397 
L 1369 -397 
L 1369 4416 
L 622 4416 
L 622 4863 
L 1947 4863 
z
" transform="scale(0.015625)"/>
       <path id="DejaVuSans-2e" d="M 684 794 
L 1344 794 
L 1344 0 
L 684 0 
L 684 794 
z
" transform="scale(0.015625)"/>
       <path id="DejaVuSans-38" d="M 2034 2216 
Q 1584 2216 1326 1975 
Q 1069 1734 1069 1313 
Q 1069 891 1326 650 
Q 1584 409 2034 409 
Q 2484 409 2743 651 
Q 3003 894 3003 1313 
Q 3003 1734 2745 1975 
Q 2488 2216 2034 2216 
z
M 1403 2484 
Q 997 2584 770 2862 
Q 544 3141 544 3541 
Q 544 4100 942 4425 
Q 1341 4750 2034 4750 
Q 2731 4750 3128 4425 
Q 3525 4100 3525 3541 
Q 3525 3141 3298 2862 
Q 3072 2584 2669 2484 
Q 3125 2378 3379 2068 
Q 3634 1759 3634 1313 
Q 3634 634 3220 271 
Q 2806 -91 2034 -91 
Q 1263 -91 848 271 
Q 434 634 434 1313 
Q 434 1759 690 2068 
Q 947 2378 1403 2484 
z
M 1172 3481 
Q 1172 3119 1398 2916 
Q 1625 2713 2034 2713 
Q 2441 2713 2670 2916 
Q 2900 3119 2900 3481 
Q 2900 3844 2670 4047 
Q 2441 4250 2034 4250 
Q 1625 4250 1398 4047 
Q 1172 3844 1172 3481 
z
" transform="scale(0.015625)"/>
       <path id="DejaVuSans-Oblique-50" d="M 1081 4666 
L 2541 4666 
Q 3178 4666 3512 4369 
Q 3847 4072 3847 3500 
Q 3847 2731 3353 2303 
Q 2859 1875 1966 1875 
L 1172 1875 
L 806 0 
L 172 0 
L 1081 4666 
z
M 1613 4147 
L 1275 2394 
L 2069 2394 
Q 2606 2394 2893 2669 
Q 3181 2944 3181 3456 
Q 3181 3784 2986 3965 
Q 2791 4147 2438 4147 
L 1613 4147 
z
" transform="scale(0.015625)"/>
       <path id="DejaVuSans-Oblique-68" d="M 3566 2113 
L 3156 0 
L 2578 0 
L 2988 2091 
Q 3016 2238 3031 2350 
Q 3047 2463 3047 2528 
Q 3047 2791 2881 2937 
Q 2716 3084 2419 3084 
Q 1956 3084 1617 2771 
Q 1278 2459 1178 1941 
L 800 0 
L 225 0 
L 1172 4863 
L 1747 4863 
L 1375 2950 
Q 1594 3244 1934 3414 
Q 2275 3584 2650 3584 
Q 3113 3584 3367 3334 
Q 3622 3084 3622 2631 
Q 3622 2519 3608 2391 
Q 3594 2263 3566 2113 
z
" transform="scale(0.015625)"/>
       <path id="DejaVuSans-Oblique-6f" d="M 1625 -91 
Q 1009 -91 651 289 
Q 294 669 294 1325 
Q 294 1706 417 2101 
Q 541 2497 738 2766 
Q 1047 3184 1428 3384 
Q 1809 3584 2291 3584 
Q 2888 3584 3255 3212 
Q 3622 2841 3622 2241 
Q 3622 1825 3500 1412 
Q 3378 1000 3181 728 
Q 2875 309 2494 109 
Q 2113 -91 1625 -91 
z
M 891 1344 
Q 891 869 1089 633 
Q 1288 397 1691 397 
Q 2269 397 2648 901 
Q 3028 1406 3028 2181 
Q 3028 2634 2825 2865 
Q 2622 3097 2228 3097 
Q 1903 3097 1650 2945 
Q 1397 2794 1197 2484 
Q 1050 2253 970 1956 
Q 891 1659 891 1344 
z
" transform="scale(0.015625)"/>
       <path id="DejaVuSans-Oblique-6c" d="M 1172 4863 
L 1747 4863 
L 800 0 
L 225 0 
L 1172 4863 
z
" transform="scale(0.015625)"/>
       <path id="DejaVuSans-Oblique-72" d="M 2853 2969 
Q 2766 3016 2653 3041 
Q 2541 3066 2413 3066 
Q 1953 3066 1609 2717 
Q 1266 2369 1153 1784 
L 800 0 
L 225 0 
L 909 3500 
L 1484 3500 
L 1375 2956 
Q 1603 3259 1920 3421 
Q 2238 3584 2597 3584 
Q 2691 3584 2781 3573 
Q 2872 3563 2963 3538 
L 2853 2969 
z
" transform="scale(0.015625)"/>
       <path id="DejaVuSans-Oblique-4f" d="M 2919 4238 
Q 2400 4238 2003 3986 
Q 1606 3734 1313 3219 
Q 1125 2891 1026 2522 
Q 928 2153 928 1778 
Q 928 1128 1239 775 
Q 1550 422 2119 422 
Q 2631 422 3032 676 
Q 3434 931 3719 1434 
Q 3909 1772 4009 2142 
Q 4109 2513 4109 2881 
Q 4109 3528 3796 3883 
Q 3484 4238 2919 4238 
z
M 2100 -91 
Q 1241 -91 748 418 
Q 256 928 256 1813 
Q 256 2319 448 2847 
Q 641 3375 978 3788 
Q 1375 4272 1862 4511 
Q 2350 4750 2938 4750 
Q 3794 4750 4287 4245 
Q 4781 3741 4781 2869 
Q 4781 2331 4593 1812 
Q 4406 1294 4056 872 
Q 3656 384 3173 146 
Q 2691 -91 2100 -91 
z
" transform="scale(0.015625)"/>
       <path id="DejaVuSans-394" d="M 2188 4044 
L 906 525 
L 3472 525 
L 2188 4044 
z
M 50 0 
L 1831 4666 
L 2547 4666 
L 4325 0 
L 50 0 
z
" transform="scale(0.015625)"/>
       <path id="DejaVuSans-Oblique-74" d="M 2706 3500 
L 2619 3053 
L 1472 3053 
L 1100 1153 
Q 1081 1047 1072 975 
Q 1063 903 1063 863 
Q 1063 663 1183 572 
Q 1303 481 1569 481 
L 2150 481 
L 2053 0 
L 1503 0 
Q 991 0 739 200 
Q 488 400 488 806 
Q 488 878 497 964 
Q 506 1050 525 1153 
L 897 3053 
L 409 3053 
L 500 3500 
L 978 3500 
L 1172 4494 
L 1747 4494 
L 1556 3500 
L 2706 3500 
z
" transform="scale(0.015625)"/>
      </defs>
      <use xlink:href="#DejaVuSans-3a3" transform="translate(0 0.765625)"/>
      <use xlink:href="#DejaVuSans-5b" transform="translate(63.183594 0.765625)"/>
      <use xlink:href="#DejaVuSans-Oblique-41" transform="translate(102.197266 0.765625)"/>
      <use xlink:href="#DejaVuSans-Oblique-6d" transform="translate(170.605469 0.765625)"/>
      <use xlink:href="#DejaVuSans-Oblique-69" transform="translate(268.017578 0.765625)"/>
      <use xlink:href="#DejaVuSans-Oblique-6e" transform="translate(295.800781 0.765625)"/>
      <use xlink:href="#DejaVuSans-Oblique-65" transform="translate(359.179688 0.765625)"/>
      <use xlink:href="#DejaVuSans-5d" transform="translate(420.703125 0.765625)"/>
      <use xlink:href="#DejaVuSans-31" transform="translate(460.673828 39.046875) scale(0.7)"/>
      <use xlink:href="#DejaVuSans-2e" transform="translate(505.209961 39.046875) scale(0.7)"/>
      <use xlink:href="#DejaVuSans-31" transform="translate(527.460938 39.046875) scale(0.7)"/>
      <use xlink:href="#DejaVuSans-38" transform="translate(571.99707 39.046875) scale(0.7)"/>
      <use xlink:href="#DejaVuSans-5b" transform="translate(619.267578 0.765625)"/>
      <use xlink:href="#DejaVuSans-Oblique-50" transform="translate(658.28125 0.765625)"/>
      <use xlink:href="#DejaVuSans-Oblique-68" transform="translate(718.583984 0.765625)"/>
      <use xlink:href="#DejaVuSans-Oblique-65" transform="translate(781.962891 0.765625)"/>
      <use xlink:href="#DejaVuSans-Oblique-6e" transform="translate(843.486328 0.765625)"/>
      <use xlink:href="#DejaVuSans-Oblique-6f" transform="translate(906.865234 0.765625)"/>
      <use xlink:href="#DejaVuSans-Oblique-6c" transform="translate(968.046875 0.765625)"/>
      <use xlink:href="#DejaVuSans-5d" transform="translate(995.830078 0.765625)"/>
      <use xlink:href="#DejaVuSans-30" transform="translate(1035.800781 39.046875) scale(0.7)"/>
      <use xlink:href="#DejaVuSans-2e" transform="translate(1080.336914 39.046875) scale(0.7)"/>
      <use xlink:href="#DejaVuSans-31" transform="translate(1102.587891 39.046875) scale(0.7)"/>
      <use xlink:href="#DejaVuSans-32" transform="translate(1147.124023 39.046875) scale(0.7)"/>
      <use xlink:href="#DejaVuSans-5b" transform="translate(1194.394531 0.765625)"/>
      <use xlink:href="#DejaVuSans-Oblique-41" transform="translate(1233.408203 0.765625)"/>
      <use xlink:href="#DejaVuSans-Oblique-72" transform="translate(1301.816406 0.765625)"/>
      <use xlink:href="#DejaVuSans-Oblique-4f" transform="translate(1342.929688 0.765625)"/>
      <use xlink:href="#DejaVuSans-Oblique-50" transform="translate(1421.640625 0.765625)"/>
      <use xlink:href="#DejaVuSans-Oblique-68" transform="translate(1481.943359 0.765625)"/>
      <use xlink:href="#DejaVuSans-5d" transform="translate(1545.322266 0.765625)"/>
      <use xlink:href="#DejaVuSans-31" transform="translate(1585.292969 39.046875) scale(0.7)"/>
      <use xlink:href="#DejaVuSans-2e" transform="translate(1629.829102 39.046875) scale(0.7)"/>
      <use xlink:href="#DejaVuSans-33" transform="translate(1652.080078 39.046875) scale(0.7)"/>
      <use xlink:href="#DejaVuSans-31" transform="translate(1696.616211 39.046875) scale(0.7)"/>
      <use xlink:href="#DejaVuSans-394" transform="translate(1743.886719 0.765625)"/>
      <use xlink:href="#DejaVuSans-Oblique-74" transform="translate(1812.294922 0.765625)"/>
      <use xlink:href="#DejaVuSans-2e" transform="translate(1851.503906 0.765625)"/>
     </g>
    </g>
    <g id="text_6">
     <!-- 1e5 -->
     <g transform="translate(256.942674 188.844562) scale(0.1 -0.1)">
      <defs>
       <path id="DejaVuSans-65" d="M 3597 1894 
L 3597 1613 
L 953 1613 
Q 991 1019 1311 708 
Q 1631 397 2203 397 
Q 2534 397 2845 478 
Q 3156 559 3463 722 
L 3463 178 
Q 3153 47 2828 -22 
Q 2503 -91 2169 -91 
Q 1331 -91 842 396 
Q 353 884 353 1716 
Q 353 2575 817 3079 
Q 1281 3584 2069 3584 
Q 2775 3584 3186 3129 
Q 3597 2675 3597 1894 
z
M 3022 2063 
Q 3016 2534 2758 2815 
Q 2500 3097 2075 3097 
Q 1594 3097 1305 2825 
Q 1016 2553 972 2059 
L 3022 2063 
z
" transform="scale(0.015625)"/>
       <path id="DejaVuSans-35" d="M 691 4666 
L 3169 4666 
L 3169 4134 
L 1269 4134 
L 1269 2991 
Q 1406 3038 1543 3061 
Q 1681 3084 1819 3084 
Q 2600 3084 3056 2656 
Q 3513 2228 3513 1497 
Q 3513 744 3044 326 
Q 2575 -91 1722 -91 
Q 1428 -91 1123 -41 
Q 819 9 494 109 
L 494 744 
Q 775 591 1075 516 
Q 1375 441 1709 441 
Q 2250 441 2565 725 
Q 2881 1009 2881 1497 
Q 2881 1984 2565 2268 
Q 2250 2553 1709 2553 
Q 1456 2553 1204 2497 
Q 953 2441 691 2322 
L 691 4666 
z
" transform="scale(0.015625)"/>
      </defs>
      <use xlink:href="#DejaVuSans-31"/>
      <use xlink:href="#DejaVuSans-65" transform="translate(63.623047 0)"/>
      <use xlink:href="#DejaVuSans-35" transform="translate(125.146484 0)"/>
     </g>
    </g>
   </g>
   <g id="matplotlib.axis_2">
    <g id="ytick_1">
     <g id="line2d_5">
      <defs>
       <path id="mdb74cb62d4" d="M 0 0 
L -3.5 0 
" style="stroke: #000000; stroke-width: 0.8"/>
      </defs>
      <g>
       <use xlink:href="#mdb74cb62d4" x="46.965625" y="142.819911" style="stroke: #000000; stroke-width: 0.8"/>
      </g>
     </g>
     <g id="text_7">
      <!-- 80 -->
      <g transform="translate(27.240625 146.619129) scale(0.1 -0.1)">
       <use xlink:href="#DejaVuSans-38"/>
       <use xlink:href="#DejaVuSans-30" transform="translate(63.623047 0)"/>
      </g>
     </g>
    </g>
    <g id="ytick_2">
     <g id="line2d_6">
      <g>
       <use xlink:href="#mdb74cb62d4" x="46.965625" y="108.43897" style="stroke: #000000; stroke-width: 0.8"/>
      </g>
     </g>
     <g id="text_8">
      <!-- 90 -->
      <g transform="translate(27.240625 112.238188) scale(0.1 -0.1)">
       <defs>
        <path id="DejaVuSans-39" d="M 703 97 
L 703 672 
Q 941 559 1184 500 
Q 1428 441 1663 441 
Q 2288 441 2617 861 
Q 2947 1281 2994 2138 
Q 2813 1869 2534 1725 
Q 2256 1581 1919 1581 
Q 1219 1581 811 2004 
Q 403 2428 403 3163 
Q 403 3881 828 4315 
Q 1253 4750 1959 4750 
Q 2769 4750 3195 4129 
Q 3622 3509 3622 2328 
Q 3622 1225 3098 567 
Q 2575 -91 1691 -91 
Q 1453 -91 1209 -44 
Q 966 3 703 97 
z
M 1959 2075 
Q 2384 2075 2632 2365 
Q 2881 2656 2881 3163 
Q 2881 3666 2632 3958 
Q 2384 4250 1959 4250 
Q 1534 4250 1286 3958 
Q 1038 3666 1038 3163 
Q 1038 2656 1286 2365 
Q 1534 2075 1959 2075 
z
" transform="scale(0.015625)"/>
       </defs>
       <use xlink:href="#DejaVuSans-39"/>
       <use xlink:href="#DejaVuSans-30" transform="translate(63.623047 0)"/>
      </g>
     </g>
    </g>
    <g id="ytick_3">
     <g id="line2d_7">
      <g>
       <use xlink:href="#mdb74cb62d4" x="46.965625" y="74.058029" style="stroke: #000000; stroke-width: 0.8"/>
      </g>
     </g>
     <g id="text_9">
      <!-- 100 -->
      <g transform="translate(20.878125 77.857247) scale(0.1 -0.1)">
       <use xlink:href="#DejaVuSans-31"/>
       <use xlink:href="#DejaVuSans-30" transform="translate(63.623047 0)"/>
       <use xlink:href="#DejaVuSans-30" transform="translate(127.246094 0)"/>
      </g>
     </g>
    </g>
    <g id="ytick_4">
     <g id="line2d_8">
      <g>
       <use xlink:href="#mdb74cb62d4" x="46.965625" y="39.677088" style="stroke: #000000; stroke-width: 0.8"/>
      </g>
     </g>
     <g id="text_10">
      <!-- 110 -->
      <g transform="translate(20.878125 43.476306) scale(0.1 -0.1)">
       <use xlink:href="#DejaVuSans-31"/>
       <use xlink:href="#DejaVuSans-31" transform="translate(63.623047 0)"/>
       <use xlink:href="#DejaVuSans-30" transform="translate(127.246094 0)"/>
      </g>
     </g>
    </g>
    <g id="text_11">
     <!-- Shifted [Product] / mM -->
     <g transform="translate(14.798438 140.519156) rotate(-90) scale(0.1 -0.1)">
      <defs>
       <path id="DejaVuSans-53" d="M 3425 4513 
L 3425 3897 
Q 3066 4069 2747 4153 
Q 2428 4238 2131 4238 
Q 1616 4238 1336 4038 
Q 1056 3838 1056 3469 
Q 1056 3159 1242 3001 
Q 1428 2844 1947 2747 
L 2328 2669 
Q 3034 2534 3370 2195 
Q 3706 1856 3706 1288 
Q 3706 609 3251 259 
Q 2797 -91 1919 -91 
Q 1588 -91 1214 -16 
Q 841 59 441 206 
L 441 856 
Q 825 641 1194 531 
Q 1563 422 1919 422 
Q 2459 422 2753 634 
Q 3047 847 3047 1241 
Q 3047 1584 2836 1778 
Q 2625 1972 2144 2069 
L 1759 2144 
Q 1053 2284 737 2584 
Q 422 2884 422 3419 
Q 422 4038 858 4394 
Q 1294 4750 2059 4750 
Q 2388 4750 2728 4690 
Q 3069 4631 3425 4513 
z
" transform="scale(0.015625)"/>
       <path id="DejaVuSans-68" d="M 3513 2113 
L 3513 0 
L 2938 0 
L 2938 2094 
Q 2938 2591 2744 2837 
Q 2550 3084 2163 3084 
Q 1697 3084 1428 2787 
Q 1159 2491 1159 1978 
L 1159 0 
L 581 0 
L 581 4863 
L 1159 4863 
L 1159 2956 
Q 1366 3272 1645 3428 
Q 1925 3584 2291 3584 
Q 2894 3584 3203 3211 
Q 3513 2838 3513 2113 
z
" transform="scale(0.015625)"/>
       <path id="DejaVuSans-69" d="M 603 3500 
L 1178 3500 
L 1178 0 
L 603 0 
L 603 3500 
z
M 603 4863 
L 1178 4863 
L 1178 4134 
L 603 4134 
L 603 4863 
z
" transform="scale(0.015625)"/>
       <path id="DejaVuSans-66" d="M 2375 4863 
L 2375 4384 
L 1825 4384 
Q 1516 4384 1395 4259 
Q 1275 4134 1275 3809 
L 1275 3500 
L 2222 3500 
L 2222 3053 
L 1275 3053 
L 1275 0 
L 697 0 
L 697 3053 
L 147 3053 
L 147 3500 
L 697 3500 
L 697 3744 
Q 697 4328 969 4595 
Q 1241 4863 1831 4863 
L 2375 4863 
z
" transform="scale(0.015625)"/>
       <path id="DejaVuSans-74" d="M 1172 4494 
L 1172 3500 
L 2356 3500 
L 2356 3053 
L 1172 3053 
L 1172 1153 
Q 1172 725 1289 603 
Q 1406 481 1766 481 
L 2356 481 
L 2356 0 
L 1766 0 
Q 1100 0 847 248 
Q 594 497 594 1153 
L 594 3053 
L 172 3053 
L 172 3500 
L 594 3500 
L 594 4494 
L 1172 4494 
z
" transform="scale(0.015625)"/>
       <path id="DejaVuSans-64" d="M 2906 2969 
L 2906 4863 
L 3481 4863 
L 3481 0 
L 2906 0 
L 2906 525 
Q 2725 213 2448 61 
Q 2172 -91 1784 -91 
Q 1150 -91 751 415 
Q 353 922 353 1747 
Q 353 2572 751 3078 
Q 1150 3584 1784 3584 
Q 2172 3584 2448 3432 
Q 2725 3281 2906 2969 
z
M 947 1747 
Q 947 1113 1208 752 
Q 1469 391 1925 391 
Q 2381 391 2643 752 
Q 2906 1113 2906 1747 
Q 2906 2381 2643 2742 
Q 2381 3103 1925 3103 
Q 1469 3103 1208 2742 
Q 947 2381 947 1747 
z
" transform="scale(0.015625)"/>
       <path id="DejaVuSans-20" transform="scale(0.015625)"/>
       <path id="DejaVuSans-50" d="M 1259 4147 
L 1259 2394 
L 2053 2394 
Q 2494 2394 2734 2622 
Q 2975 2850 2975 3272 
Q 2975 3691 2734 3919 
Q 2494 4147 2053 4147 
L 1259 4147 
z
M 628 4666 
L 2053 4666 
Q 2838 4666 3239 4311 
Q 3641 3956 3641 3272 
Q 3641 2581 3239 2228 
Q 2838 1875 2053 1875 
L 1259 1875 
L 1259 0 
L 628 0 
L 628 4666 
z
" transform="scale(0.015625)"/>
       <path id="DejaVuSans-72" d="M 2631 2963 
Q 2534 3019 2420 3045 
Q 2306 3072 2169 3072 
Q 1681 3072 1420 2755 
Q 1159 2438 1159 1844 
L 1159 0 
L 581 0 
L 581 3500 
L 1159 3500 
L 1159 2956 
Q 1341 3275 1631 3429 
Q 1922 3584 2338 3584 
Q 2397 3584 2469 3576 
Q 2541 3569 2628 3553 
L 2631 2963 
z
" transform="scale(0.015625)"/>
       <path id="DejaVuSans-6f" d="M 1959 3097 
Q 1497 3097 1228 2736 
Q 959 2375 959 1747 
Q 959 1119 1226 758 
Q 1494 397 1959 397 
Q 2419 397 2687 759 
Q 2956 1122 2956 1747 
Q 2956 2369 2687 2733 
Q 2419 3097 1959 3097 
z
M 1959 3584 
Q 2709 3584 3137 3096 
Q 3566 2609 3566 1747 
Q 3566 888 3137 398 
Q 2709 -91 1959 -91 
Q 1206 -91 779 398 
Q 353 888 353 1747 
Q 353 2609 779 3096 
Q 1206 3584 1959 3584 
z
" transform="scale(0.015625)"/>
       <path id="DejaVuSans-75" d="M 544 1381 
L 544 3500 
L 1119 3500 
L 1119 1403 
Q 1119 906 1312 657 
Q 1506 409 1894 409 
Q 2359 409 2629 706 
Q 2900 1003 2900 1516 
L 2900 3500 
L 3475 3500 
L 3475 0 
L 2900 0 
L 2900 538 
Q 2691 219 2414 64 
Q 2138 -91 1772 -91 
Q 1169 -91 856 284 
Q 544 659 544 1381 
z
M 1991 3584 
L 1991 3584 
z
" transform="scale(0.015625)"/>
       <path id="DejaVuSans-63" d="M 3122 3366 
L 3122 2828 
Q 2878 2963 2633 3030 
Q 2388 3097 2138 3097 
Q 1578 3097 1268 2742 
Q 959 2388 959 1747 
Q 959 1106 1268 751 
Q 1578 397 2138 397 
Q 2388 397 2633 464 
Q 2878 531 3122 666 
L 3122 134 
Q 2881 22 2623 -34 
Q 2366 -91 2075 -91 
Q 1284 -91 818 406 
Q 353 903 353 1747 
Q 353 2603 823 3093 
Q 1294 3584 2113 3584 
Q 2378 3584 2631 3529 
Q 2884 3475 3122 3366 
z
" transform="scale(0.015625)"/>
       <path id="DejaVuSans-2f" d="M 1625 4666 
L 2156 4666 
L 531 -594 
L 0 -594 
L 1625 4666 
z
" transform="scale(0.015625)"/>
       <path id="DejaVuSans-6d" d="M 3328 2828 
Q 3544 3216 3844 3400 
Q 4144 3584 4550 3584 
Q 5097 3584 5394 3201 
Q 5691 2819 5691 2113 
L 5691 0 
L 5113 0 
L 5113 2094 
Q 5113 2597 4934 2840 
Q 4756 3084 4391 3084 
Q 3944 3084 3684 2787 
Q 3425 2491 3425 1978 
L 3425 0 
L 2847 0 
L 2847 2094 
Q 2847 2600 2669 2842 
Q 2491 3084 2119 3084 
Q 1678 3084 1418 2786 
Q 1159 2488 1159 1978 
L 1159 0 
L 581 0 
L 581 3500 
L 1159 3500 
L 1159 2956 
Q 1356 3278 1631 3431 
Q 1906 3584 2284 3584 
Q 2666 3584 2933 3390 
Q 3200 3197 3328 2828 
z
" transform="scale(0.015625)"/>
       <path id="DejaVuSans-4d" d="M 628 4666 
L 1569 4666 
L 2759 1491 
L 3956 4666 
L 4897 4666 
L 4897 0 
L 4281 0 
L 4281 4097 
L 3078 897 
L 2444 897 
L 1241 4097 
L 1241 0 
L 628 0 
L 628 4666 
z
" transform="scale(0.015625)"/>
      </defs>
      <use xlink:href="#DejaVuSans-53"/>
      <use xlink:href="#DejaVuSans-68" transform="translate(63.476562 0)"/>
      <use xlink:href="#DejaVuSans-69" transform="translate(126.855469 0)"/>
      <use xlink:href="#DejaVuSans-66" transform="translate(154.638672 0)"/>
      <use xlink:href="#DejaVuSans-74" transform="translate(188.09375 0)"/>
      <use xlink:href="#DejaVuSans-65" transform="translate(227.302734 0)"/>
      <use xlink:href="#DejaVuSans-64" transform="translate(288.826172 0)"/>
      <use xlink:href="#DejaVuSans-20" transform="translate(352.302734 0)"/>
      <use xlink:href="#DejaVuSans-5b" transform="translate(384.089844 0)"/>
      <use xlink:href="#DejaVuSans-50" transform="translate(423.103516 0)"/>
      <use xlink:href="#DejaVuSans-72" transform="translate(481.65625 0)"/>
      <use xlink:href="#DejaVuSans-6f" transform="translate(520.519531 0)"/>
      <use xlink:href="#DejaVuSans-64" transform="translate(581.701172 0)"/>
      <use xlink:href="#DejaVuSans-75" transform="translate(645.177734 0)"/>
      <use xlink:href="#DejaVuSans-63" transform="translate(708.556641 0)"/>
      <use xlink:href="#DejaVuSans-74" transform="translate(763.537109 0)"/>
      <use xlink:href="#DejaVuSans-5d" transform="translate(802.746094 0)"/>
      <use xlink:href="#DejaVuSans-20" transform="translate(841.759766 0)"/>
      <use xlink:href="#DejaVuSans-2f" transform="translate(873.546875 0)"/>
      <use xlink:href="#DejaVuSans-20" transform="translate(907.238281 0)"/>
      <use xlink:href="#DejaVuSans-6d" transform="translate(939.025391 0)"/>
      <use xlink:href="#DejaVuSans-4d" transform="translate(1036.4375 0)"/>
     </g>
    </g>
   </g>
   <g id="line2d_9">
    <path d="M 46.965631 154.551273 
L 52.239016 148.325543 
L 57.790331 142.672504 
L 63.084033 137.702839 
L 68.160681 133.062103 
L 73.17891 129.020985 
L 77.845854 124.595411 
L 82.251313 120.755541 
L 86.61102 117.677128 
L 90.660016 114.78569 
L 94.525986 111.399631 
L 98.289207 107.314923 
L 101.74161 105.101075 
L 105.057408 102.60343 
L 108.274295 101.024851 
L 111.414673 97.811332 
L 114.328533 96.063573 
L 117.131816 93.574025 
L 119.897054 91.653656 
L 122.497718 90.528814 
L 125.011605 88.704428 
L 127.523599 87.53124 
L 129.908155 86.494823 
L 132.215414 85.224341 
L 134.417982 82.213942 
L 136.61454 82.339953 
L 138.699048 80.246097 
L 140.687393 78.881798 
L 142.693088 78.192807 
L 144.570358 76.476864 
L 146.377352 75.784366 
L 148.185263 74.209669 
L 149.887591 73.917341 
L 151.541951 72.613429 
L 153.206859 72.133675 
L 154.797654 71.033548 
L 156.334834 70.747985 
L 157.836749 69.113771 
L 159.346099 69.21927 
L 160.784323 68.235794 
L 162.184949 67.415365 
L 163.608094 67.664013 
L 164.980034 66.755993 
L 166.309041 66.141542 
L 167.657462 65.743913 
L 168.949636 65.185882 
L 170.191623 63.971415 
L 171.423617 63.176308 
L 172.588612 62.443827 
L 173.733255 61.989361 
L 174.895039 62.147684 
L 176.011307 61.576501 
L 177.122847 61.765582 
L 178.216424 60.596958 
L 179.294899 59.900856 
L 180.32443 59.771831 
L 181.330134 58.613189 
L 182.358765 59.345277 
L 183.378172 59.917023 
L 184.407049 59.712222 
L 185.416926 57.737004 
L 186.383129 59.007525 
L 187.35024 57.876691 
L 188.287916 57.564387 
L 189.22124 56.362586 
L 190.130084 57.715183 
L 191.038413 56.514622 
L 191.954165 56.627069 
L 192.827444 55.732571 
L 193.67457 55.547491 
L 194.562186 56.267427 
L 195.409879 54.974504 
L 196.242398 55.571816 
L 197.051496 54.036236 
L 197.868241 54.597527 
L 198.666594 54.310872 
L 199.456815 54.310578 
L 200.271911 54.243687 
L 201.070596 54.739534 
L 201.869321 54.115673 
L 202.669468 53.82464 
L 203.433673 53.312486 
L 204.180336 53.330849 
L 204.952183 53.420932 
L 205.682828 52.14197 
L 206.376112 51.881816 
L 207.055063 51.273111 
L 207.754693 52.154536 
L 208.451222 52.002096 
L 209.156261 52.445499 
L 209.882558 52.171499 
L 210.563025 51.16641 
L 211.232298 51.435434 
L 211.917864 51.159215 
L 212.566642 50.528551 
L 213.208658 50.732358 
L 213.846804 50.407918 
L 214.483749 49.952683 
" clip-path="url(#p6c62947330)" style="fill: none; stroke: #1f77b4; stroke-width: 0.7; stroke-linecap: square"/>
    <defs>
     <path id="ma0be57d8af" d="M 0 0.9 
C 0.238683 0.9 0.467622 0.80517 0.636396 0.636396 
C 0.80517 0.467622 0.9 0.238683 0.9 0 
C 0.9 -0.238683 0.80517 -0.467622 0.636396 -0.636396 
C 0.467622 -0.80517 0.238683 -0.9 0 -0.9 
C -0.238683 -0.9 -0.467622 -0.80517 -0.636396 -0.636396 
C -0.80517 -0.467622 -0.9 -0.238683 -0.9 0 
C -0.9 0.238683 -0.80517 0.467622 -0.636396 0.636396 
C -0.467622 0.80517 -0.238683 0.9 0 0.9 
z
" style="stroke: #1f77b4"/>
    </defs>
    <g clip-path="url(#p6c62947330)">
     <use xlink:href="#ma0be57d8af" x="46.965631" y="154.551273" style="fill: #1f77b4; stroke: #1f77b4"/>
     <use xlink:href="#ma0be57d8af" x="52.239016" y="148.325543" style="fill: #1f77b4; stroke: #1f77b4"/>
     <use xlink:href="#ma0be57d8af" x="57.790331" y="142.672504" style="fill: #1f77b4; stroke: #1f77b4"/>
     <use xlink:href="#ma0be57d8af" x="63.084033" y="137.702839" style="fill: #1f77b4; stroke: #1f77b4"/>
     <use xlink:href="#ma0be57d8af" x="68.160681" y="133.062103" style="fill: #1f77b4; stroke: #1f77b4"/>
     <use xlink:href="#ma0be57d8af" x="73.17891" y="129.020985" style="fill: #1f77b4; stroke: #1f77b4"/>
     <use xlink:href="#ma0be57d8af" x="77.845854" y="124.595411" style="fill: #1f77b4; stroke: #1f77b4"/>
     <use xlink:href="#ma0be57d8af" x="82.251313" y="120.755541" style="fill: #1f77b4; stroke: #1f77b4"/>
     <use xlink:href="#ma0be57d8af" x="86.61102" y="117.677128" style="fill: #1f77b4; stroke: #1f77b4"/>
     <use xlink:href="#ma0be57d8af" x="90.660016" y="114.78569" style="fill: #1f77b4; stroke: #1f77b4"/>
     <use xlink:href="#ma0be57d8af" x="94.525986" y="111.399631" style="fill: #1f77b4; stroke: #1f77b4"/>
     <use xlink:href="#ma0be57d8af" x="98.289207" y="107.314923" style="fill: #1f77b4; stroke: #1f77b4"/>
     <use xlink:href="#ma0be57d8af" x="101.74161" y="105.101075" style="fill: #1f77b4; stroke: #1f77b4"/>
     <use xlink:href="#ma0be57d8af" x="105.057408" y="102.60343" style="fill: #1f77b4; stroke: #1f77b4"/>
     <use xlink:href="#ma0be57d8af" x="108.274295" y="101.024851" style="fill: #1f77b4; stroke: #1f77b4"/>
     <use xlink:href="#ma0be57d8af" x="111.414673" y="97.811332" style="fill: #1f77b4; stroke: #1f77b4"/>
     <use xlink:href="#ma0be57d8af" x="114.328533" y="96.063573" style="fill: #1f77b4; stroke: #1f77b4"/>
     <use xlink:href="#ma0be57d8af" x="117.131816" y="93.574025" style="fill: #1f77b4; stroke: #1f77b4"/>
     <use xlink:href="#ma0be57d8af" x="119.897054" y="91.653656" style="fill: #1f77b4; stroke: #1f77b4"/>
     <use xlink:href="#ma0be57d8af" x="122.497718" y="90.528814" style="fill: #1f77b4; stroke: #1f77b4"/>
     <use xlink:href="#ma0be57d8af" x="125.011605" y="88.704428" style="fill: #1f77b4; stroke: #1f77b4"/>
     <use xlink:href="#ma0be57d8af" x="127.523599" y="87.53124" style="fill: #1f77b4; stroke: #1f77b4"/>
     <use xlink:href="#ma0be57d8af" x="129.908155" y="86.494823" style="fill: #1f77b4; stroke: #1f77b4"/>
     <use xlink:href="#ma0be57d8af" x="132.215414" y="85.224341" style="fill: #1f77b4; stroke: #1f77b4"/>
     <use xlink:href="#ma0be57d8af" x="134.417982" y="82.213942" style="fill: #1f77b4; stroke: #1f77b4"/>
     <use xlink:href="#ma0be57d8af" x="136.61454" y="82.339953" style="fill: #1f77b4; stroke: #1f77b4"/>
     <use xlink:href="#ma0be57d8af" x="138.699048" y="80.246097" style="fill: #1f77b4; stroke: #1f77b4"/>
     <use xlink:href="#ma0be57d8af" x="140.687393" y="78.881798" style="fill: #1f77b4; stroke: #1f77b4"/>
     <use xlink:href="#ma0be57d8af" x="142.693088" y="78.192807" style="fill: #1f77b4; stroke: #1f77b4"/>
     <use xlink:href="#ma0be57d8af" x="144.570358" y="76.476864" style="fill: #1f77b4; stroke: #1f77b4"/>
     <use xlink:href="#ma0be57d8af" x="146.377352" y="75.784366" style="fill: #1f77b4; stroke: #1f77b4"/>
     <use xlink:href="#ma0be57d8af" x="148.185263" y="74.209669" style="fill: #1f77b4; stroke: #1f77b4"/>
     <use xlink:href="#ma0be57d8af" x="149.887591" y="73.917341" style="fill: #1f77b4; stroke: #1f77b4"/>
     <use xlink:href="#ma0be57d8af" x="151.541951" y="72.613429" style="fill: #1f77b4; stroke: #1f77b4"/>
     <use xlink:href="#ma0be57d8af" x="153.206859" y="72.133675" style="fill: #1f77b4; stroke: #1f77b4"/>
     <use xlink:href="#ma0be57d8af" x="154.797654" y="71.033548" style="fill: #1f77b4; stroke: #1f77b4"/>
     <use xlink:href="#ma0be57d8af" x="156.334834" y="70.747985" style="fill: #1f77b4; stroke: #1f77b4"/>
     <use xlink:href="#ma0be57d8af" x="157.836749" y="69.113771" style="fill: #1f77b4; stroke: #1f77b4"/>
     <use xlink:href="#ma0be57d8af" x="159.346099" y="69.21927" style="fill: #1f77b4; stroke: #1f77b4"/>
     <use xlink:href="#ma0be57d8af" x="160.784323" y="68.235794" style="fill: #1f77b4; stroke: #1f77b4"/>
     <use xlink:href="#ma0be57d8af" x="162.184949" y="67.415365" style="fill: #1f77b4; stroke: #1f77b4"/>
     <use xlink:href="#ma0be57d8af" x="163.608094" y="67.664013" style="fill: #1f77b4; stroke: #1f77b4"/>
     <use xlink:href="#ma0be57d8af" x="164.980034" y="66.755993" style="fill: #1f77b4; stroke: #1f77b4"/>
     <use xlink:href="#ma0be57d8af" x="166.309041" y="66.141542" style="fill: #1f77b4; stroke: #1f77b4"/>
     <use xlink:href="#ma0be57d8af" x="167.657462" y="65.743913" style="fill: #1f77b4; stroke: #1f77b4"/>
     <use xlink:href="#ma0be57d8af" x="168.949636" y="65.185882" style="fill: #1f77b4; stroke: #1f77b4"/>
     <use xlink:href="#ma0be57d8af" x="170.191623" y="63.971415" style="fill: #1f77b4; stroke: #1f77b4"/>
     <use xlink:href="#ma0be57d8af" x="171.423617" y="63.176308" style="fill: #1f77b4; stroke: #1f77b4"/>
     <use xlink:href="#ma0be57d8af" x="172.588612" y="62.443827" style="fill: #1f77b4; stroke: #1f77b4"/>
     <use xlink:href="#ma0be57d8af" x="173.733255" y="61.989361" style="fill: #1f77b4; stroke: #1f77b4"/>
     <use xlink:href="#ma0be57d8af" x="174.895039" y="62.147684" style="fill: #1f77b4; stroke: #1f77b4"/>
     <use xlink:href="#ma0be57d8af" x="176.011307" y="61.576501" style="fill: #1f77b4; stroke: #1f77b4"/>
     <use xlink:href="#ma0be57d8af" x="177.122847" y="61.765582" style="fill: #1f77b4; stroke: #1f77b4"/>
     <use xlink:href="#ma0be57d8af" x="178.216424" y="60.596958" style="fill: #1f77b4; stroke: #1f77b4"/>
     <use xlink:href="#ma0be57d8af" x="179.294899" y="59.900856" style="fill: #1f77b4; stroke: #1f77b4"/>
     <use xlink:href="#ma0be57d8af" x="180.32443" y="59.771831" style="fill: #1f77b4; stroke: #1f77b4"/>
     <use xlink:href="#ma0be57d8af" x="181.330134" y="58.613189" style="fill: #1f77b4; stroke: #1f77b4"/>
     <use xlink:href="#ma0be57d8af" x="182.358765" y="59.345277" style="fill: #1f77b4; stroke: #1f77b4"/>
     <use xlink:href="#ma0be57d8af" x="183.378172" y="59.917023" style="fill: #1f77b4; stroke: #1f77b4"/>
     <use xlink:href="#ma0be57d8af" x="184.407049" y="59.712222" style="fill: #1f77b4; stroke: #1f77b4"/>
     <use xlink:href="#ma0be57d8af" x="185.416926" y="57.737004" style="fill: #1f77b4; stroke: #1f77b4"/>
     <use xlink:href="#ma0be57d8af" x="186.383129" y="59.007525" style="fill: #1f77b4; stroke: #1f77b4"/>
     <use xlink:href="#ma0be57d8af" x="187.35024" y="57.876691" style="fill: #1f77b4; stroke: #1f77b4"/>
     <use xlink:href="#ma0be57d8af" x="188.287916" y="57.564387" style="fill: #1f77b4; stroke: #1f77b4"/>
     <use xlink:href="#ma0be57d8af" x="189.22124" y="56.362586" style="fill: #1f77b4; stroke: #1f77b4"/>
     <use xlink:href="#ma0be57d8af" x="190.130084" y="57.715183" style="fill: #1f77b4; stroke: #1f77b4"/>
     <use xlink:href="#ma0be57d8af" x="191.038413" y="56.514622" style="fill: #1f77b4; stroke: #1f77b4"/>
     <use xlink:href="#ma0be57d8af" x="191.954165" y="56.627069" style="fill: #1f77b4; stroke: #1f77b4"/>
     <use xlink:href="#ma0be57d8af" x="192.827444" y="55.732571" style="fill: #1f77b4; stroke: #1f77b4"/>
     <use xlink:href="#ma0be57d8af" x="193.67457" y="55.547491" style="fill: #1f77b4; stroke: #1f77b4"/>
     <use xlink:href="#ma0be57d8af" x="194.562186" y="56.267427" style="fill: #1f77b4; stroke: #1f77b4"/>
     <use xlink:href="#ma0be57d8af" x="195.409879" y="54.974504" style="fill: #1f77b4; stroke: #1f77b4"/>
     <use xlink:href="#ma0be57d8af" x="196.242398" y="55.571816" style="fill: #1f77b4; stroke: #1f77b4"/>
     <use xlink:href="#ma0be57d8af" x="197.051496" y="54.036236" style="fill: #1f77b4; stroke: #1f77b4"/>
     <use xlink:href="#ma0be57d8af" x="197.868241" y="54.597527" style="fill: #1f77b4; stroke: #1f77b4"/>
     <use xlink:href="#ma0be57d8af" x="198.666594" y="54.310872" style="fill: #1f77b4; stroke: #1f77b4"/>
     <use xlink:href="#ma0be57d8af" x="199.456815" y="54.310578" style="fill: #1f77b4; stroke: #1f77b4"/>
     <use xlink:href="#ma0be57d8af" x="200.271911" y="54.243687" style="fill: #1f77b4; stroke: #1f77b4"/>
     <use xlink:href="#ma0be57d8af" x="201.070596" y="54.739534" style="fill: #1f77b4; stroke: #1f77b4"/>
     <use xlink:href="#ma0be57d8af" x="201.869321" y="54.115673" style="fill: #1f77b4; stroke: #1f77b4"/>
     <use xlink:href="#ma0be57d8af" x="202.669468" y="53.82464" style="fill: #1f77b4; stroke: #1f77b4"/>
     <use xlink:href="#ma0be57d8af" x="203.433673" y="53.312486" style="fill: #1f77b4; stroke: #1f77b4"/>
     <use xlink:href="#ma0be57d8af" x="204.180336" y="53.330849" style="fill: #1f77b4; stroke: #1f77b4"/>
     <use xlink:href="#ma0be57d8af" x="204.952183" y="53.420932" style="fill: #1f77b4; stroke: #1f77b4"/>
     <use xlink:href="#ma0be57d8af" x="205.682828" y="52.14197" style="fill: #1f77b4; stroke: #1f77b4"/>
     <use xlink:href="#ma0be57d8af" x="206.376112" y="51.881816" style="fill: #1f77b4; stroke: #1f77b4"/>
     <use xlink:href="#ma0be57d8af" x="207.055063" y="51.273111" style="fill: #1f77b4; stroke: #1f77b4"/>
     <use xlink:href="#ma0be57d8af" x="207.754693" y="52.154536" style="fill: #1f77b4; stroke: #1f77b4"/>
     <use xlink:href="#ma0be57d8af" x="208.451222" y="52.002096" style="fill: #1f77b4; stroke: #1f77b4"/>
     <use xlink:href="#ma0be57d8af" x="209.156261" y="52.445499" style="fill: #1f77b4; stroke: #1f77b4"/>
     <use xlink:href="#ma0be57d8af" x="209.882558" y="52.171499" style="fill: #1f77b4; stroke: #1f77b4"/>
     <use xlink:href="#ma0be57d8af" x="210.563025" y="51.16641" style="fill: #1f77b4; stroke: #1f77b4"/>
     <use xlink:href="#ma0be57d8af" x="211.232298" y="51.435434" style="fill: #1f77b4; stroke: #1f77b4"/>
     <use xlink:href="#ma0be57d8af" x="211.917864" y="51.159215" style="fill: #1f77b4; stroke: #1f77b4"/>
     <use xlink:href="#ma0be57d8af" x="212.566642" y="50.528551" style="fill: #1f77b4; stroke: #1f77b4"/>
     <use xlink:href="#ma0be57d8af" x="213.208658" y="50.732358" style="fill: #1f77b4; stroke: #1f77b4"/>
     <use xlink:href="#ma0be57d8af" x="213.846804" y="50.407918" style="fill: #1f77b4; stroke: #1f77b4"/>
     <use xlink:href="#ma0be57d8af" x="214.483749" y="49.952683" style="fill: #1f77b4; stroke: #1f77b4"/>
    </g>
   </g>
   <g id="line2d_10">
    <path d="M 46.965625 154.551273 
L 57.60261 147.432511 
L 67.798379 138.202816 
L 77.027424 132.182539 
L 85.727511 126.464098 
L 94.197048 120.527033 
L 101.93741 114.362444 
L 109.223758 109.887041 
L 116.335659 104.645113 
L 122.842449 99.288499 
L 128.9863 95.082028 
L 134.872317 90.805757 
L 140.646076 88.001822 
L 145.989788 83.013162 
L 151.077829 79.426477 
L 156.111681 76.125329 
L 160.826612 72.922606 
L 165.337822 69.75738 
L 169.808716 66.894865 
L 173.994867 65.131618 
L 178.041138 62.431258 
" clip-path="url(#p6c62947330)" style="fill: none; stroke: #ff7f0e; stroke-width: 0.7; stroke-linecap: square"/>
    <defs>
     <path id="mf6588911a4" d="M 0 0.9 
C 0.238683 0.9 0.467622 0.80517 0.636396 0.636396 
C 0.80517 0.467622 0.9 0.238683 0.9 0 
C 0.9 -0.238683 0.80517 -0.467622 0.636396 -0.636396 
C 0.467622 -0.80517 0.238683 -0.9 0 -0.9 
C -0.238683 -0.9 -0.467622 -0.80517 -0.636396 -0.636396 
C -0.80517 -0.467622 -0.9 -0.238683 -0.9 0 
C -0.9 0.238683 -0.80517 0.467622 -0.636396 0.636396 
C -0.467622 0.80517 -0.238683 0.9 0 0.9 
z
" style="stroke: #ff7f0e"/>
    </defs>
    <g clip-path="url(#p6c62947330)">
     <use xlink:href="#mf6588911a4" x="46.965625" y="154.551273" style="fill: #ff7f0e; stroke: #ff7f0e"/>
     <use xlink:href="#mf6588911a4" x="57.60261" y="147.432511" style="fill: #ff7f0e; stroke: #ff7f0e"/>
     <use xlink:href="#mf6588911a4" x="67.798379" y="138.202816" style="fill: #ff7f0e; stroke: #ff7f0e"/>
     <use xlink:href="#mf6588911a4" x="77.027424" y="132.182539" style="fill: #ff7f0e; stroke: #ff7f0e"/>
     <use xlink:href="#mf6588911a4" x="85.727511" y="126.464098" style="fill: #ff7f0e; stroke: #ff7f0e"/>
     <use xlink:href="#mf6588911a4" x="94.197048" y="120.527033" style="fill: #ff7f0e; stroke: #ff7f0e"/>
     <use xlink:href="#mf6588911a4" x="101.93741" y="114.362444" style="fill: #ff7f0e; stroke: #ff7f0e"/>
     <use xlink:href="#mf6588911a4" x="109.223758" y="109.887041" style="fill: #ff7f0e; stroke: #ff7f0e"/>
     <use xlink:href="#mf6588911a4" x="116.335659" y="104.645113" style="fill: #ff7f0e; stroke: #ff7f0e"/>
     <use xlink:href="#mf6588911a4" x="122.842449" y="99.288499" style="fill: #ff7f0e; stroke: #ff7f0e"/>
     <use xlink:href="#mf6588911a4" x="128.9863" y="95.082028" style="fill: #ff7f0e; stroke: #ff7f0e"/>
     <use xlink:href="#mf6588911a4" x="134.872317" y="90.805757" style="fill: #ff7f0e; stroke: #ff7f0e"/>
     <use xlink:href="#mf6588911a4" x="140.646076" y="88.001822" style="fill: #ff7f0e; stroke: #ff7f0e"/>
     <use xlink:href="#mf6588911a4" x="145.989788" y="83.013162" style="fill: #ff7f0e; stroke: #ff7f0e"/>
     <use xlink:href="#mf6588911a4" x="151.077829" y="79.426477" style="fill: #ff7f0e; stroke: #ff7f0e"/>
     <use xlink:href="#mf6588911a4" x="156.111681" y="76.125329" style="fill: #ff7f0e; stroke: #ff7f0e"/>
     <use xlink:href="#mf6588911a4" x="160.826612" y="72.922606" style="fill: #ff7f0e; stroke: #ff7f0e"/>
     <use xlink:href="#mf6588911a4" x="165.337822" y="69.75738" style="fill: #ff7f0e; stroke: #ff7f0e"/>
     <use xlink:href="#mf6588911a4" x="169.808716" y="66.894865" style="fill: #ff7f0e; stroke: #ff7f0e"/>
     <use xlink:href="#mf6588911a4" x="173.994867" y="65.131618" style="fill: #ff7f0e; stroke: #ff7f0e"/>
     <use xlink:href="#mf6588911a4" x="178.041138" y="62.431258" style="fill: #ff7f0e; stroke: #ff7f0e"/>
    </g>
   </g>
   <g id="line2d_11">
    <path d="M 46.965625 154.551273 
L 52.097697 148.382991 
L 56.680598 146.37209 
L 61.070484 143.037072 
L 65.356496 139.689681 
L 69.391352 140.844755 
L 73.307035 136.26056 
L 77.097204 133.531051 
L 80.588706 131.270127 
L 83.934933 128.125339 
L 87.157952 126.673215 
L 90.388055 125.423581 
L 93.40963 122.181924 
L 96.325423 119.483557 
L 99.179513 116.907456 
L 101.862971 117.156703 
L 104.52638 113.239101 
L 107.030714 113.05561 
L 109.46928 111.681177 
L 111.817241 108.577077 
L 114.141543 107.818229 
L 116.326923 105.615451 
L 118.435224 103.614861 
L 120.509563 101.414989 
L 122.444466 99.553019 
L 124.328231 99.078348 
L 126.194463 95.4859 
L 127.93065 95.407337 
L 129.64269 94.6573 
L 131.318808 93.035061 
L 132.995521 92.265412 
L 134.570648 90.322285 
L 136.103536 89.766775 
L 137.641929 88.440235 
L 139.088998 87.666982 
L 140.490756 85.756115 
L 141.888428 84.745348 
L 143.207823 83.582732 
L 144.502482 82.633505 
L 145.769967 81.860941 
L 147.019889 80.098718 
L 148.187796 78.71146 
L 149.315205 78.16873 
L 150.456373 77.396701 
L 151.524394 75.695875 
L 152.540879 73.976463 
L 153.583713 75.148341 
L 154.566873 71.917802 
L 155.501337 72.682062 
L 156.438039 72.406455 
L 157.406184 72.67431 
L 158.306531 69.714495 
L 159.154746 69.083745 
L 160.036359 70.458306 
L 160.88706 68.878011 
L 161.722131 68.658042 
L 162.546213 66.926294 
L 163.317221 65.79732 
L 164.064948 65.08355 
L 164.789874 64.331882 
L 165.534739 64.827982 
L 166.246886 63.469427 
L 166.928566 62.481466 
" clip-path="url(#p6c62947330)" style="fill: none; stroke: #2ca02c; stroke-width: 0.7; stroke-linecap: square"/>
    <defs>
     <path id="ma7ae6ba49c" d="M 0 0.9 
C 0.238683 0.9 0.467622 0.80517 0.636396 0.636396 
C 0.80517 0.467622 0.9 0.238683 0.9 0 
C 0.9 -0.238683 0.80517 -0.467622 0.636396 -0.636396 
C 0.467622 -0.80517 0.238683 -0.9 0 -0.9 
C -0.238683 -0.9 -0.467622 -0.80517 -0.636396 -0.636396 
C -0.80517 -0.467622 -0.9 -0.238683 -0.9 0 
C -0.9 0.238683 -0.80517 0.467622 -0.636396 0.636396 
C -0.467622 0.80517 -0.238683 0.9 0 0.9 
z
" style="stroke: #2ca02c"/>
    </defs>
    <g clip-path="url(#p6c62947330)">
     <use xlink:href="#ma7ae6ba49c" x="46.965625" y="154.551273" style="fill: #2ca02c; stroke: #2ca02c"/>
     <use xlink:href="#ma7ae6ba49c" x="52.097697" y="148.382991" style="fill: #2ca02c; stroke: #2ca02c"/>
     <use xlink:href="#ma7ae6ba49c" x="56.680598" y="146.37209" style="fill: #2ca02c; stroke: #2ca02c"/>
     <use xlink:href="#ma7ae6ba49c" x="61.070484" y="143.037072" style="fill: #2ca02c; stroke: #2ca02c"/>
     <use xlink:href="#ma7ae6ba49c" x="65.356496" y="139.689681" style="fill: #2ca02c; stroke: #2ca02c"/>
     <use xlink:href="#ma7ae6ba49c" x="69.391352" y="140.844755" style="fill: #2ca02c; stroke: #2ca02c"/>
     <use xlink:href="#ma7ae6ba49c" x="73.307035" y="136.26056" style="fill: #2ca02c; stroke: #2ca02c"/>
     <use xlink:href="#ma7ae6ba49c" x="77.097204" y="133.531051" style="fill: #2ca02c; stroke: #2ca02c"/>
     <use xlink:href="#ma7ae6ba49c" x="80.588706" y="131.270127" style="fill: #2ca02c; stroke: #2ca02c"/>
     <use xlink:href="#ma7ae6ba49c" x="83.934933" y="128.125339" style="fill: #2ca02c; stroke: #2ca02c"/>
     <use xlink:href="#ma7ae6ba49c" x="87.157952" y="126.673215" style="fill: #2ca02c; stroke: #2ca02c"/>
     <use xlink:href="#ma7ae6ba49c" x="90.388055" y="125.423581" style="fill: #2ca02c; stroke: #2ca02c"/>
     <use xlink:href="#ma7ae6ba49c" x="93.40963" y="122.181924" style="fill: #2ca02c; stroke: #2ca02c"/>
     <use xlink:href="#ma7ae6ba49c" x="96.325423" y="119.483557" style="fill: #2ca02c; stroke: #2ca02c"/>
     <use xlink:href="#ma7ae6ba49c" x="99.179513" y="116.907456" style="fill: #2ca02c; stroke: #2ca02c"/>
     <use xlink:href="#ma7ae6ba49c" x="101.862971" y="117.156703" style="fill: #2ca02c; stroke: #2ca02c"/>
     <use xlink:href="#ma7ae6ba49c" x="104.52638" y="113.239101" style="fill: #2ca02c; stroke: #2ca02c"/>
     <use xlink:href="#ma7ae6ba49c" x="107.030714" y="113.05561" style="fill: #2ca02c; stroke: #2ca02c"/>
     <use xlink:href="#ma7ae6ba49c" x="109.46928" y="111.681177" style="fill: #2ca02c; stroke: #2ca02c"/>
     <use xlink:href="#ma7ae6ba49c" x="111.817241" y="108.577077" style="fill: #2ca02c; stroke: #2ca02c"/>
     <use xlink:href="#ma7ae6ba49c" x="114.141543" y="107.818229" style="fill: #2ca02c; stroke: #2ca02c"/>
     <use xlink:href="#ma7ae6ba49c" x="116.326923" y="105.615451" style="fill: #2ca02c; stroke: #2ca02c"/>
     <use xlink:href="#ma7ae6ba49c" x="118.435224" y="103.614861" style="fill: #2ca02c; stroke: #2ca02c"/>
     <use xlink:href="#ma7ae6ba49c" x="120.509563" y="101.414989" style="fill: #2ca02c; stroke: #2ca02c"/>
     <use xlink:href="#ma7ae6ba49c" x="122.444466" y="99.553019" style="fill: #2ca02c; stroke: #2ca02c"/>
     <use xlink:href="#ma7ae6ba49c" x="124.328231" y="99.078348" style="fill: #2ca02c; stroke: #2ca02c"/>
     <use xlink:href="#ma7ae6ba49c" x="126.194463" y="95.4859" style="fill: #2ca02c; stroke: #2ca02c"/>
     <use xlink:href="#ma7ae6ba49c" x="127.93065" y="95.407337" style="fill: #2ca02c; stroke: #2ca02c"/>
     <use xlink:href="#ma7ae6ba49c" x="129.64269" y="94.6573" style="fill: #2ca02c; stroke: #2ca02c"/>
     <use xlink:href="#ma7ae6ba49c" x="131.318808" y="93.035061" style="fill: #2ca02c; stroke: #2ca02c"/>
     <use xlink:href="#ma7ae6ba49c" x="132.995521" y="92.265412" style="fill: #2ca02c; stroke: #2ca02c"/>
     <use xlink:href="#ma7ae6ba49c" x="134.570648" y="90.322285" style="fill: #2ca02c; stroke: #2ca02c"/>
     <use xlink:href="#ma7ae6ba49c" x="136.103536" y="89.766775" style="fill: #2ca02c; stroke: #2ca02c"/>
     <use xlink:href="#ma7ae6ba49c" x="137.641929" y="88.440235" style="fill: #2ca02c; stroke: #2ca02c"/>
     <use xlink:href="#ma7ae6ba49c" x="139.088998" y="87.666982" style="fill: #2ca02c; stroke: #2ca02c"/>
     <use xlink:href="#ma7ae6ba49c" x="140.490756" y="85.756115" style="fill: #2ca02c; stroke: #2ca02c"/>
     <use xlink:href="#ma7ae6ba49c" x="141.888428" y="84.745348" style="fill: #2ca02c; stroke: #2ca02c"/>
     <use xlink:href="#ma7ae6ba49c" x="143.207823" y="83.582732" style="fill: #2ca02c; stroke: #2ca02c"/>
     <use xlink:href="#ma7ae6ba49c" x="144.502482" y="82.633505" style="fill: #2ca02c; stroke: #2ca02c"/>
     <use xlink:href="#ma7ae6ba49c" x="145.769967" y="81.860941" style="fill: #2ca02c; stroke: #2ca02c"/>
     <use xlink:href="#ma7ae6ba49c" x="147.019889" y="80.098718" style="fill: #2ca02c; stroke: #2ca02c"/>
     <use xlink:href="#ma7ae6ba49c" x="148.187796" y="78.71146" style="fill: #2ca02c; stroke: #2ca02c"/>
     <use xlink:href="#ma7ae6ba49c" x="149.315205" y="78.16873" style="fill: #2ca02c; stroke: #2ca02c"/>
     <use xlink:href="#ma7ae6ba49c" x="150.456373" y="77.396701" style="fill: #2ca02c; stroke: #2ca02c"/>
     <use xlink:href="#ma7ae6ba49c" x="151.524394" y="75.695875" style="fill: #2ca02c; stroke: #2ca02c"/>
     <use xlink:href="#ma7ae6ba49c" x="152.540879" y="73.976463" style="fill: #2ca02c; stroke: #2ca02c"/>
     <use xlink:href="#ma7ae6ba49c" x="153.583713" y="75.148341" style="fill: #2ca02c; stroke: #2ca02c"/>
     <use xlink:href="#ma7ae6ba49c" x="154.566873" y="71.917802" style="fill: #2ca02c; stroke: #2ca02c"/>
     <use xlink:href="#ma7ae6ba49c" x="155.501337" y="72.682062" style="fill: #2ca02c; stroke: #2ca02c"/>
     <use xlink:href="#ma7ae6ba49c" x="156.438039" y="72.406455" style="fill: #2ca02c; stroke: #2ca02c"/>
     <use xlink:href="#ma7ae6ba49c" x="157.406184" y="72.67431" style="fill: #2ca02c; stroke: #2ca02c"/>
     <use xlink:href="#ma7ae6ba49c" x="158.306531" y="69.714495" style="fill: #2ca02c; stroke: #2ca02c"/>
     <use xlink:href="#ma7ae6ba49c" x="159.154746" y="69.083745" style="fill: #2ca02c; stroke: #2ca02c"/>
     <use xlink:href="#ma7ae6ba49c" x="160.036359" y="70.458306" style="fill: #2ca02c; stroke: #2ca02c"/>
     <use xlink:href="#ma7ae6ba49c" x="160.88706" y="68.878011" style="fill: #2ca02c; stroke: #2ca02c"/>
     <use xlink:href="#ma7ae6ba49c" x="161.722131" y="68.658042" style="fill: #2ca02c; stroke: #2ca02c"/>
     <use xlink:href="#ma7ae6ba49c" x="162.546213" y="66.926294" style="fill: #2ca02c; stroke: #2ca02c"/>
     <use xlink:href="#ma7ae6ba49c" x="163.317221" y="65.79732" style="fill: #2ca02c; stroke: #2ca02c"/>
     <use xlink:href="#ma7ae6ba49c" x="164.064948" y="65.08355" style="fill: #2ca02c; stroke: #2ca02c"/>
     <use xlink:href="#ma7ae6ba49c" x="164.789874" y="64.331882" style="fill: #2ca02c; stroke: #2ca02c"/>
     <use xlink:href="#ma7ae6ba49c" x="165.534739" y="64.827982" style="fill: #2ca02c; stroke: #2ca02c"/>
     <use xlink:href="#ma7ae6ba49c" x="166.246886" y="63.469427" style="fill: #2ca02c; stroke: #2ca02c"/>
     <use xlink:href="#ma7ae6ba49c" x="166.928566" y="62.481466" style="fill: #2ca02c; stroke: #2ca02c"/>
    </g>
   </g>
   <g id="line2d_12">
    <path d="M 46.965625 154.551273 
L 57.875827 148.506404 
L 67.938871 141.253388 
L 77.529431 135.866521 
L 86.129837 129.176122 
L 94.107657 124.012419 
L 101.545098 119.382065 
L 108.735105 114.992562 
L 115.258691 111.081026 
L 121.381679 107.01535 
L 127.242635 103.48754 
L 132.625854 99.781499 
L 137.679213 95.432405 
L 142.552308 91.946235 
L 147.043824 88.208873 
L 151.229877 85.320431 
L 155.216105 82.571383 
L 159.109073 78.948601 
L 162.719107 76.809921 
L 166.196521 74.441975 
L 169.598344 72.103735 
L 172.727537 69.960077 
L 175.676313 67.552297 
L 178.573425 65.701723 
L 181.2958 64.138619 
L 183.895404 62.110318 
L 186.383966 60.522561 
L 188.816426 57.885283 
L 191.100377 57.329025 
L 193.295958 55.128527 
L 195.493639 55.051684 
L 197.551574 52.345083 
L 199.484288 51.116861 
L 201.379637 49.143865 
L 203.146582 48.32148 
L 204.885717 47.452327 
L 206.606319 44.975292 
L 208.208953 45.010536 
L 209.775891 43.89899 
L 211.268121 41.74856 
L 212.724247 41.220454 
L 214.096676 39.945919 
L 215.425081 39.315602 
L 216.740928 37.912429 
L 217.976326 35.247952 
L 219.201418 36.215441 
L 220.39298 35.418228 
L 221.587522 34.57138 
L 222.708619 34.156877 
L 223.773876 33.29586 
L 224.856667 33.261158 
L 225.900139 32.981928 
L 226.90882 31.796068 
L 227.88593 30.553803 
L 228.81023 30.921969 
L 229.725716 30.010784 
L 230.596786 29.393673 
L 231.456643 29.162086 
L 232.267045 27.194555 
L 233.054457 26.592845 
L 233.853666 26.459705 
L 234.604993 25.309026 
L 235.343013 25.164429 
L 236.084812 24.764754 
L 236.785925 25.257289 
L 237.464264 24.343038 
L 238.12765 24.273825 
L 238.797034 22.70026 
L 239.415426 22.573907 
L 240.029 21.805879 
L 240.644767 21.799109 
L 241.218281 21.109862 
L 241.776058 21.173756 
L 242.345871 21.076396 
L 242.886966 20.454559 
L 243.408903 19.717233 
L 243.917791 19.433436 
L 244.428707 18.801514 
L 244.91927 18.315433 
L 245.393044 18.323751 
L 245.873588 17.690456 
L 246.342012 18.235695 
L 246.812755 17.7935 
L 247.280552 17.483171 
L 247.715269 16.748967 
L 248.15159 16.521362 
L 248.570266 15.686482 
L 248.976296 15.898326 
L 249.374523 15.399169 
L 249.774661 15.631314 
L 250.162146 15.208618 
L 250.515247 14.267259 
L 250.867817 14.728237 
L 251.2469 14.487573 
L 251.620375 14.216727 
" clip-path="url(#p6c62947330)" style="fill: none; stroke: #d62728; stroke-width: 0.7; stroke-linecap: square"/>
    <defs>
     <path id="mdd5881e5f7" d="M 0 0.9 
C 0.238683 0.9 0.467622 0.80517 0.636396 0.636396 
C 0.80517 0.467622 0.9 0.238683 0.9 0 
C 0.9 -0.238683 0.80517 -0.467622 0.636396 -0.636396 
C 0.467622 -0.80517 0.238683 -0.9 0 -0.9 
C -0.238683 -0.9 -0.467622 -0.80517 -0.636396 -0.636396 
C -0.80517 -0.467622 -0.9 -0.238683 -0.9 0 
C -0.9 0.238683 -0.80517 0.467622 -0.636396 0.636396 
C -0.467622 0.80517 -0.238683 0.9 0 0.9 
z
" style="stroke: #d62728"/>
    </defs>
    <g clip-path="url(#p6c62947330)">
     <use xlink:href="#mdd5881e5f7" x="46.965625" y="154.551273" style="fill: #d62728; stroke: #d62728"/>
     <use xlink:href="#mdd5881e5f7" x="57.875827" y="148.506404" style="fill: #d62728; stroke: #d62728"/>
     <use xlink:href="#mdd5881e5f7" x="67.938871" y="141.253388" style="fill: #d62728; stroke: #d62728"/>
     <use xlink:href="#mdd5881e5f7" x="77.529431" y="135.866521" style="fill: #d62728; stroke: #d62728"/>
     <use xlink:href="#mdd5881e5f7" x="86.129837" y="129.176122" style="fill: #d62728; stroke: #d62728"/>
     <use xlink:href="#mdd5881e5f7" x="94.107657" y="124.012419" style="fill: #d62728; stroke: #d62728"/>
     <use xlink:href="#mdd5881e5f7" x="101.545098" y="119.382065" style="fill: #d62728; stroke: #d62728"/>
     <use xlink:href="#mdd5881e5f7" x="108.735105" y="114.992562" style="fill: #d62728; stroke: #d62728"/>
     <use xlink:href="#mdd5881e5f7" x="115.258691" y="111.081026" style="fill: #d62728; stroke: #d62728"/>
     <use xlink:href="#mdd5881e5f7" x="121.381679" y="107.01535" style="fill: #d62728; stroke: #d62728"/>
     <use xlink:href="#mdd5881e5f7" x="127.242635" y="103.48754" style="fill: #d62728; stroke: #d62728"/>
     <use xlink:href="#mdd5881e5f7" x="132.625854" y="99.781499" style="fill: #d62728; stroke: #d62728"/>
     <use xlink:href="#mdd5881e5f7" x="137.679213" y="95.432405" style="fill: #d62728; stroke: #d62728"/>
     <use xlink:href="#mdd5881e5f7" x="142.552308" y="91.946235" style="fill: #d62728; stroke: #d62728"/>
     <use xlink:href="#mdd5881e5f7" x="147.043824" y="88.208873" style="fill: #d62728; stroke: #d62728"/>
     <use xlink:href="#mdd5881e5f7" x="151.229877" y="85.320431" style="fill: #d62728; stroke: #d62728"/>
     <use xlink:href="#mdd5881e5f7" x="155.216105" y="82.571383" style="fill: #d62728; stroke: #d62728"/>
     <use xlink:href="#mdd5881e5f7" x="159.109073" y="78.948601" style="fill: #d62728; stroke: #d62728"/>
     <use xlink:href="#mdd5881e5f7" x="162.719107" y="76.809921" style="fill: #d62728; stroke: #d62728"/>
     <use xlink:href="#mdd5881e5f7" x="166.196521" y="74.441975" style="fill: #d62728; stroke: #d62728"/>
     <use xlink:href="#mdd5881e5f7" x="169.598344" y="72.103735" style="fill: #d62728; stroke: #d62728"/>
     <use xlink:href="#mdd5881e5f7" x="172.727537" y="69.960077" style="fill: #d62728; stroke: #d62728"/>
     <use xlink:href="#mdd5881e5f7" x="175.676313" y="67.552297" style="fill: #d62728; stroke: #d62728"/>
     <use xlink:href="#mdd5881e5f7" x="178.573425" y="65.701723" style="fill: #d62728; stroke: #d62728"/>
     <use xlink:href="#mdd5881e5f7" x="181.2958" y="64.138619" style="fill: #d62728; stroke: #d62728"/>
     <use xlink:href="#mdd5881e5f7" x="183.895404" y="62.110318" style="fill: #d62728; stroke: #d62728"/>
     <use xlink:href="#mdd5881e5f7" x="186.383966" y="60.522561" style="fill: #d62728; stroke: #d62728"/>
     <use xlink:href="#mdd5881e5f7" x="188.816426" y="57.885283" style="fill: #d62728; stroke: #d62728"/>
     <use xlink:href="#mdd5881e5f7" x="191.100377" y="57.329025" style="fill: #d62728; stroke: #d62728"/>
     <use xlink:href="#mdd5881e5f7" x="193.295958" y="55.128527" style="fill: #d62728; stroke: #d62728"/>
     <use xlink:href="#mdd5881e5f7" x="195.493639" y="55.051684" style="fill: #d62728; stroke: #d62728"/>
     <use xlink:href="#mdd5881e5f7" x="197.551574" y="52.345083" style="fill: #d62728; stroke: #d62728"/>
     <use xlink:href="#mdd5881e5f7" x="199.484288" y="51.116861" style="fill: #d62728; stroke: #d62728"/>
     <use xlink:href="#mdd5881e5f7" x="201.379637" y="49.143865" style="fill: #d62728; stroke: #d62728"/>
     <use xlink:href="#mdd5881e5f7" x="203.146582" y="48.32148" style="fill: #d62728; stroke: #d62728"/>
     <use xlink:href="#mdd5881e5f7" x="204.885717" y="47.452327" style="fill: #d62728; stroke: #d62728"/>
     <use xlink:href="#mdd5881e5f7" x="206.606319" y="44.975292" style="fill: #d62728; stroke: #d62728"/>
     <use xlink:href="#mdd5881e5f7" x="208.208953" y="45.010536" style="fill: #d62728; stroke: #d62728"/>
     <use xlink:href="#mdd5881e5f7" x="209.775891" y="43.89899" style="fill: #d62728; stroke: #d62728"/>
     <use xlink:href="#mdd5881e5f7" x="211.268121" y="41.74856" style="fill: #d62728; stroke: #d62728"/>
     <use xlink:href="#mdd5881e5f7" x="212.724247" y="41.220454" style="fill: #d62728; stroke: #d62728"/>
     <use xlink:href="#mdd5881e5f7" x="214.096676" y="39.945919" style="fill: #d62728; stroke: #d62728"/>
     <use xlink:href="#mdd5881e5f7" x="215.425081" y="39.315602" style="fill: #d62728; stroke: #d62728"/>
     <use xlink:href="#mdd5881e5f7" x="216.740928" y="37.912429" style="fill: #d62728; stroke: #d62728"/>
     <use xlink:href="#mdd5881e5f7" x="217.976326" y="35.247952" style="fill: #d62728; stroke: #d62728"/>
     <use xlink:href="#mdd5881e5f7" x="219.201418" y="36.215441" style="fill: #d62728; stroke: #d62728"/>
     <use xlink:href="#mdd5881e5f7" x="220.39298" y="35.418228" style="fill: #d62728; stroke: #d62728"/>
     <use xlink:href="#mdd5881e5f7" x="221.587522" y="34.57138" style="fill: #d62728; stroke: #d62728"/>
     <use xlink:href="#mdd5881e5f7" x="222.708619" y="34.156877" style="fill: #d62728; stroke: #d62728"/>
     <use xlink:href="#mdd5881e5f7" x="223.773876" y="33.29586" style="fill: #d62728; stroke: #d62728"/>
     <use xlink:href="#mdd5881e5f7" x="224.856667" y="33.261158" style="fill: #d62728; stroke: #d62728"/>
     <use xlink:href="#mdd5881e5f7" x="225.900139" y="32.981928" style="fill: #d62728; stroke: #d62728"/>
     <use xlink:href="#mdd5881e5f7" x="226.90882" y="31.796068" style="fill: #d62728; stroke: #d62728"/>
     <use xlink:href="#mdd5881e5f7" x="227.88593" y="30.553803" style="fill: #d62728; stroke: #d62728"/>
     <use xlink:href="#mdd5881e5f7" x="228.81023" y="30.921969" style="fill: #d62728; stroke: #d62728"/>
     <use xlink:href="#mdd5881e5f7" x="229.725716" y="30.010784" style="fill: #d62728; stroke: #d62728"/>
     <use xlink:href="#mdd5881e5f7" x="230.596786" y="29.393673" style="fill: #d62728; stroke: #d62728"/>
     <use xlink:href="#mdd5881e5f7" x="231.456643" y="29.162086" style="fill: #d62728; stroke: #d62728"/>
     <use xlink:href="#mdd5881e5f7" x="232.267045" y="27.194555" style="fill: #d62728; stroke: #d62728"/>
     <use xlink:href="#mdd5881e5f7" x="233.054457" y="26.592845" style="fill: #d62728; stroke: #d62728"/>
     <use xlink:href="#mdd5881e5f7" x="233.853666" y="26.459705" style="fill: #d62728; stroke: #d62728"/>
     <use xlink:href="#mdd5881e5f7" x="234.604993" y="25.309026" style="fill: #d62728; stroke: #d62728"/>
     <use xlink:href="#mdd5881e5f7" x="235.343013" y="25.164429" style="fill: #d62728; stroke: #d62728"/>
     <use xlink:href="#mdd5881e5f7" x="236.084812" y="24.764754" style="fill: #d62728; stroke: #d62728"/>
     <use xlink:href="#mdd5881e5f7" x="236.785925" y="25.257289" style="fill: #d62728; stroke: #d62728"/>
     <use xlink:href="#mdd5881e5f7" x="237.464264" y="24.343038" style="fill: #d62728; stroke: #d62728"/>
     <use xlink:href="#mdd5881e5f7" x="238.12765" y="24.273825" style="fill: #d62728; stroke: #d62728"/>
     <use xlink:href="#mdd5881e5f7" x="238.797034" y="22.70026" style="fill: #d62728; stroke: #d62728"/>
     <use xlink:href="#mdd5881e5f7" x="239.415426" y="22.573907" style="fill: #d62728; stroke: #d62728"/>
     <use xlink:href="#mdd5881e5f7" x="240.029" y="21.805879" style="fill: #d62728; stroke: #d62728"/>
     <use xlink:href="#mdd5881e5f7" x="240.644767" y="21.799109" style="fill: #d62728; stroke: #d62728"/>
     <use xlink:href="#mdd5881e5f7" x="241.218281" y="21.109862" style="fill: #d62728; stroke: #d62728"/>
     <use xlink:href="#mdd5881e5f7" x="241.776058" y="21.173756" style="fill: #d62728; stroke: #d62728"/>
     <use xlink:href="#mdd5881e5f7" x="242.345871" y="21.076396" style="fill: #d62728; stroke: #d62728"/>
     <use xlink:href="#mdd5881e5f7" x="242.886966" y="20.454559" style="fill: #d62728; stroke: #d62728"/>
     <use xlink:href="#mdd5881e5f7" x="243.408903" y="19.717233" style="fill: #d62728; stroke: #d62728"/>
     <use xlink:href="#mdd5881e5f7" x="243.917791" y="19.433436" style="fill: #d62728; stroke: #d62728"/>
     <use xlink:href="#mdd5881e5f7" x="244.428707" y="18.801514" style="fill: #d62728; stroke: #d62728"/>
     <use xlink:href="#mdd5881e5f7" x="244.91927" y="18.315433" style="fill: #d62728; stroke: #d62728"/>
     <use xlink:href="#mdd5881e5f7" x="245.393044" y="18.323751" style="fill: #d62728; stroke: #d62728"/>
     <use xlink:href="#mdd5881e5f7" x="245.873588" y="17.690456" style="fill: #d62728; stroke: #d62728"/>
     <use xlink:href="#mdd5881e5f7" x="246.342012" y="18.235695" style="fill: #d62728; stroke: #d62728"/>
     <use xlink:href="#mdd5881e5f7" x="246.812755" y="17.7935" style="fill: #d62728; stroke: #d62728"/>
     <use xlink:href="#mdd5881e5f7" x="247.280552" y="17.483171" style="fill: #d62728; stroke: #d62728"/>
     <use xlink:href="#mdd5881e5f7" x="247.715269" y="16.748967" style="fill: #d62728; stroke: #d62728"/>
     <use xlink:href="#mdd5881e5f7" x="248.15159" y="16.521362" style="fill: #d62728; stroke: #d62728"/>
     <use xlink:href="#mdd5881e5f7" x="248.570266" y="15.686482" style="fill: #d62728; stroke: #d62728"/>
     <use xlink:href="#mdd5881e5f7" x="248.976296" y="15.898326" style="fill: #d62728; stroke: #d62728"/>
     <use xlink:href="#mdd5881e5f7" x="249.374523" y="15.399169" style="fill: #d62728; stroke: #d62728"/>
     <use xlink:href="#mdd5881e5f7" x="249.774661" y="15.631314" style="fill: #d62728; stroke: #d62728"/>
     <use xlink:href="#mdd5881e5f7" x="250.162146" y="15.208618" style="fill: #d62728; stroke: #d62728"/>
     <use xlink:href="#mdd5881e5f7" x="250.515247" y="14.267259" style="fill: #d62728; stroke: #d62728"/>
     <use xlink:href="#mdd5881e5f7" x="250.867817" y="14.728237" style="fill: #d62728; stroke: #d62728"/>
     <use xlink:href="#mdd5881e5f7" x="251.2469" y="14.487573" style="fill: #d62728; stroke: #d62728"/>
     <use xlink:href="#mdd5881e5f7" x="251.620375" y="14.216727" style="fill: #d62728; stroke: #d62728"/>
    </g>
   </g>
   <g id="patch_3">
    <path d="M 46.965625 161.568 
L 46.965625 7.2 
" style="fill: none; stroke: #000000; stroke-width: 0.8; stroke-linejoin: miter; stroke-linecap: square"/>
   </g>
   <g id="patch_4">
    <path d="M 261.853113 161.568 
L 261.853113 7.2 
" style="fill: none; stroke: #000000; stroke-width: 0.8; stroke-linejoin: miter; stroke-linecap: square"/>
   </g>
   <g id="patch_5">
    <path d="M 46.965625 161.568 
L 261.853113 161.568 
" style="fill: none; stroke: #000000; stroke-width: 0.8; stroke-linejoin: miter; stroke-linecap: square"/>
   </g>
   <g id="patch_6">
    <path d="M 46.965625 7.2 
L 261.853113 7.2 
" style="fill: none; stroke: #000000; stroke-width: 0.8; stroke-linejoin: miter; stroke-linecap: square"/>
   </g>
   <g id="legend_1">
    <g id="patch_7">
     <path d="M 268.853113 115.24025 
L 351.68905 115.24025 
Q 353.68905 115.24025 353.68905 113.24025 
L 353.68905 55.52775 
Q 353.68905 53.52775 351.68905 53.52775 
L 268.853113 53.52775 
Q 266.853113 53.52775 266.853113 55.52775 
L 266.853113 113.24025 
Q 266.853113 115.24025 268.853113 115.24025 
z
" style="fill: #ffffff; opacity: 0.8; stroke: #cccccc; stroke-linejoin: miter"/>
    </g>
    <g id="line2d_13">
     <path d="M 270.853113 61.626187 
L 280.853113 61.626187 
L 290.853113 61.626187 
" style="fill: none; stroke: #1f77b4; stroke-width: 0.7; stroke-linecap: square"/>
     <g>
      <use xlink:href="#ma0be57d8af" x="280.853113" y="61.626187" style="fill: #1f77b4; stroke: #1f77b4"/>
     </g>
    </g>
    <g id="text_12">
     <!-- Addition 1 -->
     <g transform="translate(298.853113 65.126187) scale(0.1 -0.1)">
      <defs>
       <path id="DejaVuSans-41" d="M 2188 4044 
L 1331 1722 
L 3047 1722 
L 2188 4044 
z
M 1831 4666 
L 2547 4666 
L 4325 0 
L 3669 0 
L 3244 1197 
L 1141 1197 
L 716 0 
L 50 0 
L 1831 4666 
z
" transform="scale(0.015625)"/>
       <path id="DejaVuSans-6e" d="M 3513 2113 
L 3513 0 
L 2938 0 
L 2938 2094 
Q 2938 2591 2744 2837 
Q 2550 3084 2163 3084 
Q 1697 3084 1428 2787 
Q 1159 2491 1159 1978 
L 1159 0 
L 581 0 
L 581 3500 
L 1159 3500 
L 1159 2956 
Q 1366 3272 1645 3428 
Q 1925 3584 2291 3584 
Q 2894 3584 3203 3211 
Q 3513 2838 3513 2113 
z
" transform="scale(0.015625)"/>
      </defs>
      <use xlink:href="#DejaVuSans-41"/>
      <use xlink:href="#DejaVuSans-64" transform="translate(66.658203 0)"/>
      <use xlink:href="#DejaVuSans-64" transform="translate(130.134766 0)"/>
      <use xlink:href="#DejaVuSans-69" transform="translate(193.611328 0)"/>
      <use xlink:href="#DejaVuSans-74" transform="translate(221.394531 0)"/>
      <use xlink:href="#DejaVuSans-69" transform="translate(260.603516 0)"/>
      <use xlink:href="#DejaVuSans-6f" transform="translate(288.386719 0)"/>
      <use xlink:href="#DejaVuSans-6e" transform="translate(349.568359 0)"/>
      <use xlink:href="#DejaVuSans-20" transform="translate(412.947266 0)"/>
      <use xlink:href="#DejaVuSans-31" transform="translate(444.734375 0)"/>
     </g>
    </g>
    <g id="line2d_14">
     <path d="M 270.853113 76.304312 
L 280.853113 76.304312 
L 290.853113 76.304312 
" style="fill: none; stroke: #ff7f0e; stroke-width: 0.7; stroke-linecap: square"/>
     <g>
      <use xlink:href="#mf6588911a4" x="280.853113" y="76.304312" style="fill: #ff7f0e; stroke: #ff7f0e"/>
     </g>
    </g>
    <g id="text_13">
     <!-- Addition 2 -->
     <g transform="translate(298.853113 79.804312) scale(0.1 -0.1)">
      <use xlink:href="#DejaVuSans-41"/>
      <use xlink:href="#DejaVuSans-64" transform="translate(66.658203 0)"/>
      <use xlink:href="#DejaVuSans-64" transform="translate(130.134766 0)"/>
      <use xlink:href="#DejaVuSans-69" transform="translate(193.611328 0)"/>
      <use xlink:href="#DejaVuSans-74" transform="translate(221.394531 0)"/>
      <use xlink:href="#DejaVuSans-69" transform="translate(260.603516 0)"/>
      <use xlink:href="#DejaVuSans-6f" transform="translate(288.386719 0)"/>
      <use xlink:href="#DejaVuSans-6e" transform="translate(349.568359 0)"/>
      <use xlink:href="#DejaVuSans-20" transform="translate(412.947266 0)"/>
      <use xlink:href="#DejaVuSans-32" transform="translate(444.734375 0)"/>
     </g>
    </g>
    <g id="line2d_15">
     <path d="M 270.853113 90.982437 
L 280.853113 90.982437 
L 290.853113 90.982437 
" style="fill: none; stroke: #2ca02c; stroke-width: 0.7; stroke-linecap: square"/>
     <g>
      <use xlink:href="#ma7ae6ba49c" x="280.853113" y="90.982437" style="fill: #2ca02c; stroke: #2ca02c"/>
     </g>
    </g>
    <g id="text_14">
     <!-- Addition 3 -->
     <g transform="translate(298.853113 94.482437) scale(0.1 -0.1)">
      <use xlink:href="#DejaVuSans-41"/>
      <use xlink:href="#DejaVuSans-64" transform="translate(66.658203 0)"/>
      <use xlink:href="#DejaVuSans-64" transform="translate(130.134766 0)"/>
      <use xlink:href="#DejaVuSans-69" transform="translate(193.611328 0)"/>
      <use xlink:href="#DejaVuSans-74" transform="translate(221.394531 0)"/>
      <use xlink:href="#DejaVuSans-69" transform="translate(260.603516 0)"/>
      <use xlink:href="#DejaVuSans-6f" transform="translate(288.386719 0)"/>
      <use xlink:href="#DejaVuSans-6e" transform="translate(349.568359 0)"/>
      <use xlink:href="#DejaVuSans-20" transform="translate(412.947266 0)"/>
      <use xlink:href="#DejaVuSans-33" transform="translate(444.734375 0)"/>
     </g>
    </g>
    <g id="line2d_16">
     <path d="M 270.853113 105.660562 
L 280.853113 105.660562 
L 290.853113 105.660562 
" style="fill: none; stroke: #d62728; stroke-width: 0.7; stroke-linecap: square"/>
     <g>
      <use xlink:href="#mdd5881e5f7" x="280.853113" y="105.660562" style="fill: #d62728; stroke: #d62728"/>
     </g>
    </g>
    <g id="text_15">
     <!-- Addition 4 -->
     <g transform="translate(298.853113 109.160562) scale(0.1 -0.1)">
      <defs>
       <path id="DejaVuSans-34" d="M 2419 4116 
L 825 1625 
L 2419 1625 
L 2419 4116 
z
M 2253 4666 
L 3047 4666 
L 3047 1625 
L 3713 1625 
L 3713 1100 
L 3047 1100 
L 3047 0 
L 2419 0 
L 2419 1100 
L 313 1100 
L 313 1709 
L 2253 4666 
z
" transform="scale(0.015625)"/>
      </defs>
      <use xlink:href="#DejaVuSans-41"/>
      <use xlink:href="#DejaVuSans-64" transform="translate(66.658203 0)"/>
      <use xlink:href="#DejaVuSans-64" transform="translate(130.134766 0)"/>
      <use xlink:href="#DejaVuSans-69" transform="translate(193.611328 0)"/>
      <use xlink:href="#DejaVuSans-74" transform="translate(221.394531 0)"/>
      <use xlink:href="#DejaVuSans-69" transform="translate(260.603516 0)"/>
      <use xlink:href="#DejaVuSans-6f" transform="translate(288.386719 0)"/>
      <use xlink:href="#DejaVuSans-6e" transform="translate(349.568359 0)"/>
      <use xlink:href="#DejaVuSans-20" transform="translate(412.947266 0)"/>
      <use xlink:href="#DejaVuSans-34" transform="translate(444.734375 0)"/>
     </g>
    </g>
   </g>
  </g>
 </g>
 <defs>
  <clipPath id="p6c62947330">
   <rect x="46.965625" y="7.2" width="214.887487" height="154.368"/>
  </clipPath>
 </defs>
</svg>
