<?xml version="1.0" encoding="utf-8" standalone="no"?>
<!DOCTYPE svg PUBLIC "-//W3C//DTD SVG 1.1//EN"
  "http://www.w3.org/Graphics/SVG/1.1/DTD/svg11.dtd">
<svg xmlns:xlink="http://www.w3.org/1999/xlink" width="354.52655pt" height="213.544562pt" viewBox="0 0 354.52655 213.544562" xmlns="http://www.w3.org/2000/svg" version="1.1">
 <metadata>
  <rdf:RDF xmlns:dc="http://purl.org/dc/elements/1.1/" xmlns:cc="http://creativecommons.org/ns#" xmlns:rdf="http://www.w3.org/1999/02/22-rdf-syntax-ns#">
   <cc:Work>
    <dc:type rdf:resource="http://purl.org/dc/dcmitype/StillImage"/>
    <dc:date>2026-01-13T17:04:17.071135</dc:date>
    <dc:format>image/svg+xml</dc:format>
    <dc:creator>
     <cc:Agent>
      <dc:title>Matplotlib v3.10.0, https://matplotlib.org/</dc:title>
     </cc:Agent>
    </dc:creator>
   </cc:Work>
  </rdf:RDF>
 </metadata>
 <defs>
  <style type="text/css">*{stroke-linejoin: round; stroke-linecap: butt}</style>
 </defs>
 <g id="figure_1">
  <g id="patch_1">
   <path d="M 0 213.544562 
L 354.52655 213.544562 
L 354.52655 0 
L 0 0 
z
" style="fill: #ffffff"/>
  </g>
  <g id="axes_1">
   <g id="patch_2">
    <path d="M 40.603125 175.166437 
L 255.490612 175.166437 
L 255.490612 20.798438 
L 40.603125 20.798438 
z
" style="fill: #ffffff"/>
   </g>
   <g id="matplotlib.axis_1">
    <g id="xtick_1">
     <g id="line2d_1">
      <defs>
       <path id="mb1d0e37a9e" d="M 0 0 
L 0 3.5 
" style="stroke: #000000; stroke-width: 0.8"/>
      </defs>
      <g>
       <use xlink:href="#mb1d0e37a9e" x="40.603125" y="175.166437" style="stroke: #000000; stroke-width: 0.8"/>
      </g>
     </g>
     <g id="text_1">
      <!-- 0.0 -->
      <g transform="translate(32.651563 189.764875) scale(0.1 -0.1)">
       <defs>
        <path id="DejaVuSans-30" d="M 2034 4250 
Q 1547 4250 1301 3770 
Q 1056 3291 1056 2328 
Q 1056 1369 1301 889 
Q 1547 409 2034 409 
Q 2525 409 2770 889 
Q 3016 1369 3016 2328 
Q 3016 3291 2770 3770 
Q 2525 4250 2034 4250 
z
M 2034 4750 
Q 2819 4750 3233 4129 
Q 3647 3509 3647 2328 
Q 3647 1150 3233 529 
Q 2819 -91 2034 -91 
Q 1250 -91 836 529 
Q 422 1150 422 2328 
Q 422 3509 836 4129 
Q 1250 4750 2034 4750 
z
" transform="scale(0.015625)"/>
        <path id="DejaVuSans-2e" d="M 684 794 
L 1344 794 
L 1344 0 
L 684 0 
L 684 794 
z
" transform="scale(0.015625)"/>
       </defs>
       <use xlink:href="#DejaVuSans-30"/>
       <use xlink:href="#DejaVuSans-2e" transform="translate(63.623047 0)"/>
       <use xlink:href="#DejaVuSans-30" transform="translate(95.410156 0)"/>
      </g>
     </g>
    </g>
    <g id="xtick_2">
     <g id="line2d_2">
      <g>
       <use xlink:href="#mb1d0e37a9e" x="98.227407" y="175.166437" style="stroke: #000000; stroke-width: 0.8"/>
      </g>
     </g>
     <g id="text_2">
      <!-- 0.5 -->
      <g transform="translate(90.275844 189.764875) scale(0.1 -0.1)">
       <defs>
        <path id="DejaVuSans-35" d="M 691 4666 
L 3169 4666 
L 3169 4134 
L 1269 4134 
L 1269 2991 
Q 1406 3038 1543 3061 
Q 1681 3084 1819 3084 
Q 2600 3084 3056 2656 
Q 3513 2228 3513 1497 
Q 3513 744 3044 326 
Q 2575 -91 1722 -91 
Q 1428 -91 1123 -41 
Q 819 9 494 109 
L 494 744 
Q 775 591 1075 516 
Q 1375 441 1709 441 
Q 2250 441 2565 725 
Q 2881 1009 2881 1497 
Q 2881 1984 2565 2268 
Q 2250 2553 1709 2553 
Q 1456 2553 1204 2497 
Q 953 2441 691 2322 
L 691 4666 
z
" transform="scale(0.015625)"/>
       </defs>
       <use xlink:href="#DejaVuSans-30"/>
       <use xlink:href="#DejaVuSans-2e" transform="translate(63.623047 0)"/>
       <use xlink:href="#DejaVuSans-35" transform="translate(95.410156 0)"/>
      </g>
     </g>
    </g>
    <g id="xtick_3">
     <g id="line2d_3">
      <g>
       <use xlink:href="#mb1d0e37a9e" x="155.851689" y="175.166437" style="stroke: #000000; stroke-width: 0.8"/>
      </g>
     </g>
     <g id="text_3">
      <!-- 1.0 -->
      <g transform="translate(147.900126 189.764875) scale(0.1 -0.1)">
       <defs>
        <path id="DejaVuSans-31" d="M 794 531 
L 1825 531 
L 1825 4091 
L 703 3866 
L 703 4441 
L 1819 4666 
L 2450 4666 
L 2450 531 
L 3481 531 
L 3481 0 
L 794 0 
L 794 531 
z
" transform="scale(0.015625)"/>
       </defs>
       <use xlink:href="#DejaVuSans-31"/>
       <use xlink:href="#DejaVuSans-2e" transform="translate(63.623047 0)"/>
       <use xlink:href="#DejaVuSans-30" transform="translate(95.410156 0)"/>
      </g>
     </g>
    </g>
    <g id="xtick_4">
     <g id="line2d_4">
      <g>
       <use xlink:href="#mb1d0e37a9e" x="213.475971" y="175.166437" style="stroke: #000000; stroke-width: 0.8"/>
      </g>
     </g>
     <g id="text_4">
      <!-- 1.5 -->
      <g transform="translate(205.524408 189.764875) scale(0.1 -0.1)">
       <use xlink:href="#DejaVuSans-31"/>
       <use xlink:href="#DejaVuSans-2e" transform="translate(63.623047 0)"/>
       <use xlink:href="#DejaVuSans-35" transform="translate(95.410156 0)"/>
      </g>
     </g>
    </g>
    <g id="text_5">
     <!-- $Σ[Amine]^{0.00}[Phenol]^{0.00}[ArOPh]^{0.00}Δt$. -->
     <g transform="translate(53.846869 204.264875) scale(0.1 -0.1)">
      <defs>
       <path id="DejaVuSans-3a3" d="M 1353 531 
L 3634 531 
L 3634 0 
L 628 0 
L 628 531 
L 2125 2481 
L 628 4134 
L 628 4666 
L 3578 4666 
L 3578 4134 
L 1353 4134 
L 2850 2494 
L 1353 531 
z
" transform="scale(0.015625)"/>
       <path id="DejaVuSans-5b" d="M 550 4863 
L 1875 4863 
L 1875 4416 
L 1125 4416 
L 1125 -397 
L 1875 -397 
L 1875 -844 
L 550 -844 
L 550 4863 
z
" transform="scale(0.015625)"/>
       <path id="DejaVuSans-Oblique-41" d="M 2356 4666 
L 3072 4666 
L 3938 0 
L 3278 0 
L 3084 1197 
L 984 1197 
L 325 0 
L -341 0 
L 2356 4666 
z
M 2584 4044 
L 1275 1722 
L 2988 1722 
L 2584 4044 
z
" transform="scale(0.015625)"/>
       <path id="DejaVuSans-Oblique-6d" d="M 5747 2113 
L 5338 0 
L 4763 0 
L 5166 2094 
Q 5191 2228 5203 2325 
Q 5216 2422 5216 2491 
Q 5216 2772 5059 2928 
Q 4903 3084 4622 3084 
Q 4203 3084 3875 2770 
Q 3547 2456 3450 1953 
L 3066 0 
L 2491 0 
L 2900 2094 
Q 2925 2209 2937 2307 
Q 2950 2406 2950 2484 
Q 2950 2769 2794 2926 
Q 2638 3084 2363 3084 
Q 1938 3084 1609 2770 
Q 1281 2456 1184 1953 
L 800 0 
L 225 0 
L 909 3500 
L 1484 3500 
L 1375 2956 
Q 1609 3263 1923 3423 
Q 2238 3584 2597 3584 
Q 2978 3584 3223 3384 
Q 3469 3184 3519 2828 
Q 3781 3197 4126 3390 
Q 4472 3584 4856 3584 
Q 5306 3584 5551 3325 
Q 5797 3066 5797 2591 
Q 5797 2488 5784 2364 
Q 5772 2241 5747 2113 
z
" transform="scale(0.015625)"/>
       <path id="DejaVuSans-Oblique-69" d="M 1172 4863 
L 1747 4863 
L 1606 4134 
L 1031 4134 
L 1172 4863 
z
M 909 3500 
L 1484 3500 
L 800 0 
L 225 0 
L 909 3500 
z
" transform="scale(0.015625)"/>
       <path id="DejaVuSans-Oblique-6e" d="M 3566 2113 
L 3156 0 
L 2578 0 
L 2988 2091 
Q 3016 2238 3031 2350 
Q 3047 2463 3047 2528 
Q 3047 2791 2881 2937 
Q 2716 3084 2419 3084 
Q 1956 3084 1622 2776 
Q 1288 2469 1184 1941 
L 800 0 
L 225 0 
L 903 3500 
L 1478 3500 
L 1363 2950 
Q 1603 3253 1940 3418 
Q 2278 3584 2650 3584 
Q 3113 3584 3367 3334 
Q 3622 3084 3622 2631 
Q 3622 2519 3608 2391 
Q 3594 2263 3566 2113 
z
" transform="scale(0.015625)"/>
       <path id="DejaVuSans-Oblique-65" d="M 3078 2063 
Q 3088 2113 3092 2166 
Q 3097 2219 3097 2272 
Q 3097 2653 2873 2875 
Q 2650 3097 2266 3097 
Q 1838 3097 1509 2826 
Q 1181 2556 1013 2059 
L 3078 2063 
z
M 3578 1613 
L 903 1613 
Q 884 1494 878 1425 
Q 872 1356 872 1306 
Q 872 872 1139 634 
Q 1406 397 1894 397 
Q 2269 397 2603 481 
Q 2938 566 3225 728 
L 3116 159 
Q 2806 34 2476 -28 
Q 2147 -91 1806 -91 
Q 1078 -91 686 257 
Q 294 606 294 1247 
Q 294 1794 489 2264 
Q 684 2734 1063 3103 
Q 1306 3334 1642 3459 
Q 1978 3584 2356 3584 
Q 2950 3584 3301 3228 
Q 3653 2872 3653 2272 
Q 3653 2128 3634 1964 
Q 3616 1800 3578 1613 
z
" transform="scale(0.015625)"/>
       <path id="DejaVuSans-5d" d="M 1947 4863 
L 1947 -844 
L 622 -844 
L 622 -397 
L 1369 -397 
L 1369 4416 
L 622 4416 
L 622 4863 
L 1947 4863 
z
" transform="scale(0.015625)"/>
       <path id="DejaVuSans-Oblique-50" d="M 1081 4666 
L 2541 4666 
Q 3178 4666 3512 4369 
Q 3847 4072 3847 3500 
Q 3847 2731 3353 2303 
Q 2859 1875 1966 1875 
L 1172 1875 
L 806 0 
L 172 0 
L 1081 4666 
z
M 1613 4147 
L 1275 2394 
L 2069 2394 
Q 2606 2394 2893 2669 
Q 3181 2944 3181 3456 
Q 3181 3784 2986 3965 
Q 2791 4147 2438 4147 
L 1613 4147 
z
" transform="scale(0.015625)"/>
       <path id="DejaVuSans-Oblique-68" d="M 3566 2113 
L 3156 0 
L 2578 0 
L 2988 2091 
Q 3016 2238 3031 2350 
Q 3047 2463 3047 2528 
Q 3047 2791 2881 2937 
Q 2716 3084 2419 3084 
Q 1956 3084 1617 2771 
Q 1278 2459 1178 1941 
L 800 0 
L 225 0 
L 1172 4863 
L 1747 4863 
L 1375 2950 
Q 1594 3244 1934 3414 
Q 2275 3584 2650 3584 
Q 3113 3584 3367 3334 
Q 3622 3084 3622 2631 
Q 3622 2519 3608 2391 
Q 3594 2263 3566 2113 
z
" transform="scale(0.015625)"/>
       <path id="DejaVuSans-Oblique-6f" d="M 1625 -91 
Q 1009 -91 651 289 
Q 294 669 294 1325 
Q 294 1706 417 2101 
Q 541 2497 738 2766 
Q 1047 3184 1428 3384 
Q 1809 3584 2291 3584 
Q 2888 3584 3255 3212 
Q 3622 2841 3622 2241 
Q 3622 1825 3500 1412 
Q 3378 1000 3181 728 
Q 2875 309 2494 109 
Q 2113 -91 1625 -91 
z
M 891 1344 
Q 891 869 1089 633 
Q 1288 397 1691 397 
Q 2269 397 2648 901 
Q 3028 1406 3028 2181 
Q 3028 2634 2825 2865 
Q 2622 3097 2228 3097 
Q 1903 3097 1650 2945 
Q 1397 2794 1197 2484 
Q 1050 2253 970 1956 
Q 891 1659 891 1344 
z
" transform="scale(0.015625)"/>
       <path id="DejaVuSans-Oblique-6c" d="M 1172 4863 
L 1747 4863 
L 800 0 
L 225 0 
L 1172 4863 
z
" transform="scale(0.015625)"/>
       <path id="DejaVuSans-Oblique-72" d="M 2853 2969 
Q 2766 3016 2653 3041 
Q 2541 3066 2413 3066 
Q 1953 3066 1609 2717 
Q 1266 2369 1153 1784 
L 800 0 
L 225 0 
L 909 3500 
L 1484 3500 
L 1375 2956 
Q 1603 3259 1920 3421 
Q 2238 3584 2597 3584 
Q 2691 3584 2781 3573 
Q 2872 3563 2963 3538 
L 2853 2969 
z
" transform="scale(0.015625)"/>
       <path id="DejaVuSans-Oblique-4f" d="M 2919 4238 
Q 2400 4238 2003 3986 
Q 1606 3734 1313 3219 
Q 1125 2891 1026 2522 
Q 928 2153 928 1778 
Q 928 1128 1239 775 
Q 1550 422 2119 422 
Q 2631 422 3032 676 
Q 3434 931 3719 1434 
Q 3909 1772 4009 2142 
Q 4109 2513 4109 2881 
Q 4109 3528 3796 3883 
Q 3484 4238 2919 4238 
z
M 2100 -91 
Q 1241 -91 748 418 
Q 256 928 256 1813 
Q 256 2319 448 2847 
Q 641 3375 978 3788 
Q 1375 4272 1862 4511 
Q 2350 4750 2938 4750 
Q 3794 4750 4287 4245 
Q 4781 3741 4781 2869 
Q 4781 2331 4593 1812 
Q 4406 1294 4056 872 
Q 3656 384 3173 146 
Q 2691 -91 2100 -91 
z
" transform="scale(0.015625)"/>
       <path id="DejaVuSans-394" d="M 2188 4044 
L 906 525 
L 3472 525 
L 2188 4044 
z
M 50 0 
L 1831 4666 
L 2547 4666 
L 4325 0 
L 50 0 
z
" transform="scale(0.015625)"/>
       <path id="DejaVuSans-Oblique-74" d="M 2706 3500 
L 2619 3053 
L 1472 3053 
L 1100 1153 
Q 1081 1047 1072 975 
Q 1063 903 1063 863 
Q 1063 663 1183 572 
Q 1303 481 1569 481 
L 2150 481 
L 2053 0 
L 1503 0 
Q 991 0 739 200 
Q 488 400 488 806 
Q 488 878 497 964 
Q 506 1050 525 1153 
L 897 3053 
L 409 3053 
L 500 3500 
L 978 3500 
L 1172 4494 
L 1747 4494 
L 1556 3500 
L 2706 3500 
z
" transform="scale(0.015625)"/>
      </defs>
      <use xlink:href="#DejaVuSans-3a3" transform="translate(0 0.765625)"/>
      <use xlink:href="#DejaVuSans-5b" transform="translate(63.183594 0.765625)"/>
      <use xlink:href="#DejaVuSans-Oblique-41" transform="translate(102.197266 0.765625)"/>
      <use xlink:href="#DejaVuSans-Oblique-6d" transform="translate(170.605469 0.765625)"/>
      <use xlink:href="#DejaVuSans-Oblique-69" transform="translate(268.017578 0.765625)"/>
      <use xlink:href="#DejaVuSans-Oblique-6e" transform="translate(295.800781 0.765625)"/>
      <use xlink:href="#DejaVuSans-Oblique-65" transform="translate(359.179688 0.765625)"/>
      <use xlink:href="#DejaVuSans-5d" transform="translate(420.703125 0.765625)"/>
      <use xlink:href="#DejaVuSans-30" transform="translate(460.673828 39.046875) scale(0.7)"/>
      <use xlink:href="#DejaVuSans-2e" transform="translate(505.209961 39.046875) scale(0.7)"/>
      <use xlink:href="#DejaVuSans-30" transform="translate(527.460938 39.046875) scale(0.7)"/>
      <use xlink:href="#DejaVuSans-30" transform="translate(571.99707 39.046875) scale(0.7)"/>
      <use xlink:href="#DejaVuSans-5b" transform="translate(619.267578 0.765625)"/>
      <use xlink:href="#DejaVuSans-Oblique-50" transform="translate(658.28125 0.765625)"/>
      <use xlink:href="#DejaVuSans-Oblique-68" transform="translate(718.583984 0.765625)"/>
      <use xlink:href="#DejaVuSans-Oblique-65" transform="translate(781.962891 0.765625)"/>
      <use xlink:href="#DejaVuSans-Oblique-6e" transform="translate(843.486328 0.765625)"/>
      <use xlink:href="#DejaVuSans-Oblique-6f" transform="translate(906.865234 0.765625)"/>
      <use xlink:href="#DejaVuSans-Oblique-6c" transform="translate(968.046875 0.765625)"/>
      <use xlink:href="#DejaVuSans-5d" transform="translate(995.830078 0.765625)"/>
      <use xlink:href="#DejaVuSans-30" transform="translate(1035.800781 39.046875) scale(0.7)"/>
      <use xlink:href="#DejaVuSans-2e" transform="translate(1080.336914 39.046875) scale(0.7)"/>
      <use xlink:href="#DejaVuSans-30" transform="translate(1102.587891 39.046875) scale(0.7)"/>
      <use xlink:href="#DejaVuSans-30" transform="translate(1147.124023 39.046875) scale(0.7)"/>
      <use xlink:href="#DejaVuSans-5b" transform="translate(1194.394531 0.765625)"/>
      <use xlink:href="#DejaVuSans-Oblique-41" transform="translate(1233.408203 0.765625)"/>
      <use xlink:href="#DejaVuSans-Oblique-72" transform="translate(1301.816406 0.765625)"/>
      <use xlink:href="#DejaVuSans-Oblique-4f" transform="translate(1342.929688 0.765625)"/>
      <use xlink:href="#DejaVuSans-Oblique-50" transform="translate(1421.640625 0.765625)"/>
      <use xlink:href="#DejaVuSans-Oblique-68" transform="translate(1481.943359 0.765625)"/>
      <use xlink:href="#DejaVuSans-5d" transform="translate(1545.322266 0.765625)"/>
      <use xlink:href="#DejaVuSans-30" transform="translate(1585.292969 39.046875) scale(0.7)"/>
      <use xlink:href="#DejaVuSans-2e" transform="translate(1629.829102 39.046875) scale(0.7)"/>
      <use xlink:href="#DejaVuSans-30" transform="translate(1652.080078 39.046875) scale(0.7)"/>
      <use xlink:href="#DejaVuSans-30" transform="translate(1696.616211 39.046875) scale(0.7)"/>
      <use xlink:href="#DejaVuSans-394" transform="translate(1743.886719 0.765625)"/>
      <use xlink:href="#DejaVuSans-Oblique-74" transform="translate(1812.294922 0.765625)"/>
      <use xlink:href="#DejaVuSans-2e" transform="translate(1851.503906 0.765625)"/>
     </g>
    </g>
    <g id="text_6">
     <!-- 1e1 -->
     <g transform="translate(250.580174 202.443) scale(0.1 -0.1)">
      <defs>
       <path id="DejaVuSans-65" d="M 3597 1894 
L 3597 1613 
L 953 1613 
Q 991 1019 1311 708 
Q 1631 397 2203 397 
Q 2534 397 2845 478 
Q 3156 559 3463 722 
L 3463 178 
Q 3153 47 2828 -22 
Q 2503 -91 2169 -91 
Q 1331 -91 842 396 
Q 353 884 353 1716 
Q 353 2575 817 3079 
Q 1281 3584 2069 3584 
Q 2775 3584 3186 3129 
Q 3597 2675 3597 1894 
z
M 3022 2063 
Q 3016 2534 2758 2815 
Q 2500 3097 2075 3097 
Q 1594 3097 1305 2825 
Q 1016 2553 972 2059 
L 3022 2063 
z
" transform="scale(0.015625)"/>
      </defs>
      <use xlink:href="#DejaVuSans-31"/>
      <use xlink:href="#DejaVuSans-65" transform="translate(63.623047 0)"/>
      <use xlink:href="#DejaVuSans-31" transform="translate(125.146484 0)"/>
     </g>
    </g>
   </g>
   <g id="matplotlib.axis_2">
    <g id="ytick_1">
     <g id="line2d_5">
      <defs>
       <path id="m4e3e444229" d="M 0 0 
L -3.5 0 
" style="stroke: #000000; stroke-width: 0.8"/>
      </defs>
      <g>
       <use xlink:href="#m4e3e444229" x="40.603125" y="164.186051" style="stroke: #000000; stroke-width: 0.8"/>
      </g>
     </g>
     <g id="text_7">
      <!-- 60 -->
      <g transform="translate(20.878125 167.98527) scale(0.1 -0.1)">
       <defs>
        <path id="DejaVuSans-36" d="M 2113 2584 
Q 1688 2584 1439 2293 
Q 1191 2003 1191 1497 
Q 1191 994 1439 701 
Q 1688 409 2113 409 
Q 2538 409 2786 701 
Q 3034 994 3034 1497 
Q 3034 2003 2786 2293 
Q 2538 2584 2113 2584 
z
M 3366 4563 
L 3366 3988 
Q 3128 4100 2886 4159 
Q 2644 4219 2406 4219 
Q 1781 4219 1451 3797 
Q 1122 3375 1075 2522 
Q 1259 2794 1537 2939 
Q 1816 3084 2150 3084 
Q 2853 3084 3261 2657 
Q 3669 2231 3669 1497 
Q 3669 778 3244 343 
Q 2819 -91 2113 -91 
Q 1303 -91 875 529 
Q 447 1150 447 2328 
Q 447 3434 972 4092 
Q 1497 4750 2381 4750 
Q 2619 4750 2861 4703 
Q 3103 4656 3366 4563 
z
" transform="scale(0.015625)"/>
       </defs>
       <use xlink:href="#DejaVuSans-36"/>
       <use xlink:href="#DejaVuSans-30" transform="translate(63.623047 0)"/>
      </g>
     </g>
    </g>
    <g id="ytick_2">
     <g id="line2d_6">
      <g>
       <use xlink:href="#m4e3e444229" x="40.603125" y="141.509608" style="stroke: #000000; stroke-width: 0.8"/>
      </g>
     </g>
     <g id="text_8">
      <!-- 65 -->
      <g transform="translate(20.878125 145.308826) scale(0.1 -0.1)">
       <use xlink:href="#DejaVuSans-36"/>
       <use xlink:href="#DejaVuSans-35" transform="translate(63.623047 0)"/>
      </g>
     </g>
    </g>
    <g id="ytick_3">
     <g id="line2d_7">
      <g>
       <use xlink:href="#m4e3e444229" x="40.603125" y="118.833164" style="stroke: #000000; stroke-width: 0.8"/>
      </g>
     </g>
     <g id="text_9">
      <!-- 70 -->
      <g transform="translate(20.878125 122.632383) scale(0.1 -0.1)">
       <defs>
        <path id="DejaVuSans-37" d="M 525 4666 
L 3525 4666 
L 3525 4397 
L 1831 0 
L 1172 0 
L 2766 4134 
L 525 4134 
L 525 4666 
z
" transform="scale(0.015625)"/>
       </defs>
       <use xlink:href="#DejaVuSans-37"/>
       <use xlink:href="#DejaVuSans-30" transform="translate(63.623047 0)"/>
      </g>
     </g>
    </g>
    <g id="ytick_4">
     <g id="line2d_8">
      <g>
       <use xlink:href="#m4e3e444229" x="40.603125" y="96.156721" style="stroke: #000000; stroke-width: 0.8"/>
      </g>
     </g>
     <g id="text_10">
      <!-- 75 -->
      <g transform="translate(20.878125 99.955939) scale(0.1 -0.1)">
       <use xlink:href="#DejaVuSans-37"/>
       <use xlink:href="#DejaVuSans-35" transform="translate(63.623047 0)"/>
      </g>
     </g>
    </g>
    <g id="ytick_5">
     <g id="line2d_9">
      <g>
       <use xlink:href="#m4e3e444229" x="40.603125" y="73.480277" style="stroke: #000000; stroke-width: 0.8"/>
      </g>
     </g>
     <g id="text_11">
      <!-- 80 -->
      <g transform="translate(20.878125 77.279496) scale(0.1 -0.1)">
       <defs>
        <path id="DejaVuSans-38" d="M 2034 2216 
Q 1584 2216 1326 1975 
Q 1069 1734 1069 1313 
Q 1069 891 1326 650 
Q 1584 409 2034 409 
Q 2484 409 2743 651 
Q 3003 894 3003 1313 
Q 3003 1734 2745 1975 
Q 2488 2216 2034 2216 
z
M 1403 2484 
Q 997 2584 770 2862 
Q 544 3141 544 3541 
Q 544 4100 942 4425 
Q 1341 4750 2034 4750 
Q 2731 4750 3128 4425 
Q 3525 4100 3525 3541 
Q 3525 3141 3298 2862 
Q 3072 2584 2669 2484 
Q 3125 2378 3379 2068 
Q 3634 1759 3634 1313 
Q 3634 634 3220 271 
Q 2806 -91 2034 -91 
Q 1263 -91 848 271 
Q 434 634 434 1313 
Q 434 1759 690 2068 
Q 947 2378 1403 2484 
z
M 1172 3481 
Q 1172 3119 1398 2916 
Q 1625 2713 2034 2713 
Q 2441 2713 2670 2916 
Q 2900 3119 2900 3481 
Q 2900 3844 2670 4047 
Q 2441 4250 2034 4250 
Q 1625 4250 1398 4047 
Q 1172 3844 1172 3481 
z
" transform="scale(0.015625)"/>
       </defs>
       <use xlink:href="#DejaVuSans-38"/>
       <use xlink:href="#DejaVuSans-30" transform="translate(63.623047 0)"/>
      </g>
     </g>
    </g>
    <g id="ytick_6">
     <g id="line2d_10">
      <g>
       <use xlink:href="#m4e3e444229" x="40.603125" y="50.803834" style="stroke: #000000; stroke-width: 0.8"/>
      </g>
     </g>
     <g id="text_12">
      <!-- 85 -->
      <g transform="translate(20.878125 54.603053) scale(0.1 -0.1)">
       <use xlink:href="#DejaVuSans-38"/>
       <use xlink:href="#DejaVuSans-35" transform="translate(63.623047 0)"/>
      </g>
     </g>
    </g>
    <g id="ytick_7">
     <g id="line2d_11">
      <g>
       <use xlink:href="#m4e3e444229" x="40.603125" y="28.12739" style="stroke: #000000; stroke-width: 0.8"/>
      </g>
     </g>
     <g id="text_13">
      <!-- 90 -->
      <g transform="translate(20.878125 31.926609) scale(0.1 -0.1)">
       <defs>
        <path id="DejaVuSans-39" d="M 703 97 
L 703 672 
Q 941 559 1184 500 
Q 1428 441 1663 441 
Q 2288 441 2617 861 
Q 2947 1281 2994 2138 
Q 2813 1869 2534 1725 
Q 2256 1581 1919 1581 
Q 1219 1581 811 2004 
Q 403 2428 403 3163 
Q 403 3881 828 4315 
Q 1253 4750 1959 4750 
Q 2769 4750 3195 4129 
Q 3622 3509 3622 2328 
Q 3622 1225 3098 567 
Q 2575 -91 1691 -91 
Q 1453 -91 1209 -44 
Q 966 3 703 97 
z
M 1959 2075 
Q 2384 2075 2632 2365 
Q 2881 2656 2881 3163 
Q 2881 3666 2632 3958 
Q 2384 4250 1959 4250 
Q 1534 4250 1286 3958 
Q 1038 3666 1038 3163 
Q 1038 2656 1286 2365 
Q 1534 2075 1959 2075 
z
" transform="scale(0.015625)"/>
       </defs>
       <use xlink:href="#DejaVuSans-39"/>
       <use xlink:href="#DejaVuSans-30" transform="translate(63.623047 0)"/>
      </g>
     </g>
    </g>
    <g id="text_14">
     <!-- Shifted [Product] / mM -->
     <g transform="translate(14.798438 154.117594) rotate(-90) scale(0.1 -0.1)">
      <defs>
       <path id="DejaVuSans-53" d="M 3425 4513 
L 3425 3897 
Q 3066 4069 2747 4153 
Q 2428 4238 2131 4238 
Q 1616 4238 1336 4038 
Q 1056 3838 1056 3469 
Q 1056 3159 1242 3001 
Q 1428 2844 1947 2747 
L 2328 2669 
Q 3034 2534 3370 2195 
Q 3706 1856 3706 1288 
Q 3706 609 3251 259 
Q 2797 -91 1919 -91 
Q 1588 -91 1214 -16 
Q 841 59 441 206 
L 441 856 
Q 825 641 1194 531 
Q 1563 422 1919 422 
Q 2459 422 2753 634 
Q 3047 847 3047 1241 
Q 3047 1584 2836 1778 
Q 2625 1972 2144 2069 
L 1759 2144 
Q 1053 2284 737 2584 
Q 422 2884 422 3419 
Q 422 4038 858 4394 
Q 1294 4750 2059 4750 
Q 2388 4750 2728 4690 
Q 3069 4631 3425 4513 
z
" transform="scale(0.015625)"/>
       <path id="DejaVuSans-68" d="M 3513 2113 
L 3513 0 
L 2938 0 
L 2938 2094 
Q 2938 2591 2744 2837 
Q 2550 3084 2163 3084 
Q 1697 3084 1428 2787 
Q 1159 2491 1159 1978 
L 1159 0 
L 581 0 
L 581 4863 
L 1159 4863 
L 1159 2956 
Q 1366 3272 1645 3428 
Q 1925 3584 2291 3584 
Q 2894 3584 3203 3211 
Q 3513 2838 3513 2113 
z
" transform="scale(0.015625)"/>
       <path id="DejaVuSans-69" d="M 603 3500 
L 1178 3500 
L 1178 0 
L 603 0 
L 603 3500 
z
M 603 4863 
L 1178 4863 
L 1178 4134 
L 603 4134 
L 603 4863 
z
" transform="scale(0.015625)"/>
       <path id="DejaVuSans-66" d="M 2375 4863 
L 2375 4384 
L 1825 4384 
Q 1516 4384 1395 4259 
Q 1275 4134 1275 3809 
L 1275 3500 
L 2222 3500 
L 2222 3053 
L 1275 3053 
L 1275 0 
L 697 0 
L 697 3053 
L 147 3053 
L 147 3500 
L 697 3500 
L 697 3744 
Q 697 4328 969 4595 
Q 1241 4863 1831 4863 
L 2375 4863 
z
" transform="scale(0.015625)"/>
       <path id="DejaVuSans-74" d="M 1172 4494 
L 1172 3500 
L 2356 3500 
L 2356 3053 
L 1172 3053 
L 1172 1153 
Q 1172 725 1289 603 
Q 1406 481 1766 481 
L 2356 481 
L 2356 0 
L 1766 0 
Q 1100 0 847 248 
Q 594 497 594 1153 
L 594 3053 
L 172 3053 
L 172 3500 
L 594 3500 
L 594 4494 
L 1172 4494 
z
" transform="scale(0.015625)"/>
       <path id="DejaVuSans-64" d="M 2906 2969 
L 2906 4863 
L 3481 4863 
L 3481 0 
L 2906 0 
L 2906 525 
Q 2725 213 2448 61 
Q 2172 -91 1784 -91 
Q 1150 -91 751 415 
Q 353 922 353 1747 
Q 353 2572 751 3078 
Q 1150 3584 1784 3584 
Q 2172 3584 2448 3432 
Q 2725 3281 2906 2969 
z
M 947 1747 
Q 947 1113 1208 752 
Q 1469 391 1925 391 
Q 2381 391 2643 752 
Q 2906 1113 2906 1747 
Q 2906 2381 2643 2742 
Q 2381 3103 1925 3103 
Q 1469 3103 1208 2742 
Q 947 2381 947 1747 
z
" transform="scale(0.015625)"/>
       <path id="DejaVuSans-20" transform="scale(0.015625)"/>
       <path id="DejaVuSans-50" d="M 1259 4147 
L 1259 2394 
L 2053 2394 
Q 2494 2394 2734 2622 
Q 2975 2850 2975 3272 
Q 2975 3691 2734 3919 
Q 2494 4147 2053 4147 
L 1259 4147 
z
M 628 4666 
L 2053 4666 
Q 2838 4666 3239 4311 
Q 3641 3956 3641 3272 
Q 3641 2581 3239 2228 
Q 2838 1875 2053 1875 
L 1259 1875 
L 1259 0 
L 628 0 
L 628 4666 
z
" transform="scale(0.015625)"/>
       <path id="DejaVuSans-72" d="M 2631 2963 
Q 2534 3019 2420 3045 
Q 2306 3072 2169 3072 
Q 1681 3072 1420 2755 
Q 1159 2438 1159 1844 
L 1159 0 
L 581 0 
L 581 3500 
L 1159 3500 
L 1159 2956 
Q 1341 3275 1631 3429 
Q 1922 3584 2338 3584 
Q 2397 3584 2469 3576 
Q 2541 3569 2628 3553 
L 2631 2963 
z
" transform="scale(0.015625)"/>
       <path id="DejaVuSans-6f" d="M 1959 3097 
Q 1497 3097 1228 2736 
Q 959 2375 959 1747 
Q 959 1119 1226 758 
Q 1494 397 1959 397 
Q 2419 397 2687 759 
Q 2956 1122 2956 1747 
Q 2956 2369 2687 2733 
Q 2419 3097 1959 3097 
z
M 1959 3584 
Q 2709 3584 3137 3096 
Q 3566 2609 3566 1747 
Q 3566 888 3137 398 
Q 2709 -91 1959 -91 
Q 1206 -91 779 398 
Q 353 888 353 1747 
Q 353 2609 779 3096 
Q 1206 3584 1959 3584 
z
" transform="scale(0.015625)"/>
       <path id="DejaVuSans-75" d="M 544 1381 
L 544 3500 
L 1119 3500 
L 1119 1403 
Q 1119 906 1312 657 
Q 1506 409 1894 409 
Q 2359 409 2629 706 
Q 2900 1003 2900 1516 
L 2900 3500 
L 3475 3500 
L 3475 0 
L 2900 0 
L 2900 538 
Q 2691 219 2414 64 
Q 2138 -91 1772 -91 
Q 1169 -91 856 284 
Q 544 659 544 1381 
z
M 1991 3584 
L 1991 3584 
z
" transform="scale(0.015625)"/>
       <path id="DejaVuSans-63" d="M 3122 3366 
L 3122 2828 
Q 2878 2963 2633 3030 
Q 2388 3097 2138 3097 
Q 1578 3097 1268 2742 
Q 959 2388 959 1747 
Q 959 1106 1268 751 
Q 1578 397 2138 397 
Q 2388 397 2633 464 
Q 2878 531 3122 666 
L 3122 134 
Q 2881 22 2623 -34 
Q 2366 -91 2075 -91 
Q 1284 -91 818 406 
Q 353 903 353 1747 
Q 353 2603 823 3093 
Q 1294 3584 2113 3584 
Q 2378 3584 2631 3529 
Q 2884 3475 3122 3366 
z
" transform="scale(0.015625)"/>
       <path id="DejaVuSans-2f" d="M 1625 4666 
L 2156 4666 
L 531 -594 
L 0 -594 
L 1625 4666 
z
" transform="scale(0.015625)"/>
       <path id="DejaVuSans-6d" d="M 3328 2828 
Q 3544 3216 3844 3400 
Q 4144 3584 4550 3584 
Q 5097 3584 5394 3201 
Q 5691 2819 5691 2113 
L 5691 0 
L 5113 0 
L 5113 2094 
Q 5113 2597 4934 2840 
Q 4756 3084 4391 3084 
Q 3944 3084 3684 2787 
Q 3425 2491 3425 1978 
L 3425 0 
L 2847 0 
L 2847 2094 
Q 2847 2600 2669 2842 
Q 2491 3084 2119 3084 
Q 1678 3084 1418 2786 
Q 1159 2488 1159 1978 
L 1159 0 
L 581 0 
L 581 3500 
L 1159 3500 
L 1159 2956 
Q 1356 3278 1631 3431 
Q 1906 3584 2284 3584 
Q 2666 3584 2933 3390 
Q 3200 3197 3328 2828 
z
" transform="scale(0.015625)"/>
       <path id="DejaVuSans-4d" d="M 628 4666 
L 1569 4666 
L 2759 1491 
L 3956 4666 
L 4897 4666 
L 4897 0 
L 4281 0 
L 4281 4097 
L 3078 897 
L 2444 897 
L 1241 4097 
L 1241 0 
L 628 0 
L 628 4666 
z
" transform="scale(0.015625)"/>
      </defs>
      <use xlink:href="#DejaVuSans-53"/>
      <use xlink:href="#DejaVuSans-68" transform="translate(63.476562 0)"/>
      <use xlink:href="#DejaVuSans-69" transform="translate(126.855469 0)"/>
      <use xlink:href="#DejaVuSans-66" transform="translate(154.638672 0)"/>
      <use xlink:href="#DejaVuSans-74" transform="translate(188.09375 0)"/>
      <use xlink:href="#DejaVuSans-65" transform="translate(227.302734 0)"/>
      <use xlink:href="#DejaVuSans-64" transform="translate(288.826172 0)"/>
      <use xlink:href="#DejaVuSans-20" transform="translate(352.302734 0)"/>
      <use xlink:href="#DejaVuSans-5b" transform="translate(384.089844 0)"/>
      <use xlink:href="#DejaVuSans-50" transform="translate(423.103516 0)"/>
      <use xlink:href="#DejaVuSans-72" transform="translate(481.65625 0)"/>
      <use xlink:href="#DejaVuSans-6f" transform="translate(520.519531 0)"/>
      <use xlink:href="#DejaVuSans-64" transform="translate(581.701172 0)"/>
      <use xlink:href="#DejaVuSans-75" transform="translate(645.177734 0)"/>
      <use xlink:href="#DejaVuSans-63" transform="translate(708.556641 0)"/>
      <use xlink:href="#DejaVuSans-74" transform="translate(763.537109 0)"/>
      <use xlink:href="#DejaVuSans-5d" transform="translate(802.746094 0)"/>
      <use xlink:href="#DejaVuSans-20" transform="translate(841.759766 0)"/>
      <use xlink:href="#DejaVuSans-2f" transform="translate(873.546875 0)"/>
      <use xlink:href="#DejaVuSans-20" transform="translate(907.238281 0)"/>
      <use xlink:href="#DejaVuSans-6d" transform="translate(939.025391 0)"/>
      <use xlink:href="#DejaVuSans-4d" transform="translate(1036.4375 0)"/>
     </g>
    </g>
   </g>
   <g id="line2d_12">
    <path d="M 42.062172 168.14971 
L 44.917839 164.000933 
L 47.786568 160.324 
L 50.635897 157.853719 
L 53.571854 153.766934 
L 56.445961 149.962154 
L 59.282612 146.122731 
L 62.231055 142.893645 
L 65.080575 140.444704 
L 67.936627 138.346294 
L 70.887758 135.7114 
L 73.739008 133.363045 
L 76.598709 130.999048 
L 79.448038 127.984646 
L 82.397825 125.606032 
L 85.246961 123.394319 
L 88.109928 122.033085 
L 91.041659 118.981795 
L 93.908659 116.984401 
L 96.757604 115.400852 
L 99.695289 113.758445 
L 102.565747 111.683998 
L 105.408161 109.811361 
L 108.274969 108.658216 
L 111.210542 107.280135 
L 114.062367 104.584302 
L 116.919187 103.813454 
L 119.870703 101.806062 
L 122.721568 100.410364 
L 125.573394 98.337748 
L 128.520492 97.822891 
L 131.381537 95.879315 
L 134.230674 94.781422 
L 137.085765 93.499732 
L 140.037857 91.623446 
L 142.887186 90.071001 
L 145.748808 89.68571 
L 148.695521 88.396583 
L 151.547539 87.447646 
L 154.396868 86.018862 
L 157.335898 84.929181 
L 160.192718 83.648461 
L 163.058181 84.176028 
L 165.907126 82.546854 
L 168.847501 81.262445 
L 171.715269 79.870598 
L 174.560756 79.486818 
L 177.509775 78.122309 
L 180.360256 77.449095 
L 183.215539 76.694883 
" clip-path="url(#pa0429b273b)" style="fill: none; stroke: #1f77b4; stroke-width: 0.7; stroke-linecap: square"/>
    <defs>
     <path id="me020c5356e" d="M 0 0.9 
C 0.238683 0.9 0.467622 0.80517 0.636396 0.636396 
C 0.80517 0.467622 0.9 0.238683 0.9 0 
C 0.9 -0.238683 0.80517 -0.467622 0.636396 -0.636396 
C 0.467622 -0.80517 0.238683 -0.9 0 -0.9 
C -0.238683 -0.9 -0.467622 -0.80517 -0.636396 -0.636396 
C -0.80517 -0.467622 -0.9 -0.238683 -0.9 0 
C -0.9 0.238683 -0.80517 0.467622 -0.636396 0.636396 
C -0.467622 0.80517 -0.238683 0.9 0 0.9 
z
" style="stroke: #1f77b4"/>
    </defs>
    <g clip-path="url(#pa0429b273b)">
     <use xlink:href="#me020c5356e" x="42.062172" y="168.14971" style="fill: #1f77b4; stroke: #1f77b4"/>
     <use xlink:href="#me020c5356e" x="44.917839" y="164.000933" style="fill: #1f77b4; stroke: #1f77b4"/>
     <use xlink:href="#me020c5356e" x="47.786568" y="160.324" style="fill: #1f77b4; stroke: #1f77b4"/>
     <use xlink:href="#me020c5356e" x="50.635897" y="157.853719" style="fill: #1f77b4; stroke: #1f77b4"/>
     <use xlink:href="#me020c5356e" x="53.571854" y="153.766934" style="fill: #1f77b4; stroke: #1f77b4"/>
     <use xlink:href="#me020c5356e" x="56.445961" y="149.962154" style="fill: #1f77b4; stroke: #1f77b4"/>
     <use xlink:href="#me020c5356e" x="59.282612" y="146.122731" style="fill: #1f77b4; stroke: #1f77b4"/>
     <use xlink:href="#me020c5356e" x="62.231055" y="142.893645" style="fill: #1f77b4; stroke: #1f77b4"/>
     <use xlink:href="#me020c5356e" x="65.080575" y="140.444704" style="fill: #1f77b4; stroke: #1f77b4"/>
     <use xlink:href="#me020c5356e" x="67.936627" y="138.346294" style="fill: #1f77b4; stroke: #1f77b4"/>
     <use xlink:href="#me020c5356e" x="70.887758" y="135.7114" style="fill: #1f77b4; stroke: #1f77b4"/>
     <use xlink:href="#me020c5356e" x="73.739008" y="133.363045" style="fill: #1f77b4; stroke: #1f77b4"/>
     <use xlink:href="#me020c5356e" x="76.598709" y="130.999048" style="fill: #1f77b4; stroke: #1f77b4"/>
     <use xlink:href="#me020c5356e" x="79.448038" y="127.984646" style="fill: #1f77b4; stroke: #1f77b4"/>
     <use xlink:href="#me020c5356e" x="82.397825" y="125.606032" style="fill: #1f77b4; stroke: #1f77b4"/>
     <use xlink:href="#me020c5356e" x="85.246961" y="123.394319" style="fill: #1f77b4; stroke: #1f77b4"/>
     <use xlink:href="#me020c5356e" x="88.109928" y="122.033085" style="fill: #1f77b4; stroke: #1f77b4"/>
     <use xlink:href="#me020c5356e" x="91.041659" y="118.981795" style="fill: #1f77b4; stroke: #1f77b4"/>
     <use xlink:href="#me020c5356e" x="93.908659" y="116.984401" style="fill: #1f77b4; stroke: #1f77b4"/>
     <use xlink:href="#me020c5356e" x="96.757604" y="115.400852" style="fill: #1f77b4; stroke: #1f77b4"/>
     <use xlink:href="#me020c5356e" x="99.695289" y="113.758445" style="fill: #1f77b4; stroke: #1f77b4"/>
     <use xlink:href="#me020c5356e" x="102.565747" y="111.683998" style="fill: #1f77b4; stroke: #1f77b4"/>
     <use xlink:href="#me020c5356e" x="105.408161" y="109.811361" style="fill: #1f77b4; stroke: #1f77b4"/>
     <use xlink:href="#me020c5356e" x="108.274969" y="108.658216" style="fill: #1f77b4; stroke: #1f77b4"/>
     <use xlink:href="#me020c5356e" x="111.210542" y="107.280135" style="fill: #1f77b4; stroke: #1f77b4"/>
     <use xlink:href="#me020c5356e" x="114.062367" y="104.584302" style="fill: #1f77b4; stroke: #1f77b4"/>
     <use xlink:href="#me020c5356e" x="116.919187" y="103.813454" style="fill: #1f77b4; stroke: #1f77b4"/>
     <use xlink:href="#me020c5356e" x="119.870703" y="101.806062" style="fill: #1f77b4; stroke: #1f77b4"/>
     <use xlink:href="#me020c5356e" x="122.721568" y="100.410364" style="fill: #1f77b4; stroke: #1f77b4"/>
     <use xlink:href="#me020c5356e" x="125.573394" y="98.337748" style="fill: #1f77b4; stroke: #1f77b4"/>
     <use xlink:href="#me020c5356e" x="128.520492" y="97.822891" style="fill: #1f77b4; stroke: #1f77b4"/>
     <use xlink:href="#me020c5356e" x="131.381537" y="95.879315" style="fill: #1f77b4; stroke: #1f77b4"/>
     <use xlink:href="#me020c5356e" x="134.230674" y="94.781422" style="fill: #1f77b4; stroke: #1f77b4"/>
     <use xlink:href="#me020c5356e" x="137.085765" y="93.499732" style="fill: #1f77b4; stroke: #1f77b4"/>
     <use xlink:href="#me020c5356e" x="140.037857" y="91.623446" style="fill: #1f77b4; stroke: #1f77b4"/>
     <use xlink:href="#me020c5356e" x="142.887186" y="90.071001" style="fill: #1f77b4; stroke: #1f77b4"/>
     <use xlink:href="#me020c5356e" x="145.748808" y="89.68571" style="fill: #1f77b4; stroke: #1f77b4"/>
     <use xlink:href="#me020c5356e" x="148.695521" y="88.396583" style="fill: #1f77b4; stroke: #1f77b4"/>
     <use xlink:href="#me020c5356e" x="151.547539" y="87.447646" style="fill: #1f77b4; stroke: #1f77b4"/>
     <use xlink:href="#me020c5356e" x="154.396868" y="86.018862" style="fill: #1f77b4; stroke: #1f77b4"/>
     <use xlink:href="#me020c5356e" x="157.335898" y="84.929181" style="fill: #1f77b4; stroke: #1f77b4"/>
     <use xlink:href="#me020c5356e" x="160.192718" y="83.648461" style="fill: #1f77b4; stroke: #1f77b4"/>
     <use xlink:href="#me020c5356e" x="163.058181" y="84.176028" style="fill: #1f77b4; stroke: #1f77b4"/>
     <use xlink:href="#me020c5356e" x="165.907126" y="82.546854" style="fill: #1f77b4; stroke: #1f77b4"/>
     <use xlink:href="#me020c5356e" x="168.847501" y="81.262445" style="fill: #1f77b4; stroke: #1f77b4"/>
     <use xlink:href="#me020c5356e" x="171.715269" y="79.870598" style="fill: #1f77b4; stroke: #1f77b4"/>
     <use xlink:href="#me020c5356e" x="174.560756" y="79.486818" style="fill: #1f77b4; stroke: #1f77b4"/>
     <use xlink:href="#me020c5356e" x="177.509775" y="78.122309" style="fill: #1f77b4; stroke: #1f77b4"/>
     <use xlink:href="#me020c5356e" x="180.360256" y="77.449095" style="fill: #1f77b4; stroke: #1f77b4"/>
     <use xlink:href="#me020c5356e" x="183.215539" y="76.694883" style="fill: #1f77b4; stroke: #1f77b4"/>
    </g>
   </g>
   <g id="line2d_13">
    <path d="M 40.603125 168.14971 
L 43.538122 158.083502 
L 46.388795 151.121337 
L 49.244078 143.976884 
L 52.18695 137.74782 
L 55.04838 132.22174 
L 57.898861 125.557326 
L 60.844614 119.921068 
L 63.705468 114.324043 
L 66.554797 109.17836 
L 69.416034 104.067786 
L 72.36294 98.597245 
L 75.214766 94.047799 
L 78.064094 90.092456 
L 81.006582 85.89819 
L 83.874351 82.653018 
L 86.725024 78.209221 
L 89.659252 74.000656 
L 92.515112 70.964455 
L 95.382688 67.544855 
L 98.228367 63.926558 
" clip-path="url(#pa0429b273b)" style="fill: none; stroke: #ff7f0e; stroke-width: 0.7; stroke-linecap: square"/>
    <defs>
     <path id="m2ac5610af7" d="M 0 0.9 
C 0.238683 0.9 0.467622 0.80517 0.636396 0.636396 
C 0.80517 0.467622 0.9 0.238683 0.9 0 
C 0.9 -0.238683 0.80517 -0.467622 0.636396 -0.636396 
C 0.467622 -0.80517 0.238683 -0.9 0 -0.9 
C -0.238683 -0.9 -0.467622 -0.80517 -0.636396 -0.636396 
C -0.80517 -0.467622 -0.9 -0.238683 -0.9 0 
C -0.9 0.238683 -0.80517 0.467622 -0.636396 0.636396 
C -0.467622 0.80517 -0.238683 0.9 0 0.9 
z
" style="stroke: #ff7f0e"/>
    </defs>
    <g clip-path="url(#pa0429b273b)">
     <use xlink:href="#m2ac5610af7" x="40.603125" y="168.14971" style="fill: #ff7f0e; stroke: #ff7f0e"/>
     <use xlink:href="#m2ac5610af7" x="43.538122" y="158.083502" style="fill: #ff7f0e; stroke: #ff7f0e"/>
     <use xlink:href="#m2ac5610af7" x="46.388795" y="151.121337" style="fill: #ff7f0e; stroke: #ff7f0e"/>
     <use xlink:href="#m2ac5610af7" x="49.244078" y="143.976884" style="fill: #ff7f0e; stroke: #ff7f0e"/>
     <use xlink:href="#m2ac5610af7" x="52.18695" y="137.74782" style="fill: #ff7f0e; stroke: #ff7f0e"/>
     <use xlink:href="#m2ac5610af7" x="55.04838" y="132.22174" style="fill: #ff7f0e; stroke: #ff7f0e"/>
     <use xlink:href="#m2ac5610af7" x="57.898861" y="125.557326" style="fill: #ff7f0e; stroke: #ff7f0e"/>
     <use xlink:href="#m2ac5610af7" x="60.844614" y="119.921068" style="fill: #ff7f0e; stroke: #ff7f0e"/>
     <use xlink:href="#m2ac5610af7" x="63.705468" y="114.324043" style="fill: #ff7f0e; stroke: #ff7f0e"/>
     <use xlink:href="#m2ac5610af7" x="66.554797" y="109.17836" style="fill: #ff7f0e; stroke: #ff7f0e"/>
     <use xlink:href="#m2ac5610af7" x="69.416034" y="104.067786" style="fill: #ff7f0e; stroke: #ff7f0e"/>
     <use xlink:href="#m2ac5610af7" x="72.36294" y="98.597245" style="fill: #ff7f0e; stroke: #ff7f0e"/>
     <use xlink:href="#m2ac5610af7" x="75.214766" y="94.047799" style="fill: #ff7f0e; stroke: #ff7f0e"/>
     <use xlink:href="#m2ac5610af7" x="78.064094" y="90.092456" style="fill: #ff7f0e; stroke: #ff7f0e"/>
     <use xlink:href="#m2ac5610af7" x="81.006582" y="85.89819" style="fill: #ff7f0e; stroke: #ff7f0e"/>
     <use xlink:href="#m2ac5610af7" x="83.874351" y="82.653018" style="fill: #ff7f0e; stroke: #ff7f0e"/>
     <use xlink:href="#m2ac5610af7" x="86.725024" y="78.209221" style="fill: #ff7f0e; stroke: #ff7f0e"/>
     <use xlink:href="#m2ac5610af7" x="89.659252" y="74.000656" style="fill: #ff7f0e; stroke: #ff7f0e"/>
     <use xlink:href="#m2ac5610af7" x="92.515112" y="70.964455" style="fill: #ff7f0e; stroke: #ff7f0e"/>
     <use xlink:href="#m2ac5610af7" x="95.382688" y="67.544855" style="fill: #ff7f0e; stroke: #ff7f0e"/>
     <use xlink:href="#m2ac5610af7" x="98.228367" y="63.926558" style="fill: #ff7f0e; stroke: #ff7f0e"/>
    </g>
   </g>
   <g id="line2d_14">
    <path d="M 40.603125 168.14971 
L 43.452454 165.835874 
L 46.307929 162.912016 
L 49.251569 159.98543 
L 52.112999 157.14213 
L 54.964056 153.530739 
L 57.911538 151.931468 
L 60.76202 149.435594 
L 63.623449 146.565406 
L 66.472586 143.581838 
L 69.419876 142.027109 
L 72.280537 139.260457 
L 75.129674 136.719752 
L 78.066207 134.359805 
L 80.923411 132.182057 
L 83.789835 130.627779 
L 86.724256 128.299529 
L 89.577042 126.301026 
L 92.434246 124.737528 
L 95.300285 122.663477 
L 98.234898 121.576025 
L 101.087492 119.118389 
L 103.943736 117.017909 
L 106.891986 116.12734 
L 109.741699 114.315096 
L 112.603321 112.41125 
L 115.550034 110.826933 
L 118.40186 108.562959 
L 121.263098 107.344948 
L 124.113963 106.178384 
L 127.061637 104.23186 
L 129.911734 102.900692 
L 132.773164 101.230323 
L 135.704703 99.615392 
L 138.570359 98.370996 
L 141.430828 96.47945 
L 144.279965 95.864944 
L 147.214193 94.684258 
L 150.070437 93.261115 
L 152.939165 92.461053 
L 155.87397 90.940188 
L 158.725604 89.503901 
" clip-path="url(#pa0429b273b)" style="fill: none; stroke: #2ca02c; stroke-width: 0.7; stroke-linecap: square"/>
    <defs>
     <path id="m1697894e47" d="M 0 0.9 
C 0.238683 0.9 0.467622 0.80517 0.636396 0.636396 
C 0.80517 0.467622 0.9 0.238683 0.9 0 
C 0.9 -0.238683 0.80517 -0.467622 0.636396 -0.636396 
C 0.467622 -0.80517 0.238683 -0.9 0 -0.9 
C -0.238683 -0.9 -0.467622 -0.80517 -0.636396 -0.636396 
C -0.80517 -0.467622 -0.9 -0.238683 -0.9 0 
C -0.9 0.238683 -0.80517 0.467622 -0.636396 0.636396 
C -0.467622 0.80517 -0.238683 0.9 0 0.9 
z
" style="stroke: #2ca02c"/>
    </defs>
    <g clip-path="url(#pa0429b273b)">
     <use xlink:href="#m1697894e47" x="40.603125" y="168.14971" style="fill: #2ca02c; stroke: #2ca02c"/>
     <use xlink:href="#m1697894e47" x="43.452454" y="165.835874" style="fill: #2ca02c; stroke: #2ca02c"/>
     <use xlink:href="#m1697894e47" x="46.307929" y="162.912016" style="fill: #2ca02c; stroke: #2ca02c"/>
     <use xlink:href="#m1697894e47" x="49.251569" y="159.98543" style="fill: #2ca02c; stroke: #2ca02c"/>
     <use xlink:href="#m1697894e47" x="52.112999" y="157.14213" style="fill: #2ca02c; stroke: #2ca02c"/>
     <use xlink:href="#m1697894e47" x="54.964056" y="153.530739" style="fill: #2ca02c; stroke: #2ca02c"/>
     <use xlink:href="#m1697894e47" x="57.911538" y="151.931468" style="fill: #2ca02c; stroke: #2ca02c"/>
     <use xlink:href="#m1697894e47" x="60.76202" y="149.435594" style="fill: #2ca02c; stroke: #2ca02c"/>
     <use xlink:href="#m1697894e47" x="63.623449" y="146.565406" style="fill: #2ca02c; stroke: #2ca02c"/>
     <use xlink:href="#m1697894e47" x="66.472586" y="143.581838" style="fill: #2ca02c; stroke: #2ca02c"/>
     <use xlink:href="#m1697894e47" x="69.419876" y="142.027109" style="fill: #2ca02c; stroke: #2ca02c"/>
     <use xlink:href="#m1697894e47" x="72.280537" y="139.260457" style="fill: #2ca02c; stroke: #2ca02c"/>
     <use xlink:href="#m1697894e47" x="75.129674" y="136.719752" style="fill: #2ca02c; stroke: #2ca02c"/>
     <use xlink:href="#m1697894e47" x="78.066207" y="134.359805" style="fill: #2ca02c; stroke: #2ca02c"/>
     <use xlink:href="#m1697894e47" x="80.923411" y="132.182057" style="fill: #2ca02c; stroke: #2ca02c"/>
     <use xlink:href="#m1697894e47" x="83.789835" y="130.627779" style="fill: #2ca02c; stroke: #2ca02c"/>
     <use xlink:href="#m1697894e47" x="86.724256" y="128.299529" style="fill: #2ca02c; stroke: #2ca02c"/>
     <use xlink:href="#m1697894e47" x="89.577042" y="126.301026" style="fill: #2ca02c; stroke: #2ca02c"/>
     <use xlink:href="#m1697894e47" x="92.434246" y="124.737528" style="fill: #2ca02c; stroke: #2ca02c"/>
     <use xlink:href="#m1697894e47" x="95.300285" y="122.663477" style="fill: #2ca02c; stroke: #2ca02c"/>
     <use xlink:href="#m1697894e47" x="98.234898" y="121.576025" style="fill: #2ca02c; stroke: #2ca02c"/>
     <use xlink:href="#m1697894e47" x="101.087492" y="119.118389" style="fill: #2ca02c; stroke: #2ca02c"/>
     <use xlink:href="#m1697894e47" x="103.943736" y="117.017909" style="fill: #2ca02c; stroke: #2ca02c"/>
     <use xlink:href="#m1697894e47" x="106.891986" y="116.12734" style="fill: #2ca02c; stroke: #2ca02c"/>
     <use xlink:href="#m1697894e47" x="109.741699" y="114.315096" style="fill: #2ca02c; stroke: #2ca02c"/>
     <use xlink:href="#m1697894e47" x="112.603321" y="112.41125" style="fill: #2ca02c; stroke: #2ca02c"/>
     <use xlink:href="#m1697894e47" x="115.550034" y="110.826933" style="fill: #2ca02c; stroke: #2ca02c"/>
     <use xlink:href="#m1697894e47" x="118.40186" y="108.562959" style="fill: #2ca02c; stroke: #2ca02c"/>
     <use xlink:href="#m1697894e47" x="121.263098" y="107.344948" style="fill: #2ca02c; stroke: #2ca02c"/>
     <use xlink:href="#m1697894e47" x="124.113963" y="106.178384" style="fill: #2ca02c; stroke: #2ca02c"/>
     <use xlink:href="#m1697894e47" x="127.061637" y="104.23186" style="fill: #2ca02c; stroke: #2ca02c"/>
     <use xlink:href="#m1697894e47" x="129.911734" y="102.900692" style="fill: #2ca02c; stroke: #2ca02c"/>
     <use xlink:href="#m1697894e47" x="132.773164" y="101.230323" style="fill: #2ca02c; stroke: #2ca02c"/>
     <use xlink:href="#m1697894e47" x="135.704703" y="99.615392" style="fill: #2ca02c; stroke: #2ca02c"/>
     <use xlink:href="#m1697894e47" x="138.570359" y="98.370996" style="fill: #2ca02c; stroke: #2ca02c"/>
     <use xlink:href="#m1697894e47" x="141.430828" y="96.47945" style="fill: #2ca02c; stroke: #2ca02c"/>
     <use xlink:href="#m1697894e47" x="144.279965" y="95.864944" style="fill: #2ca02c; stroke: #2ca02c"/>
     <use xlink:href="#m1697894e47" x="147.214193" y="94.684258" style="fill: #2ca02c; stroke: #2ca02c"/>
     <use xlink:href="#m1697894e47" x="150.070437" y="93.261115" style="fill: #2ca02c; stroke: #2ca02c"/>
     <use xlink:href="#m1697894e47" x="152.939165" y="92.461053" style="fill: #2ca02c; stroke: #2ca02c"/>
     <use xlink:href="#m1697894e47" x="155.87397" y="90.940188" style="fill: #2ca02c; stroke: #2ca02c"/>
     <use xlink:href="#m1697894e47" x="158.725604" y="89.503901" style="fill: #2ca02c; stroke: #2ca02c"/>
    </g>
   </g>
   <g id="line2d_15">
    <path d="M 40.603125 168.14971 
L 43.545997 159.354729 
L 46.407619 153.203565 
L 49.256948 147.405009 
L 52.113191 142.745479 
L 55.064515 137.47145 
L 57.914036 132.492084 
L 60.77681 128.980639 
L 63.708541 123.902695 
L 66.574005 119.561026 
L 69.423525 115.523994 
L 72.362556 112.29177 
L 75.218607 108.402111 
L 78.083879 105.094023 
L 80.933592 101.786307 
L 83.892791 98.523004 
L 86.742503 96.024309 
L 89.584725 92.074924 
L 92.525676 89.906909 
L 95.388643 87.382143 
L 98.237971 84.69243 
L 101.185261 82.369833 
L 104.046499 80.089089 
L 106.897748 78.483897 
L 109.845807 76.216726 
L 112.695519 73.928631 
L 115.544848 72.583384 
L 118.406662 70.311614 
L 121.353952 68.928279 
L 124.19579 66.319208 
L 127.06375 65.603578 
L 130.000091 63.251358 
L 132.84942 61.543921 
L 135.705471 61.052044 
L 138.646999 58.777391 
L 141.509965 57.633432 
L 144.359102 55.830319 
L 147.214961 54.539453 
L 150.156489 52.63428 
L 153.017535 52.656856 
L 155.868592 50.590526 
L 158.808583 49.923348 
L 161.67443 48.095164 
L 164.523951 47.668018 
L 167.461637 46.634699 
L 170.317688 45.582953 
L 173.18392 45.344569 
L 176.035362 43.087841 
L 178.971127 42.848676 
L 181.848499 41.439042 
L 184.694371 40.715133 
L 187.629175 40.121101 
L 190.480809 39.22709 
L 193.339165 38.455561 
L 196.286839 37.350005 
L 199.137705 36.262209 
L 201.999135 35.838684 
L 204.929905 35.918869 
L 207.796329 34.963201 
L 210.647387 34.309335 
L 213.508816 33.543182 
L 216.438435 32.773705 
L 219.309277 31.909507 
L 222.156108 31.543772 
L 225.092065 30.955218 
L 227.951959 30.48684 
L 230.804553 30.493025 
L 233.748769 29.803701 
L 236.609815 29.31776 
L 239.459336 28.406657 
L 242.313466 28.302203 
L 245.257875 27.815165 
" clip-path="url(#pa0429b273b)" style="fill: none; stroke: #d62728; stroke-width: 0.7; stroke-linecap: square"/>
    <defs>
     <path id="meb61f4660d" d="M 0 0.9 
C 0.238683 0.9 0.467622 0.80517 0.636396 0.636396 
C 0.80517 0.467622 0.9 0.238683 0.9 0 
C 0.9 -0.238683 0.80517 -0.467622 0.636396 -0.636396 
C 0.467622 -0.80517 0.238683 -0.9 0 -0.9 
C -0.238683 -0.9 -0.467622 -0.80517 -0.636396 -0.636396 
C -0.80517 -0.467622 -0.9 -0.238683 -0.9 0 
C -0.9 0.238683 -0.80517 0.467622 -0.636396 0.636396 
C -0.467622 0.80517 -0.238683 0.9 0 0.9 
z
" style="stroke: #d62728"/>
    </defs>
    <g clip-path="url(#pa0429b273b)">
     <use xlink:href="#meb61f4660d" x="40.603125" y="168.14971" style="fill: #d62728; stroke: #d62728"/>
     <use xlink:href="#meb61f4660d" x="43.545997" y="159.354729" style="fill: #d62728; stroke: #d62728"/>
     <use xlink:href="#meb61f4660d" x="46.407619" y="153.203565" style="fill: #d62728; stroke: #d62728"/>
     <use xlink:href="#meb61f4660d" x="49.256948" y="147.405009" style="fill: #d62728; stroke: #d62728"/>
     <use xlink:href="#meb61f4660d" x="52.113191" y="142.745479" style="fill: #d62728; stroke: #d62728"/>
     <use xlink:href="#meb61f4660d" x="55.064515" y="137.47145" style="fill: #d62728; stroke: #d62728"/>
     <use xlink:href="#meb61f4660d" x="57.914036" y="132.492084" style="fill: #d62728; stroke: #d62728"/>
     <use xlink:href="#meb61f4660d" x="60.77681" y="128.980639" style="fill: #d62728; stroke: #d62728"/>
     <use xlink:href="#meb61f4660d" x="63.708541" y="123.902695" style="fill: #d62728; stroke: #d62728"/>
     <use xlink:href="#meb61f4660d" x="66.574005" y="119.561026" style="fill: #d62728; stroke: #d62728"/>
     <use xlink:href="#meb61f4660d" x="69.423525" y="115.523994" style="fill: #d62728; stroke: #d62728"/>
     <use xlink:href="#meb61f4660d" x="72.362556" y="112.29177" style="fill: #d62728; stroke: #d62728"/>
     <use xlink:href="#meb61f4660d" x="75.218607" y="108.402111" style="fill: #d62728; stroke: #d62728"/>
     <use xlink:href="#meb61f4660d" x="78.083879" y="105.094023" style="fill: #d62728; stroke: #d62728"/>
     <use xlink:href="#meb61f4660d" x="80.933592" y="101.786307" style="fill: #d62728; stroke: #d62728"/>
     <use xlink:href="#meb61f4660d" x="83.892791" y="98.523004" style="fill: #d62728; stroke: #d62728"/>
     <use xlink:href="#meb61f4660d" x="86.742503" y="96.024309" style="fill: #d62728; stroke: #d62728"/>
     <use xlink:href="#meb61f4660d" x="89.584725" y="92.074924" style="fill: #d62728; stroke: #d62728"/>
     <use xlink:href="#meb61f4660d" x="92.525676" y="89.906909" style="fill: #d62728; stroke: #d62728"/>
     <use xlink:href="#meb61f4660d" x="95.388643" y="87.382143" style="fill: #d62728; stroke: #d62728"/>
     <use xlink:href="#meb61f4660d" x="98.237971" y="84.69243" style="fill: #d62728; stroke: #d62728"/>
     <use xlink:href="#meb61f4660d" x="101.185261" y="82.369833" style="fill: #d62728; stroke: #d62728"/>
     <use xlink:href="#meb61f4660d" x="104.046499" y="80.089089" style="fill: #d62728; stroke: #d62728"/>
     <use xlink:href="#meb61f4660d" x="106.897748" y="78.483897" style="fill: #d62728; stroke: #d62728"/>
     <use xlink:href="#meb61f4660d" x="109.845807" y="76.216726" style="fill: #d62728; stroke: #d62728"/>
     <use xlink:href="#meb61f4660d" x="112.695519" y="73.928631" style="fill: #d62728; stroke: #d62728"/>
     <use xlink:href="#meb61f4660d" x="115.544848" y="72.583384" style="fill: #d62728; stroke: #d62728"/>
     <use xlink:href="#meb61f4660d" x="118.406662" y="70.311614" style="fill: #d62728; stroke: #d62728"/>
     <use xlink:href="#meb61f4660d" x="121.353952" y="68.928279" style="fill: #d62728; stroke: #d62728"/>
     <use xlink:href="#meb61f4660d" x="124.19579" y="66.319208" style="fill: #d62728; stroke: #d62728"/>
     <use xlink:href="#meb61f4660d" x="127.06375" y="65.603578" style="fill: #d62728; stroke: #d62728"/>
     <use xlink:href="#meb61f4660d" x="130.000091" y="63.251358" style="fill: #d62728; stroke: #d62728"/>
     <use xlink:href="#meb61f4660d" x="132.84942" y="61.543921" style="fill: #d62728; stroke: #d62728"/>
     <use xlink:href="#meb61f4660d" x="135.705471" y="61.052044" style="fill: #d62728; stroke: #d62728"/>
     <use xlink:href="#meb61f4660d" x="138.646999" y="58.777391" style="fill: #d62728; stroke: #d62728"/>
     <use xlink:href="#meb61f4660d" x="141.509965" y="57.633432" style="fill: #d62728; stroke: #d62728"/>
     <use xlink:href="#meb61f4660d" x="144.359102" y="55.830319" style="fill: #d62728; stroke: #d62728"/>
     <use xlink:href="#meb61f4660d" x="147.214961" y="54.539453" style="fill: #d62728; stroke: #d62728"/>
     <use xlink:href="#meb61f4660d" x="150.156489" y="52.63428" style="fill: #d62728; stroke: #d62728"/>
     <use xlink:href="#meb61f4660d" x="153.017535" y="52.656856" style="fill: #d62728; stroke: #d62728"/>
     <use xlink:href="#meb61f4660d" x="155.868592" y="50.590526" style="fill: #d62728; stroke: #d62728"/>
     <use xlink:href="#meb61f4660d" x="158.808583" y="49.923348" style="fill: #d62728; stroke: #d62728"/>
     <use xlink:href="#meb61f4660d" x="161.67443" y="48.095164" style="fill: #d62728; stroke: #d62728"/>
     <use xlink:href="#meb61f4660d" x="164.523951" y="47.668018" style="fill: #d62728; stroke: #d62728"/>
     <use xlink:href="#meb61f4660d" x="167.461637" y="46.634699" style="fill: #d62728; stroke: #d62728"/>
     <use xlink:href="#meb61f4660d" x="170.317688" y="45.582953" style="fill: #d62728; stroke: #d62728"/>
     <use xlink:href="#meb61f4660d" x="173.18392" y="45.344569" style="fill: #d62728; stroke: #d62728"/>
     <use xlink:href="#meb61f4660d" x="176.035362" y="43.087841" style="fill: #d62728; stroke: #d62728"/>
     <use xlink:href="#meb61f4660d" x="178.971127" y="42.848676" style="fill: #d62728; stroke: #d62728"/>
     <use xlink:href="#meb61f4660d" x="181.848499" y="41.439042" style="fill: #d62728; stroke: #d62728"/>
     <use xlink:href="#meb61f4660d" x="184.694371" y="40.715133" style="fill: #d62728; stroke: #d62728"/>
     <use xlink:href="#meb61f4660d" x="187.629175" y="40.121101" style="fill: #d62728; stroke: #d62728"/>
     <use xlink:href="#meb61f4660d" x="190.480809" y="39.22709" style="fill: #d62728; stroke: #d62728"/>
     <use xlink:href="#meb61f4660d" x="193.339165" y="38.455561" style="fill: #d62728; stroke: #d62728"/>
     <use xlink:href="#meb61f4660d" x="196.286839" y="37.350005" style="fill: #d62728; stroke: #d62728"/>
     <use xlink:href="#meb61f4660d" x="199.137705" y="36.262209" style="fill: #d62728; stroke: #d62728"/>
     <use xlink:href="#meb61f4660d" x="201.999135" y="35.838684" style="fill: #d62728; stroke: #d62728"/>
     <use xlink:href="#meb61f4660d" x="204.929905" y="35.918869" style="fill: #d62728; stroke: #d62728"/>
     <use xlink:href="#meb61f4660d" x="207.796329" y="34.963201" style="fill: #d62728; stroke: #d62728"/>
     <use xlink:href="#meb61f4660d" x="210.647387" y="34.309335" style="fill: #d62728; stroke: #d62728"/>
     <use xlink:href="#meb61f4660d" x="213.508816" y="33.543182" style="fill: #d62728; stroke: #d62728"/>
     <use xlink:href="#meb61f4660d" x="216.438435" y="32.773705" style="fill: #d62728; stroke: #d62728"/>
     <use xlink:href="#meb61f4660d" x="219.309277" y="31.909507" style="fill: #d62728; stroke: #d62728"/>
     <use xlink:href="#meb61f4660d" x="222.156108" y="31.543772" style="fill: #d62728; stroke: #d62728"/>
     <use xlink:href="#meb61f4660d" x="225.092065" y="30.955218" style="fill: #d62728; stroke: #d62728"/>
     <use xlink:href="#meb61f4660d" x="227.951959" y="30.48684" style="fill: #d62728; stroke: #d62728"/>
     <use xlink:href="#meb61f4660d" x="230.804553" y="30.493025" style="fill: #d62728; stroke: #d62728"/>
     <use xlink:href="#meb61f4660d" x="233.748769" y="29.803701" style="fill: #d62728; stroke: #d62728"/>
     <use xlink:href="#meb61f4660d" x="236.609815" y="29.31776" style="fill: #d62728; stroke: #d62728"/>
     <use xlink:href="#meb61f4660d" x="239.459336" y="28.406657" style="fill: #d62728; stroke: #d62728"/>
     <use xlink:href="#meb61f4660d" x="242.313466" y="28.302203" style="fill: #d62728; stroke: #d62728"/>
     <use xlink:href="#meb61f4660d" x="245.257875" y="27.815165" style="fill: #d62728; stroke: #d62728"/>
    </g>
   </g>
   <g id="patch_3">
    <path d="M 40.603125 175.166437 
L 40.603125 20.798438 
" style="fill: none; stroke: #000000; stroke-width: 0.8; stroke-linejoin: miter; stroke-linecap: square"/>
   </g>
   <g id="patch_4">
    <path d="M 255.490612 175.166437 
L 255.490612 20.798438 
" style="fill: none; stroke: #000000; stroke-width: 0.8; stroke-linejoin: miter; stroke-linecap: square"/>
   </g>
   <g id="patch_5">
    <path d="M 40.603125 175.166437 
L 255.490612 175.166437 
" style="fill: none; stroke: #000000; stroke-width: 0.8; stroke-linejoin: miter; stroke-linecap: square"/>
   </g>
   <g id="patch_6">
    <path d="M 40.603125 20.798438 
L 255.490612 20.798438 
" style="fill: none; stroke: #000000; stroke-width: 0.8; stroke-linejoin: miter; stroke-linecap: square"/>
   </g>
   <g id="text_15">
    <!-- VTNA overlay plot for Product -->
    <g transform="translate(74.052337 14.798438) scale(0.1 -0.1)">
     <defs>
      <path id="DejaVuSans-56" d="M 1831 0 
L 50 4666 
L 709 4666 
L 2188 738 
L 3669 4666 
L 4325 4666 
L 2547 0 
L 1831 0 
z
" transform="scale(0.015625)"/>
      <path id="DejaVuSans-54" d="M -19 4666 
L 3928 4666 
L 3928 4134 
L 2272 4134 
L 2272 0 
L 1638 0 
L 1638 4134 
L -19 4134 
L -19 4666 
z
" transform="scale(0.015625)"/>
      <path id="DejaVuSans-4e" d="M 628 4666 
L 1478 4666 
L 3547 763 
L 3547 4666 
L 4159 4666 
L 4159 0 
L 3309 0 
L 1241 3903 
L 1241 0 
L 628 0 
L 628 4666 
z
" transform="scale(0.015625)"/>
      <path id="DejaVuSans-41" d="M 2188 4044 
L 1331 1722 
L 3047 1722 
L 2188 4044 
z
M 1831 4666 
L 2547 4666 
L 4325 0 
L 3669 0 
L 3244 1197 
L 1141 1197 
L 716 0 
L 50 0 
L 1831 4666 
z
" transform="scale(0.015625)"/>
      <path id="DejaVuSans-76" d="M 191 3500 
L 800 3500 
L 1894 563 
L 2988 3500 
L 3597 3500 
L 2284 0 
L 1503 0 
L 191 3500 
z
" transform="scale(0.015625)"/>
      <path id="DejaVuSans-6c" d="M 603 4863 
L 1178 4863 
L 1178 0 
L 603 0 
L 603 4863 
z
" transform="scale(0.015625)"/>
      <path id="DejaVuSans-61" d="M 2194 1759 
Q 1497 1759 1228 1600 
Q 959 1441 959 1056 
Q 959 750 1161 570 
Q 1363 391 1709 391 
Q 2188 391 2477 730 
Q 2766 1069 2766 1631 
L 2766 1759 
L 2194 1759 
z
M 3341 1997 
L 3341 0 
L 2766 0 
L 2766 531 
Q 2569 213 2275 61 
Q 1981 -91 1556 -91 
Q 1019 -91 701 211 
Q 384 513 384 1019 
Q 384 1609 779 1909 
Q 1175 2209 1959 2209 
L 2766 2209 
L 2766 2266 
Q 2766 2663 2505 2880 
Q 2244 3097 1772 3097 
Q 1472 3097 1187 3025 
Q 903 2953 641 2809 
L 641 3341 
Q 956 3463 1253 3523 
Q 1550 3584 1831 3584 
Q 2591 3584 2966 3190 
Q 3341 2797 3341 1997 
z
" transform="scale(0.015625)"/>
      <path id="DejaVuSans-79" d="M 2059 -325 
Q 1816 -950 1584 -1140 
Q 1353 -1331 966 -1331 
L 506 -1331 
L 506 -850 
L 844 -850 
Q 1081 -850 1212 -737 
Q 1344 -625 1503 -206 
L 1606 56 
L 191 3500 
L 800 3500 
L 1894 763 
L 2988 3500 
L 3597 3500 
L 2059 -325 
z
" transform="scale(0.015625)"/>
      <path id="DejaVuSans-70" d="M 1159 525 
L 1159 -1331 
L 581 -1331 
L 581 3500 
L 1159 3500 
L 1159 2969 
Q 1341 3281 1617 3432 
Q 1894 3584 2278 3584 
Q 2916 3584 3314 3078 
Q 3713 2572 3713 1747 
Q 3713 922 3314 415 
Q 2916 -91 2278 -91 
Q 1894 -91 1617 61 
Q 1341 213 1159 525 
z
M 3116 1747 
Q 3116 2381 2855 2742 
Q 2594 3103 2138 3103 
Q 1681 3103 1420 2742 
Q 1159 2381 1159 1747 
Q 1159 1113 1420 752 
Q 1681 391 2138 391 
Q 2594 391 2855 752 
Q 3116 1113 3116 1747 
z
" transform="scale(0.015625)"/>
     </defs>
     <use xlink:href="#DejaVuSans-56"/>
     <use xlink:href="#DejaVuSans-54" transform="translate(68.408203 0)"/>
     <use xlink:href="#DejaVuSans-4e" transform="translate(129.492188 0)"/>
     <use xlink:href="#DejaVuSans-41" transform="translate(204.296875 0)"/>
     <use xlink:href="#DejaVuSans-20" transform="translate(272.705078 0)"/>
     <use xlink:href="#DejaVuSans-6f" transform="translate(304.492188 0)"/>
     <use xlink:href="#DejaVuSans-76" transform="translate(365.673828 0)"/>
     <use xlink:href="#DejaVuSans-65" transform="translate(424.853516 0)"/>
     <use xlink:href="#DejaVuSans-72" transform="translate(486.376953 0)"/>
     <use xlink:href="#DejaVuSans-6c" transform="translate(527.490234 0)"/>
     <use xlink:href="#DejaVuSans-61" transform="translate(555.273438 0)"/>
     <use xlink:href="#DejaVuSans-79" transform="translate(616.552734 0)"/>
     <use xlink:href="#DejaVuSans-20" transform="translate(675.732422 0)"/>
     <use xlink:href="#DejaVuSans-70" transform="translate(707.519531 0)"/>
     <use xlink:href="#DejaVuSans-6c" transform="translate(770.996094 0)"/>
     <use xlink:href="#DejaVuSans-6f" transform="translate(798.779297 0)"/>
     <use xlink:href="#DejaVuSans-74" transform="translate(859.960938 0)"/>
     <use xlink:href="#DejaVuSans-20" transform="translate(899.169922 0)"/>
     <use xlink:href="#DejaVuSans-66" transform="translate(930.957031 0)"/>
     <use xlink:href="#DejaVuSans-6f" transform="translate(966.162109 0)"/>
     <use xlink:href="#DejaVuSans-72" transform="translate(1027.34375 0)"/>
     <use xlink:href="#DejaVuSans-20" transform="translate(1068.457031 0)"/>
     <use xlink:href="#DejaVuSans-50" transform="translate(1100.244141 0)"/>
     <use xlink:href="#DejaVuSans-72" transform="translate(1158.796875 0)"/>
     <use xlink:href="#DejaVuSans-6f" transform="translate(1197.660156 0)"/>
     <use xlink:href="#DejaVuSans-64" transform="translate(1258.841797 0)"/>
     <use xlink:href="#DejaVuSans-75" transform="translate(1322.318359 0)"/>
     <use xlink:href="#DejaVuSans-63" transform="translate(1385.697266 0)"/>
     <use xlink:href="#DejaVuSans-74" transform="translate(1440.677734 0)"/>
    </g>
   </g>
   <g id="legend_1">
    <g id="patch_7">
     <path d="M 262.490612 128.838687 
L 345.32655 128.838687 
Q 347.32655 128.838687 347.32655 126.838688 
L 347.32655 69.126188 
Q 347.32655 67.126188 345.32655 67.126188 
L 262.490612 67.126188 
Q 260.490612 67.126188 260.490612 69.126188 
L 260.490612 126.838688 
Q 260.490612 128.838687 262.490612 128.838687 
z
" style="fill: #ffffff; opacity: 0.8; stroke: #cccccc; stroke-linejoin: miter"/>
    </g>
    <g id="line2d_16">
     <path d="M 264.490612 75.224625 
L 274.490612 75.224625 
L 284.490612 75.224625 
" style="fill: none; stroke: #1f77b4; stroke-width: 0.7; stroke-linecap: square"/>
     <g>
      <use xlink:href="#me020c5356e" x="274.490612" y="75.224625" style="fill: #1f77b4; stroke: #1f77b4"/>
     </g>
    </g>
    <g id="text_16">
     <!-- Addition 1 -->
     <g transform="translate(292.490612 78.724625) scale(0.1 -0.1)">
      <defs>
       <path id="DejaVuSans-6e" d="M 3513 2113 
L 3513 0 
L 2938 0 
L 2938 2094 
Q 2938 2591 2744 2837 
Q 2550 3084 2163 3084 
Q 1697 3084 1428 2787 
Q 1159 2491 1159 1978 
L 1159 0 
L 581 0 
L 581 3500 
L 1159 3500 
L 1159 2956 
Q 1366 3272 1645 3428 
Q 1925 3584 2291 3584 
Q 2894 3584 3203 3211 
Q 3513 2838 3513 2113 
z
" transform="scale(0.015625)"/>
      </defs>
      <use xlink:href="#DejaVuSans-41"/>
      <use xlink:href="#DejaVuSans-64" transform="translate(66.658203 0)"/>
      <use xlink:href="#DejaVuSans-64" transform="translate(130.134766 0)"/>
      <use xlink:href="#DejaVuSans-69" transform="translate(193.611328 0)"/>
      <use xlink:href="#DejaVuSans-74" transform="translate(221.394531 0)"/>
      <use xlink:href="#DejaVuSans-69" transform="translate(260.603516 0)"/>
      <use xlink:href="#DejaVuSans-6f" transform="translate(288.386719 0)"/>
      <use xlink:href="#DejaVuSans-6e" transform="translate(349.568359 0)"/>
      <use xlink:href="#DejaVuSans-20" transform="translate(412.947266 0)"/>
      <use xlink:href="#DejaVuSans-31" transform="translate(444.734375 0)"/>
     </g>
    </g>
    <g id="line2d_17">
     <path d="M 264.490612 89.90275 
L 274.490612 89.90275 
L 284.490612 89.90275 
" style="fill: none; stroke: #ff7f0e; stroke-width: 0.7; stroke-linecap: square"/>
     <g>
      <use xlink:href="#m2ac5610af7" x="274.490612" y="89.90275" style="fill: #ff7f0e; stroke: #ff7f0e"/>
     </g>
    </g>
    <g id="text_17">
     <!-- Addition 2 -->
     <g transform="translate(292.490612 93.40275) scale(0.1 -0.1)">
      <defs>
       <path id="DejaVuSans-32" d="M 1228 531 
L 3431 531 
L 3431 0 
L 469 0 
L 469 531 
Q 828 903 1448 1529 
Q 2069 2156 2228 2338 
Q 2531 2678 2651 2914 
Q 2772 3150 2772 3378 
Q 2772 3750 2511 3984 
Q 2250 4219 1831 4219 
Q 1534 4219 1204 4116 
Q 875 4013 500 3803 
L 500 4441 
Q 881 4594 1212 4672 
Q 1544 4750 1819 4750 
Q 2544 4750 2975 4387 
Q 3406 4025 3406 3419 
Q 3406 3131 3298 2873 
Q 3191 2616 2906 2266 
Q 2828 2175 2409 1742 
Q 1991 1309 1228 531 
z
" transform="scale(0.015625)"/>
      </defs>
      <use xlink:href="#DejaVuSans-41"/>
      <use xlink:href="#DejaVuSans-64" transform="translate(66.658203 0)"/>
      <use xlink:href="#DejaVuSans-64" transform="translate(130.134766 0)"/>
      <use xlink:href="#DejaVuSans-69" transform="translate(193.611328 0)"/>
      <use xlink:href="#DejaVuSans-74" transform="translate(221.394531 0)"/>
      <use xlink:href="#DejaVuSans-69" transform="translate(260.603516 0)"/>
      <use xlink:href="#DejaVuSans-6f" transform="translate(288.386719 0)"/>
      <use xlink:href="#DejaVuSans-6e" transform="translate(349.568359 0)"/>
      <use xlink:href="#DejaVuSans-20" transform="translate(412.947266 0)"/>
      <use xlink:href="#DejaVuSans-32" transform="translate(444.734375 0)"/>
     </g>
    </g>
    <g id="line2d_18">
     <path d="M 264.490612 104.580875 
L 274.490612 104.580875 
L 284.490612 104.580875 
" style="fill: none; stroke: #2ca02c; stroke-width: 0.7; stroke-linecap: square"/>
     <g>
      <use xlink:href="#m1697894e47" x="274.490612" y="104.580875" style="fill: #2ca02c; stroke: #2ca02c"/>
     </g>
    </g>
    <g id="text_18">
     <!-- Addition 3 -->
     <g transform="translate(292.490612 108.080875) scale(0.1 -0.1)">
      <defs>
       <path id="DejaVuSans-33" d="M 2597 2516 
Q 3050 2419 3304 2112 
Q 3559 1806 3559 1356 
Q 3559 666 3084 287 
Q 2609 -91 1734 -91 
Q 1441 -91 1130 -33 
Q 819 25 488 141 
L 488 750 
Q 750 597 1062 519 
Q 1375 441 1716 441 
Q 2309 441 2620 675 
Q 2931 909 2931 1356 
Q 2931 1769 2642 2001 
Q 2353 2234 1838 2234 
L 1294 2234 
L 1294 2753 
L 1863 2753 
Q 2328 2753 2575 2939 
Q 2822 3125 2822 3475 
Q 2822 3834 2567 4026 
Q 2313 4219 1838 4219 
Q 1578 4219 1281 4162 
Q 984 4106 628 3988 
L 628 4550 
Q 988 4650 1302 4700 
Q 1616 4750 1894 4750 
Q 2613 4750 3031 4423 
Q 3450 4097 3450 3541 
Q 3450 3153 3228 2886 
Q 3006 2619 2597 2516 
z
" transform="scale(0.015625)"/>
      </defs>
      <use xlink:href="#DejaVuSans-41"/>
      <use xlink:href="#DejaVuSans-64" transform="translate(66.658203 0)"/>
      <use xlink:href="#DejaVuSans-64" transform="translate(130.134766 0)"/>
      <use xlink:href="#DejaVuSans-69" transform="translate(193.611328 0)"/>
      <use xlink:href="#DejaVuSans-74" transform="translate(221.394531 0)"/>
      <use xlink:href="#DejaVuSans-69" transform="translate(260.603516 0)"/>
      <use xlink:href="#DejaVuSans-6f" transform="translate(288.386719 0)"/>
      <use xlink:href="#DejaVuSans-6e" transform="translate(349.568359 0)"/>
      <use xlink:href="#DejaVuSans-20" transform="translate(412.947266 0)"/>
      <use xlink:href="#DejaVuSans-33" transform="translate(444.734375 0)"/>
     </g>
    </g>
    <g id="line2d_19">
     <path d="M 264.490612 119.259 
L 274.490612 119.259 
L 284.490612 119.259 
" style="fill: none; stroke: #d62728; stroke-width: 0.7; stroke-linecap: square"/>
     <g>
      <use xlink:href="#meb61f4660d" x="274.490612" y="119.259" style="fill: #d62728; stroke: #d62728"/>
     </g>
    </g>
    <g id="text_19">
     <!-- Addition 4 -->
     <g transform="translate(292.490612 122.759) scale(0.1 -0.1)">
      <defs>
       <path id="DejaVuSans-34" d="M 2419 4116 
L 825 1625 
L 2419 1625 
L 2419 4116 
z
M 2253 4666 
L 3047 4666 
L 3047 1625 
L 3713 1625 
L 3713 1100 
L 3047 1100 
L 3047 0 
L 2419 0 
L 2419 1100 
L 313 1100 
L 313 1709 
L 2253 4666 
z
" transform="scale(0.015625)"/>
      </defs>
      <use xlink:href="#DejaVuSans-41"/>
      <use xlink:href="#DejaVuSans-64" transform="translate(66.658203 0)"/>
      <use xlink:href="#DejaVuSans-64" transform="translate(130.134766 0)"/>
      <use xlink:href="#DejaVuSans-69" transform="translate(193.611328 0)"/>
      <use xlink:href="#DejaVuSans-74" transform="translate(221.394531 0)"/>
      <use xlink:href="#DejaVuSans-69" transform="translate(260.603516 0)"/>
      <use xlink:href="#DejaVuSans-6f" transform="translate(288.386719 0)"/>
      <use xlink:href="#DejaVuSans-6e" transform="translate(349.568359 0)"/>
      <use xlink:href="#DejaVuSans-20" transform="translate(412.947266 0)"/>
      <use xlink:href="#DejaVuSans-34" transform="translate(444.734375 0)"/>
     </g>
    </g>
   </g>
  </g>
 </g>
 <defs>
  <clipPath id="pa0429b273b">
   <rect x="40.603125" y="20.798438" width="214.887487" height="154.368"/>
  </clipPath>
 </defs>
</svg>
