<?xml version="1.0" encoding="utf-8" standalone="no"?>
<!DOCTYPE svg PUBLIC "-//W3C//DTD SVG 1.1//EN"
  "http://www.w3.org/Graphics/SVG/1.1/DTD/svg11.dtd">
<svg xmlns:xlink="http://www.w3.org/1999/xlink" width="366.050575pt" height="201.280692pt" viewBox="0 0 366.050575 201.280692" xmlns="http://www.w3.org/2000/svg" version="1.1">
 <metadata>
  <rdf:RDF xmlns:dc="http://purl.org/dc/elements/1.1/" xmlns:cc="http://creativecommons.org/ns#" xmlns:rdf="http://www.w3.org/1999/02/22-rdf-syntax-ns#">
   <cc:Work>
    <dc:type rdf:resource="http://purl.org/dc/dcmitype/StillImage"/>
    <dc:date>2026-01-13T22:54:28.196814</dc:date>
    <dc:format>image/svg+xml</dc:format>
    <dc:creator>
     <cc:Agent>
      <dc:title>Matplotlib v3.10.0, https://matplotlib.org/</dc:title>
     </cc:Agent>
    </dc:creator>
   </cc:Work>
  </rdf:RDF>
 </metadata>
 <defs>
  <style type="text/css">*{stroke-linejoin: round; stroke-linecap: butt}</style>
 </defs>
 <g id="figure_1">
  <g id="patch_1">
   <path d="M 0 201.280692 
L 366.050575 201.280692 
L 366.050575 0 
L 0 0 
z
" style="fill: #ffffff"/>
  </g>
  <g id="axes_1">
   <g id="patch_2">
    <path d="M 46.965625 162.902567 
L 226.461512 162.902567 
L 226.461512 8.534567 
L 46.965625 8.534567 
z
" style="fill: #ffffff"/>
   </g>
   <g id="matplotlib.axis_1">
    <g id="xtick_1">
     <g id="line2d_1">
      <defs>
       <path id="mad85fcf1db" d="M 0 0 
L 0 3.5 
" style="stroke: #000000; stroke-width: 0.8"/>
      </defs>
      <g>
       <use xlink:href="#mad85fcf1db" x="46.965625" y="162.902567" style="stroke: #000000; stroke-width: 0.8"/>
      </g>
     </g>
     <g id="text_1">
      <!-- 0.0 -->
      <g transform="translate(39.014063 177.501004) scale(0.1 -0.1)">
       <defs>
        <path id="DejaVuSans-30" d="M 2034 4250 
Q 1547 4250 1301 3770 
Q 1056 3291 1056 2328 
Q 1056 1369 1301 889 
Q 1547 409 2034 409 
Q 2525 409 2770 889 
Q 3016 1369 3016 2328 
Q 3016 3291 2770 3770 
Q 2525 4250 2034 4250 
z
M 2034 4750 
Q 2819 4750 3233 4129 
Q 3647 3509 3647 2328 
Q 3647 1150 3233 529 
Q 2819 -91 2034 -91 
Q 1250 -91 836 529 
Q 422 1150 422 2328 
Q 422 3509 836 4129 
Q 1250 4750 2034 4750 
z
" transform="scale(0.015625)"/>
        <path id="DejaVuSans-2e" d="M 684 794 
L 1344 794 
L 1344 0 
L 684 0 
L 684 794 
z
" transform="scale(0.015625)"/>
       </defs>
       <use xlink:href="#DejaVuSans-30"/>
       <use xlink:href="#DejaVuSans-2e" transform="translate(63.623047 0)"/>
       <use xlink:href="#DejaVuSans-30" transform="translate(95.410156 0)"/>
      </g>
     </g>
    </g>
    <g id="xtick_2">
     <g id="line2d_2">
      <g>
       <use xlink:href="#mad85fcf1db" x="100.70443" y="162.902567" style="stroke: #000000; stroke-width: 0.8"/>
      </g>
     </g>
     <g id="text_2">
      <!-- 0.5 -->
      <g transform="translate(92.752868 177.501004) scale(0.1 -0.1)">
       <defs>
        <path id="DejaVuSans-35" d="M 691 4666 
L 3169 4666 
L 3169 4134 
L 1269 4134 
L 1269 2991 
Q 1406 3038 1543 3061 
Q 1681 3084 1819 3084 
Q 2600 3084 3056 2656 
Q 3513 2228 3513 1497 
Q 3513 744 3044 326 
Q 2575 -91 1722 -91 
Q 1428 -91 1123 -41 
Q 819 9 494 109 
L 494 744 
Q 775 591 1075 516 
Q 1375 441 1709 441 
Q 2250 441 2565 725 
Q 2881 1009 2881 1497 
Q 2881 1984 2565 2268 
Q 2250 2553 1709 2553 
Q 1456 2553 1204 2497 
Q 953 2441 691 2322 
L 691 4666 
z
" transform="scale(0.015625)"/>
       </defs>
       <use xlink:href="#DejaVuSans-30"/>
       <use xlink:href="#DejaVuSans-2e" transform="translate(63.623047 0)"/>
       <use xlink:href="#DejaVuSans-35" transform="translate(95.410156 0)"/>
      </g>
     </g>
    </g>
    <g id="xtick_3">
     <g id="line2d_3">
      <g>
       <use xlink:href="#mad85fcf1db" x="154.443235" y="162.902567" style="stroke: #000000; stroke-width: 0.8"/>
      </g>
     </g>
     <g id="text_3">
      <!-- 1.0 -->
      <g transform="translate(146.491673 177.501004) scale(0.1 -0.1)">
       <defs>
        <path id="DejaVuSans-31" d="M 794 531 
L 1825 531 
L 1825 4091 
L 703 3866 
L 703 4441 
L 1819 4666 
L 2450 4666 
L 2450 531 
L 3481 531 
L 3481 0 
L 794 0 
L 794 531 
z
" transform="scale(0.015625)"/>
       </defs>
       <use xlink:href="#DejaVuSans-31"/>
       <use xlink:href="#DejaVuSans-2e" transform="translate(63.623047 0)"/>
       <use xlink:href="#DejaVuSans-30" transform="translate(95.410156 0)"/>
      </g>
     </g>
    </g>
    <g id="xtick_4">
     <g id="line2d_4">
      <g>
       <use xlink:href="#mad85fcf1db" x="208.182041" y="162.902567" style="stroke: #000000; stroke-width: 0.8"/>
      </g>
     </g>
     <g id="text_4">
      <!-- 1.5 -->
      <g transform="translate(200.230478 177.501004) scale(0.1 -0.1)">
       <use xlink:href="#DejaVuSans-31"/>
       <use xlink:href="#DejaVuSans-2e" transform="translate(63.623047 0)"/>
       <use xlink:href="#DejaVuSans-35" transform="translate(95.410156 0)"/>
      </g>
     </g>
    </g>
    <g id="text_5">
     <!-- $Σ[Amine]^{1.80}[Phenol]^{-0.11}[ArOPh]^{1.00}Δt$. -->
     <g transform="translate(39.663569 192.001004) scale(0.1 -0.1)">
      <defs>
       <path id="DejaVuSans-3a3" d="M 1353 531 
L 3634 531 
L 3634 0 
L 628 0 
L 628 531 
L 2125 2481 
L 628 4134 
L 628 4666 
L 3578 4666 
L 3578 4134 
L 1353 4134 
L 2850 2494 
L 1353 531 
z
" transform="scale(0.015625)"/>
       <path id="DejaVuSans-5b" d="M 550 4863 
L 1875 4863 
L 1875 4416 
L 1125 4416 
L 1125 -397 
L 1875 -397 
L 1875 -844 
L 550 -844 
L 550 4863 
z
" transform="scale(0.015625)"/>
       <path id="DejaVuSans-Oblique-41" d="M 2356 4666 
L 3072 4666 
L 3938 0 
L 3278 0 
L 3084 1197 
L 984 1197 
L 325 0 
L -341 0 
L 2356 4666 
z
M 2584 4044 
L 1275 1722 
L 2988 1722 
L 2584 4044 
z
" transform="scale(0.015625)"/>
       <path id="DejaVuSans-Oblique-6d" d="M 5747 2113 
L 5338 0 
L 4763 0 
L 5166 2094 
Q 5191 2228 5203 2325 
Q 5216 2422 5216 2491 
Q 5216 2772 5059 2928 
Q 4903 3084 4622 3084 
Q 4203 3084 3875 2770 
Q 3547 2456 3450 1953 
L 3066 0 
L 2491 0 
L 2900 2094 
Q 2925 2209 2937 2307 
Q 2950 2406 2950 2484 
Q 2950 2769 2794 2926 
Q 2638 3084 2363 3084 
Q 1938 3084 1609 2770 
Q 1281 2456 1184 1953 
L 800 0 
L 225 0 
L 909 3500 
L 1484 3500 
L 1375 2956 
Q 1609 3263 1923 3423 
Q 2238 3584 2597 3584 
Q 2978 3584 3223 3384 
Q 3469 3184 3519 2828 
Q 3781 3197 4126 3390 
Q 4472 3584 4856 3584 
Q 5306 3584 5551 3325 
Q 5797 3066 5797 2591 
Q 5797 2488 5784 2364 
Q 5772 2241 5747 2113 
z
" transform="scale(0.015625)"/>
       <path id="DejaVuSans-Oblique-69" d="M 1172 4863 
L 1747 4863 
L 1606 4134 
L 1031 4134 
L 1172 4863 
z
M 909 3500 
L 1484 3500 
L 800 0 
L 225 0 
L 909 3500 
z
" transform="scale(0.015625)"/>
       <path id="DejaVuSans-Oblique-6e" d="M 3566 2113 
L 3156 0 
L 2578 0 
L 2988 2091 
Q 3016 2238 3031 2350 
Q 3047 2463 3047 2528 
Q 3047 2791 2881 2937 
Q 2716 3084 2419 3084 
Q 1956 3084 1622 2776 
Q 1288 2469 1184 1941 
L 800 0 
L 225 0 
L 903 3500 
L 1478 3500 
L 1363 2950 
Q 1603 3253 1940 3418 
Q 2278 3584 2650 3584 
Q 3113 3584 3367 3334 
Q 3622 3084 3622 2631 
Q 3622 2519 3608 2391 
Q 3594 2263 3566 2113 
z
" transform="scale(0.015625)"/>
       <path id="DejaVuSans-Oblique-65" d="M 3078 2063 
Q 3088 2113 3092 2166 
Q 3097 2219 3097 2272 
Q 3097 2653 2873 2875 
Q 2650 3097 2266 3097 
Q 1838 3097 1509 2826 
Q 1181 2556 1013 2059 
L 3078 2063 
z
M 3578 1613 
L 903 1613 
Q 884 1494 878 1425 
Q 872 1356 872 1306 
Q 872 872 1139 634 
Q 1406 397 1894 397 
Q 2269 397 2603 481 
Q 2938 566 3225 728 
L 3116 159 
Q 2806 34 2476 -28 
Q 2147 -91 1806 -91 
Q 1078 -91 686 257 
Q 294 606 294 1247 
Q 294 1794 489 2264 
Q 684 2734 1063 3103 
Q 1306 3334 1642 3459 
Q 1978 3584 2356 3584 
Q 2950 3584 3301 3228 
Q 3653 2872 3653 2272 
Q 3653 2128 3634 1964 
Q 3616 1800 3578 1613 
z
" transform="scale(0.015625)"/>
       <path id="DejaVuSans-5d" d="M 1947 4863 
L 1947 -844 
L 622 -844 
L 622 -397 
L 1369 -397 
L 1369 4416 
L 622 4416 
L 622 4863 
L 1947 4863 
z
" transform="scale(0.015625)"/>
       <path id="DejaVuSans-38" d="M 2034 2216 
Q 1584 2216 1326 1975 
Q 1069 1734 1069 1313 
Q 1069 891 1326 650 
Q 1584 409 2034 409 
Q 2484 409 2743 651 
Q 3003 894 3003 1313 
Q 3003 1734 2745 1975 
Q 2488 2216 2034 2216 
z
M 1403 2484 
Q 997 2584 770 2862 
Q 544 3141 544 3541 
Q 544 4100 942 4425 
Q 1341 4750 2034 4750 
Q 2731 4750 3128 4425 
Q 3525 4100 3525 3541 
Q 3525 3141 3298 2862 
Q 3072 2584 2669 2484 
Q 3125 2378 3379 2068 
Q 3634 1759 3634 1313 
Q 3634 634 3220 271 
Q 2806 -91 2034 -91 
Q 1263 -91 848 271 
Q 434 634 434 1313 
Q 434 1759 690 2068 
Q 947 2378 1403 2484 
z
M 1172 3481 
Q 1172 3119 1398 2916 
Q 1625 2713 2034 2713 
Q 2441 2713 2670 2916 
Q 2900 3119 2900 3481 
Q 2900 3844 2670 4047 
Q 2441 4250 2034 4250 
Q 1625 4250 1398 4047 
Q 1172 3844 1172 3481 
z
" transform="scale(0.015625)"/>
       <path id="DejaVuSans-Oblique-50" d="M 1081 4666 
L 2541 4666 
Q 3178 4666 3512 4369 
Q 3847 4072 3847 3500 
Q 3847 2731 3353 2303 
Q 2859 1875 1966 1875 
L 1172 1875 
L 806 0 
L 172 0 
L 1081 4666 
z
M 1613 4147 
L 1275 2394 
L 2069 2394 
Q 2606 2394 2893 2669 
Q 3181 2944 3181 3456 
Q 3181 3784 2986 3965 
Q 2791 4147 2438 4147 
L 1613 4147 
z
" transform="scale(0.015625)"/>
       <path id="DejaVuSans-Oblique-68" d="M 3566 2113 
L 3156 0 
L 2578 0 
L 2988 2091 
Q 3016 2238 3031 2350 
Q 3047 2463 3047 2528 
Q 3047 2791 2881 2937 
Q 2716 3084 2419 3084 
Q 1956 3084 1617 2771 
Q 1278 2459 1178 1941 
L 800 0 
L 225 0 
L 1172 4863 
L 1747 4863 
L 1375 2950 
Q 1594 3244 1934 3414 
Q 2275 3584 2650 3584 
Q 3113 3584 3367 3334 
Q 3622 3084 3622 2631 
Q 3622 2519 3608 2391 
Q 3594 2263 3566 2113 
z
" transform="scale(0.015625)"/>
       <path id="DejaVuSans-Oblique-6f" d="M 1625 -91 
Q 1009 -91 651 289 
Q 294 669 294 1325 
Q 294 1706 417 2101 
Q 541 2497 738 2766 
Q 1047 3184 1428 3384 
Q 1809 3584 2291 3584 
Q 2888 3584 3255 3212 
Q 3622 2841 3622 2241 
Q 3622 1825 3500 1412 
Q 3378 1000 3181 728 
Q 2875 309 2494 109 
Q 2113 -91 1625 -91 
z
M 891 1344 
Q 891 869 1089 633 
Q 1288 397 1691 397 
Q 2269 397 2648 901 
Q 3028 1406 3028 2181 
Q 3028 2634 2825 2865 
Q 2622 3097 2228 3097 
Q 1903 3097 1650 2945 
Q 1397 2794 1197 2484 
Q 1050 2253 970 1956 
Q 891 1659 891 1344 
z
" transform="scale(0.015625)"/>
       <path id="DejaVuSans-Oblique-6c" d="M 1172 4863 
L 1747 4863 
L 800 0 
L 225 0 
L 1172 4863 
z
" transform="scale(0.015625)"/>
       <path id="DejaVuSans-2212" d="M 678 2272 
L 4684 2272 
L 4684 1741 
L 678 1741 
L 678 2272 
z
" transform="scale(0.015625)"/>
       <path id="DejaVuSans-Oblique-72" d="M 2853 2969 
Q 2766 3016 2653 3041 
Q 2541 3066 2413 3066 
Q 1953 3066 1609 2717 
Q 1266 2369 1153 1784 
L 800 0 
L 225 0 
L 909 3500 
L 1484 3500 
L 1375 2956 
Q 1603 3259 1920 3421 
Q 2238 3584 2597 3584 
Q 2691 3584 2781 3573 
Q 2872 3563 2963 3538 
L 2853 2969 
z
" transform="scale(0.015625)"/>
       <path id="DejaVuSans-Oblique-4f" d="M 2919 4238 
Q 2400 4238 2003 3986 
Q 1606 3734 1313 3219 
Q 1125 2891 1026 2522 
Q 928 2153 928 1778 
Q 928 1128 1239 775 
Q 1550 422 2119 422 
Q 2631 422 3032 676 
Q 3434 931 3719 1434 
Q 3909 1772 4009 2142 
Q 4109 2513 4109 2881 
Q 4109 3528 3796 3883 
Q 3484 4238 2919 4238 
z
M 2100 -91 
Q 1241 -91 748 418 
Q 256 928 256 1813 
Q 256 2319 448 2847 
Q 641 3375 978 3788 
Q 1375 4272 1862 4511 
Q 2350 4750 2938 4750 
Q 3794 4750 4287 4245 
Q 4781 3741 4781 2869 
Q 4781 2331 4593 1812 
Q 4406 1294 4056 872 
Q 3656 384 3173 146 
Q 2691 -91 2100 -91 
z
" transform="scale(0.015625)"/>
       <path id="DejaVuSans-394" d="M 2188 4044 
L 906 525 
L 3472 525 
L 2188 4044 
z
M 50 0 
L 1831 4666 
L 2547 4666 
L 4325 0 
L 50 0 
z
" transform="scale(0.015625)"/>
       <path id="DejaVuSans-Oblique-74" d="M 2706 3500 
L 2619 3053 
L 1472 3053 
L 1100 1153 
Q 1081 1047 1072 975 
Q 1063 903 1063 863 
Q 1063 663 1183 572 
Q 1303 481 1569 481 
L 2150 481 
L 2053 0 
L 1503 0 
Q 991 0 739 200 
Q 488 400 488 806 
Q 488 878 497 964 
Q 506 1050 525 1153 
L 897 3053 
L 409 3053 
L 500 3500 
L 978 3500 
L 1172 4494 
L 1747 4494 
L 1556 3500 
L 2706 3500 
z
" transform="scale(0.015625)"/>
      </defs>
      <use xlink:href="#DejaVuSans-3a3" transform="translate(0 0.765625)"/>
      <use xlink:href="#DejaVuSans-5b" transform="translate(63.183594 0.765625)"/>
      <use xlink:href="#DejaVuSans-Oblique-41" transform="translate(102.197266 0.765625)"/>
      <use xlink:href="#DejaVuSans-Oblique-6d" transform="translate(170.605469 0.765625)"/>
      <use xlink:href="#DejaVuSans-Oblique-69" transform="translate(268.017578 0.765625)"/>
      <use xlink:href="#DejaVuSans-Oblique-6e" transform="translate(295.800781 0.765625)"/>
      <use xlink:href="#DejaVuSans-Oblique-65" transform="translate(359.179688 0.765625)"/>
      <use xlink:href="#DejaVuSans-5d" transform="translate(420.703125 0.765625)"/>
      <use xlink:href="#DejaVuSans-31" transform="translate(460.673828 39.046875) scale(0.7)"/>
      <use xlink:href="#DejaVuSans-2e" transform="translate(505.209961 39.046875) scale(0.7)"/>
      <use xlink:href="#DejaVuSans-38" transform="translate(525.623438 39.046875) scale(0.7)"/>
      <use xlink:href="#DejaVuSans-30" transform="translate(570.15957 39.046875) scale(0.7)"/>
      <use xlink:href="#DejaVuSans-5b" transform="translate(617.430078 0.765625)"/>
      <use xlink:href="#DejaVuSans-Oblique-50" transform="translate(656.44375 0.765625)"/>
      <use xlink:href="#DejaVuSans-Oblique-68" transform="translate(716.746484 0.765625)"/>
      <use xlink:href="#DejaVuSans-Oblique-65" transform="translate(780.125391 0.765625)"/>
      <use xlink:href="#DejaVuSans-Oblique-6e" transform="translate(841.648828 0.765625)"/>
      <use xlink:href="#DejaVuSans-Oblique-6f" transform="translate(905.027734 0.765625)"/>
      <use xlink:href="#DejaVuSans-Oblique-6c" transform="translate(966.209375 0.765625)"/>
      <use xlink:href="#DejaVuSans-5d" transform="translate(993.992578 0.765625)"/>
      <use xlink:href="#DejaVuSans-2212" transform="translate(1033.963281 39.046875) scale(0.7)"/>
      <use xlink:href="#DejaVuSans-30" transform="translate(1092.615625 39.046875) scale(0.7)"/>
      <use xlink:href="#DejaVuSans-2e" transform="translate(1137.151758 39.046875) scale(0.7)"/>
      <use xlink:href="#DejaVuSans-31" transform="translate(1159.402734 39.046875) scale(0.7)"/>
      <use xlink:href="#DejaVuSans-31" transform="translate(1203.938867 39.046875) scale(0.7)"/>
      <use xlink:href="#DejaVuSans-5b" transform="translate(1251.209375 0.765625)"/>
      <use xlink:href="#DejaVuSans-Oblique-41" transform="translate(1290.223047 0.765625)"/>
      <use xlink:href="#DejaVuSans-Oblique-72" transform="translate(1358.63125 0.765625)"/>
      <use xlink:href="#DejaVuSans-Oblique-4f" transform="translate(1399.744531 0.765625)"/>
      <use xlink:href="#DejaVuSans-Oblique-50" transform="translate(1478.455469 0.765625)"/>
      <use xlink:href="#DejaVuSans-Oblique-68" transform="translate(1538.758203 0.765625)"/>
      <use xlink:href="#DejaVuSans-5d" transform="translate(1602.137109 0.765625)"/>
      <use xlink:href="#DejaVuSans-31" transform="translate(1642.107812 39.046875) scale(0.7)"/>
      <use xlink:href="#DejaVuSans-2e" transform="translate(1686.643945 39.046875) scale(0.7)"/>
      <use xlink:href="#DejaVuSans-30" transform="translate(1708.894922 39.046875) scale(0.7)"/>
      <use xlink:href="#DejaVuSans-30" transform="translate(1753.431055 39.046875) scale(0.7)"/>
      <use xlink:href="#DejaVuSans-394" transform="translate(1800.701562 0.765625)"/>
      <use xlink:href="#DejaVuSans-Oblique-74" transform="translate(1869.109766 0.765625)"/>
      <use xlink:href="#DejaVuSans-2e" transform="translate(1908.31875 0.765625)"/>
     </g>
    </g>
    <g id="text_6">
     <!-- 1e5 -->
     <g transform="translate(219.25062 190.179129) scale(0.1 -0.1)">
      <defs>
       <path id="DejaVuSans-65" d="M 3597 1894 
L 3597 1613 
L 953 1613 
Q 991 1019 1311 708 
Q 1631 397 2203 397 
Q 2534 397 2845 478 
Q 3156 559 3463 722 
L 3463 178 
Q 3153 47 2828 -22 
Q 2503 -91 2169 -91 
Q 1331 -91 842 396 
Q 353 884 353 1716 
Q 353 2575 817 3079 
Q 1281 3584 2069 3584 
Q 2775 3584 3186 3129 
Q 3597 2675 3597 1894 
z
M 3022 2063 
Q 3016 2534 2758 2815 
Q 2500 3097 2075 3097 
Q 1594 3097 1305 2825 
Q 1016 2553 972 2059 
L 3022 2063 
z
" transform="scale(0.015625)"/>
      </defs>
      <use xlink:href="#DejaVuSans-31"/>
      <use xlink:href="#DejaVuSans-65" transform="translate(63.623047 0)"/>
      <use xlink:href="#DejaVuSans-35" transform="translate(125.146484 0)"/>
     </g>
    </g>
   </g>
   <g id="matplotlib.axis_2">
    <g id="ytick_1">
     <g id="line2d_5">
      <defs>
       <path id="m37822cd389" d="M 0 0 
L -3.5 0 
" style="stroke: #000000; stroke-width: 0.8"/>
      </defs>
      <g>
       <use xlink:href="#m37822cd389" x="46.965625" y="148.788058" style="stroke: #000000; stroke-width: 0.8"/>
      </g>
     </g>
     <g id="text_7">
      <!-- 100 -->
      <g transform="translate(20.878125 152.587277) scale(0.1 -0.1)">
       <use xlink:href="#DejaVuSans-31"/>
       <use xlink:href="#DejaVuSans-30" transform="translate(63.623047 0)"/>
       <use xlink:href="#DejaVuSans-30" transform="translate(127.246094 0)"/>
      </g>
     </g>
    </g>
    <g id="ytick_2">
     <g id="line2d_6">
      <g>
       <use xlink:href="#m37822cd389" x="46.965625" y="121.23029" style="stroke: #000000; stroke-width: 0.8"/>
      </g>
     </g>
     <g id="text_8">
      <!-- 110 -->
      <g transform="translate(20.878125 125.029509) scale(0.1 -0.1)">
       <use xlink:href="#DejaVuSans-31"/>
       <use xlink:href="#DejaVuSans-31" transform="translate(63.623047 0)"/>
       <use xlink:href="#DejaVuSans-30" transform="translate(127.246094 0)"/>
      </g>
     </g>
    </g>
    <g id="ytick_3">
     <g id="line2d_7">
      <g>
       <use xlink:href="#m37822cd389" x="46.965625" y="93.672522" style="stroke: #000000; stroke-width: 0.8"/>
      </g>
     </g>
     <g id="text_9">
      <!-- 120 -->
      <g transform="translate(20.878125 97.471741) scale(0.1 -0.1)">
       <defs>
        <path id="DejaVuSans-32" d="M 1228 531 
L 3431 531 
L 3431 0 
L 469 0 
L 469 531 
Q 828 903 1448 1529 
Q 2069 2156 2228 2338 
Q 2531 2678 2651 2914 
Q 2772 3150 2772 3378 
Q 2772 3750 2511 3984 
Q 2250 4219 1831 4219 
Q 1534 4219 1204 4116 
Q 875 4013 500 3803 
L 500 4441 
Q 881 4594 1212 4672 
Q 1544 4750 1819 4750 
Q 2544 4750 2975 4387 
Q 3406 4025 3406 3419 
Q 3406 3131 3298 2873 
Q 3191 2616 2906 2266 
Q 2828 2175 2409 1742 
Q 1991 1309 1228 531 
z
" transform="scale(0.015625)"/>
       </defs>
       <use xlink:href="#DejaVuSans-31"/>
       <use xlink:href="#DejaVuSans-32" transform="translate(63.623047 0)"/>
       <use xlink:href="#DejaVuSans-30" transform="translate(127.246094 0)"/>
      </g>
     </g>
    </g>
    <g id="ytick_4">
     <g id="line2d_8">
      <g>
       <use xlink:href="#m37822cd389" x="46.965625" y="66.114754" style="stroke: #000000; stroke-width: 0.8"/>
      </g>
     </g>
     <g id="text_10">
      <!-- 130 -->
      <g transform="translate(20.878125 69.913973) scale(0.1 -0.1)">
       <defs>
        <path id="DejaVuSans-33" d="M 2597 2516 
Q 3050 2419 3304 2112 
Q 3559 1806 3559 1356 
Q 3559 666 3084 287 
Q 2609 -91 1734 -91 
Q 1441 -91 1130 -33 
Q 819 25 488 141 
L 488 750 
Q 750 597 1062 519 
Q 1375 441 1716 441 
Q 2309 441 2620 675 
Q 2931 909 2931 1356 
Q 2931 1769 2642 2001 
Q 2353 2234 1838 2234 
L 1294 2234 
L 1294 2753 
L 1863 2753 
Q 2328 2753 2575 2939 
Q 2822 3125 2822 3475 
Q 2822 3834 2567 4026 
Q 2313 4219 1838 4219 
Q 1578 4219 1281 4162 
Q 984 4106 628 3988 
L 628 4550 
Q 988 4650 1302 4700 
Q 1616 4750 1894 4750 
Q 2613 4750 3031 4423 
Q 3450 4097 3450 3541 
Q 3450 3153 3228 2886 
Q 3006 2619 2597 2516 
z
" transform="scale(0.015625)"/>
       </defs>
       <use xlink:href="#DejaVuSans-31"/>
       <use xlink:href="#DejaVuSans-33" transform="translate(63.623047 0)"/>
       <use xlink:href="#DejaVuSans-30" transform="translate(127.246094 0)"/>
      </g>
     </g>
    </g>
    <g id="ytick_5">
     <g id="line2d_9">
      <g>
       <use xlink:href="#m37822cd389" x="46.965625" y="38.556987" style="stroke: #000000; stroke-width: 0.8"/>
      </g>
     </g>
     <g id="text_11">
      <!-- 140 -->
      <g transform="translate(20.878125 42.356205) scale(0.1 -0.1)">
       <defs>
        <path id="DejaVuSans-34" d="M 2419 4116 
L 825 1625 
L 2419 1625 
L 2419 4116 
z
M 2253 4666 
L 3047 4666 
L 3047 1625 
L 3713 1625 
L 3713 1100 
L 3047 1100 
L 3047 0 
L 2419 0 
L 2419 1100 
L 313 1100 
L 313 1709 
L 2253 4666 
z
" transform="scale(0.015625)"/>
       </defs>
       <use xlink:href="#DejaVuSans-31"/>
       <use xlink:href="#DejaVuSans-34" transform="translate(63.623047 0)"/>
       <use xlink:href="#DejaVuSans-30" transform="translate(127.246094 0)"/>
      </g>
     </g>
    </g>
    <g id="ytick_6">
     <g id="line2d_10">
      <g>
       <use xlink:href="#m37822cd389" x="46.965625" y="10.999219" style="stroke: #000000; stroke-width: 0.8"/>
      </g>
     </g>
     <g id="text_12">
      <!-- 150 -->
      <g transform="translate(20.878125 14.798437) scale(0.1 -0.1)">
       <use xlink:href="#DejaVuSans-31"/>
       <use xlink:href="#DejaVuSans-35" transform="translate(63.623047 0)"/>
       <use xlink:href="#DejaVuSans-30" transform="translate(127.246094 0)"/>
      </g>
     </g>
    </g>
    <g id="text_13">
     <!-- Shifted [Product] / mM -->
     <g transform="translate(14.798438 141.853723) rotate(-90) scale(0.1 -0.1)">
      <defs>
       <path id="DejaVuSans-53" d="M 3425 4513 
L 3425 3897 
Q 3066 4069 2747 4153 
Q 2428 4238 2131 4238 
Q 1616 4238 1336 4038 
Q 1056 3838 1056 3469 
Q 1056 3159 1242 3001 
Q 1428 2844 1947 2747 
L 2328 2669 
Q 3034 2534 3370 2195 
Q 3706 1856 3706 1288 
Q 3706 609 3251 259 
Q 2797 -91 1919 -91 
Q 1588 -91 1214 -16 
Q 841 59 441 206 
L 441 856 
Q 825 641 1194 531 
Q 1563 422 1919 422 
Q 2459 422 2753 634 
Q 3047 847 3047 1241 
Q 3047 1584 2836 1778 
Q 2625 1972 2144 2069 
L 1759 2144 
Q 1053 2284 737 2584 
Q 422 2884 422 3419 
Q 422 4038 858 4394 
Q 1294 4750 2059 4750 
Q 2388 4750 2728 4690 
Q 3069 4631 3425 4513 
z
" transform="scale(0.015625)"/>
       <path id="DejaVuSans-68" d="M 3513 2113 
L 3513 0 
L 2938 0 
L 2938 2094 
Q 2938 2591 2744 2837 
Q 2550 3084 2163 3084 
Q 1697 3084 1428 2787 
Q 1159 2491 1159 1978 
L 1159 0 
L 581 0 
L 581 4863 
L 1159 4863 
L 1159 2956 
Q 1366 3272 1645 3428 
Q 1925 3584 2291 3584 
Q 2894 3584 3203 3211 
Q 3513 2838 3513 2113 
z
" transform="scale(0.015625)"/>
       <path id="DejaVuSans-69" d="M 603 3500 
L 1178 3500 
L 1178 0 
L 603 0 
L 603 3500 
z
M 603 4863 
L 1178 4863 
L 1178 4134 
L 603 4134 
L 603 4863 
z
" transform="scale(0.015625)"/>
       <path id="DejaVuSans-66" d="M 2375 4863 
L 2375 4384 
L 1825 4384 
Q 1516 4384 1395 4259 
Q 1275 4134 1275 3809 
L 1275 3500 
L 2222 3500 
L 2222 3053 
L 1275 3053 
L 1275 0 
L 697 0 
L 697 3053 
L 147 3053 
L 147 3500 
L 697 3500 
L 697 3744 
Q 697 4328 969 4595 
Q 1241 4863 1831 4863 
L 2375 4863 
z
" transform="scale(0.015625)"/>
       <path id="DejaVuSans-74" d="M 1172 4494 
L 1172 3500 
L 2356 3500 
L 2356 3053 
L 1172 3053 
L 1172 1153 
Q 1172 725 1289 603 
Q 1406 481 1766 481 
L 2356 481 
L 2356 0 
L 1766 0 
Q 1100 0 847 248 
Q 594 497 594 1153 
L 594 3053 
L 172 3053 
L 172 3500 
L 594 3500 
L 594 4494 
L 1172 4494 
z
" transform="scale(0.015625)"/>
       <path id="DejaVuSans-64" d="M 2906 2969 
L 2906 4863 
L 3481 4863 
L 3481 0 
L 2906 0 
L 2906 525 
Q 2725 213 2448 61 
Q 2172 -91 1784 -91 
Q 1150 -91 751 415 
Q 353 922 353 1747 
Q 353 2572 751 3078 
Q 1150 3584 1784 3584 
Q 2172 3584 2448 3432 
Q 2725 3281 2906 2969 
z
M 947 1747 
Q 947 1113 1208 752 
Q 1469 391 1925 391 
Q 2381 391 2643 752 
Q 2906 1113 2906 1747 
Q 2906 2381 2643 2742 
Q 2381 3103 1925 3103 
Q 1469 3103 1208 2742 
Q 947 2381 947 1747 
z
" transform="scale(0.015625)"/>
       <path id="DejaVuSans-20" transform="scale(0.015625)"/>
       <path id="DejaVuSans-50" d="M 1259 4147 
L 1259 2394 
L 2053 2394 
Q 2494 2394 2734 2622 
Q 2975 2850 2975 3272 
Q 2975 3691 2734 3919 
Q 2494 4147 2053 4147 
L 1259 4147 
z
M 628 4666 
L 2053 4666 
Q 2838 4666 3239 4311 
Q 3641 3956 3641 3272 
Q 3641 2581 3239 2228 
Q 2838 1875 2053 1875 
L 1259 1875 
L 1259 0 
L 628 0 
L 628 4666 
z
" transform="scale(0.015625)"/>
       <path id="DejaVuSans-72" d="M 2631 2963 
Q 2534 3019 2420 3045 
Q 2306 3072 2169 3072 
Q 1681 3072 1420 2755 
Q 1159 2438 1159 1844 
L 1159 0 
L 581 0 
L 581 3500 
L 1159 3500 
L 1159 2956 
Q 1341 3275 1631 3429 
Q 1922 3584 2338 3584 
Q 2397 3584 2469 3576 
Q 2541 3569 2628 3553 
L 2631 2963 
z
" transform="scale(0.015625)"/>
       <path id="DejaVuSans-6f" d="M 1959 3097 
Q 1497 3097 1228 2736 
Q 959 2375 959 1747 
Q 959 1119 1226 758 
Q 1494 397 1959 397 
Q 2419 397 2687 759 
Q 2956 1122 2956 1747 
Q 2956 2369 2687 2733 
Q 2419 3097 1959 3097 
z
M 1959 3584 
Q 2709 3584 3137 3096 
Q 3566 2609 3566 1747 
Q 3566 888 3137 398 
Q 2709 -91 1959 -91 
Q 1206 -91 779 398 
Q 353 888 353 1747 
Q 353 2609 779 3096 
Q 1206 3584 1959 3584 
z
" transform="scale(0.015625)"/>
       <path id="DejaVuSans-75" d="M 544 1381 
L 544 3500 
L 1119 3500 
L 1119 1403 
Q 1119 906 1312 657 
Q 1506 409 1894 409 
Q 2359 409 2629 706 
Q 2900 1003 2900 1516 
L 2900 3500 
L 3475 3500 
L 3475 0 
L 2900 0 
L 2900 538 
Q 2691 219 2414 64 
Q 2138 -91 1772 -91 
Q 1169 -91 856 284 
Q 544 659 544 1381 
z
M 1991 3584 
L 1991 3584 
z
" transform="scale(0.015625)"/>
       <path id="DejaVuSans-63" d="M 3122 3366 
L 3122 2828 
Q 2878 2963 2633 3030 
Q 2388 3097 2138 3097 
Q 1578 3097 1268 2742 
Q 959 2388 959 1747 
Q 959 1106 1268 751 
Q 1578 397 2138 397 
Q 2388 397 2633 464 
Q 2878 531 3122 666 
L 3122 134 
Q 2881 22 2623 -34 
Q 2366 -91 2075 -91 
Q 1284 -91 818 406 
Q 353 903 353 1747 
Q 353 2603 823 3093 
Q 1294 3584 2113 3584 
Q 2378 3584 2631 3529 
Q 2884 3475 3122 3366 
z
" transform="scale(0.015625)"/>
       <path id="DejaVuSans-2f" d="M 1625 4666 
L 2156 4666 
L 531 -594 
L 0 -594 
L 1625 4666 
z
" transform="scale(0.015625)"/>
       <path id="DejaVuSans-6d" d="M 3328 2828 
Q 3544 3216 3844 3400 
Q 4144 3584 4550 3584 
Q 5097 3584 5394 3201 
Q 5691 2819 5691 2113 
L 5691 0 
L 5113 0 
L 5113 2094 
Q 5113 2597 4934 2840 
Q 4756 3084 4391 3084 
Q 3944 3084 3684 2787 
Q 3425 2491 3425 1978 
L 3425 0 
L 2847 0 
L 2847 2094 
Q 2847 2600 2669 2842 
Q 2491 3084 2119 3084 
Q 1678 3084 1418 2786 
Q 1159 2488 1159 1978 
L 1159 0 
L 581 0 
L 581 3500 
L 1159 3500 
L 1159 2956 
Q 1356 3278 1631 3431 
Q 1906 3584 2284 3584 
Q 2666 3584 2933 3390 
Q 3200 3197 3328 2828 
z
" transform="scale(0.015625)"/>
       <path id="DejaVuSans-4d" d="M 628 4666 
L 1569 4666 
L 2759 1491 
L 3956 4666 
L 4897 4666 
L 4897 0 
L 4281 0 
L 4281 4097 
L 3078 897 
L 2444 897 
L 1241 4097 
L 1241 0 
L 628 0 
L 628 4666 
z
" transform="scale(0.015625)"/>
      </defs>
      <use xlink:href="#DejaVuSans-53"/>
      <use xlink:href="#DejaVuSans-68" transform="translate(63.476562 0)"/>
      <use xlink:href="#DejaVuSans-69" transform="translate(126.855469 0)"/>
      <use xlink:href="#DejaVuSans-66" transform="translate(154.638672 0)"/>
      <use xlink:href="#DejaVuSans-74" transform="translate(188.09375 0)"/>
      <use xlink:href="#DejaVuSans-65" transform="translate(227.302734 0)"/>
      <use xlink:href="#DejaVuSans-64" transform="translate(288.826172 0)"/>
      <use xlink:href="#DejaVuSans-20" transform="translate(352.302734 0)"/>
      <use xlink:href="#DejaVuSans-5b" transform="translate(384.089844 0)"/>
      <use xlink:href="#DejaVuSans-50" transform="translate(423.103516 0)"/>
      <use xlink:href="#DejaVuSans-72" transform="translate(481.65625 0)"/>
      <use xlink:href="#DejaVuSans-6f" transform="translate(520.519531 0)"/>
      <use xlink:href="#DejaVuSans-64" transform="translate(581.701172 0)"/>
      <use xlink:href="#DejaVuSans-75" transform="translate(645.177734 0)"/>
      <use xlink:href="#DejaVuSans-63" transform="translate(708.556641 0)"/>
      <use xlink:href="#DejaVuSans-74" transform="translate(763.537109 0)"/>
      <use xlink:href="#DejaVuSans-5d" transform="translate(802.746094 0)"/>
      <use xlink:href="#DejaVuSans-20" transform="translate(841.759766 0)"/>
      <use xlink:href="#DejaVuSans-2f" transform="translate(873.546875 0)"/>
      <use xlink:href="#DejaVuSans-20" transform="translate(907.238281 0)"/>
      <use xlink:href="#DejaVuSans-6d" transform="translate(939.025391 0)"/>
      <use xlink:href="#DejaVuSans-4d" transform="translate(1036.4375 0)"/>
     </g>
    </g>
   </g>
   <g id="line2d_11">
    <path d="M 46.965625 154.067472 
L 51.050583 152.39759 
L 63.634114 144.674648 
L 73.355292 138.164656 
L 81.563019 132.669578 
L 88.30429 127.59664 
L 94.0844 123.516839 
L 99.071917 119.359979 
L 103.605455 116.460822 
L 107.463956 112.564334 
L 110.804138 109.370569 
L 113.873811 106.97218 
L 116.540406 104.40355 
L 118.977062 102.860076 
L 121.230569 101.314026 
L 123.360334 99.209063 
L 125.262008 98.196869 
L 127.029224 96.172726 
L 128.701616 94.936983 
L 130.197824 93.527726 
L 131.605136 92.817481 
L 132.937085 91.690535 
L 134.203307 90.433683 
L 135.367787 89.906882 
L 136.476424 89.0723 
L 137.530805 87.462453 
L 138.488025 87.350252 
L 139.411151 86.314499 
L 140.279885 85.523156 
L 141.09929 84.219714 
L 141.836019 83.50098 
" clip-path="url(#p9e8f44cd82)" style="fill: none; stroke: #1f77b4; stroke-width: 0.7; stroke-linecap: square"/>
    <defs>
     <path id="m042431c624" d="M 0 0.9 
C 0.238683 0.9 0.467622 0.80517 0.636396 0.636396 
C 0.80517 0.467622 0.9 0.238683 0.9 0 
C 0.9 -0.238683 0.80517 -0.467622 0.636396 -0.636396 
C 0.467622 -0.80517 0.238683 -0.9 0 -0.9 
C -0.238683 -0.9 -0.467622 -0.80517 -0.636396 -0.636396 
C -0.80517 -0.467622 -0.9 -0.238683 -0.9 0 
C -0.9 0.238683 -0.80517 0.467622 -0.636396 0.636396 
C -0.467622 0.80517 -0.238683 0.9 0 0.9 
z
" style="stroke: #1f77b4"/>
    </defs>
    <g clip-path="url(#p9e8f44cd82)">
     <use xlink:href="#m042431c624" x="46.965625" y="154.067472" style="fill: #1f77b4; stroke: #1f77b4"/>
     <use xlink:href="#m042431c624" x="51.050583" y="152.39759" style="fill: #1f77b4; stroke: #1f77b4"/>
     <use xlink:href="#m042431c624" x="63.634114" y="144.674648" style="fill: #1f77b4; stroke: #1f77b4"/>
     <use xlink:href="#m042431c624" x="73.355292" y="138.164656" style="fill: #1f77b4; stroke: #1f77b4"/>
     <use xlink:href="#m042431c624" x="81.563019" y="132.669578" style="fill: #1f77b4; stroke: #1f77b4"/>
     <use xlink:href="#m042431c624" x="88.30429" y="127.59664" style="fill: #1f77b4; stroke: #1f77b4"/>
     <use xlink:href="#m042431c624" x="94.0844" y="123.516839" style="fill: #1f77b4; stroke: #1f77b4"/>
     <use xlink:href="#m042431c624" x="99.071917" y="119.359979" style="fill: #1f77b4; stroke: #1f77b4"/>
     <use xlink:href="#m042431c624" x="103.605455" y="116.460822" style="fill: #1f77b4; stroke: #1f77b4"/>
     <use xlink:href="#m042431c624" x="107.463956" y="112.564334" style="fill: #1f77b4; stroke: #1f77b4"/>
     <use xlink:href="#m042431c624" x="110.804138" y="109.370569" style="fill: #1f77b4; stroke: #1f77b4"/>
     <use xlink:href="#m042431c624" x="113.873811" y="106.97218" style="fill: #1f77b4; stroke: #1f77b4"/>
     <use xlink:href="#m042431c624" x="116.540406" y="104.40355" style="fill: #1f77b4; stroke: #1f77b4"/>
     <use xlink:href="#m042431c624" x="118.977062" y="102.860076" style="fill: #1f77b4; stroke: #1f77b4"/>
     <use xlink:href="#m042431c624" x="121.230569" y="101.314026" style="fill: #1f77b4; stroke: #1f77b4"/>
     <use xlink:href="#m042431c624" x="123.360334" y="99.209063" style="fill: #1f77b4; stroke: #1f77b4"/>
     <use xlink:href="#m042431c624" x="125.262008" y="98.196869" style="fill: #1f77b4; stroke: #1f77b4"/>
     <use xlink:href="#m042431c624" x="127.029224" y="96.172726" style="fill: #1f77b4; stroke: #1f77b4"/>
     <use xlink:href="#m042431c624" x="128.701616" y="94.936983" style="fill: #1f77b4; stroke: #1f77b4"/>
     <use xlink:href="#m042431c624" x="130.197824" y="93.527726" style="fill: #1f77b4; stroke: #1f77b4"/>
     <use xlink:href="#m042431c624" x="131.605136" y="92.817481" style="fill: #1f77b4; stroke: #1f77b4"/>
     <use xlink:href="#m042431c624" x="132.937085" y="91.690535" style="fill: #1f77b4; stroke: #1f77b4"/>
     <use xlink:href="#m042431c624" x="134.203307" y="90.433683" style="fill: #1f77b4; stroke: #1f77b4"/>
     <use xlink:href="#m042431c624" x="135.367787" y="89.906882" style="fill: #1f77b4; stroke: #1f77b4"/>
     <use xlink:href="#m042431c624" x="136.476424" y="89.0723" style="fill: #1f77b4; stroke: #1f77b4"/>
     <use xlink:href="#m042431c624" x="137.530805" y="87.462453" style="fill: #1f77b4; stroke: #1f77b4"/>
     <use xlink:href="#m042431c624" x="138.488025" y="87.350252" style="fill: #1f77b4; stroke: #1f77b4"/>
     <use xlink:href="#m042431c624" x="139.411151" y="86.314499" style="fill: #1f77b4; stroke: #1f77b4"/>
     <use xlink:href="#m042431c624" x="140.279885" y="85.523156" style="fill: #1f77b4; stroke: #1f77b4"/>
     <use xlink:href="#m042431c624" x="141.09929" y="84.219714" style="fill: #1f77b4; stroke: #1f77b4"/>
     <use xlink:href="#m042431c624" x="141.836019" y="83.50098" style="fill: #1f77b4; stroke: #1f77b4"/>
    </g>
   </g>
   <g id="line2d_12">
    <path d="M 46.965625 154.067472 
L 71.304143 135.283504 
L 89.502292 121.546532 
L 104.160427 111.005168 
L 116.417457 102.213725 
L 127.158199 95.037734 
L 136.250391 89.089212 
L 144.373295 84.118319 
L 151.840479 79.063941 
L 158.328848 75.359838 
L 164.239796 71.457082 
L 169.703935 68.811791 
L 174.909591 65.764239 
L 179.543002 62.702473 
L 183.860407 60.5703 
L 188.040574 58.265857 
L 191.835092 56.64128 
" clip-path="url(#p9e8f44cd82)" style="fill: none; stroke: #ff7f0e; stroke-width: 0.7; stroke-linecap: square"/>
    <defs>
     <path id="m4692a1bb6b" d="M 0 0.9 
C 0.238683 0.9 0.467622 0.80517 0.636396 0.636396 
C 0.80517 0.467622 0.9 0.238683 0.9 0 
C 0.9 -0.238683 0.80517 -0.467622 0.636396 -0.636396 
C 0.467622 -0.80517 0.238683 -0.9 0 -0.9 
C -0.238683 -0.9 -0.467622 -0.80517 -0.636396 -0.636396 
C -0.80517 -0.467622 -0.9 -0.238683 -0.9 0 
C -0.9 0.238683 -0.80517 0.467622 -0.636396 0.636396 
C -0.467622 0.80517 -0.238683 0.9 0 0.9 
z
" style="stroke: #ff7f0e"/>
    </defs>
    <g clip-path="url(#p9e8f44cd82)">
     <use xlink:href="#m4692a1bb6b" x="46.965625" y="154.067472" style="fill: #ff7f0e; stroke: #ff7f0e"/>
     <use xlink:href="#m4692a1bb6b" x="71.304143" y="135.283504" style="fill: #ff7f0e; stroke: #ff7f0e"/>
     <use xlink:href="#m4692a1bb6b" x="89.502292" y="121.546532" style="fill: #ff7f0e; stroke: #ff7f0e"/>
     <use xlink:href="#m4692a1bb6b" x="104.160427" y="111.005168" style="fill: #ff7f0e; stroke: #ff7f0e"/>
     <use xlink:href="#m4692a1bb6b" x="116.417457" y="102.213725" style="fill: #ff7f0e; stroke: #ff7f0e"/>
     <use xlink:href="#m4692a1bb6b" x="127.158199" y="95.037734" style="fill: #ff7f0e; stroke: #ff7f0e"/>
     <use xlink:href="#m4692a1bb6b" x="136.250391" y="89.089212" style="fill: #ff7f0e; stroke: #ff7f0e"/>
     <use xlink:href="#m4692a1bb6b" x="144.373295" y="84.118319" style="fill: #ff7f0e; stroke: #ff7f0e"/>
     <use xlink:href="#m4692a1bb6b" x="151.840479" y="79.063941" style="fill: #ff7f0e; stroke: #ff7f0e"/>
     <use xlink:href="#m4692a1bb6b" x="158.328848" y="75.359838" style="fill: #ff7f0e; stroke: #ff7f0e"/>
     <use xlink:href="#m4692a1bb6b" x="164.239796" y="71.457082" style="fill: #ff7f0e; stroke: #ff7f0e"/>
     <use xlink:href="#m4692a1bb6b" x="169.703935" y="68.811791" style="fill: #ff7f0e; stroke: #ff7f0e"/>
     <use xlink:href="#m4692a1bb6b" x="174.909591" y="65.764239" style="fill: #ff7f0e; stroke: #ff7f0e"/>
     <use xlink:href="#m4692a1bb6b" x="179.543002" y="62.702473" style="fill: #ff7f0e; stroke: #ff7f0e"/>
     <use xlink:href="#m4692a1bb6b" x="183.860407" y="60.5703" style="fill: #ff7f0e; stroke: #ff7f0e"/>
     <use xlink:href="#m4692a1bb6b" x="188.040574" y="58.265857" style="fill: #ff7f0e; stroke: #ff7f0e"/>
     <use xlink:href="#m4692a1bb6b" x="191.835092" y="56.64128" style="fill: #ff7f0e; stroke: #ff7f0e"/>
    </g>
   </g>
   <g id="line2d_13">
    <path d="M 46.965625 154.067472 
L 49.917413 152.213166 
L 52.738847 150.246751 
L 55.304528 148.268367 
L 57.735349 146.596379 
L 60.060499 144.769532 
L 62.185954 143.50023 
L 64.204895 141.558568 
L 66.116816 140.03987 
L 68.005367 139.138597 
L 69.752636 137.705444 
L 71.431513 136.18791 
L 73.094743 135.155603 
L 74.643705 134.365623 
L 76.141594 133.359331 
L 77.579029 131.866137 
L 78.990462 130.46182 
L 80.330372 130.735042 
L 81.638625 129.699932 
L 82.915248 128.912262 
L 84.123928 128.776751 
L 85.294329 127.279141 
L 86.434457 126.498458 
L 87.562948 125.869971 
L 88.625822 124.928063 
L 89.652397 124.342081 
L 90.677496 123.436792 
L 91.639287 123.239722 
L 92.574232 122.706041 
L 93.482481 122.171267 
L 94.389282 121.133449 
L 95.24862 120.933476 
L 96.072448 119.267971 
L 96.898242 119.330749 
L 97.723325 118.664652 
L 98.46726 118.571082 
L 99.222182 118.014574 
L 99.959597 117.985732 
L 100.668955 117.054815 
L 101.381284 116.53288 
L 102.053786 115.756615 
L 102.909877 115.57231 
" clip-path="url(#p9e8f44cd82)" style="fill: none; stroke: #2ca02c; stroke-width: 0.7; stroke-linecap: square"/>
    <defs>
     <path id="m297215bd9b" d="M 0 0.9 
C 0.238683 0.9 0.467622 0.80517 0.636396 0.636396 
C 0.80517 0.467622 0.9 0.238683 0.9 0 
C 0.9 -0.238683 0.80517 -0.467622 0.636396 -0.636396 
C 0.467622 -0.80517 0.238683 -0.9 0 -0.9 
C -0.238683 -0.9 -0.467622 -0.80517 -0.636396 -0.636396 
C -0.80517 -0.467622 -0.9 -0.238683 -0.9 0 
C -0.9 0.238683 -0.80517 0.467622 -0.636396 0.636396 
C -0.467622 0.80517 -0.238683 0.9 0 0.9 
z
" style="stroke: #2ca02c"/>
    </defs>
    <g clip-path="url(#p9e8f44cd82)">
     <use xlink:href="#m297215bd9b" x="46.965625" y="154.067472" style="fill: #2ca02c; stroke: #2ca02c"/>
     <use xlink:href="#m297215bd9b" x="49.917413" y="152.213166" style="fill: #2ca02c; stroke: #2ca02c"/>
     <use xlink:href="#m297215bd9b" x="52.738847" y="150.246751" style="fill: #2ca02c; stroke: #2ca02c"/>
     <use xlink:href="#m297215bd9b" x="55.304528" y="148.268367" style="fill: #2ca02c; stroke: #2ca02c"/>
     <use xlink:href="#m297215bd9b" x="57.735349" y="146.596379" style="fill: #2ca02c; stroke: #2ca02c"/>
     <use xlink:href="#m297215bd9b" x="60.060499" y="144.769532" style="fill: #2ca02c; stroke: #2ca02c"/>
     <use xlink:href="#m297215bd9b" x="62.185954" y="143.50023" style="fill: #2ca02c; stroke: #2ca02c"/>
     <use xlink:href="#m297215bd9b" x="64.204895" y="141.558568" style="fill: #2ca02c; stroke: #2ca02c"/>
     <use xlink:href="#m297215bd9b" x="66.116816" y="140.03987" style="fill: #2ca02c; stroke: #2ca02c"/>
     <use xlink:href="#m297215bd9b" x="68.005367" y="139.138597" style="fill: #2ca02c; stroke: #2ca02c"/>
     <use xlink:href="#m297215bd9b" x="69.752636" y="137.705444" style="fill: #2ca02c; stroke: #2ca02c"/>
     <use xlink:href="#m297215bd9b" x="71.431513" y="136.18791" style="fill: #2ca02c; stroke: #2ca02c"/>
     <use xlink:href="#m297215bd9b" x="73.094743" y="135.155603" style="fill: #2ca02c; stroke: #2ca02c"/>
     <use xlink:href="#m297215bd9b" x="74.643705" y="134.365623" style="fill: #2ca02c; stroke: #2ca02c"/>
     <use xlink:href="#m297215bd9b" x="76.141594" y="133.359331" style="fill: #2ca02c; stroke: #2ca02c"/>
     <use xlink:href="#m297215bd9b" x="77.579029" y="131.866137" style="fill: #2ca02c; stroke: #2ca02c"/>
     <use xlink:href="#m297215bd9b" x="78.990462" y="130.46182" style="fill: #2ca02c; stroke: #2ca02c"/>
     <use xlink:href="#m297215bd9b" x="80.330372" y="130.735042" style="fill: #2ca02c; stroke: #2ca02c"/>
     <use xlink:href="#m297215bd9b" x="81.638625" y="129.699932" style="fill: #2ca02c; stroke: #2ca02c"/>
     <use xlink:href="#m297215bd9b" x="82.915248" y="128.912262" style="fill: #2ca02c; stroke: #2ca02c"/>
     <use xlink:href="#m297215bd9b" x="84.123928" y="128.776751" style="fill: #2ca02c; stroke: #2ca02c"/>
     <use xlink:href="#m297215bd9b" x="85.294329" y="127.279141" style="fill: #2ca02c; stroke: #2ca02c"/>
     <use xlink:href="#m297215bd9b" x="86.434457" y="126.498458" style="fill: #2ca02c; stroke: #2ca02c"/>
     <use xlink:href="#m297215bd9b" x="87.562948" y="125.869971" style="fill: #2ca02c; stroke: #2ca02c"/>
     <use xlink:href="#m297215bd9b" x="88.625822" y="124.928063" style="fill: #2ca02c; stroke: #2ca02c"/>
     <use xlink:href="#m297215bd9b" x="89.652397" y="124.342081" style="fill: #2ca02c; stroke: #2ca02c"/>
     <use xlink:href="#m297215bd9b" x="90.677496" y="123.436792" style="fill: #2ca02c; stroke: #2ca02c"/>
     <use xlink:href="#m297215bd9b" x="91.639287" y="123.239722" style="fill: #2ca02c; stroke: #2ca02c"/>
     <use xlink:href="#m297215bd9b" x="92.574232" y="122.706041" style="fill: #2ca02c; stroke: #2ca02c"/>
     <use xlink:href="#m297215bd9b" x="93.482481" y="122.171267" style="fill: #2ca02c; stroke: #2ca02c"/>
     <use xlink:href="#m297215bd9b" x="94.389282" y="121.133449" style="fill: #2ca02c; stroke: #2ca02c"/>
     <use xlink:href="#m297215bd9b" x="95.24862" y="120.933476" style="fill: #2ca02c; stroke: #2ca02c"/>
     <use xlink:href="#m297215bd9b" x="96.072448" y="119.267971" style="fill: #2ca02c; stroke: #2ca02c"/>
     <use xlink:href="#m297215bd9b" x="96.898242" y="119.330749" style="fill: #2ca02c; stroke: #2ca02c"/>
     <use xlink:href="#m297215bd9b" x="97.723325" y="118.664652" style="fill: #2ca02c; stroke: #2ca02c"/>
     <use xlink:href="#m297215bd9b" x="98.46726" y="118.571082" style="fill: #2ca02c; stroke: #2ca02c"/>
     <use xlink:href="#m297215bd9b" x="99.222182" y="118.014574" style="fill: #2ca02c; stroke: #2ca02c"/>
     <use xlink:href="#m297215bd9b" x="99.959597" y="117.985732" style="fill: #2ca02c; stroke: #2ca02c"/>
     <use xlink:href="#m297215bd9b" x="100.668955" y="117.054815" style="fill: #2ca02c; stroke: #2ca02c"/>
     <use xlink:href="#m297215bd9b" x="101.381284" y="116.53288" style="fill: #2ca02c; stroke: #2ca02c"/>
     <use xlink:href="#m297215bd9b" x="102.053786" y="115.756615" style="fill: #2ca02c; stroke: #2ca02c"/>
     <use xlink:href="#m297215bd9b" x="102.909877" y="115.57231" style="fill: #2ca02c; stroke: #2ca02c"/>
    </g>
   </g>
   <g id="line2d_14">
    <path d="M 46.965625 154.067472 
L 56.699544 146.564189 
L 63.550083 141.217923 
L 68.963524 136.973657 
L 74.182981 133.607882 
L 77.236862 131.340551 
L 80.105282 129.520898 
L 82.580922 128.609085 
L 84.65935 127.077442 
L 86.452166 125.997135 
L 87.988886 125.335182 
L 89.249949 124.559313 
L 90.322017 123.695646 
L 91.306201 123.566473 
L 92.192937 123.284057 
L 92.941734 122.304425 
L 93.530412 122.362241 
L 94.09581 122.153075 
L 94.67135 122.046049 
L 95.168349 121.543905 
" clip-path="url(#p9e8f44cd82)" style="fill: none; stroke: #d62728; stroke-width: 0.7; stroke-linecap: square"/>
    <defs>
     <path id="m0d259fdb2f" d="M 0 0.9 
C 0.238683 0.9 0.467622 0.80517 0.636396 0.636396 
C 0.80517 0.467622 0.9 0.238683 0.9 0 
C 0.9 -0.238683 0.80517 -0.467622 0.636396 -0.636396 
C 0.467622 -0.80517 0.238683 -0.9 0 -0.9 
C -0.238683 -0.9 -0.467622 -0.80517 -0.636396 -0.636396 
C -0.80517 -0.467622 -0.9 -0.238683 -0.9 0 
C -0.9 0.238683 -0.80517 0.467622 -0.636396 0.636396 
C -0.467622 0.80517 -0.238683 0.9 0 0.9 
z
" style="stroke: #d62728"/>
    </defs>
    <g clip-path="url(#p9e8f44cd82)">
     <use xlink:href="#m0d259fdb2f" x="46.965625" y="154.067472" style="fill: #d62728; stroke: #d62728"/>
     <use xlink:href="#m0d259fdb2f" x="56.699544" y="146.564189" style="fill: #d62728; stroke: #d62728"/>
     <use xlink:href="#m0d259fdb2f" x="63.550083" y="141.217923" style="fill: #d62728; stroke: #d62728"/>
     <use xlink:href="#m0d259fdb2f" x="68.963524" y="136.973657" style="fill: #d62728; stroke: #d62728"/>
     <use xlink:href="#m0d259fdb2f" x="74.182981" y="133.607882" style="fill: #d62728; stroke: #d62728"/>
     <use xlink:href="#m0d259fdb2f" x="77.236862" y="131.340551" style="fill: #d62728; stroke: #d62728"/>
     <use xlink:href="#m0d259fdb2f" x="80.105282" y="129.520898" style="fill: #d62728; stroke: #d62728"/>
     <use xlink:href="#m0d259fdb2f" x="82.580922" y="128.609085" style="fill: #d62728; stroke: #d62728"/>
     <use xlink:href="#m0d259fdb2f" x="84.65935" y="127.077442" style="fill: #d62728; stroke: #d62728"/>
     <use xlink:href="#m0d259fdb2f" x="86.452166" y="125.997135" style="fill: #d62728; stroke: #d62728"/>
     <use xlink:href="#m0d259fdb2f" x="87.988886" y="125.335182" style="fill: #d62728; stroke: #d62728"/>
     <use xlink:href="#m0d259fdb2f" x="89.249949" y="124.559313" style="fill: #d62728; stroke: #d62728"/>
     <use xlink:href="#m0d259fdb2f" x="90.322017" y="123.695646" style="fill: #d62728; stroke: #d62728"/>
     <use xlink:href="#m0d259fdb2f" x="91.306201" y="123.566473" style="fill: #d62728; stroke: #d62728"/>
     <use xlink:href="#m0d259fdb2f" x="92.192937" y="123.284057" style="fill: #d62728; stroke: #d62728"/>
     <use xlink:href="#m0d259fdb2f" x="92.941734" y="122.304425" style="fill: #d62728; stroke: #d62728"/>
     <use xlink:href="#m0d259fdb2f" x="93.530412" y="122.362241" style="fill: #d62728; stroke: #d62728"/>
     <use xlink:href="#m0d259fdb2f" x="94.09581" y="122.153075" style="fill: #d62728; stroke: #d62728"/>
     <use xlink:href="#m0d259fdb2f" x="94.67135" y="122.046049" style="fill: #d62728; stroke: #d62728"/>
     <use xlink:href="#m0d259fdb2f" x="95.168349" y="121.543905" style="fill: #d62728; stroke: #d62728"/>
    </g>
   </g>
   <g id="line2d_15">
    <path d="M 46.965625 154.067472 
L 58.711392 151.738248 
L 74.328474 140.578764 
L 85.297228 132.299824 
L 93.933673 125.761169 
L 100.770879 119.069388 
L 106.48228 114.238442 
L 111.175659 110.154234 
L 115.246083 107.656172 
L 118.917375 104.188991 
L 122.053634 101.970252 
L 124.867526 99.701579 
L 127.403001 96.724983 
L 129.53678 94.359221 
L 131.415546 92.613441 
L 133.170551 91.141989 
L 134.693354 89.090214 
L 136.040015 87.531371 
L 137.298263 86.386721 
L 138.415146 85.411341 
L 139.40519 83.354994 
L 140.297024 82.242914 
L 141.083359 81.160288 
L 141.779678 79.763929 
L 142.408259 78.473875 
L 142.93344 77.102689 
L 143.427119 77.385782 
L 143.886203 75.47172 
L 144.244476 74.000629 
L 144.575849 74.358329 
L 144.886685 73.054417 
L 145.178871 73.140435 
L 145.438252 71.999098 
" clip-path="url(#p9e8f44cd82)" style="fill: none; stroke: #9467bd; stroke-width: 0.7; stroke-linecap: square"/>
    <defs>
     <path id="m0a67ebd614" d="M 0 0.9 
C 0.238683 0.9 0.467622 0.80517 0.636396 0.636396 
C 0.80517 0.467622 0.9 0.238683 0.9 0 
C 0.9 -0.238683 0.80517 -0.467622 0.636396 -0.636396 
C 0.467622 -0.80517 0.238683 -0.9 0 -0.9 
C -0.238683 -0.9 -0.467622 -0.80517 -0.636396 -0.636396 
C -0.80517 -0.467622 -0.9 -0.238683 -0.9 0 
C -0.9 0.238683 -0.80517 0.467622 -0.636396 0.636396 
C -0.467622 0.80517 -0.238683 0.9 0 0.9 
z
" style="stroke: #9467bd"/>
    </defs>
    <g clip-path="url(#p9e8f44cd82)">
     <use xlink:href="#m0a67ebd614" x="46.965625" y="154.067472" style="fill: #9467bd; stroke: #9467bd"/>
     <use xlink:href="#m0a67ebd614" x="58.711392" y="151.738248" style="fill: #9467bd; stroke: #9467bd"/>
     <use xlink:href="#m0a67ebd614" x="74.328474" y="140.578764" style="fill: #9467bd; stroke: #9467bd"/>
     <use xlink:href="#m0a67ebd614" x="85.297228" y="132.299824" style="fill: #9467bd; stroke: #9467bd"/>
     <use xlink:href="#m0a67ebd614" x="93.933673" y="125.761169" style="fill: #9467bd; stroke: #9467bd"/>
     <use xlink:href="#m0a67ebd614" x="100.770879" y="119.069388" style="fill: #9467bd; stroke: #9467bd"/>
     <use xlink:href="#m0a67ebd614" x="106.48228" y="114.238442" style="fill: #9467bd; stroke: #9467bd"/>
     <use xlink:href="#m0a67ebd614" x="111.175659" y="110.154234" style="fill: #9467bd; stroke: #9467bd"/>
     <use xlink:href="#m0a67ebd614" x="115.246083" y="107.656172" style="fill: #9467bd; stroke: #9467bd"/>
     <use xlink:href="#m0a67ebd614" x="118.917375" y="104.188991" style="fill: #9467bd; stroke: #9467bd"/>
     <use xlink:href="#m0a67ebd614" x="122.053634" y="101.970252" style="fill: #9467bd; stroke: #9467bd"/>
     <use xlink:href="#m0a67ebd614" x="124.867526" y="99.701579" style="fill: #9467bd; stroke: #9467bd"/>
     <use xlink:href="#m0a67ebd614" x="127.403001" y="96.724983" style="fill: #9467bd; stroke: #9467bd"/>
     <use xlink:href="#m0a67ebd614" x="129.53678" y="94.359221" style="fill: #9467bd; stroke: #9467bd"/>
     <use xlink:href="#m0a67ebd614" x="131.415546" y="92.613441" style="fill: #9467bd; stroke: #9467bd"/>
     <use xlink:href="#m0a67ebd614" x="133.170551" y="91.141989" style="fill: #9467bd; stroke: #9467bd"/>
     <use xlink:href="#m0a67ebd614" x="134.693354" y="89.090214" style="fill: #9467bd; stroke: #9467bd"/>
     <use xlink:href="#m0a67ebd614" x="136.040015" y="87.531371" style="fill: #9467bd; stroke: #9467bd"/>
     <use xlink:href="#m0a67ebd614" x="137.298263" y="86.386721" style="fill: #9467bd; stroke: #9467bd"/>
     <use xlink:href="#m0a67ebd614" x="138.415146" y="85.411341" style="fill: #9467bd; stroke: #9467bd"/>
     <use xlink:href="#m0a67ebd614" x="139.40519" y="83.354994" style="fill: #9467bd; stroke: #9467bd"/>
     <use xlink:href="#m0a67ebd614" x="140.297024" y="82.242914" style="fill: #9467bd; stroke: #9467bd"/>
     <use xlink:href="#m0a67ebd614" x="141.083359" y="81.160288" style="fill: #9467bd; stroke: #9467bd"/>
     <use xlink:href="#m0a67ebd614" x="141.779678" y="79.763929" style="fill: #9467bd; stroke: #9467bd"/>
     <use xlink:href="#m0a67ebd614" x="142.408259" y="78.473875" style="fill: #9467bd; stroke: #9467bd"/>
     <use xlink:href="#m0a67ebd614" x="142.93344" y="77.102689" style="fill: #9467bd; stroke: #9467bd"/>
     <use xlink:href="#m0a67ebd614" x="143.427119" y="77.385782" style="fill: #9467bd; stroke: #9467bd"/>
     <use xlink:href="#m0a67ebd614" x="143.886203" y="75.47172" style="fill: #9467bd; stroke: #9467bd"/>
     <use xlink:href="#m0a67ebd614" x="144.244476" y="74.000629" style="fill: #9467bd; stroke: #9467bd"/>
     <use xlink:href="#m0a67ebd614" x="144.575849" y="74.358329" style="fill: #9467bd; stroke: #9467bd"/>
     <use xlink:href="#m0a67ebd614" x="144.886685" y="73.054417" style="fill: #9467bd; stroke: #9467bd"/>
     <use xlink:href="#m0a67ebd614" x="145.178871" y="73.140435" style="fill: #9467bd; stroke: #9467bd"/>
     <use xlink:href="#m0a67ebd614" x="145.438252" y="71.999098" style="fill: #9467bd; stroke: #9467bd"/>
    </g>
   </g>
   <g id="line2d_16">
    <path d="M 46.965625 154.067472 
L 86.644367 124.911462 
L 113.24365 104.76635 
L 133.132276 88.638148 
L 149.044334 76.231291 
L 161.403723 65.568113 
L 171.467055 56.647105 
L 180.129222 50.072224 
L 187.24502 42.524027 
L 193.367881 37.486244 
L 198.678246 32.143498 
L 203.470723 27.750777 
L 207.594083 24.747035 
L 211.371366 22.096892 
L 214.863188 17.844221 
L 217.914089 15.551294 
" clip-path="url(#p9e8f44cd82)" style="fill: none; stroke: #8c564b; stroke-width: 0.7; stroke-linecap: square"/>
    <defs>
     <path id="m4159a9c4e3" d="M 0 0.9 
C 0.238683 0.9 0.467622 0.80517 0.636396 0.636396 
C 0.80517 0.467622 0.9 0.238683 0.9 0 
C 0.9 -0.238683 0.80517 -0.467622 0.636396 -0.636396 
C 0.467622 -0.80517 0.238683 -0.9 0 -0.9 
C -0.238683 -0.9 -0.467622 -0.80517 -0.636396 -0.636396 
C -0.80517 -0.467622 -0.9 -0.238683 -0.9 0 
C -0.9 0.238683 -0.80517 0.467622 -0.636396 0.636396 
C -0.467622 0.80517 -0.238683 0.9 0 0.9 
z
" style="stroke: #8c564b"/>
    </defs>
    <g clip-path="url(#p9e8f44cd82)">
     <use xlink:href="#m4159a9c4e3" x="46.965625" y="154.067472" style="fill: #8c564b; stroke: #8c564b"/>
     <use xlink:href="#m4159a9c4e3" x="86.644367" y="124.911462" style="fill: #8c564b; stroke: #8c564b"/>
     <use xlink:href="#m4159a9c4e3" x="113.24365" y="104.76635" style="fill: #8c564b; stroke: #8c564b"/>
     <use xlink:href="#m4159a9c4e3" x="133.132276" y="88.638148" style="fill: #8c564b; stroke: #8c564b"/>
     <use xlink:href="#m4159a9c4e3" x="149.044334" y="76.231291" style="fill: #8c564b; stroke: #8c564b"/>
     <use xlink:href="#m4159a9c4e3" x="161.403723" y="65.568113" style="fill: #8c564b; stroke: #8c564b"/>
     <use xlink:href="#m4159a9c4e3" x="171.467055" y="56.647105" style="fill: #8c564b; stroke: #8c564b"/>
     <use xlink:href="#m4159a9c4e3" x="180.129222" y="50.072224" style="fill: #8c564b; stroke: #8c564b"/>
     <use xlink:href="#m4159a9c4e3" x="187.24502" y="42.524027" style="fill: #8c564b; stroke: #8c564b"/>
     <use xlink:href="#m4159a9c4e3" x="193.367881" y="37.486244" style="fill: #8c564b; stroke: #8c564b"/>
     <use xlink:href="#m4159a9c4e3" x="198.678246" y="32.143498" style="fill: #8c564b; stroke: #8c564b"/>
     <use xlink:href="#m4159a9c4e3" x="203.470723" y="27.750777" style="fill: #8c564b; stroke: #8c564b"/>
     <use xlink:href="#m4159a9c4e3" x="207.594083" y="24.747035" style="fill: #8c564b; stroke: #8c564b"/>
     <use xlink:href="#m4159a9c4e3" x="211.371366" y="22.096892" style="fill: #8c564b; stroke: #8c564b"/>
     <use xlink:href="#m4159a9c4e3" x="214.863188" y="17.844221" style="fill: #8c564b; stroke: #8c564b"/>
     <use xlink:href="#m4159a9c4e3" x="217.914089" y="15.551294" style="fill: #8c564b; stroke: #8c564b"/>
    </g>
   </g>
   <g id="line2d_17">
    <path d="M 46.965625 154.067472 
L 49.917569 155.88584 
L 52.68792 152.792584 
L 55.24132 151.478029 
L 57.709546 149.806399 
L 59.974446 148.266322 
L 62.143996 147.059033 
L 64.270518 146.255544 
L 66.238355 144.580806 
L 68.128873 143.971092 
L 70.012586 142.760442 
L 71.769928 142.409937 
L 73.419095 139.445268 
L 74.972294 138.089071 
L 76.410702 137.049745 
L 77.8003 136.511786 
L 79.137509 135.176099 
L 80.423905 133.7951 
L 81.587354 132.155265 
L 82.696788 131.577583 
L 83.778021 129.981972 
L 84.77099 128.953906 
L 85.71811 128.08823 
L 86.649155 127.590393 
L 87.521007 126.693273 
L 88.330849 125.01471 
L 89.127082 124.989407 
L 89.868154 123.7097 
L 90.584152 123.602146 
L 91.296069 123.858563 
L 92.006942 122.561906 
" clip-path="url(#p9e8f44cd82)" style="fill: none; stroke: #e377c2; stroke-width: 0.7; stroke-linecap: square"/>
    <defs>
     <path id="mf9e43ac2ec" d="M 0 0.9 
C 0.238683 0.9 0.467622 0.80517 0.636396 0.636396 
C 0.80517 0.467622 0.9 0.238683 0.9 0 
C 0.9 -0.238683 0.80517 -0.467622 0.636396 -0.636396 
C 0.467622 -0.80517 0.238683 -0.9 0 -0.9 
C -0.238683 -0.9 -0.467622 -0.80517 -0.636396 -0.636396 
C -0.80517 -0.467622 -0.9 -0.238683 -0.9 0 
C -0.9 0.238683 -0.80517 0.467622 -0.636396 0.636396 
C -0.467622 0.80517 -0.238683 0.9 0 0.9 
z
" style="stroke: #e377c2"/>
    </defs>
    <g clip-path="url(#p9e8f44cd82)">
     <use xlink:href="#mf9e43ac2ec" x="46.965625" y="154.067472" style="fill: #e377c2; stroke: #e377c2"/>
     <use xlink:href="#mf9e43ac2ec" x="49.917569" y="155.88584" style="fill: #e377c2; stroke: #e377c2"/>
     <use xlink:href="#mf9e43ac2ec" x="52.68792" y="152.792584" style="fill: #e377c2; stroke: #e377c2"/>
     <use xlink:href="#mf9e43ac2ec" x="55.24132" y="151.478029" style="fill: #e377c2; stroke: #e377c2"/>
     <use xlink:href="#mf9e43ac2ec" x="57.709546" y="149.806399" style="fill: #e377c2; stroke: #e377c2"/>
     <use xlink:href="#mf9e43ac2ec" x="59.974446" y="148.266322" style="fill: #e377c2; stroke: #e377c2"/>
     <use xlink:href="#mf9e43ac2ec" x="62.143996" y="147.059033" style="fill: #e377c2; stroke: #e377c2"/>
     <use xlink:href="#mf9e43ac2ec" x="64.270518" y="146.255544" style="fill: #e377c2; stroke: #e377c2"/>
     <use xlink:href="#mf9e43ac2ec" x="66.238355" y="144.580806" style="fill: #e377c2; stroke: #e377c2"/>
     <use xlink:href="#mf9e43ac2ec" x="68.128873" y="143.971092" style="fill: #e377c2; stroke: #e377c2"/>
     <use xlink:href="#mf9e43ac2ec" x="70.012586" y="142.760442" style="fill: #e377c2; stroke: #e377c2"/>
     <use xlink:href="#mf9e43ac2ec" x="71.769928" y="142.409937" style="fill: #e377c2; stroke: #e377c2"/>
     <use xlink:href="#mf9e43ac2ec" x="73.419095" y="139.445268" style="fill: #e377c2; stroke: #e377c2"/>
     <use xlink:href="#mf9e43ac2ec" x="74.972294" y="138.089071" style="fill: #e377c2; stroke: #e377c2"/>
     <use xlink:href="#mf9e43ac2ec" x="76.410702" y="137.049745" style="fill: #e377c2; stroke: #e377c2"/>
     <use xlink:href="#mf9e43ac2ec" x="77.8003" y="136.511786" style="fill: #e377c2; stroke: #e377c2"/>
     <use xlink:href="#mf9e43ac2ec" x="79.137509" y="135.176099" style="fill: #e377c2; stroke: #e377c2"/>
     <use xlink:href="#mf9e43ac2ec" x="80.423905" y="133.7951" style="fill: #e377c2; stroke: #e377c2"/>
     <use xlink:href="#mf9e43ac2ec" x="81.587354" y="132.155265" style="fill: #e377c2; stroke: #e377c2"/>
     <use xlink:href="#mf9e43ac2ec" x="82.696788" y="131.577583" style="fill: #e377c2; stroke: #e377c2"/>
     <use xlink:href="#mf9e43ac2ec" x="83.778021" y="129.981972" style="fill: #e377c2; stroke: #e377c2"/>
     <use xlink:href="#mf9e43ac2ec" x="84.77099" y="128.953906" style="fill: #e377c2; stroke: #e377c2"/>
     <use xlink:href="#mf9e43ac2ec" x="85.71811" y="128.08823" style="fill: #e377c2; stroke: #e377c2"/>
     <use xlink:href="#mf9e43ac2ec" x="86.649155" y="127.590393" style="fill: #e377c2; stroke: #e377c2"/>
     <use xlink:href="#mf9e43ac2ec" x="87.521007" y="126.693273" style="fill: #e377c2; stroke: #e377c2"/>
     <use xlink:href="#mf9e43ac2ec" x="88.330849" y="125.01471" style="fill: #e377c2; stroke: #e377c2"/>
     <use xlink:href="#mf9e43ac2ec" x="89.127082" y="124.989407" style="fill: #e377c2; stroke: #e377c2"/>
     <use xlink:href="#mf9e43ac2ec" x="89.868154" y="123.7097" style="fill: #e377c2; stroke: #e377c2"/>
     <use xlink:href="#mf9e43ac2ec" x="90.584152" y="123.602146" style="fill: #e377c2; stroke: #e377c2"/>
     <use xlink:href="#mf9e43ac2ec" x="91.296069" y="123.858563" style="fill: #e377c2; stroke: #e377c2"/>
     <use xlink:href="#mf9e43ac2ec" x="92.006942" y="122.561906" style="fill: #e377c2; stroke: #e377c2"/>
    </g>
   </g>
   <g id="line2d_18">
    <path d="M 46.965625 154.067472 
L 80.284818 127.248629 
L 102.654309 109.753879 
L 117.952419 97.385751 
L 129.508633 88.490111 
L 138.796351 81.896103 
L 146.019442 77.336628 
L 151.929932 72.491001 
L 156.853311 69.565829 
L 160.778584 66.033252 
L 164.065623 63.722738 
L 166.80204 61.993328 
L 169.147692 59.805185 
L 171.129279 58.885176 
L 172.914552 57.746987 
L 174.473787 56.86042 
L 175.763729 55.633146 
L 176.935585 55.038878 
L 178.025341 54.917099 
L 178.981668 53.802292 
L 179.804428 53.442475 
L 180.590153 52.967572 
L 181.2719 52.346777 
L 181.801197 51.982798 
L 182.315145 52.799941 
L 182.816091 52.035606 
L 183.200471 52.498517 
L 183.61845 51.687817 
L 183.994321 51.625843 
L 184.36097 50.799411 
L 184.733749 50.716617 
L 185.010142 50.653575 
L 185.324872 51.171954 
L 185.619022 50.913154 
" clip-path="url(#p9e8f44cd82)" style="fill: none; stroke: #7f7f7f; stroke-width: 0.7; stroke-linecap: square"/>
    <defs>
     <path id="m70beff5052" d="M 0 0.9 
C 0.238683 0.9 0.467622 0.80517 0.636396 0.636396 
C 0.80517 0.467622 0.9 0.238683 0.9 0 
C 0.9 -0.238683 0.80517 -0.467622 0.636396 -0.636396 
C 0.467622 -0.80517 0.238683 -0.9 0 -0.9 
C -0.238683 -0.9 -0.467622 -0.80517 -0.636396 -0.636396 
C -0.80517 -0.467622 -0.9 -0.238683 -0.9 0 
C -0.9 0.238683 -0.80517 0.467622 -0.636396 0.636396 
C -0.467622 0.80517 -0.238683 0.9 0 0.9 
z
" style="stroke: #7f7f7f"/>
    </defs>
    <g clip-path="url(#p9e8f44cd82)">
     <use xlink:href="#m70beff5052" x="46.965625" y="154.067472" style="fill: #7f7f7f; stroke: #7f7f7f"/>
     <use xlink:href="#m70beff5052" x="80.284818" y="127.248629" style="fill: #7f7f7f; stroke: #7f7f7f"/>
     <use xlink:href="#m70beff5052" x="102.654309" y="109.753879" style="fill: #7f7f7f; stroke: #7f7f7f"/>
     <use xlink:href="#m70beff5052" x="117.952419" y="97.385751" style="fill: #7f7f7f; stroke: #7f7f7f"/>
     <use xlink:href="#m70beff5052" x="129.508633" y="88.490111" style="fill: #7f7f7f; stroke: #7f7f7f"/>
     <use xlink:href="#m70beff5052" x="138.796351" y="81.896103" style="fill: #7f7f7f; stroke: #7f7f7f"/>
     <use xlink:href="#m70beff5052" x="146.019442" y="77.336628" style="fill: #7f7f7f; stroke: #7f7f7f"/>
     <use xlink:href="#m70beff5052" x="151.929932" y="72.491001" style="fill: #7f7f7f; stroke: #7f7f7f"/>
     <use xlink:href="#m70beff5052" x="156.853311" y="69.565829" style="fill: #7f7f7f; stroke: #7f7f7f"/>
     <use xlink:href="#m70beff5052" x="160.778584" y="66.033252" style="fill: #7f7f7f; stroke: #7f7f7f"/>
     <use xlink:href="#m70beff5052" x="164.065623" y="63.722738" style="fill: #7f7f7f; stroke: #7f7f7f"/>
     <use xlink:href="#m70beff5052" x="166.80204" y="61.993328" style="fill: #7f7f7f; stroke: #7f7f7f"/>
     <use xlink:href="#m70beff5052" x="169.147692" y="59.805185" style="fill: #7f7f7f; stroke: #7f7f7f"/>
     <use xlink:href="#m70beff5052" x="171.129279" y="58.885176" style="fill: #7f7f7f; stroke: #7f7f7f"/>
     <use xlink:href="#m70beff5052" x="172.914552" y="57.746987" style="fill: #7f7f7f; stroke: #7f7f7f"/>
     <use xlink:href="#m70beff5052" x="174.473787" y="56.86042" style="fill: #7f7f7f; stroke: #7f7f7f"/>
     <use xlink:href="#m70beff5052" x="175.763729" y="55.633146" style="fill: #7f7f7f; stroke: #7f7f7f"/>
     <use xlink:href="#m70beff5052" x="176.935585" y="55.038878" style="fill: #7f7f7f; stroke: #7f7f7f"/>
     <use xlink:href="#m70beff5052" x="178.025341" y="54.917099" style="fill: #7f7f7f; stroke: #7f7f7f"/>
     <use xlink:href="#m70beff5052" x="178.981668" y="53.802292" style="fill: #7f7f7f; stroke: #7f7f7f"/>
     <use xlink:href="#m70beff5052" x="179.804428" y="53.442475" style="fill: #7f7f7f; stroke: #7f7f7f"/>
     <use xlink:href="#m70beff5052" x="180.590153" y="52.967572" style="fill: #7f7f7f; stroke: #7f7f7f"/>
     <use xlink:href="#m70beff5052" x="181.2719" y="52.346777" style="fill: #7f7f7f; stroke: #7f7f7f"/>
     <use xlink:href="#m70beff5052" x="181.801197" y="51.982798" style="fill: #7f7f7f; stroke: #7f7f7f"/>
     <use xlink:href="#m70beff5052" x="182.315145" y="52.799941" style="fill: #7f7f7f; stroke: #7f7f7f"/>
     <use xlink:href="#m70beff5052" x="182.816091" y="52.035606" style="fill: #7f7f7f; stroke: #7f7f7f"/>
     <use xlink:href="#m70beff5052" x="183.200471" y="52.498517" style="fill: #7f7f7f; stroke: #7f7f7f"/>
     <use xlink:href="#m70beff5052" x="183.61845" y="51.687817" style="fill: #7f7f7f; stroke: #7f7f7f"/>
     <use xlink:href="#m70beff5052" x="183.994321" y="51.625843" style="fill: #7f7f7f; stroke: #7f7f7f"/>
     <use xlink:href="#m70beff5052" x="184.36097" y="50.799411" style="fill: #7f7f7f; stroke: #7f7f7f"/>
     <use xlink:href="#m70beff5052" x="184.733749" y="50.716617" style="fill: #7f7f7f; stroke: #7f7f7f"/>
     <use xlink:href="#m70beff5052" x="185.010142" y="50.653575" style="fill: #7f7f7f; stroke: #7f7f7f"/>
     <use xlink:href="#m70beff5052" x="185.324872" y="51.171954" style="fill: #7f7f7f; stroke: #7f7f7f"/>
     <use xlink:href="#m70beff5052" x="185.619022" y="50.913154" style="fill: #7f7f7f; stroke: #7f7f7f"/>
    </g>
   </g>
   <g id="patch_3">
    <path d="M 46.965625 162.902567 
L 46.965625 8.534567 
" style="fill: none; stroke: #000000; stroke-width: 0.8; stroke-linejoin: miter; stroke-linecap: square"/>
   </g>
   <g id="patch_4">
    <path d="M 226.461512 162.902567 
L 226.461512 8.534567 
" style="fill: none; stroke: #000000; stroke-width: 0.8; stroke-linejoin: miter; stroke-linecap: square"/>
   </g>
   <g id="patch_5">
    <path d="M 46.965625 162.902567 
L 226.461512 162.902567 
" style="fill: none; stroke: #000000; stroke-width: 0.8; stroke-linejoin: miter; stroke-linecap: square"/>
   </g>
   <g id="patch_6">
    <path d="M 46.965625 8.534567 
L 226.461512 8.534567 
" style="fill: none; stroke: #000000; stroke-width: 0.8; stroke-linejoin: miter; stroke-linecap: square"/>
   </g>
   <g id="legend_1">
    <g id="patch_7">
     <path d="M 233.461512 147.043567 
L 356.850575 147.043567 
Q 358.850575 147.043567 358.850575 145.043567 
L 358.850575 26.393567 
Q 358.850575 24.393567 356.850575 24.393567 
L 233.461512 24.393567 
Q 231.461512 24.393567 231.461512 26.393567 
L 231.461512 145.043567 
Q 231.461512 147.043567 233.461512 147.043567 
z
" style="fill: #ffffff; opacity: 0.8; stroke: #cccccc; stroke-linejoin: miter"/>
    </g>
    <g id="line2d_19">
     <path d="M 235.461512 32.492004 
L 245.461512 32.492004 
L 255.461512 32.492004 
" style="fill: none; stroke: #1f77b4; stroke-width: 0.7; stroke-linecap: square"/>
     <g>
      <use xlink:href="#m042431c624" x="245.461512" y="32.492004" style="fill: #1f77b4; stroke: #1f77b4"/>
     </g>
    </g>
    <g id="text_14">
     <!-- C2_E7a Addition 1 -->
     <g transform="translate(263.461513 35.992004) scale(0.1 -0.1)">
      <defs>
       <path id="DejaVuSans-43" d="M 4122 4306 
L 4122 3641 
Q 3803 3938 3442 4084 
Q 3081 4231 2675 4231 
Q 1875 4231 1450 3742 
Q 1025 3253 1025 2328 
Q 1025 1406 1450 917 
Q 1875 428 2675 428 
Q 3081 428 3442 575 
Q 3803 722 4122 1019 
L 4122 359 
Q 3791 134 3420 21 
Q 3050 -91 2638 -91 
Q 1578 -91 968 557 
Q 359 1206 359 2328 
Q 359 3453 968 4101 
Q 1578 4750 2638 4750 
Q 3056 4750 3426 4639 
Q 3797 4528 4122 4306 
z
" transform="scale(0.015625)"/>
       <path id="DejaVuSans-5f" d="M 3263 -1063 
L 3263 -1509 
L -63 -1509 
L -63 -1063 
L 3263 -1063 
z
" transform="scale(0.015625)"/>
       <path id="DejaVuSans-45" d="M 628 4666 
L 3578 4666 
L 3578 4134 
L 1259 4134 
L 1259 2753 
L 3481 2753 
L 3481 2222 
L 1259 2222 
L 1259 531 
L 3634 531 
L 3634 0 
L 628 0 
L 628 4666 
z
" transform="scale(0.015625)"/>
       <path id="DejaVuSans-37" d="M 525 4666 
L 3525 4666 
L 3525 4397 
L 1831 0 
L 1172 0 
L 2766 4134 
L 525 4134 
L 525 4666 
z
" transform="scale(0.015625)"/>
       <path id="DejaVuSans-61" d="M 2194 1759 
Q 1497 1759 1228 1600 
Q 959 1441 959 1056 
Q 959 750 1161 570 
Q 1363 391 1709 391 
Q 2188 391 2477 730 
Q 2766 1069 2766 1631 
L 2766 1759 
L 2194 1759 
z
M 3341 1997 
L 3341 0 
L 2766 0 
L 2766 531 
Q 2569 213 2275 61 
Q 1981 -91 1556 -91 
Q 1019 -91 701 211 
Q 384 513 384 1019 
Q 384 1609 779 1909 
Q 1175 2209 1959 2209 
L 2766 2209 
L 2766 2266 
Q 2766 2663 2505 2880 
Q 2244 3097 1772 3097 
Q 1472 3097 1187 3025 
Q 903 2953 641 2809 
L 641 3341 
Q 956 3463 1253 3523 
Q 1550 3584 1831 3584 
Q 2591 3584 2966 3190 
Q 3341 2797 3341 1997 
z
" transform="scale(0.015625)"/>
       <path id="DejaVuSans-41" d="M 2188 4044 
L 1331 1722 
L 3047 1722 
L 2188 4044 
z
M 1831 4666 
L 2547 4666 
L 4325 0 
L 3669 0 
L 3244 1197 
L 1141 1197 
L 716 0 
L 50 0 
L 1831 4666 
z
" transform="scale(0.015625)"/>
       <path id="DejaVuSans-6e" d="M 3513 2113 
L 3513 0 
L 2938 0 
L 2938 2094 
Q 2938 2591 2744 2837 
Q 2550 3084 2163 3084 
Q 1697 3084 1428 2787 
Q 1159 2491 1159 1978 
L 1159 0 
L 581 0 
L 581 3500 
L 1159 3500 
L 1159 2956 
Q 1366 3272 1645 3428 
Q 1925 3584 2291 3584 
Q 2894 3584 3203 3211 
Q 3513 2838 3513 2113 
z
" transform="scale(0.015625)"/>
      </defs>
      <use xlink:href="#DejaVuSans-43"/>
      <use xlink:href="#DejaVuSans-32" transform="translate(69.824219 0)"/>
      <use xlink:href="#DejaVuSans-5f" transform="translate(133.447266 0)"/>
      <use xlink:href="#DejaVuSans-45" transform="translate(183.447266 0)"/>
      <use xlink:href="#DejaVuSans-37" transform="translate(246.630859 0)"/>
      <use xlink:href="#DejaVuSans-61" transform="translate(310.253906 0)"/>
      <use xlink:href="#DejaVuSans-20" transform="translate(371.533203 0)"/>
      <use xlink:href="#DejaVuSans-41" transform="translate(403.320312 0)"/>
      <use xlink:href="#DejaVuSans-64" transform="translate(469.978516 0)"/>
      <use xlink:href="#DejaVuSans-64" transform="translate(533.455078 0)"/>
      <use xlink:href="#DejaVuSans-69" transform="translate(596.931641 0)"/>
      <use xlink:href="#DejaVuSans-74" transform="translate(624.714844 0)"/>
      <use xlink:href="#DejaVuSans-69" transform="translate(663.923828 0)"/>
      <use xlink:href="#DejaVuSans-6f" transform="translate(691.707031 0)"/>
      <use xlink:href="#DejaVuSans-6e" transform="translate(752.888672 0)"/>
      <use xlink:href="#DejaVuSans-20" transform="translate(816.267578 0)"/>
      <use xlink:href="#DejaVuSans-31" transform="translate(848.054688 0)"/>
     </g>
    </g>
    <g id="line2d_20">
     <path d="M 235.461512 47.448254 
L 245.461512 47.448254 
L 255.461512 47.448254 
" style="fill: none; stroke: #ff7f0e; stroke-width: 0.7; stroke-linecap: square"/>
     <g>
      <use xlink:href="#m4692a1bb6b" x="245.461512" y="47.448254" style="fill: #ff7f0e; stroke: #ff7f0e"/>
     </g>
    </g>
    <g id="text_15">
     <!-- C2_E7a Addition 2 -->
     <g transform="translate(263.461513 50.948254) scale(0.1 -0.1)">
      <use xlink:href="#DejaVuSans-43"/>
      <use xlink:href="#DejaVuSans-32" transform="translate(69.824219 0)"/>
      <use xlink:href="#DejaVuSans-5f" transform="translate(133.447266 0)"/>
      <use xlink:href="#DejaVuSans-45" transform="translate(183.447266 0)"/>
      <use xlink:href="#DejaVuSans-37" transform="translate(246.630859 0)"/>
      <use xlink:href="#DejaVuSans-61" transform="translate(310.253906 0)"/>
      <use xlink:href="#DejaVuSans-20" transform="translate(371.533203 0)"/>
      <use xlink:href="#DejaVuSans-41" transform="translate(403.320312 0)"/>
      <use xlink:href="#DejaVuSans-64" transform="translate(469.978516 0)"/>
      <use xlink:href="#DejaVuSans-64" transform="translate(533.455078 0)"/>
      <use xlink:href="#DejaVuSans-69" transform="translate(596.931641 0)"/>
      <use xlink:href="#DejaVuSans-74" transform="translate(624.714844 0)"/>
      <use xlink:href="#DejaVuSans-69" transform="translate(663.923828 0)"/>
      <use xlink:href="#DejaVuSans-6f" transform="translate(691.707031 0)"/>
      <use xlink:href="#DejaVuSans-6e" transform="translate(752.888672 0)"/>
      <use xlink:href="#DejaVuSans-20" transform="translate(816.267578 0)"/>
      <use xlink:href="#DejaVuSans-32" transform="translate(848.054688 0)"/>
     </g>
    </g>
    <g id="line2d_21">
     <path d="M 235.461512 62.404504 
L 245.461512 62.404504 
L 255.461512 62.404504 
" style="fill: none; stroke: #2ca02c; stroke-width: 0.7; stroke-linecap: square"/>
     <g>
      <use xlink:href="#m297215bd9b" x="245.461512" y="62.404504" style="fill: #2ca02c; stroke: #2ca02c"/>
     </g>
    </g>
    <g id="text_16">
     <!-- C2_E7a Addition 3 -->
     <g transform="translate(263.461513 65.904504) scale(0.1 -0.1)">
      <use xlink:href="#DejaVuSans-43"/>
      <use xlink:href="#DejaVuSans-32" transform="translate(69.824219 0)"/>
      <use xlink:href="#DejaVuSans-5f" transform="translate(133.447266 0)"/>
      <use xlink:href="#DejaVuSans-45" transform="translate(183.447266 0)"/>
      <use xlink:href="#DejaVuSans-37" transform="translate(246.630859 0)"/>
      <use xlink:href="#DejaVuSans-61" transform="translate(310.253906 0)"/>
      <use xlink:href="#DejaVuSans-20" transform="translate(371.533203 0)"/>
      <use xlink:href="#DejaVuSans-41" transform="translate(403.320312 0)"/>
      <use xlink:href="#DejaVuSans-64" transform="translate(469.978516 0)"/>
      <use xlink:href="#DejaVuSans-64" transform="translate(533.455078 0)"/>
      <use xlink:href="#DejaVuSans-69" transform="translate(596.931641 0)"/>
      <use xlink:href="#DejaVuSans-74" transform="translate(624.714844 0)"/>
      <use xlink:href="#DejaVuSans-69" transform="translate(663.923828 0)"/>
      <use xlink:href="#DejaVuSans-6f" transform="translate(691.707031 0)"/>
      <use xlink:href="#DejaVuSans-6e" transform="translate(752.888672 0)"/>
      <use xlink:href="#DejaVuSans-20" transform="translate(816.267578 0)"/>
      <use xlink:href="#DejaVuSans-33" transform="translate(848.054688 0)"/>
     </g>
    </g>
    <g id="line2d_22">
     <path d="M 235.461512 77.360754 
L 245.461512 77.360754 
L 255.461512 77.360754 
" style="fill: none; stroke: #d62728; stroke-width: 0.7; stroke-linecap: square"/>
     <g>
      <use xlink:href="#m0d259fdb2f" x="245.461512" y="77.360754" style="fill: #d62728; stroke: #d62728"/>
     </g>
    </g>
    <g id="text_17">
     <!-- C2_E7a Addition 4 -->
     <g transform="translate(263.461513 80.860754) scale(0.1 -0.1)">
      <use xlink:href="#DejaVuSans-43"/>
      <use xlink:href="#DejaVuSans-32" transform="translate(69.824219 0)"/>
      <use xlink:href="#DejaVuSans-5f" transform="translate(133.447266 0)"/>
      <use xlink:href="#DejaVuSans-45" transform="translate(183.447266 0)"/>
      <use xlink:href="#DejaVuSans-37" transform="translate(246.630859 0)"/>
      <use xlink:href="#DejaVuSans-61" transform="translate(310.253906 0)"/>
      <use xlink:href="#DejaVuSans-20" transform="translate(371.533203 0)"/>
      <use xlink:href="#DejaVuSans-41" transform="translate(403.320312 0)"/>
      <use xlink:href="#DejaVuSans-64" transform="translate(469.978516 0)"/>
      <use xlink:href="#DejaVuSans-64" transform="translate(533.455078 0)"/>
      <use xlink:href="#DejaVuSans-69" transform="translate(596.931641 0)"/>
      <use xlink:href="#DejaVuSans-74" transform="translate(624.714844 0)"/>
      <use xlink:href="#DejaVuSans-69" transform="translate(663.923828 0)"/>
      <use xlink:href="#DejaVuSans-6f" transform="translate(691.707031 0)"/>
      <use xlink:href="#DejaVuSans-6e" transform="translate(752.888672 0)"/>
      <use xlink:href="#DejaVuSans-20" transform="translate(816.267578 0)"/>
      <use xlink:href="#DejaVuSans-34" transform="translate(848.054688 0)"/>
     </g>
    </g>
    <g id="line2d_23">
     <path d="M 235.461512 92.317004 
L 245.461512 92.317004 
L 255.461512 92.317004 
" style="fill: none; stroke: #9467bd; stroke-width: 0.7; stroke-linecap: square"/>
     <g>
      <use xlink:href="#m0a67ebd614" x="245.461512" y="92.317004" style="fill: #9467bd; stroke: #9467bd"/>
     </g>
    </g>
    <g id="text_18">
     <!-- C2_E7b Addition 1 -->
     <g transform="translate(263.461513 95.817004) scale(0.1 -0.1)">
      <defs>
       <path id="DejaVuSans-62" d="M 3116 1747 
Q 3116 2381 2855 2742 
Q 2594 3103 2138 3103 
Q 1681 3103 1420 2742 
Q 1159 2381 1159 1747 
Q 1159 1113 1420 752 
Q 1681 391 2138 391 
Q 2594 391 2855 752 
Q 3116 1113 3116 1747 
z
M 1159 2969 
Q 1341 3281 1617 3432 
Q 1894 3584 2278 3584 
Q 2916 3584 3314 3078 
Q 3713 2572 3713 1747 
Q 3713 922 3314 415 
Q 2916 -91 2278 -91 
Q 1894 -91 1617 61 
Q 1341 213 1159 525 
L 1159 0 
L 581 0 
L 581 4863 
L 1159 4863 
L 1159 2969 
z
" transform="scale(0.015625)"/>
      </defs>
      <use xlink:href="#DejaVuSans-43"/>
      <use xlink:href="#DejaVuSans-32" transform="translate(69.824219 0)"/>
      <use xlink:href="#DejaVuSans-5f" transform="translate(133.447266 0)"/>
      <use xlink:href="#DejaVuSans-45" transform="translate(183.447266 0)"/>
      <use xlink:href="#DejaVuSans-37" transform="translate(246.630859 0)"/>
      <use xlink:href="#DejaVuSans-62" transform="translate(310.253906 0)"/>
      <use xlink:href="#DejaVuSans-20" transform="translate(373.730469 0)"/>
      <use xlink:href="#DejaVuSans-41" transform="translate(405.517578 0)"/>
      <use xlink:href="#DejaVuSans-64" transform="translate(472.175781 0)"/>
      <use xlink:href="#DejaVuSans-64" transform="translate(535.652344 0)"/>
      <use xlink:href="#DejaVuSans-69" transform="translate(599.128906 0)"/>
      <use xlink:href="#DejaVuSans-74" transform="translate(626.912109 0)"/>
      <use xlink:href="#DejaVuSans-69" transform="translate(666.121094 0)"/>
      <use xlink:href="#DejaVuSans-6f" transform="translate(693.904297 0)"/>
      <use xlink:href="#DejaVuSans-6e" transform="translate(755.085938 0)"/>
      <use xlink:href="#DejaVuSans-20" transform="translate(818.464844 0)"/>
      <use xlink:href="#DejaVuSans-31" transform="translate(850.251953 0)"/>
     </g>
    </g>
    <g id="line2d_24">
     <path d="M 235.461512 107.273254 
L 245.461512 107.273254 
L 255.461512 107.273254 
" style="fill: none; stroke: #8c564b; stroke-width: 0.7; stroke-linecap: square"/>
     <g>
      <use xlink:href="#m4159a9c4e3" x="245.461512" y="107.273254" style="fill: #8c564b; stroke: #8c564b"/>
     </g>
    </g>
    <g id="text_19">
     <!-- C2_E7b Addition 2 -->
     <g transform="translate(263.461513 110.773254) scale(0.1 -0.1)">
      <use xlink:href="#DejaVuSans-43"/>
      <use xlink:href="#DejaVuSans-32" transform="translate(69.824219 0)"/>
      <use xlink:href="#DejaVuSans-5f" transform="translate(133.447266 0)"/>
      <use xlink:href="#DejaVuSans-45" transform="translate(183.447266 0)"/>
      <use xlink:href="#DejaVuSans-37" transform="translate(246.630859 0)"/>
      <use xlink:href="#DejaVuSans-62" transform="translate(310.253906 0)"/>
      <use xlink:href="#DejaVuSans-20" transform="translate(373.730469 0)"/>
      <use xlink:href="#DejaVuSans-41" transform="translate(405.517578 0)"/>
      <use xlink:href="#DejaVuSans-64" transform="translate(472.175781 0)"/>
      <use xlink:href="#DejaVuSans-64" transform="translate(535.652344 0)"/>
      <use xlink:href="#DejaVuSans-69" transform="translate(599.128906 0)"/>
      <use xlink:href="#DejaVuSans-74" transform="translate(626.912109 0)"/>
      <use xlink:href="#DejaVuSans-69" transform="translate(666.121094 0)"/>
      <use xlink:href="#DejaVuSans-6f" transform="translate(693.904297 0)"/>
      <use xlink:href="#DejaVuSans-6e" transform="translate(755.085938 0)"/>
      <use xlink:href="#DejaVuSans-20" transform="translate(818.464844 0)"/>
      <use xlink:href="#DejaVuSans-32" transform="translate(850.251953 0)"/>
     </g>
    </g>
    <g id="line2d_25">
     <path d="M 235.461512 122.229504 
L 245.461512 122.229504 
L 255.461512 122.229504 
" style="fill: none; stroke: #e377c2; stroke-width: 0.7; stroke-linecap: square"/>
     <g>
      <use xlink:href="#mf9e43ac2ec" x="245.461512" y="122.229504" style="fill: #e377c2; stroke: #e377c2"/>
     </g>
    </g>
    <g id="text_20">
     <!-- C2_E7b Addition 3 -->
     <g transform="translate(263.461513 125.729504) scale(0.1 -0.1)">
      <use xlink:href="#DejaVuSans-43"/>
      <use xlink:href="#DejaVuSans-32" transform="translate(69.824219 0)"/>
      <use xlink:href="#DejaVuSans-5f" transform="translate(133.447266 0)"/>
      <use xlink:href="#DejaVuSans-45" transform="translate(183.447266 0)"/>
      <use xlink:href="#DejaVuSans-37" transform="translate(246.630859 0)"/>
      <use xlink:href="#DejaVuSans-62" transform="translate(310.253906 0)"/>
      <use xlink:href="#DejaVuSans-20" transform="translate(373.730469 0)"/>
      <use xlink:href="#DejaVuSans-41" transform="translate(405.517578 0)"/>
      <use xlink:href="#DejaVuSans-64" transform="translate(472.175781 0)"/>
      <use xlink:href="#DejaVuSans-64" transform="translate(535.652344 0)"/>
      <use xlink:href="#DejaVuSans-69" transform="translate(599.128906 0)"/>
      <use xlink:href="#DejaVuSans-74" transform="translate(626.912109 0)"/>
      <use xlink:href="#DejaVuSans-69" transform="translate(666.121094 0)"/>
      <use xlink:href="#DejaVuSans-6f" transform="translate(693.904297 0)"/>
      <use xlink:href="#DejaVuSans-6e" transform="translate(755.085938 0)"/>
      <use xlink:href="#DejaVuSans-20" transform="translate(818.464844 0)"/>
      <use xlink:href="#DejaVuSans-33" transform="translate(850.251953 0)"/>
     </g>
    </g>
    <g id="line2d_26">
     <path d="M 235.461512 137.185754 
L 245.461512 137.185754 
L 255.461512 137.185754 
" style="fill: none; stroke: #7f7f7f; stroke-width: 0.7; stroke-linecap: square"/>
     <g>
      <use xlink:href="#m70beff5052" x="245.461512" y="137.185754" style="fill: #7f7f7f; stroke: #7f7f7f"/>
     </g>
    </g>
    <g id="text_21">
     <!-- C2_E7b Addition 4 -->
     <g transform="translate(263.461513 140.685754) scale(0.1 -0.1)">
      <use xlink:href="#DejaVuSans-43"/>
      <use xlink:href="#DejaVuSans-32" transform="translate(69.824219 0)"/>
      <use xlink:href="#DejaVuSans-5f" transform="translate(133.447266 0)"/>
      <use xlink:href="#DejaVuSans-45" transform="translate(183.447266 0)"/>
      <use xlink:href="#DejaVuSans-37" transform="translate(246.630859 0)"/>
      <use xlink:href="#DejaVuSans-62" transform="translate(310.253906 0)"/>
      <use xlink:href="#DejaVuSans-20" transform="translate(373.730469 0)"/>
      <use xlink:href="#DejaVuSans-41" transform="translate(405.517578 0)"/>
      <use xlink:href="#DejaVuSans-64" transform="translate(472.175781 0)"/>
      <use xlink:href="#DejaVuSans-64" transform="translate(535.652344 0)"/>
      <use xlink:href="#DejaVuSans-69" transform="translate(599.128906 0)"/>
      <use xlink:href="#DejaVuSans-74" transform="translate(626.912109 0)"/>
      <use xlink:href="#DejaVuSans-69" transform="translate(666.121094 0)"/>
      <use xlink:href="#DejaVuSans-6f" transform="translate(693.904297 0)"/>
      <use xlink:href="#DejaVuSans-6e" transform="translate(755.085938 0)"/>
      <use xlink:href="#DejaVuSans-20" transform="translate(818.464844 0)"/>
      <use xlink:href="#DejaVuSans-34" transform="translate(850.251953 0)"/>
     </g>
    </g>
   </g>
  </g>
 </g>
 <defs>
  <clipPath id="p9e8f44cd82">
   <rect x="46.965625" y="8.534567" width="179.495887" height="154.368"/>
  </clipPath>
 </defs>
</svg>
