<?xml version="1.0" encoding="utf-8" standalone="no"?>
<!DOCTYPE svg PUBLIC "-//W3C//DTD SVG 1.1//EN"
  "http://www.w3.org/Graphics/SVG/1.1/DTD/svg11.dtd">
<svg xmlns:xlink="http://www.w3.org/1999/xlink" width="366.050575pt" height="213.544562pt" viewBox="0 0 366.050575 213.544562" xmlns="http://www.w3.org/2000/svg" version="1.1">
 <metadata>
  <rdf:RDF xmlns:dc="http://purl.org/dc/elements/1.1/" xmlns:cc="http://creativecommons.org/ns#" xmlns:rdf="http://www.w3.org/1999/02/22-rdf-syntax-ns#">
   <cc:Work>
    <dc:type rdf:resource="http://purl.org/dc/dcmitype/StillImage"/>
    <dc:date>2026-01-13T22:55:13.228491</dc:date>
    <dc:format>image/svg+xml</dc:format>
    <dc:creator>
     <cc:Agent>
      <dc:title>Matplotlib v3.10.0, https://matplotlib.org/</dc:title>
     </cc:Agent>
    </dc:creator>
   </cc:Work>
  </rdf:RDF>
 </metadata>
 <defs>
  <style type="text/css">*{stroke-linejoin: round; stroke-linecap: butt}</style>
 </defs>
 <g id="figure_1">
  <g id="patch_1">
   <path d="M 0 213.544562 
L 366.050575 213.544562 
L 366.050575 0 
L 0 0 
z
" style="fill: #ffffff"/>
  </g>
  <g id="axes_1">
   <g id="patch_2">
    <path d="M 46.965625 175.166437 
L 226.461512 175.166437 
L 226.461512 20.798438 
L 46.965625 20.798438 
z
" style="fill: #ffffff"/>
   </g>
   <g id="matplotlib.axis_1">
    <g id="xtick_1">
     <g id="line2d_1">
      <defs>
       <path id="m2be2e1192e" d="M 0 0 
L 0 3.5 
" style="stroke: #000000; stroke-width: 0.8"/>
      </defs>
      <g>
       <use xlink:href="#m2be2e1192e" x="46.965625" y="175.166437" style="stroke: #000000; stroke-width: 0.8"/>
      </g>
     </g>
     <g id="text_1">
      <!-- 0.00 -->
      <g transform="translate(35.832813 189.764875) scale(0.1 -0.1)">
       <defs>
        <path id="DejaVuSans-30" d="M 2034 4250 
Q 1547 4250 1301 3770 
Q 1056 3291 1056 2328 
Q 1056 1369 1301 889 
Q 1547 409 2034 409 
Q 2525 409 2770 889 
Q 3016 1369 3016 2328 
Q 3016 3291 2770 3770 
Q 2525 4250 2034 4250 
z
M 2034 4750 
Q 2819 4750 3233 4129 
Q 3647 3509 3647 2328 
Q 3647 1150 3233 529 
Q 2819 -91 2034 -91 
Q 1250 -91 836 529 
Q 422 1150 422 2328 
Q 422 3509 836 4129 
Q 1250 4750 2034 4750 
z
" transform="scale(0.015625)"/>
        <path id="DejaVuSans-2e" d="M 684 794 
L 1344 794 
L 1344 0 
L 684 0 
L 684 794 
z
" transform="scale(0.015625)"/>
       </defs>
       <use xlink:href="#DejaVuSans-30"/>
       <use xlink:href="#DejaVuSans-2e" transform="translate(63.623047 0)"/>
       <use xlink:href="#DejaVuSans-30" transform="translate(95.410156 0)"/>
       <use xlink:href="#DejaVuSans-30" transform="translate(159.033203 0)"/>
      </g>
     </g>
    </g>
    <g id="xtick_2">
     <g id="line2d_2">
      <g>
       <use xlink:href="#m2be2e1192e" x="88.354031" y="175.166437" style="stroke: #000000; stroke-width: 0.8"/>
      </g>
     </g>
     <g id="text_2">
      <!-- 0.25 -->
      <g transform="translate(77.221218 189.764875) scale(0.1 -0.1)">
       <defs>
        <path id="DejaVuSans-32" d="M 1228 531 
L 3431 531 
L 3431 0 
L 469 0 
L 469 531 
Q 828 903 1448 1529 
Q 2069 2156 2228 2338 
Q 2531 2678 2651 2914 
Q 2772 3150 2772 3378 
Q 2772 3750 2511 3984 
Q 2250 4219 1831 4219 
Q 1534 4219 1204 4116 
Q 875 4013 500 3803 
L 500 4441 
Q 881 4594 1212 4672 
Q 1544 4750 1819 4750 
Q 2544 4750 2975 4387 
Q 3406 4025 3406 3419 
Q 3406 3131 3298 2873 
Q 3191 2616 2906 2266 
Q 2828 2175 2409 1742 
Q 1991 1309 1228 531 
z
" transform="scale(0.015625)"/>
        <path id="DejaVuSans-35" d="M 691 4666 
L 3169 4666 
L 3169 4134 
L 1269 4134 
L 1269 2991 
Q 1406 3038 1543 3061 
Q 1681 3084 1819 3084 
Q 2600 3084 3056 2656 
Q 3513 2228 3513 1497 
Q 3513 744 3044 326 
Q 2575 -91 1722 -91 
Q 1428 -91 1123 -41 
Q 819 9 494 109 
L 494 744 
Q 775 591 1075 516 
Q 1375 441 1709 441 
Q 2250 441 2565 725 
Q 2881 1009 2881 1497 
Q 2881 1984 2565 2268 
Q 2250 2553 1709 2553 
Q 1456 2553 1204 2497 
Q 953 2441 691 2322 
L 691 4666 
z
" transform="scale(0.015625)"/>
       </defs>
       <use xlink:href="#DejaVuSans-30"/>
       <use xlink:href="#DejaVuSans-2e" transform="translate(63.623047 0)"/>
       <use xlink:href="#DejaVuSans-32" transform="translate(95.410156 0)"/>
       <use xlink:href="#DejaVuSans-35" transform="translate(159.033203 0)"/>
      </g>
     </g>
    </g>
    <g id="xtick_3">
     <g id="line2d_3">
      <g>
       <use xlink:href="#m2be2e1192e" x="129.742437" y="175.166437" style="stroke: #000000; stroke-width: 0.8"/>
      </g>
     </g>
     <g id="text_3">
      <!-- 0.50 -->
      <g transform="translate(118.609624 189.764875) scale(0.1 -0.1)">
       <use xlink:href="#DejaVuSans-30"/>
       <use xlink:href="#DejaVuSans-2e" transform="translate(63.623047 0)"/>
       <use xlink:href="#DejaVuSans-35" transform="translate(95.410156 0)"/>
       <use xlink:href="#DejaVuSans-30" transform="translate(159.033203 0)"/>
      </g>
     </g>
    </g>
    <g id="xtick_4">
     <g id="line2d_4">
      <g>
       <use xlink:href="#m2be2e1192e" x="171.130843" y="175.166437" style="stroke: #000000; stroke-width: 0.8"/>
      </g>
     </g>
     <g id="text_4">
      <!-- 0.75 -->
      <g transform="translate(159.99803 189.764875) scale(0.1 -0.1)">
       <defs>
        <path id="DejaVuSans-37" d="M 525 4666 
L 3525 4666 
L 3525 4397 
L 1831 0 
L 1172 0 
L 2766 4134 
L 525 4134 
L 525 4666 
z
" transform="scale(0.015625)"/>
       </defs>
       <use xlink:href="#DejaVuSans-30"/>
       <use xlink:href="#DejaVuSans-2e" transform="translate(63.623047 0)"/>
       <use xlink:href="#DejaVuSans-37" transform="translate(95.410156 0)"/>
       <use xlink:href="#DejaVuSans-35" transform="translate(159.033203 0)"/>
      </g>
     </g>
    </g>
    <g id="xtick_5">
     <g id="line2d_5">
      <g>
       <use xlink:href="#m2be2e1192e" x="212.519249" y="175.166437" style="stroke: #000000; stroke-width: 0.8"/>
      </g>
     </g>
     <g id="text_5">
      <!-- 1.00 -->
      <g transform="translate(201.386436 189.764875) scale(0.1 -0.1)">
       <defs>
        <path id="DejaVuSans-31" d="M 794 531 
L 1825 531 
L 1825 4091 
L 703 3866 
L 703 4441 
L 1819 4666 
L 2450 4666 
L 2450 531 
L 3481 531 
L 3481 0 
L 794 0 
L 794 531 
z
" transform="scale(0.015625)"/>
       </defs>
       <use xlink:href="#DejaVuSans-31"/>
       <use xlink:href="#DejaVuSans-2e" transform="translate(63.623047 0)"/>
       <use xlink:href="#DejaVuSans-30" transform="translate(95.410156 0)"/>
       <use xlink:href="#DejaVuSans-30" transform="translate(159.033203 0)"/>
      </g>
     </g>
    </g>
    <g id="text_6">
     <!-- $Σ[Amine]^{0.00}[Phenol]^{0.00}[ArOPh]^{0.00}Δt$. -->
     <g transform="translate(42.513569 204.264875) scale(0.1 -0.1)">
      <defs>
       <path id="DejaVuSans-3a3" d="M 1353 531 
L 3634 531 
L 3634 0 
L 628 0 
L 628 531 
L 2125 2481 
L 628 4134 
L 628 4666 
L 3578 4666 
L 3578 4134 
L 1353 4134 
L 2850 2494 
L 1353 531 
z
" transform="scale(0.015625)"/>
       <path id="DejaVuSans-5b" d="M 550 4863 
L 1875 4863 
L 1875 4416 
L 1125 4416 
L 1125 -397 
L 1875 -397 
L 1875 -844 
L 550 -844 
L 550 4863 
z
" transform="scale(0.015625)"/>
       <path id="DejaVuSans-Oblique-41" d="M 2356 4666 
L 3072 4666 
L 3938 0 
L 3278 0 
L 3084 1197 
L 984 1197 
L 325 0 
L -341 0 
L 2356 4666 
z
M 2584 4044 
L 1275 1722 
L 2988 1722 
L 2584 4044 
z
" transform="scale(0.015625)"/>
       <path id="DejaVuSans-Oblique-6d" d="M 5747 2113 
L 5338 0 
L 4763 0 
L 5166 2094 
Q 5191 2228 5203 2325 
Q 5216 2422 5216 2491 
Q 5216 2772 5059 2928 
Q 4903 3084 4622 3084 
Q 4203 3084 3875 2770 
Q 3547 2456 3450 1953 
L 3066 0 
L 2491 0 
L 2900 2094 
Q 2925 2209 2937 2307 
Q 2950 2406 2950 2484 
Q 2950 2769 2794 2926 
Q 2638 3084 2363 3084 
Q 1938 3084 1609 2770 
Q 1281 2456 1184 1953 
L 800 0 
L 225 0 
L 909 3500 
L 1484 3500 
L 1375 2956 
Q 1609 3263 1923 3423 
Q 2238 3584 2597 3584 
Q 2978 3584 3223 3384 
Q 3469 3184 3519 2828 
Q 3781 3197 4126 3390 
Q 4472 3584 4856 3584 
Q 5306 3584 5551 3325 
Q 5797 3066 5797 2591 
Q 5797 2488 5784 2364 
Q 5772 2241 5747 2113 
z
" transform="scale(0.015625)"/>
       <path id="DejaVuSans-Oblique-69" d="M 1172 4863 
L 1747 4863 
L 1606 4134 
L 1031 4134 
L 1172 4863 
z
M 909 3500 
L 1484 3500 
L 800 0 
L 225 0 
L 909 3500 
z
" transform="scale(0.015625)"/>
       <path id="DejaVuSans-Oblique-6e" d="M 3566 2113 
L 3156 0 
L 2578 0 
L 2988 2091 
Q 3016 2238 3031 2350 
Q 3047 2463 3047 2528 
Q 3047 2791 2881 2937 
Q 2716 3084 2419 3084 
Q 1956 3084 1622 2776 
Q 1288 2469 1184 1941 
L 800 0 
L 225 0 
L 903 3500 
L 1478 3500 
L 1363 2950 
Q 1603 3253 1940 3418 
Q 2278 3584 2650 3584 
Q 3113 3584 3367 3334 
Q 3622 3084 3622 2631 
Q 3622 2519 3608 2391 
Q 3594 2263 3566 2113 
z
" transform="scale(0.015625)"/>
       <path id="DejaVuSans-Oblique-65" d="M 3078 2063 
Q 3088 2113 3092 2166 
Q 3097 2219 3097 2272 
Q 3097 2653 2873 2875 
Q 2650 3097 2266 3097 
Q 1838 3097 1509 2826 
Q 1181 2556 1013 2059 
L 3078 2063 
z
M 3578 1613 
L 903 1613 
Q 884 1494 878 1425 
Q 872 1356 872 1306 
Q 872 872 1139 634 
Q 1406 397 1894 397 
Q 2269 397 2603 481 
Q 2938 566 3225 728 
L 3116 159 
Q 2806 34 2476 -28 
Q 2147 -91 1806 -91 
Q 1078 -91 686 257 
Q 294 606 294 1247 
Q 294 1794 489 2264 
Q 684 2734 1063 3103 
Q 1306 3334 1642 3459 
Q 1978 3584 2356 3584 
Q 2950 3584 3301 3228 
Q 3653 2872 3653 2272 
Q 3653 2128 3634 1964 
Q 3616 1800 3578 1613 
z
" transform="scale(0.015625)"/>
       <path id="DejaVuSans-5d" d="M 1947 4863 
L 1947 -844 
L 622 -844 
L 622 -397 
L 1369 -397 
L 1369 4416 
L 622 4416 
L 622 4863 
L 1947 4863 
z
" transform="scale(0.015625)"/>
       <path id="DejaVuSans-Oblique-50" d="M 1081 4666 
L 2541 4666 
Q 3178 4666 3512 4369 
Q 3847 4072 3847 3500 
Q 3847 2731 3353 2303 
Q 2859 1875 1966 1875 
L 1172 1875 
L 806 0 
L 172 0 
L 1081 4666 
z
M 1613 4147 
L 1275 2394 
L 2069 2394 
Q 2606 2394 2893 2669 
Q 3181 2944 3181 3456 
Q 3181 3784 2986 3965 
Q 2791 4147 2438 4147 
L 1613 4147 
z
" transform="scale(0.015625)"/>
       <path id="DejaVuSans-Oblique-68" d="M 3566 2113 
L 3156 0 
L 2578 0 
L 2988 2091 
Q 3016 2238 3031 2350 
Q 3047 2463 3047 2528 
Q 3047 2791 2881 2937 
Q 2716 3084 2419 3084 
Q 1956 3084 1617 2771 
Q 1278 2459 1178 1941 
L 800 0 
L 225 0 
L 1172 4863 
L 1747 4863 
L 1375 2950 
Q 1594 3244 1934 3414 
Q 2275 3584 2650 3584 
Q 3113 3584 3367 3334 
Q 3622 3084 3622 2631 
Q 3622 2519 3608 2391 
Q 3594 2263 3566 2113 
z
" transform="scale(0.015625)"/>
       <path id="DejaVuSans-Oblique-6f" d="M 1625 -91 
Q 1009 -91 651 289 
Q 294 669 294 1325 
Q 294 1706 417 2101 
Q 541 2497 738 2766 
Q 1047 3184 1428 3384 
Q 1809 3584 2291 3584 
Q 2888 3584 3255 3212 
Q 3622 2841 3622 2241 
Q 3622 1825 3500 1412 
Q 3378 1000 3181 728 
Q 2875 309 2494 109 
Q 2113 -91 1625 -91 
z
M 891 1344 
Q 891 869 1089 633 
Q 1288 397 1691 397 
Q 2269 397 2648 901 
Q 3028 1406 3028 2181 
Q 3028 2634 2825 2865 
Q 2622 3097 2228 3097 
Q 1903 3097 1650 2945 
Q 1397 2794 1197 2484 
Q 1050 2253 970 1956 
Q 891 1659 891 1344 
z
" transform="scale(0.015625)"/>
       <path id="DejaVuSans-Oblique-6c" d="M 1172 4863 
L 1747 4863 
L 800 0 
L 225 0 
L 1172 4863 
z
" transform="scale(0.015625)"/>
       <path id="DejaVuSans-Oblique-72" d="M 2853 2969 
Q 2766 3016 2653 3041 
Q 2541 3066 2413 3066 
Q 1953 3066 1609 2717 
Q 1266 2369 1153 1784 
L 800 0 
L 225 0 
L 909 3500 
L 1484 3500 
L 1375 2956 
Q 1603 3259 1920 3421 
Q 2238 3584 2597 3584 
Q 2691 3584 2781 3573 
Q 2872 3563 2963 3538 
L 2853 2969 
z
" transform="scale(0.015625)"/>
       <path id="DejaVuSans-Oblique-4f" d="M 2919 4238 
Q 2400 4238 2003 3986 
Q 1606 3734 1313 3219 
Q 1125 2891 1026 2522 
Q 928 2153 928 1778 
Q 928 1128 1239 775 
Q 1550 422 2119 422 
Q 2631 422 3032 676 
Q 3434 931 3719 1434 
Q 3909 1772 4009 2142 
Q 4109 2513 4109 2881 
Q 4109 3528 3796 3883 
Q 3484 4238 2919 4238 
z
M 2100 -91 
Q 1241 -91 748 418 
Q 256 928 256 1813 
Q 256 2319 448 2847 
Q 641 3375 978 3788 
Q 1375 4272 1862 4511 
Q 2350 4750 2938 4750 
Q 3794 4750 4287 4245 
Q 4781 3741 4781 2869 
Q 4781 2331 4593 1812 
Q 4406 1294 4056 872 
Q 3656 384 3173 146 
Q 2691 -91 2100 -91 
z
" transform="scale(0.015625)"/>
       <path id="DejaVuSans-394" d="M 2188 4044 
L 906 525 
L 3472 525 
L 2188 4044 
z
M 50 0 
L 1831 4666 
L 2547 4666 
L 4325 0 
L 50 0 
z
" transform="scale(0.015625)"/>
       <path id="DejaVuSans-Oblique-74" d="M 2706 3500 
L 2619 3053 
L 1472 3053 
L 1100 1153 
Q 1081 1047 1072 975 
Q 1063 903 1063 863 
Q 1063 663 1183 572 
Q 1303 481 1569 481 
L 2150 481 
L 2053 0 
L 1503 0 
Q 991 0 739 200 
Q 488 400 488 806 
Q 488 878 497 964 
Q 506 1050 525 1153 
L 897 3053 
L 409 3053 
L 500 3500 
L 978 3500 
L 1172 4494 
L 1747 4494 
L 1556 3500 
L 2706 3500 
z
" transform="scale(0.015625)"/>
      </defs>
      <use xlink:href="#DejaVuSans-3a3" transform="translate(0 0.765625)"/>
      <use xlink:href="#DejaVuSans-5b" transform="translate(63.183594 0.765625)"/>
      <use xlink:href="#DejaVuSans-Oblique-41" transform="translate(102.197266 0.765625)"/>
      <use xlink:href="#DejaVuSans-Oblique-6d" transform="translate(170.605469 0.765625)"/>
      <use xlink:href="#DejaVuSans-Oblique-69" transform="translate(268.017578 0.765625)"/>
      <use xlink:href="#DejaVuSans-Oblique-6e" transform="translate(295.800781 0.765625)"/>
      <use xlink:href="#DejaVuSans-Oblique-65" transform="translate(359.179688 0.765625)"/>
      <use xlink:href="#DejaVuSans-5d" transform="translate(420.703125 0.765625)"/>
      <use xlink:href="#DejaVuSans-30" transform="translate(460.673828 39.046875) scale(0.7)"/>
      <use xlink:href="#DejaVuSans-2e" transform="translate(505.209961 39.046875) scale(0.7)"/>
      <use xlink:href="#DejaVuSans-30" transform="translate(527.460938 39.046875) scale(0.7)"/>
      <use xlink:href="#DejaVuSans-30" transform="translate(571.99707 39.046875) scale(0.7)"/>
      <use xlink:href="#DejaVuSans-5b" transform="translate(619.267578 0.765625)"/>
      <use xlink:href="#DejaVuSans-Oblique-50" transform="translate(658.28125 0.765625)"/>
      <use xlink:href="#DejaVuSans-Oblique-68" transform="translate(718.583984 0.765625)"/>
      <use xlink:href="#DejaVuSans-Oblique-65" transform="translate(781.962891 0.765625)"/>
      <use xlink:href="#DejaVuSans-Oblique-6e" transform="translate(843.486328 0.765625)"/>
      <use xlink:href="#DejaVuSans-Oblique-6f" transform="translate(906.865234 0.765625)"/>
      <use xlink:href="#DejaVuSans-Oblique-6c" transform="translate(968.046875 0.765625)"/>
      <use xlink:href="#DejaVuSans-5d" transform="translate(995.830078 0.765625)"/>
      <use xlink:href="#DejaVuSans-30" transform="translate(1035.800781 39.046875) scale(0.7)"/>
      <use xlink:href="#DejaVuSans-2e" transform="translate(1080.336914 39.046875) scale(0.7)"/>
      <use xlink:href="#DejaVuSans-30" transform="translate(1102.587891 39.046875) scale(0.7)"/>
      <use xlink:href="#DejaVuSans-30" transform="translate(1147.124023 39.046875) scale(0.7)"/>
      <use xlink:href="#DejaVuSans-5b" transform="translate(1194.394531 0.765625)"/>
      <use xlink:href="#DejaVuSans-Oblique-41" transform="translate(1233.408203 0.765625)"/>
      <use xlink:href="#DejaVuSans-Oblique-72" transform="translate(1301.816406 0.765625)"/>
      <use xlink:href="#DejaVuSans-Oblique-4f" transform="translate(1342.929688 0.765625)"/>
      <use xlink:href="#DejaVuSans-Oblique-50" transform="translate(1421.640625 0.765625)"/>
      <use xlink:href="#DejaVuSans-Oblique-68" transform="translate(1481.943359 0.765625)"/>
      <use xlink:href="#DejaVuSans-5d" transform="translate(1545.322266 0.765625)"/>
      <use xlink:href="#DejaVuSans-30" transform="translate(1585.292969 39.046875) scale(0.7)"/>
      <use xlink:href="#DejaVuSans-2e" transform="translate(1629.829102 39.046875) scale(0.7)"/>
      <use xlink:href="#DejaVuSans-30" transform="translate(1652.080078 39.046875) scale(0.7)"/>
      <use xlink:href="#DejaVuSans-30" transform="translate(1696.616211 39.046875) scale(0.7)"/>
      <use xlink:href="#DejaVuSans-394" transform="translate(1743.886719 0.765625)"/>
      <use xlink:href="#DejaVuSans-Oblique-74" transform="translate(1812.294922 0.765625)"/>
      <use xlink:href="#DejaVuSans-2e" transform="translate(1851.503906 0.765625)"/>
     </g>
    </g>
    <g id="text_7">
     <!-- 1e1 -->
     <g transform="translate(219.25062 202.443) scale(0.1 -0.1)">
      <defs>
       <path id="DejaVuSans-65" d="M 3597 1894 
L 3597 1613 
L 953 1613 
Q 991 1019 1311 708 
Q 1631 397 2203 397 
Q 2534 397 2845 478 
Q 3156 559 3463 722 
L 3463 178 
Q 3153 47 2828 -22 
Q 2503 -91 2169 -91 
Q 1331 -91 842 396 
Q 353 884 353 1716 
Q 353 2575 817 3079 
Q 1281 3584 2069 3584 
Q 2775 3584 3186 3129 
Q 3597 2675 3597 1894 
z
M 3022 2063 
Q 3016 2534 2758 2815 
Q 2500 3097 2075 3097 
Q 1594 3097 1305 2825 
Q 1016 2553 972 2059 
L 3022 2063 
z
" transform="scale(0.015625)"/>
      </defs>
      <use xlink:href="#DejaVuSans-31"/>
      <use xlink:href="#DejaVuSans-65" transform="translate(63.623047 0)"/>
      <use xlink:href="#DejaVuSans-31" transform="translate(125.146484 0)"/>
     </g>
    </g>
   </g>
   <g id="matplotlib.axis_2">
    <g id="ytick_1">
     <g id="line2d_6">
      <defs>
       <path id="m25d1e608f8" d="M 0 0 
L -3.5 0 
" style="stroke: #000000; stroke-width: 0.8"/>
      </defs>
      <g>
       <use xlink:href="#m25d1e608f8" x="46.965625" y="161.051928" style="stroke: #000000; stroke-width: 0.8"/>
      </g>
     </g>
     <g id="text_8">
      <!-- 100 -->
      <g transform="translate(20.878125 164.851147) scale(0.1 -0.1)">
       <use xlink:href="#DejaVuSans-31"/>
       <use xlink:href="#DejaVuSans-30" transform="translate(63.623047 0)"/>
       <use xlink:href="#DejaVuSans-30" transform="translate(127.246094 0)"/>
      </g>
     </g>
    </g>
    <g id="ytick_2">
     <g id="line2d_7">
      <g>
       <use xlink:href="#m25d1e608f8" x="46.965625" y="133.494161" style="stroke: #000000; stroke-width: 0.8"/>
      </g>
     </g>
     <g id="text_9">
      <!-- 110 -->
      <g transform="translate(20.878125 137.293379) scale(0.1 -0.1)">
       <use xlink:href="#DejaVuSans-31"/>
       <use xlink:href="#DejaVuSans-31" transform="translate(63.623047 0)"/>
       <use xlink:href="#DejaVuSans-30" transform="translate(127.246094 0)"/>
      </g>
     </g>
    </g>
    <g id="ytick_3">
     <g id="line2d_8">
      <g>
       <use xlink:href="#m25d1e608f8" x="46.965625" y="105.936393" style="stroke: #000000; stroke-width: 0.8"/>
      </g>
     </g>
     <g id="text_10">
      <!-- 120 -->
      <g transform="translate(20.878125 109.735612) scale(0.1 -0.1)">
       <use xlink:href="#DejaVuSans-31"/>
       <use xlink:href="#DejaVuSans-32" transform="translate(63.623047 0)"/>
       <use xlink:href="#DejaVuSans-30" transform="translate(127.246094 0)"/>
      </g>
     </g>
    </g>
    <g id="ytick_4">
     <g id="line2d_9">
      <g>
       <use xlink:href="#m25d1e608f8" x="46.965625" y="78.378625" style="stroke: #000000; stroke-width: 0.8"/>
      </g>
     </g>
     <g id="text_11">
      <!-- 130 -->
      <g transform="translate(20.878125 82.177844) scale(0.1 -0.1)">
       <defs>
        <path id="DejaVuSans-33" d="M 2597 2516 
Q 3050 2419 3304 2112 
Q 3559 1806 3559 1356 
Q 3559 666 3084 287 
Q 2609 -91 1734 -91 
Q 1441 -91 1130 -33 
Q 819 25 488 141 
L 488 750 
Q 750 597 1062 519 
Q 1375 441 1716 441 
Q 2309 441 2620 675 
Q 2931 909 2931 1356 
Q 2931 1769 2642 2001 
Q 2353 2234 1838 2234 
L 1294 2234 
L 1294 2753 
L 1863 2753 
Q 2328 2753 2575 2939 
Q 2822 3125 2822 3475 
Q 2822 3834 2567 4026 
Q 2313 4219 1838 4219 
Q 1578 4219 1281 4162 
Q 984 4106 628 3988 
L 628 4550 
Q 988 4650 1302 4700 
Q 1616 4750 1894 4750 
Q 2613 4750 3031 4423 
Q 3450 4097 3450 3541 
Q 3450 3153 3228 2886 
Q 3006 2619 2597 2516 
z
" transform="scale(0.015625)"/>
       </defs>
       <use xlink:href="#DejaVuSans-31"/>
       <use xlink:href="#DejaVuSans-33" transform="translate(63.623047 0)"/>
       <use xlink:href="#DejaVuSans-30" transform="translate(127.246094 0)"/>
      </g>
     </g>
    </g>
    <g id="ytick_5">
     <g id="line2d_10">
      <g>
       <use xlink:href="#m25d1e608f8" x="46.965625" y="50.820857" style="stroke: #000000; stroke-width: 0.8"/>
      </g>
     </g>
     <g id="text_12">
      <!-- 140 -->
      <g transform="translate(20.878125 54.620076) scale(0.1 -0.1)">
       <defs>
        <path id="DejaVuSans-34" d="M 2419 4116 
L 825 1625 
L 2419 1625 
L 2419 4116 
z
M 2253 4666 
L 3047 4666 
L 3047 1625 
L 3713 1625 
L 3713 1100 
L 3047 1100 
L 3047 0 
L 2419 0 
L 2419 1100 
L 313 1100 
L 313 1709 
L 2253 4666 
z
" transform="scale(0.015625)"/>
       </defs>
       <use xlink:href="#DejaVuSans-31"/>
       <use xlink:href="#DejaVuSans-34" transform="translate(63.623047 0)"/>
       <use xlink:href="#DejaVuSans-30" transform="translate(127.246094 0)"/>
      </g>
     </g>
    </g>
    <g id="ytick_6">
     <g id="line2d_11">
      <g>
       <use xlink:href="#m25d1e608f8" x="46.965625" y="23.263089" style="stroke: #000000; stroke-width: 0.8"/>
      </g>
     </g>
     <g id="text_13">
      <!-- 150 -->
      <g transform="translate(20.878125 27.062308) scale(0.1 -0.1)">
       <use xlink:href="#DejaVuSans-31"/>
       <use xlink:href="#DejaVuSans-35" transform="translate(63.623047 0)"/>
       <use xlink:href="#DejaVuSans-30" transform="translate(127.246094 0)"/>
      </g>
     </g>
    </g>
    <g id="text_14">
     <!-- Shifted [Product] / mM -->
     <g transform="translate(14.798438 154.117594) rotate(-90) scale(0.1 -0.1)">
      <defs>
       <path id="DejaVuSans-53" d="M 3425 4513 
L 3425 3897 
Q 3066 4069 2747 4153 
Q 2428 4238 2131 4238 
Q 1616 4238 1336 4038 
Q 1056 3838 1056 3469 
Q 1056 3159 1242 3001 
Q 1428 2844 1947 2747 
L 2328 2669 
Q 3034 2534 3370 2195 
Q 3706 1856 3706 1288 
Q 3706 609 3251 259 
Q 2797 -91 1919 -91 
Q 1588 -91 1214 -16 
Q 841 59 441 206 
L 441 856 
Q 825 641 1194 531 
Q 1563 422 1919 422 
Q 2459 422 2753 634 
Q 3047 847 3047 1241 
Q 3047 1584 2836 1778 
Q 2625 1972 2144 2069 
L 1759 2144 
Q 1053 2284 737 2584 
Q 422 2884 422 3419 
Q 422 4038 858 4394 
Q 1294 4750 2059 4750 
Q 2388 4750 2728 4690 
Q 3069 4631 3425 4513 
z
" transform="scale(0.015625)"/>
       <path id="DejaVuSans-68" d="M 3513 2113 
L 3513 0 
L 2938 0 
L 2938 2094 
Q 2938 2591 2744 2837 
Q 2550 3084 2163 3084 
Q 1697 3084 1428 2787 
Q 1159 2491 1159 1978 
L 1159 0 
L 581 0 
L 581 4863 
L 1159 4863 
L 1159 2956 
Q 1366 3272 1645 3428 
Q 1925 3584 2291 3584 
Q 2894 3584 3203 3211 
Q 3513 2838 3513 2113 
z
" transform="scale(0.015625)"/>
       <path id="DejaVuSans-69" d="M 603 3500 
L 1178 3500 
L 1178 0 
L 603 0 
L 603 3500 
z
M 603 4863 
L 1178 4863 
L 1178 4134 
L 603 4134 
L 603 4863 
z
" transform="scale(0.015625)"/>
       <path id="DejaVuSans-66" d="M 2375 4863 
L 2375 4384 
L 1825 4384 
Q 1516 4384 1395 4259 
Q 1275 4134 1275 3809 
L 1275 3500 
L 2222 3500 
L 2222 3053 
L 1275 3053 
L 1275 0 
L 697 0 
L 697 3053 
L 147 3053 
L 147 3500 
L 697 3500 
L 697 3744 
Q 697 4328 969 4595 
Q 1241 4863 1831 4863 
L 2375 4863 
z
" transform="scale(0.015625)"/>
       <path id="DejaVuSans-74" d="M 1172 4494 
L 1172 3500 
L 2356 3500 
L 2356 3053 
L 1172 3053 
L 1172 1153 
Q 1172 725 1289 603 
Q 1406 481 1766 481 
L 2356 481 
L 2356 0 
L 1766 0 
Q 1100 0 847 248 
Q 594 497 594 1153 
L 594 3053 
L 172 3053 
L 172 3500 
L 594 3500 
L 594 4494 
L 1172 4494 
z
" transform="scale(0.015625)"/>
       <path id="DejaVuSans-64" d="M 2906 2969 
L 2906 4863 
L 3481 4863 
L 3481 0 
L 2906 0 
L 2906 525 
Q 2725 213 2448 61 
Q 2172 -91 1784 -91 
Q 1150 -91 751 415 
Q 353 922 353 1747 
Q 353 2572 751 3078 
Q 1150 3584 1784 3584 
Q 2172 3584 2448 3432 
Q 2725 3281 2906 2969 
z
M 947 1747 
Q 947 1113 1208 752 
Q 1469 391 1925 391 
Q 2381 391 2643 752 
Q 2906 1113 2906 1747 
Q 2906 2381 2643 2742 
Q 2381 3103 1925 3103 
Q 1469 3103 1208 2742 
Q 947 2381 947 1747 
z
" transform="scale(0.015625)"/>
       <path id="DejaVuSans-20" transform="scale(0.015625)"/>
       <path id="DejaVuSans-50" d="M 1259 4147 
L 1259 2394 
L 2053 2394 
Q 2494 2394 2734 2622 
Q 2975 2850 2975 3272 
Q 2975 3691 2734 3919 
Q 2494 4147 2053 4147 
L 1259 4147 
z
M 628 4666 
L 2053 4666 
Q 2838 4666 3239 4311 
Q 3641 3956 3641 3272 
Q 3641 2581 3239 2228 
Q 2838 1875 2053 1875 
L 1259 1875 
L 1259 0 
L 628 0 
L 628 4666 
z
" transform="scale(0.015625)"/>
       <path id="DejaVuSans-72" d="M 2631 2963 
Q 2534 3019 2420 3045 
Q 2306 3072 2169 3072 
Q 1681 3072 1420 2755 
Q 1159 2438 1159 1844 
L 1159 0 
L 581 0 
L 581 3500 
L 1159 3500 
L 1159 2956 
Q 1341 3275 1631 3429 
Q 1922 3584 2338 3584 
Q 2397 3584 2469 3576 
Q 2541 3569 2628 3553 
L 2631 2963 
z
" transform="scale(0.015625)"/>
       <path id="DejaVuSans-6f" d="M 1959 3097 
Q 1497 3097 1228 2736 
Q 959 2375 959 1747 
Q 959 1119 1226 758 
Q 1494 397 1959 397 
Q 2419 397 2687 759 
Q 2956 1122 2956 1747 
Q 2956 2369 2687 2733 
Q 2419 3097 1959 3097 
z
M 1959 3584 
Q 2709 3584 3137 3096 
Q 3566 2609 3566 1747 
Q 3566 888 3137 398 
Q 2709 -91 1959 -91 
Q 1206 -91 779 398 
Q 353 888 353 1747 
Q 353 2609 779 3096 
Q 1206 3584 1959 3584 
z
" transform="scale(0.015625)"/>
       <path id="DejaVuSans-75" d="M 544 1381 
L 544 3500 
L 1119 3500 
L 1119 1403 
Q 1119 906 1312 657 
Q 1506 409 1894 409 
Q 2359 409 2629 706 
Q 2900 1003 2900 1516 
L 2900 3500 
L 3475 3500 
L 3475 0 
L 2900 0 
L 2900 538 
Q 2691 219 2414 64 
Q 2138 -91 1772 -91 
Q 1169 -91 856 284 
Q 544 659 544 1381 
z
M 1991 3584 
L 1991 3584 
z
" transform="scale(0.015625)"/>
       <path id="DejaVuSans-63" d="M 3122 3366 
L 3122 2828 
Q 2878 2963 2633 3030 
Q 2388 3097 2138 3097 
Q 1578 3097 1268 2742 
Q 959 2388 959 1747 
Q 959 1106 1268 751 
Q 1578 397 2138 397 
Q 2388 397 2633 464 
Q 2878 531 3122 666 
L 3122 134 
Q 2881 22 2623 -34 
Q 2366 -91 2075 -91 
Q 1284 -91 818 406 
Q 353 903 353 1747 
Q 353 2603 823 3093 
Q 1294 3584 2113 3584 
Q 2378 3584 2631 3529 
Q 2884 3475 3122 3366 
z
" transform="scale(0.015625)"/>
       <path id="DejaVuSans-2f" d="M 1625 4666 
L 2156 4666 
L 531 -594 
L 0 -594 
L 1625 4666 
z
" transform="scale(0.015625)"/>
       <path id="DejaVuSans-6d" d="M 3328 2828 
Q 3544 3216 3844 3400 
Q 4144 3584 4550 3584 
Q 5097 3584 5394 3201 
Q 5691 2819 5691 2113 
L 5691 0 
L 5113 0 
L 5113 2094 
Q 5113 2597 4934 2840 
Q 4756 3084 4391 3084 
Q 3944 3084 3684 2787 
Q 3425 2491 3425 1978 
L 3425 0 
L 2847 0 
L 2847 2094 
Q 2847 2600 2669 2842 
Q 2491 3084 2119 3084 
Q 1678 3084 1418 2786 
Q 1159 2488 1159 1978 
L 1159 0 
L 581 0 
L 581 3500 
L 1159 3500 
L 1159 2956 
Q 1356 3278 1631 3431 
Q 1906 3584 2284 3584 
Q 2666 3584 2933 3390 
Q 3200 3197 3328 2828 
z
" transform="scale(0.015625)"/>
       <path id="DejaVuSans-4d" d="M 628 4666 
L 1569 4666 
L 2759 1491 
L 3956 4666 
L 4897 4666 
L 4897 0 
L 4281 0 
L 4281 4097 
L 3078 897 
L 2444 897 
L 1241 4097 
L 1241 0 
L 628 0 
L 628 4666 
z
" transform="scale(0.015625)"/>
      </defs>
      <use xlink:href="#DejaVuSans-53"/>
      <use xlink:href="#DejaVuSans-68" transform="translate(63.476562 0)"/>
      <use xlink:href="#DejaVuSans-69" transform="translate(126.855469 0)"/>
      <use xlink:href="#DejaVuSans-66" transform="translate(154.638672 0)"/>
      <use xlink:href="#DejaVuSans-74" transform="translate(188.09375 0)"/>
      <use xlink:href="#DejaVuSans-65" transform="translate(227.302734 0)"/>
      <use xlink:href="#DejaVuSans-64" transform="translate(288.826172 0)"/>
      <use xlink:href="#DejaVuSans-20" transform="translate(352.302734 0)"/>
      <use xlink:href="#DejaVuSans-5b" transform="translate(384.089844 0)"/>
      <use xlink:href="#DejaVuSans-50" transform="translate(423.103516 0)"/>
      <use xlink:href="#DejaVuSans-72" transform="translate(481.65625 0)"/>
      <use xlink:href="#DejaVuSans-6f" transform="translate(520.519531 0)"/>
      <use xlink:href="#DejaVuSans-64" transform="translate(581.701172 0)"/>
      <use xlink:href="#DejaVuSans-75" transform="translate(645.177734 0)"/>
      <use xlink:href="#DejaVuSans-63" transform="translate(708.556641 0)"/>
      <use xlink:href="#DejaVuSans-74" transform="translate(763.537109 0)"/>
      <use xlink:href="#DejaVuSans-5d" transform="translate(802.746094 0)"/>
      <use xlink:href="#DejaVuSans-20" transform="translate(841.759766 0)"/>
      <use xlink:href="#DejaVuSans-2f" transform="translate(873.546875 0)"/>
      <use xlink:href="#DejaVuSans-20" transform="translate(907.238281 0)"/>
      <use xlink:href="#DejaVuSans-6d" transform="translate(939.025391 0)"/>
      <use xlink:href="#DejaVuSans-4d" transform="translate(1036.4375 0)"/>
     </g>
    </g>
   </g>
   <g id="line2d_12">
    <path d="M 46.965625 166.331343 
L 47.981021 164.661461 
L 52.075162 156.938518 
L 56.183651 150.428527 
L 60.404992 144.933449 
L 64.518724 139.86051 
L 68.627213 135.78071 
L 72.719147 131.62385 
L 76.951249 128.724693 
L 81.059462 124.828205 
L 85.153327 121.63444 
L 89.385706 119.23605 
L 93.485365 116.667421 
L 97.593855 115.123947 
L 101.694894 113.577897 
L 105.935274 111.472934 
L 110.026656 110.46074 
L 114.131006 108.436596 
L 118.369455 107.200853 
L 122.462216 105.791597 
L 126.56767 105.081352 
L 130.688024 103.954405 
L 134.901364 102.697554 
L 139.00599 102.170753 
L 143.11034 101.33617 
L 147.351272 99.726324 
L 151.443482 99.614123 
L 155.550039 98.578369 
L 159.6726 97.787026 
L 163.886492 96.483585 
L 167.985048 95.764851 
" clip-path="url(#pab0c74d0cb)" style="fill: none; stroke: #1f77b4; stroke-width: 0.7; stroke-linecap: square"/>
    <defs>
     <path id="m0cbbe7a403" d="M 0 0.9 
C 0.238683 0.9 0.467622 0.80517 0.636396 0.636396 
C 0.80517 0.467622 0.9 0.238683 0.9 0 
C 0.9 -0.238683 0.80517 -0.467622 0.636396 -0.636396 
C 0.467622 -0.80517 0.238683 -0.9 0 -0.9 
C -0.238683 -0.9 -0.467622 -0.80517 -0.636396 -0.636396 
C -0.80517 -0.467622 -0.9 -0.238683 -0.9 0 
C -0.9 0.238683 -0.80517 0.467622 -0.636396 0.636396 
C -0.467622 0.80517 -0.238683 0.9 0 0.9 
z
" style="stroke: #1f77b4"/>
    </defs>
    <g clip-path="url(#pab0c74d0cb)">
     <use xlink:href="#m0cbbe7a403" x="46.965625" y="166.331343" style="fill: #1f77b4; stroke: #1f77b4"/>
     <use xlink:href="#m0cbbe7a403" x="47.981021" y="164.661461" style="fill: #1f77b4; stroke: #1f77b4"/>
     <use xlink:href="#m0cbbe7a403" x="52.075162" y="156.938518" style="fill: #1f77b4; stroke: #1f77b4"/>
     <use xlink:href="#m0cbbe7a403" x="56.183651" y="150.428527" style="fill: #1f77b4; stroke: #1f77b4"/>
     <use xlink:href="#m0cbbe7a403" x="60.404992" y="144.933449" style="fill: #1f77b4; stroke: #1f77b4"/>
     <use xlink:href="#m0cbbe7a403" x="64.518724" y="139.86051" style="fill: #1f77b4; stroke: #1f77b4"/>
     <use xlink:href="#m0cbbe7a403" x="68.627213" y="135.78071" style="fill: #1f77b4; stroke: #1f77b4"/>
     <use xlink:href="#m0cbbe7a403" x="72.719147" y="131.62385" style="fill: #1f77b4; stroke: #1f77b4"/>
     <use xlink:href="#m0cbbe7a403" x="76.951249" y="128.724693" style="fill: #1f77b4; stroke: #1f77b4"/>
     <use xlink:href="#m0cbbe7a403" x="81.059462" y="124.828205" style="fill: #1f77b4; stroke: #1f77b4"/>
     <use xlink:href="#m0cbbe7a403" x="85.153327" y="121.63444" style="fill: #1f77b4; stroke: #1f77b4"/>
     <use xlink:href="#m0cbbe7a403" x="89.385706" y="119.23605" style="fill: #1f77b4; stroke: #1f77b4"/>
     <use xlink:href="#m0cbbe7a403" x="93.485365" y="116.667421" style="fill: #1f77b4; stroke: #1f77b4"/>
     <use xlink:href="#m0cbbe7a403" x="97.593855" y="115.123947" style="fill: #1f77b4; stroke: #1f77b4"/>
     <use xlink:href="#m0cbbe7a403" x="101.694894" y="113.577897" style="fill: #1f77b4; stroke: #1f77b4"/>
     <use xlink:href="#m0cbbe7a403" x="105.935274" y="111.472934" style="fill: #1f77b4; stroke: #1f77b4"/>
     <use xlink:href="#m0cbbe7a403" x="110.026656" y="110.46074" style="fill: #1f77b4; stroke: #1f77b4"/>
     <use xlink:href="#m0cbbe7a403" x="114.131006" y="108.436596" style="fill: #1f77b4; stroke: #1f77b4"/>
     <use xlink:href="#m0cbbe7a403" x="118.369455" y="107.200853" style="fill: #1f77b4; stroke: #1f77b4"/>
     <use xlink:href="#m0cbbe7a403" x="122.462216" y="105.791597" style="fill: #1f77b4; stroke: #1f77b4"/>
     <use xlink:href="#m0cbbe7a403" x="126.56767" y="105.081352" style="fill: #1f77b4; stroke: #1f77b4"/>
     <use xlink:href="#m0cbbe7a403" x="130.688024" y="103.954405" style="fill: #1f77b4; stroke: #1f77b4"/>
     <use xlink:href="#m0cbbe7a403" x="134.901364" y="102.697554" style="fill: #1f77b4; stroke: #1f77b4"/>
     <use xlink:href="#m0cbbe7a403" x="139.00599" y="102.170753" style="fill: #1f77b4; stroke: #1f77b4"/>
     <use xlink:href="#m0cbbe7a403" x="143.11034" y="101.33617" style="fill: #1f77b4; stroke: #1f77b4"/>
     <use xlink:href="#m0cbbe7a403" x="147.351272" y="99.726324" style="fill: #1f77b4; stroke: #1f77b4"/>
     <use xlink:href="#m0cbbe7a403" x="151.443482" y="99.614123" style="fill: #1f77b4; stroke: #1f77b4"/>
     <use xlink:href="#m0cbbe7a403" x="155.550039" y="98.578369" style="fill: #1f77b4; stroke: #1f77b4"/>
     <use xlink:href="#m0cbbe7a403" x="159.6726" y="97.787026" style="fill: #1f77b4; stroke: #1f77b4"/>
     <use xlink:href="#m0cbbe7a403" x="163.886492" y="96.483585" style="fill: #1f77b4; stroke: #1f77b4"/>
     <use xlink:href="#m0cbbe7a403" x="167.985048" y="95.764851" style="fill: #1f77b4; stroke: #1f77b4"/>
    </g>
   </g>
   <g id="line2d_13">
    <path d="M 46.965625 166.331343 
L 51.175378 147.547375 
L 55.283867 133.810403 
L 59.385734 123.269039 
L 63.502225 114.477596 
L 67.731568 107.301604 
L 71.823226 101.353082 
L 75.926748 96.38219 
L 80.164645 91.327812 
L 84.268995 87.623709 
L 88.363412 83.720952 
L 92.469142 81.075662 
L 96.70428 78.02811 
L 100.803663 74.966343 
L 104.903599 72.834171 
L 109.144255 70.529728 
L 113.235913 68.905151 
" clip-path="url(#pab0c74d0cb)" style="fill: none; stroke: #ff7f0e; stroke-width: 0.7; stroke-linecap: square"/>
    <defs>
     <path id="mc542933661" d="M 0 0.9 
C 0.238683 0.9 0.467622 0.80517 0.636396 0.636396 
C 0.80517 0.467622 0.9 0.238683 0.9 0 
C 0.9 -0.238683 0.80517 -0.467622 0.636396 -0.636396 
C 0.467622 -0.80517 0.238683 -0.9 0 -0.9 
C -0.238683 -0.9 -0.467622 -0.80517 -0.636396 -0.636396 
C -0.80517 -0.467622 -0.9 -0.238683 -0.9 0 
C -0.9 0.238683 -0.80517 0.467622 -0.636396 0.636396 
C -0.467622 0.80517 -0.238683 0.9 0 0.9 
z
" style="stroke: #ff7f0e"/>
    </defs>
    <g clip-path="url(#pab0c74d0cb)">
     <use xlink:href="#mc542933661" x="46.965625" y="166.331343" style="fill: #ff7f0e; stroke: #ff7f0e"/>
     <use xlink:href="#mc542933661" x="51.175378" y="147.547375" style="fill: #ff7f0e; stroke: #ff7f0e"/>
     <use xlink:href="#mc542933661" x="55.283867" y="133.810403" style="fill: #ff7f0e; stroke: #ff7f0e"/>
     <use xlink:href="#mc542933661" x="59.385734" y="123.269039" style="fill: #ff7f0e; stroke: #ff7f0e"/>
     <use xlink:href="#mc542933661" x="63.502225" y="114.477596" style="fill: #ff7f0e; stroke: #ff7f0e"/>
     <use xlink:href="#mc542933661" x="67.731568" y="107.301604" style="fill: #ff7f0e; stroke: #ff7f0e"/>
     <use xlink:href="#mc542933661" x="71.823226" y="101.353082" style="fill: #ff7f0e; stroke: #ff7f0e"/>
     <use xlink:href="#mc542933661" x="75.926748" y="96.38219" style="fill: #ff7f0e; stroke: #ff7f0e"/>
     <use xlink:href="#mc542933661" x="80.164645" y="91.327812" style="fill: #ff7f0e; stroke: #ff7f0e"/>
     <use xlink:href="#mc542933661" x="84.268995" y="87.623709" style="fill: #ff7f0e; stroke: #ff7f0e"/>
     <use xlink:href="#mc542933661" x="88.363412" y="83.720952" style="fill: #ff7f0e; stroke: #ff7f0e"/>
     <use xlink:href="#mc542933661" x="92.469142" y="81.075662" style="fill: #ff7f0e; stroke: #ff7f0e"/>
     <use xlink:href="#mc542933661" x="96.70428" y="78.02811" style="fill: #ff7f0e; stroke: #ff7f0e"/>
     <use xlink:href="#mc542933661" x="100.803663" y="74.966343" style="fill: #ff7f0e; stroke: #ff7f0e"/>
     <use xlink:href="#mc542933661" x="104.903599" y="72.834171" style="fill: #ff7f0e; stroke: #ff7f0e"/>
     <use xlink:href="#mc542933661" x="109.144255" y="70.529728" style="fill: #ff7f0e; stroke: #ff7f0e"/>
     <use xlink:href="#mc542933661" x="113.235913" y="68.905151" style="fill: #ff7f0e; stroke: #ff7f0e"/>
    </g>
   </g>
   <g id="line2d_14">
    <path d="M 46.965625 166.331343 
L 51.081012 164.477036 
L 55.297387 162.510622 
L 59.401185 160.532237 
L 63.523195 158.86025 
L 67.737086 157.033402 
L 71.835918 155.764101 
L 75.956548 153.822438 
L 80.063933 152.303741 
L 84.278653 151.402468 
L 88.378036 149.969315 
L 92.497838 148.45178 
L 96.723318 147.419473 
L 100.8147 146.629494 
L 104.919326 145.623202 
L 109.036093 144.130008 
L 113.261849 142.725691 
L 117.356818 142.998913 
L 121.480207 141.963803 
L 125.693547 141.176133 
L 129.800381 141.040622 
L 133.898109 139.543011 
L 138.01929 138.762328 
L 142.233182 138.133842 
L 146.338636 137.191933 
L 150.439675 136.605952 
L 154.682814 135.700662 
L 158.774196 135.503593 
L 162.876615 134.969912 
L 167.00028 134.435137 
L 171.213619 133.397319 
L 175.313003 133.197346 
L 179.432253 131.531842 
L 183.646145 131.594619 
L 187.933156 130.928522 
L 191.919411 130.834953 
L 196.022106 130.278445 
L 200.130871 130.249603 
L 204.223632 129.318686 
L 208.454079 128.79675 
L 212.561189 128.020485 
L 217.914089 127.836181 
" clip-path="url(#pab0c74d0cb)" style="fill: none; stroke: #2ca02c; stroke-width: 0.7; stroke-linecap: square"/>
    <defs>
     <path id="m39e4104d93" d="M 0 0.9 
C 0.238683 0.9 0.467622 0.80517 0.636396 0.636396 
C 0.80517 0.467622 0.9 0.238683 0.9 0 
C 0.9 -0.238683 0.80517 -0.467622 0.636396 -0.636396 
C 0.467622 -0.80517 0.238683 -0.9 0 -0.9 
C -0.238683 -0.9 -0.467622 -0.80517 -0.636396 -0.636396 
C -0.80517 -0.467622 -0.9 -0.238683 -0.9 0 
C -0.9 0.238683 -0.80517 0.467622 -0.636396 0.636396 
C -0.467622 0.80517 -0.238683 0.9 0 0.9 
z
" style="stroke: #2ca02c"/>
    </defs>
    <g clip-path="url(#pab0c74d0cb)">
     <use xlink:href="#m39e4104d93" x="46.965625" y="166.331343" style="fill: #2ca02c; stroke: #2ca02c"/>
     <use xlink:href="#m39e4104d93" x="51.081012" y="164.477036" style="fill: #2ca02c; stroke: #2ca02c"/>
     <use xlink:href="#m39e4104d93" x="55.297387" y="162.510622" style="fill: #2ca02c; stroke: #2ca02c"/>
     <use xlink:href="#m39e4104d93" x="59.401185" y="160.532237" style="fill: #2ca02c; stroke: #2ca02c"/>
     <use xlink:href="#m39e4104d93" x="63.523195" y="158.86025" style="fill: #2ca02c; stroke: #2ca02c"/>
     <use xlink:href="#m39e4104d93" x="67.737086" y="157.033402" style="fill: #2ca02c; stroke: #2ca02c"/>
     <use xlink:href="#m39e4104d93" x="71.835918" y="155.764101" style="fill: #2ca02c; stroke: #2ca02c"/>
     <use xlink:href="#m39e4104d93" x="75.956548" y="153.822438" style="fill: #2ca02c; stroke: #2ca02c"/>
     <use xlink:href="#m39e4104d93" x="80.063933" y="152.303741" style="fill: #2ca02c; stroke: #2ca02c"/>
     <use xlink:href="#m39e4104d93" x="84.278653" y="151.402468" style="fill: #2ca02c; stroke: #2ca02c"/>
     <use xlink:href="#m39e4104d93" x="88.378036" y="149.969315" style="fill: #2ca02c; stroke: #2ca02c"/>
     <use xlink:href="#m39e4104d93" x="92.497838" y="148.45178" style="fill: #2ca02c; stroke: #2ca02c"/>
     <use xlink:href="#m39e4104d93" x="96.723318" y="147.419473" style="fill: #2ca02c; stroke: #2ca02c"/>
     <use xlink:href="#m39e4104d93" x="100.8147" y="146.629494" style="fill: #2ca02c; stroke: #2ca02c"/>
     <use xlink:href="#m39e4104d93" x="104.919326" y="145.623202" style="fill: #2ca02c; stroke: #2ca02c"/>
     <use xlink:href="#m39e4104d93" x="109.036093" y="144.130008" style="fill: #2ca02c; stroke: #2ca02c"/>
     <use xlink:href="#m39e4104d93" x="113.261849" y="142.725691" style="fill: #2ca02c; stroke: #2ca02c"/>
     <use xlink:href="#m39e4104d93" x="117.356818" y="142.998913" style="fill: #2ca02c; stroke: #2ca02c"/>
     <use xlink:href="#m39e4104d93" x="121.480207" y="141.963803" style="fill: #2ca02c; stroke: #2ca02c"/>
     <use xlink:href="#m39e4104d93" x="125.693547" y="141.176133" style="fill: #2ca02c; stroke: #2ca02c"/>
     <use xlink:href="#m39e4104d93" x="129.800381" y="141.040622" style="fill: #2ca02c; stroke: #2ca02c"/>
     <use xlink:href="#m39e4104d93" x="133.898109" y="139.543011" style="fill: #2ca02c; stroke: #2ca02c"/>
     <use xlink:href="#m39e4104d93" x="138.01929" y="138.762328" style="fill: #2ca02c; stroke: #2ca02c"/>
     <use xlink:href="#m39e4104d93" x="142.233182" y="138.133842" style="fill: #2ca02c; stroke: #2ca02c"/>
     <use xlink:href="#m39e4104d93" x="146.338636" y="137.191933" style="fill: #2ca02c; stroke: #2ca02c"/>
     <use xlink:href="#m39e4104d93" x="150.439675" y="136.605952" style="fill: #2ca02c; stroke: #2ca02c"/>
     <use xlink:href="#m39e4104d93" x="154.682814" y="135.700662" style="fill: #2ca02c; stroke: #2ca02c"/>
     <use xlink:href="#m39e4104d93" x="158.774196" y="135.503593" style="fill: #2ca02c; stroke: #2ca02c"/>
     <use xlink:href="#m39e4104d93" x="162.876615" y="134.969912" style="fill: #2ca02c; stroke: #2ca02c"/>
     <use xlink:href="#m39e4104d93" x="167.00028" y="134.435137" style="fill: #2ca02c; stroke: #2ca02c"/>
     <use xlink:href="#m39e4104d93" x="171.213619" y="133.397319" style="fill: #2ca02c; stroke: #2ca02c"/>
     <use xlink:href="#m39e4104d93" x="175.313003" y="133.197346" style="fill: #2ca02c; stroke: #2ca02c"/>
     <use xlink:href="#m39e4104d93" x="179.432253" y="131.531842" style="fill: #2ca02c; stroke: #2ca02c"/>
     <use xlink:href="#m39e4104d93" x="183.646145" y="131.594619" style="fill: #2ca02c; stroke: #2ca02c"/>
     <use xlink:href="#m39e4104d93" x="187.933156" y="130.928522" style="fill: #2ca02c; stroke: #2ca02c"/>
     <use xlink:href="#m39e4104d93" x="191.919411" y="130.834953" style="fill: #2ca02c; stroke: #2ca02c"/>
     <use xlink:href="#m39e4104d93" x="196.022106" y="130.278445" style="fill: #2ca02c; stroke: #2ca02c"/>
     <use xlink:href="#m39e4104d93" x="200.130871" y="130.249603" style="fill: #2ca02c; stroke: #2ca02c"/>
     <use xlink:href="#m39e4104d93" x="204.223632" y="129.318686" style="fill: #2ca02c; stroke: #2ca02c"/>
     <use xlink:href="#m39e4104d93" x="208.454079" y="128.79675" style="fill: #2ca02c; stroke: #2ca02c"/>
     <use xlink:href="#m39e4104d93" x="212.561189" y="128.020485" style="fill: #2ca02c; stroke: #2ca02c"/>
     <use xlink:href="#m39e4104d93" x="217.914089" y="127.836181" style="fill: #2ca02c; stroke: #2ca02c"/>
    </g>
   </g>
   <g id="line2d_15">
    <path d="M 46.965625 166.331343 
L 51.073286 158.82806 
L 55.164392 153.481794 
L 59.267639 149.237528 
L 64.118912 145.871753 
L 67.607954 143.604422 
L 71.724445 141.784768 
L 75.941096 140.872955 
L 80.044343 139.341313 
L 84.164972 138.261006 
L 88.256078 137.599053 
L 92.481835 136.823184 
L 96.596946 135.959516 
L 100.705987 135.830344 
L 104.937537 135.547928 
L 109.031403 134.568296 
L 113.140168 134.626112 
L 117.240103 134.416946 
L 121.472206 134.309919 
L 125.580971 133.807776 
" clip-path="url(#pab0c74d0cb)" style="fill: none; stroke: #d62728; stroke-width: 0.7; stroke-linecap: square"/>
    <defs>
     <path id="m71a530eff4" d="M 0 0.9 
C 0.238683 0.9 0.467622 0.80517 0.636396 0.636396 
C 0.80517 0.467622 0.9 0.238683 0.9 0 
C 0.9 -0.238683 0.80517 -0.467622 0.636396 -0.636396 
C 0.467622 -0.80517 0.238683 -0.9 0 -0.9 
C -0.238683 -0.9 -0.467622 -0.80517 -0.636396 -0.636396 
C -0.80517 -0.467622 -0.9 -0.238683 -0.9 0 
C -0.9 0.238683 -0.80517 0.467622 -0.636396 0.636396 
C -0.467622 0.80517 -0.238683 0.9 0 0.9 
z
" style="stroke: #d62728"/>
    </defs>
    <g clip-path="url(#pab0c74d0cb)">
     <use xlink:href="#m71a530eff4" x="46.965625" y="166.331343" style="fill: #d62728; stroke: #d62728"/>
     <use xlink:href="#m71a530eff4" x="51.073286" y="158.82806" style="fill: #d62728; stroke: #d62728"/>
     <use xlink:href="#m71a530eff4" x="55.164392" y="153.481794" style="fill: #d62728; stroke: #d62728"/>
     <use xlink:href="#m71a530eff4" x="59.267639" y="149.237528" style="fill: #d62728; stroke: #d62728"/>
     <use xlink:href="#m71a530eff4" x="64.118912" y="145.871753" style="fill: #d62728; stroke: #d62728"/>
     <use xlink:href="#m71a530eff4" x="67.607954" y="143.604422" style="fill: #d62728; stroke: #d62728"/>
     <use xlink:href="#m71a530eff4" x="71.724445" y="141.784768" style="fill: #d62728; stroke: #d62728"/>
     <use xlink:href="#m71a530eff4" x="75.941096" y="140.872955" style="fill: #d62728; stroke: #d62728"/>
     <use xlink:href="#m71a530eff4" x="80.044343" y="139.341313" style="fill: #d62728; stroke: #d62728"/>
     <use xlink:href="#m71a530eff4" x="84.164972" y="138.261006" style="fill: #d62728; stroke: #d62728"/>
     <use xlink:href="#m71a530eff4" x="88.256078" y="137.599053" style="fill: #d62728; stroke: #d62728"/>
     <use xlink:href="#m71a530eff4" x="92.481835" y="136.823184" style="fill: #d62728; stroke: #d62728"/>
     <use xlink:href="#m71a530eff4" x="96.596946" y="135.959516" style="fill: #d62728; stroke: #d62728"/>
     <use xlink:href="#m71a530eff4" x="100.705987" y="135.830344" style="fill: #d62728; stroke: #d62728"/>
     <use xlink:href="#m71a530eff4" x="104.937537" y="135.547928" style="fill: #d62728; stroke: #d62728"/>
     <use xlink:href="#m71a530eff4" x="109.031403" y="134.568296" style="fill: #d62728; stroke: #d62728"/>
     <use xlink:href="#m71a530eff4" x="113.140168" y="134.626112" style="fill: #d62728; stroke: #d62728"/>
     <use xlink:href="#m71a530eff4" x="117.240103" y="134.416946" style="fill: #d62728; stroke: #d62728"/>
     <use xlink:href="#m71a530eff4" x="121.472206" y="134.309919" style="fill: #d62728; stroke: #d62728"/>
     <use xlink:href="#m71a530eff4" x="125.580971" y="133.807776" style="fill: #d62728; stroke: #d62728"/>
    </g>
   </g>
   <g id="line2d_16">
    <path d="M 46.965625 166.331343 
L 49.255783 164.002118 
L 53.478229 152.842634 
L 57.579268 144.563695 
L 61.698794 138.025039 
L 65.79459 131.333259 
L 70.010965 126.502313 
L 74.123041 122.418104 
L 78.218562 119.920043 
L 82.434937 116.452862 
L 86.533769 114.234123 
L 90.635084 111.96545 
L 94.861668 108.988854 
L 98.974572 106.623091 
L 103.068713 104.877312 
L 107.288399 103.40586 
L 111.385575 101.354084 
L 115.487994 99.795242 
L 119.728374 98.650592 
L 123.823895 97.675211 
L 127.91914 95.618864 
L 132.137722 94.506785 
L 136.247866 93.424158 
L 140.343111 92.0278 
L 144.579353 90.737745 
L 148.674045 89.36656 
L 152.784742 89.649653 
L 157.002496 87.73559 
L 161.097465 86.2645 
L 165.195469 86.6222 
L 169.303682 85.318288 
L 173.539372 85.404305 
L 177.633513 84.262968 
" clip-path="url(#pab0c74d0cb)" style="fill: none; stroke: #9467bd; stroke-width: 0.7; stroke-linecap: square"/>
    <defs>
     <path id="m263424b3bc" d="M 0 0.9 
C 0.238683 0.9 0.467622 0.80517 0.636396 0.636396 
C 0.80517 0.467622 0.9 0.238683 0.9 0 
C 0.9 -0.238683 0.80517 -0.467622 0.636396 -0.636396 
C 0.467622 -0.80517 0.238683 -0.9 0 -0.9 
C -0.238683 -0.9 -0.467622 -0.80517 -0.636396 -0.636396 
C -0.80517 -0.467622 -0.9 -0.238683 -0.9 0 
C -0.9 0.238683 -0.80517 0.467622 -0.636396 0.636396 
C -0.467622 0.80517 -0.238683 0.9 0 0.9 
z
" style="stroke: #9467bd"/>
    </defs>
    <g clip-path="url(#pab0c74d0cb)">
     <use xlink:href="#m263424b3bc" x="46.965625" y="166.331343" style="fill: #9467bd; stroke: #9467bd"/>
     <use xlink:href="#m263424b3bc" x="49.255783" y="164.002118" style="fill: #9467bd; stroke: #9467bd"/>
     <use xlink:href="#m263424b3bc" x="53.478229" y="152.842634" style="fill: #9467bd; stroke: #9467bd"/>
     <use xlink:href="#m263424b3bc" x="57.579268" y="144.563695" style="fill: #9467bd; stroke: #9467bd"/>
     <use xlink:href="#m263424b3bc" x="61.698794" y="138.025039" style="fill: #9467bd; stroke: #9467bd"/>
     <use xlink:href="#m263424b3bc" x="65.79459" y="131.333259" style="fill: #9467bd; stroke: #9467bd"/>
     <use xlink:href="#m263424b3bc" x="70.010965" y="126.502313" style="fill: #9467bd; stroke: #9467bd"/>
     <use xlink:href="#m263424b3bc" x="74.123041" y="122.418104" style="fill: #9467bd; stroke: #9467bd"/>
     <use xlink:href="#m263424b3bc" x="78.218562" y="119.920043" style="fill: #9467bd; stroke: #9467bd"/>
     <use xlink:href="#m263424b3bc" x="82.434937" y="116.452862" style="fill: #9467bd; stroke: #9467bd"/>
     <use xlink:href="#m263424b3bc" x="86.533769" y="114.234123" style="fill: #9467bd; stroke: #9467bd"/>
     <use xlink:href="#m263424b3bc" x="90.635084" y="111.96545" style="fill: #9467bd; stroke: #9467bd"/>
     <use xlink:href="#m263424b3bc" x="94.861668" y="108.988854" style="fill: #9467bd; stroke: #9467bd"/>
     <use xlink:href="#m263424b3bc" x="98.974572" y="106.623091" style="fill: #9467bd; stroke: #9467bd"/>
     <use xlink:href="#m263424b3bc" x="103.068713" y="104.877312" style="fill: #9467bd; stroke: #9467bd"/>
     <use xlink:href="#m263424b3bc" x="107.288399" y="103.40586" style="fill: #9467bd; stroke: #9467bd"/>
     <use xlink:href="#m263424b3bc" x="111.385575" y="101.354084" style="fill: #9467bd; stroke: #9467bd"/>
     <use xlink:href="#m263424b3bc" x="115.487994" y="99.795242" style="fill: #9467bd; stroke: #9467bd"/>
     <use xlink:href="#m263424b3bc" x="119.728374" y="98.650592" style="fill: #9467bd; stroke: #9467bd"/>
     <use xlink:href="#m263424b3bc" x="123.823895" y="97.675211" style="fill: #9467bd; stroke: #9467bd"/>
     <use xlink:href="#m263424b3bc" x="127.91914" y="95.618864" style="fill: #9467bd; stroke: #9467bd"/>
     <use xlink:href="#m263424b3bc" x="132.137722" y="94.506785" style="fill: #9467bd; stroke: #9467bd"/>
     <use xlink:href="#m263424b3bc" x="136.247866" y="93.424158" style="fill: #9467bd; stroke: #9467bd"/>
     <use xlink:href="#m263424b3bc" x="140.343111" y="92.0278" style="fill: #9467bd; stroke: #9467bd"/>
     <use xlink:href="#m263424b3bc" x="144.579353" y="90.737745" style="fill: #9467bd; stroke: #9467bd"/>
     <use xlink:href="#m263424b3bc" x="148.674045" y="89.36656" style="fill: #9467bd; stroke: #9467bd"/>
     <use xlink:href="#m263424b3bc" x="152.784742" y="89.649653" style="fill: #9467bd; stroke: #9467bd"/>
     <use xlink:href="#m263424b3bc" x="157.002496" y="87.73559" style="fill: #9467bd; stroke: #9467bd"/>
     <use xlink:href="#m263424b3bc" x="161.097465" y="86.2645" style="fill: #9467bd; stroke: #9467bd"/>
     <use xlink:href="#m263424b3bc" x="165.195469" y="86.6222" style="fill: #9467bd; stroke: #9467bd"/>
     <use xlink:href="#m263424b3bc" x="169.303682" y="85.318288" style="fill: #9467bd; stroke: #9467bd"/>
     <use xlink:href="#m263424b3bc" x="173.539372" y="85.404305" style="fill: #9467bd; stroke: #9467bd"/>
     <use xlink:href="#m263424b3bc" x="177.633513" y="84.262968" style="fill: #9467bd; stroke: #9467bd"/>
    </g>
   </g>
   <g id="line2d_17">
    <path d="M 46.965625 166.331343 
L 51.198003 137.175332 
L 55.292696 117.030221 
L 59.389597 100.902019 
L 63.624182 88.495161 
L 67.734603 77.831984 
L 71.829572 68.910976 
L 76.048982 62.336095 
L 80.143123 54.787897 
L 84.251888 49.750114 
L 88.346857 44.407368 
L 92.584202 40.014648 
L 96.678343 37.010906 
L 100.788488 34.360763 
L 105.00569 30.108092 
L 109.100107 27.815165 
" clip-path="url(#pab0c74d0cb)" style="fill: none; stroke: #8c564b; stroke-width: 0.7; stroke-linecap: square"/>
    <defs>
     <path id="m6e1b609593" d="M 0 0.9 
C 0.238683 0.9 0.467622 0.80517 0.636396 0.636396 
C 0.80517 0.467622 0.9 0.238683 0.9 0 
C 0.9 -0.238683 0.80517 -0.467622 0.636396 -0.636396 
C 0.467622 -0.80517 0.238683 -0.9 0 -0.9 
C -0.238683 -0.9 -0.467622 -0.80517 -0.636396 -0.636396 
C -0.80517 -0.467622 -0.9 -0.238683 -0.9 0 
C -0.9 0.238683 -0.80517 0.467622 -0.636396 0.636396 
C -0.467622 0.80517 -0.238683 0.9 0 0.9 
z
" style="stroke: #8c564b"/>
    </defs>
    <g clip-path="url(#pab0c74d0cb)">
     <use xlink:href="#m6e1b609593" x="46.965625" y="166.331343" style="fill: #8c564b; stroke: #8c564b"/>
     <use xlink:href="#m6e1b609593" x="51.198003" y="137.175332" style="fill: #8c564b; stroke: #8c564b"/>
     <use xlink:href="#m6e1b609593" x="55.292696" y="117.030221" style="fill: #8c564b; stroke: #8c564b"/>
     <use xlink:href="#m6e1b609593" x="59.389597" y="100.902019" style="fill: #8c564b; stroke: #8c564b"/>
     <use xlink:href="#m6e1b609593" x="63.624182" y="88.495161" style="fill: #8c564b; stroke: #8c564b"/>
     <use xlink:href="#m6e1b609593" x="67.734603" y="77.831984" style="fill: #8c564b; stroke: #8c564b"/>
     <use xlink:href="#m6e1b609593" x="71.829572" y="68.910976" style="fill: #8c564b; stroke: #8c564b"/>
     <use xlink:href="#m6e1b609593" x="76.048982" y="62.336095" style="fill: #8c564b; stroke: #8c564b"/>
     <use xlink:href="#m6e1b609593" x="80.143123" y="54.787897" style="fill: #8c564b; stroke: #8c564b"/>
     <use xlink:href="#m6e1b609593" x="84.251888" y="49.750114" style="fill: #8c564b; stroke: #8c564b"/>
     <use xlink:href="#m6e1b609593" x="88.346857" y="44.407368" style="fill: #8c564b; stroke: #8c564b"/>
     <use xlink:href="#m6e1b609593" x="92.584202" y="40.014648" style="fill: #8c564b; stroke: #8c564b"/>
     <use xlink:href="#m6e1b609593" x="96.678343" y="37.010906" style="fill: #8c564b; stroke: #8c564b"/>
     <use xlink:href="#m6e1b609593" x="100.788488" y="34.360763" style="fill: #8c564b; stroke: #8c564b"/>
     <use xlink:href="#m6e1b609593" x="105.00569" y="30.108092" style="fill: #8c564b; stroke: #8c564b"/>
     <use xlink:href="#m6e1b609593" x="109.100107" y="27.815165" style="fill: #8c564b; stroke: #8c564b"/>
    </g>
   </g>
   <g id="line2d_18">
    <path d="M 46.965625 166.331343 
L 51.193865 168.14971 
L 55.305665 165.056454 
L 59.402289 163.7419 
L 63.615077 162.07027 
L 67.717496 160.530193 
L 71.840333 159.322904 
L 76.059467 158.519415 
L 80.153608 156.844677 
L 84.247749 156.234963 
L 88.483715 155.024312 
L 92.577856 154.673807 
L 96.689656 151.709139 
L 100.905203 150.352941 
L 105.001551 149.313615 
L 109.103694 148.775657 
L 113.223772 147.439969 
L 117.439595 146.058971 
L 121.533184 144.419136 
L 125.644985 143.841454 
L 129.8586 142.245842 
L 133.962675 141.217776 
L 138.083304 140.352101 
L 142.301611 139.854264 
L 146.395752 138.957143 
L 150.492376 137.278581 
L 154.727238 137.253278 
L 158.822759 135.973571 
L 162.934007 135.866016 
L 167.025941 136.122434 
L 171.247558 134.825777 
" clip-path="url(#pab0c74d0cb)" style="fill: none; stroke: #e377c2; stroke-width: 0.7; stroke-linecap: square"/>
    <defs>
     <path id="mead1dbb299" d="M 0 0.9 
C 0.238683 0.9 0.467622 0.80517 0.636396 0.636396 
C 0.80517 0.467622 0.9 0.238683 0.9 0 
C 0.9 -0.238683 0.80517 -0.467622 0.636396 -0.636396 
C 0.467622 -0.80517 0.238683 -0.9 0 -0.9 
C -0.238683 -0.9 -0.467622 -0.80517 -0.636396 -0.636396 
C -0.80517 -0.467622 -0.9 -0.238683 -0.9 0 
C -0.9 0.238683 -0.80517 0.467622 -0.636396 0.636396 
C -0.467622 0.80517 -0.238683 0.9 0 0.9 
z
" style="stroke: #e377c2"/>
    </defs>
    <g clip-path="url(#pab0c74d0cb)">
     <use xlink:href="#mead1dbb299" x="46.965625" y="166.331343" style="fill: #e377c2; stroke: #e377c2"/>
     <use xlink:href="#mead1dbb299" x="51.193865" y="168.14971" style="fill: #e377c2; stroke: #e377c2"/>
     <use xlink:href="#mead1dbb299" x="55.305665" y="165.056454" style="fill: #e377c2; stroke: #e377c2"/>
     <use xlink:href="#mead1dbb299" x="59.402289" y="163.7419" style="fill: #e377c2; stroke: #e377c2"/>
     <use xlink:href="#mead1dbb299" x="63.615077" y="162.07027" style="fill: #e377c2; stroke: #e377c2"/>
     <use xlink:href="#mead1dbb299" x="67.717496" y="160.530193" style="fill: #e377c2; stroke: #e377c2"/>
     <use xlink:href="#mead1dbb299" x="71.840333" y="159.322904" style="fill: #e377c2; stroke: #e377c2"/>
     <use xlink:href="#mead1dbb299" x="76.059467" y="158.519415" style="fill: #e377c2; stroke: #e377c2"/>
     <use xlink:href="#mead1dbb299" x="80.153608" y="156.844677" style="fill: #e377c2; stroke: #e377c2"/>
     <use xlink:href="#mead1dbb299" x="84.247749" y="156.234963" style="fill: #e377c2; stroke: #e377c2"/>
     <use xlink:href="#mead1dbb299" x="88.483715" y="155.024312" style="fill: #e377c2; stroke: #e377c2"/>
     <use xlink:href="#mead1dbb299" x="92.577856" y="154.673807" style="fill: #e377c2; stroke: #e377c2"/>
     <use xlink:href="#mead1dbb299" x="96.689656" y="151.709139" style="fill: #e377c2; stroke: #e377c2"/>
     <use xlink:href="#mead1dbb299" x="100.905203" y="150.352941" style="fill: #e377c2; stroke: #e377c2"/>
     <use xlink:href="#mead1dbb299" x="105.001551" y="149.313615" style="fill: #e377c2; stroke: #e377c2"/>
     <use xlink:href="#mead1dbb299" x="109.103694" y="148.775657" style="fill: #e377c2; stroke: #e377c2"/>
     <use xlink:href="#mead1dbb299" x="113.223772" y="147.439969" style="fill: #e377c2; stroke: #e377c2"/>
     <use xlink:href="#mead1dbb299" x="117.439595" y="146.058971" style="fill: #e377c2; stroke: #e377c2"/>
     <use xlink:href="#mead1dbb299" x="121.533184" y="144.419136" style="fill: #e377c2; stroke: #e377c2"/>
     <use xlink:href="#mead1dbb299" x="125.644985" y="143.841454" style="fill: #e377c2; stroke: #e377c2"/>
     <use xlink:href="#mead1dbb299" x="129.8586" y="142.245842" style="fill: #e377c2; stroke: #e377c2"/>
     <use xlink:href="#mead1dbb299" x="133.962675" y="141.217776" style="fill: #e377c2; stroke: #e377c2"/>
     <use xlink:href="#mead1dbb299" x="138.083304" y="140.352101" style="fill: #e377c2; stroke: #e377c2"/>
     <use xlink:href="#mead1dbb299" x="142.301611" y="139.854264" style="fill: #e377c2; stroke: #e377c2"/>
     <use xlink:href="#mead1dbb299" x="146.395752" y="138.957143" style="fill: #e377c2; stroke: #e377c2"/>
     <use xlink:href="#mead1dbb299" x="150.492376" y="137.278581" style="fill: #e377c2; stroke: #e377c2"/>
     <use xlink:href="#mead1dbb299" x="154.727238" y="137.253278" style="fill: #e377c2; stroke: #e377c2"/>
     <use xlink:href="#mead1dbb299" x="158.822759" y="135.973571" style="fill: #e377c2; stroke: #e377c2"/>
     <use xlink:href="#mead1dbb299" x="162.934007" y="135.866016" style="fill: #e377c2; stroke: #e377c2"/>
     <use xlink:href="#mead1dbb299" x="167.025941" y="136.122434" style="fill: #e377c2; stroke: #e377c2"/>
     <use xlink:href="#mead1dbb299" x="171.247558" y="134.825777" style="fill: #e377c2; stroke: #e377c2"/>
    </g>
   </g>
   <g id="line2d_19">
    <path d="M 46.965625 166.331343 
L 51.083495 139.512499 
L 55.302078 122.01775 
L 59.397047 109.649622 
L 63.49643 100.753982 
L 67.726325 94.159973 
L 71.835642 89.600499 
L 75.930335 84.754872 
L 80.148366 81.8297 
L 84.250784 78.297122 
L 88.353203 75.986609 
L 92.45507 74.257199 
L 96.681378 72.069056 
L 100.792351 71.149047 
L 104.885112 70.010858 
L 109.107005 69.124291 
L 113.209424 67.897017 
L 117.327019 67.302749 
L 121.544221 67.180969 
L 125.638638 66.066163 
L 129.740229 65.706345 
L 133.9704 65.231443 
L 138.079717 64.610647 
L 142.173582 64.246669 
L 146.286762 65.063812 
L 150.498446 64.299477 
L 154.616869 64.762387 
L 158.711286 63.951687 
L 162.927661 63.889714 
L 167.030355 63.063282 
L 171.133878 62.980488 
L 175.36598 62.917446 
L 179.477229 63.435825 
L 183.570818 63.177025 
" clip-path="url(#pab0c74d0cb)" style="fill: none; stroke: #7f7f7f; stroke-width: 0.7; stroke-linecap: square"/>
    <defs>
     <path id="med21fcf269" d="M 0 0.9 
C 0.238683 0.9 0.467622 0.80517 0.636396 0.636396 
C 0.80517 0.467622 0.9 0.238683 0.9 0 
C 0.9 -0.238683 0.80517 -0.467622 0.636396 -0.636396 
C 0.467622 -0.80517 0.238683 -0.9 0 -0.9 
C -0.238683 -0.9 -0.467622 -0.80517 -0.636396 -0.636396 
C -0.80517 -0.467622 -0.9 -0.238683 -0.9 0 
C -0.9 0.238683 -0.80517 0.467622 -0.636396 0.636396 
C -0.467622 0.80517 -0.238683 0.9 0 0.9 
z
" style="stroke: #7f7f7f"/>
    </defs>
    <g clip-path="url(#pab0c74d0cb)">
     <use xlink:href="#med21fcf269" x="46.965625" y="166.331343" style="fill: #7f7f7f; stroke: #7f7f7f"/>
     <use xlink:href="#med21fcf269" x="51.083495" y="139.512499" style="fill: #7f7f7f; stroke: #7f7f7f"/>
     <use xlink:href="#med21fcf269" x="55.302078" y="122.01775" style="fill: #7f7f7f; stroke: #7f7f7f"/>
     <use xlink:href="#med21fcf269" x="59.397047" y="109.649622" style="fill: #7f7f7f; stroke: #7f7f7f"/>
     <use xlink:href="#med21fcf269" x="63.49643" y="100.753982" style="fill: #7f7f7f; stroke: #7f7f7f"/>
     <use xlink:href="#med21fcf269" x="67.726325" y="94.159973" style="fill: #7f7f7f; stroke: #7f7f7f"/>
     <use xlink:href="#med21fcf269" x="71.835642" y="89.600499" style="fill: #7f7f7f; stroke: #7f7f7f"/>
     <use xlink:href="#med21fcf269" x="75.930335" y="84.754872" style="fill: #7f7f7f; stroke: #7f7f7f"/>
     <use xlink:href="#med21fcf269" x="80.148366" y="81.8297" style="fill: #7f7f7f; stroke: #7f7f7f"/>
     <use xlink:href="#med21fcf269" x="84.250784" y="78.297122" style="fill: #7f7f7f; stroke: #7f7f7f"/>
     <use xlink:href="#med21fcf269" x="88.353203" y="75.986609" style="fill: #7f7f7f; stroke: #7f7f7f"/>
     <use xlink:href="#med21fcf269" x="92.45507" y="74.257199" style="fill: #7f7f7f; stroke: #7f7f7f"/>
     <use xlink:href="#med21fcf269" x="96.681378" y="72.069056" style="fill: #7f7f7f; stroke: #7f7f7f"/>
     <use xlink:href="#med21fcf269" x="100.792351" y="71.149047" style="fill: #7f7f7f; stroke: #7f7f7f"/>
     <use xlink:href="#med21fcf269" x="104.885112" y="70.010858" style="fill: #7f7f7f; stroke: #7f7f7f"/>
     <use xlink:href="#med21fcf269" x="109.107005" y="69.124291" style="fill: #7f7f7f; stroke: #7f7f7f"/>
     <use xlink:href="#med21fcf269" x="113.209424" y="67.897017" style="fill: #7f7f7f; stroke: #7f7f7f"/>
     <use xlink:href="#med21fcf269" x="117.327019" y="67.302749" style="fill: #7f7f7f; stroke: #7f7f7f"/>
     <use xlink:href="#med21fcf269" x="121.544221" y="67.180969" style="fill: #7f7f7f; stroke: #7f7f7f"/>
     <use xlink:href="#med21fcf269" x="125.638638" y="66.066163" style="fill: #7f7f7f; stroke: #7f7f7f"/>
     <use xlink:href="#med21fcf269" x="129.740229" y="65.706345" style="fill: #7f7f7f; stroke: #7f7f7f"/>
     <use xlink:href="#med21fcf269" x="133.9704" y="65.231443" style="fill: #7f7f7f; stroke: #7f7f7f"/>
     <use xlink:href="#med21fcf269" x="138.079717" y="64.610647" style="fill: #7f7f7f; stroke: #7f7f7f"/>
     <use xlink:href="#med21fcf269" x="142.173582" y="64.246669" style="fill: #7f7f7f; stroke: #7f7f7f"/>
     <use xlink:href="#med21fcf269" x="146.286762" y="65.063812" style="fill: #7f7f7f; stroke: #7f7f7f"/>
     <use xlink:href="#med21fcf269" x="150.498446" y="64.299477" style="fill: #7f7f7f; stroke: #7f7f7f"/>
     <use xlink:href="#med21fcf269" x="154.616869" y="64.762387" style="fill: #7f7f7f; stroke: #7f7f7f"/>
     <use xlink:href="#med21fcf269" x="158.711286" y="63.951687" style="fill: #7f7f7f; stroke: #7f7f7f"/>
     <use xlink:href="#med21fcf269" x="162.927661" y="63.889714" style="fill: #7f7f7f; stroke: #7f7f7f"/>
     <use xlink:href="#med21fcf269" x="167.030355" y="63.063282" style="fill: #7f7f7f; stroke: #7f7f7f"/>
     <use xlink:href="#med21fcf269" x="171.133878" y="62.980488" style="fill: #7f7f7f; stroke: #7f7f7f"/>
     <use xlink:href="#med21fcf269" x="175.36598" y="62.917446" style="fill: #7f7f7f; stroke: #7f7f7f"/>
     <use xlink:href="#med21fcf269" x="179.477229" y="63.435825" style="fill: #7f7f7f; stroke: #7f7f7f"/>
     <use xlink:href="#med21fcf269" x="183.570818" y="63.177025" style="fill: #7f7f7f; stroke: #7f7f7f"/>
    </g>
   </g>
   <g id="patch_3">
    <path d="M 46.965625 175.166437 
L 46.965625 20.798438 
" style="fill: none; stroke: #000000; stroke-width: 0.8; stroke-linejoin: miter; stroke-linecap: square"/>
   </g>
   <g id="patch_4">
    <path d="M 226.461512 175.166437 
L 226.461512 20.798438 
" style="fill: none; stroke: #000000; stroke-width: 0.8; stroke-linejoin: miter; stroke-linecap: square"/>
   </g>
   <g id="patch_5">
    <path d="M 46.965625 175.166437 
L 226.461512 175.166437 
" style="fill: none; stroke: #000000; stroke-width: 0.8; stroke-linejoin: miter; stroke-linecap: square"/>
   </g>
   <g id="patch_6">
    <path d="M 46.965625 20.798438 
L 226.461512 20.798438 
" style="fill: none; stroke: #000000; stroke-width: 0.8; stroke-linejoin: miter; stroke-linecap: square"/>
   </g>
   <g id="text_15">
    <!-- VTNA overlay plot for Product -->
    <g transform="translate(62.719037 14.798438) scale(0.1 -0.1)">
     <defs>
      <path id="DejaVuSans-56" d="M 1831 0 
L 50 4666 
L 709 4666 
L 2188 738 
L 3669 4666 
L 4325 4666 
L 2547 0 
L 1831 0 
z
" transform="scale(0.015625)"/>
      <path id="DejaVuSans-54" d="M -19 4666 
L 3928 4666 
L 3928 4134 
L 2272 4134 
L 2272 0 
L 1638 0 
L 1638 4134 
L -19 4134 
L -19 4666 
z
" transform="scale(0.015625)"/>
      <path id="DejaVuSans-4e" d="M 628 4666 
L 1478 4666 
L 3547 763 
L 3547 4666 
L 4159 4666 
L 4159 0 
L 3309 0 
L 1241 3903 
L 1241 0 
L 628 0 
L 628 4666 
z
" transform="scale(0.015625)"/>
      <path id="DejaVuSans-41" d="M 2188 4044 
L 1331 1722 
L 3047 1722 
L 2188 4044 
z
M 1831 4666 
L 2547 4666 
L 4325 0 
L 3669 0 
L 3244 1197 
L 1141 1197 
L 716 0 
L 50 0 
L 1831 4666 
z
" transform="scale(0.015625)"/>
      <path id="DejaVuSans-76" d="M 191 3500 
L 800 3500 
L 1894 563 
L 2988 3500 
L 3597 3500 
L 2284 0 
L 1503 0 
L 191 3500 
z
" transform="scale(0.015625)"/>
      <path id="DejaVuSans-6c" d="M 603 4863 
L 1178 4863 
L 1178 0 
L 603 0 
L 603 4863 
z
" transform="scale(0.015625)"/>
      <path id="DejaVuSans-61" d="M 2194 1759 
Q 1497 1759 1228 1600 
Q 959 1441 959 1056 
Q 959 750 1161 570 
Q 1363 391 1709 391 
Q 2188 391 2477 730 
Q 2766 1069 2766 1631 
L 2766 1759 
L 2194 1759 
z
M 3341 1997 
L 3341 0 
L 2766 0 
L 2766 531 
Q 2569 213 2275 61 
Q 1981 -91 1556 -91 
Q 1019 -91 701 211 
Q 384 513 384 1019 
Q 384 1609 779 1909 
Q 1175 2209 1959 2209 
L 2766 2209 
L 2766 2266 
Q 2766 2663 2505 2880 
Q 2244 3097 1772 3097 
Q 1472 3097 1187 3025 
Q 903 2953 641 2809 
L 641 3341 
Q 956 3463 1253 3523 
Q 1550 3584 1831 3584 
Q 2591 3584 2966 3190 
Q 3341 2797 3341 1997 
z
" transform="scale(0.015625)"/>
      <path id="DejaVuSans-79" d="M 2059 -325 
Q 1816 -950 1584 -1140 
Q 1353 -1331 966 -1331 
L 506 -1331 
L 506 -850 
L 844 -850 
Q 1081 -850 1212 -737 
Q 1344 -625 1503 -206 
L 1606 56 
L 191 3500 
L 800 3500 
L 1894 763 
L 2988 3500 
L 3597 3500 
L 2059 -325 
z
" transform="scale(0.015625)"/>
      <path id="DejaVuSans-70" d="M 1159 525 
L 1159 -1331 
L 581 -1331 
L 581 3500 
L 1159 3500 
L 1159 2969 
Q 1341 3281 1617 3432 
Q 1894 3584 2278 3584 
Q 2916 3584 3314 3078 
Q 3713 2572 3713 1747 
Q 3713 922 3314 415 
Q 2916 -91 2278 -91 
Q 1894 -91 1617 61 
Q 1341 213 1159 525 
z
M 3116 1747 
Q 3116 2381 2855 2742 
Q 2594 3103 2138 3103 
Q 1681 3103 1420 2742 
Q 1159 2381 1159 1747 
Q 1159 1113 1420 752 
Q 1681 391 2138 391 
Q 2594 391 2855 752 
Q 3116 1113 3116 1747 
z
" transform="scale(0.015625)"/>
     </defs>
     <use xlink:href="#DejaVuSans-56"/>
     <use xlink:href="#DejaVuSans-54" transform="translate(68.408203 0)"/>
     <use xlink:href="#DejaVuSans-4e" transform="translate(129.492188 0)"/>
     <use xlink:href="#DejaVuSans-41" transform="translate(204.296875 0)"/>
     <use xlink:href="#DejaVuSans-20" transform="translate(272.705078 0)"/>
     <use xlink:href="#DejaVuSans-6f" transform="translate(304.492188 0)"/>
     <use xlink:href="#DejaVuSans-76" transform="translate(365.673828 0)"/>
     <use xlink:href="#DejaVuSans-65" transform="translate(424.853516 0)"/>
     <use xlink:href="#DejaVuSans-72" transform="translate(486.376953 0)"/>
     <use xlink:href="#DejaVuSans-6c" transform="translate(527.490234 0)"/>
     <use xlink:href="#DejaVuSans-61" transform="translate(555.273438 0)"/>
     <use xlink:href="#DejaVuSans-79" transform="translate(616.552734 0)"/>
     <use xlink:href="#DejaVuSans-20" transform="translate(675.732422 0)"/>
     <use xlink:href="#DejaVuSans-70" transform="translate(707.519531 0)"/>
     <use xlink:href="#DejaVuSans-6c" transform="translate(770.996094 0)"/>
     <use xlink:href="#DejaVuSans-6f" transform="translate(798.779297 0)"/>
     <use xlink:href="#DejaVuSans-74" transform="translate(859.960938 0)"/>
     <use xlink:href="#DejaVuSans-20" transform="translate(899.169922 0)"/>
     <use xlink:href="#DejaVuSans-66" transform="translate(930.957031 0)"/>
     <use xlink:href="#DejaVuSans-6f" transform="translate(966.162109 0)"/>
     <use xlink:href="#DejaVuSans-72" transform="translate(1027.34375 0)"/>
     <use xlink:href="#DejaVuSans-20" transform="translate(1068.457031 0)"/>
     <use xlink:href="#DejaVuSans-50" transform="translate(1100.244141 0)"/>
     <use xlink:href="#DejaVuSans-72" transform="translate(1158.796875 0)"/>
     <use xlink:href="#DejaVuSans-6f" transform="translate(1197.660156 0)"/>
     <use xlink:href="#DejaVuSans-64" transform="translate(1258.841797 0)"/>
     <use xlink:href="#DejaVuSans-75" transform="translate(1322.318359 0)"/>
     <use xlink:href="#DejaVuSans-63" transform="translate(1385.697266 0)"/>
     <use xlink:href="#DejaVuSans-74" transform="translate(1440.677734 0)"/>
    </g>
   </g>
   <g id="legend_1">
    <g id="patch_7">
     <path d="M 233.461512 159.307437 
L 356.850575 159.307437 
Q 358.850575 159.307437 358.850575 157.307437 
L 358.850575 38.657438 
Q 358.850575 36.657438 356.850575 36.657438 
L 233.461512 36.657438 
Q 231.461512 36.657438 231.461512 38.657438 
L 231.461512 157.307437 
Q 231.461512 159.307437 233.461512 159.307437 
z
" style="fill: #ffffff; opacity: 0.8; stroke: #cccccc; stroke-linejoin: miter"/>
    </g>
    <g id="line2d_20">
     <path d="M 235.461512 44.755875 
L 245.461512 44.755875 
L 255.461512 44.755875 
" style="fill: none; stroke: #1f77b4; stroke-width: 0.7; stroke-linecap: square"/>
     <g>
      <use xlink:href="#m0cbbe7a403" x="245.461512" y="44.755875" style="fill: #1f77b4; stroke: #1f77b4"/>
     </g>
    </g>
    <g id="text_16">
     <!-- C2_E7a Addition 1 -->
     <g transform="translate(263.461513 48.255875) scale(0.1 -0.1)">
      <defs>
       <path id="DejaVuSans-43" d="M 4122 4306 
L 4122 3641 
Q 3803 3938 3442 4084 
Q 3081 4231 2675 4231 
Q 1875 4231 1450 3742 
Q 1025 3253 1025 2328 
Q 1025 1406 1450 917 
Q 1875 428 2675 428 
Q 3081 428 3442 575 
Q 3803 722 4122 1019 
L 4122 359 
Q 3791 134 3420 21 
Q 3050 -91 2638 -91 
Q 1578 -91 968 557 
Q 359 1206 359 2328 
Q 359 3453 968 4101 
Q 1578 4750 2638 4750 
Q 3056 4750 3426 4639 
Q 3797 4528 4122 4306 
z
" transform="scale(0.015625)"/>
       <path id="DejaVuSans-5f" d="M 3263 -1063 
L 3263 -1509 
L -63 -1509 
L -63 -1063 
L 3263 -1063 
z
" transform="scale(0.015625)"/>
       <path id="DejaVuSans-45" d="M 628 4666 
L 3578 4666 
L 3578 4134 
L 1259 4134 
L 1259 2753 
L 3481 2753 
L 3481 2222 
L 1259 2222 
L 1259 531 
L 3634 531 
L 3634 0 
L 628 0 
L 628 4666 
z
" transform="scale(0.015625)"/>
       <path id="DejaVuSans-6e" d="M 3513 2113 
L 3513 0 
L 2938 0 
L 2938 2094 
Q 2938 2591 2744 2837 
Q 2550 3084 2163 3084 
Q 1697 3084 1428 2787 
Q 1159 2491 1159 1978 
L 1159 0 
L 581 0 
L 581 3500 
L 1159 3500 
L 1159 2956 
Q 1366 3272 1645 3428 
Q 1925 3584 2291 3584 
Q 2894 3584 3203 3211 
Q 3513 2838 3513 2113 
z
" transform="scale(0.015625)"/>
      </defs>
      <use xlink:href="#DejaVuSans-43"/>
      <use xlink:href="#DejaVuSans-32" transform="translate(69.824219 0)"/>
      <use xlink:href="#DejaVuSans-5f" transform="translate(133.447266 0)"/>
      <use xlink:href="#DejaVuSans-45" transform="translate(183.447266 0)"/>
      <use xlink:href="#DejaVuSans-37" transform="translate(246.630859 0)"/>
      <use xlink:href="#DejaVuSans-61" transform="translate(310.253906 0)"/>
      <use xlink:href="#DejaVuSans-20" transform="translate(371.533203 0)"/>
      <use xlink:href="#DejaVuSans-41" transform="translate(403.320312 0)"/>
      <use xlink:href="#DejaVuSans-64" transform="translate(469.978516 0)"/>
      <use xlink:href="#DejaVuSans-64" transform="translate(533.455078 0)"/>
      <use xlink:href="#DejaVuSans-69" transform="translate(596.931641 0)"/>
      <use xlink:href="#DejaVuSans-74" transform="translate(624.714844 0)"/>
      <use xlink:href="#DejaVuSans-69" transform="translate(663.923828 0)"/>
      <use xlink:href="#DejaVuSans-6f" transform="translate(691.707031 0)"/>
      <use xlink:href="#DejaVuSans-6e" transform="translate(752.888672 0)"/>
      <use xlink:href="#DejaVuSans-20" transform="translate(816.267578 0)"/>
      <use xlink:href="#DejaVuSans-31" transform="translate(848.054688 0)"/>
     </g>
    </g>
    <g id="line2d_21">
     <path d="M 235.461512 59.712125 
L 245.461512 59.712125 
L 255.461512 59.712125 
" style="fill: none; stroke: #ff7f0e; stroke-width: 0.7; stroke-linecap: square"/>
     <g>
      <use xlink:href="#mc542933661" x="245.461512" y="59.712125" style="fill: #ff7f0e; stroke: #ff7f0e"/>
     </g>
    </g>
    <g id="text_17">
     <!-- C2_E7a Addition 2 -->
     <g transform="translate(263.461513 63.212125) scale(0.1 -0.1)">
      <use xlink:href="#DejaVuSans-43"/>
      <use xlink:href="#DejaVuSans-32" transform="translate(69.824219 0)"/>
      <use xlink:href="#DejaVuSans-5f" transform="translate(133.447266 0)"/>
      <use xlink:href="#DejaVuSans-45" transform="translate(183.447266 0)"/>
      <use xlink:href="#DejaVuSans-37" transform="translate(246.630859 0)"/>
      <use xlink:href="#DejaVuSans-61" transform="translate(310.253906 0)"/>
      <use xlink:href="#DejaVuSans-20" transform="translate(371.533203 0)"/>
      <use xlink:href="#DejaVuSans-41" transform="translate(403.320312 0)"/>
      <use xlink:href="#DejaVuSans-64" transform="translate(469.978516 0)"/>
      <use xlink:href="#DejaVuSans-64" transform="translate(533.455078 0)"/>
      <use xlink:href="#DejaVuSans-69" transform="translate(596.931641 0)"/>
      <use xlink:href="#DejaVuSans-74" transform="translate(624.714844 0)"/>
      <use xlink:href="#DejaVuSans-69" transform="translate(663.923828 0)"/>
      <use xlink:href="#DejaVuSans-6f" transform="translate(691.707031 0)"/>
      <use xlink:href="#DejaVuSans-6e" transform="translate(752.888672 0)"/>
      <use xlink:href="#DejaVuSans-20" transform="translate(816.267578 0)"/>
      <use xlink:href="#DejaVuSans-32" transform="translate(848.054688 0)"/>
     </g>
    </g>
    <g id="line2d_22">
     <path d="M 235.461512 74.668375 
L 245.461512 74.668375 
L 255.461512 74.668375 
" style="fill: none; stroke: #2ca02c; stroke-width: 0.7; stroke-linecap: square"/>
     <g>
      <use xlink:href="#m39e4104d93" x="245.461512" y="74.668375" style="fill: #2ca02c; stroke: #2ca02c"/>
     </g>
    </g>
    <g id="text_18">
     <!-- C2_E7a Addition 3 -->
     <g transform="translate(263.461513 78.168375) scale(0.1 -0.1)">
      <use xlink:href="#DejaVuSans-43"/>
      <use xlink:href="#DejaVuSans-32" transform="translate(69.824219 0)"/>
      <use xlink:href="#DejaVuSans-5f" transform="translate(133.447266 0)"/>
      <use xlink:href="#DejaVuSans-45" transform="translate(183.447266 0)"/>
      <use xlink:href="#DejaVuSans-37" transform="translate(246.630859 0)"/>
      <use xlink:href="#DejaVuSans-61" transform="translate(310.253906 0)"/>
      <use xlink:href="#DejaVuSans-20" transform="translate(371.533203 0)"/>
      <use xlink:href="#DejaVuSans-41" transform="translate(403.320312 0)"/>
      <use xlink:href="#DejaVuSans-64" transform="translate(469.978516 0)"/>
      <use xlink:href="#DejaVuSans-64" transform="translate(533.455078 0)"/>
      <use xlink:href="#DejaVuSans-69" transform="translate(596.931641 0)"/>
      <use xlink:href="#DejaVuSans-74" transform="translate(624.714844 0)"/>
      <use xlink:href="#DejaVuSans-69" transform="translate(663.923828 0)"/>
      <use xlink:href="#DejaVuSans-6f" transform="translate(691.707031 0)"/>
      <use xlink:href="#DejaVuSans-6e" transform="translate(752.888672 0)"/>
      <use xlink:href="#DejaVuSans-20" transform="translate(816.267578 0)"/>
      <use xlink:href="#DejaVuSans-33" transform="translate(848.054688 0)"/>
     </g>
    </g>
    <g id="line2d_23">
     <path d="M 235.461512 89.624625 
L 245.461512 89.624625 
L 255.461512 89.624625 
" style="fill: none; stroke: #d62728; stroke-width: 0.7; stroke-linecap: square"/>
     <g>
      <use xlink:href="#m71a530eff4" x="245.461512" y="89.624625" style="fill: #d62728; stroke: #d62728"/>
     </g>
    </g>
    <g id="text_19">
     <!-- C2_E7a Addition 4 -->
     <g transform="translate(263.461513 93.124625) scale(0.1 -0.1)">
      <use xlink:href="#DejaVuSans-43"/>
      <use xlink:href="#DejaVuSans-32" transform="translate(69.824219 0)"/>
      <use xlink:href="#DejaVuSans-5f" transform="translate(133.447266 0)"/>
      <use xlink:href="#DejaVuSans-45" transform="translate(183.447266 0)"/>
      <use xlink:href="#DejaVuSans-37" transform="translate(246.630859 0)"/>
      <use xlink:href="#DejaVuSans-61" transform="translate(310.253906 0)"/>
      <use xlink:href="#DejaVuSans-20" transform="translate(371.533203 0)"/>
      <use xlink:href="#DejaVuSans-41" transform="translate(403.320312 0)"/>
      <use xlink:href="#DejaVuSans-64" transform="translate(469.978516 0)"/>
      <use xlink:href="#DejaVuSans-64" transform="translate(533.455078 0)"/>
      <use xlink:href="#DejaVuSans-69" transform="translate(596.931641 0)"/>
      <use xlink:href="#DejaVuSans-74" transform="translate(624.714844 0)"/>
      <use xlink:href="#DejaVuSans-69" transform="translate(663.923828 0)"/>
      <use xlink:href="#DejaVuSans-6f" transform="translate(691.707031 0)"/>
      <use xlink:href="#DejaVuSans-6e" transform="translate(752.888672 0)"/>
      <use xlink:href="#DejaVuSans-20" transform="translate(816.267578 0)"/>
      <use xlink:href="#DejaVuSans-34" transform="translate(848.054688 0)"/>
     </g>
    </g>
    <g id="line2d_24">
     <path d="M 235.461512 104.580875 
L 245.461512 104.580875 
L 255.461512 104.580875 
" style="fill: none; stroke: #9467bd; stroke-width: 0.7; stroke-linecap: square"/>
     <g>
      <use xlink:href="#m263424b3bc" x="245.461512" y="104.580875" style="fill: #9467bd; stroke: #9467bd"/>
     </g>
    </g>
    <g id="text_20">
     <!-- C2_E7b Addition 1 -->
     <g transform="translate(263.461513 108.080875) scale(0.1 -0.1)">
      <defs>
       <path id="DejaVuSans-62" d="M 3116 1747 
Q 3116 2381 2855 2742 
Q 2594 3103 2138 3103 
Q 1681 3103 1420 2742 
Q 1159 2381 1159 1747 
Q 1159 1113 1420 752 
Q 1681 391 2138 391 
Q 2594 391 2855 752 
Q 3116 1113 3116 1747 
z
M 1159 2969 
Q 1341 3281 1617 3432 
Q 1894 3584 2278 3584 
Q 2916 3584 3314 3078 
Q 3713 2572 3713 1747 
Q 3713 922 3314 415 
Q 2916 -91 2278 -91 
Q 1894 -91 1617 61 
Q 1341 213 1159 525 
L 1159 0 
L 581 0 
L 581 4863 
L 1159 4863 
L 1159 2969 
z
" transform="scale(0.015625)"/>
      </defs>
      <use xlink:href="#DejaVuSans-43"/>
      <use xlink:href="#DejaVuSans-32" transform="translate(69.824219 0)"/>
      <use xlink:href="#DejaVuSans-5f" transform="translate(133.447266 0)"/>
      <use xlink:href="#DejaVuSans-45" transform="translate(183.447266 0)"/>
      <use xlink:href="#DejaVuSans-37" transform="translate(246.630859 0)"/>
      <use xlink:href="#DejaVuSans-62" transform="translate(310.253906 0)"/>
      <use xlink:href="#DejaVuSans-20" transform="translate(373.730469 0)"/>
      <use xlink:href="#DejaVuSans-41" transform="translate(405.517578 0)"/>
      <use xlink:href="#DejaVuSans-64" transform="translate(472.175781 0)"/>
      <use xlink:href="#DejaVuSans-64" transform="translate(535.652344 0)"/>
      <use xlink:href="#DejaVuSans-69" transform="translate(599.128906 0)"/>
      <use xlink:href="#DejaVuSans-74" transform="translate(626.912109 0)"/>
      <use xlink:href="#DejaVuSans-69" transform="translate(666.121094 0)"/>
      <use xlink:href="#DejaVuSans-6f" transform="translate(693.904297 0)"/>
      <use xlink:href="#DejaVuSans-6e" transform="translate(755.085938 0)"/>
      <use xlink:href="#DejaVuSans-20" transform="translate(818.464844 0)"/>
      <use xlink:href="#DejaVuSans-31" transform="translate(850.251953 0)"/>
     </g>
    </g>
    <g id="line2d_25">
     <path d="M 235.461512 119.537125 
L 245.461512 119.537125 
L 255.461512 119.537125 
" style="fill: none; stroke: #8c564b; stroke-width: 0.7; stroke-linecap: square"/>
     <g>
      <use xlink:href="#m6e1b609593" x="245.461512" y="119.537125" style="fill: #8c564b; stroke: #8c564b"/>
     </g>
    </g>
    <g id="text_21">
     <!-- C2_E7b Addition 2 -->
     <g transform="translate(263.461513 123.037125) scale(0.1 -0.1)">
      <use xlink:href="#DejaVuSans-43"/>
      <use xlink:href="#DejaVuSans-32" transform="translate(69.824219 0)"/>
      <use xlink:href="#DejaVuSans-5f" transform="translate(133.447266 0)"/>
      <use xlink:href="#DejaVuSans-45" transform="translate(183.447266 0)"/>
      <use xlink:href="#DejaVuSans-37" transform="translate(246.630859 0)"/>
      <use xlink:href="#DejaVuSans-62" transform="translate(310.253906 0)"/>
      <use xlink:href="#DejaVuSans-20" transform="translate(373.730469 0)"/>
      <use xlink:href="#DejaVuSans-41" transform="translate(405.517578 0)"/>
      <use xlink:href="#DejaVuSans-64" transform="translate(472.175781 0)"/>
      <use xlink:href="#DejaVuSans-64" transform="translate(535.652344 0)"/>
      <use xlink:href="#DejaVuSans-69" transform="translate(599.128906 0)"/>
      <use xlink:href="#DejaVuSans-74" transform="translate(626.912109 0)"/>
      <use xlink:href="#DejaVuSans-69" transform="translate(666.121094 0)"/>
      <use xlink:href="#DejaVuSans-6f" transform="translate(693.904297 0)"/>
      <use xlink:href="#DejaVuSans-6e" transform="translate(755.085938 0)"/>
      <use xlink:href="#DejaVuSans-20" transform="translate(818.464844 0)"/>
      <use xlink:href="#DejaVuSans-32" transform="translate(850.251953 0)"/>
     </g>
    </g>
    <g id="line2d_26">
     <path d="M 235.461512 134.493375 
L 245.461512 134.493375 
L 255.461512 134.493375 
" style="fill: none; stroke: #e377c2; stroke-width: 0.7; stroke-linecap: square"/>
     <g>
      <use xlink:href="#mead1dbb299" x="245.461512" y="134.493375" style="fill: #e377c2; stroke: #e377c2"/>
     </g>
    </g>
    <g id="text_22">
     <!-- C2_E7b Addition 3 -->
     <g transform="translate(263.461513 137.993375) scale(0.1 -0.1)">
      <use xlink:href="#DejaVuSans-43"/>
      <use xlink:href="#DejaVuSans-32" transform="translate(69.824219 0)"/>
      <use xlink:href="#DejaVuSans-5f" transform="translate(133.447266 0)"/>
      <use xlink:href="#DejaVuSans-45" transform="translate(183.447266 0)"/>
      <use xlink:href="#DejaVuSans-37" transform="translate(246.630859 0)"/>
      <use xlink:href="#DejaVuSans-62" transform="translate(310.253906 0)"/>
      <use xlink:href="#DejaVuSans-20" transform="translate(373.730469 0)"/>
      <use xlink:href="#DejaVuSans-41" transform="translate(405.517578 0)"/>
      <use xlink:href="#DejaVuSans-64" transform="translate(472.175781 0)"/>
      <use xlink:href="#DejaVuSans-64" transform="translate(535.652344 0)"/>
      <use xlink:href="#DejaVuSans-69" transform="translate(599.128906 0)"/>
      <use xlink:href="#DejaVuSans-74" transform="translate(626.912109 0)"/>
      <use xlink:href="#DejaVuSans-69" transform="translate(666.121094 0)"/>
      <use xlink:href="#DejaVuSans-6f" transform="translate(693.904297 0)"/>
      <use xlink:href="#DejaVuSans-6e" transform="translate(755.085938 0)"/>
      <use xlink:href="#DejaVuSans-20" transform="translate(818.464844 0)"/>
      <use xlink:href="#DejaVuSans-33" transform="translate(850.251953 0)"/>
     </g>
    </g>
    <g id="line2d_27">
     <path d="M 235.461512 149.449625 
L 245.461512 149.449625 
L 255.461512 149.449625 
" style="fill: none; stroke: #7f7f7f; stroke-width: 0.7; stroke-linecap: square"/>
     <g>
      <use xlink:href="#med21fcf269" x="245.461512" y="149.449625" style="fill: #7f7f7f; stroke: #7f7f7f"/>
     </g>
    </g>
    <g id="text_23">
     <!-- C2_E7b Addition 4 -->
     <g transform="translate(263.461513 152.949625) scale(0.1 -0.1)">
      <use xlink:href="#DejaVuSans-43"/>
      <use xlink:href="#DejaVuSans-32" transform="translate(69.824219 0)"/>
      <use xlink:href="#DejaVuSans-5f" transform="translate(133.447266 0)"/>
      <use xlink:href="#DejaVuSans-45" transform="translate(183.447266 0)"/>
      <use xlink:href="#DejaVuSans-37" transform="translate(246.630859 0)"/>
      <use xlink:href="#DejaVuSans-62" transform="translate(310.253906 0)"/>
      <use xlink:href="#DejaVuSans-20" transform="translate(373.730469 0)"/>
      <use xlink:href="#DejaVuSans-41" transform="translate(405.517578 0)"/>
      <use xlink:href="#DejaVuSans-64" transform="translate(472.175781 0)"/>
      <use xlink:href="#DejaVuSans-64" transform="translate(535.652344 0)"/>
      <use xlink:href="#DejaVuSans-69" transform="translate(599.128906 0)"/>
      <use xlink:href="#DejaVuSans-74" transform="translate(626.912109 0)"/>
      <use xlink:href="#DejaVuSans-69" transform="translate(666.121094 0)"/>
      <use xlink:href="#DejaVuSans-6f" transform="translate(693.904297 0)"/>
      <use xlink:href="#DejaVuSans-6e" transform="translate(755.085938 0)"/>
      <use xlink:href="#DejaVuSans-20" transform="translate(818.464844 0)"/>
      <use xlink:href="#DejaVuSans-34" transform="translate(850.251953 0)"/>
     </g>
    </g>
   </g>
  </g>
 </g>
 <defs>
  <clipPath id="pab0c74d0cb">
   <rect x="46.965625" y="20.798438" width="179.495887" height="154.368"/>
  </clipPath>
 </defs>
</svg>
