<?xml version="1.0" encoding="utf-8" standalone="no"?>
<!DOCTYPE svg PUBLIC "-//W3C//DTD SVG 1.1//EN"
  "http://www.w3.org/Graphics/SVG/1.1/DTD/svg11.dtd">
<svg xmlns:xlink="http://www.w3.org/1999/xlink" width="366.050575pt" height="201.280692pt" viewBox="0 0 366.050575 201.280692" xmlns="http://www.w3.org/2000/svg" version="1.1">
 <metadata>
  <rdf:RDF xmlns:dc="http://purl.org/dc/elements/1.1/" xmlns:cc="http://creativecommons.org/ns#" xmlns:rdf="http://www.w3.org/1999/02/22-rdf-syntax-ns#">
   <cc:Work>
    <dc:type rdf:resource="http://purl.org/dc/dcmitype/StillImage"/>
    <dc:date>2026-01-13T22:55:11.433660</dc:date>
    <dc:format>image/svg+xml</dc:format>
    <dc:creator>
     <cc:Agent>
      <dc:title>Matplotlib v3.10.0, https://matplotlib.org/</dc:title>
     </cc:Agent>
    </dc:creator>
   </cc:Work>
  </rdf:RDF>
 </metadata>
 <defs>
  <style type="text/css">*{stroke-linejoin: round; stroke-linecap: butt}</style>
 </defs>
 <g id="figure_1">
  <g id="patch_1">
   <path d="M 0 201.280692 
L 366.050575 201.280692 
L 366.050575 0 
L 0 0 
z
" style="fill: #ffffff"/>
  </g>
  <g id="axes_1">
   <g id="patch_2">
    <path d="M 46.965625 162.902567 
L 226.461512 162.902567 
L 226.461512 8.534567 
L 46.965625 8.534567 
z
" style="fill: #ffffff"/>
   </g>
   <g id="matplotlib.axis_1">
    <g id="xtick_1">
     <g id="line2d_1">
      <defs>
       <path id="m33c23804f6" d="M 0 0 
L 0 3.5 
" style="stroke: #000000; stroke-width: 0.8"/>
      </defs>
      <g>
       <use xlink:href="#m33c23804f6" x="46.965625" y="162.902567" style="stroke: #000000; stroke-width: 0.8"/>
      </g>
     </g>
     <g id="text_1">
      <!-- 0.0 -->
      <g transform="translate(39.014063 177.501004) scale(0.1 -0.1)">
       <defs>
        <path id="DejaVuSans-30" d="M 2034 4250 
Q 1547 4250 1301 3770 
Q 1056 3291 1056 2328 
Q 1056 1369 1301 889 
Q 1547 409 2034 409 
Q 2525 409 2770 889 
Q 3016 1369 3016 2328 
Q 3016 3291 2770 3770 
Q 2525 4250 2034 4250 
z
M 2034 4750 
Q 2819 4750 3233 4129 
Q 3647 3509 3647 2328 
Q 3647 1150 3233 529 
Q 2819 -91 2034 -91 
Q 1250 -91 836 529 
Q 422 1150 422 2328 
Q 422 3509 836 4129 
Q 1250 4750 2034 4750 
z
" transform="scale(0.015625)"/>
        <path id="DejaVuSans-2e" d="M 684 794 
L 1344 794 
L 1344 0 
L 684 0 
L 684 794 
z
" transform="scale(0.015625)"/>
       </defs>
       <use xlink:href="#DejaVuSans-30"/>
       <use xlink:href="#DejaVuSans-2e" transform="translate(63.623047 0)"/>
       <use xlink:href="#DejaVuSans-30" transform="translate(95.410156 0)"/>
      </g>
     </g>
    </g>
    <g id="xtick_2">
     <g id="line2d_2">
      <g>
       <use xlink:href="#m33c23804f6" x="83.070598" y="162.902567" style="stroke: #000000; stroke-width: 0.8"/>
      </g>
     </g>
     <g id="text_2">
      <!-- 0.5 -->
      <g transform="translate(75.119036 177.501004) scale(0.1 -0.1)">
       <defs>
        <path id="DejaVuSans-35" d="M 691 4666 
L 3169 4666 
L 3169 4134 
L 1269 4134 
L 1269 2991 
Q 1406 3038 1543 3061 
Q 1681 3084 1819 3084 
Q 2600 3084 3056 2656 
Q 3513 2228 3513 1497 
Q 3513 744 3044 326 
Q 2575 -91 1722 -91 
Q 1428 -91 1123 -41 
Q 819 9 494 109 
L 494 744 
Q 775 591 1075 516 
Q 1375 441 1709 441 
Q 2250 441 2565 725 
Q 2881 1009 2881 1497 
Q 2881 1984 2565 2268 
Q 2250 2553 1709 2553 
Q 1456 2553 1204 2497 
Q 953 2441 691 2322 
L 691 4666 
z
" transform="scale(0.015625)"/>
       </defs>
       <use xlink:href="#DejaVuSans-30"/>
       <use xlink:href="#DejaVuSans-2e" transform="translate(63.623047 0)"/>
       <use xlink:href="#DejaVuSans-35" transform="translate(95.410156 0)"/>
      </g>
     </g>
    </g>
    <g id="xtick_3">
     <g id="line2d_3">
      <g>
       <use xlink:href="#m33c23804f6" x="119.175571" y="162.902567" style="stroke: #000000; stroke-width: 0.8"/>
      </g>
     </g>
     <g id="text_3">
      <!-- 1.0 -->
      <g transform="translate(111.224009 177.501004) scale(0.1 -0.1)">
       <defs>
        <path id="DejaVuSans-31" d="M 794 531 
L 1825 531 
L 1825 4091 
L 703 3866 
L 703 4441 
L 1819 4666 
L 2450 4666 
L 2450 531 
L 3481 531 
L 3481 0 
L 794 0 
L 794 531 
z
" transform="scale(0.015625)"/>
       </defs>
       <use xlink:href="#DejaVuSans-31"/>
       <use xlink:href="#DejaVuSans-2e" transform="translate(63.623047 0)"/>
       <use xlink:href="#DejaVuSans-30" transform="translate(95.410156 0)"/>
      </g>
     </g>
    </g>
    <g id="xtick_4">
     <g id="line2d_4">
      <g>
       <use xlink:href="#m33c23804f6" x="155.280544" y="162.902567" style="stroke: #000000; stroke-width: 0.8"/>
      </g>
     </g>
     <g id="text_4">
      <!-- 1.5 -->
      <g transform="translate(147.328982 177.501004) scale(0.1 -0.1)">
       <use xlink:href="#DejaVuSans-31"/>
       <use xlink:href="#DejaVuSans-2e" transform="translate(63.623047 0)"/>
       <use xlink:href="#DejaVuSans-35" transform="translate(95.410156 0)"/>
      </g>
     </g>
    </g>
    <g id="xtick_5">
     <g id="line2d_5">
      <g>
       <use xlink:href="#m33c23804f6" x="191.385517" y="162.902567" style="stroke: #000000; stroke-width: 0.8"/>
      </g>
     </g>
     <g id="text_5">
      <!-- 2.0 -->
      <g transform="translate(183.433955 177.501004) scale(0.1 -0.1)">
       <defs>
        <path id="DejaVuSans-32" d="M 1228 531 
L 3431 531 
L 3431 0 
L 469 0 
L 469 531 
Q 828 903 1448 1529 
Q 2069 2156 2228 2338 
Q 2531 2678 2651 2914 
Q 2772 3150 2772 3378 
Q 2772 3750 2511 3984 
Q 2250 4219 1831 4219 
Q 1534 4219 1204 4116 
Q 875 4013 500 3803 
L 500 4441 
Q 881 4594 1212 4672 
Q 1544 4750 1819 4750 
Q 2544 4750 2975 4387 
Q 3406 4025 3406 3419 
Q 3406 3131 3298 2873 
Q 3191 2616 2906 2266 
Q 2828 2175 2409 1742 
Q 1991 1309 1228 531 
z
" transform="scale(0.015625)"/>
       </defs>
       <use xlink:href="#DejaVuSans-32"/>
       <use xlink:href="#DejaVuSans-2e" transform="translate(63.623047 0)"/>
       <use xlink:href="#DejaVuSans-30" transform="translate(95.410156 0)"/>
      </g>
     </g>
    </g>
    <g id="text_6">
     <!-- $Σ[Amine]^{1.83}[Phenol]^{-0.09}[ArOPh]^{1.05}Δt$. -->
     <g transform="translate(39.663569 192.001004) scale(0.1 -0.1)">
      <defs>
       <path id="DejaVuSans-3a3" d="M 1353 531 
L 3634 531 
L 3634 0 
L 628 0 
L 628 531 
L 2125 2481 
L 628 4134 
L 628 4666 
L 3578 4666 
L 3578 4134 
L 1353 4134 
L 2850 2494 
L 1353 531 
z
" transform="scale(0.015625)"/>
       <path id="DejaVuSans-5b" d="M 550 4863 
L 1875 4863 
L 1875 4416 
L 1125 4416 
L 1125 -397 
L 1875 -397 
L 1875 -844 
L 550 -844 
L 550 4863 
z
" transform="scale(0.015625)"/>
       <path id="DejaVuSans-Oblique-41" d="M 2356 4666 
L 3072 4666 
L 3938 0 
L 3278 0 
L 3084 1197 
L 984 1197 
L 325 0 
L -341 0 
L 2356 4666 
z
M 2584 4044 
L 1275 1722 
L 2988 1722 
L 2584 4044 
z
" transform="scale(0.015625)"/>
       <path id="DejaVuSans-Oblique-6d" d="M 5747 2113 
L 5338 0 
L 4763 0 
L 5166 2094 
Q 5191 2228 5203 2325 
Q 5216 2422 5216 2491 
Q 5216 2772 5059 2928 
Q 4903 3084 4622 3084 
Q 4203 3084 3875 2770 
Q 3547 2456 3450 1953 
L 3066 0 
L 2491 0 
L 2900 2094 
Q 2925 2209 2937 2307 
Q 2950 2406 2950 2484 
Q 2950 2769 2794 2926 
Q 2638 3084 2363 3084 
Q 1938 3084 1609 2770 
Q 1281 2456 1184 1953 
L 800 0 
L 225 0 
L 909 3500 
L 1484 3500 
L 1375 2956 
Q 1609 3263 1923 3423 
Q 2238 3584 2597 3584 
Q 2978 3584 3223 3384 
Q 3469 3184 3519 2828 
Q 3781 3197 4126 3390 
Q 4472 3584 4856 3584 
Q 5306 3584 5551 3325 
Q 5797 3066 5797 2591 
Q 5797 2488 5784 2364 
Q 5772 2241 5747 2113 
z
" transform="scale(0.015625)"/>
       <path id="DejaVuSans-Oblique-69" d="M 1172 4863 
L 1747 4863 
L 1606 4134 
L 1031 4134 
L 1172 4863 
z
M 909 3500 
L 1484 3500 
L 800 0 
L 225 0 
L 909 3500 
z
" transform="scale(0.015625)"/>
       <path id="DejaVuSans-Oblique-6e" d="M 3566 2113 
L 3156 0 
L 2578 0 
L 2988 2091 
Q 3016 2238 3031 2350 
Q 3047 2463 3047 2528 
Q 3047 2791 2881 2937 
Q 2716 3084 2419 3084 
Q 1956 3084 1622 2776 
Q 1288 2469 1184 1941 
L 800 0 
L 225 0 
L 903 3500 
L 1478 3500 
L 1363 2950 
Q 1603 3253 1940 3418 
Q 2278 3584 2650 3584 
Q 3113 3584 3367 3334 
Q 3622 3084 3622 2631 
Q 3622 2519 3608 2391 
Q 3594 2263 3566 2113 
z
" transform="scale(0.015625)"/>
       <path id="DejaVuSans-Oblique-65" d="M 3078 2063 
Q 3088 2113 3092 2166 
Q 3097 2219 3097 2272 
Q 3097 2653 2873 2875 
Q 2650 3097 2266 3097 
Q 1838 3097 1509 2826 
Q 1181 2556 1013 2059 
L 3078 2063 
z
M 3578 1613 
L 903 1613 
Q 884 1494 878 1425 
Q 872 1356 872 1306 
Q 872 872 1139 634 
Q 1406 397 1894 397 
Q 2269 397 2603 481 
Q 2938 566 3225 728 
L 3116 159 
Q 2806 34 2476 -28 
Q 2147 -91 1806 -91 
Q 1078 -91 686 257 
Q 294 606 294 1247 
Q 294 1794 489 2264 
Q 684 2734 1063 3103 
Q 1306 3334 1642 3459 
Q 1978 3584 2356 3584 
Q 2950 3584 3301 3228 
Q 3653 2872 3653 2272 
Q 3653 2128 3634 1964 
Q 3616 1800 3578 1613 
z
" transform="scale(0.015625)"/>
       <path id="DejaVuSans-5d" d="M 1947 4863 
L 1947 -844 
L 622 -844 
L 622 -397 
L 1369 -397 
L 1369 4416 
L 622 4416 
L 622 4863 
L 1947 4863 
z
" transform="scale(0.015625)"/>
       <path id="DejaVuSans-38" d="M 2034 2216 
Q 1584 2216 1326 1975 
Q 1069 1734 1069 1313 
Q 1069 891 1326 650 
Q 1584 409 2034 409 
Q 2484 409 2743 651 
Q 3003 894 3003 1313 
Q 3003 1734 2745 1975 
Q 2488 2216 2034 2216 
z
M 1403 2484 
Q 997 2584 770 2862 
Q 544 3141 544 3541 
Q 544 4100 942 4425 
Q 1341 4750 2034 4750 
Q 2731 4750 3128 4425 
Q 3525 4100 3525 3541 
Q 3525 3141 3298 2862 
Q 3072 2584 2669 2484 
Q 3125 2378 3379 2068 
Q 3634 1759 3634 1313 
Q 3634 634 3220 271 
Q 2806 -91 2034 -91 
Q 1263 -91 848 271 
Q 434 634 434 1313 
Q 434 1759 690 2068 
Q 947 2378 1403 2484 
z
M 1172 3481 
Q 1172 3119 1398 2916 
Q 1625 2713 2034 2713 
Q 2441 2713 2670 2916 
Q 2900 3119 2900 3481 
Q 2900 3844 2670 4047 
Q 2441 4250 2034 4250 
Q 1625 4250 1398 4047 
Q 1172 3844 1172 3481 
z
" transform="scale(0.015625)"/>
       <path id="DejaVuSans-33" d="M 2597 2516 
Q 3050 2419 3304 2112 
Q 3559 1806 3559 1356 
Q 3559 666 3084 287 
Q 2609 -91 1734 -91 
Q 1441 -91 1130 -33 
Q 819 25 488 141 
L 488 750 
Q 750 597 1062 519 
Q 1375 441 1716 441 
Q 2309 441 2620 675 
Q 2931 909 2931 1356 
Q 2931 1769 2642 2001 
Q 2353 2234 1838 2234 
L 1294 2234 
L 1294 2753 
L 1863 2753 
Q 2328 2753 2575 2939 
Q 2822 3125 2822 3475 
Q 2822 3834 2567 4026 
Q 2313 4219 1838 4219 
Q 1578 4219 1281 4162 
Q 984 4106 628 3988 
L 628 4550 
Q 988 4650 1302 4700 
Q 1616 4750 1894 4750 
Q 2613 4750 3031 4423 
Q 3450 4097 3450 3541 
Q 3450 3153 3228 2886 
Q 3006 2619 2597 2516 
z
" transform="scale(0.015625)"/>
       <path id="DejaVuSans-Oblique-50" d="M 1081 4666 
L 2541 4666 
Q 3178 4666 3512 4369 
Q 3847 4072 3847 3500 
Q 3847 2731 3353 2303 
Q 2859 1875 1966 1875 
L 1172 1875 
L 806 0 
L 172 0 
L 1081 4666 
z
M 1613 4147 
L 1275 2394 
L 2069 2394 
Q 2606 2394 2893 2669 
Q 3181 2944 3181 3456 
Q 3181 3784 2986 3965 
Q 2791 4147 2438 4147 
L 1613 4147 
z
" transform="scale(0.015625)"/>
       <path id="DejaVuSans-Oblique-68" d="M 3566 2113 
L 3156 0 
L 2578 0 
L 2988 2091 
Q 3016 2238 3031 2350 
Q 3047 2463 3047 2528 
Q 3047 2791 2881 2937 
Q 2716 3084 2419 3084 
Q 1956 3084 1617 2771 
Q 1278 2459 1178 1941 
L 800 0 
L 225 0 
L 1172 4863 
L 1747 4863 
L 1375 2950 
Q 1594 3244 1934 3414 
Q 2275 3584 2650 3584 
Q 3113 3584 3367 3334 
Q 3622 3084 3622 2631 
Q 3622 2519 3608 2391 
Q 3594 2263 3566 2113 
z
" transform="scale(0.015625)"/>
       <path id="DejaVuSans-Oblique-6f" d="M 1625 -91 
Q 1009 -91 651 289 
Q 294 669 294 1325 
Q 294 1706 417 2101 
Q 541 2497 738 2766 
Q 1047 3184 1428 3384 
Q 1809 3584 2291 3584 
Q 2888 3584 3255 3212 
Q 3622 2841 3622 2241 
Q 3622 1825 3500 1412 
Q 3378 1000 3181 728 
Q 2875 309 2494 109 
Q 2113 -91 1625 -91 
z
M 891 1344 
Q 891 869 1089 633 
Q 1288 397 1691 397 
Q 2269 397 2648 901 
Q 3028 1406 3028 2181 
Q 3028 2634 2825 2865 
Q 2622 3097 2228 3097 
Q 1903 3097 1650 2945 
Q 1397 2794 1197 2484 
Q 1050 2253 970 1956 
Q 891 1659 891 1344 
z
" transform="scale(0.015625)"/>
       <path id="DejaVuSans-Oblique-6c" d="M 1172 4863 
L 1747 4863 
L 800 0 
L 225 0 
L 1172 4863 
z
" transform="scale(0.015625)"/>
       <path id="DejaVuSans-2212" d="M 678 2272 
L 4684 2272 
L 4684 1741 
L 678 1741 
L 678 2272 
z
" transform="scale(0.015625)"/>
       <path id="DejaVuSans-39" d="M 703 97 
L 703 672 
Q 941 559 1184 500 
Q 1428 441 1663 441 
Q 2288 441 2617 861 
Q 2947 1281 2994 2138 
Q 2813 1869 2534 1725 
Q 2256 1581 1919 1581 
Q 1219 1581 811 2004 
Q 403 2428 403 3163 
Q 403 3881 828 4315 
Q 1253 4750 1959 4750 
Q 2769 4750 3195 4129 
Q 3622 3509 3622 2328 
Q 3622 1225 3098 567 
Q 2575 -91 1691 -91 
Q 1453 -91 1209 -44 
Q 966 3 703 97 
z
M 1959 2075 
Q 2384 2075 2632 2365 
Q 2881 2656 2881 3163 
Q 2881 3666 2632 3958 
Q 2384 4250 1959 4250 
Q 1534 4250 1286 3958 
Q 1038 3666 1038 3163 
Q 1038 2656 1286 2365 
Q 1534 2075 1959 2075 
z
" transform="scale(0.015625)"/>
       <path id="DejaVuSans-Oblique-72" d="M 2853 2969 
Q 2766 3016 2653 3041 
Q 2541 3066 2413 3066 
Q 1953 3066 1609 2717 
Q 1266 2369 1153 1784 
L 800 0 
L 225 0 
L 909 3500 
L 1484 3500 
L 1375 2956 
Q 1603 3259 1920 3421 
Q 2238 3584 2597 3584 
Q 2691 3584 2781 3573 
Q 2872 3563 2963 3538 
L 2853 2969 
z
" transform="scale(0.015625)"/>
       <path id="DejaVuSans-Oblique-4f" d="M 2919 4238 
Q 2400 4238 2003 3986 
Q 1606 3734 1313 3219 
Q 1125 2891 1026 2522 
Q 928 2153 928 1778 
Q 928 1128 1239 775 
Q 1550 422 2119 422 
Q 2631 422 3032 676 
Q 3434 931 3719 1434 
Q 3909 1772 4009 2142 
Q 4109 2513 4109 2881 
Q 4109 3528 3796 3883 
Q 3484 4238 2919 4238 
z
M 2100 -91 
Q 1241 -91 748 418 
Q 256 928 256 1813 
Q 256 2319 448 2847 
Q 641 3375 978 3788 
Q 1375 4272 1862 4511 
Q 2350 4750 2938 4750 
Q 3794 4750 4287 4245 
Q 4781 3741 4781 2869 
Q 4781 2331 4593 1812 
Q 4406 1294 4056 872 
Q 3656 384 3173 146 
Q 2691 -91 2100 -91 
z
" transform="scale(0.015625)"/>
       <path id="DejaVuSans-394" d="M 2188 4044 
L 906 525 
L 3472 525 
L 2188 4044 
z
M 50 0 
L 1831 4666 
L 2547 4666 
L 4325 0 
L 50 0 
z
" transform="scale(0.015625)"/>
       <path id="DejaVuSans-Oblique-74" d="M 2706 3500 
L 2619 3053 
L 1472 3053 
L 1100 1153 
Q 1081 1047 1072 975 
Q 1063 903 1063 863 
Q 1063 663 1183 572 
Q 1303 481 1569 481 
L 2150 481 
L 2053 0 
L 1503 0 
Q 991 0 739 200 
Q 488 400 488 806 
Q 488 878 497 964 
Q 506 1050 525 1153 
L 897 3053 
L 409 3053 
L 500 3500 
L 978 3500 
L 1172 4494 
L 1747 4494 
L 1556 3500 
L 2706 3500 
z
" transform="scale(0.015625)"/>
      </defs>
      <use xlink:href="#DejaVuSans-3a3" transform="translate(0 0.765625)"/>
      <use xlink:href="#DejaVuSans-5b" transform="translate(63.183594 0.765625)"/>
      <use xlink:href="#DejaVuSans-Oblique-41" transform="translate(102.197266 0.765625)"/>
      <use xlink:href="#DejaVuSans-Oblique-6d" transform="translate(170.605469 0.765625)"/>
      <use xlink:href="#DejaVuSans-Oblique-69" transform="translate(268.017578 0.765625)"/>
      <use xlink:href="#DejaVuSans-Oblique-6e" transform="translate(295.800781 0.765625)"/>
      <use xlink:href="#DejaVuSans-Oblique-65" transform="translate(359.179688 0.765625)"/>
      <use xlink:href="#DejaVuSans-5d" transform="translate(420.703125 0.765625)"/>
      <use xlink:href="#DejaVuSans-31" transform="translate(460.673828 39.046875) scale(0.7)"/>
      <use xlink:href="#DejaVuSans-2e" transform="translate(505.209961 39.046875) scale(0.7)"/>
      <use xlink:href="#DejaVuSans-38" transform="translate(525.623438 39.046875) scale(0.7)"/>
      <use xlink:href="#DejaVuSans-33" transform="translate(570.15957 39.046875) scale(0.7)"/>
      <use xlink:href="#DejaVuSans-5b" transform="translate(617.430078 0.765625)"/>
      <use xlink:href="#DejaVuSans-Oblique-50" transform="translate(656.44375 0.765625)"/>
      <use xlink:href="#DejaVuSans-Oblique-68" transform="translate(716.746484 0.765625)"/>
      <use xlink:href="#DejaVuSans-Oblique-65" transform="translate(780.125391 0.765625)"/>
      <use xlink:href="#DejaVuSans-Oblique-6e" transform="translate(841.648828 0.765625)"/>
      <use xlink:href="#DejaVuSans-Oblique-6f" transform="translate(905.027734 0.765625)"/>
      <use xlink:href="#DejaVuSans-Oblique-6c" transform="translate(966.209375 0.765625)"/>
      <use xlink:href="#DejaVuSans-5d" transform="translate(993.992578 0.765625)"/>
      <use xlink:href="#DejaVuSans-2212" transform="translate(1033.963281 39.046875) scale(0.7)"/>
      <use xlink:href="#DejaVuSans-30" transform="translate(1092.615625 39.046875) scale(0.7)"/>
      <use xlink:href="#DejaVuSans-2e" transform="translate(1137.151758 39.046875) scale(0.7)"/>
      <use xlink:href="#DejaVuSans-30" transform="translate(1159.402734 39.046875) scale(0.7)"/>
      <use xlink:href="#DejaVuSans-39" transform="translate(1203.938867 39.046875) scale(0.7)"/>
      <use xlink:href="#DejaVuSans-5b" transform="translate(1251.209375 0.765625)"/>
      <use xlink:href="#DejaVuSans-Oblique-41" transform="translate(1290.223047 0.765625)"/>
      <use xlink:href="#DejaVuSans-Oblique-72" transform="translate(1358.63125 0.765625)"/>
      <use xlink:href="#DejaVuSans-Oblique-4f" transform="translate(1399.744531 0.765625)"/>
      <use xlink:href="#DejaVuSans-Oblique-50" transform="translate(1478.455469 0.765625)"/>
      <use xlink:href="#DejaVuSans-Oblique-68" transform="translate(1538.758203 0.765625)"/>
      <use xlink:href="#DejaVuSans-5d" transform="translate(1602.137109 0.765625)"/>
      <use xlink:href="#DejaVuSans-31" transform="translate(1642.107812 39.046875) scale(0.7)"/>
      <use xlink:href="#DejaVuSans-2e" transform="translate(1686.643945 39.046875) scale(0.7)"/>
      <use xlink:href="#DejaVuSans-30" transform="translate(1708.894922 39.046875) scale(0.7)"/>
      <use xlink:href="#DejaVuSans-35" transform="translate(1753.431055 39.046875) scale(0.7)"/>
      <use xlink:href="#DejaVuSans-394" transform="translate(1800.701562 0.765625)"/>
      <use xlink:href="#DejaVuSans-Oblique-74" transform="translate(1869.109766 0.765625)"/>
      <use xlink:href="#DejaVuSans-2e" transform="translate(1908.31875 0.765625)"/>
     </g>
    </g>
    <g id="text_7">
     <!-- 1e5 -->
     <g transform="translate(219.25062 190.179129) scale(0.1 -0.1)">
      <defs>
       <path id="DejaVuSans-65" d="M 3597 1894 
L 3597 1613 
L 953 1613 
Q 991 1019 1311 708 
Q 1631 397 2203 397 
Q 2534 397 2845 478 
Q 3156 559 3463 722 
L 3463 178 
Q 3153 47 2828 -22 
Q 2503 -91 2169 -91 
Q 1331 -91 842 396 
Q 353 884 353 1716 
Q 353 2575 817 3079 
Q 1281 3584 2069 3584 
Q 2775 3584 3186 3129 
Q 3597 2675 3597 1894 
z
M 3022 2063 
Q 3016 2534 2758 2815 
Q 2500 3097 2075 3097 
Q 1594 3097 1305 2825 
Q 1016 2553 972 2059 
L 3022 2063 
z
" transform="scale(0.015625)"/>
      </defs>
      <use xlink:href="#DejaVuSans-31"/>
      <use xlink:href="#DejaVuSans-65" transform="translate(63.623047 0)"/>
      <use xlink:href="#DejaVuSans-35" transform="translate(125.146484 0)"/>
     </g>
    </g>
   </g>
   <g id="matplotlib.axis_2">
    <g id="ytick_1">
     <g id="line2d_6">
      <defs>
       <path id="m3c6dedafeb" d="M 0 0 
L -3.5 0 
" style="stroke: #000000; stroke-width: 0.8"/>
      </defs>
      <g>
       <use xlink:href="#m3c6dedafeb" x="46.965625" y="148.788058" style="stroke: #000000; stroke-width: 0.8"/>
      </g>
     </g>
     <g id="text_8">
      <!-- 100 -->
      <g transform="translate(20.878125 152.587277) scale(0.1 -0.1)">
       <use xlink:href="#DejaVuSans-31"/>
       <use xlink:href="#DejaVuSans-30" transform="translate(63.623047 0)"/>
       <use xlink:href="#DejaVuSans-30" transform="translate(127.246094 0)"/>
      </g>
     </g>
    </g>
    <g id="ytick_2">
     <g id="line2d_7">
      <g>
       <use xlink:href="#m3c6dedafeb" x="46.965625" y="121.23029" style="stroke: #000000; stroke-width: 0.8"/>
      </g>
     </g>
     <g id="text_9">
      <!-- 110 -->
      <g transform="translate(20.878125 125.029509) scale(0.1 -0.1)">
       <use xlink:href="#DejaVuSans-31"/>
       <use xlink:href="#DejaVuSans-31" transform="translate(63.623047 0)"/>
       <use xlink:href="#DejaVuSans-30" transform="translate(127.246094 0)"/>
      </g>
     </g>
    </g>
    <g id="ytick_3">
     <g id="line2d_8">
      <g>
       <use xlink:href="#m3c6dedafeb" x="46.965625" y="93.672522" style="stroke: #000000; stroke-width: 0.8"/>
      </g>
     </g>
     <g id="text_10">
      <!-- 120 -->
      <g transform="translate(20.878125 97.471741) scale(0.1 -0.1)">
       <use xlink:href="#DejaVuSans-31"/>
       <use xlink:href="#DejaVuSans-32" transform="translate(63.623047 0)"/>
       <use xlink:href="#DejaVuSans-30" transform="translate(127.246094 0)"/>
      </g>
     </g>
    </g>
    <g id="ytick_4">
     <g id="line2d_9">
      <g>
       <use xlink:href="#m3c6dedafeb" x="46.965625" y="66.114754" style="stroke: #000000; stroke-width: 0.8"/>
      </g>
     </g>
     <g id="text_11">
      <!-- 130 -->
      <g transform="translate(20.878125 69.913973) scale(0.1 -0.1)">
       <use xlink:href="#DejaVuSans-31"/>
       <use xlink:href="#DejaVuSans-33" transform="translate(63.623047 0)"/>
       <use xlink:href="#DejaVuSans-30" transform="translate(127.246094 0)"/>
      </g>
     </g>
    </g>
    <g id="ytick_5">
     <g id="line2d_10">
      <g>
       <use xlink:href="#m3c6dedafeb" x="46.965625" y="38.556987" style="stroke: #000000; stroke-width: 0.8"/>
      </g>
     </g>
     <g id="text_12">
      <!-- 140 -->
      <g transform="translate(20.878125 42.356205) scale(0.1 -0.1)">
       <defs>
        <path id="DejaVuSans-34" d="M 2419 4116 
L 825 1625 
L 2419 1625 
L 2419 4116 
z
M 2253 4666 
L 3047 4666 
L 3047 1625 
L 3713 1625 
L 3713 1100 
L 3047 1100 
L 3047 0 
L 2419 0 
L 2419 1100 
L 313 1100 
L 313 1709 
L 2253 4666 
z
" transform="scale(0.015625)"/>
       </defs>
       <use xlink:href="#DejaVuSans-31"/>
       <use xlink:href="#DejaVuSans-34" transform="translate(63.623047 0)"/>
       <use xlink:href="#DejaVuSans-30" transform="translate(127.246094 0)"/>
      </g>
     </g>
    </g>
    <g id="ytick_6">
     <g id="line2d_11">
      <g>
       <use xlink:href="#m3c6dedafeb" x="46.965625" y="10.999219" style="stroke: #000000; stroke-width: 0.8"/>
      </g>
     </g>
     <g id="text_13">
      <!-- 150 -->
      <g transform="translate(20.878125 14.798437) scale(0.1 -0.1)">
       <use xlink:href="#DejaVuSans-31"/>
       <use xlink:href="#DejaVuSans-35" transform="translate(63.623047 0)"/>
       <use xlink:href="#DejaVuSans-30" transform="translate(127.246094 0)"/>
      </g>
     </g>
    </g>
    <g id="text_14">
     <!-- Shifted [Product] / mM -->
     <g transform="translate(14.798438 141.853723) rotate(-90) scale(0.1 -0.1)">
      <defs>
       <path id="DejaVuSans-53" d="M 3425 4513 
L 3425 3897 
Q 3066 4069 2747 4153 
Q 2428 4238 2131 4238 
Q 1616 4238 1336 4038 
Q 1056 3838 1056 3469 
Q 1056 3159 1242 3001 
Q 1428 2844 1947 2747 
L 2328 2669 
Q 3034 2534 3370 2195 
Q 3706 1856 3706 1288 
Q 3706 609 3251 259 
Q 2797 -91 1919 -91 
Q 1588 -91 1214 -16 
Q 841 59 441 206 
L 441 856 
Q 825 641 1194 531 
Q 1563 422 1919 422 
Q 2459 422 2753 634 
Q 3047 847 3047 1241 
Q 3047 1584 2836 1778 
Q 2625 1972 2144 2069 
L 1759 2144 
Q 1053 2284 737 2584 
Q 422 2884 422 3419 
Q 422 4038 858 4394 
Q 1294 4750 2059 4750 
Q 2388 4750 2728 4690 
Q 3069 4631 3425 4513 
z
" transform="scale(0.015625)"/>
       <path id="DejaVuSans-68" d="M 3513 2113 
L 3513 0 
L 2938 0 
L 2938 2094 
Q 2938 2591 2744 2837 
Q 2550 3084 2163 3084 
Q 1697 3084 1428 2787 
Q 1159 2491 1159 1978 
L 1159 0 
L 581 0 
L 581 4863 
L 1159 4863 
L 1159 2956 
Q 1366 3272 1645 3428 
Q 1925 3584 2291 3584 
Q 2894 3584 3203 3211 
Q 3513 2838 3513 2113 
z
" transform="scale(0.015625)"/>
       <path id="DejaVuSans-69" d="M 603 3500 
L 1178 3500 
L 1178 0 
L 603 0 
L 603 3500 
z
M 603 4863 
L 1178 4863 
L 1178 4134 
L 603 4134 
L 603 4863 
z
" transform="scale(0.015625)"/>
       <path id="DejaVuSans-66" d="M 2375 4863 
L 2375 4384 
L 1825 4384 
Q 1516 4384 1395 4259 
Q 1275 4134 1275 3809 
L 1275 3500 
L 2222 3500 
L 2222 3053 
L 1275 3053 
L 1275 0 
L 697 0 
L 697 3053 
L 147 3053 
L 147 3500 
L 697 3500 
L 697 3744 
Q 697 4328 969 4595 
Q 1241 4863 1831 4863 
L 2375 4863 
z
" transform="scale(0.015625)"/>
       <path id="DejaVuSans-74" d="M 1172 4494 
L 1172 3500 
L 2356 3500 
L 2356 3053 
L 1172 3053 
L 1172 1153 
Q 1172 725 1289 603 
Q 1406 481 1766 481 
L 2356 481 
L 2356 0 
L 1766 0 
Q 1100 0 847 248 
Q 594 497 594 1153 
L 594 3053 
L 172 3053 
L 172 3500 
L 594 3500 
L 594 4494 
L 1172 4494 
z
" transform="scale(0.015625)"/>
       <path id="DejaVuSans-64" d="M 2906 2969 
L 2906 4863 
L 3481 4863 
L 3481 0 
L 2906 0 
L 2906 525 
Q 2725 213 2448 61 
Q 2172 -91 1784 -91 
Q 1150 -91 751 415 
Q 353 922 353 1747 
Q 353 2572 751 3078 
Q 1150 3584 1784 3584 
Q 2172 3584 2448 3432 
Q 2725 3281 2906 2969 
z
M 947 1747 
Q 947 1113 1208 752 
Q 1469 391 1925 391 
Q 2381 391 2643 752 
Q 2906 1113 2906 1747 
Q 2906 2381 2643 2742 
Q 2381 3103 1925 3103 
Q 1469 3103 1208 2742 
Q 947 2381 947 1747 
z
" transform="scale(0.015625)"/>
       <path id="DejaVuSans-20" transform="scale(0.015625)"/>
       <path id="DejaVuSans-50" d="M 1259 4147 
L 1259 2394 
L 2053 2394 
Q 2494 2394 2734 2622 
Q 2975 2850 2975 3272 
Q 2975 3691 2734 3919 
Q 2494 4147 2053 4147 
L 1259 4147 
z
M 628 4666 
L 2053 4666 
Q 2838 4666 3239 4311 
Q 3641 3956 3641 3272 
Q 3641 2581 3239 2228 
Q 2838 1875 2053 1875 
L 1259 1875 
L 1259 0 
L 628 0 
L 628 4666 
z
" transform="scale(0.015625)"/>
       <path id="DejaVuSans-72" d="M 2631 2963 
Q 2534 3019 2420 3045 
Q 2306 3072 2169 3072 
Q 1681 3072 1420 2755 
Q 1159 2438 1159 1844 
L 1159 0 
L 581 0 
L 581 3500 
L 1159 3500 
L 1159 2956 
Q 1341 3275 1631 3429 
Q 1922 3584 2338 3584 
Q 2397 3584 2469 3576 
Q 2541 3569 2628 3553 
L 2631 2963 
z
" transform="scale(0.015625)"/>
       <path id="DejaVuSans-6f" d="M 1959 3097 
Q 1497 3097 1228 2736 
Q 959 2375 959 1747 
Q 959 1119 1226 758 
Q 1494 397 1959 397 
Q 2419 397 2687 759 
Q 2956 1122 2956 1747 
Q 2956 2369 2687 2733 
Q 2419 3097 1959 3097 
z
M 1959 3584 
Q 2709 3584 3137 3096 
Q 3566 2609 3566 1747 
Q 3566 888 3137 398 
Q 2709 -91 1959 -91 
Q 1206 -91 779 398 
Q 353 888 353 1747 
Q 353 2609 779 3096 
Q 1206 3584 1959 3584 
z
" transform="scale(0.015625)"/>
       <path id="DejaVuSans-75" d="M 544 1381 
L 544 3500 
L 1119 3500 
L 1119 1403 
Q 1119 906 1312 657 
Q 1506 409 1894 409 
Q 2359 409 2629 706 
Q 2900 1003 2900 1516 
L 2900 3500 
L 3475 3500 
L 3475 0 
L 2900 0 
L 2900 538 
Q 2691 219 2414 64 
Q 2138 -91 1772 -91 
Q 1169 -91 856 284 
Q 544 659 544 1381 
z
M 1991 3584 
L 1991 3584 
z
" transform="scale(0.015625)"/>
       <path id="DejaVuSans-63" d="M 3122 3366 
L 3122 2828 
Q 2878 2963 2633 3030 
Q 2388 3097 2138 3097 
Q 1578 3097 1268 2742 
Q 959 2388 959 1747 
Q 959 1106 1268 751 
Q 1578 397 2138 397 
Q 2388 397 2633 464 
Q 2878 531 3122 666 
L 3122 134 
Q 2881 22 2623 -34 
Q 2366 -91 2075 -91 
Q 1284 -91 818 406 
Q 353 903 353 1747 
Q 353 2603 823 3093 
Q 1294 3584 2113 3584 
Q 2378 3584 2631 3529 
Q 2884 3475 3122 3366 
z
" transform="scale(0.015625)"/>
       <path id="DejaVuSans-2f" d="M 1625 4666 
L 2156 4666 
L 531 -594 
L 0 -594 
L 1625 4666 
z
" transform="scale(0.015625)"/>
       <path id="DejaVuSans-6d" d="M 3328 2828 
Q 3544 3216 3844 3400 
Q 4144 3584 4550 3584 
Q 5097 3584 5394 3201 
Q 5691 2819 5691 2113 
L 5691 0 
L 5113 0 
L 5113 2094 
Q 5113 2597 4934 2840 
Q 4756 3084 4391 3084 
Q 3944 3084 3684 2787 
Q 3425 2491 3425 1978 
L 3425 0 
L 2847 0 
L 2847 2094 
Q 2847 2600 2669 2842 
Q 2491 3084 2119 3084 
Q 1678 3084 1418 2786 
Q 1159 2488 1159 1978 
L 1159 0 
L 581 0 
L 581 3500 
L 1159 3500 
L 1159 2956 
Q 1356 3278 1631 3431 
Q 1906 3584 2284 3584 
Q 2666 3584 2933 3390 
Q 3200 3197 3328 2828 
z
" transform="scale(0.015625)"/>
       <path id="DejaVuSans-4d" d="M 628 4666 
L 1569 4666 
L 2759 1491 
L 3956 4666 
L 4897 4666 
L 4897 0 
L 4281 0 
L 4281 4097 
L 3078 897 
L 2444 897 
L 1241 4097 
L 1241 0 
L 628 0 
L 628 4666 
z
" transform="scale(0.015625)"/>
      </defs>
      <use xlink:href="#DejaVuSans-53"/>
      <use xlink:href="#DejaVuSans-68" transform="translate(63.476562 0)"/>
      <use xlink:href="#DejaVuSans-69" transform="translate(126.855469 0)"/>
      <use xlink:href="#DejaVuSans-66" transform="translate(154.638672 0)"/>
      <use xlink:href="#DejaVuSans-74" transform="translate(188.09375 0)"/>
      <use xlink:href="#DejaVuSans-65" transform="translate(227.302734 0)"/>
      <use xlink:href="#DejaVuSans-64" transform="translate(288.826172 0)"/>
      <use xlink:href="#DejaVuSans-20" transform="translate(352.302734 0)"/>
      <use xlink:href="#DejaVuSans-5b" transform="translate(384.089844 0)"/>
      <use xlink:href="#DejaVuSans-50" transform="translate(423.103516 0)"/>
      <use xlink:href="#DejaVuSans-72" transform="translate(481.65625 0)"/>
      <use xlink:href="#DejaVuSans-6f" transform="translate(520.519531 0)"/>
      <use xlink:href="#DejaVuSans-64" transform="translate(581.701172 0)"/>
      <use xlink:href="#DejaVuSans-75" transform="translate(645.177734 0)"/>
      <use xlink:href="#DejaVuSans-63" transform="translate(708.556641 0)"/>
      <use xlink:href="#DejaVuSans-74" transform="translate(763.537109 0)"/>
      <use xlink:href="#DejaVuSans-5d" transform="translate(802.746094 0)"/>
      <use xlink:href="#DejaVuSans-20" transform="translate(841.759766 0)"/>
      <use xlink:href="#DejaVuSans-2f" transform="translate(873.546875 0)"/>
      <use xlink:href="#DejaVuSans-20" transform="translate(907.238281 0)"/>
      <use xlink:href="#DejaVuSans-6d" transform="translate(939.025391 0)"/>
      <use xlink:href="#DejaVuSans-4d" transform="translate(1036.4375 0)"/>
     </g>
    </g>
   </g>
   <g id="line2d_12">
    <path d="M 46.965625 154.067472 
L 50.793388 152.39759 
L 62.781719 144.674648 
L 72.103032 138.164656 
L 79.986916 132.669578 
L 86.463972 127.59664 
L 92.014911 123.516839 
L 96.800322 119.359979 
L 101.145253 116.460822 
L 104.838022 112.564334 
L 108.029742 109.370569 
L 110.958683 106.97218 
L 113.499421 104.40355 
L 115.818299 102.860076 
L 117.960357 101.314026 
L 119.982153 99.209063 
L 121.785475 98.196869 
L 123.459569 96.172726 
L 125.041822 94.936983 
L 126.455652 93.527726 
L 127.784039 92.817481 
L 129.039981 91.690535 
L 130.232591 90.433683 
L 131.328332 89.906882 
L 132.37054 89.0723 
L 133.360382 87.462453 
L 134.25808 87.350252 
L 135.123265 86.314499 
L 135.936657 85.523156 
L 136.702805 84.219714 
L 137.390761 83.50098 
" clip-path="url(#pfff931e132)" style="fill: none; stroke: #1f77b4; stroke-width: 0.7; stroke-linecap: square"/>
    <defs>
     <path id="mf3ca2177f5" d="M 0 0.9 
C 0.238683 0.9 0.467622 0.80517 0.636396 0.636396 
C 0.80517 0.467622 0.9 0.238683 0.9 0 
C 0.9 -0.238683 0.80517 -0.467622 0.636396 -0.636396 
C 0.467622 -0.80517 0.238683 -0.9 0 -0.9 
C -0.238683 -0.9 -0.467622 -0.80517 -0.636396 -0.636396 
C -0.80517 -0.467622 -0.9 -0.238683 -0.9 0 
C -0.9 0.238683 -0.80517 0.467622 -0.636396 0.636396 
C -0.467622 0.80517 -0.238683 0.9 0 0.9 
z
" style="stroke: #1f77b4"/>
    </defs>
    <g clip-path="url(#pfff931e132)">
     <use xlink:href="#mf3ca2177f5" x="46.965625" y="154.067472" style="fill: #1f77b4; stroke: #1f77b4"/>
     <use xlink:href="#mf3ca2177f5" x="50.793388" y="152.39759" style="fill: #1f77b4; stroke: #1f77b4"/>
     <use xlink:href="#mf3ca2177f5" x="62.781719" y="144.674648" style="fill: #1f77b4; stroke: #1f77b4"/>
     <use xlink:href="#mf3ca2177f5" x="72.103032" y="138.164656" style="fill: #1f77b4; stroke: #1f77b4"/>
     <use xlink:href="#mf3ca2177f5" x="79.986916" y="132.669578" style="fill: #1f77b4; stroke: #1f77b4"/>
     <use xlink:href="#mf3ca2177f5" x="86.463972" y="127.59664" style="fill: #1f77b4; stroke: #1f77b4"/>
     <use xlink:href="#mf3ca2177f5" x="92.014911" y="123.516839" style="fill: #1f77b4; stroke: #1f77b4"/>
     <use xlink:href="#mf3ca2177f5" x="96.800322" y="119.359979" style="fill: #1f77b4; stroke: #1f77b4"/>
     <use xlink:href="#mf3ca2177f5" x="101.145253" y="116.460822" style="fill: #1f77b4; stroke: #1f77b4"/>
     <use xlink:href="#mf3ca2177f5" x="104.838022" y="112.564334" style="fill: #1f77b4; stroke: #1f77b4"/>
     <use xlink:href="#mf3ca2177f5" x="108.029742" y="109.370569" style="fill: #1f77b4; stroke: #1f77b4"/>
     <use xlink:href="#mf3ca2177f5" x="110.958683" y="106.97218" style="fill: #1f77b4; stroke: #1f77b4"/>
     <use xlink:href="#mf3ca2177f5" x="113.499421" y="104.40355" style="fill: #1f77b4; stroke: #1f77b4"/>
     <use xlink:href="#mf3ca2177f5" x="115.818299" y="102.860076" style="fill: #1f77b4; stroke: #1f77b4"/>
     <use xlink:href="#mf3ca2177f5" x="117.960357" y="101.314026" style="fill: #1f77b4; stroke: #1f77b4"/>
     <use xlink:href="#mf3ca2177f5" x="119.982153" y="99.209063" style="fill: #1f77b4; stroke: #1f77b4"/>
     <use xlink:href="#mf3ca2177f5" x="121.785475" y="98.196869" style="fill: #1f77b4; stroke: #1f77b4"/>
     <use xlink:href="#mf3ca2177f5" x="123.459569" y="96.172726" style="fill: #1f77b4; stroke: #1f77b4"/>
     <use xlink:href="#mf3ca2177f5" x="125.041822" y="94.936983" style="fill: #1f77b4; stroke: #1f77b4"/>
     <use xlink:href="#mf3ca2177f5" x="126.455652" y="93.527726" style="fill: #1f77b4; stroke: #1f77b4"/>
     <use xlink:href="#mf3ca2177f5" x="127.784039" y="92.817481" style="fill: #1f77b4; stroke: #1f77b4"/>
     <use xlink:href="#mf3ca2177f5" x="129.039981" y="91.690535" style="fill: #1f77b4; stroke: #1f77b4"/>
     <use xlink:href="#mf3ca2177f5" x="130.232591" y="90.433683" style="fill: #1f77b4; stroke: #1f77b4"/>
     <use xlink:href="#mf3ca2177f5" x="131.328332" y="89.906882" style="fill: #1f77b4; stroke: #1f77b4"/>
     <use xlink:href="#mf3ca2177f5" x="132.37054" y="89.0723" style="fill: #1f77b4; stroke: #1f77b4"/>
     <use xlink:href="#mf3ca2177f5" x="133.360382" y="87.462453" style="fill: #1f77b4; stroke: #1f77b4"/>
     <use xlink:href="#mf3ca2177f5" x="134.25808" y="87.350252" style="fill: #1f77b4; stroke: #1f77b4"/>
     <use xlink:href="#mf3ca2177f5" x="135.123265" y="86.314499" style="fill: #1f77b4; stroke: #1f77b4"/>
     <use xlink:href="#mf3ca2177f5" x="135.936657" y="85.523156" style="fill: #1f77b4; stroke: #1f77b4"/>
     <use xlink:href="#mf3ca2177f5" x="136.702805" y="84.219714" style="fill: #1f77b4; stroke: #1f77b4"/>
     <use xlink:href="#mf3ca2177f5" x="137.390761" y="83.50098" style="fill: #1f77b4; stroke: #1f77b4"/>
    </g>
   </g>
   <g id="line2d_13">
    <path d="M 46.965625 154.067472 
L 71.188788 135.283504 
L 89.205696 121.546532 
L 103.651045 111.005168 
L 115.680427 102.213725 
L 126.182618 95.037734 
L 135.045368 89.089212 
L 142.941729 84.118319 
L 150.17938 79.063941 
L 156.450483 75.359838 
L 162.150659 71.457082 
L 167.409146 68.811791 
L 172.407969 65.764239 
L 176.847351 62.702473 
L 180.976338 60.5703 
L 184.966792 58.265857 
L 188.582876 56.64128 
" clip-path="url(#pfff931e132)" style="fill: none; stroke: #ff7f0e; stroke-width: 0.7; stroke-linecap: square"/>
    <defs>
     <path id="mcf20a4d789" d="M 0 0.9 
C 0.238683 0.9 0.467622 0.80517 0.636396 0.636396 
C 0.80517 0.467622 0.9 0.238683 0.9 0 
C 0.9 -0.238683 0.80517 -0.467622 0.636396 -0.636396 
C 0.467622 -0.80517 0.238683 -0.9 0 -0.9 
C -0.238683 -0.9 -0.467622 -0.80517 -0.636396 -0.636396 
C -0.80517 -0.467622 -0.9 -0.238683 -0.9 0 
C -0.9 0.238683 -0.80517 0.467622 -0.636396 0.636396 
C -0.467622 0.80517 -0.238683 0.9 0 0.9 
z
" style="stroke: #ff7f0e"/>
    </defs>
    <g clip-path="url(#pfff931e132)">
     <use xlink:href="#mcf20a4d789" x="46.965625" y="154.067472" style="fill: #ff7f0e; stroke: #ff7f0e"/>
     <use xlink:href="#mcf20a4d789" x="71.188788" y="135.283504" style="fill: #ff7f0e; stroke: #ff7f0e"/>
     <use xlink:href="#mcf20a4d789" x="89.205696" y="121.546532" style="fill: #ff7f0e; stroke: #ff7f0e"/>
     <use xlink:href="#mcf20a4d789" x="103.651045" y="111.005168" style="fill: #ff7f0e; stroke: #ff7f0e"/>
     <use xlink:href="#mcf20a4d789" x="115.680427" y="102.213725" style="fill: #ff7f0e; stroke: #ff7f0e"/>
     <use xlink:href="#mcf20a4d789" x="126.182618" y="95.037734" style="fill: #ff7f0e; stroke: #ff7f0e"/>
     <use xlink:href="#mcf20a4d789" x="135.045368" y="89.089212" style="fill: #ff7f0e; stroke: #ff7f0e"/>
     <use xlink:href="#mcf20a4d789" x="142.941729" y="84.118319" style="fill: #ff7f0e; stroke: #ff7f0e"/>
     <use xlink:href="#mcf20a4d789" x="150.17938" y="79.063941" style="fill: #ff7f0e; stroke: #ff7f0e"/>
     <use xlink:href="#mcf20a4d789" x="156.450483" y="75.359838" style="fill: #ff7f0e; stroke: #ff7f0e"/>
     <use xlink:href="#mcf20a4d789" x="162.150659" y="71.457082" style="fill: #ff7f0e; stroke: #ff7f0e"/>
     <use xlink:href="#mcf20a4d789" x="167.409146" y="68.811791" style="fill: #ff7f0e; stroke: #ff7f0e"/>
     <use xlink:href="#mcf20a4d789" x="172.407969" y="65.764239" style="fill: #ff7f0e; stroke: #ff7f0e"/>
     <use xlink:href="#mcf20a4d789" x="176.847351" y="62.702473" style="fill: #ff7f0e; stroke: #ff7f0e"/>
     <use xlink:href="#mcf20a4d789" x="180.976338" y="60.5703" style="fill: #ff7f0e; stroke: #ff7f0e"/>
     <use xlink:href="#mcf20a4d789" x="184.966792" y="58.265857" style="fill: #ff7f0e; stroke: #ff7f0e"/>
     <use xlink:href="#mcf20a4d789" x="188.582876" y="56.64128" style="fill: #ff7f0e; stroke: #ff7f0e"/>
    </g>
   </g>
   <g id="line2d_14">
    <path d="M 46.965625 154.067472 
L 49.803781 152.213166 
L 52.510696 150.246751 
L 54.967207 148.268367 
L 57.290751 146.596379 
L 59.508683 144.769532 
L 61.532128 143.50023 
L 63.450991 141.558568 
L 65.265808 140.03987 
L 67.056664 139.138597 
L 68.710913 137.705444 
L 70.29866 136.18791 
L 71.870445 135.155603 
L 73.332482 134.365623 
L 74.744755 133.359331 
L 76.098429 131.866137 
L 77.426263 130.46182 
L 78.686117 130.735042 
L 79.91474 129.699932 
L 81.111859 128.912262 
L 82.244092 128.776751 
L 83.339607 127.279141 
L 84.406144 126.498458 
L 85.460754 125.869971 
L 86.453078 124.928063 
L 87.410573 124.342081 
L 88.365666 123.436792 
L 89.261019 123.239722 
L 90.130353 122.706041 
L 90.973866 122.171267 
L 91.815685 121.133449 
L 92.612871 120.933476 
L 93.376026 119.267971 
L 94.140818 119.330749 
L 94.904499 118.664652 
L 95.592289 118.571082 
L 96.289974 118.014574 
L 96.970844 117.985732 
L 97.625002 117.054815 
L 98.281441 116.53288 
L 98.900732 115.756615 
L 99.68856 115.57231 
" clip-path="url(#pfff931e132)" style="fill: none; stroke: #2ca02c; stroke-width: 0.7; stroke-linecap: square"/>
    <defs>
     <path id="m0c4eb7f91a" d="M 0 0.9 
C 0.238683 0.9 0.467622 0.80517 0.636396 0.636396 
C 0.80517 0.467622 0.9 0.238683 0.9 0 
C 0.9 -0.238683 0.80517 -0.467622 0.636396 -0.636396 
C 0.467622 -0.80517 0.238683 -0.9 0 -0.9 
C -0.238683 -0.9 -0.467622 -0.80517 -0.636396 -0.636396 
C -0.80517 -0.467622 -0.9 -0.238683 -0.9 0 
C -0.9 0.238683 -0.80517 0.467622 -0.636396 0.636396 
C -0.467622 0.80517 -0.238683 0.9 0 0.9 
z
" style="stroke: #2ca02c"/>
    </defs>
    <g clip-path="url(#pfff931e132)">
     <use xlink:href="#m0c4eb7f91a" x="46.965625" y="154.067472" style="fill: #2ca02c; stroke: #2ca02c"/>
     <use xlink:href="#m0c4eb7f91a" x="49.803781" y="152.213166" style="fill: #2ca02c; stroke: #2ca02c"/>
     <use xlink:href="#m0c4eb7f91a" x="52.510696" y="150.246751" style="fill: #2ca02c; stroke: #2ca02c"/>
     <use xlink:href="#m0c4eb7f91a" x="54.967207" y="148.268367" style="fill: #2ca02c; stroke: #2ca02c"/>
     <use xlink:href="#m0c4eb7f91a" x="57.290751" y="146.596379" style="fill: #2ca02c; stroke: #2ca02c"/>
     <use xlink:href="#m0c4eb7f91a" x="59.508683" y="144.769532" style="fill: #2ca02c; stroke: #2ca02c"/>
     <use xlink:href="#m0c4eb7f91a" x="61.532128" y="143.50023" style="fill: #2ca02c; stroke: #2ca02c"/>
     <use xlink:href="#m0c4eb7f91a" x="63.450991" y="141.558568" style="fill: #2ca02c; stroke: #2ca02c"/>
     <use xlink:href="#m0c4eb7f91a" x="65.265808" y="140.03987" style="fill: #2ca02c; stroke: #2ca02c"/>
     <use xlink:href="#m0c4eb7f91a" x="67.056664" y="139.138597" style="fill: #2ca02c; stroke: #2ca02c"/>
     <use xlink:href="#m0c4eb7f91a" x="68.710913" y="137.705444" style="fill: #2ca02c; stroke: #2ca02c"/>
     <use xlink:href="#m0c4eb7f91a" x="70.29866" y="136.18791" style="fill: #2ca02c; stroke: #2ca02c"/>
     <use xlink:href="#m0c4eb7f91a" x="71.870445" y="135.155603" style="fill: #2ca02c; stroke: #2ca02c"/>
     <use xlink:href="#m0c4eb7f91a" x="73.332482" y="134.365623" style="fill: #2ca02c; stroke: #2ca02c"/>
     <use xlink:href="#m0c4eb7f91a" x="74.744755" y="133.359331" style="fill: #2ca02c; stroke: #2ca02c"/>
     <use xlink:href="#m0c4eb7f91a" x="76.098429" y="131.866137" style="fill: #2ca02c; stroke: #2ca02c"/>
     <use xlink:href="#m0c4eb7f91a" x="77.426263" y="130.46182" style="fill: #2ca02c; stroke: #2ca02c"/>
     <use xlink:href="#m0c4eb7f91a" x="78.686117" y="130.735042" style="fill: #2ca02c; stroke: #2ca02c"/>
     <use xlink:href="#m0c4eb7f91a" x="79.91474" y="129.699932" style="fill: #2ca02c; stroke: #2ca02c"/>
     <use xlink:href="#m0c4eb7f91a" x="81.111859" y="128.912262" style="fill: #2ca02c; stroke: #2ca02c"/>
     <use xlink:href="#m0c4eb7f91a" x="82.244092" y="128.776751" style="fill: #2ca02c; stroke: #2ca02c"/>
     <use xlink:href="#m0c4eb7f91a" x="83.339607" y="127.279141" style="fill: #2ca02c; stroke: #2ca02c"/>
     <use xlink:href="#m0c4eb7f91a" x="84.406144" y="126.498458" style="fill: #2ca02c; stroke: #2ca02c"/>
     <use xlink:href="#m0c4eb7f91a" x="85.460754" y="125.869971" style="fill: #2ca02c; stroke: #2ca02c"/>
     <use xlink:href="#m0c4eb7f91a" x="86.453078" y="124.928063" style="fill: #2ca02c; stroke: #2ca02c"/>
     <use xlink:href="#m0c4eb7f91a" x="87.410573" y="124.342081" style="fill: #2ca02c; stroke: #2ca02c"/>
     <use xlink:href="#m0c4eb7f91a" x="88.365666" y="123.436792" style="fill: #2ca02c; stroke: #2ca02c"/>
     <use xlink:href="#m0c4eb7f91a" x="89.261019" y="123.239722" style="fill: #2ca02c; stroke: #2ca02c"/>
     <use xlink:href="#m0c4eb7f91a" x="90.130353" y="122.706041" style="fill: #2ca02c; stroke: #2ca02c"/>
     <use xlink:href="#m0c4eb7f91a" x="90.973866" y="122.171267" style="fill: #2ca02c; stroke: #2ca02c"/>
     <use xlink:href="#m0c4eb7f91a" x="91.815685" y="121.133449" style="fill: #2ca02c; stroke: #2ca02c"/>
     <use xlink:href="#m0c4eb7f91a" x="92.612871" y="120.933476" style="fill: #2ca02c; stroke: #2ca02c"/>
     <use xlink:href="#m0c4eb7f91a" x="93.376026" y="119.267971" style="fill: #2ca02c; stroke: #2ca02c"/>
     <use xlink:href="#m0c4eb7f91a" x="94.140818" y="119.330749" style="fill: #2ca02c; stroke: #2ca02c"/>
     <use xlink:href="#m0c4eb7f91a" x="94.904499" y="118.664652" style="fill: #2ca02c; stroke: #2ca02c"/>
     <use xlink:href="#m0c4eb7f91a" x="95.592289" y="118.571082" style="fill: #2ca02c; stroke: #2ca02c"/>
     <use xlink:href="#m0c4eb7f91a" x="96.289974" y="118.014574" style="fill: #2ca02c; stroke: #2ca02c"/>
     <use xlink:href="#m0c4eb7f91a" x="96.970844" y="117.985732" style="fill: #2ca02c; stroke: #2ca02c"/>
     <use xlink:href="#m0c4eb7f91a" x="97.625002" y="117.054815" style="fill: #2ca02c; stroke: #2ca02c"/>
     <use xlink:href="#m0c4eb7f91a" x="98.281441" y="116.53288" style="fill: #2ca02c; stroke: #2ca02c"/>
     <use xlink:href="#m0c4eb7f91a" x="98.900732" y="115.756615" style="fill: #2ca02c; stroke: #2ca02c"/>
     <use xlink:href="#m0c4eb7f91a" x="99.68856" y="115.57231" style="fill: #2ca02c; stroke: #2ca02c"/>
    </g>
   </g>
   <g id="line2d_15">
    <path d="M 46.965625 154.067472 
L 56.24505 146.564189 
L 62.674859 141.217923 
L 67.70227 136.973657 
L 72.50553 133.607882 
L 75.289504 131.340551 
L 77.876722 129.520898 
L 80.091804 128.609085 
L 81.938672 127.077442 
L 83.520467 125.997135 
L 84.866918 125.335182 
L 85.959734 124.559313 
L 86.882824 123.695646 
L 87.72688 123.566473 
L 88.482477 123.284057 
L 89.116421 122.304425 
L 89.608979 122.362241 
L 90.081189 122.153075 
L 90.561561 122.046049 
L 90.974052 121.543905 
" clip-path="url(#pfff931e132)" style="fill: none; stroke: #d62728; stroke-width: 0.7; stroke-linecap: square"/>
    <defs>
     <path id="m8add5dbbc2" d="M 0 0.9 
C 0.238683 0.9 0.467622 0.80517 0.636396 0.636396 
C 0.80517 0.467622 0.9 0.238683 0.9 0 
C 0.9 -0.238683 0.80517 -0.467622 0.636396 -0.636396 
C 0.467622 -0.80517 0.238683 -0.9 0 -0.9 
C -0.238683 -0.9 -0.467622 -0.80517 -0.636396 -0.636396 
C -0.80517 -0.467622 -0.9 -0.238683 -0.9 0 
C -0.9 0.238683 -0.80517 0.467622 -0.636396 0.636396 
C -0.467622 0.80517 -0.238683 0.9 0 0.9 
z
" style="stroke: #d62728"/>
    </defs>
    <g clip-path="url(#pfff931e132)">
     <use xlink:href="#m8add5dbbc2" x="46.965625" y="154.067472" style="fill: #d62728; stroke: #d62728"/>
     <use xlink:href="#m8add5dbbc2" x="56.24505" y="146.564189" style="fill: #d62728; stroke: #d62728"/>
     <use xlink:href="#m8add5dbbc2" x="62.674859" y="141.217923" style="fill: #d62728; stroke: #d62728"/>
     <use xlink:href="#m8add5dbbc2" x="67.70227" y="136.973657" style="fill: #d62728; stroke: #d62728"/>
     <use xlink:href="#m8add5dbbc2" x="72.50553" y="133.607882" style="fill: #d62728; stroke: #d62728"/>
     <use xlink:href="#m8add5dbbc2" x="75.289504" y="131.340551" style="fill: #d62728; stroke: #d62728"/>
     <use xlink:href="#m8add5dbbc2" x="77.876722" y="129.520898" style="fill: #d62728; stroke: #d62728"/>
     <use xlink:href="#m8add5dbbc2" x="80.091804" y="128.609085" style="fill: #d62728; stroke: #d62728"/>
     <use xlink:href="#m8add5dbbc2" x="81.938672" y="127.077442" style="fill: #d62728; stroke: #d62728"/>
     <use xlink:href="#m8add5dbbc2" x="83.520467" y="125.997135" style="fill: #d62728; stroke: #d62728"/>
     <use xlink:href="#m8add5dbbc2" x="84.866918" y="125.335182" style="fill: #d62728; stroke: #d62728"/>
     <use xlink:href="#m8add5dbbc2" x="85.959734" y="124.559313" style="fill: #d62728; stroke: #d62728"/>
     <use xlink:href="#m8add5dbbc2" x="86.882824" y="123.695646" style="fill: #d62728; stroke: #d62728"/>
     <use xlink:href="#m8add5dbbc2" x="87.72688" y="123.566473" style="fill: #d62728; stroke: #d62728"/>
     <use xlink:href="#m8add5dbbc2" x="88.482477" y="123.284057" style="fill: #d62728; stroke: #d62728"/>
     <use xlink:href="#m8add5dbbc2" x="89.116421" y="122.304425" style="fill: #d62728; stroke: #d62728"/>
     <use xlink:href="#m8add5dbbc2" x="89.608979" y="122.362241" style="fill: #d62728; stroke: #d62728"/>
     <use xlink:href="#m8add5dbbc2" x="90.081189" y="122.153075" style="fill: #d62728; stroke: #d62728"/>
     <use xlink:href="#m8add5dbbc2" x="90.561561" y="122.046049" style="fill: #d62728; stroke: #d62728"/>
     <use xlink:href="#m8add5dbbc2" x="90.974052" y="121.543905" style="fill: #d62728; stroke: #d62728"/>
    </g>
   </g>
   <g id="line2d_16">
    <path d="M 46.965625 154.067472 
L 58.152881 151.738248 
L 73.294207 140.578764 
L 83.986318 132.299824 
L 92.407811 125.761169 
L 99.067668 119.069388 
L 104.621979 114.238442 
L 109.178872 110.154234 
L 113.124411 107.656172 
L 116.677052 104.188991 
L 119.707085 101.970252 
L 122.421665 99.701579 
L 124.863082 96.724983 
L 126.913446 94.359221 
L 128.715282 92.613441 
L 130.395926 91.141989 
L 131.85173 89.090214 
L 133.136599 87.531371 
L 134.335046 86.386721 
L 135.397249 85.411341 
L 136.336971 83.354994 
L 137.181602 82.242914 
L 137.92505 81.160288 
L 138.582083 79.763929 
L 139.17383 78.473875 
L 139.666994 77.102689 
L 140.130006 77.385782 
L 140.559834 75.47172 
L 140.894026 74.000629 
L 141.202697 74.358329 
L 141.491926 73.054417 
L 141.763366 73.140435 
L 142.003966 71.999098 
" clip-path="url(#pfff931e132)" style="fill: none; stroke: #9467bd; stroke-width: 0.7; stroke-linecap: square"/>
    <defs>
     <path id="mcf337df711" d="M 0 0.9 
C 0.238683 0.9 0.467622 0.80517 0.636396 0.636396 
C 0.80517 0.467622 0.9 0.238683 0.9 0 
C 0.9 -0.238683 0.80517 -0.467622 0.636396 -0.636396 
C 0.467622 -0.80517 0.238683 -0.9 0 -0.9 
C -0.238683 -0.9 -0.467622 -0.80517 -0.636396 -0.636396 
C -0.80517 -0.467622 -0.9 -0.238683 -0.9 0 
C -0.9 0.238683 -0.80517 0.467622 -0.636396 0.636396 
C -0.467622 0.80517 -0.238683 0.9 0 0.9 
z
" style="stroke: #9467bd"/>
    </defs>
    <g clip-path="url(#pfff931e132)">
     <use xlink:href="#mcf337df711" x="46.965625" y="154.067472" style="fill: #9467bd; stroke: #9467bd"/>
     <use xlink:href="#mcf337df711" x="58.152881" y="151.738248" style="fill: #9467bd; stroke: #9467bd"/>
     <use xlink:href="#mcf337df711" x="73.294207" y="140.578764" style="fill: #9467bd; stroke: #9467bd"/>
     <use xlink:href="#mcf337df711" x="83.986318" y="132.299824" style="fill: #9467bd; stroke: #9467bd"/>
     <use xlink:href="#mcf337df711" x="92.407811" y="125.761169" style="fill: #9467bd; stroke: #9467bd"/>
     <use xlink:href="#mcf337df711" x="99.067668" y="119.069388" style="fill: #9467bd; stroke: #9467bd"/>
     <use xlink:href="#mcf337df711" x="104.621979" y="114.238442" style="fill: #9467bd; stroke: #9467bd"/>
     <use xlink:href="#mcf337df711" x="109.178872" y="110.154234" style="fill: #9467bd; stroke: #9467bd"/>
     <use xlink:href="#mcf337df711" x="113.124411" y="107.656172" style="fill: #9467bd; stroke: #9467bd"/>
     <use xlink:href="#mcf337df711" x="116.677052" y="104.188991" style="fill: #9467bd; stroke: #9467bd"/>
     <use xlink:href="#mcf337df711" x="119.707085" y="101.970252" style="fill: #9467bd; stroke: #9467bd"/>
     <use xlink:href="#mcf337df711" x="122.421665" y="99.701579" style="fill: #9467bd; stroke: #9467bd"/>
     <use xlink:href="#mcf337df711" x="124.863082" y="96.724983" style="fill: #9467bd; stroke: #9467bd"/>
     <use xlink:href="#mcf337df711" x="126.913446" y="94.359221" style="fill: #9467bd; stroke: #9467bd"/>
     <use xlink:href="#mcf337df711" x="128.715282" y="92.613441" style="fill: #9467bd; stroke: #9467bd"/>
     <use xlink:href="#mcf337df711" x="130.395926" y="91.141989" style="fill: #9467bd; stroke: #9467bd"/>
     <use xlink:href="#mcf337df711" x="131.85173" y="89.090214" style="fill: #9467bd; stroke: #9467bd"/>
     <use xlink:href="#mcf337df711" x="133.136599" y="87.531371" style="fill: #9467bd; stroke: #9467bd"/>
     <use xlink:href="#mcf337df711" x="134.335046" y="86.386721" style="fill: #9467bd; stroke: #9467bd"/>
     <use xlink:href="#mcf337df711" x="135.397249" y="85.411341" style="fill: #9467bd; stroke: #9467bd"/>
     <use xlink:href="#mcf337df711" x="136.336971" y="83.354994" style="fill: #9467bd; stroke: #9467bd"/>
     <use xlink:href="#mcf337df711" x="137.181602" y="82.242914" style="fill: #9467bd; stroke: #9467bd"/>
     <use xlink:href="#mcf337df711" x="137.92505" y="81.160288" style="fill: #9467bd; stroke: #9467bd"/>
     <use xlink:href="#mcf337df711" x="138.582083" y="79.763929" style="fill: #9467bd; stroke: #9467bd"/>
     <use xlink:href="#mcf337df711" x="139.17383" y="78.473875" style="fill: #9467bd; stroke: #9467bd"/>
     <use xlink:href="#mcf337df711" x="139.666994" y="77.102689" style="fill: #9467bd; stroke: #9467bd"/>
     <use xlink:href="#mcf337df711" x="140.130006" y="77.385782" style="fill: #9467bd; stroke: #9467bd"/>
     <use xlink:href="#mcf337df711" x="140.559834" y="75.47172" style="fill: #9467bd; stroke: #9467bd"/>
     <use xlink:href="#mcf337df711" x="140.894026" y="74.000629" style="fill: #9467bd; stroke: #9467bd"/>
     <use xlink:href="#mcf337df711" x="141.202697" y="74.358329" style="fill: #9467bd; stroke: #9467bd"/>
     <use xlink:href="#mcf337df711" x="141.491926" y="73.054417" style="fill: #9467bd; stroke: #9467bd"/>
     <use xlink:href="#mcf337df711" x="141.763366" y="73.140435" style="fill: #9467bd; stroke: #9467bd"/>
     <use xlink:href="#mcf337df711" x="142.003966" y="71.999098" style="fill: #9467bd; stroke: #9467bd"/>
    </g>
   </g>
   <g id="line2d_17">
    <path d="M 46.965625 154.067472 
L 87.298142 124.911462 
L 114.184253 104.76635 
L 134.187703 88.638148 
L 150.113724 76.231291 
L 162.429947 65.568113 
L 172.418045 56.647105 
L 180.982058 50.072224 
L 187.993132 42.524027 
L 194.007253 37.486244 
L 199.20795 32.143498 
L 203.887872 27.750777 
L 207.903708 24.747035 
L 211.574822 22.096892 
L 214.961471 17.844221 
L 217.914089 15.551294 
" clip-path="url(#pfff931e132)" style="fill: none; stroke: #8c564b; stroke-width: 0.7; stroke-linecap: square"/>
    <defs>
     <path id="m1711a28e23" d="M 0 0.9 
C 0.238683 0.9 0.467622 0.80517 0.636396 0.636396 
C 0.80517 0.467622 0.9 0.238683 0.9 0 
C 0.9 -0.238683 0.80517 -0.467622 0.636396 -0.636396 
C 0.467622 -0.80517 0.238683 -0.9 0 -0.9 
C -0.238683 -0.9 -0.467622 -0.80517 -0.636396 -0.636396 
C -0.80517 -0.467622 -0.9 -0.238683 -0.9 0 
C -0.9 0.238683 -0.80517 0.467622 -0.636396 0.636396 
C -0.467622 0.80517 -0.238683 0.9 0 0.9 
z
" style="stroke: #8c564b"/>
    </defs>
    <g clip-path="url(#pfff931e132)">
     <use xlink:href="#m1711a28e23" x="46.965625" y="154.067472" style="fill: #8c564b; stroke: #8c564b"/>
     <use xlink:href="#m1711a28e23" x="87.298142" y="124.911462" style="fill: #8c564b; stroke: #8c564b"/>
     <use xlink:href="#m1711a28e23" x="114.184253" y="104.76635" style="fill: #8c564b; stroke: #8c564b"/>
     <use xlink:href="#m1711a28e23" x="134.187703" y="88.638148" style="fill: #8c564b; stroke: #8c564b"/>
     <use xlink:href="#m1711a28e23" x="150.113724" y="76.231291" style="fill: #8c564b; stroke: #8c564b"/>
     <use xlink:href="#m1711a28e23" x="162.429947" y="65.568113" style="fill: #8c564b; stroke: #8c564b"/>
     <use xlink:href="#m1711a28e23" x="172.418045" y="56.647105" style="fill: #8c564b; stroke: #8c564b"/>
     <use xlink:href="#m1711a28e23" x="180.982058" y="50.072224" style="fill: #8c564b; stroke: #8c564b"/>
     <use xlink:href="#m1711a28e23" x="187.993132" y="42.524027" style="fill: #8c564b; stroke: #8c564b"/>
     <use xlink:href="#m1711a28e23" x="194.007253" y="37.486244" style="fill: #8c564b; stroke: #8c564b"/>
     <use xlink:href="#m1711a28e23" x="199.20795" y="32.143498" style="fill: #8c564b; stroke: #8c564b"/>
     <use xlink:href="#m1711a28e23" x="203.887872" y="27.750777" style="fill: #8c564b; stroke: #8c564b"/>
     <use xlink:href="#m1711a28e23" x="207.903708" y="24.747035" style="fill: #8c564b; stroke: #8c564b"/>
     <use xlink:href="#m1711a28e23" x="211.574822" y="22.096892" style="fill: #8c564b; stroke: #8c564b"/>
     <use xlink:href="#m1711a28e23" x="214.961471" y="17.844221" style="fill: #8c564b; stroke: #8c564b"/>
     <use xlink:href="#m1711a28e23" x="217.914089" y="15.551294" style="fill: #8c564b; stroke: #8c564b"/>
    </g>
   </g>
   <g id="line2d_18">
    <path d="M 46.965625 154.067472 
L 49.869132 155.88584 
L 52.590815 152.792584 
L 55.094728 151.478029 
L 57.511108 149.806399 
L 59.725327 148.266322 
L 61.844147 147.059033 
L 63.918613 146.255544 
L 65.836192 144.580806 
L 67.676953 143.971092 
L 69.50944 142.760442 
L 71.21744 142.409937 
L 72.81784 139.445268 
L 74.322478 138.089071 
L 75.714553 137.049745 
L 77.058273 136.511786 
L 78.350074 135.176099 
L 79.5911 133.7951 
L 80.711754 132.155265 
L 81.7792 131.577583 
L 82.818459 129.981972 
L 83.771847 128.953906 
L 84.680141 128.08823 
L 85.572123 127.590393 
L 86.406782 126.693273 
L 87.18075 125.01471 
L 87.940845 124.989407 
L 88.647681 123.7097 
L 89.330082 123.602146 
L 90.008479 123.858563 
L 90.685371 122.561906 
" clip-path="url(#pfff931e132)" style="fill: none; stroke: #e377c2; stroke-width: 0.7; stroke-linecap: square"/>
    <defs>
     <path id="m34a54a1da4" d="M 0 0.9 
C 0.238683 0.9 0.467622 0.80517 0.636396 0.636396 
C 0.80517 0.467622 0.9 0.238683 0.9 0 
C 0.9 -0.238683 0.80517 -0.467622 0.636396 -0.636396 
C 0.467622 -0.80517 0.238683 -0.9 0 -0.9 
C -0.238683 -0.9 -0.467622 -0.80517 -0.636396 -0.636396 
C -0.80517 -0.467622 -0.9 -0.238683 -0.9 0 
C -0.9 0.238683 -0.80517 0.467622 -0.636396 0.636396 
C -0.467622 0.80517 -0.238683 0.9 0 0.9 
z
" style="stroke: #e377c2"/>
    </defs>
    <g clip-path="url(#pfff931e132)">
     <use xlink:href="#m34a54a1da4" x="46.965625" y="154.067472" style="fill: #e377c2; stroke: #e377c2"/>
     <use xlink:href="#m34a54a1da4" x="49.869132" y="155.88584" style="fill: #e377c2; stroke: #e377c2"/>
     <use xlink:href="#m34a54a1da4" x="52.590815" y="152.792584" style="fill: #e377c2; stroke: #e377c2"/>
     <use xlink:href="#m34a54a1da4" x="55.094728" y="151.478029" style="fill: #e377c2; stroke: #e377c2"/>
     <use xlink:href="#m34a54a1da4" x="57.511108" y="149.806399" style="fill: #e377c2; stroke: #e377c2"/>
     <use xlink:href="#m34a54a1da4" x="59.725327" y="148.266322" style="fill: #e377c2; stroke: #e377c2"/>
     <use xlink:href="#m34a54a1da4" x="61.844147" y="147.059033" style="fill: #e377c2; stroke: #e377c2"/>
     <use xlink:href="#m34a54a1da4" x="63.918613" y="146.255544" style="fill: #e377c2; stroke: #e377c2"/>
     <use xlink:href="#m34a54a1da4" x="65.836192" y="144.580806" style="fill: #e377c2; stroke: #e377c2"/>
     <use xlink:href="#m34a54a1da4" x="67.676953" y="143.971092" style="fill: #e377c2; stroke: #e377c2"/>
     <use xlink:href="#m34a54a1da4" x="69.50944" y="142.760442" style="fill: #e377c2; stroke: #e377c2"/>
     <use xlink:href="#m34a54a1da4" x="71.21744" y="142.409937" style="fill: #e377c2; stroke: #e377c2"/>
     <use xlink:href="#m34a54a1da4" x="72.81784" y="139.445268" style="fill: #e377c2; stroke: #e377c2"/>
     <use xlink:href="#m34a54a1da4" x="74.322478" y="138.089071" style="fill: #e377c2; stroke: #e377c2"/>
     <use xlink:href="#m34a54a1da4" x="75.714553" y="137.049745" style="fill: #e377c2; stroke: #e377c2"/>
     <use xlink:href="#m34a54a1da4" x="77.058273" y="136.511786" style="fill: #e377c2; stroke: #e377c2"/>
     <use xlink:href="#m34a54a1da4" x="78.350074" y="135.176099" style="fill: #e377c2; stroke: #e377c2"/>
     <use xlink:href="#m34a54a1da4" x="79.5911" y="133.7951" style="fill: #e377c2; stroke: #e377c2"/>
     <use xlink:href="#m34a54a1da4" x="80.711754" y="132.155265" style="fill: #e377c2; stroke: #e377c2"/>
     <use xlink:href="#m34a54a1da4" x="81.7792" y="131.577583" style="fill: #e377c2; stroke: #e377c2"/>
     <use xlink:href="#m34a54a1da4" x="82.818459" y="129.981972" style="fill: #e377c2; stroke: #e377c2"/>
     <use xlink:href="#m34a54a1da4" x="83.771847" y="128.953906" style="fill: #e377c2; stroke: #e377c2"/>
     <use xlink:href="#m34a54a1da4" x="84.680141" y="128.08823" style="fill: #e377c2; stroke: #e377c2"/>
     <use xlink:href="#m34a54a1da4" x="85.572123" y="127.590393" style="fill: #e377c2; stroke: #e377c2"/>
     <use xlink:href="#m34a54a1da4" x="86.406782" y="126.693273" style="fill: #e377c2; stroke: #e377c2"/>
     <use xlink:href="#m34a54a1da4" x="87.18075" y="125.01471" style="fill: #e377c2; stroke: #e377c2"/>
     <use xlink:href="#m34a54a1da4" x="87.940845" y="124.989407" style="fill: #e377c2; stroke: #e377c2"/>
     <use xlink:href="#m34a54a1da4" x="88.647681" y="123.7097" style="fill: #e377c2; stroke: #e377c2"/>
     <use xlink:href="#m34a54a1da4" x="89.330082" y="123.602146" style="fill: #e377c2; stroke: #e377c2"/>
     <use xlink:href="#m34a54a1da4" x="90.008479" y="123.858563" style="fill: #e377c2; stroke: #e377c2"/>
     <use xlink:href="#m34a54a1da4" x="90.685371" y="122.561906" style="fill: #e377c2; stroke: #e377c2"/>
    </g>
   </g>
   <g id="line2d_19">
    <path d="M 46.965625 154.067472 
L 80.664221 127.248629 
L 102.918308 109.753879 
L 117.923247 97.385751 
L 129.127325 88.490111 
L 138.037228 81.896103 
L 144.89982 77.336628 
L 150.467266 72.491001 
L 155.061033 69.565829 
L 158.69081 66.033252 
L 161.706196 63.722738 
L 164.195312 61.993328 
L 166.310896 59.805185 
L 168.086528 58.885176 
L 169.678866 57.746987 
L 171.058706 56.86042 
L 172.191614 55.633146 
L 173.216047 55.038878 
L 174.164327 54.917099 
L 174.99254 53.802292 
L 175.699949 53.442475 
L 176.373059 52.967572 
L 176.953969 52.346777 
L 177.399599 51.982798 
L 177.831569 52.799941 
L 178.251602 52.035606 
L 178.570135 52.498517 
L 178.918035 51.687817 
L 179.228865 51.625843 
L 179.532137 50.799411 
L 179.840754 50.716617 
L 180.065942 50.653575 
L 180.324337 51.171954 
L 180.565087 50.913154 
" clip-path="url(#pfff931e132)" style="fill: none; stroke: #7f7f7f; stroke-width: 0.7; stroke-linecap: square"/>
    <defs>
     <path id="ma1ff795ce6" d="M 0 0.9 
C 0.238683 0.9 0.467622 0.80517 0.636396 0.636396 
C 0.80517 0.467622 0.9 0.238683 0.9 0 
C 0.9 -0.238683 0.80517 -0.467622 0.636396 -0.636396 
C 0.467622 -0.80517 0.238683 -0.9 0 -0.9 
C -0.238683 -0.9 -0.467622 -0.80517 -0.636396 -0.636396 
C -0.80517 -0.467622 -0.9 -0.238683 -0.9 0 
C -0.9 0.238683 -0.80517 0.467622 -0.636396 0.636396 
C -0.467622 0.80517 -0.238683 0.9 0 0.9 
z
" style="stroke: #7f7f7f"/>
    </defs>
    <g clip-path="url(#pfff931e132)">
     <use xlink:href="#ma1ff795ce6" x="46.965625" y="154.067472" style="fill: #7f7f7f; stroke: #7f7f7f"/>
     <use xlink:href="#ma1ff795ce6" x="80.664221" y="127.248629" style="fill: #7f7f7f; stroke: #7f7f7f"/>
     <use xlink:href="#ma1ff795ce6" x="102.918308" y="109.753879" style="fill: #7f7f7f; stroke: #7f7f7f"/>
     <use xlink:href="#ma1ff795ce6" x="117.923247" y="97.385751" style="fill: #7f7f7f; stroke: #7f7f7f"/>
     <use xlink:href="#ma1ff795ce6" x="129.127325" y="88.490111" style="fill: #7f7f7f; stroke: #7f7f7f"/>
     <use xlink:href="#ma1ff795ce6" x="138.037228" y="81.896103" style="fill: #7f7f7f; stroke: #7f7f7f"/>
     <use xlink:href="#ma1ff795ce6" x="144.89982" y="77.336628" style="fill: #7f7f7f; stroke: #7f7f7f"/>
     <use xlink:href="#ma1ff795ce6" x="150.467266" y="72.491001" style="fill: #7f7f7f; stroke: #7f7f7f"/>
     <use xlink:href="#ma1ff795ce6" x="155.061033" y="69.565829" style="fill: #7f7f7f; stroke: #7f7f7f"/>
     <use xlink:href="#ma1ff795ce6" x="158.69081" y="66.033252" style="fill: #7f7f7f; stroke: #7f7f7f"/>
     <use xlink:href="#ma1ff795ce6" x="161.706196" y="63.722738" style="fill: #7f7f7f; stroke: #7f7f7f"/>
     <use xlink:href="#ma1ff795ce6" x="164.195312" y="61.993328" style="fill: #7f7f7f; stroke: #7f7f7f"/>
     <use xlink:href="#ma1ff795ce6" x="166.310896" y="59.805185" style="fill: #7f7f7f; stroke: #7f7f7f"/>
     <use xlink:href="#ma1ff795ce6" x="168.086528" y="58.885176" style="fill: #7f7f7f; stroke: #7f7f7f"/>
     <use xlink:href="#ma1ff795ce6" x="169.678866" y="57.746987" style="fill: #7f7f7f; stroke: #7f7f7f"/>
     <use xlink:href="#ma1ff795ce6" x="171.058706" y="56.86042" style="fill: #7f7f7f; stroke: #7f7f7f"/>
     <use xlink:href="#ma1ff795ce6" x="172.191614" y="55.633146" style="fill: #7f7f7f; stroke: #7f7f7f"/>
     <use xlink:href="#ma1ff795ce6" x="173.216047" y="55.038878" style="fill: #7f7f7f; stroke: #7f7f7f"/>
     <use xlink:href="#ma1ff795ce6" x="174.164327" y="54.917099" style="fill: #7f7f7f; stroke: #7f7f7f"/>
     <use xlink:href="#ma1ff795ce6" x="174.99254" y="53.802292" style="fill: #7f7f7f; stroke: #7f7f7f"/>
     <use xlink:href="#ma1ff795ce6" x="175.699949" y="53.442475" style="fill: #7f7f7f; stroke: #7f7f7f"/>
     <use xlink:href="#ma1ff795ce6" x="176.373059" y="52.967572" style="fill: #7f7f7f; stroke: #7f7f7f"/>
     <use xlink:href="#ma1ff795ce6" x="176.953969" y="52.346777" style="fill: #7f7f7f; stroke: #7f7f7f"/>
     <use xlink:href="#ma1ff795ce6" x="177.399599" y="51.982798" style="fill: #7f7f7f; stroke: #7f7f7f"/>
     <use xlink:href="#ma1ff795ce6" x="177.831569" y="52.799941" style="fill: #7f7f7f; stroke: #7f7f7f"/>
     <use xlink:href="#ma1ff795ce6" x="178.251602" y="52.035606" style="fill: #7f7f7f; stroke: #7f7f7f"/>
     <use xlink:href="#ma1ff795ce6" x="178.570135" y="52.498517" style="fill: #7f7f7f; stroke: #7f7f7f"/>
     <use xlink:href="#ma1ff795ce6" x="178.918035" y="51.687817" style="fill: #7f7f7f; stroke: #7f7f7f"/>
     <use xlink:href="#ma1ff795ce6" x="179.228865" y="51.625843" style="fill: #7f7f7f; stroke: #7f7f7f"/>
     <use xlink:href="#ma1ff795ce6" x="179.532137" y="50.799411" style="fill: #7f7f7f; stroke: #7f7f7f"/>
     <use xlink:href="#ma1ff795ce6" x="179.840754" y="50.716617" style="fill: #7f7f7f; stroke: #7f7f7f"/>
     <use xlink:href="#ma1ff795ce6" x="180.065942" y="50.653575" style="fill: #7f7f7f; stroke: #7f7f7f"/>
     <use xlink:href="#ma1ff795ce6" x="180.324337" y="51.171954" style="fill: #7f7f7f; stroke: #7f7f7f"/>
     <use xlink:href="#ma1ff795ce6" x="180.565087" y="50.913154" style="fill: #7f7f7f; stroke: #7f7f7f"/>
    </g>
   </g>
   <g id="patch_3">
    <path d="M 46.965625 162.902567 
L 46.965625 8.534567 
" style="fill: none; stroke: #000000; stroke-width: 0.8; stroke-linejoin: miter; stroke-linecap: square"/>
   </g>
   <g id="patch_4">
    <path d="M 226.461512 162.902567 
L 226.461512 8.534567 
" style="fill: none; stroke: #000000; stroke-width: 0.8; stroke-linejoin: miter; stroke-linecap: square"/>
   </g>
   <g id="patch_5">
    <path d="M 46.965625 162.902567 
L 226.461512 162.902567 
" style="fill: none; stroke: #000000; stroke-width: 0.8; stroke-linejoin: miter; stroke-linecap: square"/>
   </g>
   <g id="patch_6">
    <path d="M 46.965625 8.534567 
L 226.461512 8.534567 
" style="fill: none; stroke: #000000; stroke-width: 0.8; stroke-linejoin: miter; stroke-linecap: square"/>
   </g>
   <g id="legend_1">
    <g id="patch_7">
     <path d="M 233.461512 147.043567 
L 356.850575 147.043567 
Q 358.850575 147.043567 358.850575 145.043567 
L 358.850575 26.393567 
Q 358.850575 24.393567 356.850575 24.393567 
L 233.461512 24.393567 
Q 231.461512 24.393567 231.461512 26.393567 
L 231.461512 145.043567 
Q 231.461512 147.043567 233.461512 147.043567 
z
" style="fill: #ffffff; opacity: 0.8; stroke: #cccccc; stroke-linejoin: miter"/>
    </g>
    <g id="line2d_20">
     <path d="M 235.461512 32.492004 
L 245.461512 32.492004 
L 255.461512 32.492004 
" style="fill: none; stroke: #1f77b4; stroke-width: 0.7; stroke-linecap: square"/>
     <g>
      <use xlink:href="#mf3ca2177f5" x="245.461512" y="32.492004" style="fill: #1f77b4; stroke: #1f77b4"/>
     </g>
    </g>
    <g id="text_15">
     <!-- C2_E7a Addition 1 -->
     <g transform="translate(263.461513 35.992004) scale(0.1 -0.1)">
      <defs>
       <path id="DejaVuSans-43" d="M 4122 4306 
L 4122 3641 
Q 3803 3938 3442 4084 
Q 3081 4231 2675 4231 
Q 1875 4231 1450 3742 
Q 1025 3253 1025 2328 
Q 1025 1406 1450 917 
Q 1875 428 2675 428 
Q 3081 428 3442 575 
Q 3803 722 4122 1019 
L 4122 359 
Q 3791 134 3420 21 
Q 3050 -91 2638 -91 
Q 1578 -91 968 557 
Q 359 1206 359 2328 
Q 359 3453 968 4101 
Q 1578 4750 2638 4750 
Q 3056 4750 3426 4639 
Q 3797 4528 4122 4306 
z
" transform="scale(0.015625)"/>
       <path id="DejaVuSans-5f" d="M 3263 -1063 
L 3263 -1509 
L -63 -1509 
L -63 -1063 
L 3263 -1063 
z
" transform="scale(0.015625)"/>
       <path id="DejaVuSans-45" d="M 628 4666 
L 3578 4666 
L 3578 4134 
L 1259 4134 
L 1259 2753 
L 3481 2753 
L 3481 2222 
L 1259 2222 
L 1259 531 
L 3634 531 
L 3634 0 
L 628 0 
L 628 4666 
z
" transform="scale(0.015625)"/>
       <path id="DejaVuSans-37" d="M 525 4666 
L 3525 4666 
L 3525 4397 
L 1831 0 
L 1172 0 
L 2766 4134 
L 525 4134 
L 525 4666 
z
" transform="scale(0.015625)"/>
       <path id="DejaVuSans-61" d="M 2194 1759 
Q 1497 1759 1228 1600 
Q 959 1441 959 1056 
Q 959 750 1161 570 
Q 1363 391 1709 391 
Q 2188 391 2477 730 
Q 2766 1069 2766 1631 
L 2766 1759 
L 2194 1759 
z
M 3341 1997 
L 3341 0 
L 2766 0 
L 2766 531 
Q 2569 213 2275 61 
Q 1981 -91 1556 -91 
Q 1019 -91 701 211 
Q 384 513 384 1019 
Q 384 1609 779 1909 
Q 1175 2209 1959 2209 
L 2766 2209 
L 2766 2266 
Q 2766 2663 2505 2880 
Q 2244 3097 1772 3097 
Q 1472 3097 1187 3025 
Q 903 2953 641 2809 
L 641 3341 
Q 956 3463 1253 3523 
Q 1550 3584 1831 3584 
Q 2591 3584 2966 3190 
Q 3341 2797 3341 1997 
z
" transform="scale(0.015625)"/>
       <path id="DejaVuSans-41" d="M 2188 4044 
L 1331 1722 
L 3047 1722 
L 2188 4044 
z
M 1831 4666 
L 2547 4666 
L 4325 0 
L 3669 0 
L 3244 1197 
L 1141 1197 
L 716 0 
L 50 0 
L 1831 4666 
z
" transform="scale(0.015625)"/>
       <path id="DejaVuSans-6e" d="M 3513 2113 
L 3513 0 
L 2938 0 
L 2938 2094 
Q 2938 2591 2744 2837 
Q 2550 3084 2163 3084 
Q 1697 3084 1428 2787 
Q 1159 2491 1159 1978 
L 1159 0 
L 581 0 
L 581 3500 
L 1159 3500 
L 1159 2956 
Q 1366 3272 1645 3428 
Q 1925 3584 2291 3584 
Q 2894 3584 3203 3211 
Q 3513 2838 3513 2113 
z
" transform="scale(0.015625)"/>
      </defs>
      <use xlink:href="#DejaVuSans-43"/>
      <use xlink:href="#DejaVuSans-32" transform="translate(69.824219 0)"/>
      <use xlink:href="#DejaVuSans-5f" transform="translate(133.447266 0)"/>
      <use xlink:href="#DejaVuSans-45" transform="translate(183.447266 0)"/>
      <use xlink:href="#DejaVuSans-37" transform="translate(246.630859 0)"/>
      <use xlink:href="#DejaVuSans-61" transform="translate(310.253906 0)"/>
      <use xlink:href="#DejaVuSans-20" transform="translate(371.533203 0)"/>
      <use xlink:href="#DejaVuSans-41" transform="translate(403.320312 0)"/>
      <use xlink:href="#DejaVuSans-64" transform="translate(469.978516 0)"/>
      <use xlink:href="#DejaVuSans-64" transform="translate(533.455078 0)"/>
      <use xlink:href="#DejaVuSans-69" transform="translate(596.931641 0)"/>
      <use xlink:href="#DejaVuSans-74" transform="translate(624.714844 0)"/>
      <use xlink:href="#DejaVuSans-69" transform="translate(663.923828 0)"/>
      <use xlink:href="#DejaVuSans-6f" transform="translate(691.707031 0)"/>
      <use xlink:href="#DejaVuSans-6e" transform="translate(752.888672 0)"/>
      <use xlink:href="#DejaVuSans-20" transform="translate(816.267578 0)"/>
      <use xlink:href="#DejaVuSans-31" transform="translate(848.054688 0)"/>
     </g>
    </g>
    <g id="line2d_21">
     <path d="M 235.461512 47.448254 
L 245.461512 47.448254 
L 255.461512 47.448254 
" style="fill: none; stroke: #ff7f0e; stroke-width: 0.7; stroke-linecap: square"/>
     <g>
      <use xlink:href="#mcf20a4d789" x="245.461512" y="47.448254" style="fill: #ff7f0e; stroke: #ff7f0e"/>
     </g>
    </g>
    <g id="text_16">
     <!-- C2_E7a Addition 2 -->
     <g transform="translate(263.461513 50.948254) scale(0.1 -0.1)">
      <use xlink:href="#DejaVuSans-43"/>
      <use xlink:href="#DejaVuSans-32" transform="translate(69.824219 0)"/>
      <use xlink:href="#DejaVuSans-5f" transform="translate(133.447266 0)"/>
      <use xlink:href="#DejaVuSans-45" transform="translate(183.447266 0)"/>
      <use xlink:href="#DejaVuSans-37" transform="translate(246.630859 0)"/>
      <use xlink:href="#DejaVuSans-61" transform="translate(310.253906 0)"/>
      <use xlink:href="#DejaVuSans-20" transform="translate(371.533203 0)"/>
      <use xlink:href="#DejaVuSans-41" transform="translate(403.320312 0)"/>
      <use xlink:href="#DejaVuSans-64" transform="translate(469.978516 0)"/>
      <use xlink:href="#DejaVuSans-64" transform="translate(533.455078 0)"/>
      <use xlink:href="#DejaVuSans-69" transform="translate(596.931641 0)"/>
      <use xlink:href="#DejaVuSans-74" transform="translate(624.714844 0)"/>
      <use xlink:href="#DejaVuSans-69" transform="translate(663.923828 0)"/>
      <use xlink:href="#DejaVuSans-6f" transform="translate(691.707031 0)"/>
      <use xlink:href="#DejaVuSans-6e" transform="translate(752.888672 0)"/>
      <use xlink:href="#DejaVuSans-20" transform="translate(816.267578 0)"/>
      <use xlink:href="#DejaVuSans-32" transform="translate(848.054688 0)"/>
     </g>
    </g>
    <g id="line2d_22">
     <path d="M 235.461512 62.404504 
L 245.461512 62.404504 
L 255.461512 62.404504 
" style="fill: none; stroke: #2ca02c; stroke-width: 0.7; stroke-linecap: square"/>
     <g>
      <use xlink:href="#m0c4eb7f91a" x="245.461512" y="62.404504" style="fill: #2ca02c; stroke: #2ca02c"/>
     </g>
    </g>
    <g id="text_17">
     <!-- C2_E7a Addition 3 -->
     <g transform="translate(263.461513 65.904504) scale(0.1 -0.1)">
      <use xlink:href="#DejaVuSans-43"/>
      <use xlink:href="#DejaVuSans-32" transform="translate(69.824219 0)"/>
      <use xlink:href="#DejaVuSans-5f" transform="translate(133.447266 0)"/>
      <use xlink:href="#DejaVuSans-45" transform="translate(183.447266 0)"/>
      <use xlink:href="#DejaVuSans-37" transform="translate(246.630859 0)"/>
      <use xlink:href="#DejaVuSans-61" transform="translate(310.253906 0)"/>
      <use xlink:href="#DejaVuSans-20" transform="translate(371.533203 0)"/>
      <use xlink:href="#DejaVuSans-41" transform="translate(403.320312 0)"/>
      <use xlink:href="#DejaVuSans-64" transform="translate(469.978516 0)"/>
      <use xlink:href="#DejaVuSans-64" transform="translate(533.455078 0)"/>
      <use xlink:href="#DejaVuSans-69" transform="translate(596.931641 0)"/>
      <use xlink:href="#DejaVuSans-74" transform="translate(624.714844 0)"/>
      <use xlink:href="#DejaVuSans-69" transform="translate(663.923828 0)"/>
      <use xlink:href="#DejaVuSans-6f" transform="translate(691.707031 0)"/>
      <use xlink:href="#DejaVuSans-6e" transform="translate(752.888672 0)"/>
      <use xlink:href="#DejaVuSans-20" transform="translate(816.267578 0)"/>
      <use xlink:href="#DejaVuSans-33" transform="translate(848.054688 0)"/>
     </g>
    </g>
    <g id="line2d_23">
     <path d="M 235.461512 77.360754 
L 245.461512 77.360754 
L 255.461512 77.360754 
" style="fill: none; stroke: #d62728; stroke-width: 0.7; stroke-linecap: square"/>
     <g>
      <use xlink:href="#m8add5dbbc2" x="245.461512" y="77.360754" style="fill: #d62728; stroke: #d62728"/>
     </g>
    </g>
    <g id="text_18">
     <!-- C2_E7a Addition 4 -->
     <g transform="translate(263.461513 80.860754) scale(0.1 -0.1)">
      <use xlink:href="#DejaVuSans-43"/>
      <use xlink:href="#DejaVuSans-32" transform="translate(69.824219 0)"/>
      <use xlink:href="#DejaVuSans-5f" transform="translate(133.447266 0)"/>
      <use xlink:href="#DejaVuSans-45" transform="translate(183.447266 0)"/>
      <use xlink:href="#DejaVuSans-37" transform="translate(246.630859 0)"/>
      <use xlink:href="#DejaVuSans-61" transform="translate(310.253906 0)"/>
      <use xlink:href="#DejaVuSans-20" transform="translate(371.533203 0)"/>
      <use xlink:href="#DejaVuSans-41" transform="translate(403.320312 0)"/>
      <use xlink:href="#DejaVuSans-64" transform="translate(469.978516 0)"/>
      <use xlink:href="#DejaVuSans-64" transform="translate(533.455078 0)"/>
      <use xlink:href="#DejaVuSans-69" transform="translate(596.931641 0)"/>
      <use xlink:href="#DejaVuSans-74" transform="translate(624.714844 0)"/>
      <use xlink:href="#DejaVuSans-69" transform="translate(663.923828 0)"/>
      <use xlink:href="#DejaVuSans-6f" transform="translate(691.707031 0)"/>
      <use xlink:href="#DejaVuSans-6e" transform="translate(752.888672 0)"/>
      <use xlink:href="#DejaVuSans-20" transform="translate(816.267578 0)"/>
      <use xlink:href="#DejaVuSans-34" transform="translate(848.054688 0)"/>
     </g>
    </g>
    <g id="line2d_24">
     <path d="M 235.461512 92.317004 
L 245.461512 92.317004 
L 255.461512 92.317004 
" style="fill: none; stroke: #9467bd; stroke-width: 0.7; stroke-linecap: square"/>
     <g>
      <use xlink:href="#mcf337df711" x="245.461512" y="92.317004" style="fill: #9467bd; stroke: #9467bd"/>
     </g>
    </g>
    <g id="text_19">
     <!-- C2_E7b Addition 1 -->
     <g transform="translate(263.461513 95.817004) scale(0.1 -0.1)">
      <defs>
       <path id="DejaVuSans-62" d="M 3116 1747 
Q 3116 2381 2855 2742 
Q 2594 3103 2138 3103 
Q 1681 3103 1420 2742 
Q 1159 2381 1159 1747 
Q 1159 1113 1420 752 
Q 1681 391 2138 391 
Q 2594 391 2855 752 
Q 3116 1113 3116 1747 
z
M 1159 2969 
Q 1341 3281 1617 3432 
Q 1894 3584 2278 3584 
Q 2916 3584 3314 3078 
Q 3713 2572 3713 1747 
Q 3713 922 3314 415 
Q 2916 -91 2278 -91 
Q 1894 -91 1617 61 
Q 1341 213 1159 525 
L 1159 0 
L 581 0 
L 581 4863 
L 1159 4863 
L 1159 2969 
z
" transform="scale(0.015625)"/>
      </defs>
      <use xlink:href="#DejaVuSans-43"/>
      <use xlink:href="#DejaVuSans-32" transform="translate(69.824219 0)"/>
      <use xlink:href="#DejaVuSans-5f" transform="translate(133.447266 0)"/>
      <use xlink:href="#DejaVuSans-45" transform="translate(183.447266 0)"/>
      <use xlink:href="#DejaVuSans-37" transform="translate(246.630859 0)"/>
      <use xlink:href="#DejaVuSans-62" transform="translate(310.253906 0)"/>
      <use xlink:href="#DejaVuSans-20" transform="translate(373.730469 0)"/>
      <use xlink:href="#DejaVuSans-41" transform="translate(405.517578 0)"/>
      <use xlink:href="#DejaVuSans-64" transform="translate(472.175781 0)"/>
      <use xlink:href="#DejaVuSans-64" transform="translate(535.652344 0)"/>
      <use xlink:href="#DejaVuSans-69" transform="translate(599.128906 0)"/>
      <use xlink:href="#DejaVuSans-74" transform="translate(626.912109 0)"/>
      <use xlink:href="#DejaVuSans-69" transform="translate(666.121094 0)"/>
      <use xlink:href="#DejaVuSans-6f" transform="translate(693.904297 0)"/>
      <use xlink:href="#DejaVuSans-6e" transform="translate(755.085938 0)"/>
      <use xlink:href="#DejaVuSans-20" transform="translate(818.464844 0)"/>
      <use xlink:href="#DejaVuSans-31" transform="translate(850.251953 0)"/>
     </g>
    </g>
    <g id="line2d_25">
     <path d="M 235.461512 107.273254 
L 245.461512 107.273254 
L 255.461512 107.273254 
" style="fill: none; stroke: #8c564b; stroke-width: 0.7; stroke-linecap: square"/>
     <g>
      <use xlink:href="#m1711a28e23" x="245.461512" y="107.273254" style="fill: #8c564b; stroke: #8c564b"/>
     </g>
    </g>
    <g id="text_20">
     <!-- C2_E7b Addition 2 -->
     <g transform="translate(263.461513 110.773254) scale(0.1 -0.1)">
      <use xlink:href="#DejaVuSans-43"/>
      <use xlink:href="#DejaVuSans-32" transform="translate(69.824219 0)"/>
      <use xlink:href="#DejaVuSans-5f" transform="translate(133.447266 0)"/>
      <use xlink:href="#DejaVuSans-45" transform="translate(183.447266 0)"/>
      <use xlink:href="#DejaVuSans-37" transform="translate(246.630859 0)"/>
      <use xlink:href="#DejaVuSans-62" transform="translate(310.253906 0)"/>
      <use xlink:href="#DejaVuSans-20" transform="translate(373.730469 0)"/>
      <use xlink:href="#DejaVuSans-41" transform="translate(405.517578 0)"/>
      <use xlink:href="#DejaVuSans-64" transform="translate(472.175781 0)"/>
      <use xlink:href="#DejaVuSans-64" transform="translate(535.652344 0)"/>
      <use xlink:href="#DejaVuSans-69" transform="translate(599.128906 0)"/>
      <use xlink:href="#DejaVuSans-74" transform="translate(626.912109 0)"/>
      <use xlink:href="#DejaVuSans-69" transform="translate(666.121094 0)"/>
      <use xlink:href="#DejaVuSans-6f" transform="translate(693.904297 0)"/>
      <use xlink:href="#DejaVuSans-6e" transform="translate(755.085938 0)"/>
      <use xlink:href="#DejaVuSans-20" transform="translate(818.464844 0)"/>
      <use xlink:href="#DejaVuSans-32" transform="translate(850.251953 0)"/>
     </g>
    </g>
    <g id="line2d_26">
     <path d="M 235.461512 122.229504 
L 245.461512 122.229504 
L 255.461512 122.229504 
" style="fill: none; stroke: #e377c2; stroke-width: 0.7; stroke-linecap: square"/>
     <g>
      <use xlink:href="#m34a54a1da4" x="245.461512" y="122.229504" style="fill: #e377c2; stroke: #e377c2"/>
     </g>
    </g>
    <g id="text_21">
     <!-- C2_E7b Addition 3 -->
     <g transform="translate(263.461513 125.729504) scale(0.1 -0.1)">
      <use xlink:href="#DejaVuSans-43"/>
      <use xlink:href="#DejaVuSans-32" transform="translate(69.824219 0)"/>
      <use xlink:href="#DejaVuSans-5f" transform="translate(133.447266 0)"/>
      <use xlink:href="#DejaVuSans-45" transform="translate(183.447266 0)"/>
      <use xlink:href="#DejaVuSans-37" transform="translate(246.630859 0)"/>
      <use xlink:href="#DejaVuSans-62" transform="translate(310.253906 0)"/>
      <use xlink:href="#DejaVuSans-20" transform="translate(373.730469 0)"/>
      <use xlink:href="#DejaVuSans-41" transform="translate(405.517578 0)"/>
      <use xlink:href="#DejaVuSans-64" transform="translate(472.175781 0)"/>
      <use xlink:href="#DejaVuSans-64" transform="translate(535.652344 0)"/>
      <use xlink:href="#DejaVuSans-69" transform="translate(599.128906 0)"/>
      <use xlink:href="#DejaVuSans-74" transform="translate(626.912109 0)"/>
      <use xlink:href="#DejaVuSans-69" transform="translate(666.121094 0)"/>
      <use xlink:href="#DejaVuSans-6f" transform="translate(693.904297 0)"/>
      <use xlink:href="#DejaVuSans-6e" transform="translate(755.085938 0)"/>
      <use xlink:href="#DejaVuSans-20" transform="translate(818.464844 0)"/>
      <use xlink:href="#DejaVuSans-33" transform="translate(850.251953 0)"/>
     </g>
    </g>
    <g id="line2d_27">
     <path d="M 235.461512 137.185754 
L 245.461512 137.185754 
L 255.461512 137.185754 
" style="fill: none; stroke: #7f7f7f; stroke-width: 0.7; stroke-linecap: square"/>
     <g>
      <use xlink:href="#ma1ff795ce6" x="245.461512" y="137.185754" style="fill: #7f7f7f; stroke: #7f7f7f"/>
     </g>
    </g>
    <g id="text_22">
     <!-- C2_E7b Addition 4 -->
     <g transform="translate(263.461513 140.685754) scale(0.1 -0.1)">
      <use xlink:href="#DejaVuSans-43"/>
      <use xlink:href="#DejaVuSans-32" transform="translate(69.824219 0)"/>
      <use xlink:href="#DejaVuSans-5f" transform="translate(133.447266 0)"/>
      <use xlink:href="#DejaVuSans-45" transform="translate(183.447266 0)"/>
      <use xlink:href="#DejaVuSans-37" transform="translate(246.630859 0)"/>
      <use xlink:href="#DejaVuSans-62" transform="translate(310.253906 0)"/>
      <use xlink:href="#DejaVuSans-20" transform="translate(373.730469 0)"/>
      <use xlink:href="#DejaVuSans-41" transform="translate(405.517578 0)"/>
      <use xlink:href="#DejaVuSans-64" transform="translate(472.175781 0)"/>
      <use xlink:href="#DejaVuSans-64" transform="translate(535.652344 0)"/>
      <use xlink:href="#DejaVuSans-69" transform="translate(599.128906 0)"/>
      <use xlink:href="#DejaVuSans-74" transform="translate(626.912109 0)"/>
      <use xlink:href="#DejaVuSans-69" transform="translate(666.121094 0)"/>
      <use xlink:href="#DejaVuSans-6f" transform="translate(693.904297 0)"/>
      <use xlink:href="#DejaVuSans-6e" transform="translate(755.085938 0)"/>
      <use xlink:href="#DejaVuSans-20" transform="translate(818.464844 0)"/>
      <use xlink:href="#DejaVuSans-34" transform="translate(850.251953 0)"/>
     </g>
    </g>
   </g>
  </g>
 </g>
 <defs>
  <clipPath id="pfff931e132">
   <rect x="46.965625" y="8.534567" width="179.495887" height="154.368"/>
  </clipPath>
 </defs>
</svg>
