<?xml version="1.0" encoding="utf-8" standalone="no"?>
<!DOCTYPE svg PUBLIC "-//W3C//DTD SVG 1.1//EN"
  "http://www.w3.org/Graphics/SVG/1.1/DTD/svg11.dtd">
<svg xmlns:xlink="http://www.w3.org/1999/xlink" width="388.28125pt" height="280.474375pt" viewBox="0 0 388.28125 280.474375" xmlns="http://www.w3.org/2000/svg" version="1.1">
 <metadata>
  <rdf:RDF xmlns:dc="http://purl.org/dc/elements/1.1/" xmlns:cc="http://creativecommons.org/ns#" xmlns:rdf="http://www.w3.org/1999/02/22-rdf-syntax-ns#">
   <cc:Work>
    <dc:type rdf:resource="http://purl.org/dc/dcmitype/StillImage"/>
    <dc:date>2026-01-13T16:26:38.875082</dc:date>
    <dc:format>image/svg+xml</dc:format>
    <dc:creator>
     <cc:Agent>
      <dc:title>Matplotlib v3.10.0, https://matplotlib.org/</dc:title>
     </cc:Agent>
    </dc:creator>
   </cc:Work>
  </rdf:RDF>
 </metadata>
 <defs>
  <style type="text/css">*{stroke-linejoin: round; stroke-linecap: butt}</style>
 </defs>
 <g id="figure_1">
  <g id="patch_1">
   <path d="M 0 280.474375 
L 388.28125 280.474375 
L 388.28125 0 
L 0 0 
z
" style="fill: #ffffff"/>
  </g>
  <g id="axes_1">
   <g id="patch_2">
    <path d="M 56.50625 242.918125 
L 283.05625 242.918125 
L 283.05625 22.318125 
L 56.50625 22.318125 
z
" style="fill: #ffffff"/>
   </g>
   <g id="matplotlib.axis_1">
    <g id="xtick_1">
     <g id="line2d_1">
      <defs>
       <path id="m106027d81d" d="M 0 0 
L 0 3.5 
" style="stroke: #000000; stroke-width: 0.8"/>
      </defs>
      <g>
       <use xlink:href="#m106027d81d" x="283.05625" y="242.918125" style="stroke: #000000; stroke-width: 0.8"/>
      </g>
     </g>
     <g id="text_1">
      <!-- 1140 -->
      <g transform="translate(270.33125 257.516563) scale(0.1 -0.1)">
       <defs>
        <path id="DejaVuSans-31" d="M 794 531 
L 1825 531 
L 1825 4091 
L 703 3866 
L 703 4441 
L 1819 4666 
L 2450 4666 
L 2450 531 
L 3481 531 
L 3481 0 
L 794 0 
L 794 531 
z
" transform="scale(0.015625)"/>
        <path id="DejaVuSans-34" d="M 2419 4116 
L 825 1625 
L 2419 1625 
L 2419 4116 
z
M 2253 4666 
L 3047 4666 
L 3047 1625 
L 3713 1625 
L 3713 1100 
L 3047 1100 
L 3047 0 
L 2419 0 
L 2419 1100 
L 313 1100 
L 313 1709 
L 2253 4666 
z
" transform="scale(0.015625)"/>
        <path id="DejaVuSans-30" d="M 2034 4250 
Q 1547 4250 1301 3770 
Q 1056 3291 1056 2328 
Q 1056 1369 1301 889 
Q 1547 409 2034 409 
Q 2525 409 2770 889 
Q 3016 1369 3016 2328 
Q 3016 3291 2770 3770 
Q 2525 4250 2034 4250 
z
M 2034 4750 
Q 2819 4750 3233 4129 
Q 3647 3509 3647 2328 
Q 3647 1150 3233 529 
Q 2819 -91 2034 -91 
Q 1250 -91 836 529 
Q 422 1150 422 2328 
Q 422 3509 836 4129 
Q 1250 4750 2034 4750 
z
" transform="scale(0.015625)"/>
       </defs>
       <use xlink:href="#DejaVuSans-31"/>
       <use xlink:href="#DejaVuSans-31" transform="translate(63.623047 0)"/>
       <use xlink:href="#DejaVuSans-34" transform="translate(127.246094 0)"/>
       <use xlink:href="#DejaVuSans-30" transform="translate(190.869141 0)"/>
      </g>
     </g>
    </g>
    <g id="xtick_2">
     <g id="line2d_2">
      <g>
       <use xlink:href="#m106027d81d" x="226.41875" y="242.918125" style="stroke: #000000; stroke-width: 0.8"/>
      </g>
     </g>
     <g id="text_2">
      <!-- 1150 -->
      <g transform="translate(213.69375 257.516563) scale(0.1 -0.1)">
       <defs>
        <path id="DejaVuSans-35" d="M 691 4666 
L 3169 4666 
L 3169 4134 
L 1269 4134 
L 1269 2991 
Q 1406 3038 1543 3061 
Q 1681 3084 1819 3084 
Q 2600 3084 3056 2656 
Q 3513 2228 3513 1497 
Q 3513 744 3044 326 
Q 2575 -91 1722 -91 
Q 1428 -91 1123 -41 
Q 819 9 494 109 
L 494 744 
Q 775 591 1075 516 
Q 1375 441 1709 441 
Q 2250 441 2565 725 
Q 2881 1009 2881 1497 
Q 2881 1984 2565 2268 
Q 2250 2553 1709 2553 
Q 1456 2553 1204 2497 
Q 953 2441 691 2322 
L 691 4666 
z
" transform="scale(0.015625)"/>
       </defs>
       <use xlink:href="#DejaVuSans-31"/>
       <use xlink:href="#DejaVuSans-31" transform="translate(63.623047 0)"/>
       <use xlink:href="#DejaVuSans-35" transform="translate(127.246094 0)"/>
       <use xlink:href="#DejaVuSans-30" transform="translate(190.869141 0)"/>
      </g>
     </g>
    </g>
    <g id="xtick_3">
     <g id="line2d_3">
      <g>
       <use xlink:href="#m106027d81d" x="169.78125" y="242.918125" style="stroke: #000000; stroke-width: 0.8"/>
      </g>
     </g>
     <g id="text_3">
      <!-- 1160 -->
      <g transform="translate(157.05625 257.516563) scale(0.1 -0.1)">
       <defs>
        <path id="DejaVuSans-36" d="M 2113 2584 
Q 1688 2584 1439 2293 
Q 1191 2003 1191 1497 
Q 1191 994 1439 701 
Q 1688 409 2113 409 
Q 2538 409 2786 701 
Q 3034 994 3034 1497 
Q 3034 2003 2786 2293 
Q 2538 2584 2113 2584 
z
M 3366 4563 
L 3366 3988 
Q 3128 4100 2886 4159 
Q 2644 4219 2406 4219 
Q 1781 4219 1451 3797 
Q 1122 3375 1075 2522 
Q 1259 2794 1537 2939 
Q 1816 3084 2150 3084 
Q 2853 3084 3261 2657 
Q 3669 2231 3669 1497 
Q 3669 778 3244 343 
Q 2819 -91 2113 -91 
Q 1303 -91 875 529 
Q 447 1150 447 2328 
Q 447 3434 972 4092 
Q 1497 4750 2381 4750 
Q 2619 4750 2861 4703 
Q 3103 4656 3366 4563 
z
" transform="scale(0.015625)"/>
       </defs>
       <use xlink:href="#DejaVuSans-31"/>
       <use xlink:href="#DejaVuSans-31" transform="translate(63.623047 0)"/>
       <use xlink:href="#DejaVuSans-36" transform="translate(127.246094 0)"/>
       <use xlink:href="#DejaVuSans-30" transform="translate(190.869141 0)"/>
      </g>
     </g>
    </g>
    <g id="xtick_4">
     <g id="line2d_4">
      <g>
       <use xlink:href="#m106027d81d" x="113.14375" y="242.918125" style="stroke: #000000; stroke-width: 0.8"/>
      </g>
     </g>
     <g id="text_4">
      <!-- 1170 -->
      <g transform="translate(100.41875 257.516563) scale(0.1 -0.1)">
       <defs>
        <path id="DejaVuSans-37" d="M 525 4666 
L 3525 4666 
L 3525 4397 
L 1831 0 
L 1172 0 
L 2766 4134 
L 525 4134 
L 525 4666 
z
" transform="scale(0.015625)"/>
       </defs>
       <use xlink:href="#DejaVuSans-31"/>
       <use xlink:href="#DejaVuSans-31" transform="translate(63.623047 0)"/>
       <use xlink:href="#DejaVuSans-37" transform="translate(127.246094 0)"/>
       <use xlink:href="#DejaVuSans-30" transform="translate(190.869141 0)"/>
      </g>
     </g>
    </g>
    <g id="xtick_5">
     <g id="line2d_5">
      <g>
       <use xlink:href="#m106027d81d" x="56.50625" y="242.918125" style="stroke: #000000; stroke-width: 0.8"/>
      </g>
     </g>
     <g id="text_5">
      <!-- 1180 -->
      <g transform="translate(43.78125 257.516563) scale(0.1 -0.1)">
       <defs>
        <path id="DejaVuSans-38" d="M 2034 2216 
Q 1584 2216 1326 1975 
Q 1069 1734 1069 1313 
Q 1069 891 1326 650 
Q 1584 409 2034 409 
Q 2484 409 2743 651 
Q 3003 894 3003 1313 
Q 3003 1734 2745 1975 
Q 2488 2216 2034 2216 
z
M 1403 2484 
Q 997 2584 770 2862 
Q 544 3141 544 3541 
Q 544 4100 942 4425 
Q 1341 4750 2034 4750 
Q 2731 4750 3128 4425 
Q 3525 4100 3525 3541 
Q 3525 3141 3298 2862 
Q 3072 2584 2669 2484 
Q 3125 2378 3379 2068 
Q 3634 1759 3634 1313 
Q 3634 634 3220 271 
Q 2806 -91 2034 -91 
Q 1263 -91 848 271 
Q 434 634 434 1313 
Q 434 1759 690 2068 
Q 947 2378 1403 2484 
z
M 1172 3481 
Q 1172 3119 1398 2916 
Q 1625 2713 2034 2713 
Q 2441 2713 2670 2916 
Q 2900 3119 2900 3481 
Q 2900 3844 2670 4047 
Q 2441 4250 2034 4250 
Q 1625 4250 1398 4047 
Q 1172 3844 1172 3481 
z
" transform="scale(0.015625)"/>
       </defs>
       <use xlink:href="#DejaVuSans-31"/>
       <use xlink:href="#DejaVuSans-31" transform="translate(63.623047 0)"/>
       <use xlink:href="#DejaVuSans-38" transform="translate(127.246094 0)"/>
       <use xlink:href="#DejaVuSans-30" transform="translate(190.869141 0)"/>
      </g>
     </g>
    </g>
    <g id="text_6">
     <!-- Wavenumber (cm⁻¹) -->
     <g transform="translate(118.788281 271.194687) scale(0.1 -0.1)">
      <defs>
       <path id="DejaVuSans-57" d="M 213 4666 
L 850 4666 
L 1831 722 
L 2809 4666 
L 3519 4666 
L 4500 722 
L 5478 4666 
L 6119 4666 
L 4947 0 
L 4153 0 
L 3169 4050 
L 2175 0 
L 1381 0 
L 213 4666 
z
" transform="scale(0.015625)"/>
       <path id="DejaVuSans-61" d="M 2194 1759 
Q 1497 1759 1228 1600 
Q 959 1441 959 1056 
Q 959 750 1161 570 
Q 1363 391 1709 391 
Q 2188 391 2477 730 
Q 2766 1069 2766 1631 
L 2766 1759 
L 2194 1759 
z
M 3341 1997 
L 3341 0 
L 2766 0 
L 2766 531 
Q 2569 213 2275 61 
Q 1981 -91 1556 -91 
Q 1019 -91 701 211 
Q 384 513 384 1019 
Q 384 1609 779 1909 
Q 1175 2209 1959 2209 
L 2766 2209 
L 2766 2266 
Q 2766 2663 2505 2880 
Q 2244 3097 1772 3097 
Q 1472 3097 1187 3025 
Q 903 2953 641 2809 
L 641 3341 
Q 956 3463 1253 3523 
Q 1550 3584 1831 3584 
Q 2591 3584 2966 3190 
Q 3341 2797 3341 1997 
z
" transform="scale(0.015625)"/>
       <path id="DejaVuSans-76" d="M 191 3500 
L 800 3500 
L 1894 563 
L 2988 3500 
L 3597 3500 
L 2284 0 
L 1503 0 
L 191 3500 
z
" transform="scale(0.015625)"/>
       <path id="DejaVuSans-65" d="M 3597 1894 
L 3597 1613 
L 953 1613 
Q 991 1019 1311 708 
Q 1631 397 2203 397 
Q 2534 397 2845 478 
Q 3156 559 3463 722 
L 3463 178 
Q 3153 47 2828 -22 
Q 2503 -91 2169 -91 
Q 1331 -91 842 396 
Q 353 884 353 1716 
Q 353 2575 817 3079 
Q 1281 3584 2069 3584 
Q 2775 3584 3186 3129 
Q 3597 2675 3597 1894 
z
M 3022 2063 
Q 3016 2534 2758 2815 
Q 2500 3097 2075 3097 
Q 1594 3097 1305 2825 
Q 1016 2553 972 2059 
L 3022 2063 
z
" transform="scale(0.015625)"/>
       <path id="DejaVuSans-6e" d="M 3513 2113 
L 3513 0 
L 2938 0 
L 2938 2094 
Q 2938 2591 2744 2837 
Q 2550 3084 2163 3084 
Q 1697 3084 1428 2787 
Q 1159 2491 1159 1978 
L 1159 0 
L 581 0 
L 581 3500 
L 1159 3500 
L 1159 2956 
Q 1366 3272 1645 3428 
Q 1925 3584 2291 3584 
Q 2894 3584 3203 3211 
Q 3513 2838 3513 2113 
z
" transform="scale(0.015625)"/>
       <path id="DejaVuSans-75" d="M 544 1381 
L 544 3500 
L 1119 3500 
L 1119 1403 
Q 1119 906 1312 657 
Q 1506 409 1894 409 
Q 2359 409 2629 706 
Q 2900 1003 2900 1516 
L 2900 3500 
L 3475 3500 
L 3475 0 
L 2900 0 
L 2900 538 
Q 2691 219 2414 64 
Q 2138 -91 1772 -91 
Q 1169 -91 856 284 
Q 544 659 544 1381 
z
M 1991 3584 
L 1991 3584 
z
" transform="scale(0.015625)"/>
       <path id="DejaVuSans-6d" d="M 3328 2828 
Q 3544 3216 3844 3400 
Q 4144 3584 4550 3584 
Q 5097 3584 5394 3201 
Q 5691 2819 5691 2113 
L 5691 0 
L 5113 0 
L 5113 2094 
Q 5113 2597 4934 2840 
Q 4756 3084 4391 3084 
Q 3944 3084 3684 2787 
Q 3425 2491 3425 1978 
L 3425 0 
L 2847 0 
L 2847 2094 
Q 2847 2600 2669 2842 
Q 2491 3084 2119 3084 
Q 1678 3084 1418 2786 
Q 1159 2488 1159 1978 
L 1159 0 
L 581 0 
L 581 3500 
L 1159 3500 
L 1159 2956 
Q 1356 3278 1631 3431 
Q 1906 3584 2284 3584 
Q 2666 3584 2933 3390 
Q 3200 3197 3328 2828 
z
" transform="scale(0.015625)"/>
       <path id="DejaVuSans-62" d="M 3116 1747 
Q 3116 2381 2855 2742 
Q 2594 3103 2138 3103 
Q 1681 3103 1420 2742 
Q 1159 2381 1159 1747 
Q 1159 1113 1420 752 
Q 1681 391 2138 391 
Q 2594 391 2855 752 
Q 3116 1113 3116 1747 
z
M 1159 2969 
Q 1341 3281 1617 3432 
Q 1894 3584 2278 3584 
Q 2916 3584 3314 3078 
Q 3713 2572 3713 1747 
Q 3713 922 3314 415 
Q 2916 -91 2278 -91 
Q 1894 -91 1617 61 
Q 1341 213 1159 525 
L 1159 0 
L 581 0 
L 581 4863 
L 1159 4863 
L 1159 2969 
z
" transform="scale(0.015625)"/>
       <path id="DejaVuSans-72" d="M 2631 2963 
Q 2534 3019 2420 3045 
Q 2306 3072 2169 3072 
Q 1681 3072 1420 2755 
Q 1159 2438 1159 1844 
L 1159 0 
L 581 0 
L 581 3500 
L 1159 3500 
L 1159 2956 
Q 1341 3275 1631 3429 
Q 1922 3584 2338 3584 
Q 2397 3584 2469 3576 
Q 2541 3569 2628 3553 
L 2631 2963 
z
" transform="scale(0.015625)"/>
       <path id="DejaVuSans-20" transform="scale(0.015625)"/>
       <path id="DejaVuSans-28" d="M 1984 4856 
Q 1566 4138 1362 3434 
Q 1159 2731 1159 2009 
Q 1159 1288 1364 580 
Q 1569 -128 1984 -844 
L 1484 -844 
Q 1016 -109 783 600 
Q 550 1309 550 2009 
Q 550 2706 781 3412 
Q 1013 4119 1484 4856 
L 1984 4856 
z
" transform="scale(0.015625)"/>
       <path id="DejaVuSans-63" d="M 3122 3366 
L 3122 2828 
Q 2878 2963 2633 3030 
Q 2388 3097 2138 3097 
Q 1578 3097 1268 2742 
Q 959 2388 959 1747 
Q 959 1106 1268 751 
Q 1578 397 2138 397 
Q 2388 397 2633 464 
Q 2878 531 3122 666 
L 3122 134 
Q 2881 22 2623 -34 
Q 2366 -91 2075 -91 
Q 1284 -91 818 406 
Q 353 903 353 1747 
Q 353 2603 823 3093 
Q 1294 3584 2113 3584 
Q 2378 3584 2631 3529 
Q 2884 3475 3122 3366 
z
" transform="scale(0.015625)"/>
       <path id="DejaVuSans-207b" d="M 428 3359 
L 2950 3359 
L 2950 3063 
L 428 3063 
L 428 3359 
z
" transform="scale(0.015625)"/>
       <path id="DejaVuSans-b9" d="M 488 2431 
L 1125 2431 
L 1125 4341 
L 428 4213 
L 428 4575 
L 1147 4697 
L 1575 4697 
L 1575 2431 
L 2216 2431 
L 2216 2088 
L 488 2088 
L 488 2431 
z
" transform="scale(0.015625)"/>
       <path id="DejaVuSans-29" d="M 513 4856 
L 1013 4856 
Q 1481 4119 1714 3412 
Q 1947 2706 1947 2009 
Q 1947 1309 1714 600 
Q 1481 -109 1013 -844 
L 513 -844 
Q 928 -128 1133 580 
Q 1338 1288 1338 2009 
Q 1338 2731 1133 3434 
Q 928 4138 513 4856 
z
" transform="scale(0.015625)"/>
      </defs>
      <use xlink:href="#DejaVuSans-57"/>
      <use xlink:href="#DejaVuSans-61" transform="translate(92.501953 0)"/>
      <use xlink:href="#DejaVuSans-76" transform="translate(153.78125 0)"/>
      <use xlink:href="#DejaVuSans-65" transform="translate(212.960938 0)"/>
      <use xlink:href="#DejaVuSans-6e" transform="translate(274.484375 0)"/>
      <use xlink:href="#DejaVuSans-75" transform="translate(337.863281 0)"/>
      <use xlink:href="#DejaVuSans-6d" transform="translate(401.242188 0)"/>
      <use xlink:href="#DejaVuSans-62" transform="translate(498.654297 0)"/>
      <use xlink:href="#DejaVuSans-65" transform="translate(562.130859 0)"/>
      <use xlink:href="#DejaVuSans-72" transform="translate(623.654297 0)"/>
      <use xlink:href="#DejaVuSans-20" transform="translate(664.767578 0)"/>
      <use xlink:href="#DejaVuSans-28" transform="translate(696.554688 0)"/>
      <use xlink:href="#DejaVuSans-63" transform="translate(735.568359 0)"/>
      <use xlink:href="#DejaVuSans-6d" transform="translate(790.548828 0)"/>
      <use xlink:href="#DejaVuSans-207b" transform="translate(887.960938 0)"/>
      <use xlink:href="#DejaVuSans-b9" transform="translate(940.744141 0)"/>
      <use xlink:href="#DejaVuSans-29" transform="translate(980.832031 0)"/>
     </g>
    </g>
   </g>
   <g id="matplotlib.axis_2">
    <g id="ytick_1">
     <g id="line2d_6">
      <defs>
       <path id="mb3a028e323" d="M 0 0 
L -3.5 0 
" style="stroke: #000000; stroke-width: 0.8"/>
      </defs>
      <g>
       <use xlink:href="#mb3a028e323" x="56.50625" y="229.610722" style="stroke: #000000; stroke-width: 0.8"/>
      </g>
     </g>
     <g id="text_7">
      <!-- 0.025 -->
      <g transform="translate(20.878125 233.409941) scale(0.1 -0.1)">
       <defs>
        <path id="DejaVuSans-2e" d="M 684 794 
L 1344 794 
L 1344 0 
L 684 0 
L 684 794 
z
" transform="scale(0.015625)"/>
        <path id="DejaVuSans-32" d="M 1228 531 
L 3431 531 
L 3431 0 
L 469 0 
L 469 531 
Q 828 903 1448 1529 
Q 2069 2156 2228 2338 
Q 2531 2678 2651 2914 
Q 2772 3150 2772 3378 
Q 2772 3750 2511 3984 
Q 2250 4219 1831 4219 
Q 1534 4219 1204 4116 
Q 875 4013 500 3803 
L 500 4441 
Q 881 4594 1212 4672 
Q 1544 4750 1819 4750 
Q 2544 4750 2975 4387 
Q 3406 4025 3406 3419 
Q 3406 3131 3298 2873 
Q 3191 2616 2906 2266 
Q 2828 2175 2409 1742 
Q 1991 1309 1228 531 
z
" transform="scale(0.015625)"/>
       </defs>
       <use xlink:href="#DejaVuSans-30"/>
       <use xlink:href="#DejaVuSans-2e" transform="translate(63.623047 0)"/>
       <use xlink:href="#DejaVuSans-30" transform="translate(95.410156 0)"/>
       <use xlink:href="#DejaVuSans-32" transform="translate(159.033203 0)"/>
       <use xlink:href="#DejaVuSans-35" transform="translate(222.65625 0)"/>
      </g>
     </g>
    </g>
    <g id="ytick_2">
     <g id="line2d_7">
      <g>
       <use xlink:href="#mb3a028e323" x="56.50625" y="204.81083" style="stroke: #000000; stroke-width: 0.8"/>
      </g>
     </g>
     <g id="text_8">
      <!-- 0.050 -->
      <g transform="translate(20.878125 208.610048) scale(0.1 -0.1)">
       <use xlink:href="#DejaVuSans-30"/>
       <use xlink:href="#DejaVuSans-2e" transform="translate(63.623047 0)"/>
       <use xlink:href="#DejaVuSans-30" transform="translate(95.410156 0)"/>
       <use xlink:href="#DejaVuSans-35" transform="translate(159.033203 0)"/>
       <use xlink:href="#DejaVuSans-30" transform="translate(222.65625 0)"/>
      </g>
     </g>
    </g>
    <g id="ytick_3">
     <g id="line2d_8">
      <g>
       <use xlink:href="#mb3a028e323" x="56.50625" y="180.010938" style="stroke: #000000; stroke-width: 0.8"/>
      </g>
     </g>
     <g id="text_9">
      <!-- 0.075 -->
      <g transform="translate(20.878125 183.810156) scale(0.1 -0.1)">
       <use xlink:href="#DejaVuSans-30"/>
       <use xlink:href="#DejaVuSans-2e" transform="translate(63.623047 0)"/>
       <use xlink:href="#DejaVuSans-30" transform="translate(95.410156 0)"/>
       <use xlink:href="#DejaVuSans-37" transform="translate(159.033203 0)"/>
       <use xlink:href="#DejaVuSans-35" transform="translate(222.65625 0)"/>
      </g>
     </g>
    </g>
    <g id="ytick_4">
     <g id="line2d_9">
      <g>
       <use xlink:href="#mb3a028e323" x="56.50625" y="155.211046" style="stroke: #000000; stroke-width: 0.8"/>
      </g>
     </g>
     <g id="text_10">
      <!-- 0.100 -->
      <g transform="translate(20.878125 159.010264) scale(0.1 -0.1)">
       <use xlink:href="#DejaVuSans-30"/>
       <use xlink:href="#DejaVuSans-2e" transform="translate(63.623047 0)"/>
       <use xlink:href="#DejaVuSans-31" transform="translate(95.410156 0)"/>
       <use xlink:href="#DejaVuSans-30" transform="translate(159.033203 0)"/>
       <use xlink:href="#DejaVuSans-30" transform="translate(222.65625 0)"/>
      </g>
     </g>
    </g>
    <g id="ytick_5">
     <g id="line2d_10">
      <g>
       <use xlink:href="#mb3a028e323" x="56.50625" y="130.411154" style="stroke: #000000; stroke-width: 0.8"/>
      </g>
     </g>
     <g id="text_11">
      <!-- 0.125 -->
      <g transform="translate(20.878125 134.210372) scale(0.1 -0.1)">
       <use xlink:href="#DejaVuSans-30"/>
       <use xlink:href="#DejaVuSans-2e" transform="translate(63.623047 0)"/>
       <use xlink:href="#DejaVuSans-31" transform="translate(95.410156 0)"/>
       <use xlink:href="#DejaVuSans-32" transform="translate(159.033203 0)"/>
       <use xlink:href="#DejaVuSans-35" transform="translate(222.65625 0)"/>
      </g>
     </g>
    </g>
    <g id="ytick_6">
     <g id="line2d_11">
      <g>
       <use xlink:href="#mb3a028e323" x="56.50625" y="105.611262" style="stroke: #000000; stroke-width: 0.8"/>
      </g>
     </g>
     <g id="text_12">
      <!-- 0.150 -->
      <g transform="translate(20.878125 109.41048) scale(0.1 -0.1)">
       <use xlink:href="#DejaVuSans-30"/>
       <use xlink:href="#DejaVuSans-2e" transform="translate(63.623047 0)"/>
       <use xlink:href="#DejaVuSans-31" transform="translate(95.410156 0)"/>
       <use xlink:href="#DejaVuSans-35" transform="translate(159.033203 0)"/>
       <use xlink:href="#DejaVuSans-30" transform="translate(222.65625 0)"/>
      </g>
     </g>
    </g>
    <g id="ytick_7">
     <g id="line2d_12">
      <g>
       <use xlink:href="#mb3a028e323" x="56.50625" y="80.811369" style="stroke: #000000; stroke-width: 0.8"/>
      </g>
     </g>
     <g id="text_13">
      <!-- 0.175 -->
      <g transform="translate(20.878125 84.610588) scale(0.1 -0.1)">
       <use xlink:href="#DejaVuSans-30"/>
       <use xlink:href="#DejaVuSans-2e" transform="translate(63.623047 0)"/>
       <use xlink:href="#DejaVuSans-31" transform="translate(95.410156 0)"/>
       <use xlink:href="#DejaVuSans-37" transform="translate(159.033203 0)"/>
       <use xlink:href="#DejaVuSans-35" transform="translate(222.65625 0)"/>
      </g>
     </g>
    </g>
    <g id="ytick_8">
     <g id="line2d_13">
      <g>
       <use xlink:href="#mb3a028e323" x="56.50625" y="56.011477" style="stroke: #000000; stroke-width: 0.8"/>
      </g>
     </g>
     <g id="text_14">
      <!-- 0.200 -->
      <g transform="translate(20.878125 59.810696) scale(0.1 -0.1)">
       <use xlink:href="#DejaVuSans-30"/>
       <use xlink:href="#DejaVuSans-2e" transform="translate(63.623047 0)"/>
       <use xlink:href="#DejaVuSans-32" transform="translate(95.410156 0)"/>
       <use xlink:href="#DejaVuSans-30" transform="translate(159.033203 0)"/>
       <use xlink:href="#DejaVuSans-30" transform="translate(222.65625 0)"/>
      </g>
     </g>
    </g>
    <g id="ytick_9">
     <g id="line2d_14">
      <g>
       <use xlink:href="#mb3a028e323" x="56.50625" y="31.211585" style="stroke: #000000; stroke-width: 0.8"/>
      </g>
     </g>
     <g id="text_15">
      <!-- 0.225 -->
      <g transform="translate(20.878125 35.010804) scale(0.1 -0.1)">
       <use xlink:href="#DejaVuSans-30"/>
       <use xlink:href="#DejaVuSans-2e" transform="translate(63.623047 0)"/>
       <use xlink:href="#DejaVuSans-32" transform="translate(95.410156 0)"/>
       <use xlink:href="#DejaVuSans-32" transform="translate(159.033203 0)"/>
       <use xlink:href="#DejaVuSans-35" transform="translate(222.65625 0)"/>
      </g>
     </g>
    </g>
    <g id="text_16">
     <!-- Absorbance -->
     <g transform="translate(14.798438 162.165) rotate(-90) scale(0.1 -0.1)">
      <defs>
       <path id="DejaVuSans-41" d="M 2188 4044 
L 1331 1722 
L 3047 1722 
L 2188 4044 
z
M 1831 4666 
L 2547 4666 
L 4325 0 
L 3669 0 
L 3244 1197 
L 1141 1197 
L 716 0 
L 50 0 
L 1831 4666 
z
" transform="scale(0.015625)"/>
       <path id="DejaVuSans-73" d="M 2834 3397 
L 2834 2853 
Q 2591 2978 2328 3040 
Q 2066 3103 1784 3103 
Q 1356 3103 1142 2972 
Q 928 2841 928 2578 
Q 928 2378 1081 2264 
Q 1234 2150 1697 2047 
L 1894 2003 
Q 2506 1872 2764 1633 
Q 3022 1394 3022 966 
Q 3022 478 2636 193 
Q 2250 -91 1575 -91 
Q 1294 -91 989 -36 
Q 684 19 347 128 
L 347 722 
Q 666 556 975 473 
Q 1284 391 1588 391 
Q 1994 391 2212 530 
Q 2431 669 2431 922 
Q 2431 1156 2273 1281 
Q 2116 1406 1581 1522 
L 1381 1569 
Q 847 1681 609 1914 
Q 372 2147 372 2553 
Q 372 3047 722 3315 
Q 1072 3584 1716 3584 
Q 2034 3584 2315 3537 
Q 2597 3491 2834 3397 
z
" transform="scale(0.015625)"/>
       <path id="DejaVuSans-6f" d="M 1959 3097 
Q 1497 3097 1228 2736 
Q 959 2375 959 1747 
Q 959 1119 1226 758 
Q 1494 397 1959 397 
Q 2419 397 2687 759 
Q 2956 1122 2956 1747 
Q 2956 2369 2687 2733 
Q 2419 3097 1959 3097 
z
M 1959 3584 
Q 2709 3584 3137 3096 
Q 3566 2609 3566 1747 
Q 3566 888 3137 398 
Q 2709 -91 1959 -91 
Q 1206 -91 779 398 
Q 353 888 353 1747 
Q 353 2609 779 3096 
Q 1206 3584 1959 3584 
z
" transform="scale(0.015625)"/>
      </defs>
      <use xlink:href="#DejaVuSans-41"/>
      <use xlink:href="#DejaVuSans-62" transform="translate(68.408203 0)"/>
      <use xlink:href="#DejaVuSans-73" transform="translate(131.884766 0)"/>
      <use xlink:href="#DejaVuSans-6f" transform="translate(183.984375 0)"/>
      <use xlink:href="#DejaVuSans-72" transform="translate(245.166016 0)"/>
      <use xlink:href="#DejaVuSans-62" transform="translate(286.279297 0)"/>
      <use xlink:href="#DejaVuSans-61" transform="translate(349.755859 0)"/>
      <use xlink:href="#DejaVuSans-6e" transform="translate(411.035156 0)"/>
      <use xlink:href="#DejaVuSans-63" transform="translate(474.414062 0)"/>
      <use xlink:href="#DejaVuSans-65" transform="translate(529.394531 0)"/>
     </g>
    </g>
   </g>
   <g id="line2d_15">
    <path d="M -1 228.939779 
L 3.770422 229.064799 
L 67.118016 229.372511 
L 77.675948 229.167873 
L 88.23388 228.503956 
L 98.791813 228.090753 
L 109.349745 228.199745 
L 119.907677 228.055231 
L 130.46561 227.341421 
L 141.023542 227.07877 
L 151.581474 227.91355 
L 162.139407 228.617183 
L 172.697339 228.079519 
L 183.255271 227.284199 
L 193.813204 227.49944 
L 204.371136 228.043139 
L 225.487001 227.333187 
L 236.044933 228.078271 
L 246.602865 228.986421 
L 257.160798 228.820526 
L 267.71873 228.383338 
L 278.276662 228.76986 
L 288.834595 229.32677 
L 299.392527 228.917096 
L 309.950459 228.203537 
L 320.508392 228.344978 
L 331.066324 228.789829 
L 352.182189 228.506132 
L 373.298053 229.026438 
L 389.28125 228.918171 
L 389.28125 228.918171 
" clip-path="url(#p4dccce14c8)" style="fill: none; stroke: #1f77b4; stroke-width: 1.5; stroke-linecap: square"/>
   </g>
   <g id="line2d_16">
    <path d="M -1 144.246388 
L 3.770422 145.321135 
L 14.328354 149.212561 
L 24.886286 152.740861 
L 35.444219 154.607393 
L 46.002151 154.982807 
L 56.560083 154.720072 
L 67.118016 153.87018 
L 77.675948 151.81592 
L 88.23388 148.552143 
L 98.791813 144.479895 
L 109.349745 138.424551 
L 119.907677 127.583972 
L 130.46561 110.570267 
L 141.023542 90.709343 
L 151.581474 75.128263 
L 162.139407 69.244786 
L 172.697339 72.409492 
L 183.255271 79.717872 
L 193.813204 86.69285 
L 204.371136 90.89402 
L 214.929068 92.179357 
L 225.487001 92.996154 
L 236.044933 95.341649 
L 246.602865 98.159822 
L 257.160798 99.909683 
L 267.71873 101.144851 
L 278.276662 102.541618 
L 288.834595 102.884459 
L 299.392527 100.880149 
L 309.950459 97.627158 
L 320.508392 94.86813 
L 331.066324 92.275437 
L 341.624256 88.673225 
L 373.298053 75.231405 
L 383.855986 69.247437 
L 389.28125 65.285076 
L 389.28125 65.285076 
" clip-path="url(#p4dccce14c8)" style="fill: none; stroke: #ff7f0e; stroke-width: 1.5; stroke-linecap: square"/>
   </g>
   <g id="line2d_17">
    <path d="M -1 139.427975 
L 3.770422 140.406685 
L 14.328354 143.99968 
L 24.886286 147.360977 
L 35.444219 149.143071 
L 46.002151 149.419966 
L 56.560083 149.015463 
L 67.118016 148.148005 
L 77.675948 146.132394 
L 88.23388 142.777941 
L 98.791813 138.501748 
L 109.349745 132.430995 
L 119.907677 121.944324 
L 130.46561 105.567459 
L 141.023542 86.463973 
L 151.581474 71.455366 
L 162.139407 65.436416 
L 172.697339 67.42823 
L 193.813204 78.658741 
L 204.371136 82.607566 
L 214.929068 84.041257 
L 225.487001 84.608343 
L 236.044933 86.566422 
L 246.602865 89.581618 
L 257.160798 91.808769 
L 267.71873 93.058475 
L 278.276662 93.974344 
L 288.834595 94.162329 
L 299.392527 92.621836 
L 320.508392 86.968352 
L 331.066324 84.496935 
L 341.624256 81.660144 
L 352.182189 77.867774 
L 362.740121 73.382203 
L 373.298053 68.528041 
L 383.855986 62.949625 
L 389.28125 59.297001 
L 389.28125 59.297001 
" clip-path="url(#p4dccce14c8)" style="fill: none; stroke: #2ca02c; stroke-width: 1.5; stroke-linecap: square"/>
   </g>
   <g id="line2d_18">
    <path d="M -1 123.798585 
L 3.770422 124.938607 
L 14.328354 128.167796 
L 24.886286 130.711906 
L 35.444219 132.223761 
L 46.002151 132.936579 
L 56.560083 132.709082 
L 67.118016 131.137562 
L 77.675948 128.379308 
L 88.23388 124.90785 
L 98.791813 120.515056 
L 109.349745 113.956672 
L 119.907677 103.419558 
L 130.46561 88.192606 
L 141.023542 70.715457 
L 151.581474 56.15083 
L 162.139407 49.02141 
L 172.697339 49.735647 
L 183.255271 54.624682 
L 193.813204 59.646869 
L 204.371136 62.611825 
L 214.929068 63.387812 
L 225.487001 64.036774 
L 236.044933 66.330351 
L 246.602865 69.399887 
L 257.160798 71.763161 
L 267.71873 73.681864 
L 278.276662 75.309768 
L 288.834595 75.445448 
L 299.392527 73.494517 
L 309.950459 70.963952 
L 320.508392 69.062571 
L 331.066324 66.967808 
L 341.624256 63.759436 
L 362.740121 55.931675 
L 373.298053 51.310359 
L 383.855986 45.176266 
L 389.28125 41.286678 
L 389.28125 41.286678 
" clip-path="url(#p4dccce14c8)" style="fill: none; stroke: #d62728; stroke-width: 1.5; stroke-linecap: square"/>
   </g>
   <g id="line2d_19">
    <path d="M -1 166.768088 
L 3.770422 167.8735 
L 14.328354 171.12165 
L 24.886286 173.576403 
L 35.444219 174.924767 
L 46.002151 175.56463 
L 56.560083 175.378416 
L 67.118016 173.84362 
L 77.675948 171.0769 
L 88.23388 167.550895 
L 98.791813 163.109044 
L 109.349745 156.579232 
L 119.907677 146.152465 
L 130.46561 131.15413 
L 141.023542 113.990142 
L 151.581474 99.691268 
L 162.139407 92.401482 
L 172.697339 92.4359 
L 183.255271 96.54276 
L 193.813204 101.188815 
L 204.371136 104.071303 
L 214.929068 104.713163 
L 225.487001 105.177324 
L 236.044933 107.509118 
L 246.602865 110.723762 
L 257.160798 113.128285 
L 267.71873 114.90113 
L 278.276662 116.370938 
L 288.834595 116.492143 
L 299.392527 114.570357 
L 309.950459 112.066119 
L 331.066324 108.396628 
L 341.624256 105.346345 
L 352.182189 101.549735 
L 362.740121 97.631529 
L 373.298053 93.117635 
L 383.855986 87.100288 
L 389.28125 83.224462 
L 389.28125 83.224462 
" clip-path="url(#p4dccce14c8)" style="fill: none; stroke: #9467bd; stroke-width: 1.5; stroke-linecap: square"/>
   </g>
   <g id="line2d_20">
    <path d="M -1 154.249678 
L 3.770422 155.227991 
L 14.328354 158.222639 
L 24.886286 160.510916 
L 35.444219 161.674353 
L 46.002151 162.156298 
L 56.560083 161.931818 
L 67.118016 160.387459 
L 77.675948 157.426804 
L 88.23388 153.676141 
L 98.791813 149.310951 
L 109.349745 143.073011 
L 119.907677 132.986628 
L 130.46561 118.611816 
L 141.023542 102.511098 
L 151.581474 89.096801 
L 162.139407 81.601008 
L 172.697339 80.094342 
L 183.255271 82.253304 
L 193.813204 85.556737 
L 204.371136 87.940821 
L 214.929068 88.406863 
L 225.487001 88.596938 
L 236.044933 90.780622 
L 246.602865 94.246525 
L 257.160798 96.896458 
L 267.71873 98.526327 
L 278.276662 99.680927 
L 288.834595 99.705985 
L 299.392527 97.928068 
L 309.950459 95.654498 
L 331.066324 92.890796 
L 341.624256 90.394306 
L 352.182189 86.915303 
L 362.740121 83.078721 
L 373.298053 78.607037 
L 383.855986 72.768731 
L 389.28125 69.011826 
L 389.28125 69.011826 
" clip-path="url(#p4dccce14c8)" style="fill: none; stroke: #8c564b; stroke-width: 1.5; stroke-linecap: square"/>
   </g>
   <g id="line2d_21">
    <path d="M -1 152.9868 
L 3.770422 153.873368 
L 14.328354 156.845431 
L 24.886286 159.198537 
L 35.444219 160.228631 
L 46.002151 160.424693 
L 56.560083 160.18309 
L 67.118016 158.898384 
L 77.675948 155.998606 
L 88.23388 151.994308 
L 98.791813 147.486624 
L 109.349745 141.497616 
L 119.907677 131.709486 
L 130.46561 117.397519 
L 141.023542 101.421742 
L 151.581474 88.384368 
L 162.139407 81.01692 
L 172.697339 78.917508 
L 183.255271 80.170394 
L 193.813204 83.023853 
L 204.371136 85.50852 
L 214.929068 86.057389 
L 225.487001 85.948604 
L 236.044933 87.881145 
L 246.602865 91.551654 
L 257.160798 94.496756 
L 267.71873 96.045848 
L 278.276662 96.897868 
L 288.834595 96.908061 
L 299.392527 95.432846 
L 309.950459 93.257602 
L 320.508392 91.668222 
L 331.066324 90.411315 
L 341.624256 88.343368 
L 352.182189 85.089827 
L 362.740121 81.08909 
L 373.298053 76.492701 
L 383.855986 70.893875 
L 389.28125 67.276034 
L 389.28125 67.276034 
" clip-path="url(#p4dccce14c8)" style="fill: none; stroke: #e377c2; stroke-width: 1.5; stroke-linecap: square"/>
   </g>
   <g id="line2d_22">
    <path d="M -1 156.004411 
L 3.770422 156.671954 
L 14.328354 159.261961 
L 24.886286 161.730366 
L 35.444219 162.809453 
L 46.002151 162.547127 
L 56.560083 161.802078 
L 67.118016 160.637317 
L 77.675948 158.18193 
L 88.23388 154.108029 
L 98.791813 149.122013 
L 109.349745 143.18146 
L 119.907677 134.255955 
L 130.46561 120.85797 
L 141.023542 105.31457 
L 151.581474 92.49722 
L 162.139407 85.227462 
L 172.697339 82.375616 
L 183.255271 81.719196 
L 193.813204 82.775244 
L 204.371136 84.820509 
L 214.929068 85.763832 
L 225.487001 85.570884 
L 236.044933 86.890731 
L 257.160798 94.049119 
L 267.71873 95.909289 
L 278.276662 96.143799 
L 288.834595 95.516628 
L 299.392527 94.348142 
L 309.950459 92.978583 
L 331.066324 90.395976 
L 341.624256 88.610433 
L 352.182189 86.042758 
L 362.740121 82.342318 
L 373.298053 77.44564 
L 383.855986 71.75366 
L 389.28125 68.425522 
L 389.28125 68.425522 
" clip-path="url(#p4dccce14c8)" style="fill: none; stroke: #7f7f7f; stroke-width: 1.5; stroke-linecap: square"/>
   </g>
   <g id="line2d_23">
    <path d="M -1 148.845199 
L 14.328354 151.369209 
L 24.886286 152.774217 
L 35.444219 153.715474 
L 46.002151 153.839929 
L 56.560083 152.668357 
L 67.118016 150.292072 
L 77.675948 147.018624 
L 88.23388 142.753257 
L 98.791813 137.255843 
L 109.349745 130.322287 
L 119.907677 121.597762 
L 130.46561 110.78517 
L 141.023542 98.593005 
L 151.581474 86.9824 
L 162.139407 77.964926 
L 172.697339 72.290803 
L 183.255271 69.441673 
L 193.813204 68.717468 
L 204.371136 69.009107 
L 225.487001 68.650026 
L 236.044933 70.396833 
L 246.602865 74.116007 
L 257.160798 78.04778 
L 267.71873 81.197636 
L 278.276662 82.759626 
L 288.834595 81.912862 
L 299.392527 79.733691 
L 309.950459 78.621446 
L 320.508392 78.957449 
L 331.066324 78.899443 
L 341.624256 77.338483 
L 352.182189 74.86852 
L 362.740121 71.857224 
L 373.298053 67.443546 
L 383.855986 61.283689 
L 389.28125 57.578758 
L 389.28125 57.578758 
" clip-path="url(#p4dccce14c8)" style="fill: none; stroke: #bcbd22; stroke-width: 1.5; stroke-linecap: square"/>
   </g>
   <g id="line2d_24">
    <path d="M -1 138.894211 
L 3.770422 139.491063 
L 14.328354 141.366062 
L 24.886286 142.894761 
L 35.444219 143.394149 
L 46.002151 142.979108 
L 56.560083 141.896699 
L 67.118016 139.974388 
L 77.675948 136.621569 
L 88.23388 131.840847 
L 98.791813 126.344842 
L 109.349745 120.052308 
L 119.907677 111.755894 
L 130.46561 101.049149 
L 141.023542 89.410457 
L 151.581474 78.671447 
L 162.139407 69.749743 
L 172.697339 62.809962 
L 183.255271 58.3212 
L 193.813204 56.89092 
L 204.371136 57.325784 
L 214.929068 56.937205 
L 225.487001 56.125121 
L 236.044933 57.864581 
L 246.602865 62.322337 
L 257.160798 66.507489 
L 267.71873 69.085748 
L 278.276662 70.151276 
L 288.834595 69.63441 
L 299.392527 67.967818 
L 309.950459 66.694462 
L 320.508392 66.829979 
L 331.066324 67.369217 
L 341.624256 66.689545 
L 352.182189 64.227037 
L 362.740121 60.644276 
L 373.298053 56.251889 
L 383.855986 50.814139 
L 389.28125 47.239089 
L 389.28125 47.239089 
" clip-path="url(#p4dccce14c8)" style="fill: none; stroke: #17becf; stroke-width: 1.5; stroke-linecap: square"/>
   </g>
   <g id="line2d_25">
    <path d="M -1 136.830088 
L 3.770422 137.309228 
L 14.328354 138.111 
L 24.886286 139.067232 
L 35.444219 139.865527 
L 46.002151 139.585437 
L 56.560083 137.862018 
L 67.118016 135.383542 
L 77.675948 132.335493 
L 88.23388 128.026335 
L 98.791813 122.187821 
L 109.349745 115.332298 
L 119.907677 107.669691 
L 130.46561 98.932308 
L 141.023542 89.137849 
L 151.581474 78.870448 
L 162.139407 69.127991 
L 172.697339 60.553357 
L 183.255271 53.569427 
L 193.813204 49.342661 
L 204.371136 48.284088 
L 214.929068 48.134265 
L 225.487001 47.809702 
L 236.044933 49.061913 
L 246.602865 52.795159 
L 257.160798 57.260306 
L 267.71873 60.672276 
L 278.276662 61.581696 
L 288.834595 59.916822 
L 299.392527 57.890138 
L 309.950459 57.796433 
L 320.508392 59.198774 
L 331.066324 59.970632 
L 341.624256 59.341507 
L 352.182189 57.82163 
L 362.740121 55.299788 
L 373.298053 50.793179 
L 383.855986 44.742032 
L 389.28125 41.425172 
L 389.28125 41.425172 
" clip-path="url(#p4dccce14c8)" style="fill: none; stroke: #1f77b4; stroke-width: 1.5; stroke-linecap: square"/>
   </g>
   <g id="line2d_26">
    <path d="M -1 128.256625 
L 3.770422 128.805866 
L 14.328354 129.851327 
L 24.886286 130.551279 
L 35.444219 130.752602 
L 46.002151 130.317168 
L 56.560083 129.002096 
L 67.118016 126.638474 
L 77.675948 122.997369 
L 88.23388 118.323536 
L 98.791813 113.00894 
L 109.349745 106.754768 
L 119.907677 99.041302 
L 141.023542 81.591944 
L 151.581474 72.590784 
L 162.139407 62.600176 
L 172.697339 52.28643 
L 183.255271 43.79614 
L 193.813204 39.174389 
L 204.371136 37.995748 
L 225.487001 36.31499 
L 236.044933 38.014605 
L 246.602865 42.499998 
L 257.160798 46.76452 
L 267.71873 49.362746 
L 278.276662 50.202141 
L 288.834595 49.230857 
L 299.392527 47.365853 
L 309.950459 46.679979 
L 320.508392 48.001077 
L 331.066324 49.710816 
L 341.624256 49.881033 
L 352.182189 48.001857 
L 362.740121 44.892445 
L 373.298053 40.936384 
L 383.855986 35.888577 
L 389.28125 32.507107 
L 389.28125 32.507107 
" clip-path="url(#p4dccce14c8)" style="fill: none; stroke: #ff7f0e; stroke-width: 1.5; stroke-linecap: square"/>
   </g>
   <g id="line2d_27">
    <path d="M -1 132.033388 
L 3.770422 132.520759 
L 14.328354 133.190947 
L 24.886286 133.398336 
L 35.444219 133.399316 
L 46.002151 133.116469 
L 56.560083 131.868343 
L 67.118016 129.2404 
L 77.675948 125.47693 
L 88.23388 121.040325 
L 98.791813 115.929432 
L 109.349745 109.581262 
L 119.907677 101.832714 
L 130.46561 93.647033 
L 141.023542 85.911316 
L 151.581474 77.512644 
L 162.139407 66.981753 
L 172.697339 55.143231 
L 183.255271 45.149695 
L 193.813204 39.645747 
L 204.371136 37.99524 
L 214.929068 36.871584 
L 225.487001 35.863739 
L 236.044933 37.677786 
L 246.602865 42.355211 
L 257.160798 46.73527 
L 267.71873 49.35723 
L 278.276662 50.301645 
L 288.834595 49.356229 
L 299.392527 47.422972 
L 309.950459 46.944319 
L 320.508392 48.742158 
L 331.066324 50.873662 
L 341.624256 51.364384 
L 352.182189 49.86885 
L 362.740121 47.103857 
L 373.298053 43.24992 
L 383.855986 38.209881 
L 389.28125 34.995238 
L 389.28125 34.995238 
" clip-path="url(#p4dccce14c8)" style="fill: none; stroke: #2ca02c; stroke-width: 1.5; stroke-linecap: square"/>
   </g>
   <g id="line2d_28">
    <path d="M 152.79 242.918125 
L 152.79 22.318125 
" clip-path="url(#p4dccce14c8)" style="fill: none; stroke-dasharray: 3.7,1.6; stroke-dashoffset: 0; stroke: #808080"/>
   </g>
   <g id="line2d_29">
    <path d="M 164.1175 242.918125 
L 164.1175 22.318125 
" clip-path="url(#p4dccce14c8)" style="fill: none; stroke-dasharray: 3.7,1.6; stroke-dashoffset: 0; stroke: #808080"/>
   </g>
   <g id="line2d_30">
    <path clip-path="url(#p4dccce14c8)" style="fill: none; stroke-dasharray: 3.7,1.6; stroke-dashoffset: 0; stroke: #808080"/>
   </g>
   <g id="line2d_31">
    <path clip-path="url(#p4dccce14c8)" style="fill: none; stroke-dasharray: 3.7,1.6; stroke-dashoffset: 0; stroke: #808080"/>
   </g>
   <g id="patch_3">
    <path d="M 56.50625 242.918125 
L 56.50625 22.318125 
" style="fill: none; stroke: #000000; stroke-width: 0.8; stroke-linejoin: miter; stroke-linecap: square"/>
   </g>
   <g id="patch_4">
    <path d="M 283.05625 242.918125 
L 283.05625 22.318125 
" style="fill: none; stroke: #000000; stroke-width: 0.8; stroke-linejoin: miter; stroke-linecap: square"/>
   </g>
   <g id="patch_5">
    <path d="M 56.50625 242.918125 
L 283.05625 242.918125 
" style="fill: none; stroke: #000000; stroke-width: 0.8; stroke-linejoin: miter; stroke-linecap: square"/>
   </g>
   <g id="patch_6">
    <path d="M 56.50625 22.318125 
L 283.05625 22.318125 
" style="fill: none; stroke: #000000; stroke-width: 0.8; stroke-linejoin: miter; stroke-linecap: square"/>
   </g>
   <g id="text_17">
    <!-- In-situ IR spectra for C4_E11 -->
    <g transform="translate(84.425625 16.318125) scale(0.12 -0.12)">
     <defs>
      <path id="DejaVuSans-49" d="M 628 4666 
L 1259 4666 
L 1259 0 
L 628 0 
L 628 4666 
z
" transform="scale(0.015625)"/>
      <path id="DejaVuSans-2d" d="M 313 2009 
L 1997 2009 
L 1997 1497 
L 313 1497 
L 313 2009 
z
" transform="scale(0.015625)"/>
      <path id="DejaVuSans-69" d="M 603 3500 
L 1178 3500 
L 1178 0 
L 603 0 
L 603 3500 
z
M 603 4863 
L 1178 4863 
L 1178 4134 
L 603 4134 
L 603 4863 
z
" transform="scale(0.015625)"/>
      <path id="DejaVuSans-74" d="M 1172 4494 
L 1172 3500 
L 2356 3500 
L 2356 3053 
L 1172 3053 
L 1172 1153 
Q 1172 725 1289 603 
Q 1406 481 1766 481 
L 2356 481 
L 2356 0 
L 1766 0 
Q 1100 0 847 248 
Q 594 497 594 1153 
L 594 3053 
L 172 3053 
L 172 3500 
L 594 3500 
L 594 4494 
L 1172 4494 
z
" transform="scale(0.015625)"/>
      <path id="DejaVuSans-52" d="M 2841 2188 
Q 3044 2119 3236 1894 
Q 3428 1669 3622 1275 
L 4263 0 
L 3584 0 
L 2988 1197 
Q 2756 1666 2539 1819 
Q 2322 1972 1947 1972 
L 1259 1972 
L 1259 0 
L 628 0 
L 628 4666 
L 2053 4666 
Q 2853 4666 3247 4331 
Q 3641 3997 3641 3322 
Q 3641 2881 3436 2590 
Q 3231 2300 2841 2188 
z
M 1259 4147 
L 1259 2491 
L 2053 2491 
Q 2509 2491 2742 2702 
Q 2975 2913 2975 3322 
Q 2975 3731 2742 3939 
Q 2509 4147 2053 4147 
L 1259 4147 
z
" transform="scale(0.015625)"/>
      <path id="DejaVuSans-70" d="M 1159 525 
L 1159 -1331 
L 581 -1331 
L 581 3500 
L 1159 3500 
L 1159 2969 
Q 1341 3281 1617 3432 
Q 1894 3584 2278 3584 
Q 2916 3584 3314 3078 
Q 3713 2572 3713 1747 
Q 3713 922 3314 415 
Q 2916 -91 2278 -91 
Q 1894 -91 1617 61 
Q 1341 213 1159 525 
z
M 3116 1747 
Q 3116 2381 2855 2742 
Q 2594 3103 2138 3103 
Q 1681 3103 1420 2742 
Q 1159 2381 1159 1747 
Q 1159 1113 1420 752 
Q 1681 391 2138 391 
Q 2594 391 2855 752 
Q 3116 1113 3116 1747 
z
" transform="scale(0.015625)"/>
      <path id="DejaVuSans-66" d="M 2375 4863 
L 2375 4384 
L 1825 4384 
Q 1516 4384 1395 4259 
Q 1275 4134 1275 3809 
L 1275 3500 
L 2222 3500 
L 2222 3053 
L 1275 3053 
L 1275 0 
L 697 0 
L 697 3053 
L 147 3053 
L 147 3500 
L 697 3500 
L 697 3744 
Q 697 4328 969 4595 
Q 1241 4863 1831 4863 
L 2375 4863 
z
" transform="scale(0.015625)"/>
      <path id="DejaVuSans-43" d="M 4122 4306 
L 4122 3641 
Q 3803 3938 3442 4084 
Q 3081 4231 2675 4231 
Q 1875 4231 1450 3742 
Q 1025 3253 1025 2328 
Q 1025 1406 1450 917 
Q 1875 428 2675 428 
Q 3081 428 3442 575 
Q 3803 722 4122 1019 
L 4122 359 
Q 3791 134 3420 21 
Q 3050 -91 2638 -91 
Q 1578 -91 968 557 
Q 359 1206 359 2328 
Q 359 3453 968 4101 
Q 1578 4750 2638 4750 
Q 3056 4750 3426 4639 
Q 3797 4528 4122 4306 
z
" transform="scale(0.015625)"/>
      <path id="DejaVuSans-5f" d="M 3263 -1063 
L 3263 -1509 
L -63 -1509 
L -63 -1063 
L 3263 -1063 
z
" transform="scale(0.015625)"/>
      <path id="DejaVuSans-45" d="M 628 4666 
L 3578 4666 
L 3578 4134 
L 1259 4134 
L 1259 2753 
L 3481 2753 
L 3481 2222 
L 1259 2222 
L 1259 531 
L 3634 531 
L 3634 0 
L 628 0 
L 628 4666 
z
" transform="scale(0.015625)"/>
     </defs>
     <use xlink:href="#DejaVuSans-49"/>
     <use xlink:href="#DejaVuSans-6e" transform="translate(29.492188 0)"/>
     <use xlink:href="#DejaVuSans-2d" transform="translate(92.871094 0)"/>
     <use xlink:href="#DejaVuSans-73" transform="translate(128.955078 0)"/>
     <use xlink:href="#DejaVuSans-69" transform="translate(181.054688 0)"/>
     <use xlink:href="#DejaVuSans-74" transform="translate(208.837891 0)"/>
     <use xlink:href="#DejaVuSans-75" transform="translate(248.046875 0)"/>
     <use xlink:href="#DejaVuSans-20" transform="translate(311.425781 0)"/>
     <use xlink:href="#DejaVuSans-49" transform="translate(343.212891 0)"/>
     <use xlink:href="#DejaVuSans-52" transform="translate(372.705078 0)"/>
     <use xlink:href="#DejaVuSans-20" transform="translate(442.1875 0)"/>
     <use xlink:href="#DejaVuSans-73" transform="translate(473.974609 0)"/>
     <use xlink:href="#DejaVuSans-70" transform="translate(526.074219 0)"/>
     <use xlink:href="#DejaVuSans-65" transform="translate(589.550781 0)"/>
     <use xlink:href="#DejaVuSans-63" transform="translate(651.074219 0)"/>
     <use xlink:href="#DejaVuSans-74" transform="translate(706.054688 0)"/>
     <use xlink:href="#DejaVuSans-72" transform="translate(745.263672 0)"/>
     <use xlink:href="#DejaVuSans-61" transform="translate(786.376953 0)"/>
     <use xlink:href="#DejaVuSans-20" transform="translate(847.65625 0)"/>
     <use xlink:href="#DejaVuSans-66" transform="translate(879.443359 0)"/>
     <use xlink:href="#DejaVuSans-6f" transform="translate(914.648438 0)"/>
     <use xlink:href="#DejaVuSans-72" transform="translate(975.830078 0)"/>
     <use xlink:href="#DejaVuSans-20" transform="translate(1016.943359 0)"/>
     <use xlink:href="#DejaVuSans-43" transform="translate(1048.730469 0)"/>
     <use xlink:href="#DejaVuSans-34" transform="translate(1118.554688 0)"/>
     <use xlink:href="#DejaVuSans-5f" transform="translate(1182.177734 0)"/>
     <use xlink:href="#DejaVuSans-45" transform="translate(1232.177734 0)"/>
     <use xlink:href="#DejaVuSans-31" transform="translate(1295.361328 0)"/>
     <use xlink:href="#DejaVuSans-31" transform="translate(1358.984375 0)"/>
    </g>
   </g>
   <g id="legend_1">
    <g id="patch_7">
     <path d="M 290.05625 221.13375 
L 379.08125 221.13375 
Q 381.08125 221.13375 381.08125 219.13375 
L 381.08125 29.318125 
Q 381.08125 27.318125 379.08125 27.318125 
L 290.05625 27.318125 
Q 288.05625 27.318125 288.05625 29.318125 
L 288.05625 219.13375 
Q 288.05625 221.13375 290.05625 221.13375 
z
" style="fill: #ffffff; opacity: 0.8; stroke: #cccccc; stroke-linejoin: miter"/>
    </g>
    <g id="line2d_32">
     <path d="M 292.05625 35.416562 
L 302.05625 35.416562 
L 312.05625 35.416562 
" style="fill: none; stroke: #1f77b4; stroke-width: 1.5; stroke-linecap: square"/>
    </g>
    <g id="text_18">
     <!-- -7.1 min -->
     <g transform="translate(320.05625 38.916562) scale(0.1 -0.1)">
      <use xlink:href="#DejaVuSans-2d"/>
      <use xlink:href="#DejaVuSans-37" transform="translate(36.083984 0)"/>
      <use xlink:href="#DejaVuSans-2e" transform="translate(99.707031 0)"/>
      <use xlink:href="#DejaVuSans-31" transform="translate(131.494141 0)"/>
      <use xlink:href="#DejaVuSans-20" transform="translate(195.117188 0)"/>
      <use xlink:href="#DejaVuSans-6d" transform="translate(226.904297 0)"/>
      <use xlink:href="#DejaVuSans-69" transform="translate(324.316406 0)"/>
      <use xlink:href="#DejaVuSans-6e" transform="translate(352.099609 0)"/>
     </g>
    </g>
    <g id="line2d_33">
     <path d="M 292.05625 50.094688 
L 302.05625 50.094688 
L 312.05625 50.094688 
" style="fill: none; stroke: #ff7f0e; stroke-width: 1.5; stroke-linecap: square"/>
    </g>
    <g id="text_19">
     <!-- 141.4 min -->
     <g transform="translate(320.05625 53.594688) scale(0.1 -0.1)">
      <use xlink:href="#DejaVuSans-31"/>
      <use xlink:href="#DejaVuSans-34" transform="translate(63.623047 0)"/>
      <use xlink:href="#DejaVuSans-31" transform="translate(127.246094 0)"/>
      <use xlink:href="#DejaVuSans-2e" transform="translate(190.869141 0)"/>
      <use xlink:href="#DejaVuSans-34" transform="translate(222.65625 0)"/>
      <use xlink:href="#DejaVuSans-20" transform="translate(286.279297 0)"/>
      <use xlink:href="#DejaVuSans-6d" transform="translate(318.066406 0)"/>
      <use xlink:href="#DejaVuSans-69" transform="translate(415.478516 0)"/>
      <use xlink:href="#DejaVuSans-6e" transform="translate(443.261719 0)"/>
     </g>
    </g>
    <g id="line2d_34">
     <path d="M 292.05625 64.772813 
L 302.05625 64.772813 
L 312.05625 64.772813 
" style="fill: none; stroke: #2ca02c; stroke-width: 1.5; stroke-linecap: square"/>
    </g>
    <g id="text_20">
     <!-- 506.0 min -->
     <g transform="translate(320.05625 68.272813) scale(0.1 -0.1)">
      <use xlink:href="#DejaVuSans-35"/>
      <use xlink:href="#DejaVuSans-30" transform="translate(63.623047 0)"/>
      <use xlink:href="#DejaVuSans-36" transform="translate(127.246094 0)"/>
      <use xlink:href="#DejaVuSans-2e" transform="translate(190.869141 0)"/>
      <use xlink:href="#DejaVuSans-30" transform="translate(222.65625 0)"/>
      <use xlink:href="#DejaVuSans-20" transform="translate(286.279297 0)"/>
      <use xlink:href="#DejaVuSans-6d" transform="translate(318.066406 0)"/>
      <use xlink:href="#DejaVuSans-69" transform="translate(415.478516 0)"/>
      <use xlink:href="#DejaVuSans-6e" transform="translate(443.261719 0)"/>
     </g>
    </g>
    <g id="line2d_35">
     <path d="M 292.05625 79.450938 
L 302.05625 79.450938 
L 312.05625 79.450938 
" style="fill: none; stroke: #d62728; stroke-width: 1.5; stroke-linecap: square"/>
    </g>
    <g id="text_21">
     <!-- 743.0 min -->
     <g transform="translate(320.05625 82.950938) scale(0.1 -0.1)">
      <defs>
       <path id="DejaVuSans-33" d="M 2597 2516 
Q 3050 2419 3304 2112 
Q 3559 1806 3559 1356 
Q 3559 666 3084 287 
Q 2609 -91 1734 -91 
Q 1441 -91 1130 -33 
Q 819 25 488 141 
L 488 750 
Q 750 597 1062 519 
Q 1375 441 1716 441 
Q 2309 441 2620 675 
Q 2931 909 2931 1356 
Q 2931 1769 2642 2001 
Q 2353 2234 1838 2234 
L 1294 2234 
L 1294 2753 
L 1863 2753 
Q 2328 2753 2575 2939 
Q 2822 3125 2822 3475 
Q 2822 3834 2567 4026 
Q 2313 4219 1838 4219 
Q 1578 4219 1281 4162 
Q 984 4106 628 3988 
L 628 4550 
Q 988 4650 1302 4700 
Q 1616 4750 1894 4750 
Q 2613 4750 3031 4423 
Q 3450 4097 3450 3541 
Q 3450 3153 3228 2886 
Q 3006 2619 2597 2516 
z
" transform="scale(0.015625)"/>
      </defs>
      <use xlink:href="#DejaVuSans-37"/>
      <use xlink:href="#DejaVuSans-34" transform="translate(63.623047 0)"/>
      <use xlink:href="#DejaVuSans-33" transform="translate(127.246094 0)"/>
      <use xlink:href="#DejaVuSans-2e" transform="translate(190.869141 0)"/>
      <use xlink:href="#DejaVuSans-30" transform="translate(222.65625 0)"/>
      <use xlink:href="#DejaVuSans-20" transform="translate(286.279297 0)"/>
      <use xlink:href="#DejaVuSans-6d" transform="translate(318.066406 0)"/>
      <use xlink:href="#DejaVuSans-69" transform="translate(415.478516 0)"/>
      <use xlink:href="#DejaVuSans-6e" transform="translate(443.261719 0)"/>
     </g>
    </g>
    <g id="line2d_36">
     <path d="M 292.05625 94.129063 
L 302.05625 94.129063 
L 312.05625 94.129063 
" style="fill: none; stroke: #9467bd; stroke-width: 1.5; stroke-linecap: square"/>
    </g>
    <g id="text_22">
     <!-- 784.5 min -->
     <g transform="translate(320.05625 97.629063) scale(0.1 -0.1)">
      <use xlink:href="#DejaVuSans-37"/>
      <use xlink:href="#DejaVuSans-38" transform="translate(63.623047 0)"/>
      <use xlink:href="#DejaVuSans-34" transform="translate(127.246094 0)"/>
      <use xlink:href="#DejaVuSans-2e" transform="translate(190.869141 0)"/>
      <use xlink:href="#DejaVuSans-35" transform="translate(222.65625 0)"/>
      <use xlink:href="#DejaVuSans-20" transform="translate(286.279297 0)"/>
      <use xlink:href="#DejaVuSans-6d" transform="translate(318.066406 0)"/>
      <use xlink:href="#DejaVuSans-69" transform="translate(415.478516 0)"/>
      <use xlink:href="#DejaVuSans-6e" transform="translate(443.261719 0)"/>
     </g>
    </g>
    <g id="line2d_37">
     <path d="M 292.05625 108.807187 
L 302.05625 108.807187 
L 312.05625 108.807187 
" style="fill: none; stroke: #8c564b; stroke-width: 1.5; stroke-linecap: square"/>
    </g>
    <g id="text_23">
     <!-- 924.0 min -->
     <g transform="translate(320.05625 112.307187) scale(0.1 -0.1)">
      <defs>
       <path id="DejaVuSans-39" d="M 703 97 
L 703 672 
Q 941 559 1184 500 
Q 1428 441 1663 441 
Q 2288 441 2617 861 
Q 2947 1281 2994 2138 
Q 2813 1869 2534 1725 
Q 2256 1581 1919 1581 
Q 1219 1581 811 2004 
Q 403 2428 403 3163 
Q 403 3881 828 4315 
Q 1253 4750 1959 4750 
Q 2769 4750 3195 4129 
Q 3622 3509 3622 2328 
Q 3622 1225 3098 567 
Q 2575 -91 1691 -91 
Q 1453 -91 1209 -44 
Q 966 3 703 97 
z
M 1959 2075 
Q 2384 2075 2632 2365 
Q 2881 2656 2881 3163 
Q 2881 3666 2632 3958 
Q 2384 4250 1959 4250 
Q 1534 4250 1286 3958 
Q 1038 3666 1038 3163 
Q 1038 2656 1286 2365 
Q 1534 2075 1959 2075 
z
" transform="scale(0.015625)"/>
      </defs>
      <use xlink:href="#DejaVuSans-39"/>
      <use xlink:href="#DejaVuSans-32" transform="translate(63.623047 0)"/>
      <use xlink:href="#DejaVuSans-34" transform="translate(127.246094 0)"/>
      <use xlink:href="#DejaVuSans-2e" transform="translate(190.869141 0)"/>
      <use xlink:href="#DejaVuSans-30" transform="translate(222.65625 0)"/>
      <use xlink:href="#DejaVuSans-20" transform="translate(286.279297 0)"/>
      <use xlink:href="#DejaVuSans-6d" transform="translate(318.066406 0)"/>
      <use xlink:href="#DejaVuSans-69" transform="translate(415.478516 0)"/>
      <use xlink:href="#DejaVuSans-6e" transform="translate(443.261719 0)"/>
     </g>
    </g>
    <g id="line2d_38">
     <path d="M 292.05625 123.485313 
L 302.05625 123.485313 
L 312.05625 123.485313 
" style="fill: none; stroke: #e377c2; stroke-width: 1.5; stroke-linecap: square"/>
    </g>
    <g id="text_24">
     <!-- 977.5 min -->
     <g transform="translate(320.05625 126.985313) scale(0.1 -0.1)">
      <use xlink:href="#DejaVuSans-39"/>
      <use xlink:href="#DejaVuSans-37" transform="translate(63.623047 0)"/>
      <use xlink:href="#DejaVuSans-37" transform="translate(127.246094 0)"/>
      <use xlink:href="#DejaVuSans-2e" transform="translate(190.869141 0)"/>
      <use xlink:href="#DejaVuSans-35" transform="translate(222.65625 0)"/>
      <use xlink:href="#DejaVuSans-20" transform="translate(286.279297 0)"/>
      <use xlink:href="#DejaVuSans-6d" transform="translate(318.066406 0)"/>
      <use xlink:href="#DejaVuSans-69" transform="translate(415.478516 0)"/>
      <use xlink:href="#DejaVuSans-6e" transform="translate(443.261719 0)"/>
     </g>
    </g>
    <g id="line2d_39">
     <path d="M 292.05625 138.163437 
L 302.05625 138.163437 
L 312.05625 138.163437 
" style="fill: none; stroke: #7f7f7f; stroke-width: 1.5; stroke-linecap: square"/>
    </g>
    <g id="text_25">
     <!-- 1154.0 min -->
     <g transform="translate(320.05625 141.663437) scale(0.1 -0.1)">
      <use xlink:href="#DejaVuSans-31"/>
      <use xlink:href="#DejaVuSans-31" transform="translate(63.623047 0)"/>
      <use xlink:href="#DejaVuSans-35" transform="translate(127.246094 0)"/>
      <use xlink:href="#DejaVuSans-34" transform="translate(190.869141 0)"/>
      <use xlink:href="#DejaVuSans-2e" transform="translate(254.492188 0)"/>
      <use xlink:href="#DejaVuSans-30" transform="translate(286.279297 0)"/>
      <use xlink:href="#DejaVuSans-20" transform="translate(349.902344 0)"/>
      <use xlink:href="#DejaVuSans-6d" transform="translate(381.689453 0)"/>
      <use xlink:href="#DejaVuSans-69" transform="translate(479.101562 0)"/>
      <use xlink:href="#DejaVuSans-6e" transform="translate(506.884766 0)"/>
     </g>
    </g>
    <g id="line2d_40">
     <path d="M 292.05625 152.841563 
L 302.05625 152.841563 
L 312.05625 152.841563 
" style="fill: none; stroke: #bcbd22; stroke-width: 1.5; stroke-linecap: square"/>
    </g>
    <g id="text_26">
     <!-- 1301.5 min -->
     <g transform="translate(320.05625 156.341563) scale(0.1 -0.1)">
      <use xlink:href="#DejaVuSans-31"/>
      <use xlink:href="#DejaVuSans-33" transform="translate(63.623047 0)"/>
      <use xlink:href="#DejaVuSans-30" transform="translate(127.246094 0)"/>
      <use xlink:href="#DejaVuSans-31" transform="translate(190.869141 0)"/>
      <use xlink:href="#DejaVuSans-2e" transform="translate(254.492188 0)"/>
      <use xlink:href="#DejaVuSans-35" transform="translate(286.279297 0)"/>
      <use xlink:href="#DejaVuSans-20" transform="translate(349.902344 0)"/>
      <use xlink:href="#DejaVuSans-6d" transform="translate(381.689453 0)"/>
      <use xlink:href="#DejaVuSans-69" transform="translate(479.101562 0)"/>
      <use xlink:href="#DejaVuSans-6e" transform="translate(506.884766 0)"/>
     </g>
    </g>
    <g id="line2d_41">
     <path d="M 292.05625 167.519687 
L 302.05625 167.519687 
L 312.05625 167.519687 
" style="fill: none; stroke: #17becf; stroke-width: 1.5; stroke-linecap: square"/>
    </g>
    <g id="text_27">
     <!-- 1370.5 min -->
     <g transform="translate(320.05625 171.019687) scale(0.1 -0.1)">
      <use xlink:href="#DejaVuSans-31"/>
      <use xlink:href="#DejaVuSans-33" transform="translate(63.623047 0)"/>
      <use xlink:href="#DejaVuSans-37" transform="translate(127.246094 0)"/>
      <use xlink:href="#DejaVuSans-30" transform="translate(190.869141 0)"/>
      <use xlink:href="#DejaVuSans-2e" transform="translate(254.492188 0)"/>
      <use xlink:href="#DejaVuSans-35" transform="translate(286.279297 0)"/>
      <use xlink:href="#DejaVuSans-20" transform="translate(349.902344 0)"/>
      <use xlink:href="#DejaVuSans-6d" transform="translate(381.689453 0)"/>
      <use xlink:href="#DejaVuSans-69" transform="translate(479.101562 0)"/>
      <use xlink:href="#DejaVuSans-6e" transform="translate(506.884766 0)"/>
     </g>
    </g>
    <g id="line2d_42">
     <path d="M 292.05625 182.197812 
L 302.05625 182.197812 
L 312.05625 182.197812 
" style="fill: none; stroke: #1f77b4; stroke-width: 1.5; stroke-linecap: square"/>
    </g>
    <g id="text_28">
     <!-- 1632.5 min -->
     <g transform="translate(320.05625 185.697812) scale(0.1 -0.1)">
      <use xlink:href="#DejaVuSans-31"/>
      <use xlink:href="#DejaVuSans-36" transform="translate(63.623047 0)"/>
      <use xlink:href="#DejaVuSans-33" transform="translate(127.246094 0)"/>
      <use xlink:href="#DejaVuSans-32" transform="translate(190.869141 0)"/>
      <use xlink:href="#DejaVuSans-2e" transform="translate(254.492188 0)"/>
      <use xlink:href="#DejaVuSans-35" transform="translate(286.279297 0)"/>
      <use xlink:href="#DejaVuSans-20" transform="translate(349.902344 0)"/>
      <use xlink:href="#DejaVuSans-6d" transform="translate(381.689453 0)"/>
      <use xlink:href="#DejaVuSans-69" transform="translate(479.101562 0)"/>
      <use xlink:href="#DejaVuSans-6e" transform="translate(506.884766 0)"/>
     </g>
    </g>
    <g id="line2d_43">
     <path d="M 292.05625 196.875937 
L 302.05625 196.875937 
L 312.05625 196.875937 
" style="fill: none; stroke: #ff7f0e; stroke-width: 1.5; stroke-linecap: square"/>
    </g>
    <g id="text_29">
     <!-- 1853.1 min -->
     <g transform="translate(320.05625 200.375937) scale(0.1 -0.1)">
      <use xlink:href="#DejaVuSans-31"/>
      <use xlink:href="#DejaVuSans-38" transform="translate(63.623047 0)"/>
      <use xlink:href="#DejaVuSans-35" transform="translate(127.246094 0)"/>
      <use xlink:href="#DejaVuSans-33" transform="translate(190.869141 0)"/>
      <use xlink:href="#DejaVuSans-2e" transform="translate(254.492188 0)"/>
      <use xlink:href="#DejaVuSans-31" transform="translate(286.279297 0)"/>
      <use xlink:href="#DejaVuSans-20" transform="translate(349.902344 0)"/>
      <use xlink:href="#DejaVuSans-6d" transform="translate(381.689453 0)"/>
      <use xlink:href="#DejaVuSans-69" transform="translate(479.101562 0)"/>
      <use xlink:href="#DejaVuSans-6e" transform="translate(506.884766 0)"/>
     </g>
    </g>
    <g id="line2d_44">
     <path d="M 292.05625 211.554062 
L 302.05625 211.554062 
L 312.05625 211.554062 
" style="fill: none; stroke: #2ca02c; stroke-width: 1.5; stroke-linecap: square"/>
    </g>
    <g id="text_30">
     <!-- 2439.6 min -->
     <g transform="translate(320.05625 215.054062) scale(0.1 -0.1)">
      <use xlink:href="#DejaVuSans-32"/>
      <use xlink:href="#DejaVuSans-34" transform="translate(63.623047 0)"/>
      <use xlink:href="#DejaVuSans-33" transform="translate(127.246094 0)"/>
      <use xlink:href="#DejaVuSans-39" transform="translate(190.869141 0)"/>
      <use xlink:href="#DejaVuSans-2e" transform="translate(254.492188 0)"/>
      <use xlink:href="#DejaVuSans-36" transform="translate(286.279297 0)"/>
      <use xlink:href="#DejaVuSans-20" transform="translate(349.902344 0)"/>
      <use xlink:href="#DejaVuSans-6d" transform="translate(381.689453 0)"/>
      <use xlink:href="#DejaVuSans-69" transform="translate(479.101562 0)"/>
      <use xlink:href="#DejaVuSans-6e" transform="translate(506.884766 0)"/>
     </g>
    </g>
   </g>
  </g>
 </g>
 <defs>
  <clipPath id="p4dccce14c8">
   <rect x="56.50625" y="22.318125" width="226.55" height="220.6"/>
  </clipPath>
 </defs>
</svg>
