<?xml version="1.0" encoding="utf-8" standalone="no"?>
<!DOCTYPE svg PUBLIC "-//W3C//DTD SVG 1.1//EN"
  "http://www.w3.org/Graphics/SVG/1.1/DTD/svg11.dtd">
<svg xmlns:xlink="http://www.w3.org/1999/xlink" width="568.35625pt" height="280.474375pt" viewBox="0 0 568.35625 280.474375" xmlns="http://www.w3.org/2000/svg" version="1.1">
 <metadata>
  <rdf:RDF xmlns:dc="http://purl.org/dc/elements/1.1/" xmlns:cc="http://creativecommons.org/ns#" xmlns:rdf="http://www.w3.org/1999/02/22-rdf-syntax-ns#">
   <cc:Work>
    <dc:type rdf:resource="http://purl.org/dc/dcmitype/StillImage"/>
    <dc:date>2026-01-13T16:26:27.452494</dc:date>
    <dc:format>image/svg+xml</dc:format>
    <dc:creator>
     <cc:Agent>
      <dc:title>Matplotlib v3.10.0, https://matplotlib.org/</dc:title>
     </cc:Agent>
    </dc:creator>
   </cc:Work>
  </rdf:RDF>
 </metadata>
 <defs>
  <style type="text/css">*{stroke-linejoin: round; stroke-linecap: butt}</style>
 </defs>
 <g id="figure_1">
  <g id="patch_1">
   <path d="M 0 280.474375 
L 568.35625 280.474375 
L 568.35625 0 
L 0 0 
z
" style="fill: #ffffff"/>
  </g>
  <g id="axes_1">
   <g id="patch_2">
    <path d="M 50.14375 242.918125 
L 377.19375 242.918125 
L 377.19375 22.318125 
L 50.14375 22.318125 
z
" style="fill: #ffffff"/>
   </g>
   <g id="matplotlib.axis_1">
    <g id="xtick_1">
     <g id="line2d_1">
      <defs>
       <path id="mcefaa0ed0d" d="M 0 0 
L 0 3.5 
" style="stroke: #000000; stroke-width: 0.8"/>
      </defs>
      <g>
       <use xlink:href="#mcefaa0ed0d" x="349.939583" y="242.918125" style="stroke: #000000; stroke-width: 0.8"/>
      </g>
     </g>
     <g id="text_1">
      <!-- 1140 -->
      <g transform="translate(337.214583 257.516563) scale(0.1 -0.1)">
       <defs>
        <path id="DejaVuSans-31" d="M 794 531 
L 1825 531 
L 1825 4091 
L 703 3866 
L 703 4441 
L 1819 4666 
L 2450 4666 
L 2450 531 
L 3481 531 
L 3481 0 
L 794 0 
L 794 531 
z
" transform="scale(0.015625)"/>
        <path id="DejaVuSans-34" d="M 2419 4116 
L 825 1625 
L 2419 1625 
L 2419 4116 
z
M 2253 4666 
L 3047 4666 
L 3047 1625 
L 3713 1625 
L 3713 1100 
L 3047 1100 
L 3047 0 
L 2419 0 
L 2419 1100 
L 313 1100 
L 313 1709 
L 2253 4666 
z
" transform="scale(0.015625)"/>
        <path id="DejaVuSans-30" d="M 2034 4250 
Q 1547 4250 1301 3770 
Q 1056 3291 1056 2328 
Q 1056 1369 1301 889 
Q 1547 409 2034 409 
Q 2525 409 2770 889 
Q 3016 1369 3016 2328 
Q 3016 3291 2770 3770 
Q 2525 4250 2034 4250 
z
M 2034 4750 
Q 2819 4750 3233 4129 
Q 3647 3509 3647 2328 
Q 3647 1150 3233 529 
Q 2819 -91 2034 -91 
Q 1250 -91 836 529 
Q 422 1150 422 2328 
Q 422 3509 836 4129 
Q 1250 4750 2034 4750 
z
" transform="scale(0.015625)"/>
       </defs>
       <use xlink:href="#DejaVuSans-31"/>
       <use xlink:href="#DejaVuSans-31" transform="translate(63.623047 0)"/>
       <use xlink:href="#DejaVuSans-34" transform="translate(127.246094 0)"/>
       <use xlink:href="#DejaVuSans-30" transform="translate(190.869141 0)"/>
      </g>
     </g>
    </g>
    <g id="xtick_2">
     <g id="line2d_2">
      <g>
       <use xlink:href="#mcefaa0ed0d" x="295.43125" y="242.918125" style="stroke: #000000; stroke-width: 0.8"/>
      </g>
     </g>
     <g id="text_2">
      <!-- 1160 -->
      <g transform="translate(282.70625 257.516563) scale(0.1 -0.1)">
       <defs>
        <path id="DejaVuSans-36" d="M 2113 2584 
Q 1688 2584 1439 2293 
Q 1191 2003 1191 1497 
Q 1191 994 1439 701 
Q 1688 409 2113 409 
Q 2538 409 2786 701 
Q 3034 994 3034 1497 
Q 3034 2003 2786 2293 
Q 2538 2584 2113 2584 
z
M 3366 4563 
L 3366 3988 
Q 3128 4100 2886 4159 
Q 2644 4219 2406 4219 
Q 1781 4219 1451 3797 
Q 1122 3375 1075 2522 
Q 1259 2794 1537 2939 
Q 1816 3084 2150 3084 
Q 2853 3084 3261 2657 
Q 3669 2231 3669 1497 
Q 3669 778 3244 343 
Q 2819 -91 2113 -91 
Q 1303 -91 875 529 
Q 447 1150 447 2328 
Q 447 3434 972 4092 
Q 1497 4750 2381 4750 
Q 2619 4750 2861 4703 
Q 3103 4656 3366 4563 
z
" transform="scale(0.015625)"/>
       </defs>
       <use xlink:href="#DejaVuSans-31"/>
       <use xlink:href="#DejaVuSans-31" transform="translate(63.623047 0)"/>
       <use xlink:href="#DejaVuSans-36" transform="translate(127.246094 0)"/>
       <use xlink:href="#DejaVuSans-30" transform="translate(190.869141 0)"/>
      </g>
     </g>
    </g>
    <g id="xtick_3">
     <g id="line2d_3">
      <g>
       <use xlink:href="#mcefaa0ed0d" x="240.922917" y="242.918125" style="stroke: #000000; stroke-width: 0.8"/>
      </g>
     </g>
     <g id="text_3">
      <!-- 1180 -->
      <g transform="translate(228.197917 257.516563) scale(0.1 -0.1)">
       <defs>
        <path id="DejaVuSans-38" d="M 2034 2216 
Q 1584 2216 1326 1975 
Q 1069 1734 1069 1313 
Q 1069 891 1326 650 
Q 1584 409 2034 409 
Q 2484 409 2743 651 
Q 3003 894 3003 1313 
Q 3003 1734 2745 1975 
Q 2488 2216 2034 2216 
z
M 1403 2484 
Q 997 2584 770 2862 
Q 544 3141 544 3541 
Q 544 4100 942 4425 
Q 1341 4750 2034 4750 
Q 2731 4750 3128 4425 
Q 3525 4100 3525 3541 
Q 3525 3141 3298 2862 
Q 3072 2584 2669 2484 
Q 3125 2378 3379 2068 
Q 3634 1759 3634 1313 
Q 3634 634 3220 271 
Q 2806 -91 2034 -91 
Q 1263 -91 848 271 
Q 434 634 434 1313 
Q 434 1759 690 2068 
Q 947 2378 1403 2484 
z
M 1172 3481 
Q 1172 3119 1398 2916 
Q 1625 2713 2034 2713 
Q 2441 2713 2670 2916 
Q 2900 3119 2900 3481 
Q 2900 3844 2670 4047 
Q 2441 4250 2034 4250 
Q 1625 4250 1398 4047 
Q 1172 3844 1172 3481 
z
" transform="scale(0.015625)"/>
       </defs>
       <use xlink:href="#DejaVuSans-31"/>
       <use xlink:href="#DejaVuSans-31" transform="translate(63.623047 0)"/>
       <use xlink:href="#DejaVuSans-38" transform="translate(127.246094 0)"/>
       <use xlink:href="#DejaVuSans-30" transform="translate(190.869141 0)"/>
      </g>
     </g>
    </g>
    <g id="xtick_4">
     <g id="line2d_4">
      <g>
       <use xlink:href="#mcefaa0ed0d" x="186.414583" y="242.918125" style="stroke: #000000; stroke-width: 0.8"/>
      </g>
     </g>
     <g id="text_4">
      <!-- 1200 -->
      <g transform="translate(173.689583 257.516563) scale(0.1 -0.1)">
       <defs>
        <path id="DejaVuSans-32" d="M 1228 531 
L 3431 531 
L 3431 0 
L 469 0 
L 469 531 
Q 828 903 1448 1529 
Q 2069 2156 2228 2338 
Q 2531 2678 2651 2914 
Q 2772 3150 2772 3378 
Q 2772 3750 2511 3984 
Q 2250 4219 1831 4219 
Q 1534 4219 1204 4116 
Q 875 4013 500 3803 
L 500 4441 
Q 881 4594 1212 4672 
Q 1544 4750 1819 4750 
Q 2544 4750 2975 4387 
Q 3406 4025 3406 3419 
Q 3406 3131 3298 2873 
Q 3191 2616 2906 2266 
Q 2828 2175 2409 1742 
Q 1991 1309 1228 531 
z
" transform="scale(0.015625)"/>
       </defs>
       <use xlink:href="#DejaVuSans-31"/>
       <use xlink:href="#DejaVuSans-32" transform="translate(63.623047 0)"/>
       <use xlink:href="#DejaVuSans-30" transform="translate(127.246094 0)"/>
       <use xlink:href="#DejaVuSans-30" transform="translate(190.869141 0)"/>
      </g>
     </g>
    </g>
    <g id="xtick_5">
     <g id="line2d_5">
      <g>
       <use xlink:href="#mcefaa0ed0d" x="131.90625" y="242.918125" style="stroke: #000000; stroke-width: 0.8"/>
      </g>
     </g>
     <g id="text_5">
      <!-- 1220 -->
      <g transform="translate(119.18125 257.516563) scale(0.1 -0.1)">
       <use xlink:href="#DejaVuSans-31"/>
       <use xlink:href="#DejaVuSans-32" transform="translate(63.623047 0)"/>
       <use xlink:href="#DejaVuSans-32" transform="translate(127.246094 0)"/>
       <use xlink:href="#DejaVuSans-30" transform="translate(190.869141 0)"/>
      </g>
     </g>
    </g>
    <g id="xtick_6">
     <g id="line2d_6">
      <g>
       <use xlink:href="#mcefaa0ed0d" x="77.397917" y="242.918125" style="stroke: #000000; stroke-width: 0.8"/>
      </g>
     </g>
     <g id="text_6">
      <!-- 1240 -->
      <g transform="translate(64.672917 257.516563) scale(0.1 -0.1)">
       <use xlink:href="#DejaVuSans-31"/>
       <use xlink:href="#DejaVuSans-32" transform="translate(63.623047 0)"/>
       <use xlink:href="#DejaVuSans-34" transform="translate(127.246094 0)"/>
       <use xlink:href="#DejaVuSans-30" transform="translate(190.869141 0)"/>
      </g>
     </g>
    </g>
    <g id="text_7">
     <!-- Wavenumber (cm⁻¹) -->
     <g transform="translate(162.675781 271.194687) scale(0.1 -0.1)">
      <defs>
       <path id="DejaVuSans-57" d="M 213 4666 
L 850 4666 
L 1831 722 
L 2809 4666 
L 3519 4666 
L 4500 722 
L 5478 4666 
L 6119 4666 
L 4947 0 
L 4153 0 
L 3169 4050 
L 2175 0 
L 1381 0 
L 213 4666 
z
" transform="scale(0.015625)"/>
       <path id="DejaVuSans-61" d="M 2194 1759 
Q 1497 1759 1228 1600 
Q 959 1441 959 1056 
Q 959 750 1161 570 
Q 1363 391 1709 391 
Q 2188 391 2477 730 
Q 2766 1069 2766 1631 
L 2766 1759 
L 2194 1759 
z
M 3341 1997 
L 3341 0 
L 2766 0 
L 2766 531 
Q 2569 213 2275 61 
Q 1981 -91 1556 -91 
Q 1019 -91 701 211 
Q 384 513 384 1019 
Q 384 1609 779 1909 
Q 1175 2209 1959 2209 
L 2766 2209 
L 2766 2266 
Q 2766 2663 2505 2880 
Q 2244 3097 1772 3097 
Q 1472 3097 1187 3025 
Q 903 2953 641 2809 
L 641 3341 
Q 956 3463 1253 3523 
Q 1550 3584 1831 3584 
Q 2591 3584 2966 3190 
Q 3341 2797 3341 1997 
z
" transform="scale(0.015625)"/>
       <path id="DejaVuSans-76" d="M 191 3500 
L 800 3500 
L 1894 563 
L 2988 3500 
L 3597 3500 
L 2284 0 
L 1503 0 
L 191 3500 
z
" transform="scale(0.015625)"/>
       <path id="DejaVuSans-65" d="M 3597 1894 
L 3597 1613 
L 953 1613 
Q 991 1019 1311 708 
Q 1631 397 2203 397 
Q 2534 397 2845 478 
Q 3156 559 3463 722 
L 3463 178 
Q 3153 47 2828 -22 
Q 2503 -91 2169 -91 
Q 1331 -91 842 396 
Q 353 884 353 1716 
Q 353 2575 817 3079 
Q 1281 3584 2069 3584 
Q 2775 3584 3186 3129 
Q 3597 2675 3597 1894 
z
M 3022 2063 
Q 3016 2534 2758 2815 
Q 2500 3097 2075 3097 
Q 1594 3097 1305 2825 
Q 1016 2553 972 2059 
L 3022 2063 
z
" transform="scale(0.015625)"/>
       <path id="DejaVuSans-6e" d="M 3513 2113 
L 3513 0 
L 2938 0 
L 2938 2094 
Q 2938 2591 2744 2837 
Q 2550 3084 2163 3084 
Q 1697 3084 1428 2787 
Q 1159 2491 1159 1978 
L 1159 0 
L 581 0 
L 581 3500 
L 1159 3500 
L 1159 2956 
Q 1366 3272 1645 3428 
Q 1925 3584 2291 3584 
Q 2894 3584 3203 3211 
Q 3513 2838 3513 2113 
z
" transform="scale(0.015625)"/>
       <path id="DejaVuSans-75" d="M 544 1381 
L 544 3500 
L 1119 3500 
L 1119 1403 
Q 1119 906 1312 657 
Q 1506 409 1894 409 
Q 2359 409 2629 706 
Q 2900 1003 2900 1516 
L 2900 3500 
L 3475 3500 
L 3475 0 
L 2900 0 
L 2900 538 
Q 2691 219 2414 64 
Q 2138 -91 1772 -91 
Q 1169 -91 856 284 
Q 544 659 544 1381 
z
M 1991 3584 
L 1991 3584 
z
" transform="scale(0.015625)"/>
       <path id="DejaVuSans-6d" d="M 3328 2828 
Q 3544 3216 3844 3400 
Q 4144 3584 4550 3584 
Q 5097 3584 5394 3201 
Q 5691 2819 5691 2113 
L 5691 0 
L 5113 0 
L 5113 2094 
Q 5113 2597 4934 2840 
Q 4756 3084 4391 3084 
Q 3944 3084 3684 2787 
Q 3425 2491 3425 1978 
L 3425 0 
L 2847 0 
L 2847 2094 
Q 2847 2600 2669 2842 
Q 2491 3084 2119 3084 
Q 1678 3084 1418 2786 
Q 1159 2488 1159 1978 
L 1159 0 
L 581 0 
L 581 3500 
L 1159 3500 
L 1159 2956 
Q 1356 3278 1631 3431 
Q 1906 3584 2284 3584 
Q 2666 3584 2933 3390 
Q 3200 3197 3328 2828 
z
" transform="scale(0.015625)"/>
       <path id="DejaVuSans-62" d="M 3116 1747 
Q 3116 2381 2855 2742 
Q 2594 3103 2138 3103 
Q 1681 3103 1420 2742 
Q 1159 2381 1159 1747 
Q 1159 1113 1420 752 
Q 1681 391 2138 391 
Q 2594 391 2855 752 
Q 3116 1113 3116 1747 
z
M 1159 2969 
Q 1341 3281 1617 3432 
Q 1894 3584 2278 3584 
Q 2916 3584 3314 3078 
Q 3713 2572 3713 1747 
Q 3713 922 3314 415 
Q 2916 -91 2278 -91 
Q 1894 -91 1617 61 
Q 1341 213 1159 525 
L 1159 0 
L 581 0 
L 581 4863 
L 1159 4863 
L 1159 2969 
z
" transform="scale(0.015625)"/>
       <path id="DejaVuSans-72" d="M 2631 2963 
Q 2534 3019 2420 3045 
Q 2306 3072 2169 3072 
Q 1681 3072 1420 2755 
Q 1159 2438 1159 1844 
L 1159 0 
L 581 0 
L 581 3500 
L 1159 3500 
L 1159 2956 
Q 1341 3275 1631 3429 
Q 1922 3584 2338 3584 
Q 2397 3584 2469 3576 
Q 2541 3569 2628 3553 
L 2631 2963 
z
" transform="scale(0.015625)"/>
       <path id="DejaVuSans-20" transform="scale(0.015625)"/>
       <path id="DejaVuSans-28" d="M 1984 4856 
Q 1566 4138 1362 3434 
Q 1159 2731 1159 2009 
Q 1159 1288 1364 580 
Q 1569 -128 1984 -844 
L 1484 -844 
Q 1016 -109 783 600 
Q 550 1309 550 2009 
Q 550 2706 781 3412 
Q 1013 4119 1484 4856 
L 1984 4856 
z
" transform="scale(0.015625)"/>
       <path id="DejaVuSans-63" d="M 3122 3366 
L 3122 2828 
Q 2878 2963 2633 3030 
Q 2388 3097 2138 3097 
Q 1578 3097 1268 2742 
Q 959 2388 959 1747 
Q 959 1106 1268 751 
Q 1578 397 2138 397 
Q 2388 397 2633 464 
Q 2878 531 3122 666 
L 3122 134 
Q 2881 22 2623 -34 
Q 2366 -91 2075 -91 
Q 1284 -91 818 406 
Q 353 903 353 1747 
Q 353 2603 823 3093 
Q 1294 3584 2113 3584 
Q 2378 3584 2631 3529 
Q 2884 3475 3122 3366 
z
" transform="scale(0.015625)"/>
       <path id="DejaVuSans-207b" d="M 428 3359 
L 2950 3359 
L 2950 3063 
L 428 3063 
L 428 3359 
z
" transform="scale(0.015625)"/>
       <path id="DejaVuSans-b9" d="M 488 2431 
L 1125 2431 
L 1125 4341 
L 428 4213 
L 428 4575 
L 1147 4697 
L 1575 4697 
L 1575 2431 
L 2216 2431 
L 2216 2088 
L 488 2088 
L 488 2431 
z
" transform="scale(0.015625)"/>
       <path id="DejaVuSans-29" d="M 513 4856 
L 1013 4856 
Q 1481 4119 1714 3412 
Q 1947 2706 1947 2009 
Q 1947 1309 1714 600 
Q 1481 -109 1013 -844 
L 513 -844 
Q 928 -128 1133 580 
Q 1338 1288 1338 2009 
Q 1338 2731 1133 3434 
Q 928 4138 513 4856 
z
" transform="scale(0.015625)"/>
      </defs>
      <use xlink:href="#DejaVuSans-57"/>
      <use xlink:href="#DejaVuSans-61" transform="translate(92.501953 0)"/>
      <use xlink:href="#DejaVuSans-76" transform="translate(153.78125 0)"/>
      <use xlink:href="#DejaVuSans-65" transform="translate(212.960938 0)"/>
      <use xlink:href="#DejaVuSans-6e" transform="translate(274.484375 0)"/>
      <use xlink:href="#DejaVuSans-75" transform="translate(337.863281 0)"/>
      <use xlink:href="#DejaVuSans-6d" transform="translate(401.242188 0)"/>
      <use xlink:href="#DejaVuSans-62" transform="translate(498.654297 0)"/>
      <use xlink:href="#DejaVuSans-65" transform="translate(562.130859 0)"/>
      <use xlink:href="#DejaVuSans-72" transform="translate(623.654297 0)"/>
      <use xlink:href="#DejaVuSans-20" transform="translate(664.767578 0)"/>
      <use xlink:href="#DejaVuSans-28" transform="translate(696.554688 0)"/>
      <use xlink:href="#DejaVuSans-63" transform="translate(735.568359 0)"/>
      <use xlink:href="#DejaVuSans-6d" transform="translate(790.548828 0)"/>
      <use xlink:href="#DejaVuSans-207b" transform="translate(887.960938 0)"/>
      <use xlink:href="#DejaVuSans-b9" transform="translate(940.744141 0)"/>
      <use xlink:href="#DejaVuSans-29" transform="translate(980.832031 0)"/>
     </g>
    </g>
   </g>
   <g id="matplotlib.axis_2">
    <g id="ytick_1">
     <g id="line2d_7">
      <defs>
       <path id="m5aa7f46756" d="M 0 0 
L -3.5 0 
" style="stroke: #000000; stroke-width: 0.8"/>
      </defs>
      <g>
       <use xlink:href="#m5aa7f46756" x="50.14375" y="217.635878" style="stroke: #000000; stroke-width: 0.8"/>
      </g>
     </g>
     <g id="text_8">
      <!-- 0.04 -->
      <g transform="translate(20.878125 221.435097) scale(0.1 -0.1)">
       <defs>
        <path id="DejaVuSans-2e" d="M 684 794 
L 1344 794 
L 1344 0 
L 684 0 
L 684 794 
z
" transform="scale(0.015625)"/>
       </defs>
       <use xlink:href="#DejaVuSans-30"/>
       <use xlink:href="#DejaVuSans-2e" transform="translate(63.623047 0)"/>
       <use xlink:href="#DejaVuSans-30" transform="translate(95.410156 0)"/>
       <use xlink:href="#DejaVuSans-34" transform="translate(159.033203 0)"/>
      </g>
     </g>
    </g>
    <g id="ytick_2">
     <g id="line2d_8">
      <g>
       <use xlink:href="#m5aa7f46756" x="50.14375" y="185.846724" style="stroke: #000000; stroke-width: 0.8"/>
      </g>
     </g>
     <g id="text_9">
      <!-- 0.06 -->
      <g transform="translate(20.878125 189.645943) scale(0.1 -0.1)">
       <use xlink:href="#DejaVuSans-30"/>
       <use xlink:href="#DejaVuSans-2e" transform="translate(63.623047 0)"/>
       <use xlink:href="#DejaVuSans-30" transform="translate(95.410156 0)"/>
       <use xlink:href="#DejaVuSans-36" transform="translate(159.033203 0)"/>
      </g>
     </g>
    </g>
    <g id="ytick_3">
     <g id="line2d_9">
      <g>
       <use xlink:href="#m5aa7f46756" x="50.14375" y="154.057571" style="stroke: #000000; stroke-width: 0.8"/>
      </g>
     </g>
     <g id="text_10">
      <!-- 0.08 -->
      <g transform="translate(20.878125 157.856789) scale(0.1 -0.1)">
       <use xlink:href="#DejaVuSans-30"/>
       <use xlink:href="#DejaVuSans-2e" transform="translate(63.623047 0)"/>
       <use xlink:href="#DejaVuSans-30" transform="translate(95.410156 0)"/>
       <use xlink:href="#DejaVuSans-38" transform="translate(159.033203 0)"/>
      </g>
     </g>
    </g>
    <g id="ytick_4">
     <g id="line2d_10">
      <g>
       <use xlink:href="#m5aa7f46756" x="50.14375" y="122.268417" style="stroke: #000000; stroke-width: 0.8"/>
      </g>
     </g>
     <g id="text_11">
      <!-- 0.10 -->
      <g transform="translate(20.878125 126.067636) scale(0.1 -0.1)">
       <use xlink:href="#DejaVuSans-30"/>
       <use xlink:href="#DejaVuSans-2e" transform="translate(63.623047 0)"/>
       <use xlink:href="#DejaVuSans-31" transform="translate(95.410156 0)"/>
       <use xlink:href="#DejaVuSans-30" transform="translate(159.033203 0)"/>
      </g>
     </g>
    </g>
    <g id="ytick_5">
     <g id="line2d_11">
      <g>
       <use xlink:href="#m5aa7f46756" x="50.14375" y="90.479263" style="stroke: #000000; stroke-width: 0.8"/>
      </g>
     </g>
     <g id="text_12">
      <!-- 0.12 -->
      <g transform="translate(20.878125 94.278482) scale(0.1 -0.1)">
       <use xlink:href="#DejaVuSans-30"/>
       <use xlink:href="#DejaVuSans-2e" transform="translate(63.623047 0)"/>
       <use xlink:href="#DejaVuSans-31" transform="translate(95.410156 0)"/>
       <use xlink:href="#DejaVuSans-32" transform="translate(159.033203 0)"/>
      </g>
     </g>
    </g>
    <g id="ytick_6">
     <g id="line2d_12">
      <g>
       <use xlink:href="#m5aa7f46756" x="50.14375" y="58.69011" style="stroke: #000000; stroke-width: 0.8"/>
      </g>
     </g>
     <g id="text_13">
      <!-- 0.14 -->
      <g transform="translate(20.878125 62.489328) scale(0.1 -0.1)">
       <use xlink:href="#DejaVuSans-30"/>
       <use xlink:href="#DejaVuSans-2e" transform="translate(63.623047 0)"/>
       <use xlink:href="#DejaVuSans-31" transform="translate(95.410156 0)"/>
       <use xlink:href="#DejaVuSans-34" transform="translate(159.033203 0)"/>
      </g>
     </g>
    </g>
    <g id="ytick_7">
     <g id="line2d_13">
      <g>
       <use xlink:href="#m5aa7f46756" x="50.14375" y="26.900956" style="stroke: #000000; stroke-width: 0.8"/>
      </g>
     </g>
     <g id="text_14">
      <!-- 0.16 -->
      <g transform="translate(20.878125 30.700175) scale(0.1 -0.1)">
       <use xlink:href="#DejaVuSans-30"/>
       <use xlink:href="#DejaVuSans-2e" transform="translate(63.623047 0)"/>
       <use xlink:href="#DejaVuSans-31" transform="translate(95.410156 0)"/>
       <use xlink:href="#DejaVuSans-36" transform="translate(159.033203 0)"/>
      </g>
     </g>
    </g>
    <g id="text_15">
     <!-- Absorbance -->
     <g transform="translate(14.798438 162.165) rotate(-90) scale(0.1 -0.1)">
      <defs>
       <path id="DejaVuSans-41" d="M 2188 4044 
L 1331 1722 
L 3047 1722 
L 2188 4044 
z
M 1831 4666 
L 2547 4666 
L 4325 0 
L 3669 0 
L 3244 1197 
L 1141 1197 
L 716 0 
L 50 0 
L 1831 4666 
z
" transform="scale(0.015625)"/>
       <path id="DejaVuSans-73" d="M 2834 3397 
L 2834 2853 
Q 2591 2978 2328 3040 
Q 2066 3103 1784 3103 
Q 1356 3103 1142 2972 
Q 928 2841 928 2578 
Q 928 2378 1081 2264 
Q 1234 2150 1697 2047 
L 1894 2003 
Q 2506 1872 2764 1633 
Q 3022 1394 3022 966 
Q 3022 478 2636 193 
Q 2250 -91 1575 -91 
Q 1294 -91 989 -36 
Q 684 19 347 128 
L 347 722 
Q 666 556 975 473 
Q 1284 391 1588 391 
Q 1994 391 2212 530 
Q 2431 669 2431 922 
Q 2431 1156 2273 1281 
Q 2116 1406 1581 1522 
L 1381 1569 
Q 847 1681 609 1914 
Q 372 2147 372 2553 
Q 372 3047 722 3315 
Q 1072 3584 1716 3584 
Q 2034 3584 2315 3537 
Q 2597 3491 2834 3397 
z
" transform="scale(0.015625)"/>
       <path id="DejaVuSans-6f" d="M 1959 3097 
Q 1497 3097 1228 2736 
Q 959 2375 959 1747 
Q 959 1119 1226 758 
Q 1494 397 1959 397 
Q 2419 397 2687 759 
Q 2956 1122 2956 1747 
Q 2956 2369 2687 2733 
Q 2419 3097 1959 3097 
z
M 1959 3584 
Q 2709 3584 3137 3096 
Q 3566 2609 3566 1747 
Q 3566 888 3137 398 
Q 2709 -91 1959 -91 
Q 1206 -91 779 398 
Q 353 888 353 1747 
Q 353 2609 779 3096 
Q 1206 3584 1959 3584 
z
" transform="scale(0.015625)"/>
      </defs>
      <use xlink:href="#DejaVuSans-41"/>
      <use xlink:href="#DejaVuSans-62" transform="translate(68.408203 0)"/>
      <use xlink:href="#DejaVuSans-73" transform="translate(131.884766 0)"/>
      <use xlink:href="#DejaVuSans-6f" transform="translate(183.984375 0)"/>
      <use xlink:href="#DejaVuSans-72" transform="translate(245.166016 0)"/>
      <use xlink:href="#DejaVuSans-62" transform="translate(286.279297 0)"/>
      <use xlink:href="#DejaVuSans-61" transform="translate(349.755859 0)"/>
      <use xlink:href="#DejaVuSans-6e" transform="translate(411.035156 0)"/>
      <use xlink:href="#DejaVuSans-63" transform="translate(474.414062 0)"/>
      <use xlink:href="#DejaVuSans-65" transform="translate(529.394531 0)"/>
     </g>
    </g>
   </g>
   <g id="line2d_14">
    <path d="M -1 160.212875 
L 1.320777 161.487703 
L 11.484288 166.553121 
L 21.647799 170.582456 
L 31.811311 171.978627 
L 41.974822 173.260279 
L 52.138333 176.155356 
L 62.301844 182.909352 
L 72.465355 191.138967 
L 82.628867 199.839169 
L 92.792378 208.24797 
L 102.955889 214.610438 
L 113.1194 217.555167 
L 123.282911 218.331022 
L 133.446423 219.225466 
L 143.609934 221.467443 
L 153.773445 224.296631 
L 163.936956 225.876657 
L 174.100467 226.792741 
L 184.263978 226.679689 
L 194.42749 225.207513 
L 204.591001 222.252696 
L 214.754512 221.126769 
L 224.918023 223.802618 
L 235.081534 227.86273 
L 245.245046 229.372511 
L 255.408557 228.300449 
L 265.572068 224.536917 
L 275.735579 212.380623 
L 285.89909 190.843286 
L 296.062602 177.9111 
L 306.226113 187.333111 
L 316.389624 200.69721 
L 326.553135 202.880051 
L 336.716646 200.619451 
L 346.880158 199.893454 
L 357.043669 200.178597 
L 367.20718 196.697477 
L 377.370691 188.366954 
L 387.534202 177.195554 
L 397.697714 165.099818 
L 407.861225 151.806942 
L 418.024736 135.341611 
L 428.188247 119.426103 
L 438.351758 105.705776 
L 448.51527 89.233983 
L 458.678781 65.112293 
L 468.842292 31.789644 
L 476.423166 -1 
L 476.423166 -1 
" clip-path="url(#p6c99b001d5)" style="fill: none; stroke: #1f77b4; stroke-width: 1.5; stroke-linecap: square"/>
   </g>
   <g id="line2d_15">
    <path d="M -1 154.400601 
L 11.484288 161.400432 
L 21.647799 166.212952 
L 31.811311 168.263151 
L 41.974822 169.782005 
L 52.138333 172.276037 
L 62.301844 177.74409 
L 72.465355 183.927524 
L 82.628867 190.917366 
L 92.792378 198.831321 
L 102.955889 205.925651 
L 113.1194 209.799757 
L 123.282911 211.135822 
L 133.446423 212.291603 
L 143.609934 214.626464 
L 153.773445 217.697651 
L 163.936956 219.562657 
L 174.100467 220.682681 
L 184.263978 220.973447 
L 194.42749 219.987883 
L 204.591001 217.493484 
L 214.754512 216.293483 
L 224.918023 218.42173 
L 235.081534 221.787356 
L 245.245046 222.589225 
L 255.408557 221.121571 
L 265.572068 217.759022 
L 275.735579 206.88505 
L 285.89909 186.58846 
L 296.062602 172.580926 
L 306.226113 178.497972 
L 316.389624 190.157719 
L 326.553135 192.382176 
L 336.716646 189.464522 
L 346.880158 187.315633 
L 357.043669 187.08687 
L 367.20718 185.033947 
L 377.370691 178.648699 
L 387.534202 168.568954 
L 397.697714 157.10805 
L 407.861225 144.073023 
L 418.024736 127.703025 
L 428.188247 112.050703 
L 438.351758 98.257734 
L 448.51527 81.771212 
L 458.678781 57.792922 
L 468.842292 24.986076 
L 474.893531 -1 
L 474.893531 -1 
" clip-path="url(#p6c99b001d5)" style="fill: none; stroke: #ff7f0e; stroke-width: 1.5; stroke-linecap: square"/>
   </g>
   <g id="line2d_16">
    <path d="M -1 155.569532 
L 11.484288 162.831051 
L 21.647799 167.826139 
L 31.811311 170.065733 
L 41.974822 171.585873 
L 52.138333 174.00363 
L 62.301844 178.76001 
L 72.465355 183.959843 
L 82.628867 189.906891 
L 92.792378 197.446265 
L 102.955889 204.807899 
L 113.1194 209.08938 
L 123.282911 210.87771 
L 133.446423 212.263443 
L 143.609934 214.880689 
L 153.773445 217.895612 
L 163.936956 219.844594 
L 174.100467 221.001052 
L 184.263978 221.35708 
L 194.42749 220.77383 
L 204.591001 218.609196 
L 214.754512 217.572408 
L 224.918023 219.502668 
L 235.081534 222.744149 
L 245.245046 223.238086 
L 255.408557 221.715958 
L 265.572068 218.477279 
L 275.735579 208.061372 
L 285.89909 188.298247 
L 296.062602 173.55522 
L 306.226113 177.812704 
L 316.389624 188.656908 
L 326.553135 191.290159 
L 336.716646 188.793414 
L 346.880158 187.256579 
L 357.043669 187.273445 
L 367.20718 185.16879 
L 377.370691 178.729305 
L 387.534202 168.795915 
L 397.697714 157.431635 
L 407.861225 144.584513 
L 418.024736 128.558563 
L 428.188247 112.79879 
L 438.351758 98.797617 
L 448.51527 81.940439 
L 458.678781 57.977542 
L 468.842292 25.149106 
L 474.941312 -1 
L 474.941312 -1 
" clip-path="url(#p6c99b001d5)" style="fill: none; stroke: #2ca02c; stroke-width: 1.5; stroke-linecap: square"/>
   </g>
   <g id="line2d_17">
    <path d="M -1 157.857231 
L 11.484288 165.39211 
L 21.647799 170.60029 
L 31.811311 173.180463 
L 41.974822 174.805633 
L 52.138333 176.96176 
L 62.301844 180.90466 
L 72.465355 184.999761 
L 82.628867 189.927729 
L 92.792378 197.182606 
L 102.955889 204.905321 
L 113.1194 209.731208 
L 123.282911 211.904642 
L 133.446423 213.417521 
L 143.609934 216.210204 
L 153.773445 219.370097 
L 163.936956 221.465225 
L 174.100467 222.670618 
L 184.263978 223.214156 
L 194.42749 222.985038 
L 204.591001 221.207757 
L 214.754512 220.220409 
L 224.918023 221.746315 
L 235.081534 224.596864 
L 245.245046 224.9534 
L 255.408557 223.552021 
L 265.572068 220.486627 
L 275.735579 210.501673 
L 285.89909 191.169004 
L 296.062602 175.656899 
L 306.226113 178.044759 
L 316.389624 188.183454 
L 326.553135 191.189828 
L 336.716646 188.989568 
L 346.880158 187.975963 
L 357.043669 188.337655 
L 367.20718 186.314869 
L 377.370691 179.814896 
L 387.534202 169.948384 
L 397.697714 158.792153 
L 407.861225 146.301162 
L 428.188247 114.765264 
L 438.351758 100.513105 
L 448.51527 83.410714 
L 458.678781 59.52389 
L 468.842292 26.677085 
L 475.298587 -1 
L 475.298587 -1 
" clip-path="url(#p6c99b001d5)" style="fill: none; stroke: #d62728; stroke-width: 1.5; stroke-linecap: square"/>
   </g>
   <g id="line2d_18">
    <path d="M -1 157.098622 
L 1.320777 158.508214 
L 11.484288 165.087936 
L 21.647799 172.299753 
L 31.811311 176.694179 
L 41.974822 179.026591 
L 52.138333 180.565158 
L 62.301844 181.80358 
L 72.465355 182.075288 
L 82.628867 183.786625 
L 92.792378 190.425662 
L 102.955889 199.347393 
L 113.1194 205.738618 
L 123.282911 208.785205 
L 133.446423 210.494395 
L 143.609934 213.228734 
L 153.773445 216.739844 
L 163.936956 219.746819 
L 174.100467 221.511553 
L 184.263978 222.74746 
L 194.42749 223.319735 
L 204.591001 222.39732 
L 214.754512 221.157094 
L 224.918023 221.201437 
L 235.081534 221.881125 
L 245.245046 219.752174 
L 255.408557 217.195291 
L 265.572068 215.536805 
L 275.735579 209.457771 
L 285.89909 193.261458 
L 296.062602 175.784802 
L 306.226113 171.257886 
L 316.389624 177.353083 
L 326.553135 178.941336 
L 336.716646 172.262215 
L 346.880158 163.332042 
L 357.043669 159.385351 
L 367.20718 163.181826 
L 377.370691 165.099428 
L 387.534202 160.14792 
L 397.697714 150.352501 
L 407.861225 137.448362 
L 418.024736 121.288285 
L 428.188247 106.008721 
L 438.351758 93.475456 
L 448.51527 78.093501 
L 458.678781 55.821446 
L 468.842292 24.122021 
L 474.864937 -1 
L 474.864937 -1 
" clip-path="url(#p6c99b001d5)" style="fill: none; stroke: #9467bd; stroke-width: 1.5; stroke-linecap: square"/>
   </g>
   <g id="line2d_19">
    <path d="M -1 113.666777 
L 1.320777 113.740556 
L 11.484288 126.023569 
L 21.647799 142.837397 
L 31.811311 151.971396 
L 41.974822 153.15097 
L 52.138333 148.616604 
L 62.301844 138.90345 
L 72.465355 125.428762 
L 82.628867 117.017585 
L 92.792378 123.979807 
L 102.955889 143.330801 
L 113.1194 163.062137 
L 123.282911 177.10915 
L 133.446423 186.78037 
L 143.609934 195.111844 
L 153.773445 202.35974 
L 163.936956 208.221202 
L 174.100467 212.394867 
L 184.263978 215.680142 
L 194.42749 218.366186 
L 204.591001 219.265846 
L 224.918023 218.617168 
L 235.081534 218.515788 
L 245.245046 215.780758 
L 255.408557 211.923774 
L 265.572068 206.911224 
L 275.735579 199.12072 
L 285.89909 187.515285 
L 296.062602 172.400694 
L 306.226113 163.282017 
L 316.389624 167.203646 
L 326.553135 171.277798 
L 336.716646 167.499207 
L 346.880158 161.052392 
L 357.043669 158.79701 
L 367.20718 162.809584 
L 377.370691 164.703018 
L 387.534202 160.157036 
L 397.697714 151.148234 
L 407.861225 139.294434 
L 418.024736 124.115082 
L 428.188247 109.169138 
L 438.351758 95.97135 
L 448.51527 79.824362 
L 458.678781 57.740083 
L 468.842292 26.798438 
L 475.619046 -1 
L 475.619046 -1 
" clip-path="url(#p6c99b001d5)" style="fill: none; stroke: #8c564b; stroke-width: 1.5; stroke-linecap: square"/>
   </g>
   <g id="line2d_20">
    <path d="M -1 114.786637 
L 1.320777 114.937678 
L 11.484288 127.82438 
L 21.647799 145.760925 
L 31.811311 155.622845 
L 41.974822 157.145985 
L 52.138333 151.851866 
L 62.301844 140.05846 
L 72.465355 123.387911 
L 82.628867 111.896053 
L 92.792378 117.859407 
L 102.955889 137.974127 
L 113.1194 159.278762 
L 123.282911 174.480195 
L 133.446423 185.031721 
L 143.609934 193.917404 
L 153.773445 201.660764 
L 163.936956 207.832794 
L 174.100467 212.246874 
L 184.263978 216.167002 
L 194.42749 219.847715 
L 204.591001 222.021841 
L 214.754512 221.756444 
L 224.918023 220.623669 
L 235.081534 219.636206 
L 245.245046 216.56518 
L 255.408557 212.588504 
L 265.572068 207.723376 
L 275.735579 201.306266 
L 285.89909 191.319004 
L 296.062602 174.380445 
L 306.226113 159.563009 
L 316.389624 161.106288 
L 326.553135 166.138219 
L 336.716646 163.693046 
L 346.880158 159.017942 
L 357.043669 158.158455 
L 367.20718 162.147809 
L 377.370691 163.373003 
L 387.534202 158.947183 
L 397.697714 150.427851 
L 407.861225 139.774353 
L 418.024736 125.401788 
L 428.188247 110.353655 
L 438.351758 96.005917 
L 448.51527 78.8765 
L 458.678781 56.606416 
L 468.842292 25.648495 
L 475.363008 -1 
L 475.363008 -1 
" clip-path="url(#p6c99b001d5)" style="fill: none; stroke: #e377c2; stroke-width: 1.5; stroke-linecap: square"/>
   </g>
   <g id="line2d_21">
    <path d="M -1 100.956606 
L 1.320777 101.007734 
L 11.484288 114.066911 
L 21.647799 131.688928 
L 31.811311 140.383772 
L 41.974822 140.712777 
L 52.138333 134.967471 
L 62.301844 123.857208 
L 72.465355 108.292885 
L 82.628867 98.250725 
L 92.792378 106.540788 
L 102.955889 129.466249 
L 113.1194 153.140152 
L 123.282911 169.968217 
L 133.446423 181.652 
L 143.609934 191.082792 
L 153.773445 199.040438 
L 163.936956 205.136592 
L 174.100467 209.173303 
L 184.263978 212.16021 
L 194.42749 214.094275 
L 204.591001 214.44119 
L 214.754512 213.89519 
L 235.081534 214.550806 
L 245.245046 211.873336 
L 255.408557 207.061019 
L 265.572068 199.439524 
L 275.735579 186.906542 
L 285.89909 167.515006 
L 296.062602 142.84599 
L 306.226113 127.843516 
L 316.389624 135.472224 
L 326.553135 146.80293 
L 336.716646 149.384986 
L 346.880158 149.11536 
L 357.043669 151.647561 
L 367.20718 157.3327 
L 377.370691 159.270699 
L 387.534202 155.248117 
L 397.697714 146.773793 
L 407.861225 135.698825 
L 428.188247 105.183153 
L 438.351758 91.8321 
L 448.51527 76.23764 
L 458.678781 55.016195 
L 468.842292 24.74857 
L 475.223757 -1 
L 475.223757 -1 
" clip-path="url(#p6c99b001d5)" style="fill: none; stroke: #7f7f7f; stroke-width: 1.5; stroke-linecap: square"/>
   </g>
   <g id="line2d_22">
    <path d="M -1 103.699591 
L 1.320777 103.860534 
L 11.484288 117.983329 
L 21.647799 136.997802 
L 31.811311 146.66201 
L 41.974822 147.422012 
L 52.138333 140.780176 
L 62.301844 126.921235 
L 72.465355 107.070134 
L 82.628867 93.324216 
L 92.792378 100.290942 
L 102.955889 124.314994 
L 113.1194 149.900683 
L 123.282911 168.092304 
L 133.446423 180.701121 
L 143.609934 190.795038 
L 153.773445 199.335067 
L 163.936956 205.682467 
L 174.100467 210.013487 
L 184.263978 213.688404 
L 194.42749 217.05434 
L 204.591001 218.877888 
L 214.754512 218.498285 
L 224.918023 217.794402 
L 235.081534 216.89297 
L 245.245046 213.667521 
L 255.408557 208.625317 
L 265.572068 201.400429 
L 275.735579 190.646885 
L 285.89909 173.431992 
L 296.062602 146.194197 
L 306.226113 123.803865 
L 316.389624 128.239794 
L 326.553135 140.709868 
L 336.716646 144.677604 
L 346.880158 146.094043 
L 357.043669 150.289592 
L 367.20718 156.299313 
L 377.370691 158.136451 
L 387.534202 154.544584 
L 397.697714 146.952956 
L 407.861225 137.269718 
L 418.024736 123.093929 
L 428.188247 107.81125 
L 438.351758 93.097995 
L 448.51527 76.484298 
L 458.678781 55.206063 
L 468.842292 25.305354 
L 475.386405 -1 
L 475.386405 -1 
" clip-path="url(#p6c99b001d5)" style="fill: none; stroke: #bcbd22; stroke-width: 1.5; stroke-linecap: square"/>
   </g>
   <g id="line2d_23">
    <path d="M -1 101.916622 
L 1.320777 102.153067 
L 11.484288 115.30435 
L 21.647799 134.498803 
L 31.811311 145.434775 
L 41.974822 147.315809 
L 52.138333 141.177393 
L 62.301844 127.179374 
L 72.465355 106.842395 
L 82.628867 93.260845 
L 92.792378 100.415115 
L 102.955889 124.472325 
L 113.1194 149.596094 
L 123.282911 167.00296 
L 133.446423 178.481736 
L 143.609934 187.32138 
L 153.773445 196.011401 
L 163.936956 203.268793 
L 174.100467 208.255109 
L 184.263978 212.050155 
L 194.42749 215.600833 
L 204.591001 217.403896 
L 214.754512 216.258594 
L 224.918023 213.777294 
L 235.081534 209.949504 
L 245.245046 203.182058 
L 255.408557 196.118483 
L 265.572068 191.31422 
L 275.735579 185.275069 
L 285.89909 171.561416 
L 296.062602 143.790524 
L 306.226113 117.099954 
L 316.389624 117.630862 
L 326.553135 126.048365 
L 336.716646 120.992312 
L 346.880158 106.507907 
L 357.043669 101.124647 
L 367.20718 115.858955 
L 377.370691 132.754093 
L 387.534202 137.457107 
L 397.697714 131.652215 
L 407.861225 120.133903 
L 418.024736 103.97312 
L 428.188247 89.905926 
L 438.351758 79.115852 
L 448.51527 66.821721 
L 458.678781 48.456146 
L 468.842292 20.793481 
L 474.507207 -1 
L 474.507207 -1 
" clip-path="url(#p6c99b001d5)" style="fill: none; stroke: #17becf; stroke-width: 1.5; stroke-linecap: square"/>
   </g>
   <g id="line2d_24">
    <path d="M -1 77.157697 
L 1.320777 77.339958 
L 11.484288 91.845871 
L 21.647799 111.358396 
L 31.811311 120.872883 
L 41.974822 120.704029 
L 52.138333 113.0633 
L 62.301844 97.925332 
L 72.465355 76.067904 
L 82.628867 61.806498 
L 92.792378 71.801187 
L 102.955889 101.850914 
L 113.1194 132.866044 
L 123.282911 154.631053 
L 133.446423 168.990005 
L 143.609934 179.694538 
L 153.773445 189.350276 
L 163.936956 196.796654 
L 174.100467 201.42363 
L 184.263978 204.097086 
L 194.42749 205.724531 
L 204.591001 205.413825 
L 214.754512 203.942379 
L 224.918023 203.210495 
L 235.081534 201.038337 
L 245.245046 194.473482 
L 255.408557 185.734367 
L 265.572068 176.121569 
L 275.735579 160.156703 
L 285.89909 131.239541 
L 296.062602 87.404041 
L 306.226113 53.925364 
L 316.389624 62.205558 
L 326.553135 82.935774 
L 336.716646 88.261817 
L 346.880158 83.993233 
L 357.043669 86.774356 
L 377.370691 121.966821 
L 387.534202 127.504658 
L 397.697714 122.761078 
L 407.861225 111.843152 
L 418.024736 95.2199 
L 428.188247 80.435989 
L 438.351758 70.211438 
L 448.51527 59.515461 
L 458.678781 43.014147 
L 468.842292 16.980988 
L 473.6129 -1 
L 473.6129 -1 
" clip-path="url(#p6c99b001d5)" style="fill: none; stroke: #1f77b4; stroke-width: 1.5; stroke-linecap: square"/>
   </g>
   <g id="line2d_25">
    <path d="M -1 79.883128 
L 1.320777 80.22294 
L 11.484288 96.216952 
L 21.647799 117.563562 
L 31.811311 128.37611 
L 41.974822 128.648041 
L 52.138333 119.799842 
L 62.301844 100.813926 
L 72.465355 73.053095 
L 82.628867 53.667154 
L 92.792378 62.020493 
L 102.955889 93.861235 
L 113.1194 127.614486 
L 123.282911 151.332774 
L 133.446423 166.855504 
L 143.609934 178.398423 
L 153.773445 188.662689 
L 163.936956 196.575085 
L 174.100467 201.746369 
L 194.42749 208.956986 
L 204.591001 210.826979 
L 214.754512 209.860204 
L 224.918023 207.458927 
L 235.081534 203.312204 
L 245.245046 195.831446 
L 265.572068 178.049368 
L 275.735579 164.743336 
L 285.89909 138.876208 
L 296.062602 91.351223 
L 306.226113 47.587455 
L 316.389624 51.258957 
L 326.553135 73.682596 
L 336.716646 81.001177 
L 346.880158 79.186365 
L 357.043669 84.189879 
L 367.20718 102.36199 
L 377.370691 119.801711 
L 387.534202 125.790881 
L 397.697714 122.329527 
L 407.861225 113.321002 
L 428.188247 83.735358 
L 438.351758 71.718124 
L 448.51527 59.514421 
L 458.678781 42.870577 
L 468.842292 17.566415 
L 473.868847 -1 
L 473.868847 -1 
" clip-path="url(#p6c99b001d5)" style="fill: none; stroke: #ff7f0e; stroke-width: 1.5; stroke-linecap: square"/>
   </g>
   <g id="line2d_26">
    <path d="M -1 70.740105 
L 1.320777 71.10037 
L 11.484288 87.704623 
L 21.647799 109.441512 
L 31.811311 120.52464 
L 41.974822 120.658266 
L 52.138333 111.540323 
L 62.301844 91.763566 
L 72.465355 62.518972 
L 82.628867 41.905768 
L 92.792378 50.040952 
L 102.955889 82.606365 
L 113.1194 117.011028 
L 123.282911 141.500319 
L 133.446423 157.534925 
L 143.609934 169.412611 
L 153.773445 179.861965 
L 163.936956 187.849412 
L 174.100467 193.168254 
L 184.263978 196.982339 
L 194.42749 201.001503 
L 204.591001 203.295134 
L 214.754512 202.483754 
L 224.918023 199.856791 
L 235.081534 195.507381 
L 245.245046 187.888955 
L 265.572068 169.948348 
L 275.735579 156.608854 
L 285.89909 130.833959 
L 296.062602 81.957279 
L 306.226113 35.863739 
L 316.389624 39.008794 
L 326.553135 62.319726 
L 336.716646 70.618355 
L 346.880158 70.133198 
L 357.043669 76.243052 
L 367.20718 94.387922 
L 377.370691 111.463931 
L 387.534202 117.400665 
L 397.697714 114.256259 
L 407.861225 105.727934 
L 428.188247 76.48992 
L 448.51527 51.377587 
L 458.678781 34.727706 
L 468.842292 9.555316 
L 471.709247 -1 
L 471.709247 -1 
" clip-path="url(#p6c99b001d5)" style="fill: none; stroke: #2ca02c; stroke-width: 1.5; stroke-linecap: square"/>
   </g>
   <g id="line2d_27">
    <path d="M 287.255 242.918125 
L 287.255 22.318125 
" clip-path="url(#p6c99b001d5)" style="fill: none; stroke-dasharray: 3.7,1.6; stroke-dashoffset: 0; stroke: #808080"/>
   </g>
   <g id="line2d_28">
    <path d="M 303.6075 242.918125 
L 303.6075 22.318125 
" clip-path="url(#p6c99b001d5)" style="fill: none; stroke-dasharray: 3.7,1.6; stroke-dashoffset: 0; stroke: #808080"/>
   </g>
   <g id="line2d_29">
    <path d="M 77.397917 242.918125 
L 77.397917 22.318125 
" clip-path="url(#p6c99b001d5)" style="fill: none; stroke-dasharray: 3.7,1.6; stroke-dashoffset: 0; stroke: #808080"/>
   </g>
   <g id="line2d_30">
    <path d="M 107.3775 242.918125 
L 107.3775 22.318125 
" clip-path="url(#p6c99b001d5)" style="fill: none; stroke-dasharray: 3.7,1.6; stroke-dashoffset: 0; stroke: #808080"/>
   </g>
   <g id="patch_3">
    <path d="M 50.14375 242.918125 
L 50.14375 22.318125 
" style="fill: none; stroke: #000000; stroke-width: 0.8; stroke-linejoin: miter; stroke-linecap: square"/>
   </g>
   <g id="patch_4">
    <path d="M 377.19375 242.918125 
L 377.19375 22.318125 
" style="fill: none; stroke: #000000; stroke-width: 0.8; stroke-linejoin: miter; stroke-linecap: square"/>
   </g>
   <g id="patch_5">
    <path d="M 50.14375 242.918125 
L 377.19375 242.918125 
" style="fill: none; stroke: #000000; stroke-width: 0.8; stroke-linejoin: miter; stroke-linecap: square"/>
   </g>
   <g id="patch_6">
    <path d="M 50.14375 22.318125 
L 377.19375 22.318125 
" style="fill: none; stroke: #000000; stroke-width: 0.8; stroke-linejoin: miter; stroke-linecap: square"/>
   </g>
   <g id="text_16">
    <!-- In-situ IR spectra for C3_E3 -->
    <g transform="translate(132.130625 16.318125) scale(0.12 -0.12)">
     <defs>
      <path id="DejaVuSans-49" d="M 628 4666 
L 1259 4666 
L 1259 0 
L 628 0 
L 628 4666 
z
" transform="scale(0.015625)"/>
      <path id="DejaVuSans-2d" d="M 313 2009 
L 1997 2009 
L 1997 1497 
L 313 1497 
L 313 2009 
z
" transform="scale(0.015625)"/>
      <path id="DejaVuSans-69" d="M 603 3500 
L 1178 3500 
L 1178 0 
L 603 0 
L 603 3500 
z
M 603 4863 
L 1178 4863 
L 1178 4134 
L 603 4134 
L 603 4863 
z
" transform="scale(0.015625)"/>
      <path id="DejaVuSans-74" d="M 1172 4494 
L 1172 3500 
L 2356 3500 
L 2356 3053 
L 1172 3053 
L 1172 1153 
Q 1172 725 1289 603 
Q 1406 481 1766 481 
L 2356 481 
L 2356 0 
L 1766 0 
Q 1100 0 847 248 
Q 594 497 594 1153 
L 594 3053 
L 172 3053 
L 172 3500 
L 594 3500 
L 594 4494 
L 1172 4494 
z
" transform="scale(0.015625)"/>
      <path id="DejaVuSans-52" d="M 2841 2188 
Q 3044 2119 3236 1894 
Q 3428 1669 3622 1275 
L 4263 0 
L 3584 0 
L 2988 1197 
Q 2756 1666 2539 1819 
Q 2322 1972 1947 1972 
L 1259 1972 
L 1259 0 
L 628 0 
L 628 4666 
L 2053 4666 
Q 2853 4666 3247 4331 
Q 3641 3997 3641 3322 
Q 3641 2881 3436 2590 
Q 3231 2300 2841 2188 
z
M 1259 4147 
L 1259 2491 
L 2053 2491 
Q 2509 2491 2742 2702 
Q 2975 2913 2975 3322 
Q 2975 3731 2742 3939 
Q 2509 4147 2053 4147 
L 1259 4147 
z
" transform="scale(0.015625)"/>
      <path id="DejaVuSans-70" d="M 1159 525 
L 1159 -1331 
L 581 -1331 
L 581 3500 
L 1159 3500 
L 1159 2969 
Q 1341 3281 1617 3432 
Q 1894 3584 2278 3584 
Q 2916 3584 3314 3078 
Q 3713 2572 3713 1747 
Q 3713 922 3314 415 
Q 2916 -91 2278 -91 
Q 1894 -91 1617 61 
Q 1341 213 1159 525 
z
M 3116 1747 
Q 3116 2381 2855 2742 
Q 2594 3103 2138 3103 
Q 1681 3103 1420 2742 
Q 1159 2381 1159 1747 
Q 1159 1113 1420 752 
Q 1681 391 2138 391 
Q 2594 391 2855 752 
Q 3116 1113 3116 1747 
z
" transform="scale(0.015625)"/>
      <path id="DejaVuSans-66" d="M 2375 4863 
L 2375 4384 
L 1825 4384 
Q 1516 4384 1395 4259 
Q 1275 4134 1275 3809 
L 1275 3500 
L 2222 3500 
L 2222 3053 
L 1275 3053 
L 1275 0 
L 697 0 
L 697 3053 
L 147 3053 
L 147 3500 
L 697 3500 
L 697 3744 
Q 697 4328 969 4595 
Q 1241 4863 1831 4863 
L 2375 4863 
z
" transform="scale(0.015625)"/>
      <path id="DejaVuSans-43" d="M 4122 4306 
L 4122 3641 
Q 3803 3938 3442 4084 
Q 3081 4231 2675 4231 
Q 1875 4231 1450 3742 
Q 1025 3253 1025 2328 
Q 1025 1406 1450 917 
Q 1875 428 2675 428 
Q 3081 428 3442 575 
Q 3803 722 4122 1019 
L 4122 359 
Q 3791 134 3420 21 
Q 3050 -91 2638 -91 
Q 1578 -91 968 557 
Q 359 1206 359 2328 
Q 359 3453 968 4101 
Q 1578 4750 2638 4750 
Q 3056 4750 3426 4639 
Q 3797 4528 4122 4306 
z
" transform="scale(0.015625)"/>
      <path id="DejaVuSans-33" d="M 2597 2516 
Q 3050 2419 3304 2112 
Q 3559 1806 3559 1356 
Q 3559 666 3084 287 
Q 2609 -91 1734 -91 
Q 1441 -91 1130 -33 
Q 819 25 488 141 
L 488 750 
Q 750 597 1062 519 
Q 1375 441 1716 441 
Q 2309 441 2620 675 
Q 2931 909 2931 1356 
Q 2931 1769 2642 2001 
Q 2353 2234 1838 2234 
L 1294 2234 
L 1294 2753 
L 1863 2753 
Q 2328 2753 2575 2939 
Q 2822 3125 2822 3475 
Q 2822 3834 2567 4026 
Q 2313 4219 1838 4219 
Q 1578 4219 1281 4162 
Q 984 4106 628 3988 
L 628 4550 
Q 988 4650 1302 4700 
Q 1616 4750 1894 4750 
Q 2613 4750 3031 4423 
Q 3450 4097 3450 3541 
Q 3450 3153 3228 2886 
Q 3006 2619 2597 2516 
z
" transform="scale(0.015625)"/>
      <path id="DejaVuSans-5f" d="M 3263 -1063 
L 3263 -1509 
L -63 -1509 
L -63 -1063 
L 3263 -1063 
z
" transform="scale(0.015625)"/>
      <path id="DejaVuSans-45" d="M 628 4666 
L 3578 4666 
L 3578 4134 
L 1259 4134 
L 1259 2753 
L 3481 2753 
L 3481 2222 
L 1259 2222 
L 1259 531 
L 3634 531 
L 3634 0 
L 628 0 
L 628 4666 
z
" transform="scale(0.015625)"/>
     </defs>
     <use xlink:href="#DejaVuSans-49"/>
     <use xlink:href="#DejaVuSans-6e" transform="translate(29.492188 0)"/>
     <use xlink:href="#DejaVuSans-2d" transform="translate(92.871094 0)"/>
     <use xlink:href="#DejaVuSans-73" transform="translate(128.955078 0)"/>
     <use xlink:href="#DejaVuSans-69" transform="translate(181.054688 0)"/>
     <use xlink:href="#DejaVuSans-74" transform="translate(208.837891 0)"/>
     <use xlink:href="#DejaVuSans-75" transform="translate(248.046875 0)"/>
     <use xlink:href="#DejaVuSans-20" transform="translate(311.425781 0)"/>
     <use xlink:href="#DejaVuSans-49" transform="translate(343.212891 0)"/>
     <use xlink:href="#DejaVuSans-52" transform="translate(372.705078 0)"/>
     <use xlink:href="#DejaVuSans-20" transform="translate(442.1875 0)"/>
     <use xlink:href="#DejaVuSans-73" transform="translate(473.974609 0)"/>
     <use xlink:href="#DejaVuSans-70" transform="translate(526.074219 0)"/>
     <use xlink:href="#DejaVuSans-65" transform="translate(589.550781 0)"/>
     <use xlink:href="#DejaVuSans-63" transform="translate(651.074219 0)"/>
     <use xlink:href="#DejaVuSans-74" transform="translate(706.054688 0)"/>
     <use xlink:href="#DejaVuSans-72" transform="translate(745.263672 0)"/>
     <use xlink:href="#DejaVuSans-61" transform="translate(786.376953 0)"/>
     <use xlink:href="#DejaVuSans-20" transform="translate(847.65625 0)"/>
     <use xlink:href="#DejaVuSans-66" transform="translate(879.443359 0)"/>
     <use xlink:href="#DejaVuSans-6f" transform="translate(914.648438 0)"/>
     <use xlink:href="#DejaVuSans-72" transform="translate(975.830078 0)"/>
     <use xlink:href="#DejaVuSans-20" transform="translate(1016.943359 0)"/>
     <use xlink:href="#DejaVuSans-43" transform="translate(1048.730469 0)"/>
     <use xlink:href="#DejaVuSans-33" transform="translate(1118.554688 0)"/>
     <use xlink:href="#DejaVuSans-5f" transform="translate(1182.177734 0)"/>
     <use xlink:href="#DejaVuSans-45" transform="translate(1232.177734 0)"/>
     <use xlink:href="#DejaVuSans-33" transform="translate(1295.361328 0)"/>
    </g>
   </g>
   <g id="legend_1">
    <g id="patch_7">
     <path d="M 384.19375 133.065 
L 559.15625 133.065 
Q 561.15625 133.065 561.15625 131.065 
L 561.15625 29.318125 
Q 561.15625 27.318125 559.15625 27.318125 
L 384.19375 27.318125 
Q 382.19375 27.318125 382.19375 29.318125 
L 382.19375 131.065 
Q 382.19375 133.065 384.19375 133.065 
z
" style="fill: #ffffff; opacity: 0.8; stroke: #cccccc; stroke-linejoin: miter"/>
    </g>
    <g id="line2d_31">
     <path d="M 386.19375 35.416562 
L 396.19375 35.416562 
L 406.19375 35.416562 
" style="fill: none; stroke: #1f77b4; stroke-width: 1.5; stroke-linecap: square"/>
    </g>
    <g id="text_17">
     <!-- 0.0 min -->
     <g transform="translate(414.19375 38.916562) scale(0.1 -0.1)">
      <use xlink:href="#DejaVuSans-30"/>
      <use xlink:href="#DejaVuSans-2e" transform="translate(63.623047 0)"/>
      <use xlink:href="#DejaVuSans-30" transform="translate(95.410156 0)"/>
      <use xlink:href="#DejaVuSans-20" transform="translate(159.033203 0)"/>
      <use xlink:href="#DejaVuSans-6d" transform="translate(190.820312 0)"/>
      <use xlink:href="#DejaVuSans-69" transform="translate(288.232422 0)"/>
      <use xlink:href="#DejaVuSans-6e" transform="translate(316.015625 0)"/>
     </g>
    </g>
    <g id="line2d_32">
     <path d="M 386.19375 50.094688 
L 396.19375 50.094688 
L 406.19375 50.094688 
" style="fill: none; stroke: #ff7f0e; stroke-width: 1.5; stroke-linecap: square"/>
    </g>
    <g id="text_18">
     <!-- 11.1 min -->
     <g transform="translate(414.19375 53.594688) scale(0.1 -0.1)">
      <use xlink:href="#DejaVuSans-31"/>
      <use xlink:href="#DejaVuSans-31" transform="translate(63.623047 0)"/>
      <use xlink:href="#DejaVuSans-2e" transform="translate(127.246094 0)"/>
      <use xlink:href="#DejaVuSans-31" transform="translate(159.033203 0)"/>
      <use xlink:href="#DejaVuSans-20" transform="translate(222.65625 0)"/>
      <use xlink:href="#DejaVuSans-6d" transform="translate(254.443359 0)"/>
      <use xlink:href="#DejaVuSans-69" transform="translate(351.855469 0)"/>
      <use xlink:href="#DejaVuSans-6e" transform="translate(379.638672 0)"/>
     </g>
    </g>
    <g id="line2d_33">
     <path d="M 386.19375 64.772812 
L 396.19375 64.772812 
L 406.19375 64.772812 
" style="fill: none; stroke: #2ca02c; stroke-width: 1.5; stroke-linecap: square"/>
    </g>
    <g id="text_19">
     <!-- 19.1 min -->
     <g transform="translate(414.19375 68.272812) scale(0.1 -0.1)">
      <defs>
       <path id="DejaVuSans-39" d="M 703 97 
L 703 672 
Q 941 559 1184 500 
Q 1428 441 1663 441 
Q 2288 441 2617 861 
Q 2947 1281 2994 2138 
Q 2813 1869 2534 1725 
Q 2256 1581 1919 1581 
Q 1219 1581 811 2004 
Q 403 2428 403 3163 
Q 403 3881 828 4315 
Q 1253 4750 1959 4750 
Q 2769 4750 3195 4129 
Q 3622 3509 3622 2328 
Q 3622 1225 3098 567 
Q 2575 -91 1691 -91 
Q 1453 -91 1209 -44 
Q 966 3 703 97 
z
M 1959 2075 
Q 2384 2075 2632 2365 
Q 2881 2656 2881 3163 
Q 2881 3666 2632 3958 
Q 2384 4250 1959 4250 
Q 1534 4250 1286 3958 
Q 1038 3666 1038 3163 
Q 1038 2656 1286 2365 
Q 1534 2075 1959 2075 
z
" transform="scale(0.015625)"/>
      </defs>
      <use xlink:href="#DejaVuSans-31"/>
      <use xlink:href="#DejaVuSans-39" transform="translate(63.623047 0)"/>
      <use xlink:href="#DejaVuSans-2e" transform="translate(127.246094 0)"/>
      <use xlink:href="#DejaVuSans-31" transform="translate(159.033203 0)"/>
      <use xlink:href="#DejaVuSans-20" transform="translate(222.65625 0)"/>
      <use xlink:href="#DejaVuSans-6d" transform="translate(254.443359 0)"/>
      <use xlink:href="#DejaVuSans-69" transform="translate(351.855469 0)"/>
      <use xlink:href="#DejaVuSans-6e" transform="translate(379.638672 0)"/>
     </g>
    </g>
    <g id="line2d_34">
     <path d="M 386.19375 79.450938 
L 396.19375 79.450938 
L 406.19375 79.450938 
" style="fill: none; stroke: #d62728; stroke-width: 1.5; stroke-linecap: square"/>
    </g>
    <g id="text_20">
     <!-- 29.8 min -->
     <g transform="translate(414.19375 82.950938) scale(0.1 -0.1)">
      <use xlink:href="#DejaVuSans-32"/>
      <use xlink:href="#DejaVuSans-39" transform="translate(63.623047 0)"/>
      <use xlink:href="#DejaVuSans-2e" transform="translate(127.246094 0)"/>
      <use xlink:href="#DejaVuSans-38" transform="translate(159.033203 0)"/>
      <use xlink:href="#DejaVuSans-20" transform="translate(222.65625 0)"/>
      <use xlink:href="#DejaVuSans-6d" transform="translate(254.443359 0)"/>
      <use xlink:href="#DejaVuSans-69" transform="translate(351.855469 0)"/>
      <use xlink:href="#DejaVuSans-6e" transform="translate(379.638672 0)"/>
     </g>
    </g>
    <g id="line2d_35">
     <path d="M 386.19375 94.129063 
L 396.19375 94.129063 
L 406.19375 94.129063 
" style="fill: none; stroke: #9467bd; stroke-width: 1.5; stroke-linecap: square"/>
    </g>
    <g id="text_21">
     <!-- 34.5 min -->
     <g transform="translate(414.19375 97.629063) scale(0.1 -0.1)">
      <defs>
       <path id="DejaVuSans-35" d="M 691 4666 
L 3169 4666 
L 3169 4134 
L 1269 4134 
L 1269 2991 
Q 1406 3038 1543 3061 
Q 1681 3084 1819 3084 
Q 2600 3084 3056 2656 
Q 3513 2228 3513 1497 
Q 3513 744 3044 326 
Q 2575 -91 1722 -91 
Q 1428 -91 1123 -41 
Q 819 9 494 109 
L 494 744 
Q 775 591 1075 516 
Q 1375 441 1709 441 
Q 2250 441 2565 725 
Q 2881 1009 2881 1497 
Q 2881 1984 2565 2268 
Q 2250 2553 1709 2553 
Q 1456 2553 1204 2497 
Q 953 2441 691 2322 
L 691 4666 
z
" transform="scale(0.015625)"/>
      </defs>
      <use xlink:href="#DejaVuSans-33"/>
      <use xlink:href="#DejaVuSans-34" transform="translate(63.623047 0)"/>
      <use xlink:href="#DejaVuSans-2e" transform="translate(127.246094 0)"/>
      <use xlink:href="#DejaVuSans-35" transform="translate(159.033203 0)"/>
      <use xlink:href="#DejaVuSans-20" transform="translate(222.65625 0)"/>
      <use xlink:href="#DejaVuSans-6d" transform="translate(254.443359 0)"/>
      <use xlink:href="#DejaVuSans-69" transform="translate(351.855469 0)"/>
      <use xlink:href="#DejaVuSans-6e" transform="translate(379.638672 0)"/>
     </g>
    </g>
    <g id="line2d_36">
     <path d="M 386.19375 108.807187 
L 396.19375 108.807187 
L 406.19375 108.807187 
" style="fill: none; stroke: #8c564b; stroke-width: 1.5; stroke-linecap: square"/>
    </g>
    <g id="text_22">
     <!-- 40.6 min -->
     <g transform="translate(414.19375 112.307187) scale(0.1 -0.1)">
      <use xlink:href="#DejaVuSans-34"/>
      <use xlink:href="#DejaVuSans-30" transform="translate(63.623047 0)"/>
      <use xlink:href="#DejaVuSans-2e" transform="translate(127.246094 0)"/>
      <use xlink:href="#DejaVuSans-36" transform="translate(159.033203 0)"/>
      <use xlink:href="#DejaVuSans-20" transform="translate(222.65625 0)"/>
      <use xlink:href="#DejaVuSans-6d" transform="translate(254.443359 0)"/>
      <use xlink:href="#DejaVuSans-69" transform="translate(351.855469 0)"/>
      <use xlink:href="#DejaVuSans-6e" transform="translate(379.638672 0)"/>
     </g>
    </g>
    <g id="line2d_37">
     <path d="M 386.19375 123.485312 
L 396.19375 123.485312 
L 406.19375 123.485312 
" style="fill: none; stroke: #e377c2; stroke-width: 1.5; stroke-linecap: square"/>
    </g>
    <g id="text_23">
     <!-- 58.1 min -->
     <g transform="translate(414.19375 126.985312) scale(0.1 -0.1)">
      <use xlink:href="#DejaVuSans-35"/>
      <use xlink:href="#DejaVuSans-38" transform="translate(63.623047 0)"/>
      <use xlink:href="#DejaVuSans-2e" transform="translate(127.246094 0)"/>
      <use xlink:href="#DejaVuSans-31" transform="translate(159.033203 0)"/>
      <use xlink:href="#DejaVuSans-20" transform="translate(222.65625 0)"/>
      <use xlink:href="#DejaVuSans-6d" transform="translate(254.443359 0)"/>
      <use xlink:href="#DejaVuSans-69" transform="translate(351.855469 0)"/>
      <use xlink:href="#DejaVuSans-6e" transform="translate(379.638672 0)"/>
     </g>
    </g>
    <g id="line2d_38">
     <path d="M 478.49375 35.416562 
L 488.49375 35.416562 
L 498.49375 35.416562 
" style="fill: none; stroke: #7f7f7f; stroke-width: 1.5; stroke-linecap: square"/>
    </g>
    <g id="text_24">
     <!-- 63.9 min -->
     <g transform="translate(506.49375 38.916562) scale(0.1 -0.1)">
      <use xlink:href="#DejaVuSans-36"/>
      <use xlink:href="#DejaVuSans-33" transform="translate(63.623047 0)"/>
      <use xlink:href="#DejaVuSans-2e" transform="translate(127.246094 0)"/>
      <use xlink:href="#DejaVuSans-39" transform="translate(159.033203 0)"/>
      <use xlink:href="#DejaVuSans-20" transform="translate(222.65625 0)"/>
      <use xlink:href="#DejaVuSans-6d" transform="translate(254.443359 0)"/>
      <use xlink:href="#DejaVuSans-69" transform="translate(351.855469 0)"/>
      <use xlink:href="#DejaVuSans-6e" transform="translate(379.638672 0)"/>
     </g>
    </g>
    <g id="line2d_39">
     <path d="M 478.49375 50.094687 
L 488.49375 50.094687 
L 498.49375 50.094687 
" style="fill: none; stroke: #bcbd22; stroke-width: 1.5; stroke-linecap: square"/>
    </g>
    <g id="text_25">
     <!-- 81.1 min -->
     <g transform="translate(506.49375 53.594687) scale(0.1 -0.1)">
      <use xlink:href="#DejaVuSans-38"/>
      <use xlink:href="#DejaVuSans-31" transform="translate(63.623047 0)"/>
      <use xlink:href="#DejaVuSans-2e" transform="translate(127.246094 0)"/>
      <use xlink:href="#DejaVuSans-31" transform="translate(159.033203 0)"/>
      <use xlink:href="#DejaVuSans-20" transform="translate(222.65625 0)"/>
      <use xlink:href="#DejaVuSans-6d" transform="translate(254.443359 0)"/>
      <use xlink:href="#DejaVuSans-69" transform="translate(351.855469 0)"/>
      <use xlink:href="#DejaVuSans-6e" transform="translate(379.638672 0)"/>
     </g>
    </g>
    <g id="line2d_40">
     <path d="M 478.49375 64.772812 
L 488.49375 64.772812 
L 498.49375 64.772812 
" style="fill: none; stroke: #17becf; stroke-width: 1.5; stroke-linecap: square"/>
    </g>
    <g id="text_26">
     <!-- 99.6 min -->
     <g transform="translate(506.49375 68.272812) scale(0.1 -0.1)">
      <use xlink:href="#DejaVuSans-39"/>
      <use xlink:href="#DejaVuSans-39" transform="translate(63.623047 0)"/>
      <use xlink:href="#DejaVuSans-2e" transform="translate(127.246094 0)"/>
      <use xlink:href="#DejaVuSans-36" transform="translate(159.033203 0)"/>
      <use xlink:href="#DejaVuSans-20" transform="translate(222.65625 0)"/>
      <use xlink:href="#DejaVuSans-6d" transform="translate(254.443359 0)"/>
      <use xlink:href="#DejaVuSans-69" transform="translate(351.855469 0)"/>
      <use xlink:href="#DejaVuSans-6e" transform="translate(379.638672 0)"/>
     </g>
    </g>
    <g id="line2d_41">
     <path d="M 478.49375 79.450938 
L 488.49375 79.450938 
L 498.49375 79.450938 
" style="fill: none; stroke: #1f77b4; stroke-width: 1.5; stroke-linecap: square"/>
    </g>
    <g id="text_27">
     <!-- 107.1 min -->
     <g transform="translate(506.49375 82.950938) scale(0.1 -0.1)">
      <defs>
       <path id="DejaVuSans-37" d="M 525 4666 
L 3525 4666 
L 3525 4397 
L 1831 0 
L 1172 0 
L 2766 4134 
L 525 4134 
L 525 4666 
z
" transform="scale(0.015625)"/>
      </defs>
      <use xlink:href="#DejaVuSans-31"/>
      <use xlink:href="#DejaVuSans-30" transform="translate(63.623047 0)"/>
      <use xlink:href="#DejaVuSans-37" transform="translate(127.246094 0)"/>
      <use xlink:href="#DejaVuSans-2e" transform="translate(190.869141 0)"/>
      <use xlink:href="#DejaVuSans-31" transform="translate(222.65625 0)"/>
      <use xlink:href="#DejaVuSans-20" transform="translate(286.279297 0)"/>
      <use xlink:href="#DejaVuSans-6d" transform="translate(318.066406 0)"/>
      <use xlink:href="#DejaVuSans-69" transform="translate(415.478516 0)"/>
      <use xlink:href="#DejaVuSans-6e" transform="translate(443.261719 0)"/>
     </g>
    </g>
    <g id="line2d_42">
     <path d="M 478.49375 94.129063 
L 488.49375 94.129063 
L 498.49375 94.129063 
" style="fill: none; stroke: #ff7f0e; stroke-width: 1.5; stroke-linecap: square"/>
    </g>
    <g id="text_28">
     <!-- 114.1 min -->
     <g transform="translate(506.49375 97.629063) scale(0.1 -0.1)">
      <use xlink:href="#DejaVuSans-31"/>
      <use xlink:href="#DejaVuSans-31" transform="translate(63.623047 0)"/>
      <use xlink:href="#DejaVuSans-34" transform="translate(127.246094 0)"/>
      <use xlink:href="#DejaVuSans-2e" transform="translate(190.869141 0)"/>
      <use xlink:href="#DejaVuSans-31" transform="translate(222.65625 0)"/>
      <use xlink:href="#DejaVuSans-20" transform="translate(286.279297 0)"/>
      <use xlink:href="#DejaVuSans-6d" transform="translate(318.066406 0)"/>
      <use xlink:href="#DejaVuSans-69" transform="translate(415.478516 0)"/>
      <use xlink:href="#DejaVuSans-6e" transform="translate(443.261719 0)"/>
     </g>
    </g>
    <g id="line2d_43">
     <path d="M 478.49375 108.807187 
L 488.49375 108.807187 
L 498.49375 108.807187 
" style="fill: none; stroke: #2ca02c; stroke-width: 1.5; stroke-linecap: square"/>
    </g>
    <g id="text_29">
     <!-- 142.9 min -->
     <g transform="translate(506.49375 112.307187) scale(0.1 -0.1)">
      <use xlink:href="#DejaVuSans-31"/>
      <use xlink:href="#DejaVuSans-34" transform="translate(63.623047 0)"/>
      <use xlink:href="#DejaVuSans-32" transform="translate(127.246094 0)"/>
      <use xlink:href="#DejaVuSans-2e" transform="translate(190.869141 0)"/>
      <use xlink:href="#DejaVuSans-39" transform="translate(222.65625 0)"/>
      <use xlink:href="#DejaVuSans-20" transform="translate(286.279297 0)"/>
      <use xlink:href="#DejaVuSans-6d" transform="translate(318.066406 0)"/>
      <use xlink:href="#DejaVuSans-69" transform="translate(415.478516 0)"/>
      <use xlink:href="#DejaVuSans-6e" transform="translate(443.261719 0)"/>
     </g>
    </g>
   </g>
  </g>
 </g>
 <defs>
  <clipPath id="p6c99b001d5">
   <rect x="50.14375" y="22.318125" width="327.05" height="220.6"/>
  </clipPath>
 </defs>
</svg>
