<?xml version="1.0" encoding="utf-8" standalone="no"?>
<!DOCTYPE svg PUBLIC "-//W3C//DTD SVG 1.1//EN"
  "http://www.w3.org/Graphics/SVG/1.1/DTD/svg11.dtd">
<svg xmlns:xlink="http://www.w3.org/1999/xlink" width="568.436563pt" height="280.474375pt" viewBox="0 0 568.436563 280.474375" xmlns="http://www.w3.org/2000/svg" version="1.1">
 <metadata>
  <rdf:RDF xmlns:dc="http://purl.org/dc/elements/1.1/" xmlns:cc="http://creativecommons.org/ns#" xmlns:rdf="http://www.w3.org/1999/02/22-rdf-syntax-ns#">
   <cc:Work>
    <dc:type rdf:resource="http://purl.org/dc/dcmitype/StillImage"/>
    <dc:date>2026-01-13T16:26:20.007452</dc:date>
    <dc:format>image/svg+xml</dc:format>
    <dc:creator>
     <cc:Agent>
      <dc:title>Matplotlib v3.10.0, https://matplotlib.org/</dc:title>
     </cc:Agent>
    </dc:creator>
   </cc:Work>
  </rdf:RDF>
 </metadata>
 <defs>
  <style type="text/css">*{stroke-linejoin: round; stroke-linecap: butt}</style>
 </defs>
 <g id="figure_1">
  <g id="patch_1">
   <path d="M 0 280.474375 
L 568.436563 280.474375 
L 568.436563 0 
L 0 0 
z
" style="fill: #ffffff"/>
  </g>
  <g id="axes_1">
   <g id="patch_2">
    <path d="M 56.50625 242.918125 
L 405.06625 242.918125 
L 405.06625 22.318125 
L 56.50625 22.318125 
z
" style="fill: #ffffff"/>
   </g>
   <g id="matplotlib.axis_1">
    <g id="xtick_1">
     <g id="line2d_1">
      <defs>
       <path id="m2993b46551" d="M 0 0 
L 0 3.5 
" style="stroke: #000000; stroke-width: 0.8"/>
      </defs>
      <g>
       <use xlink:href="#m2993b46551" x="373.378977" y="242.918125" style="stroke: #000000; stroke-width: 0.8"/>
      </g>
     </g>
     <g id="text_1">
      <!-- 1520 -->
      <g transform="translate(360.653977 257.516563) scale(0.1 -0.1)">
       <defs>
        <path id="DejaVuSans-31" d="M 794 531 
L 1825 531 
L 1825 4091 
L 703 3866 
L 703 4441 
L 1819 4666 
L 2450 4666 
L 2450 531 
L 3481 531 
L 3481 0 
L 794 0 
L 794 531 
z
" transform="scale(0.015625)"/>
        <path id="DejaVuSans-35" d="M 691 4666 
L 3169 4666 
L 3169 4134 
L 1269 4134 
L 1269 2991 
Q 1406 3038 1543 3061 
Q 1681 3084 1819 3084 
Q 2600 3084 3056 2656 
Q 3513 2228 3513 1497 
Q 3513 744 3044 326 
Q 2575 -91 1722 -91 
Q 1428 -91 1123 -41 
Q 819 9 494 109 
L 494 744 
Q 775 591 1075 516 
Q 1375 441 1709 441 
Q 2250 441 2565 725 
Q 2881 1009 2881 1497 
Q 2881 1984 2565 2268 
Q 2250 2553 1709 2553 
Q 1456 2553 1204 2497 
Q 953 2441 691 2322 
L 691 4666 
z
" transform="scale(0.015625)"/>
        <path id="DejaVuSans-32" d="M 1228 531 
L 3431 531 
L 3431 0 
L 469 0 
L 469 531 
Q 828 903 1448 1529 
Q 2069 2156 2228 2338 
Q 2531 2678 2651 2914 
Q 2772 3150 2772 3378 
Q 2772 3750 2511 3984 
Q 2250 4219 1831 4219 
Q 1534 4219 1204 4116 
Q 875 4013 500 3803 
L 500 4441 
Q 881 4594 1212 4672 
Q 1544 4750 1819 4750 
Q 2544 4750 2975 4387 
Q 3406 4025 3406 3419 
Q 3406 3131 3298 2873 
Q 3191 2616 2906 2266 
Q 2828 2175 2409 1742 
Q 1991 1309 1228 531 
z
" transform="scale(0.015625)"/>
        <path id="DejaVuSans-30" d="M 2034 4250 
Q 1547 4250 1301 3770 
Q 1056 3291 1056 2328 
Q 1056 1369 1301 889 
Q 1547 409 2034 409 
Q 2525 409 2770 889 
Q 3016 1369 3016 2328 
Q 3016 3291 2770 3770 
Q 2525 4250 2034 4250 
z
M 2034 4750 
Q 2819 4750 3233 4129 
Q 3647 3509 3647 2328 
Q 3647 1150 3233 529 
Q 2819 -91 2034 -91 
Q 1250 -91 836 529 
Q 422 1150 422 2328 
Q 422 3509 836 4129 
Q 1250 4750 2034 4750 
z
" transform="scale(0.015625)"/>
       </defs>
       <use xlink:href="#DejaVuSans-31"/>
       <use xlink:href="#DejaVuSans-35" transform="translate(63.623047 0)"/>
       <use xlink:href="#DejaVuSans-32" transform="translate(127.246094 0)"/>
       <use xlink:href="#DejaVuSans-30" transform="translate(190.869141 0)"/>
      </g>
     </g>
    </g>
    <g id="xtick_2">
     <g id="line2d_2">
      <g>
       <use xlink:href="#m2993b46551" x="310.004432" y="242.918125" style="stroke: #000000; stroke-width: 0.8"/>
      </g>
     </g>
     <g id="text_2">
      <!-- 1540 -->
      <g transform="translate(297.279432 257.516563) scale(0.1 -0.1)">
       <defs>
        <path id="DejaVuSans-34" d="M 2419 4116 
L 825 1625 
L 2419 1625 
L 2419 4116 
z
M 2253 4666 
L 3047 4666 
L 3047 1625 
L 3713 1625 
L 3713 1100 
L 3047 1100 
L 3047 0 
L 2419 0 
L 2419 1100 
L 313 1100 
L 313 1709 
L 2253 4666 
z
" transform="scale(0.015625)"/>
       </defs>
       <use xlink:href="#DejaVuSans-31"/>
       <use xlink:href="#DejaVuSans-35" transform="translate(63.623047 0)"/>
       <use xlink:href="#DejaVuSans-34" transform="translate(127.246094 0)"/>
       <use xlink:href="#DejaVuSans-30" transform="translate(190.869141 0)"/>
      </g>
     </g>
    </g>
    <g id="xtick_3">
     <g id="line2d_3">
      <g>
       <use xlink:href="#m2993b46551" x="246.629886" y="242.918125" style="stroke: #000000; stroke-width: 0.8"/>
      </g>
     </g>
     <g id="text_3">
      <!-- 1560 -->
      <g transform="translate(233.904886 257.516563) scale(0.1 -0.1)">
       <defs>
        <path id="DejaVuSans-36" d="M 2113 2584 
Q 1688 2584 1439 2293 
Q 1191 2003 1191 1497 
Q 1191 994 1439 701 
Q 1688 409 2113 409 
Q 2538 409 2786 701 
Q 3034 994 3034 1497 
Q 3034 2003 2786 2293 
Q 2538 2584 2113 2584 
z
M 3366 4563 
L 3366 3988 
Q 3128 4100 2886 4159 
Q 2644 4219 2406 4219 
Q 1781 4219 1451 3797 
Q 1122 3375 1075 2522 
Q 1259 2794 1537 2939 
Q 1816 3084 2150 3084 
Q 2853 3084 3261 2657 
Q 3669 2231 3669 1497 
Q 3669 778 3244 343 
Q 2819 -91 2113 -91 
Q 1303 -91 875 529 
Q 447 1150 447 2328 
Q 447 3434 972 4092 
Q 1497 4750 2381 4750 
Q 2619 4750 2861 4703 
Q 3103 4656 3366 4563 
z
" transform="scale(0.015625)"/>
       </defs>
       <use xlink:href="#DejaVuSans-31"/>
       <use xlink:href="#DejaVuSans-35" transform="translate(63.623047 0)"/>
       <use xlink:href="#DejaVuSans-36" transform="translate(127.246094 0)"/>
       <use xlink:href="#DejaVuSans-30" transform="translate(190.869141 0)"/>
      </g>
     </g>
    </g>
    <g id="xtick_4">
     <g id="line2d_4">
      <g>
       <use xlink:href="#m2993b46551" x="183.255341" y="242.918125" style="stroke: #000000; stroke-width: 0.8"/>
      </g>
     </g>
     <g id="text_4">
      <!-- 1580 -->
      <g transform="translate(170.530341 257.516563) scale(0.1 -0.1)">
       <defs>
        <path id="DejaVuSans-38" d="M 2034 2216 
Q 1584 2216 1326 1975 
Q 1069 1734 1069 1313 
Q 1069 891 1326 650 
Q 1584 409 2034 409 
Q 2484 409 2743 651 
Q 3003 894 3003 1313 
Q 3003 1734 2745 1975 
Q 2488 2216 2034 2216 
z
M 1403 2484 
Q 997 2584 770 2862 
Q 544 3141 544 3541 
Q 544 4100 942 4425 
Q 1341 4750 2034 4750 
Q 2731 4750 3128 4425 
Q 3525 4100 3525 3541 
Q 3525 3141 3298 2862 
Q 3072 2584 2669 2484 
Q 3125 2378 3379 2068 
Q 3634 1759 3634 1313 
Q 3634 634 3220 271 
Q 2806 -91 2034 -91 
Q 1263 -91 848 271 
Q 434 634 434 1313 
Q 434 1759 690 2068 
Q 947 2378 1403 2484 
z
M 1172 3481 
Q 1172 3119 1398 2916 
Q 1625 2713 2034 2713 
Q 2441 2713 2670 2916 
Q 2900 3119 2900 3481 
Q 2900 3844 2670 4047 
Q 2441 4250 2034 4250 
Q 1625 4250 1398 4047 
Q 1172 3844 1172 3481 
z
" transform="scale(0.015625)"/>
       </defs>
       <use xlink:href="#DejaVuSans-31"/>
       <use xlink:href="#DejaVuSans-35" transform="translate(63.623047 0)"/>
       <use xlink:href="#DejaVuSans-38" transform="translate(127.246094 0)"/>
       <use xlink:href="#DejaVuSans-30" transform="translate(190.869141 0)"/>
      </g>
     </g>
    </g>
    <g id="xtick_5">
     <g id="line2d_5">
      <g>
       <use xlink:href="#m2993b46551" x="119.880795" y="242.918125" style="stroke: #000000; stroke-width: 0.8"/>
      </g>
     </g>
     <g id="text_5">
      <!-- 1600 -->
      <g transform="translate(107.155795 257.516563) scale(0.1 -0.1)">
       <use xlink:href="#DejaVuSans-31"/>
       <use xlink:href="#DejaVuSans-36" transform="translate(63.623047 0)"/>
       <use xlink:href="#DejaVuSans-30" transform="translate(127.246094 0)"/>
       <use xlink:href="#DejaVuSans-30" transform="translate(190.869141 0)"/>
      </g>
     </g>
    </g>
    <g id="xtick_6">
     <g id="line2d_6">
      <g>
       <use xlink:href="#m2993b46551" x="56.50625" y="242.918125" style="stroke: #000000; stroke-width: 0.8"/>
      </g>
     </g>
     <g id="text_6">
      <!-- 1620 -->
      <g transform="translate(43.78125 257.516563) scale(0.1 -0.1)">
       <use xlink:href="#DejaVuSans-31"/>
       <use xlink:href="#DejaVuSans-36" transform="translate(63.623047 0)"/>
       <use xlink:href="#DejaVuSans-32" transform="translate(127.246094 0)"/>
       <use xlink:href="#DejaVuSans-30" transform="translate(190.869141 0)"/>
      </g>
     </g>
    </g>
    <g id="text_7">
     <!-- Wavenumber (cm⁻¹) -->
     <g transform="translate(179.793281 271.194687) scale(0.1 -0.1)">
      <defs>
       <path id="DejaVuSans-57" d="M 213 4666 
L 850 4666 
L 1831 722 
L 2809 4666 
L 3519 4666 
L 4500 722 
L 5478 4666 
L 6119 4666 
L 4947 0 
L 4153 0 
L 3169 4050 
L 2175 0 
L 1381 0 
L 213 4666 
z
" transform="scale(0.015625)"/>
       <path id="DejaVuSans-61" d="M 2194 1759 
Q 1497 1759 1228 1600 
Q 959 1441 959 1056 
Q 959 750 1161 570 
Q 1363 391 1709 391 
Q 2188 391 2477 730 
Q 2766 1069 2766 1631 
L 2766 1759 
L 2194 1759 
z
M 3341 1997 
L 3341 0 
L 2766 0 
L 2766 531 
Q 2569 213 2275 61 
Q 1981 -91 1556 -91 
Q 1019 -91 701 211 
Q 384 513 384 1019 
Q 384 1609 779 1909 
Q 1175 2209 1959 2209 
L 2766 2209 
L 2766 2266 
Q 2766 2663 2505 2880 
Q 2244 3097 1772 3097 
Q 1472 3097 1187 3025 
Q 903 2953 641 2809 
L 641 3341 
Q 956 3463 1253 3523 
Q 1550 3584 1831 3584 
Q 2591 3584 2966 3190 
Q 3341 2797 3341 1997 
z
" transform="scale(0.015625)"/>
       <path id="DejaVuSans-76" d="M 191 3500 
L 800 3500 
L 1894 563 
L 2988 3500 
L 3597 3500 
L 2284 0 
L 1503 0 
L 191 3500 
z
" transform="scale(0.015625)"/>
       <path id="DejaVuSans-65" d="M 3597 1894 
L 3597 1613 
L 953 1613 
Q 991 1019 1311 708 
Q 1631 397 2203 397 
Q 2534 397 2845 478 
Q 3156 559 3463 722 
L 3463 178 
Q 3153 47 2828 -22 
Q 2503 -91 2169 -91 
Q 1331 -91 842 396 
Q 353 884 353 1716 
Q 353 2575 817 3079 
Q 1281 3584 2069 3584 
Q 2775 3584 3186 3129 
Q 3597 2675 3597 1894 
z
M 3022 2063 
Q 3016 2534 2758 2815 
Q 2500 3097 2075 3097 
Q 1594 3097 1305 2825 
Q 1016 2553 972 2059 
L 3022 2063 
z
" transform="scale(0.015625)"/>
       <path id="DejaVuSans-6e" d="M 3513 2113 
L 3513 0 
L 2938 0 
L 2938 2094 
Q 2938 2591 2744 2837 
Q 2550 3084 2163 3084 
Q 1697 3084 1428 2787 
Q 1159 2491 1159 1978 
L 1159 0 
L 581 0 
L 581 3500 
L 1159 3500 
L 1159 2956 
Q 1366 3272 1645 3428 
Q 1925 3584 2291 3584 
Q 2894 3584 3203 3211 
Q 3513 2838 3513 2113 
z
" transform="scale(0.015625)"/>
       <path id="DejaVuSans-75" d="M 544 1381 
L 544 3500 
L 1119 3500 
L 1119 1403 
Q 1119 906 1312 657 
Q 1506 409 1894 409 
Q 2359 409 2629 706 
Q 2900 1003 2900 1516 
L 2900 3500 
L 3475 3500 
L 3475 0 
L 2900 0 
L 2900 538 
Q 2691 219 2414 64 
Q 2138 -91 1772 -91 
Q 1169 -91 856 284 
Q 544 659 544 1381 
z
M 1991 3584 
L 1991 3584 
z
" transform="scale(0.015625)"/>
       <path id="DejaVuSans-6d" d="M 3328 2828 
Q 3544 3216 3844 3400 
Q 4144 3584 4550 3584 
Q 5097 3584 5394 3201 
Q 5691 2819 5691 2113 
L 5691 0 
L 5113 0 
L 5113 2094 
Q 5113 2597 4934 2840 
Q 4756 3084 4391 3084 
Q 3944 3084 3684 2787 
Q 3425 2491 3425 1978 
L 3425 0 
L 2847 0 
L 2847 2094 
Q 2847 2600 2669 2842 
Q 2491 3084 2119 3084 
Q 1678 3084 1418 2786 
Q 1159 2488 1159 1978 
L 1159 0 
L 581 0 
L 581 3500 
L 1159 3500 
L 1159 2956 
Q 1356 3278 1631 3431 
Q 1906 3584 2284 3584 
Q 2666 3584 2933 3390 
Q 3200 3197 3328 2828 
z
" transform="scale(0.015625)"/>
       <path id="DejaVuSans-62" d="M 3116 1747 
Q 3116 2381 2855 2742 
Q 2594 3103 2138 3103 
Q 1681 3103 1420 2742 
Q 1159 2381 1159 1747 
Q 1159 1113 1420 752 
Q 1681 391 2138 391 
Q 2594 391 2855 752 
Q 3116 1113 3116 1747 
z
M 1159 2969 
Q 1341 3281 1617 3432 
Q 1894 3584 2278 3584 
Q 2916 3584 3314 3078 
Q 3713 2572 3713 1747 
Q 3713 922 3314 415 
Q 2916 -91 2278 -91 
Q 1894 -91 1617 61 
Q 1341 213 1159 525 
L 1159 0 
L 581 0 
L 581 4863 
L 1159 4863 
L 1159 2969 
z
" transform="scale(0.015625)"/>
       <path id="DejaVuSans-72" d="M 2631 2963 
Q 2534 3019 2420 3045 
Q 2306 3072 2169 3072 
Q 1681 3072 1420 2755 
Q 1159 2438 1159 1844 
L 1159 0 
L 581 0 
L 581 3500 
L 1159 3500 
L 1159 2956 
Q 1341 3275 1631 3429 
Q 1922 3584 2338 3584 
Q 2397 3584 2469 3576 
Q 2541 3569 2628 3553 
L 2631 2963 
z
" transform="scale(0.015625)"/>
       <path id="DejaVuSans-20" transform="scale(0.015625)"/>
       <path id="DejaVuSans-28" d="M 1984 4856 
Q 1566 4138 1362 3434 
Q 1159 2731 1159 2009 
Q 1159 1288 1364 580 
Q 1569 -128 1984 -844 
L 1484 -844 
Q 1016 -109 783 600 
Q 550 1309 550 2009 
Q 550 2706 781 3412 
Q 1013 4119 1484 4856 
L 1984 4856 
z
" transform="scale(0.015625)"/>
       <path id="DejaVuSans-63" d="M 3122 3366 
L 3122 2828 
Q 2878 2963 2633 3030 
Q 2388 3097 2138 3097 
Q 1578 3097 1268 2742 
Q 959 2388 959 1747 
Q 959 1106 1268 751 
Q 1578 397 2138 397 
Q 2388 397 2633 464 
Q 2878 531 3122 666 
L 3122 134 
Q 2881 22 2623 -34 
Q 2366 -91 2075 -91 
Q 1284 -91 818 406 
Q 353 903 353 1747 
Q 353 2603 823 3093 
Q 1294 3584 2113 3584 
Q 2378 3584 2631 3529 
Q 2884 3475 3122 3366 
z
" transform="scale(0.015625)"/>
       <path id="DejaVuSans-207b" d="M 428 3359 
L 2950 3359 
L 2950 3063 
L 428 3063 
L 428 3359 
z
" transform="scale(0.015625)"/>
       <path id="DejaVuSans-b9" d="M 488 2431 
L 1125 2431 
L 1125 4341 
L 428 4213 
L 428 4575 
L 1147 4697 
L 1575 4697 
L 1575 2431 
L 2216 2431 
L 2216 2088 
L 488 2088 
L 488 2431 
z
" transform="scale(0.015625)"/>
       <path id="DejaVuSans-29" d="M 513 4856 
L 1013 4856 
Q 1481 4119 1714 3412 
Q 1947 2706 1947 2009 
Q 1947 1309 1714 600 
Q 1481 -109 1013 -844 
L 513 -844 
Q 928 -128 1133 580 
Q 1338 1288 1338 2009 
Q 1338 2731 1133 3434 
Q 928 4138 513 4856 
z
" transform="scale(0.015625)"/>
      </defs>
      <use xlink:href="#DejaVuSans-57"/>
      <use xlink:href="#DejaVuSans-61" transform="translate(92.501953 0)"/>
      <use xlink:href="#DejaVuSans-76" transform="translate(153.78125 0)"/>
      <use xlink:href="#DejaVuSans-65" transform="translate(212.960938 0)"/>
      <use xlink:href="#DejaVuSans-6e" transform="translate(274.484375 0)"/>
      <use xlink:href="#DejaVuSans-75" transform="translate(337.863281 0)"/>
      <use xlink:href="#DejaVuSans-6d" transform="translate(401.242188 0)"/>
      <use xlink:href="#DejaVuSans-62" transform="translate(498.654297 0)"/>
      <use xlink:href="#DejaVuSans-65" transform="translate(562.130859 0)"/>
      <use xlink:href="#DejaVuSans-72" transform="translate(623.654297 0)"/>
      <use xlink:href="#DejaVuSans-20" transform="translate(664.767578 0)"/>
      <use xlink:href="#DejaVuSans-28" transform="translate(696.554688 0)"/>
      <use xlink:href="#DejaVuSans-63" transform="translate(735.568359 0)"/>
      <use xlink:href="#DejaVuSans-6d" transform="translate(790.548828 0)"/>
      <use xlink:href="#DejaVuSans-207b" transform="translate(887.960938 0)"/>
      <use xlink:href="#DejaVuSans-b9" transform="translate(940.744141 0)"/>
      <use xlink:href="#DejaVuSans-29" transform="translate(980.832031 0)"/>
     </g>
    </g>
   </g>
   <g id="matplotlib.axis_2">
    <g id="ytick_1">
     <g id="line2d_7">
      <defs>
       <path id="mbb4183f167" d="M 0 0 
L -3.5 0 
" style="stroke: #000000; stroke-width: 0.8"/>
      </defs>
      <g>
       <use xlink:href="#mbb4183f167" x="56.50625" y="235.15885" style="stroke: #000000; stroke-width: 0.8"/>
      </g>
     </g>
     <g id="text_8">
      <!-- 0.025 -->
      <g transform="translate(20.878125 238.958069) scale(0.1 -0.1)">
       <defs>
        <path id="DejaVuSans-2e" d="M 684 794 
L 1344 794 
L 1344 0 
L 684 0 
L 684 794 
z
" transform="scale(0.015625)"/>
       </defs>
       <use xlink:href="#DejaVuSans-30"/>
       <use xlink:href="#DejaVuSans-2e" transform="translate(63.623047 0)"/>
       <use xlink:href="#DejaVuSans-30" transform="translate(95.410156 0)"/>
       <use xlink:href="#DejaVuSans-32" transform="translate(159.033203 0)"/>
       <use xlink:href="#DejaVuSans-35" transform="translate(222.65625 0)"/>
      </g>
     </g>
    </g>
    <g id="ytick_2">
     <g id="line2d_8">
      <g>
       <use xlink:href="#mbb4183f167" x="56.50625" y="207.145751" style="stroke: #000000; stroke-width: 0.8"/>
      </g>
     </g>
     <g id="text_9">
      <!-- 0.050 -->
      <g transform="translate(20.878125 210.944969) scale(0.1 -0.1)">
       <use xlink:href="#DejaVuSans-30"/>
       <use xlink:href="#DejaVuSans-2e" transform="translate(63.623047 0)"/>
       <use xlink:href="#DejaVuSans-30" transform="translate(95.410156 0)"/>
       <use xlink:href="#DejaVuSans-35" transform="translate(159.033203 0)"/>
       <use xlink:href="#DejaVuSans-30" transform="translate(222.65625 0)"/>
      </g>
     </g>
    </g>
    <g id="ytick_3">
     <g id="line2d_9">
      <g>
       <use xlink:href="#mbb4183f167" x="56.50625" y="179.132651" style="stroke: #000000; stroke-width: 0.8"/>
      </g>
     </g>
     <g id="text_10">
      <!-- 0.075 -->
      <g transform="translate(20.878125 182.93187) scale(0.1 -0.1)">
       <defs>
        <path id="DejaVuSans-37" d="M 525 4666 
L 3525 4666 
L 3525 4397 
L 1831 0 
L 1172 0 
L 2766 4134 
L 525 4134 
L 525 4666 
z
" transform="scale(0.015625)"/>
       </defs>
       <use xlink:href="#DejaVuSans-30"/>
       <use xlink:href="#DejaVuSans-2e" transform="translate(63.623047 0)"/>
       <use xlink:href="#DejaVuSans-30" transform="translate(95.410156 0)"/>
       <use xlink:href="#DejaVuSans-37" transform="translate(159.033203 0)"/>
       <use xlink:href="#DejaVuSans-35" transform="translate(222.65625 0)"/>
      </g>
     </g>
    </g>
    <g id="ytick_4">
     <g id="line2d_10">
      <g>
       <use xlink:href="#mbb4183f167" x="56.50625" y="151.119552" style="stroke: #000000; stroke-width: 0.8"/>
      </g>
     </g>
     <g id="text_11">
      <!-- 0.100 -->
      <g transform="translate(20.878125 154.918771) scale(0.1 -0.1)">
       <use xlink:href="#DejaVuSans-30"/>
       <use xlink:href="#DejaVuSans-2e" transform="translate(63.623047 0)"/>
       <use xlink:href="#DejaVuSans-31" transform="translate(95.410156 0)"/>
       <use xlink:href="#DejaVuSans-30" transform="translate(159.033203 0)"/>
       <use xlink:href="#DejaVuSans-30" transform="translate(222.65625 0)"/>
      </g>
     </g>
    </g>
    <g id="ytick_5">
     <g id="line2d_11">
      <g>
       <use xlink:href="#mbb4183f167" x="56.50625" y="123.106453" style="stroke: #000000; stroke-width: 0.8"/>
      </g>
     </g>
     <g id="text_12">
      <!-- 0.125 -->
      <g transform="translate(20.878125 126.905672) scale(0.1 -0.1)">
       <use xlink:href="#DejaVuSans-30"/>
       <use xlink:href="#DejaVuSans-2e" transform="translate(63.623047 0)"/>
       <use xlink:href="#DejaVuSans-31" transform="translate(95.410156 0)"/>
       <use xlink:href="#DejaVuSans-32" transform="translate(159.033203 0)"/>
       <use xlink:href="#DejaVuSans-35" transform="translate(222.65625 0)"/>
      </g>
     </g>
    </g>
    <g id="ytick_6">
     <g id="line2d_12">
      <g>
       <use xlink:href="#mbb4183f167" x="56.50625" y="95.093354" style="stroke: #000000; stroke-width: 0.8"/>
      </g>
     </g>
     <g id="text_13">
      <!-- 0.150 -->
      <g transform="translate(20.878125 98.892572) scale(0.1 -0.1)">
       <use xlink:href="#DejaVuSans-30"/>
       <use xlink:href="#DejaVuSans-2e" transform="translate(63.623047 0)"/>
       <use xlink:href="#DejaVuSans-31" transform="translate(95.410156 0)"/>
       <use xlink:href="#DejaVuSans-35" transform="translate(159.033203 0)"/>
       <use xlink:href="#DejaVuSans-30" transform="translate(222.65625 0)"/>
      </g>
     </g>
    </g>
    <g id="ytick_7">
     <g id="line2d_13">
      <g>
       <use xlink:href="#mbb4183f167" x="56.50625" y="67.080254" style="stroke: #000000; stroke-width: 0.8"/>
      </g>
     </g>
     <g id="text_14">
      <!-- 0.175 -->
      <g transform="translate(20.878125 70.879473) scale(0.1 -0.1)">
       <use xlink:href="#DejaVuSans-30"/>
       <use xlink:href="#DejaVuSans-2e" transform="translate(63.623047 0)"/>
       <use xlink:href="#DejaVuSans-31" transform="translate(95.410156 0)"/>
       <use xlink:href="#DejaVuSans-37" transform="translate(159.033203 0)"/>
       <use xlink:href="#DejaVuSans-35" transform="translate(222.65625 0)"/>
      </g>
     </g>
    </g>
    <g id="ytick_8">
     <g id="line2d_14">
      <g>
       <use xlink:href="#mbb4183f167" x="56.50625" y="39.067155" style="stroke: #000000; stroke-width: 0.8"/>
      </g>
     </g>
     <g id="text_15">
      <!-- 0.200 -->
      <g transform="translate(20.878125 42.866374) scale(0.1 -0.1)">
       <use xlink:href="#DejaVuSans-30"/>
       <use xlink:href="#DejaVuSans-2e" transform="translate(63.623047 0)"/>
       <use xlink:href="#DejaVuSans-32" transform="translate(95.410156 0)"/>
       <use xlink:href="#DejaVuSans-30" transform="translate(159.033203 0)"/>
       <use xlink:href="#DejaVuSans-30" transform="translate(222.65625 0)"/>
      </g>
     </g>
    </g>
    <g id="text_16">
     <!-- Absorbance -->
     <g transform="translate(14.798438 162.165) rotate(-90) scale(0.1 -0.1)">
      <defs>
       <path id="DejaVuSans-41" d="M 2188 4044 
L 1331 1722 
L 3047 1722 
L 2188 4044 
z
M 1831 4666 
L 2547 4666 
L 4325 0 
L 3669 0 
L 3244 1197 
L 1141 1197 
L 716 0 
L 50 0 
L 1831 4666 
z
" transform="scale(0.015625)"/>
       <path id="DejaVuSans-73" d="M 2834 3397 
L 2834 2853 
Q 2591 2978 2328 3040 
Q 2066 3103 1784 3103 
Q 1356 3103 1142 2972 
Q 928 2841 928 2578 
Q 928 2378 1081 2264 
Q 1234 2150 1697 2047 
L 1894 2003 
Q 2506 1872 2764 1633 
Q 3022 1394 3022 966 
Q 3022 478 2636 193 
Q 2250 -91 1575 -91 
Q 1294 -91 989 -36 
Q 684 19 347 128 
L 347 722 
Q 666 556 975 473 
Q 1284 391 1588 391 
Q 1994 391 2212 530 
Q 2431 669 2431 922 
Q 2431 1156 2273 1281 
Q 2116 1406 1581 1522 
L 1381 1569 
Q 847 1681 609 1914 
Q 372 2147 372 2553 
Q 372 3047 722 3315 
Q 1072 3584 1716 3584 
Q 2034 3584 2315 3537 
Q 2597 3491 2834 3397 
z
" transform="scale(0.015625)"/>
       <path id="DejaVuSans-6f" d="M 1959 3097 
Q 1497 3097 1228 2736 
Q 959 2375 959 1747 
Q 959 1119 1226 758 
Q 1494 397 1959 397 
Q 2419 397 2687 759 
Q 2956 1122 2956 1747 
Q 2956 2369 2687 2733 
Q 2419 3097 1959 3097 
z
M 1959 3584 
Q 2709 3584 3137 3096 
Q 3566 2609 3566 1747 
Q 3566 888 3137 398 
Q 2709 -91 1959 -91 
Q 1206 -91 779 398 
Q 353 888 353 1747 
Q 353 2609 779 3096 
Q 1206 3584 1959 3584 
z
" transform="scale(0.015625)"/>
      </defs>
      <use xlink:href="#DejaVuSans-41"/>
      <use xlink:href="#DejaVuSans-62" transform="translate(68.408203 0)"/>
      <use xlink:href="#DejaVuSans-73" transform="translate(131.884766 0)"/>
      <use xlink:href="#DejaVuSans-6f" transform="translate(183.984375 0)"/>
      <use xlink:href="#DejaVuSans-72" transform="translate(245.166016 0)"/>
      <use xlink:href="#DejaVuSans-62" transform="translate(286.279297 0)"/>
      <use xlink:href="#DejaVuSans-61" transform="translate(349.755859 0)"/>
      <use xlink:href="#DejaVuSans-6e" transform="translate(411.035156 0)"/>
      <use xlink:href="#DejaVuSans-63" transform="translate(474.414062 0)"/>
      <use xlink:href="#DejaVuSans-65" transform="translate(529.394531 0)"/>
     </g>
    </g>
   </g>
   <g id="line2d_15">
    <path d="M -1 210.591252 
L 3.585728 211.836032 
L 9.492628 212.080834 
L 15.399529 210.274594 
L 21.30643 209.472637 
L 27.21333 210.42851 
L 33.120231 212.748515 
L 39.027131 215.796072 
L 44.934032 219.783139 
L 50.840932 224.221576 
L 56.747833 226.454899 
L 62.654734 222.501639 
L 74.468535 201.989785 
L 80.375435 195.770754 
L 86.282336 195.841524 
L 92.189236 199.410887 
L 98.096137 203.984364 
L 104.003038 206.608231 
L 109.909938 205.315296 
L 115.816839 200.484935 
L 121.723739 194.235429 
L 127.63064 189.133157 
L 133.53754 186.558492 
L 139.444441 185.391009 
L 145.351342 181.951833 
L 151.258242 173.614365 
L 157.165143 163.896672 
L 163.072043 161.091718 
L 168.978944 168.511639 
L 180.792745 193.761092 
L 186.699646 201.622779 
L 192.606546 203.978863 
L 198.513447 204.519378 
L 204.420347 205.522834 
L 210.327248 207.514109 
L 216.234148 209.813415 
L 222.141049 211.0078 
L 228.04795 213.76827 
L 233.95485 219.934558 
L 239.861751 225.923069 
L 245.768651 228.624492 
L 251.675552 227.880685 
L 257.582453 224.194974 
L 263.489353 222.020333 
L 269.396254 221.975272 
L 275.303154 221.068253 
L 281.210055 223.074189 
L 287.116955 226.346541 
L 293.023856 229.993472 
L 298.930757 229.262238 
L 304.837657 216.493499 
L 310.744558 188.048319 
L 316.651458 167.400288 
L 322.558359 161.493933 
L 328.465259 168.083115 
L 334.37216 182.69984 
L 340.279061 197.807251 
L 346.185961 213.486741 
L 352.092862 224.847932 
L 357.999762 230.518172 
L 363.906663 230.561875 
L 369.813563 229.434667 
L 375.720464 227.548229 
L 381.627365 225.159665 
L 387.534265 224.406518 
L 393.441166 223.084931 
L 399.348066 224.840787 
L 405.254967 229.359717 
L 411.161867 234.283106 
L 417.068768 236.044902 
L 428.882569 230.610934 
L 434.78947 228.655051 
L 440.69637 223.004884 
L 446.603271 210.574493 
L 452.510171 196.577579 
L 458.417072 186.10965 
L 464.323973 177.86524 
L 470.230873 168.018491 
L 476.137774 155.348313 
L 482.044674 146.052524 
L 487.951575 144.474404 
L 493.858475 150.57159 
L 499.765376 160.519752 
L 505.672277 170.174236 
L 511.579177 180.513701 
L 517.486078 188.070067 
L 523.392978 191.300696 
L 529.299879 189.405952 
L 535.206779 187.188843 
L 541.11368 188.443384 
L 547.020581 190.380482 
L 552.927481 186.946274 
L 558.834382 178.552783 
L 564.741282 169.719754 
L 569.436563 160.115162 
L 569.436563 160.115162 
" clip-path="url(#p3a9254db73)" style="fill: none; stroke: #1f77b4; stroke-width: 1.5; stroke-linecap: square"/>
   </g>
   <g id="line2d_16">
    <path d="M -1 211.139921 
L 3.585728 212.578746 
L 9.492628 212.32847 
L 15.399529 210.370081 
L 21.30643 209.753795 
L 27.21333 210.945844 
L 33.120231 213.072869 
L 39.027131 215.679545 
L 44.934032 219.440186 
L 50.840932 224.48487 
L 56.747833 227.552879 
L 62.654734 223.801938 
L 68.561634 213.056875 
L 74.468535 202.645325 
L 80.375435 195.564783 
L 86.282336 192.64941 
L 92.189236 191.639006 
L 98.096137 192.091865 
L 104.003038 192.270726 
L 109.909938 190.59716 
L 115.816839 186.813131 
L 121.723739 182.259028 
L 127.63064 179.539367 
L 133.53754 178.933822 
L 139.444441 178.785107 
L 145.351342 176.553887 
L 151.258242 170.447635 
L 157.165143 163.628469 
L 163.072043 162.261411 
L 168.978944 169.114881 
L 174.885844 180.875522 
L 180.792745 193.604749 
L 186.699646 202.222319 
L 192.606546 204.408638 
L 198.513447 204.123204 
L 204.420347 205.254102 
L 210.327248 207.955667 
L 216.234148 210.428439 
L 222.141049 211.189091 
L 228.04795 213.572451 
L 233.95485 219.881255 
L 239.861751 226.70787 
L 245.768651 229.722665 
L 251.675552 227.750498 
L 257.582453 223.64864 
L 263.489353 221.520546 
L 269.396254 221.389655 
L 275.303154 219.954844 
L 281.210055 221.375357 
L 287.116955 224.869618 
L 293.023856 229.301601 
L 298.930757 229.519278 
L 304.837657 217.647482 
L 310.744558 190.311712 
L 316.651458 170.793092 
L 322.558359 165.258974 
L 328.465259 170.591566 
L 334.37216 183.411077 
L 340.279061 197.398299 
L 346.185961 212.206768 
L 352.092862 222.607581 
L 357.999762 227.707062 
L 363.906663 228.013034 
L 369.813563 227.139949 
L 375.720464 225.415988 
L 381.627365 223.007543 
L 387.534265 222.315001 
L 393.441166 221.438683 
L 399.348066 223.399719 
L 411.161867 232.231851 
L 417.068768 233.026427 
L 422.975669 230.002235 
L 428.882569 227.121145 
L 434.78947 225.19208 
L 440.69637 220.360542 
L 446.603271 209.156278 
L 452.510171 196.069124 
L 458.417072 186.101829 
L 464.323973 178.571033 
L 470.230873 169.999888 
L 476.137774 158.184952 
L 482.044674 148.717081 
L 487.951575 146.43343 
L 493.858475 151.662222 
L 499.765376 160.914345 
L 511.579177 178.586934 
L 517.486078 185.156202 
L 523.392978 188.224144 
L 529.299879 186.632387 
L 535.206779 184.540045 
L 541.11368 185.592131 
L 547.020581 187.464316 
L 552.927481 184.508316 
L 558.834382 176.463906 
L 564.741282 167.557924 
L 569.436563 157.864146 
L 569.436563 157.864146 
" clip-path="url(#p3a9254db73)" style="fill: none; stroke: #ff7f0e; stroke-width: 1.5; stroke-linecap: square"/>
   </g>
   <g id="line2d_17">
    <path d="M -1 211.315291 
L 3.585728 212.871796 
L 9.492628 212.891542 
L 15.399529 210.802161 
L 21.30643 210.003373 
L 27.21333 211.047279 
L 33.120231 213.225506 
L 39.027131 216.181248 
L 44.934032 220.238391 
L 50.840932 225.016916 
L 56.747833 227.697635 
L 62.654734 224.400943 
L 68.561634 214.781821 
L 74.468535 203.993326 
L 80.375435 195.43246 
L 86.282336 191.018191 
L 92.189236 188.426576 
L 98.096137 187.096883 
L 104.003038 185.324474 
L 109.909938 182.665871 
L 121.723739 176.965998 
L 127.63064 175.281179 
L 133.53754 175.14894 
L 139.444441 175.648935 
L 145.351342 174.516688 
L 151.258242 170.065453 
L 157.165143 164.344856 
L 163.072043 163.302883 
L 168.978944 170.266056 
L 174.885844 181.852351 
L 180.792745 194.253024 
L 186.699646 202.397665 
L 192.606546 204.467549 
L 198.513447 204.812947 
L 204.420347 206.127542 
L 216.234148 211.094782 
L 222.141049 211.82943 
L 228.04795 214.13671 
L 239.861751 226.685912 
L 245.768651 229.431943 
L 251.675552 228.521384 
L 257.582453 224.802946 
L 263.489353 222.251448 
L 269.396254 221.520626 
L 275.303154 219.891393 
L 281.210055 221.360678 
L 287.116955 224.677734 
L 293.023856 229.08013 
L 298.930757 229.751089 
L 304.837657 218.691349 
L 310.744558 192.034009 
L 316.651458 172.681411 
L 322.558359 166.956977 
L 328.465259 172.276689 
L 334.37216 184.792641 
L 340.279061 197.739389 
L 346.185961 211.610256 
L 352.092862 221.607284 
L 357.999762 226.795528 
L 363.906663 227.051754 
L 369.813563 226.094111 
L 375.720464 224.468668 
L 381.627365 222.417602 
L 387.534265 221.899334 
L 393.441166 220.709489 
L 399.348066 222.492196 
L 411.161867 231.425761 
L 417.068768 232.15662 
L 422.975669 228.750617 
L 428.882569 225.655094 
L 434.78947 224.127803 
L 440.69637 219.74367 
L 446.603271 208.800456 
L 452.510171 196.017081 
L 458.417072 186.639332 
L 464.323973 180.021887 
L 470.230873 172.02364 
L 476.137774 160.20366 
L 482.044674 150.637913 
L 487.951575 148.476419 
L 493.858475 153.691398 
L 499.765376 162.28595 
L 505.672277 170.071479 
L 511.579177 178.365925 
L 517.486078 184.71549 
L 523.392978 187.961921 
L 529.299879 186.291525 
L 535.206779 183.892409 
L 541.11368 185.060225 
L 547.020581 187.367121 
L 552.927481 184.470324 
L 558.834382 176.265867 
L 564.741282 167.57196 
L 569.436563 158.448777 
L 569.436563 158.448777 
" clip-path="url(#p3a9254db73)" style="fill: none; stroke: #2ca02c; stroke-width: 1.5; stroke-linecap: square"/>
   </g>
   <g id="line2d_18">
    <path d="M -1 211.571021 
L 3.585728 212.959338 
L 9.492628 213.387771 
L 15.399529 211.765773 
L 21.30643 210.835676 
L 27.21333 211.472436 
L 33.120231 213.730106 
L 39.027131 216.895123 
L 44.934032 220.878836 
L 50.840932 225.828448 
L 56.747833 228.735215 
L 62.654734 225.407357 
L 68.561634 215.811131 
L 74.468535 205.018157 
L 80.375435 195.896204 
L 86.282336 190.119062 
L 92.189236 185.50506 
L 98.096137 181.768405 
L 104.003038 178.303194 
L 109.909938 175.423659 
L 115.816839 173.072131 
L 121.723739 171.403973 
L 127.63064 170.9781 
L 133.53754 171.581071 
L 139.444441 172.745366 
L 145.351342 172.710857 
L 151.258242 169.339941 
L 157.165143 164.47304 
L 163.072043 164.22395 
L 168.978944 171.645675 
L 174.885844 183.086392 
L 180.792745 194.998668 
L 186.699646 202.903709 
L 192.606546 205.228831 
L 198.513447 205.879979 
L 204.420347 207.144896 
L 210.327248 209.500741 
L 216.234148 211.997516 
L 222.141049 212.893131 
L 228.04795 215.204638 
L 233.95485 221.260813 
L 239.861751 227.520127 
L 245.768651 230.640557 
L 251.675552 229.792929 
L 257.582453 225.388246 
L 263.489353 222.488182 
L 269.396254 222.094535 
L 275.303154 220.545796 
L 281.210055 221.63997 
L 287.116955 224.599673 
L 293.023856 229.032609 
L 298.930757 230.385834 
L 304.837657 220.228813 
L 310.744558 194.344683 
L 316.651458 175.263756 
L 322.558359 169.576852 
L 328.465259 174.67907 
L 334.37216 186.368327 
L 340.279061 198.349192 
L 346.185961 211.526489 
L 352.092862 221.133337 
L 357.999762 226.293034 
L 363.906663 226.514943 
L 369.813563 225.49514 
L 375.720464 223.940875 
L 381.627365 222.110096 
L 387.534265 221.849425 
L 393.441166 220.621173 
L 399.348066 222.427794 
L 405.254967 227.020953 
L 411.161867 231.351683 
L 417.068768 231.340487 
L 422.975669 227.403043 
L 428.882569 224.277491 
L 434.78947 223.154844 
L 440.69637 219.310857 
L 446.603271 208.729304 
L 452.510171 196.386032 
L 458.417072 187.628365 
L 464.323973 181.672257 
L 470.230873 173.999621 
L 476.137774 162.361545 
L 482.044674 153.118501 
L 487.951575 151.03599 
L 493.858475 155.738014 
L 499.765376 163.527655 
L 505.672277 170.553547 
L 511.579177 178.365012 
L 517.486078 184.561216 
L 523.392978 187.488055 
L 529.299879 185.669316 
L 535.206779 183.685394 
L 541.11368 185.266003 
L 547.020581 187.579709 
L 552.927481 184.41616 
L 564.741282 167.931523 
L 569.436563 159.010813 
L 569.436563 159.010813 
" clip-path="url(#p3a9254db73)" style="fill: none; stroke: #d62728; stroke-width: 1.5; stroke-linecap: square"/>
   </g>
   <g id="line2d_19">
    <path d="M -1 208.484908 
L 3.585728 210.934066 
L 9.492628 211.599049 
L 15.399529 209.408772 
L 21.30643 208.08052 
L 27.21333 208.798295 
L 33.120231 211.181213 
L 39.027131 214.36951 
L 44.934032 218.526976 
L 50.840932 223.345408 
L 56.747833 226.885989 
L 62.654734 225.233803 
L 68.561634 216.025124 
L 74.468535 204.38081 
L 80.375435 194.04547 
L 86.282336 185.873692 
L 98.096137 168.434887 
L 104.003038 161.353661 
L 109.909938 157.669836 
L 115.816839 156.979009 
L 121.723739 157.785506 
L 127.63064 159.389562 
L 133.53754 161.481436 
L 139.444441 163.984219 
L 145.351342 165.97713 
L 151.258242 165.449432 
L 157.165143 163.40873 
L 163.072043 165.039294 
L 168.978944 172.85086 
L 180.792745 194.361826 
L 186.699646 201.63189 
L 192.606546 204.290771 
L 198.513447 204.763355 
L 204.420347 205.930662 
L 216.234148 211.60894 
L 222.141049 212.518031 
L 228.04795 214.550873 
L 233.95485 219.741307 
L 239.861751 225.850918 
L 245.768651 229.778468 
L 251.675552 228.126955 
L 257.582453 223.553928 
L 263.489353 220.862936 
L 269.396254 219.944969 
L 275.303154 218.319763 
L 281.210055 218.880635 
L 287.116955 221.648191 
L 293.023856 226.419211 
L 298.930757 228.383005 
L 304.837657 220.199056 
L 310.744558 196.718736 
L 316.651458 178.043911 
L 322.558359 172.265514 
L 328.465259 176.824229 
L 334.37216 186.67685 
L 340.279061 196.92143 
L 346.185961 208.632929 
L 352.092862 217.324885 
L 357.999762 221.433448 
L 363.906663 221.628124 
L 369.813563 221.018394 
L 381.627365 218.63595 
L 387.534265 218.315259 
L 393.441166 217.133463 
L 399.348066 218.481649 
L 405.254967 222.750113 
L 411.161867 227.470732 
L 417.068768 227.04152 
L 422.975669 222.330574 
L 428.882569 219.295457 
L 434.78947 218.398435 
L 440.69637 215.147129 
L 446.603271 205.90518 
L 452.510171 194.866644 
L 458.417072 187.205182 
L 464.323973 182.233156 
L 470.230873 175.360633 
L 476.137774 164.496471 
L 482.044674 155.737655 
L 487.951575 153.595806 
L 493.858475 157.360493 
L 499.765376 163.331119 
L 505.672277 168.909786 
L 511.579177 175.395021 
L 517.486078 181.066341 
L 523.392978 184.124753 
L 529.299879 182.523828 
L 535.206779 180.695123 
L 541.11368 182.387715 
L 547.020581 184.848038 
L 552.927481 181.68694 
L 564.741282 165.609902 
L 569.436563 157.157736 
L 569.436563 157.157736 
" clip-path="url(#p3a9254db73)" style="fill: none; stroke: #9467bd; stroke-width: 1.5; stroke-linecap: square"/>
   </g>
   <g id="line2d_20">
    <path d="M -1 207.658117 
L 3.585728 209.994157 
L 9.492628 210.52688 
L 15.399529 208.834029 
L 21.30643 208.295593 
L 27.21333 209.173098 
L 33.120231 211.130422 
L 39.027131 214.031242 
L 44.934032 218.422489 
L 50.840932 224.164622 
L 56.747833 228.416982 
L 62.654734 226.89844 
L 68.561634 217.600064 
L 80.375435 194.117208 
L 86.282336 181.516672 
L 98.096137 151.742948 
L 104.003038 140.794706 
L 109.909938 135.786637 
L 115.816839 136.120878 
L 121.723739 139.855618 
L 127.63064 145.346826 
L 133.53754 150.529771 
L 139.444441 154.756247 
L 145.351342 158.638468 
L 151.258242 161.691578 
L 157.165143 164.408776 
L 163.072043 169.01995 
L 168.978944 176.381872 
L 174.885844 185.412135 
L 180.792745 194.927668 
L 186.699646 201.770966 
L 192.606546 204.391444 
L 198.513447 204.879568 
L 204.420347 206.233887 
L 216.234148 212.670455 
L 222.141049 213.715056 
L 228.04795 215.289669 
L 233.95485 219.941704 
L 239.861751 225.538921 
L 245.768651 229.216976 
L 251.675552 227.455834 
L 257.582453 222.48755 
L 263.489353 219.545324 
L 269.396254 218.691049 
L 275.303154 217.081932 
L 281.210055 217.203099 
L 287.116955 219.422726 
L 293.023856 224.594565 
L 298.930757 228.390554 
L 304.837657 222.857576 
L 310.744558 202.194203 
L 316.651458 184.967399 
L 322.558359 179.463072 
L 328.465259 182.771046 
L 334.37216 189.879559 
L 340.279061 197.205233 
L 346.185961 206.331936 
L 352.092862 213.358805 
L 357.999762 216.905317 
L 363.906663 217.015039 
L 369.813563 216.383552 
L 375.720464 215.476404 
L 381.627365 214.967326 
L 387.534265 215.214311 
L 393.441166 214.29366 
L 399.348066 215.387026 
L 405.254967 218.936724 
L 411.161867 222.696304 
L 417.068768 221.424538 
L 422.975669 216.462233 
L 428.882569 213.535858 
L 434.78947 213.228237 
L 440.69637 211.413421 
L 446.603271 204.145835 
L 452.510171 194.709089 
L 458.417072 188.318419 
L 464.323973 184.687196 
L 470.230873 179.312122 
L 476.137774 169.984942 
L 482.044674 162.058848 
L 487.951575 159.449181 
L 493.858475 161.846092 
L 499.765376 165.853204 
L 505.672277 168.943101 
L 517.486078 176.75804 
L 523.392978 179.193781 
L 529.299879 177.990273 
L 535.206779 176.599164 
L 541.11368 178.350872 
L 547.020581 180.690474 
L 552.927481 177.502807 
L 564.741282 161.108805 
L 569.436563 152.46296 
L 569.436563 152.46296 
" clip-path="url(#p3a9254db73)" style="fill: none; stroke: #8c564b; stroke-width: 1.5; stroke-linecap: square"/>
   </g>
   <g id="line2d_21">
    <path d="M -1 207.626378 
L 3.585728 209.841647 
L 9.492628 210.203695 
L 15.399529 208.706072 
L 21.30643 208.324508 
L 27.21333 209.313467 
L 33.120231 211.264251 
L 39.027131 214.216918 
L 44.934032 218.692813 
L 50.840932 224.237443 
L 56.747833 228.363971 
L 62.654734 227.097945 
L 68.561634 218.366514 
L 74.468535 206.769508 
L 80.375435 194.263581 
L 86.282336 180.439367 
L 98.096137 147.050738 
L 104.003038 135.134906 
L 109.909938 130.352815 
L 115.816839 131.478553 
L 121.723739 136.046024 
L 127.63064 142.027303 
L 133.53754 147.601308 
L 145.351342 157.146564 
L 151.258242 161.336494 
L 157.165143 164.658491 
L 163.072043 169.268637 
L 168.978944 176.76542 
L 174.885844 185.744775 
L 180.792745 195.01043 
L 186.699646 201.795695 
L 192.606546 204.278361 
L 198.513447 204.754526 
L 204.420347 206.206685 
L 216.234148 213.020189 
L 222.141049 213.925916 
L 228.04795 215.360951 
L 233.95485 219.900114 
L 239.861751 225.629666 
L 245.768651 229.497113 
L 251.675552 227.583701 
L 257.582453 222.569361 
L 263.489353 219.588532 
L 269.396254 218.532093 
L 275.303154 216.549165 
L 281.210055 216.390673 
L 287.116955 218.64952 
L 293.023856 224.046847 
L 298.930757 228.520676 
L 304.837657 223.807684 
L 310.744558 203.443533 
L 316.651458 186.530337 
L 322.558359 181.198319 
L 328.465259 184.138024 
L 334.37216 190.682796 
L 340.279061 197.43019 
L 346.185961 205.832876 
L 352.092862 212.294606 
L 357.999762 215.876209 
L 363.906663 216.241439 
L 369.813563 215.577686 
L 375.720464 214.649517 
L 381.627365 214.124819 
L 387.534265 214.296034 
L 393.441166 213.317012 
L 399.348066 214.458338 
L 405.254967 218.174735 
L 411.161867 222.026224 
L 417.068768 220.637892 
L 422.975669 215.43451 
L 428.882569 212.347729 
L 434.78947 212.123041 
L 440.69637 210.439046 
L 446.603271 203.470201 
L 452.510171 194.624008 
L 458.417072 188.656376 
L 464.323973 185.336494 
L 470.230873 180.237986 
L 476.137774 171.211782 
L 482.044674 163.652624 
L 487.951575 161.145269 
L 493.858475 162.977805 
L 499.765376 166.299905 
L 505.672277 169.008291 
L 517.486078 176.026024 
L 523.392978 178.267309 
L 529.299879 177.139783 
L 535.206779 175.876709 
L 541.11368 177.695921 
L 547.020581 180.176375 
L 552.927481 177.252255 
L 558.834382 169.31741 
L 564.741282 161.120609 
L 569.436563 152.391891 
L 569.436563 152.391891 
" clip-path="url(#p3a9254db73)" style="fill: none; stroke: #e377c2; stroke-width: 1.5; stroke-linecap: square"/>
   </g>
   <g id="line2d_22">
    <path d="M -1 207.085522 
L 3.585728 209.36526 
L 9.492628 210.028695 
L 15.399529 208.826849 
L 21.30643 208.486069 
L 27.21333 209.318857 
L 33.120231 211.123904 
L 39.027131 214.022093 
L 44.934032 218.773159 
L 50.840932 224.727181 
L 56.747833 228.935655 
L 62.654734 227.709987 
L 68.561634 219.095321 
L 74.468535 207.377423 
L 80.375435 194.105363 
L 86.282336 178.286517 
L 92.189236 158.650939 
L 98.096137 139.450498 
L 104.003038 125.640213 
L 109.909938 120.083655 
L 115.816839 121.982246 
L 121.723739 128.298298 
L 127.63064 135.830485 
L 133.53754 142.164808 
L 139.444441 147.468371 
L 145.351342 153.335916 
L 151.258242 159.392101 
L 157.165143 164.678377 
L 163.072043 170.562259 
L 168.978944 178.173308 
L 174.885844 186.517935 
L 180.792745 195.145888 
L 186.699646 201.642572 
L 192.606546 204.204535 
L 198.513447 204.921958 
L 204.420347 206.506355 
L 216.234148 213.508886 
L 222.141049 214.584007 
L 228.04795 215.949276 
L 233.95485 220.228205 
L 239.861751 225.791891 
L 245.768651 229.648197 
L 251.675552 227.755192 
L 257.582453 222.750725 
L 263.489353 219.624395 
L 269.396254 218.340567 
L 275.303154 216.264422 
L 281.210055 215.862461 
L 287.116955 217.881737 
L 293.023856 223.306939 
L 298.930757 228.094928 
L 304.837657 224.291813 
L 310.744558 205.566865 
L 316.651458 189.450858 
L 322.558359 183.880263 
L 328.465259 186.110593 
L 340.279061 197.472518 
L 346.185961 204.946442 
L 352.092862 210.792705 
L 357.999762 213.995128 
L 363.906663 214.09534 
L 369.813563 213.41981 
L 375.720464 212.571484 
L 381.627365 212.524738 
L 387.534265 213.337861 
L 393.441166 212.399885 
L 399.348066 213.104933 
L 405.254967 216.355298 
L 411.161867 219.980765 
L 417.068768 218.460677 
L 422.975669 213.129474 
L 428.882569 209.8837 
L 434.78947 209.696798 
L 440.69637 208.578026 
L 446.603271 202.570133 
L 452.510171 194.588889 
L 458.417072 189.227883 
L 464.323973 186.582488 
L 470.230873 182.249152 
L 476.137774 173.642205 
L 482.044674 165.997463 
L 487.951575 163.246253 
L 493.858475 164.756908 
L 499.765376 167.546527 
L 505.672277 169.2208 
L 511.579177 171.441103 
L 517.486078 174.524767 
L 523.392978 177.206884 
L 529.299879 176.277415 
L 535.206779 174.875096 
L 541.11368 176.621606 
L 547.020581 179.173569 
L 552.927481 176.32078 
L 558.834382 168.485998 
L 564.741282 160.352608 
L 569.436563 151.665201 
L 569.436563 151.665201 
" clip-path="url(#p3a9254db73)" style="fill: none; stroke: #7f7f7f; stroke-width: 1.5; stroke-linecap: square"/>
   </g>
   <g id="line2d_23">
    <path d="M -1 206.836974 
L 3.585728 209.192826 
L 9.492628 209.656381 
L 15.399529 208.388424 
L 21.30643 208.154461 
L 27.21333 208.885919 
L 33.120231 210.494001 
L 39.027131 213.483991 
L 44.934032 218.551253 
L 50.840932 224.505958 
L 56.747833 228.572923 
L 62.654734 227.471177 
L 68.561634 219.252563 
L 74.468535 207.619647 
L 80.375435 194.115454 
L 86.282336 177.78158 
L 98.096137 136.839233 
L 104.003038 122.179475 
L 109.909938 116.336014 
L 115.816839 118.324667 
L 121.723739 124.811915 
L 127.63064 132.998799 
L 133.53754 139.968003 
L 139.444441 145.638129 
L 145.351342 151.925944 
L 151.258242 158.56419 
L 157.165143 164.630166 
L 163.072043 170.91452 
L 168.978944 178.600162 
L 180.792745 195.306015 
L 186.699646 201.528153 
L 192.606546 203.985689 
L 198.513447 204.938738 
L 204.420347 206.660067 
L 210.327248 209.970143 
L 216.234148 213.420358 
L 222.141049 214.408554 
L 228.04795 215.576622 
L 233.95485 219.923575 
L 239.861751 225.441303 
L 245.768651 229.065103 
L 251.675552 227.446756 
L 257.582453 222.500718 
L 263.489353 219.081966 
L 269.396254 217.785603 
L 275.303154 215.907986 
L 281.210055 215.605625 
L 287.116955 217.474934 
L 293.023856 222.682037 
L 298.930757 227.513232 
L 304.837657 223.990968 
L 310.744558 206.08783 
L 316.651458 190.548 
L 322.558359 184.901252 
L 328.465259 186.67698 
L 340.279061 197.178271 
L 346.185961 204.156443 
L 352.092862 209.726107 
L 357.999762 212.861822 
L 363.906663 212.957424 
L 375.720464 211.868146 
L 381.627365 211.916431 
L 387.534265 212.625631 
L 393.441166 211.659762 
L 399.348066 212.265729 
L 405.254967 215.391289 
L 411.161867 219.084308 
L 417.068768 217.666794 
L 422.975669 212.100473 
L 428.882569 208.631513 
L 434.78947 208.535605 
L 440.69637 207.731045 
L 446.603271 202.134664 
L 452.510171 194.420725 
L 458.417072 189.184453 
L 464.323973 186.716978 
L 470.230873 182.809167 
L 476.137774 174.556442 
L 482.044674 166.968325 
L 487.951575 164.188879 
L 493.858475 165.514094 
L 499.765376 167.733061 
L 505.672277 168.800611 
L 511.579177 170.726835 
L 517.486078 173.609359 
L 523.392978 176.267872 
L 529.299879 175.52963 
L 535.206779 174.309885 
L 541.11368 176.188662 
L 547.020581 178.79706 
L 552.927481 175.920104 
L 558.834382 167.960456 
L 564.741282 159.760401 
L 569.436563 151.244891 
L 569.436563 151.244891 
" clip-path="url(#p3a9254db73)" style="fill: none; stroke: #bcbd22; stroke-width: 1.5; stroke-linecap: square"/>
   </g>
   <g id="line2d_24">
    <path d="M -1 206.626686 
L 3.585728 208.939839 
L 9.492628 209.380975 
L 15.399529 208.079875 
L 21.30643 207.9351 
L 27.21333 209.040276 
L 33.120231 210.598452 
L 39.027131 213.184335 
L 44.934032 218.057973 
L 50.840932 224.257577 
L 56.747833 228.716469 
L 62.654734 227.789676 
L 68.561634 219.533253 
L 74.468535 208.00079 
L 80.375435 194.016787 
L 86.282336 176.69834 
L 98.096137 134.17122 
L 104.003038 118.969564 
L 109.909938 113.059502 
L 115.816839 115.225364 
L 121.723739 122.296402 
L 127.63064 131.045448 
L 133.53754 138.469984 
L 139.444441 144.336289 
L 145.351342 151.119758 
L 151.258242 158.382096 
L 163.072043 170.984833 
L 168.978944 178.596261 
L 174.885844 186.815309 
L 180.792745 195.280451 
L 186.699646 201.745981 
L 192.606546 204.226204 
L 198.513447 204.897107 
L 204.420347 206.782482 
L 210.327248 210.298138 
L 216.234148 213.449478 
L 222.141049 214.377105 
L 228.04795 216.020076 
L 233.95485 220.544535 
L 239.861751 226.055798 
L 245.768651 229.559838 
L 251.675552 227.291801 
L 257.582453 222.287513 
L 263.489353 218.823175 
L 269.396254 217.338505 
L 275.303154 215.555935 
L 281.210055 215.401143 
L 287.116955 217.439412 
L 293.023856 222.668414 
L 298.930757 227.594523 
L 304.837657 224.474529 
L 310.744558 206.791812 
L 316.651458 191.30433 
L 322.558359 185.880255 
L 328.465259 187.576773 
L 334.37216 192.425703 
L 340.279061 197.429754 
L 346.185961 203.887041 
L 352.092862 209.075643 
L 357.999762 212.050419 
L 363.906663 212.17246 
L 375.720464 211.234955 
L 381.627365 211.240756 
L 387.534265 211.889625 
L 393.441166 211.223368 
L 399.348066 212.024901 
L 405.254967 215.122314 
L 411.161867 218.478742 
L 417.068768 216.546365 
L 422.975669 211.003441 
L 428.882569 207.737698 
L 434.78947 207.700802 
L 440.69637 207.063646 
L 446.603271 201.63308 
L 452.510171 194.087275 
L 458.417072 189.181111 
L 464.323973 187.024331 
L 470.230873 183.300189 
L 476.137774 175.345137 
L 482.044674 167.912862 
L 487.951575 164.882024 
L 493.858475 165.996044 
L 499.765376 168.228827 
L 505.672277 169.203902 
L 511.579177 170.677494 
L 523.392978 175.594015 
L 529.299879 175.061043 
L 535.206779 173.99359 
L 541.11368 175.986468 
L 547.020581 178.639045 
L 552.927481 175.719257 
L 558.834382 167.838337 
L 564.741282 159.638783 
L 569.436563 150.989907 
L 569.436563 150.989907 
" clip-path="url(#p3a9254db73)" style="fill: none; stroke: #17becf; stroke-width: 1.5; stroke-linecap: square"/>
   </g>
   <g id="line2d_25">
    <path d="M -1 205.631829 
L 3.585728 208.494314 
L 9.492628 209.497024 
L 15.399529 208.037008 
L 21.30643 207.424685 
L 27.21333 208.448398 
L 33.120231 210.712684 
L 39.027131 213.621969 
L 44.934032 218.068186 
L 50.840932 223.863137 
L 56.747833 228.331203 
L 62.654734 227.911155 
L 68.561634 219.961682 
L 74.468535 207.87991 
L 80.375435 193.330788 
L 86.282336 175.044964 
L 98.096137 128.033015 
L 104.003038 111.011711 
L 109.909938 104.631156 
L 115.816839 107.567074 
L 121.723739 115.825832 
L 127.63064 125.573406 
L 133.53754 133.412367 
L 139.444441 139.701504 
L 145.351342 147.654148 
L 151.258242 156.877218 
L 157.165143 164.923776 
L 163.072043 172.291857 
L 174.885844 187.737695 
L 180.792745 195.762922 
L 186.699646 201.96532 
L 192.606546 204.38622 
L 198.513447 205.077803 
L 204.420347 206.774946 
L 210.327248 210.324168 
L 216.234148 213.726645 
L 222.141049 214.639225 
L 228.04795 215.962056 
L 233.95485 220.309649 
L 239.861751 225.723346 
L 245.768651 229.205482 
L 251.675552 227.056332 
L 257.582453 221.895154 
L 263.489353 218.647219 
L 269.396254 217.097237 
L 275.303154 214.710301 
L 281.210055 214.054074 
L 287.116955 215.975399 
L 298.930757 227.417242 
L 304.837657 224.896821 
L 310.744558 208.026174 
L 316.651458 193.373616 
L 322.558359 188.231182 
L 328.465259 189.404261 
L 334.37216 192.961048 
L 340.279061 196.92228 
L 346.185961 202.837067 
L 352.092862 207.531361 
L 357.999762 210.071946 
L 363.906663 209.979251 
L 375.720464 209.624743 
L 381.627365 209.88891 
L 387.534265 210.594452 
L 393.441166 209.781973 
L 399.348066 210.560946 
L 411.161867 216.527491 
L 417.068768 214.373975 
L 422.975669 208.76007 
L 428.882569 205.624543 
L 434.78947 205.832721 
L 440.69637 205.480893 
L 446.603271 200.71405 
L 452.510171 194.055303 
L 458.417072 189.77918 
L 464.323973 187.921142 
L 470.230873 184.359002 
L 476.137774 176.881966 
L 482.044674 170.134433 
L 487.951575 167.323371 
L 493.858475 167.870715 
L 499.765376 168.945649 
L 505.672277 168.875146 
L 511.579177 169.914589 
L 517.486078 172.156901 
L 523.392978 174.206559 
L 535.206779 172.642876 
L 541.11368 174.82831 
L 547.020581 177.513393 
L 552.927481 174.699108 
L 558.834382 166.866604 
L 564.741282 158.76874 
L 569.436563 150.318202 
L 569.436563 150.318202 
" clip-path="url(#p3a9254db73)" style="fill: none; stroke: #1f77b4; stroke-width: 1.5; stroke-linecap: square"/>
   </g>
   <g id="line2d_26">
    <path d="M -1 205.688325 
L 3.585728 208.230746 
L 9.492628 208.831243 
L 15.399529 207.460413 
L 21.30643 207.124048 
L 27.21333 208.137911 
L 33.120231 209.845781 
L 39.027131 212.663315 
L 44.934032 217.710363 
L 50.840932 224.022216 
L 56.747833 228.304563 
L 62.654734 227.197629 
L 68.561634 219.038422 
L 74.468535 206.685806 
L 80.375435 190.28563 
L 86.282336 167.350361 
L 98.096137 106.105497 
L 104.003038 86.394955 
L 109.909938 81.000243 
L 115.816839 86.294291 
L 121.723739 96.124725 
L 127.63064 104.361237 
L 133.53754 105.658231 
L 139.444441 103.810465 
L 145.351342 110.185531 
L 151.258242 126.411709 
L 157.165143 144.271561 
L 163.072043 158.885065 
L 168.978944 170.335278 
L 174.885844 179.86519 
L 180.792745 188.72193 
L 186.699646 195.327377 
L 192.606546 198.683079 
L 198.513447 200.660879 
L 204.420347 203.072922 
L 216.234148 210.709951 
L 222.141049 211.951919 
L 228.04795 213.399356 
L 233.95485 217.813816 
L 239.861751 223.243116 
L 245.768651 226.490121 
L 251.675552 223.90594 
L 257.582453 218.797492 
L 263.489353 215.547893 
L 269.396254 213.857051 
L 275.303154 211.652084 
L 281.210055 211.301388 
L 287.116955 213.425421 
L 293.023856 219.395225 
L 298.930757 225.726939 
L 304.837657 224.345405 
L 310.744558 208.473332 
L 316.651458 193.930761 
L 322.558359 188.419027 
L 328.465259 189.109972 
L 340.279061 194.799348 
L 346.185961 199.602643 
L 352.092862 203.627465 
L 357.999762 206.091724 
L 363.906663 206.209975 
L 375.720464 205.608236 
L 381.627365 205.773884 
L 387.534265 206.302831 
L 393.441166 205.06328 
L 399.348066 204.684056 
L 405.254967 205.957346 
L 411.161867 206.296564 
L 417.068768 199.716024 
L 422.975669 190.397598 
L 428.882569 185.034207 
L 434.78947 184.828178 
L 440.69637 186.012615 
L 446.603271 183.821922 
L 452.510171 179.235019 
L 458.417072 176.205148 
L 464.323973 175.475924 
L 470.230873 172.913569 
L 476.137774 165.69951 
L 482.044674 157.97677 
L 487.951575 152.940856 
L 493.858475 149.843473 
L 499.765376 145.950232 
L 505.672277 139.952167 
L 511.579177 135.531604 
L 517.486078 136.278473 
L 523.392978 142.975379 
L 529.299879 148.900507 
L 535.206779 153.538994 
L 547.020581 166.289544 
L 552.927481 166.013466 
L 558.834382 159.776817 
L 564.741282 152.831468 
L 569.436563 145.501875 
L 569.436563 145.501875 
" clip-path="url(#p3a9254db73)" style="fill: none; stroke: #ff7f0e; stroke-width: 1.5; stroke-linecap: square"/>
   </g>
   <g id="line2d_27">
    <path d="M -1 204.572096 
L 3.585728 207.665347 
L 9.492628 208.777784 
L 15.399529 206.963478 
L 21.30643 206.138951 
L 27.21333 207.111698 
L 33.120231 209.227987 
L 39.027131 212.045146 
L 44.934032 216.590765 
L 50.840932 222.693278 
L 56.747833 227.344338 
L 62.654734 226.99553 
L 68.561634 219.08643 
L 74.468535 206.161005 
L 80.375435 189.10264 
L 86.282336 166.027219 
L 98.096137 103.846921 
L 104.003038 83.565764 
L 109.909938 78.36584 
L 115.816839 83.829404 
L 121.723739 93.813818 
L 127.63064 102.4632 
L 133.53754 104.041364 
L 139.444441 102.412176 
L 145.351342 109.319185 
L 151.258242 125.964487 
L 157.165143 144.044394 
L 163.072043 158.820161 
L 168.978944 170.130235 
L 174.885844 179.445974 
L 180.792745 188.279784 
L 186.699646 194.937724 
L 192.606546 198.172163 
L 198.513447 199.909162 
L 204.420347 202.257967 
L 216.234148 210.508946 
L 222.141049 211.446505 
L 228.04795 212.909099 
L 233.95485 217.559109 
L 239.861751 222.726526 
L 245.768651 225.675919 
L 251.675552 223.276618 
L 257.582453 218.276584 
L 263.489353 215.248536 
L 269.396254 213.561684 
L 275.303154 210.960545 
L 281.210055 210.198435 
L 287.116955 212.390621 
L 293.023856 218.777563 
L 298.930757 224.962828 
L 304.837657 223.286213 
L 310.744558 208.235603 
L 316.651458 194.552342 
L 322.558359 189.21204 
L 328.465259 189.363938 
L 334.37216 191.374554 
L 340.279061 193.90994 
L 346.185961 198.846155 
L 352.092862 202.990474 
L 357.999762 204.868608 
L 363.906663 204.459162 
L 375.720464 204.911533 
L 387.534265 205.142706 
L 393.441166 203.774369 
L 399.348066 203.668231 
L 405.254967 205.121409 
L 411.161867 205.171572 
L 417.068768 198.122662 
L 422.975669 188.961946 
L 428.882569 183.999247 
L 434.78947 183.961852 
L 440.69637 184.92795 
L 446.603271 182.74777 
L 452.510171 178.745836 
L 458.417072 176.131443 
L 464.323973 175.34539 
L 470.230873 172.486663 
L 482.044674 157.989581 
L 487.951575 153.278558 
L 493.858475 149.793743 
L 499.765376 145.207205 
L 505.672277 139.008851 
L 511.579177 134.774488 
L 517.486078 135.422115 
L 523.392978 141.92034 
L 529.299879 148.125238 
L 535.206779 153.150537 
L 541.11368 159.551422 
L 547.020581 165.525846 
L 552.927481 165.083246 
L 558.834382 158.854731 
L 564.741282 151.779255 
L 569.436563 144.28627 
L 569.436563 144.28627 
" clip-path="url(#p3a9254db73)" style="fill: none; stroke: #2ca02c; stroke-width: 1.5; stroke-linecap: square"/>
   </g>
   <g id="line2d_28">
    <path d="M -1 207.590491 
L 3.585728 209.916245 
L 9.492628 210.50024 
L 15.399529 209.652065 
L 21.30643 210.036058 
L 33.120231 212.648733 
L 39.027131 214.736901 
L 44.934032 219.634633 
L 50.840932 227.25258 
L 56.747833 232.890852 
L 62.654734 232.226755 
L 68.561634 224.332052 
L 74.468535 212.14013 
L 80.375435 194.249023 
L 86.282336 167.080799 
L 92.189236 129.583779 
L 98.096137 92.876435 
L 104.003038 69.717078 
L 109.909938 63.714807 
L 115.816839 70.348981 
L 121.723739 82.943918 
L 127.63064 94.572781 
L 133.53754 98.738041 
L 139.444441 98.698759 
L 145.351342 107.225977 
L 151.258242 127.046907 
L 157.165143 148.949383 
L 163.072043 166.167013 
L 168.978944 177.249958 
L 174.885844 184.71805 
L 180.792745 192.663117 
L 186.699646 199.326406 
L 192.606546 202.043739 
L 198.513447 203.64099 
L 204.420347 206.51248 
L 210.327248 211.07758 
L 216.234148 215.485727 
L 222.141049 216.439027 
L 228.04795 217.183836 
L 233.95485 221.497245 
L 239.861751 226.899726 
L 245.768651 229.008027 
L 251.675552 225.725651 
L 257.582453 220.710731 
L 263.489353 217.76422 
L 269.396254 216.454842 
L 275.303154 213.702419 
L 281.210055 212.673529 
L 287.116955 214.72147 
L 293.023856 221.417138 
L 298.930757 229.044632 
L 304.837657 229.429593 
L 310.744558 217.250832 
L 316.651458 205.779408 
L 322.558359 200.470901 
L 328.465259 198.817426 
L 334.37216 198.763819 
L 340.279061 199.170288 
L 346.185961 201.612572 
L 352.092862 203.393168 
L 357.999762 204.380044 
L 363.906663 203.904777 
L 369.813563 204.449929 
L 375.720464 204.803735 
L 381.627365 204.841603 
L 387.534265 205.748653 
L 393.441166 204.953629 
L 399.348066 204.775334 
L 405.254967 205.473045 
L 411.161867 204.32839 
L 417.068768 197.025726 
L 422.975669 188.25425 
L 428.882569 183.163466 
L 434.78947 182.924552 
L 440.69637 184.519127 
L 446.603271 184.288315 
L 452.510171 182.388633 
L 458.417072 180.904628 
L 464.323973 180.953556 
L 470.230873 179.64755 
L 476.137774 174.145225 
L 482.044674 167.36152 
L 487.951575 161.699265 
L 493.858475 156.740679 
L 499.765376 150.834971 
L 505.672277 142.693797 
L 511.579177 135.87514 
L 517.486078 134.059866 
L 523.392978 139.484468 
L 529.299879 146.059434 
L 535.206779 150.927188 
L 541.11368 156.323864 
L 547.020581 161.371645 
L 552.927481 161.128468 
L 558.834382 155.237202 
L 564.741282 147.390212 
L 569.436563 138.597389 
L 569.436563 138.597389 
" clip-path="url(#p3a9254db73)" style="fill: none; stroke: #d62728; stroke-width: 1.5; stroke-linecap: square"/>
   </g>
   <g id="line2d_29">
    <path d="M -1 204.860745 
L 3.585728 207.083461 
L 9.492628 208.246878 
L 15.399529 207.935663 
L 21.30643 208.20519 
L 27.21333 209.217743 
L 33.120231 210.838512 
L 39.027131 213.510244 
L 44.934032 218.536376 
L 50.840932 225.616875 
L 56.747833 230.949344 
L 62.654734 231.245266 
L 68.561634 224.735623 
L 74.468535 211.954368 
L 80.375435 191.755639 
L 86.282336 162.352786 
L 98.096137 84.55152 
L 104.003038 57.849741 
L 109.909938 49.645818 
L 115.816839 57.149112 
L 121.723739 72.519286 
L 127.63064 86.260838 
L 133.53754 90.65626 
L 139.444441 90.922796 
L 145.351342 101.612356 
L 151.258242 124.666504 
L 157.165143 148.729921 
L 163.072043 166.3478 
L 168.978944 177.338027 
L 180.792745 193.089992 
L 186.699646 198.507615 
L 192.606546 200.167838 
L 198.513447 202.260586 
L 204.420347 206.090585 
L 210.327248 210.614462 
L 216.234148 213.957121 
L 222.141049 214.808514 
L 228.04795 216.447638 
L 233.95485 221.101547 
L 239.861751 225.928469 
L 245.768651 227.123597 
L 251.675552 223.666365 
L 257.582453 219.191134 
L 263.489353 216.315281 
L 269.396254 214.28534 
L 275.303154 210.954535 
L 281.210055 209.845802 
L 287.116955 212.06187 
L 293.023856 218.976496 
L 298.930757 227.06807 
L 304.837657 228.740602 
L 316.651458 208.762759 
L 322.558359 203.498875 
L 328.465259 200.516693 
L 334.37216 198.518435 
L 340.279061 197.521953 
L 346.185961 198.762189 
L 352.092862 199.61908 
L 357.999762 200.166697 
L 363.906663 199.674673 
L 369.813563 200.54691 
L 375.720464 201.221945 
L 381.627365 201.475839 
L 387.534265 202.494392 
L 393.441166 201.733393 
L 399.348066 201.439072 
L 405.254967 202.054096 
L 411.161867 200.748813 
L 417.068768 192.837735 
L 422.975669 183.542978 
L 428.882569 178.349033 
L 434.78947 178.651963 
L 440.69637 181.134343 
L 446.603271 181.619923 
L 452.510171 180.620036 
L 458.417072 180.208924 
L 464.323973 181.362546 
L 470.230873 180.99979 
L 476.137774 176.086363 
L 482.044674 169.644108 
L 493.858475 158.75 
L 499.765376 151.475344 
L 505.672277 141.460181 
L 511.579177 133.158301 
L 517.486078 131.321329 
L 523.392978 137.152886 
L 529.299879 143.435549 
L 535.206779 148.043058 
L 547.020581 159.539582 
L 552.927481 159.552703 
L 558.834382 153.189725 
L 564.741282 145.03188 
L 569.436563 136.824195 
L 569.436563 136.824195 
" clip-path="url(#p3a9254db73)" style="fill: none; stroke: #9467bd; stroke-width: 1.5; stroke-linecap: square"/>
   </g>
   <g id="line2d_30">
    <path d="M -1 202.595986 
L 3.585728 205.677586 
L 9.492628 207.48694 
L 21.30643 205.892478 
L 27.21333 206.556273 
L 33.120231 208.747189 
L 39.027131 211.832112 
L 44.934032 216.628927 
L 50.840932 223.498663 
L 56.747833 229.281205 
L 62.654734 230.564093 
L 68.561634 223.905103 
L 74.468535 210.13268 
L 80.375435 189.175361 
L 86.282336 158.853163 
L 98.096137 77.257296 
L 104.003038 48.926517 
L 109.909938 40.667458 
L 115.816839 49.324342 
L 121.723739 65.604713 
L 127.63064 79.652098 
L 133.53754 84.458196 
L 139.444441 85.569271 
L 145.351342 97.777167 
L 157.165143 147.351736 
L 163.072043 165.634346 
L 168.978944 177.240612 
L 174.885844 184.957009 
L 180.792745 191.566745 
L 186.699646 196.300533 
L 192.606546 198.220096 
L 198.513447 200.452153 
L 204.420347 204.437005 
L 210.327248 209.417213 
L 216.234148 213.035005 
L 222.141049 213.715497 
L 228.04795 215.064829 
L 233.95485 219.149778 
L 239.861751 223.567701 
L 245.768651 225.190614 
L 251.675552 222.086757 
L 257.582453 217.582807 
L 263.489353 214.49911 
L 269.396254 212.225321 
L 275.303154 208.887666 
L 281.210055 207.560068 
L 287.116955 209.64112 
L 293.023856 216.566008 
L 298.930757 224.953629 
L 304.837657 227.605387 
L 310.744558 218.952851 
L 316.651458 209.246877 
L 322.558359 204.198417 
L 334.37216 198.101148 
L 340.279061 195.775984 
L 346.185961 195.911329 
L 357.999762 196.671961 
L 363.906663 196.196666 
L 369.813563 196.959389 
L 375.720464 198.01156 
L 387.534265 199.780361 
L 393.441166 198.841287 
L 399.348066 198.505582 
L 405.254967 199.089768 
L 411.161867 197.660306 
L 417.068768 189.223473 
L 422.975669 179.651094 
L 428.882569 174.723478 
L 434.78947 175.483302 
L 440.69637 178.409897 
L 446.603271 179.160557 
L 452.510171 178.602027 
L 458.417072 179.096494 
L 464.323973 181.120815 
L 470.230873 180.884355 
L 476.137774 175.810943 
L 482.044674 169.657959 
L 487.951575 164.609409 
L 493.858475 158.974649 
L 499.765376 150.471356 
L 505.672277 139.407157 
L 511.579177 130.691229 
L 517.486078 128.800561 
L 523.392978 134.337803 
L 529.299879 140.464189 
L 535.206779 145.41572 
L 541.11368 151.607872 
L 547.020581 157.619789 
L 552.927481 157.271285 
L 558.834382 150.529076 
L 564.741282 142.466465 
L 569.436563 134.846899 
L 569.436563 134.846899 
" clip-path="url(#p3a9254db73)" style="fill: none; stroke: #8c564b; stroke-width: 1.5; stroke-linecap: square"/>
   </g>
   <g id="line2d_31">
    <path d="M -1 196.581677 
L 3.585728 200.282792 
L 9.492628 201.476766 
L 15.399529 200.615999 
L 21.30643 200.770366 
L 27.21333 202.175918 
L 33.120231 203.903129 
L 39.027131 206.679786 
L 44.934032 211.698345 
L 50.840932 218.570189 
L 56.747833 224.687237 
L 62.654734 226.321313 
L 68.561634 219.241125 
L 74.468535 205.592428 
L 80.375435 185.082881 
L 86.282336 153.692156 
L 98.096137 68.593502 
L 104.003038 40.365432 
L 109.909938 32.345398 
L 115.816839 40.551787 
L 121.723739 56.840645 
L 127.63064 71.717505 
L 133.53754 77.567323 
L 139.444441 79.316335 
L 145.351342 91.416943 
L 151.258242 116.4886 
L 157.165143 142.953357 
L 163.072043 162.109469 
L 168.978944 173.290904 
L 174.885844 180.331923 
L 180.792745 186.564177 
L 186.699646 191.59973 
L 192.606546 194.134179 
L 198.513447 195.666091 
L 204.420347 199.208007 
L 210.327248 204.585483 
L 216.234148 208.254634 
L 222.141049 208.845744 
L 228.04795 210.373299 
L 233.95485 214.004002 
L 239.861751 218.066204 
L 245.768651 219.585025 
L 251.675552 214.710914 
L 257.582453 210.729636 
L 263.489353 208.961839 
L 269.396254 206.961332 
L 275.303154 203.803032 
L 281.210055 201.679673 
L 287.116955 203.600643 
L 293.023856 210.623695 
L 298.930757 218.933406 
L 304.837657 221.984646 
L 310.744558 213.883747 
L 316.651458 204.681287 
L 322.558359 200.238435 
L 328.465259 196.774724 
L 334.37216 192.693797 
L 340.279061 190.423011 
L 352.092862 190.698644 
L 357.999762 189.858245 
L 363.906663 189.337896 
L 369.813563 190.105234 
L 381.627365 192.602016 
L 387.534265 193.185732 
L 393.441166 192.790349 
L 399.348066 192.178323 
L 405.254967 192.205858 
L 411.161867 190.455206 
L 422.975669 172.684561 
L 428.882569 168.867408 
L 434.78947 169.603626 
L 440.69637 172.130617 
L 446.603271 173.174307 
L 452.510171 173.229374 
L 458.417072 174.417864 
L 464.323973 176.552086 
L 470.230873 176.170716 
L 476.137774 171.944333 
L 482.044674 166.660759 
L 487.951575 161.801197 
L 493.858475 155.605619 
L 499.765376 146.152257 
L 505.672277 134.779434 
L 511.579177 125.34856 
L 517.486078 122.82676 
L 523.392978 127.759463 
L 529.299879 134.268322 
L 535.206779 140.111334 
L 541.11368 146.713148 
L 547.020581 152.510409 
L 552.927481 151.888981 
L 558.834382 145.223697 
L 564.741282 137.16288 
L 569.436563 129.411913 
L 569.436563 129.411913 
" clip-path="url(#p3a9254db73)" style="fill: none; stroke: #e377c2; stroke-width: 1.5; stroke-linecap: square"/>
   </g>
   <g id="line2d_32">
    <path d="M 316.341886 242.918125 
L 316.341886 22.318125 
" clip-path="url(#p3a9254db73)" style="fill: none; stroke-dasharray: 3.7,1.6; stroke-dashoffset: 0; stroke: #808080"/>
   </g>
   <g id="line2d_33">
    <path d="M 329.016795 242.918125 
L 329.016795 22.318125 
" clip-path="url(#p3a9254db73)" style="fill: none; stroke-dasharray: 3.7,1.6; stroke-dashoffset: 0; stroke: #808080"/>
   </g>
   <g id="line2d_34">
    <path d="M 91.36225 242.918125 
L 91.36225 22.318125 
" clip-path="url(#p3a9254db73)" style="fill: none; stroke-dasharray: 3.7,1.6; stroke-dashoffset: 0; stroke: #808080"/>
   </g>
   <g id="line2d_35">
    <path d="M 138.893159 242.918125 
L 138.893159 22.318125 
" clip-path="url(#p3a9254db73)" style="fill: none; stroke-dasharray: 3.7,1.6; stroke-dashoffset: 0; stroke: #808080"/>
   </g>
   <g id="patch_3">
    <path d="M 56.50625 242.918125 
L 56.50625 22.318125 
" style="fill: none; stroke: #000000; stroke-width: 0.8; stroke-linejoin: miter; stroke-linecap: square"/>
   </g>
   <g id="patch_4">
    <path d="M 405.06625 242.918125 
L 405.06625 22.318125 
" style="fill: none; stroke: #000000; stroke-width: 0.8; stroke-linejoin: miter; stroke-linecap: square"/>
   </g>
   <g id="patch_5">
    <path d="M 56.50625 242.918125 
L 405.06625 242.918125 
" style="fill: none; stroke: #000000; stroke-width: 0.8; stroke-linejoin: miter; stroke-linecap: square"/>
   </g>
   <g id="patch_6">
    <path d="M 56.50625 22.318125 
L 405.06625 22.318125 
" style="fill: none; stroke: #000000; stroke-width: 0.8; stroke-linejoin: miter; stroke-linecap: square"/>
   </g>
   <g id="text_17">
    <!-- In-situ IR spectra for C2_E5 -->
    <g transform="translate(149.248125 16.318125) scale(0.12 -0.12)">
     <defs>
      <path id="DejaVuSans-49" d="M 628 4666 
L 1259 4666 
L 1259 0 
L 628 0 
L 628 4666 
z
" transform="scale(0.015625)"/>
      <path id="DejaVuSans-2d" d="M 313 2009 
L 1997 2009 
L 1997 1497 
L 313 1497 
L 313 2009 
z
" transform="scale(0.015625)"/>
      <path id="DejaVuSans-69" d="M 603 3500 
L 1178 3500 
L 1178 0 
L 603 0 
L 603 3500 
z
M 603 4863 
L 1178 4863 
L 1178 4134 
L 603 4134 
L 603 4863 
z
" transform="scale(0.015625)"/>
      <path id="DejaVuSans-74" d="M 1172 4494 
L 1172 3500 
L 2356 3500 
L 2356 3053 
L 1172 3053 
L 1172 1153 
Q 1172 725 1289 603 
Q 1406 481 1766 481 
L 2356 481 
L 2356 0 
L 1766 0 
Q 1100 0 847 248 
Q 594 497 594 1153 
L 594 3053 
L 172 3053 
L 172 3500 
L 594 3500 
L 594 4494 
L 1172 4494 
z
" transform="scale(0.015625)"/>
      <path id="DejaVuSans-52" d="M 2841 2188 
Q 3044 2119 3236 1894 
Q 3428 1669 3622 1275 
L 4263 0 
L 3584 0 
L 2988 1197 
Q 2756 1666 2539 1819 
Q 2322 1972 1947 1972 
L 1259 1972 
L 1259 0 
L 628 0 
L 628 4666 
L 2053 4666 
Q 2853 4666 3247 4331 
Q 3641 3997 3641 3322 
Q 3641 2881 3436 2590 
Q 3231 2300 2841 2188 
z
M 1259 4147 
L 1259 2491 
L 2053 2491 
Q 2509 2491 2742 2702 
Q 2975 2913 2975 3322 
Q 2975 3731 2742 3939 
Q 2509 4147 2053 4147 
L 1259 4147 
z
" transform="scale(0.015625)"/>
      <path id="DejaVuSans-70" d="M 1159 525 
L 1159 -1331 
L 581 -1331 
L 581 3500 
L 1159 3500 
L 1159 2969 
Q 1341 3281 1617 3432 
Q 1894 3584 2278 3584 
Q 2916 3584 3314 3078 
Q 3713 2572 3713 1747 
Q 3713 922 3314 415 
Q 2916 -91 2278 -91 
Q 1894 -91 1617 61 
Q 1341 213 1159 525 
z
M 3116 1747 
Q 3116 2381 2855 2742 
Q 2594 3103 2138 3103 
Q 1681 3103 1420 2742 
Q 1159 2381 1159 1747 
Q 1159 1113 1420 752 
Q 1681 391 2138 391 
Q 2594 391 2855 752 
Q 3116 1113 3116 1747 
z
" transform="scale(0.015625)"/>
      <path id="DejaVuSans-66" d="M 2375 4863 
L 2375 4384 
L 1825 4384 
Q 1516 4384 1395 4259 
Q 1275 4134 1275 3809 
L 1275 3500 
L 2222 3500 
L 2222 3053 
L 1275 3053 
L 1275 0 
L 697 0 
L 697 3053 
L 147 3053 
L 147 3500 
L 697 3500 
L 697 3744 
Q 697 4328 969 4595 
Q 1241 4863 1831 4863 
L 2375 4863 
z
" transform="scale(0.015625)"/>
      <path id="DejaVuSans-43" d="M 4122 4306 
L 4122 3641 
Q 3803 3938 3442 4084 
Q 3081 4231 2675 4231 
Q 1875 4231 1450 3742 
Q 1025 3253 1025 2328 
Q 1025 1406 1450 917 
Q 1875 428 2675 428 
Q 3081 428 3442 575 
Q 3803 722 4122 1019 
L 4122 359 
Q 3791 134 3420 21 
Q 3050 -91 2638 -91 
Q 1578 -91 968 557 
Q 359 1206 359 2328 
Q 359 3453 968 4101 
Q 1578 4750 2638 4750 
Q 3056 4750 3426 4639 
Q 3797 4528 4122 4306 
z
" transform="scale(0.015625)"/>
      <path id="DejaVuSans-5f" d="M 3263 -1063 
L 3263 -1509 
L -63 -1509 
L -63 -1063 
L 3263 -1063 
z
" transform="scale(0.015625)"/>
      <path id="DejaVuSans-45" d="M 628 4666 
L 3578 4666 
L 3578 4134 
L 1259 4134 
L 1259 2753 
L 3481 2753 
L 3481 2222 
L 1259 2222 
L 1259 531 
L 3634 531 
L 3634 0 
L 628 0 
L 628 4666 
z
" transform="scale(0.015625)"/>
     </defs>
     <use xlink:href="#DejaVuSans-49"/>
     <use xlink:href="#DejaVuSans-6e" transform="translate(29.492188 0)"/>
     <use xlink:href="#DejaVuSans-2d" transform="translate(92.871094 0)"/>
     <use xlink:href="#DejaVuSans-73" transform="translate(128.955078 0)"/>
     <use xlink:href="#DejaVuSans-69" transform="translate(181.054688 0)"/>
     <use xlink:href="#DejaVuSans-74" transform="translate(208.837891 0)"/>
     <use xlink:href="#DejaVuSans-75" transform="translate(248.046875 0)"/>
     <use xlink:href="#DejaVuSans-20" transform="translate(311.425781 0)"/>
     <use xlink:href="#DejaVuSans-49" transform="translate(343.212891 0)"/>
     <use xlink:href="#DejaVuSans-52" transform="translate(372.705078 0)"/>
     <use xlink:href="#DejaVuSans-20" transform="translate(442.1875 0)"/>
     <use xlink:href="#DejaVuSans-73" transform="translate(473.974609 0)"/>
     <use xlink:href="#DejaVuSans-70" transform="translate(526.074219 0)"/>
     <use xlink:href="#DejaVuSans-65" transform="translate(589.550781 0)"/>
     <use xlink:href="#DejaVuSans-63" transform="translate(651.074219 0)"/>
     <use xlink:href="#DejaVuSans-74" transform="translate(706.054688 0)"/>
     <use xlink:href="#DejaVuSans-72" transform="translate(745.263672 0)"/>
     <use xlink:href="#DejaVuSans-61" transform="translate(786.376953 0)"/>
     <use xlink:href="#DejaVuSans-20" transform="translate(847.65625 0)"/>
     <use xlink:href="#DejaVuSans-66" transform="translate(879.443359 0)"/>
     <use xlink:href="#DejaVuSans-6f" transform="translate(914.648438 0)"/>
     <use xlink:href="#DejaVuSans-72" transform="translate(975.830078 0)"/>
     <use xlink:href="#DejaVuSans-20" transform="translate(1016.943359 0)"/>
     <use xlink:href="#DejaVuSans-43" transform="translate(1048.730469 0)"/>
     <use xlink:href="#DejaVuSans-32" transform="translate(1118.554688 0)"/>
     <use xlink:href="#DejaVuSans-5f" transform="translate(1182.177734 0)"/>
     <use xlink:href="#DejaVuSans-45" transform="translate(1232.177734 0)"/>
     <use xlink:href="#DejaVuSans-35" transform="translate(1295.361328 0)"/>
    </g>
   </g>
   <g id="legend_1">
    <g id="patch_7">
     <path d="M 412.06625 162.42125 
L 559.236563 162.42125 
Q 561.236563 162.42125 561.236563 160.42125 
L 561.236563 29.318125 
Q 561.236563 27.318125 559.236563 27.318125 
L 412.06625 27.318125 
Q 410.06625 27.318125 410.06625 29.318125 
L 410.06625 160.42125 
Q 410.06625 162.42125 412.06625 162.42125 
z
" style="fill: #ffffff; opacity: 0.8; stroke: #cccccc; stroke-linejoin: miter"/>
    </g>
    <g id="line2d_36">
     <path d="M 414.06625 35.416562 
L 424.06625 35.416562 
L 434.06625 35.416562 
" style="fill: none; stroke: #1f77b4; stroke-width: 1.5; stroke-linecap: square"/>
    </g>
    <g id="text_18">
     <!-- -0.02 h -->
     <g transform="translate(442.06625 38.916562) scale(0.1 -0.1)">
      <defs>
       <path id="DejaVuSans-68" d="M 3513 2113 
L 3513 0 
L 2938 0 
L 2938 2094 
Q 2938 2591 2744 2837 
Q 2550 3084 2163 3084 
Q 1697 3084 1428 2787 
Q 1159 2491 1159 1978 
L 1159 0 
L 581 0 
L 581 4863 
L 1159 4863 
L 1159 2956 
Q 1366 3272 1645 3428 
Q 1925 3584 2291 3584 
Q 2894 3584 3203 3211 
Q 3513 2838 3513 2113 
z
" transform="scale(0.015625)"/>
      </defs>
      <use xlink:href="#DejaVuSans-2d"/>
      <use xlink:href="#DejaVuSans-30" transform="translate(36.083984 0)"/>
      <use xlink:href="#DejaVuSans-2e" transform="translate(99.707031 0)"/>
      <use xlink:href="#DejaVuSans-30" transform="translate(131.494141 0)"/>
      <use xlink:href="#DejaVuSans-32" transform="translate(195.117188 0)"/>
      <use xlink:href="#DejaVuSans-20" transform="translate(258.740234 0)"/>
      <use xlink:href="#DejaVuSans-68" transform="translate(290.527344 0)"/>
     </g>
    </g>
    <g id="line2d_37">
     <path d="M 414.06625 50.094688 
L 424.06625 50.094688 
L 434.06625 50.094688 
" style="fill: none; stroke: #ff7f0e; stroke-width: 1.5; stroke-linecap: square"/>
    </g>
    <g id="text_19">
     <!-- 0.21 h -->
     <g transform="translate(442.06625 53.594688) scale(0.1 -0.1)">
      <use xlink:href="#DejaVuSans-30"/>
      <use xlink:href="#DejaVuSans-2e" transform="translate(63.623047 0)"/>
      <use xlink:href="#DejaVuSans-32" transform="translate(95.410156 0)"/>
      <use xlink:href="#DejaVuSans-31" transform="translate(159.033203 0)"/>
      <use xlink:href="#DejaVuSans-20" transform="translate(222.65625 0)"/>
      <use xlink:href="#DejaVuSans-68" transform="translate(254.443359 0)"/>
     </g>
    </g>
    <g id="line2d_38">
     <path d="M 414.06625 64.772812 
L 424.06625 64.772812 
L 434.06625 64.772812 
" style="fill: none; stroke: #2ca02c; stroke-width: 1.5; stroke-linecap: square"/>
    </g>
    <g id="text_20">
     <!-- 0.39 h -->
     <g transform="translate(442.06625 68.272812) scale(0.1 -0.1)">
      <defs>
       <path id="DejaVuSans-33" d="M 2597 2516 
Q 3050 2419 3304 2112 
Q 3559 1806 3559 1356 
Q 3559 666 3084 287 
Q 2609 -91 1734 -91 
Q 1441 -91 1130 -33 
Q 819 25 488 141 
L 488 750 
Q 750 597 1062 519 
Q 1375 441 1716 441 
Q 2309 441 2620 675 
Q 2931 909 2931 1356 
Q 2931 1769 2642 2001 
Q 2353 2234 1838 2234 
L 1294 2234 
L 1294 2753 
L 1863 2753 
Q 2328 2753 2575 2939 
Q 2822 3125 2822 3475 
Q 2822 3834 2567 4026 
Q 2313 4219 1838 4219 
Q 1578 4219 1281 4162 
Q 984 4106 628 3988 
L 628 4550 
Q 988 4650 1302 4700 
Q 1616 4750 1894 4750 
Q 2613 4750 3031 4423 
Q 3450 4097 3450 3541 
Q 3450 3153 3228 2886 
Q 3006 2619 2597 2516 
z
" transform="scale(0.015625)"/>
       <path id="DejaVuSans-39" d="M 703 97 
L 703 672 
Q 941 559 1184 500 
Q 1428 441 1663 441 
Q 2288 441 2617 861 
Q 2947 1281 2994 2138 
Q 2813 1869 2534 1725 
Q 2256 1581 1919 1581 
Q 1219 1581 811 2004 
Q 403 2428 403 3163 
Q 403 3881 828 4315 
Q 1253 4750 1959 4750 
Q 2769 4750 3195 4129 
Q 3622 3509 3622 2328 
Q 3622 1225 3098 567 
Q 2575 -91 1691 -91 
Q 1453 -91 1209 -44 
Q 966 3 703 97 
z
M 1959 2075 
Q 2384 2075 2632 2365 
Q 2881 2656 2881 3163 
Q 2881 3666 2632 3958 
Q 2384 4250 1959 4250 
Q 1534 4250 1286 3958 
Q 1038 3666 1038 3163 
Q 1038 2656 1286 2365 
Q 1534 2075 1959 2075 
z
" transform="scale(0.015625)"/>
      </defs>
      <use xlink:href="#DejaVuSans-30"/>
      <use xlink:href="#DejaVuSans-2e" transform="translate(63.623047 0)"/>
      <use xlink:href="#DejaVuSans-33" transform="translate(95.410156 0)"/>
      <use xlink:href="#DejaVuSans-39" transform="translate(159.033203 0)"/>
      <use xlink:href="#DejaVuSans-20" transform="translate(222.65625 0)"/>
      <use xlink:href="#DejaVuSans-68" transform="translate(254.443359 0)"/>
     </g>
    </g>
    <g id="line2d_39">
     <path d="M 414.06625 79.450938 
L 424.06625 79.450938 
L 434.06625 79.450938 
" style="fill: none; stroke: #d62728; stroke-width: 1.5; stroke-linecap: square"/>
    </g>
    <g id="text_21">
     <!-- 0.64 h -->
     <g transform="translate(442.06625 82.950938) scale(0.1 -0.1)">
      <use xlink:href="#DejaVuSans-30"/>
      <use xlink:href="#DejaVuSans-2e" transform="translate(63.623047 0)"/>
      <use xlink:href="#DejaVuSans-36" transform="translate(95.410156 0)"/>
      <use xlink:href="#DejaVuSans-34" transform="translate(159.033203 0)"/>
      <use xlink:href="#DejaVuSans-20" transform="translate(222.65625 0)"/>
      <use xlink:href="#DejaVuSans-68" transform="translate(254.443359 0)"/>
     </g>
    </g>
    <g id="line2d_40">
     <path d="M 414.06625 94.129063 
L 424.06625 94.129063 
L 434.06625 94.129063 
" style="fill: none; stroke: #9467bd; stroke-width: 1.5; stroke-linecap: square"/>
    </g>
    <g id="text_22">
     <!-- 2.01 h -->
     <g transform="translate(442.06625 97.629063) scale(0.1 -0.1)">
      <use xlink:href="#DejaVuSans-32"/>
      <use xlink:href="#DejaVuSans-2e" transform="translate(63.623047 0)"/>
      <use xlink:href="#DejaVuSans-30" transform="translate(95.410156 0)"/>
      <use xlink:href="#DejaVuSans-31" transform="translate(159.033203 0)"/>
      <use xlink:href="#DejaVuSans-20" transform="translate(222.65625 0)"/>
      <use xlink:href="#DejaVuSans-68" transform="translate(254.443359 0)"/>
     </g>
    </g>
    <g id="line2d_41">
     <path d="M 414.06625 108.807187 
L 424.06625 108.807187 
L 434.06625 108.807187 
" style="fill: none; stroke: #8c564b; stroke-width: 1.5; stroke-linecap: square"/>
    </g>
    <g id="text_23">
     <!-- 2.35 h -->
     <g transform="translate(442.06625 112.307187) scale(0.1 -0.1)">
      <use xlink:href="#DejaVuSans-32"/>
      <use xlink:href="#DejaVuSans-2e" transform="translate(63.623047 0)"/>
      <use xlink:href="#DejaVuSans-33" transform="translate(95.410156 0)"/>
      <use xlink:href="#DejaVuSans-35" transform="translate(159.033203 0)"/>
      <use xlink:href="#DejaVuSans-20" transform="translate(222.65625 0)"/>
      <use xlink:href="#DejaVuSans-68" transform="translate(254.443359 0)"/>
     </g>
    </g>
    <g id="line2d_42">
     <path d="M 414.06625 123.485312 
L 424.06625 123.485312 
L 434.06625 123.485312 
" style="fill: none; stroke: #e377c2; stroke-width: 1.5; stroke-linecap: square"/>
    </g>
    <g id="text_24">
     <!-- 2.43 h -->
     <g transform="translate(442.06625 126.985312) scale(0.1 -0.1)">
      <use xlink:href="#DejaVuSans-32"/>
      <use xlink:href="#DejaVuSans-2e" transform="translate(63.623047 0)"/>
      <use xlink:href="#DejaVuSans-34" transform="translate(95.410156 0)"/>
      <use xlink:href="#DejaVuSans-33" transform="translate(159.033203 0)"/>
      <use xlink:href="#DejaVuSans-20" transform="translate(222.65625 0)"/>
      <use xlink:href="#DejaVuSans-68" transform="translate(254.443359 0)"/>
     </g>
    </g>
    <g id="line2d_43">
     <path d="M 414.06625 138.163437 
L 424.06625 138.163437 
L 434.06625 138.163437 
" style="fill: none; stroke: #7f7f7f; stroke-width: 1.5; stroke-linecap: square"/>
    </g>
    <g id="text_25">
     <!-- 2.61 h -->
     <g transform="translate(442.06625 141.663437) scale(0.1 -0.1)">
      <use xlink:href="#DejaVuSans-32"/>
      <use xlink:href="#DejaVuSans-2e" transform="translate(63.623047 0)"/>
      <use xlink:href="#DejaVuSans-36" transform="translate(95.410156 0)"/>
      <use xlink:href="#DejaVuSans-31" transform="translate(159.033203 0)"/>
      <use xlink:href="#DejaVuSans-20" transform="translate(222.65625 0)"/>
      <use xlink:href="#DejaVuSans-68" transform="translate(254.443359 0)"/>
     </g>
    </g>
    <g id="line2d_44">
     <path d="M 414.06625 152.841562 
L 424.06625 152.841562 
L 434.06625 152.841562 
" style="fill: none; stroke: #bcbd22; stroke-width: 1.5; stroke-linecap: square"/>
    </g>
    <g id="text_26">
     <!-- 2.70 h -->
     <g transform="translate(442.06625 156.341562) scale(0.1 -0.1)">
      <use xlink:href="#DejaVuSans-32"/>
      <use xlink:href="#DejaVuSans-2e" transform="translate(63.623047 0)"/>
      <use xlink:href="#DejaVuSans-37" transform="translate(95.410156 0)"/>
      <use xlink:href="#DejaVuSans-30" transform="translate(159.033203 0)"/>
      <use xlink:href="#DejaVuSans-20" transform="translate(222.65625 0)"/>
      <use xlink:href="#DejaVuSans-68" transform="translate(254.443359 0)"/>
     </g>
    </g>
    <g id="line2d_45">
     <path d="M 497.455313 35.416562 
L 507.455313 35.416562 
L 517.455313 35.416562 
" style="fill: none; stroke: #17becf; stroke-width: 1.5; stroke-linecap: square"/>
    </g>
    <g id="text_27">
     <!-- 2.78 h -->
     <g transform="translate(525.455313 38.916562) scale(0.1 -0.1)">
      <use xlink:href="#DejaVuSans-32"/>
      <use xlink:href="#DejaVuSans-2e" transform="translate(63.623047 0)"/>
      <use xlink:href="#DejaVuSans-37" transform="translate(95.410156 0)"/>
      <use xlink:href="#DejaVuSans-38" transform="translate(159.033203 0)"/>
      <use xlink:href="#DejaVuSans-20" transform="translate(222.65625 0)"/>
      <use xlink:href="#DejaVuSans-68" transform="translate(254.443359 0)"/>
     </g>
    </g>
    <g id="line2d_46">
     <path d="M 497.455313 50.094688 
L 507.455313 50.094688 
L 517.455313 50.094688 
" style="fill: none; stroke: #1f77b4; stroke-width: 1.5; stroke-linecap: square"/>
    </g>
    <g id="text_28">
     <!-- 3.04 h -->
     <g transform="translate(525.455313 53.594688) scale(0.1 -0.1)">
      <use xlink:href="#DejaVuSans-33"/>
      <use xlink:href="#DejaVuSans-2e" transform="translate(63.623047 0)"/>
      <use xlink:href="#DejaVuSans-30" transform="translate(95.410156 0)"/>
      <use xlink:href="#DejaVuSans-34" transform="translate(159.033203 0)"/>
      <use xlink:href="#DejaVuSans-20" transform="translate(222.65625 0)"/>
      <use xlink:href="#DejaVuSans-68" transform="translate(254.443359 0)"/>
     </g>
    </g>
    <g id="line2d_47">
     <path d="M 497.455313 64.772812 
L 507.455313 64.772812 
L 517.455313 64.772812 
" style="fill: none; stroke: #ff7f0e; stroke-width: 1.5; stroke-linecap: square"/>
    </g>
    <g id="text_29">
     <!-- 3.27 h -->
     <g transform="translate(525.455313 68.272812) scale(0.1 -0.1)">
      <use xlink:href="#DejaVuSans-33"/>
      <use xlink:href="#DejaVuSans-2e" transform="translate(63.623047 0)"/>
      <use xlink:href="#DejaVuSans-32" transform="translate(95.410156 0)"/>
      <use xlink:href="#DejaVuSans-37" transform="translate(159.033203 0)"/>
      <use xlink:href="#DejaVuSans-20" transform="translate(222.65625 0)"/>
      <use xlink:href="#DejaVuSans-68" transform="translate(254.443359 0)"/>
     </g>
    </g>
    <g id="line2d_48">
     <path d="M 497.455313 79.450938 
L 507.455313 79.450938 
L 517.455313 79.450938 
" style="fill: none; stroke: #2ca02c; stroke-width: 1.5; stroke-linecap: square"/>
    </g>
    <g id="text_30">
     <!-- 3.40 h -->
     <g transform="translate(525.455313 82.950938) scale(0.1 -0.1)">
      <use xlink:href="#DejaVuSans-33"/>
      <use xlink:href="#DejaVuSans-2e" transform="translate(63.623047 0)"/>
      <use xlink:href="#DejaVuSans-34" transform="translate(95.410156 0)"/>
      <use xlink:href="#DejaVuSans-30" transform="translate(159.033203 0)"/>
      <use xlink:href="#DejaVuSans-20" transform="translate(222.65625 0)"/>
      <use xlink:href="#DejaVuSans-68" transform="translate(254.443359 0)"/>
     </g>
    </g>
    <g id="line2d_49">
     <path d="M 497.455313 94.129063 
L 507.455313 94.129063 
L 517.455313 94.129063 
" style="fill: none; stroke: #d62728; stroke-width: 1.5; stroke-linecap: square"/>
    </g>
    <g id="text_31">
     <!-- 4.44 h -->
     <g transform="translate(525.455313 97.629063) scale(0.1 -0.1)">
      <use xlink:href="#DejaVuSans-34"/>
      <use xlink:href="#DejaVuSans-2e" transform="translate(63.623047 0)"/>
      <use xlink:href="#DejaVuSans-34" transform="translate(95.410156 0)"/>
      <use xlink:href="#DejaVuSans-34" transform="translate(159.033203 0)"/>
      <use xlink:href="#DejaVuSans-20" transform="translate(222.65625 0)"/>
      <use xlink:href="#DejaVuSans-68" transform="translate(254.443359 0)"/>
     </g>
    </g>
    <g id="line2d_50">
     <path d="M 497.455313 108.807187 
L 507.455313 108.807187 
L 517.455313 108.807187 
" style="fill: none; stroke: #9467bd; stroke-width: 1.5; stroke-linecap: square"/>
    </g>
    <g id="text_32">
     <!-- 4.67 h -->
     <g transform="translate(525.455313 112.307187) scale(0.1 -0.1)">
      <use xlink:href="#DejaVuSans-34"/>
      <use xlink:href="#DejaVuSans-2e" transform="translate(63.623047 0)"/>
      <use xlink:href="#DejaVuSans-36" transform="translate(95.410156 0)"/>
      <use xlink:href="#DejaVuSans-37" transform="translate(159.033203 0)"/>
      <use xlink:href="#DejaVuSans-20" transform="translate(222.65625 0)"/>
      <use xlink:href="#DejaVuSans-68" transform="translate(254.443359 0)"/>
     </g>
    </g>
    <g id="line2d_51">
     <path d="M 497.455313 123.485312 
L 507.455313 123.485312 
L 517.455313 123.485312 
" style="fill: none; stroke: #8c564b; stroke-width: 1.5; stroke-linecap: square"/>
    </g>
    <g id="text_33">
     <!-- 4.93 h -->
     <g transform="translate(525.455313 126.985312) scale(0.1 -0.1)">
      <use xlink:href="#DejaVuSans-34"/>
      <use xlink:href="#DejaVuSans-2e" transform="translate(63.623047 0)"/>
      <use xlink:href="#DejaVuSans-39" transform="translate(95.410156 0)"/>
      <use xlink:href="#DejaVuSans-33" transform="translate(159.033203 0)"/>
      <use xlink:href="#DejaVuSans-20" transform="translate(222.65625 0)"/>
      <use xlink:href="#DejaVuSans-68" transform="translate(254.443359 0)"/>
     </g>
    </g>
    <g id="line2d_52">
     <path d="M 497.455313 138.163437 
L 507.455313 138.163437 
L 517.455313 138.163437 
" style="fill: none; stroke: #e377c2; stroke-width: 1.5; stroke-linecap: square"/>
    </g>
    <g id="text_34">
     <!-- 5.27 h -->
     <g transform="translate(525.455313 141.663437) scale(0.1 -0.1)">
      <use xlink:href="#DejaVuSans-35"/>
      <use xlink:href="#DejaVuSans-2e" transform="translate(63.623047 0)"/>
      <use xlink:href="#DejaVuSans-32" transform="translate(95.410156 0)"/>
      <use xlink:href="#DejaVuSans-37" transform="translate(159.033203 0)"/>
      <use xlink:href="#DejaVuSans-20" transform="translate(222.65625 0)"/>
      <use xlink:href="#DejaVuSans-68" transform="translate(254.443359 0)"/>
     </g>
    </g>
   </g>
  </g>
 </g>
 <defs>
  <clipPath id="p3a9254db73">
   <rect x="56.50625" y="22.318125" width="348.56" height="220.6"/>
  </clipPath>
 </defs>
</svg>
