<?xml version="1.0" encoding="utf-8" standalone="no"?>
<!DOCTYPE svg PUBLIC "-//W3C//DTD SVG 1.1//EN"
  "http://www.w3.org/Graphics/SVG/1.1/DTD/svg11.dtd">
<svg xmlns:xlink="http://www.w3.org/1999/xlink" width="568.36375pt" height="280.474375pt" viewBox="0 0 568.36375 280.474375" xmlns="http://www.w3.org/2000/svg" version="1.1">
 <metadata>
  <rdf:RDF xmlns:dc="http://purl.org/dc/elements/1.1/" xmlns:cc="http://creativecommons.org/ns#" xmlns:rdf="http://www.w3.org/1999/02/22-rdf-syntax-ns#">
   <cc:Work>
    <dc:type rdf:resource="http://purl.org/dc/dcmitype/StillImage"/>
    <dc:date>2026-01-13T16:26:16.813003</dc:date>
    <dc:format>image/svg+xml</dc:format>
    <dc:creator>
     <cc:Agent>
      <dc:title>Matplotlib v3.10.0, https://matplotlib.org/</dc:title>
     </cc:Agent>
    </dc:creator>
   </cc:Work>
  </rdf:RDF>
 </metadata>
 <defs>
  <style type="text/css">*{stroke-linejoin: round; stroke-linecap: butt}</style>
 </defs>
 <g id="figure_1">
  <g id="patch_1">
   <path d="M 0 280.474375 
L 568.36375 280.474375 
L 568.36375 0 
L 0 0 
z
" style="fill: #ffffff"/>
  </g>
  <g id="axes_1">
   <g id="patch_2">
    <path d="M 43.78125 242.918125 
L 469.50125 242.918125 
L 469.50125 22.318125 
L 43.78125 22.318125 
z
" style="fill: #ffffff"/>
   </g>
   <g id="matplotlib.axis_1">
    <g id="xtick_1">
     <g id="line2d_1">
      <defs>
       <path id="m774af89235" d="M 0 0 
L 0 3.5 
" style="stroke: #000000; stroke-width: 0.8"/>
      </defs>
      <g>
       <use xlink:href="#m774af89235" x="433.010964" y="242.918125" style="stroke: #000000; stroke-width: 0.8"/>
      </g>
     </g>
     <g id="text_1">
      <!-- 1200 -->
      <g transform="translate(420.285964 257.516563) scale(0.1 -0.1)">
       <defs>
        <path id="DejaVuSans-31" d="M 794 531 
L 1825 531 
L 1825 4091 
L 703 3866 
L 703 4441 
L 1819 4666 
L 2450 4666 
L 2450 531 
L 3481 531 
L 3481 0 
L 794 0 
L 794 531 
z
" transform="scale(0.015625)"/>
        <path id="DejaVuSans-32" d="M 1228 531 
L 3431 531 
L 3431 0 
L 469 0 
L 469 531 
Q 828 903 1448 1529 
Q 2069 2156 2228 2338 
Q 2531 2678 2651 2914 
Q 2772 3150 2772 3378 
Q 2772 3750 2511 3984 
Q 2250 4219 1831 4219 
Q 1534 4219 1204 4116 
Q 875 4013 500 3803 
L 500 4441 
Q 881 4594 1212 4672 
Q 1544 4750 1819 4750 
Q 2544 4750 2975 4387 
Q 3406 4025 3406 3419 
Q 3406 3131 3298 2873 
Q 3191 2616 2906 2266 
Q 2828 2175 2409 1742 
Q 1991 1309 1228 531 
z
" transform="scale(0.015625)"/>
        <path id="DejaVuSans-30" d="M 2034 4250 
Q 1547 4250 1301 3770 
Q 1056 3291 1056 2328 
Q 1056 1369 1301 889 
Q 1547 409 2034 409 
Q 2525 409 2770 889 
Q 3016 1369 3016 2328 
Q 3016 3291 2770 3770 
Q 2525 4250 2034 4250 
z
M 2034 4750 
Q 2819 4750 3233 4129 
Q 3647 3509 3647 2328 
Q 3647 1150 3233 529 
Q 2819 -91 2034 -91 
Q 1250 -91 836 529 
Q 422 1150 422 2328 
Q 422 3509 836 4129 
Q 1250 4750 2034 4750 
z
" transform="scale(0.015625)"/>
       </defs>
       <use xlink:href="#DejaVuSans-31"/>
       <use xlink:href="#DejaVuSans-32" transform="translate(63.623047 0)"/>
       <use xlink:href="#DejaVuSans-30" transform="translate(127.246094 0)"/>
       <use xlink:href="#DejaVuSans-30" transform="translate(190.869141 0)"/>
      </g>
     </g>
    </g>
    <g id="xtick_2">
     <g id="line2d_2">
      <g>
       <use xlink:href="#m774af89235" x="372.193821" y="242.918125" style="stroke: #000000; stroke-width: 0.8"/>
      </g>
     </g>
     <g id="text_2">
      <!-- 1250 -->
      <g transform="translate(359.468821 257.516563) scale(0.1 -0.1)">
       <defs>
        <path id="DejaVuSans-35" d="M 691 4666 
L 3169 4666 
L 3169 4134 
L 1269 4134 
L 1269 2991 
Q 1406 3038 1543 3061 
Q 1681 3084 1819 3084 
Q 2600 3084 3056 2656 
Q 3513 2228 3513 1497 
Q 3513 744 3044 326 
Q 2575 -91 1722 -91 
Q 1428 -91 1123 -41 
Q 819 9 494 109 
L 494 744 
Q 775 591 1075 516 
Q 1375 441 1709 441 
Q 2250 441 2565 725 
Q 2881 1009 2881 1497 
Q 2881 1984 2565 2268 
Q 2250 2553 1709 2553 
Q 1456 2553 1204 2497 
Q 953 2441 691 2322 
L 691 4666 
z
" transform="scale(0.015625)"/>
       </defs>
       <use xlink:href="#DejaVuSans-31"/>
       <use xlink:href="#DejaVuSans-32" transform="translate(63.623047 0)"/>
       <use xlink:href="#DejaVuSans-35" transform="translate(127.246094 0)"/>
       <use xlink:href="#DejaVuSans-30" transform="translate(190.869141 0)"/>
      </g>
     </g>
    </g>
    <g id="xtick_3">
     <g id="line2d_3">
      <g>
       <use xlink:href="#m774af89235" x="311.376679" y="242.918125" style="stroke: #000000; stroke-width: 0.8"/>
      </g>
     </g>
     <g id="text_3">
      <!-- 1300 -->
      <g transform="translate(298.651679 257.516563) scale(0.1 -0.1)">
       <defs>
        <path id="DejaVuSans-33" d="M 2597 2516 
Q 3050 2419 3304 2112 
Q 3559 1806 3559 1356 
Q 3559 666 3084 287 
Q 2609 -91 1734 -91 
Q 1441 -91 1130 -33 
Q 819 25 488 141 
L 488 750 
Q 750 597 1062 519 
Q 1375 441 1716 441 
Q 2309 441 2620 675 
Q 2931 909 2931 1356 
Q 2931 1769 2642 2001 
Q 2353 2234 1838 2234 
L 1294 2234 
L 1294 2753 
L 1863 2753 
Q 2328 2753 2575 2939 
Q 2822 3125 2822 3475 
Q 2822 3834 2567 4026 
Q 2313 4219 1838 4219 
Q 1578 4219 1281 4162 
Q 984 4106 628 3988 
L 628 4550 
Q 988 4650 1302 4700 
Q 1616 4750 1894 4750 
Q 2613 4750 3031 4423 
Q 3450 4097 3450 3541 
Q 3450 3153 3228 2886 
Q 3006 2619 2597 2516 
z
" transform="scale(0.015625)"/>
       </defs>
       <use xlink:href="#DejaVuSans-31"/>
       <use xlink:href="#DejaVuSans-33" transform="translate(63.623047 0)"/>
       <use xlink:href="#DejaVuSans-30" transform="translate(127.246094 0)"/>
       <use xlink:href="#DejaVuSans-30" transform="translate(190.869141 0)"/>
      </g>
     </g>
    </g>
    <g id="xtick_4">
     <g id="line2d_4">
      <g>
       <use xlink:href="#m774af89235" x="250.559536" y="242.918125" style="stroke: #000000; stroke-width: 0.8"/>
      </g>
     </g>
     <g id="text_4">
      <!-- 1350 -->
      <g transform="translate(237.834536 257.516563) scale(0.1 -0.1)">
       <use xlink:href="#DejaVuSans-31"/>
       <use xlink:href="#DejaVuSans-33" transform="translate(63.623047 0)"/>
       <use xlink:href="#DejaVuSans-35" transform="translate(127.246094 0)"/>
       <use xlink:href="#DejaVuSans-30" transform="translate(190.869141 0)"/>
      </g>
     </g>
    </g>
    <g id="xtick_5">
     <g id="line2d_5">
      <g>
       <use xlink:href="#m774af89235" x="189.742393" y="242.918125" style="stroke: #000000; stroke-width: 0.8"/>
      </g>
     </g>
     <g id="text_5">
      <!-- 1400 -->
      <g transform="translate(177.017393 257.516563) scale(0.1 -0.1)">
       <defs>
        <path id="DejaVuSans-34" d="M 2419 4116 
L 825 1625 
L 2419 1625 
L 2419 4116 
z
M 2253 4666 
L 3047 4666 
L 3047 1625 
L 3713 1625 
L 3713 1100 
L 3047 1100 
L 3047 0 
L 2419 0 
L 2419 1100 
L 313 1100 
L 313 1709 
L 2253 4666 
z
" transform="scale(0.015625)"/>
       </defs>
       <use xlink:href="#DejaVuSans-31"/>
       <use xlink:href="#DejaVuSans-34" transform="translate(63.623047 0)"/>
       <use xlink:href="#DejaVuSans-30" transform="translate(127.246094 0)"/>
       <use xlink:href="#DejaVuSans-30" transform="translate(190.869141 0)"/>
      </g>
     </g>
    </g>
    <g id="xtick_6">
     <g id="line2d_6">
      <g>
       <use xlink:href="#m774af89235" x="128.92525" y="242.918125" style="stroke: #000000; stroke-width: 0.8"/>
      </g>
     </g>
     <g id="text_6">
      <!-- 1450 -->
      <g transform="translate(116.20025 257.516563) scale(0.1 -0.1)">
       <use xlink:href="#DejaVuSans-31"/>
       <use xlink:href="#DejaVuSans-34" transform="translate(63.623047 0)"/>
       <use xlink:href="#DejaVuSans-35" transform="translate(127.246094 0)"/>
       <use xlink:href="#DejaVuSans-30" transform="translate(190.869141 0)"/>
      </g>
     </g>
    </g>
    <g id="xtick_7">
     <g id="line2d_7">
      <g>
       <use xlink:href="#m774af89235" x="68.108107" y="242.918125" style="stroke: #000000; stroke-width: 0.8"/>
      </g>
     </g>
     <g id="text_7">
      <!-- 1500 -->
      <g transform="translate(55.383107 257.516563) scale(0.1 -0.1)">
       <use xlink:href="#DejaVuSans-31"/>
       <use xlink:href="#DejaVuSans-35" transform="translate(63.623047 0)"/>
       <use xlink:href="#DejaVuSans-30" transform="translate(127.246094 0)"/>
       <use xlink:href="#DejaVuSans-30" transform="translate(190.869141 0)"/>
      </g>
     </g>
    </g>
    <g id="text_8">
     <!-- Wavenumber (cm⁻¹) -->
     <g transform="translate(205.648281 271.194687) scale(0.1 -0.1)">
      <defs>
       <path id="DejaVuSans-57" d="M 213 4666 
L 850 4666 
L 1831 722 
L 2809 4666 
L 3519 4666 
L 4500 722 
L 5478 4666 
L 6119 4666 
L 4947 0 
L 4153 0 
L 3169 4050 
L 2175 0 
L 1381 0 
L 213 4666 
z
" transform="scale(0.015625)"/>
       <path id="DejaVuSans-61" d="M 2194 1759 
Q 1497 1759 1228 1600 
Q 959 1441 959 1056 
Q 959 750 1161 570 
Q 1363 391 1709 391 
Q 2188 391 2477 730 
Q 2766 1069 2766 1631 
L 2766 1759 
L 2194 1759 
z
M 3341 1997 
L 3341 0 
L 2766 0 
L 2766 531 
Q 2569 213 2275 61 
Q 1981 -91 1556 -91 
Q 1019 -91 701 211 
Q 384 513 384 1019 
Q 384 1609 779 1909 
Q 1175 2209 1959 2209 
L 2766 2209 
L 2766 2266 
Q 2766 2663 2505 2880 
Q 2244 3097 1772 3097 
Q 1472 3097 1187 3025 
Q 903 2953 641 2809 
L 641 3341 
Q 956 3463 1253 3523 
Q 1550 3584 1831 3584 
Q 2591 3584 2966 3190 
Q 3341 2797 3341 1997 
z
" transform="scale(0.015625)"/>
       <path id="DejaVuSans-76" d="M 191 3500 
L 800 3500 
L 1894 563 
L 2988 3500 
L 3597 3500 
L 2284 0 
L 1503 0 
L 191 3500 
z
" transform="scale(0.015625)"/>
       <path id="DejaVuSans-65" d="M 3597 1894 
L 3597 1613 
L 953 1613 
Q 991 1019 1311 708 
Q 1631 397 2203 397 
Q 2534 397 2845 478 
Q 3156 559 3463 722 
L 3463 178 
Q 3153 47 2828 -22 
Q 2503 -91 2169 -91 
Q 1331 -91 842 396 
Q 353 884 353 1716 
Q 353 2575 817 3079 
Q 1281 3584 2069 3584 
Q 2775 3584 3186 3129 
Q 3597 2675 3597 1894 
z
M 3022 2063 
Q 3016 2534 2758 2815 
Q 2500 3097 2075 3097 
Q 1594 3097 1305 2825 
Q 1016 2553 972 2059 
L 3022 2063 
z
" transform="scale(0.015625)"/>
       <path id="DejaVuSans-6e" d="M 3513 2113 
L 3513 0 
L 2938 0 
L 2938 2094 
Q 2938 2591 2744 2837 
Q 2550 3084 2163 3084 
Q 1697 3084 1428 2787 
Q 1159 2491 1159 1978 
L 1159 0 
L 581 0 
L 581 3500 
L 1159 3500 
L 1159 2956 
Q 1366 3272 1645 3428 
Q 1925 3584 2291 3584 
Q 2894 3584 3203 3211 
Q 3513 2838 3513 2113 
z
" transform="scale(0.015625)"/>
       <path id="DejaVuSans-75" d="M 544 1381 
L 544 3500 
L 1119 3500 
L 1119 1403 
Q 1119 906 1312 657 
Q 1506 409 1894 409 
Q 2359 409 2629 706 
Q 2900 1003 2900 1516 
L 2900 3500 
L 3475 3500 
L 3475 0 
L 2900 0 
L 2900 538 
Q 2691 219 2414 64 
Q 2138 -91 1772 -91 
Q 1169 -91 856 284 
Q 544 659 544 1381 
z
M 1991 3584 
L 1991 3584 
z
" transform="scale(0.015625)"/>
       <path id="DejaVuSans-6d" d="M 3328 2828 
Q 3544 3216 3844 3400 
Q 4144 3584 4550 3584 
Q 5097 3584 5394 3201 
Q 5691 2819 5691 2113 
L 5691 0 
L 5113 0 
L 5113 2094 
Q 5113 2597 4934 2840 
Q 4756 3084 4391 3084 
Q 3944 3084 3684 2787 
Q 3425 2491 3425 1978 
L 3425 0 
L 2847 0 
L 2847 2094 
Q 2847 2600 2669 2842 
Q 2491 3084 2119 3084 
Q 1678 3084 1418 2786 
Q 1159 2488 1159 1978 
L 1159 0 
L 581 0 
L 581 3500 
L 1159 3500 
L 1159 2956 
Q 1356 3278 1631 3431 
Q 1906 3584 2284 3584 
Q 2666 3584 2933 3390 
Q 3200 3197 3328 2828 
z
" transform="scale(0.015625)"/>
       <path id="DejaVuSans-62" d="M 3116 1747 
Q 3116 2381 2855 2742 
Q 2594 3103 2138 3103 
Q 1681 3103 1420 2742 
Q 1159 2381 1159 1747 
Q 1159 1113 1420 752 
Q 1681 391 2138 391 
Q 2594 391 2855 752 
Q 3116 1113 3116 1747 
z
M 1159 2969 
Q 1341 3281 1617 3432 
Q 1894 3584 2278 3584 
Q 2916 3584 3314 3078 
Q 3713 2572 3713 1747 
Q 3713 922 3314 415 
Q 2916 -91 2278 -91 
Q 1894 -91 1617 61 
Q 1341 213 1159 525 
L 1159 0 
L 581 0 
L 581 4863 
L 1159 4863 
L 1159 2969 
z
" transform="scale(0.015625)"/>
       <path id="DejaVuSans-72" d="M 2631 2963 
Q 2534 3019 2420 3045 
Q 2306 3072 2169 3072 
Q 1681 3072 1420 2755 
Q 1159 2438 1159 1844 
L 1159 0 
L 581 0 
L 581 3500 
L 1159 3500 
L 1159 2956 
Q 1341 3275 1631 3429 
Q 1922 3584 2338 3584 
Q 2397 3584 2469 3576 
Q 2541 3569 2628 3553 
L 2631 2963 
z
" transform="scale(0.015625)"/>
       <path id="DejaVuSans-20" transform="scale(0.015625)"/>
       <path id="DejaVuSans-28" d="M 1984 4856 
Q 1566 4138 1362 3434 
Q 1159 2731 1159 2009 
Q 1159 1288 1364 580 
Q 1569 -128 1984 -844 
L 1484 -844 
Q 1016 -109 783 600 
Q 550 1309 550 2009 
Q 550 2706 781 3412 
Q 1013 4119 1484 4856 
L 1984 4856 
z
" transform="scale(0.015625)"/>
       <path id="DejaVuSans-63" d="M 3122 3366 
L 3122 2828 
Q 2878 2963 2633 3030 
Q 2388 3097 2138 3097 
Q 1578 3097 1268 2742 
Q 959 2388 959 1747 
Q 959 1106 1268 751 
Q 1578 397 2138 397 
Q 2388 397 2633 464 
Q 2878 531 3122 666 
L 3122 134 
Q 2881 22 2623 -34 
Q 2366 -91 2075 -91 
Q 1284 -91 818 406 
Q 353 903 353 1747 
Q 353 2603 823 3093 
Q 1294 3584 2113 3584 
Q 2378 3584 2631 3529 
Q 2884 3475 3122 3366 
z
" transform="scale(0.015625)"/>
       <path id="DejaVuSans-207b" d="M 428 3359 
L 2950 3359 
L 2950 3063 
L 428 3063 
L 428 3359 
z
" transform="scale(0.015625)"/>
       <path id="DejaVuSans-b9" d="M 488 2431 
L 1125 2431 
L 1125 4341 
L 428 4213 
L 428 4575 
L 1147 4697 
L 1575 4697 
L 1575 2431 
L 2216 2431 
L 2216 2088 
L 488 2088 
L 488 2431 
z
" transform="scale(0.015625)"/>
       <path id="DejaVuSans-29" d="M 513 4856 
L 1013 4856 
Q 1481 4119 1714 3412 
Q 1947 2706 1947 2009 
Q 1947 1309 1714 600 
Q 1481 -109 1013 -844 
L 513 -844 
Q 928 -128 1133 580 
Q 1338 1288 1338 2009 
Q 1338 2731 1133 3434 
Q 928 4138 513 4856 
z
" transform="scale(0.015625)"/>
      </defs>
      <use xlink:href="#DejaVuSans-57"/>
      <use xlink:href="#DejaVuSans-61" transform="translate(92.501953 0)"/>
      <use xlink:href="#DejaVuSans-76" transform="translate(153.78125 0)"/>
      <use xlink:href="#DejaVuSans-65" transform="translate(212.960938 0)"/>
      <use xlink:href="#DejaVuSans-6e" transform="translate(274.484375 0)"/>
      <use xlink:href="#DejaVuSans-75" transform="translate(337.863281 0)"/>
      <use xlink:href="#DejaVuSans-6d" transform="translate(401.242188 0)"/>
      <use xlink:href="#DejaVuSans-62" transform="translate(498.654297 0)"/>
      <use xlink:href="#DejaVuSans-65" transform="translate(562.130859 0)"/>
      <use xlink:href="#DejaVuSans-72" transform="translate(623.654297 0)"/>
      <use xlink:href="#DejaVuSans-20" transform="translate(664.767578 0)"/>
      <use xlink:href="#DejaVuSans-28" transform="translate(696.554688 0)"/>
      <use xlink:href="#DejaVuSans-63" transform="translate(735.568359 0)"/>
      <use xlink:href="#DejaVuSans-6d" transform="translate(790.548828 0)"/>
      <use xlink:href="#DejaVuSans-207b" transform="translate(887.960938 0)"/>
      <use xlink:href="#DejaVuSans-b9" transform="translate(940.744141 0)"/>
      <use xlink:href="#DejaVuSans-29" transform="translate(980.832031 0)"/>
     </g>
    </g>
   </g>
   <g id="matplotlib.axis_2">
    <g id="ytick_1">
     <g id="line2d_8">
      <defs>
       <path id="md602c052e5" d="M 0 0 
L -3.5 0 
" style="stroke: #000000; stroke-width: 0.8"/>
      </defs>
      <g>
       <use xlink:href="#md602c052e5" x="43.78125" y="211.39057" style="stroke: #000000; stroke-width: 0.8"/>
      </g>
     </g>
     <g id="text_9">
      <!-- 0.1 -->
      <g transform="translate(20.878125 215.189788) scale(0.1 -0.1)">
       <defs>
        <path id="DejaVuSans-2e" d="M 684 794 
L 1344 794 
L 1344 0 
L 684 0 
L 684 794 
z
" transform="scale(0.015625)"/>
       </defs>
       <use xlink:href="#DejaVuSans-30"/>
       <use xlink:href="#DejaVuSans-2e" transform="translate(63.623047 0)"/>
       <use xlink:href="#DejaVuSans-31" transform="translate(95.410156 0)"/>
      </g>
     </g>
    </g>
    <g id="ytick_2">
     <g id="line2d_9">
      <g>
       <use xlink:href="#md602c052e5" x="43.78125" y="168.864134" style="stroke: #000000; stroke-width: 0.8"/>
      </g>
     </g>
     <g id="text_10">
      <!-- 0.2 -->
      <g transform="translate(20.878125 172.663353) scale(0.1 -0.1)">
       <use xlink:href="#DejaVuSans-30"/>
       <use xlink:href="#DejaVuSans-2e" transform="translate(63.623047 0)"/>
       <use xlink:href="#DejaVuSans-32" transform="translate(95.410156 0)"/>
      </g>
     </g>
    </g>
    <g id="ytick_3">
     <g id="line2d_10">
      <g>
       <use xlink:href="#md602c052e5" x="43.78125" y="126.337698" style="stroke: #000000; stroke-width: 0.8"/>
      </g>
     </g>
     <g id="text_11">
      <!-- 0.3 -->
      <g transform="translate(20.878125 130.136917) scale(0.1 -0.1)">
       <use xlink:href="#DejaVuSans-30"/>
       <use xlink:href="#DejaVuSans-2e" transform="translate(63.623047 0)"/>
       <use xlink:href="#DejaVuSans-33" transform="translate(95.410156 0)"/>
      </g>
     </g>
    </g>
    <g id="ytick_4">
     <g id="line2d_11">
      <g>
       <use xlink:href="#md602c052e5" x="43.78125" y="83.811263" style="stroke: #000000; stroke-width: 0.8"/>
      </g>
     </g>
     <g id="text_12">
      <!-- 0.4 -->
      <g transform="translate(20.878125 87.610482) scale(0.1 -0.1)">
       <use xlink:href="#DejaVuSans-30"/>
       <use xlink:href="#DejaVuSans-2e" transform="translate(63.623047 0)"/>
       <use xlink:href="#DejaVuSans-34" transform="translate(95.410156 0)"/>
      </g>
     </g>
    </g>
    <g id="ytick_5">
     <g id="line2d_12">
      <g>
       <use xlink:href="#md602c052e5" x="43.78125" y="41.284827" style="stroke: #000000; stroke-width: 0.8"/>
      </g>
     </g>
     <g id="text_13">
      <!-- 0.5 -->
      <g transform="translate(20.878125 45.084046) scale(0.1 -0.1)">
       <use xlink:href="#DejaVuSans-30"/>
       <use xlink:href="#DejaVuSans-2e" transform="translate(63.623047 0)"/>
       <use xlink:href="#DejaVuSans-35" transform="translate(95.410156 0)"/>
      </g>
     </g>
    </g>
    <g id="text_14">
     <!-- Absorbance -->
     <g transform="translate(14.798438 162.165) rotate(-90) scale(0.1 -0.1)">
      <defs>
       <path id="DejaVuSans-41" d="M 2188 4044 
L 1331 1722 
L 3047 1722 
L 2188 4044 
z
M 1831 4666 
L 2547 4666 
L 4325 0 
L 3669 0 
L 3244 1197 
L 1141 1197 
L 716 0 
L 50 0 
L 1831 4666 
z
" transform="scale(0.015625)"/>
       <path id="DejaVuSans-73" d="M 2834 3397 
L 2834 2853 
Q 2591 2978 2328 3040 
Q 2066 3103 1784 3103 
Q 1356 3103 1142 2972 
Q 928 2841 928 2578 
Q 928 2378 1081 2264 
Q 1234 2150 1697 2047 
L 1894 2003 
Q 2506 1872 2764 1633 
Q 3022 1394 3022 966 
Q 3022 478 2636 193 
Q 2250 -91 1575 -91 
Q 1294 -91 989 -36 
Q 684 19 347 128 
L 347 722 
Q 666 556 975 473 
Q 1284 391 1588 391 
Q 1994 391 2212 530 
Q 2431 669 2431 922 
Q 2431 1156 2273 1281 
Q 2116 1406 1581 1522 
L 1381 1569 
Q 847 1681 609 1914 
Q 372 2147 372 2553 
Q 372 3047 722 3315 
Q 1072 3584 1716 3584 
Q 2034 3584 2315 3537 
Q 2597 3491 2834 3397 
z
" transform="scale(0.015625)"/>
       <path id="DejaVuSans-6f" d="M 1959 3097 
Q 1497 3097 1228 2736 
Q 959 2375 959 1747 
Q 959 1119 1226 758 
Q 1494 397 1959 397 
Q 2419 397 2687 759 
Q 2956 1122 2956 1747 
Q 2956 2369 2687 2733 
Q 2419 3097 1959 3097 
z
M 1959 3584 
Q 2709 3584 3137 3096 
Q 3566 2609 3566 1747 
Q 3566 888 3137 398 
Q 2709 -91 1959 -91 
Q 1206 -91 779 398 
Q 353 888 353 1747 
Q 353 2609 779 3096 
Q 1206 3584 1959 3584 
z
" transform="scale(0.015625)"/>
      </defs>
      <use xlink:href="#DejaVuSans-41"/>
      <use xlink:href="#DejaVuSans-62" transform="translate(68.408203 0)"/>
      <use xlink:href="#DejaVuSans-73" transform="translate(131.884766 0)"/>
      <use xlink:href="#DejaVuSans-6f" transform="translate(183.984375 0)"/>
      <use xlink:href="#DejaVuSans-72" transform="translate(245.166016 0)"/>
      <use xlink:href="#DejaVuSans-62" transform="translate(286.279297 0)"/>
      <use xlink:href="#DejaVuSans-61" transform="translate(349.755859 0)"/>
      <use xlink:href="#DejaVuSans-6e" transform="translate(411.035156 0)"/>
      <use xlink:href="#DejaVuSans-63" transform="translate(474.414062 0)"/>
      <use xlink:href="#DejaVuSans-65" transform="translate(529.394531 0)"/>
     </g>
    </g>
   </g>
   <g id="line2d_13">
    <path d="M -1 232.489618 
L -0.668229 232.35952 
L 1.599185 232.058088 
L 3.866599 230.962132 
L 6.134013 229.027514 
L 8.401427 226.206807 
L 10.668841 223.203263 
L 12.936255 219.159012 
L 15.203669 213.843054 
L 19.738496 202.220112 
L 22.00591 200.035056 
L 24.273324 201.734766 
L 26.540738 205.902603 
L 31.075566 215.63472 
L 33.34298 220.178225 
L 35.610394 223.896426 
L 37.877808 226.30879 
L 40.145222 228.315891 
L 42.412636 229.432931 
L 46.947463 230.163587 
L 49.214877 229.836047 
L 53.749705 229.816459 
L 58.284533 230.247795 
L 62.819361 228.000745 
L 65.086775 227.499513 
L 67.354189 226.513297 
L 69.621603 224.918956 
L 71.889017 222.297069 
L 74.15643 218.960549 
L 76.423844 216.075013 
L 78.691258 212.958037 
L 80.958672 209.118029 
L 83.226086 205.519479 
L 85.4935 203.260404 
L 87.760914 203.431935 
L 90.028328 206.003882 
L 92.295742 209.267736 
L 94.563156 212.152106 
L 96.83057 214.169818 
L 99.097984 215.938267 
L 101.365398 216.738472 
L 103.632811 216.0146 
L 105.900225 214.874929 
L 108.167639 214.037637 
L 110.435053 213.063857 
L 112.702467 211.543667 
L 114.969881 209.552201 
L 117.237295 207.024908 
L 119.504709 203.048679 
L 121.772123 197.881407 
L 124.039537 193.099104 
L 126.306951 186.700153 
L 128.574365 178.519899 
L 130.841778 167.259817 
L 133.109192 152.255848 
L 135.376606 133.058917 
L 137.64402 109.072394 
L 139.911434 82.185185 
L 142.178848 58.110289 
L 144.446262 38.60494 
L 146.713676 33.717394 
L 148.98109 43.53054 
L 153.515918 77.190737 
L 155.783332 87.943222 
L 158.050745 92.372281 
L 160.318159 92.103866 
L 162.585573 88.952459 
L 167.120401 79.615251 
L 169.387815 77.602271 
L 171.655229 76.939494 
L 173.922643 74.617429 
L 176.190057 69.230813 
L 178.457471 61.926029 
L 180.724885 56.843344 
L 182.992299 58.440074 
L 185.259712 68.637049 
L 187.527126 83.738052 
L 189.79454 100.836608 
L 192.061954 115.5377 
L 194.329368 126.560205 
L 196.596782 135.392399 
L 198.864196 142.58772 
L 203.399024 154.989495 
L 205.666438 160.962405 
L 207.933852 166.392184 
L 210.201266 171.463486 
L 212.468679 175.841476 
L 214.736093 179.321416 
L 217.003507 182.021349 
L 219.270921 184.186453 
L 221.538335 185.204175 
L 223.805749 184.844331 
L 226.073163 183.944768 
L 228.340577 183.643698 
L 232.875405 185.033825 
L 235.142819 185.096993 
L 237.410233 184.834225 
L 241.94506 184.623252 
L 244.212474 184.292871 
L 246.479888 184.35786 
L 248.747302 185.393972 
L 251.014716 186.905852 
L 253.28213 187.913394 
L 255.549544 188.277245 
L 257.816958 188.269713 
L 260.084372 187.531503 
L 262.351786 185.196771 
L 264.6192 181.391089 
L 269.154027 173.254602 
L 271.421441 169.300902 
L 273.688855 165.601743 
L 275.956269 162.675057 
L 278.223683 160.618474 
L 282.758511 157.488905 
L 285.025925 155.559192 
L 287.293339 152.686431 
L 289.560753 148.045743 
L 291.828167 140.804129 
L 294.095581 130.587046 
L 296.362994 118.48245 
L 298.630408 107.784244 
L 300.897822 102.793103 
L 303.165236 106.26437 
L 305.43265 116.865775 
L 307.700064 130.364763 
L 309.967478 142.727163 
L 312.234892 151.662326 
L 314.502306 156.589197 
L 316.76972 157.866067 
L 319.037134 156.752924 
L 321.304548 155.129839 
L 323.571961 154.760724 
L 325.839375 156.202002 
L 328.106789 158.966879 
L 330.374203 162.534592 
L 332.641617 167.03179 
L 334.909031 172.709104 
L 337.176445 178.815553 
L 339.443859 183.715885 
L 341.711273 186.15237 
L 343.978687 186.060606 
L 346.246101 183.785151 
L 348.513515 179.325222 
L 350.780929 172.893327 
L 353.048342 165.928907 
L 355.315756 160.457843 
L 357.58317 157.717639 
L 359.850584 158.051473 
L 362.117998 161.667458 
L 364.385412 168.367516 
L 368.92024 185.008008 
L 371.187654 191.966626 
L 373.455068 197.456514 
L 375.722482 201.484875 
L 377.989896 204.224945 
L 382.524723 208.246732 
L 384.792137 210.69344 
L 389.326965 216.570203 
L 391.594379 219.228307 
L 393.861793 221.532759 
L 398.396621 225.711712 
L 400.664035 227.298792 
L 402.931449 228.221162 
L 405.198863 228.855557 
L 409.73369 230.364635 
L 418.803346 232.603552 
L 421.07076 232.76805 
L 423.338174 232.685786 
L 425.605588 232.480534 
L 427.873002 232.047368 
L 430.140416 231.107133 
L 432.40783 229.482275 
L 434.675243 226.978127 
L 436.942657 223.222679 
L 439.210071 218.459099 
L 441.477485 214.376173 
L 443.744899 212.98931 
L 446.012313 214.799188 
L 448.279727 218.621118 
L 450.547141 223.010988 
L 452.814555 226.898946 
L 455.081969 229.474428 
L 457.349383 230.574471 
L 459.616797 230.713041 
L 464.151624 230.240609 
L 466.419038 229.921769 
L 470.953866 228.982381 
L 473.22128 228.365766 
L 475.488694 227.934249 
L 477.756108 228.367239 
L 482.290936 231.026843 
L 484.55835 231.471194 
L 486.825764 231.124785 
L 489.093178 230.433257 
L 491.360591 229.858263 
L 493.628005 229.731006 
L 495.895419 229.974807 
L 498.162833 230.05293 
L 500.430247 229.484722 
L 502.697661 228.337673 
L 504.965075 226.769083 
L 507.232489 224.666512 
L 511.767317 219.330152 
L 516.302145 213.962026 
L 518.569558 211.448333 
L 520.836972 209.340699 
L 525.3718 205.856653 
L 529.906628 201.910617 
L 534.441456 198.54406 
L 536.70887 197.149438 
L 538.976284 196.650152 
L 543.511112 197.247624 
L 545.778525 196.811243 
L 548.045939 195.944768 
L 550.313353 194.755597 
L 552.580767 192.669952 
L 554.848181 189.524007 
L 557.115595 185.784739 
L 559.383009 181.74794 
L 561.650423 177.024911 
L 563.917837 171.091667 
L 566.185251 164.053427 
L 568.452665 156.156361 
L 569.36375 152.52049 
L 569.36375 152.52049 
" clip-path="url(#p89d8cb58c0)" style="fill: none; stroke: #1f77b4; stroke-width: 1.5; stroke-linecap: square"/>
   </g>
   <g id="line2d_14">
    <path d="M -1 232.483713 
L -0.668229 232.357231 
L 1.599185 232.151012 
L 3.866599 231.100535 
L 6.134013 228.991609 
L 10.668841 223.232061 
L 12.936255 219.375654 
L 15.203669 214.032551 
L 17.471083 208.317357 
L 19.738496 202.97164 
L 22.00591 201.009253 
L 24.273324 202.411051 
L 26.540738 206.095474 
L 31.075566 215.414471 
L 33.34298 219.669366 
L 35.610394 223.096449 
L 37.877808 225.474243 
L 40.145222 227.650116 
L 42.412636 228.929496 
L 46.947463 229.785274 
L 49.214877 229.668945 
L 51.482291 229.695818 
L 53.749705 229.493543 
L 56.017119 229.509212 
L 58.284533 229.770563 
L 60.551947 229.022837 
L 62.819361 227.865275 
L 65.086775 227.142137 
L 67.354189 226.180829 
L 69.621603 224.8444 
L 71.889017 222.257611 
L 74.15643 218.659472 
L 78.691258 212.836224 
L 83.226086 205.685838 
L 85.4935 203.325312 
L 87.760914 203.580657 
L 90.028328 206.187809 
L 92.295742 209.133966 
L 94.563156 211.624555 
L 99.097984 215.489396 
L 101.365398 216.221556 
L 103.632811 215.301878 
L 105.900225 214.106188 
L 108.167639 213.335414 
L 110.435053 212.390635 
L 112.702467 210.655287 
L 114.969881 208.433534 
L 117.237295 205.969728 
L 119.504709 202.228306 
L 121.772123 196.970747 
L 124.039537 192.127443 
L 126.306951 186.00475 
L 128.574365 178.10737 
L 130.841778 166.757645 
L 133.109192 151.516932 
L 135.376606 132.512448 
L 137.64402 108.889221 
L 139.911434 82.068265 
L 142.178848 57.930859 
L 144.446262 38.765899 
L 146.713676 34.387205 
L 148.98109 44.198957 
L 153.515918 77.334595 
L 155.783332 88.243938 
L 158.050745 92.902542 
L 160.318159 92.559481 
L 162.585573 89.118294 
L 167.120401 79.979298 
L 169.387815 77.976116 
L 171.655229 77.038138 
L 173.922643 74.691045 
L 176.190057 69.607536 
L 178.457471 62.473414 
L 180.724885 57.401073 
L 182.992299 59.04532 
L 185.259712 69.380185 
L 187.527126 84.620957 
L 189.79454 101.444927 
L 192.061954 115.647609 
L 194.329368 126.635132 
L 196.596782 135.715965 
L 198.864196 142.790884 
L 203.399024 154.861666 
L 205.666438 161.122 
L 207.933852 166.543199 
L 210.201266 171.268217 
L 212.468679 175.468118 
L 214.736093 179.13206 
L 217.003507 181.957773 
L 219.270921 183.91256 
L 221.538335 184.772883 
L 223.805749 184.592232 
L 226.073163 183.918947 
L 228.340577 183.521473 
L 230.607991 183.895457 
L 232.875405 184.623811 
L 235.142819 184.942452 
L 241.94506 184.172899 
L 244.212474 184.079345 
L 246.479888 184.268738 
L 248.747302 184.95954 
L 251.014716 186.066113 
L 253.28213 187.044594 
L 255.549544 187.44494 
L 257.816958 187.117301 
L 260.084372 185.978138 
L 262.351786 183.711945 
L 264.6192 180.366969 
L 271.421441 168.546009 
L 273.688855 165.230914 
L 275.956269 162.548996 
L 278.223683 160.28372 
L 280.491097 158.476995 
L 282.758511 157.046079 
L 285.025925 155.228686 
L 287.293339 152.073514 
L 289.560753 147.19108 
L 291.828167 140.173559 
L 294.095581 130.463388 
L 296.362994 118.623814 
L 298.630408 107.932002 
L 300.897822 103.127404 
L 303.165236 106.896205 
L 305.43265 117.383552 
L 307.700064 130.440418 
L 309.967478 142.711315 
L 312.234892 151.974935 
L 314.502306 157.090275 
L 316.76972 158.165402 
L 321.304548 155.389041 
L 323.571961 155.364858 
L 325.839375 156.749309 
L 328.106789 159.272593 
L 330.374203 163.003769 
L 332.641617 167.917002 
L 337.176445 179.400641 
L 339.443859 184.183757 
L 341.711273 186.877977 
L 343.978687 186.959893 
L 346.246101 184.509129 
L 348.513515 179.844129 
L 350.780929 173.618466 
L 353.048342 167.032344 
L 355.315756 161.54845 
L 357.58317 158.554956 
L 359.850584 158.967822 
L 362.117998 162.924057 
L 364.385412 169.543095 
L 368.92024 185.295208 
L 371.187654 192.367465 
L 373.455068 197.9506 
L 375.722482 201.785106 
L 377.989896 204.321834 
L 384.792137 210.666392 
L 387.059551 213.06667 
L 391.594379 218.769313 
L 393.861793 221.087899 
L 400.664035 226.923318 
L 402.931449 228.039014 
L 405.198863 228.560802 
L 407.466276 229.203372 
L 412.001104 231.007531 
L 421.07076 232.890852 
L 423.338174 232.837244 
L 427.873002 231.9176 
L 430.140416 231.201025 
L 432.40783 229.70403 
L 434.675243 227.005376 
L 436.942657 223.128267 
L 439.210071 218.680499 
L 441.477485 214.92531 
L 443.744899 213.426893 
L 446.012313 214.984665 
L 448.279727 218.86895 
L 450.547141 223.426516 
L 452.814555 227.163918 
L 455.081969 229.382155 
L 457.349383 230.370012 
L 459.616797 230.666234 
L 461.88421 230.394078 
L 466.419038 229.081318 
L 470.953866 228.57752 
L 473.22128 227.909055 
L 475.488694 227.366844 
L 477.756108 228.007679 
L 480.023522 229.630011 
L 482.290936 230.803626 
L 484.55835 230.900288 
L 489.093178 230.018188 
L 491.360591 229.376893 
L 493.628005 228.855603 
L 495.895419 228.923637 
L 498.162833 229.282265 
L 500.430247 229.014249 
L 502.697661 227.815449 
L 504.965075 226.172596 
L 507.232489 224.348057 
L 509.499903 222.064071 
L 516.302145 213.730939 
L 523.104386 207.363322 
L 534.441456 197.978499 
L 536.70887 196.875699 
L 538.976284 196.632811 
L 541.243698 196.712058 
L 543.511112 196.627151 
L 545.778525 196.312928 
L 548.045939 195.744587 
L 550.313353 194.46543 
L 552.580767 192.042569 
L 554.848181 188.854733 
L 557.115595 185.397162 
L 559.383009 181.382315 
L 561.650423 176.308411 
L 563.917837 170.325695 
L 566.185251 163.658572 
L 568.452665 155.871282 
L 569.36375 152.112783 
L 569.36375 152.112783 
" clip-path="url(#p89d8cb58c0)" style="fill: none; stroke: #ff7f0e; stroke-width: 1.5; stroke-linecap: square"/>
   </g>
   <g id="line2d_15">
    <path d="M -1 229.363816 
L -0.668229 229.233705 
L 1.599185 229.398478 
L 3.866599 228.299438 
L 6.134013 226.498189 
L 8.401427 223.661461 
L 10.668841 221.040689 
L 12.936255 217.365489 
L 19.738496 201.555654 
L 22.00591 199.319806 
L 24.273324 200.727268 
L 26.540738 204.299704 
L 28.808152 208.265601 
L 31.075566 212.618405 
L 33.34298 216.588742 
L 35.610394 219.830044 
L 37.877808 221.87855 
L 40.145222 224.278067 
L 42.412636 225.67948 
L 44.68005 226.113735 
L 46.947463 226.837483 
L 49.214877 226.591264 
L 51.482291 226.846719 
L 56.017119 226.288551 
L 58.284533 226.571625 
L 60.551947 225.751938 
L 62.819361 224.556408 
L 65.086775 224.023251 
L 67.354189 222.986724 
L 69.621603 221.706596 
L 71.889017 219.610226 
L 74.15643 216.332506 
L 78.691258 210.720466 
L 83.226086 204.124715 
L 85.4935 201.876515 
L 87.760914 201.888374 
L 90.028328 204.284784 
L 92.295742 207.053469 
L 94.563156 209.394176 
L 96.83057 210.720459 
L 99.097984 212.37543 
L 101.365398 213.370669 
L 103.632811 212.6467 
L 105.900225 211.464931 
L 110.435053 209.863082 
L 112.702467 208.206159 
L 114.969881 205.865692 
L 117.237295 203.079487 
L 119.504709 199.464751 
L 121.772123 194.484779 
L 124.039537 189.942473 
L 126.306951 183.625725 
L 128.574365 175.51398 
L 130.841778 164.43868 
L 133.109192 149.4386 
L 135.376606 130.44712 
L 137.64402 106.742011 
L 139.911434 80.077303 
L 142.178848 56.157922 
L 144.446262 37.090287 
L 146.713676 32.345398 
L 148.98109 42.23091 
L 153.515918 75.444934 
L 155.783332 86.083737 
L 158.050745 90.633056 
L 160.318159 90.44213 
L 162.585573 87.196487 
L 164.852987 82.504678 
L 167.120401 77.540495 
L 169.387815 75.795468 
L 171.655229 75.348961 
L 173.922643 73.090544 
L 176.190057 67.63942 
L 178.457471 60.325682 
L 180.724885 55.507476 
L 182.992299 57.389583 
L 185.259712 67.357737 
L 187.527126 82.188818 
L 189.79454 99.043796 
L 192.061954 113.482244 
L 194.329368 124.461475 
L 196.596782 133.150687 
L 198.864196 140.160707 
L 205.666438 158.323443 
L 207.933852 163.711888 
L 210.201266 168.79378 
L 212.468679 173.215059 
L 214.736093 176.724244 
L 217.003507 179.256816 
L 219.270921 181.305203 
L 221.538335 182.410909 
L 223.805749 182.292823 
L 226.073163 181.52556 
L 228.340577 181.120225 
L 230.607991 181.710211 
L 232.875405 182.594282 
L 235.142819 182.754187 
L 237.410233 182.460408 
L 241.94506 182.491441 
L 244.212474 182.258748 
L 246.479888 182.165846 
L 248.747302 182.85052 
L 251.014716 184.102059 
L 253.28213 185.000569 
L 255.549544 185.0794 
L 257.816958 184.531672 
L 260.084372 183.486974 
L 262.351786 181.293152 
L 264.6192 177.82922 
L 269.154027 170.123102 
L 271.421441 166.490526 
L 273.688855 163.138441 
L 275.956269 160.26509 
L 278.223683 158.026904 
L 280.491097 156.416231 
L 282.758511 154.949986 
L 285.025925 152.981558 
L 287.293339 149.834702 
L 289.560753 145.057074 
L 291.828167 138.189661 
L 294.095581 128.475505 
L 296.362994 116.478647 
L 298.630408 105.870675 
L 300.897822 101.33117 
L 303.165236 105.037478 
L 305.43265 115.234896 
L 307.700064 128.131887 
L 309.967478 140.280346 
L 312.234892 149.344498 
L 314.502306 154.311997 
L 316.76972 155.454364 
L 319.037134 154.360328 
L 321.304548 153.124237 
L 323.571961 153.19054 
L 325.839375 154.797657 
L 328.106789 157.748062 
L 330.374203 161.875907 
L 332.641617 166.954713 
L 337.176445 178.389096 
L 339.443859 183.091996 
L 341.711273 185.652485 
L 343.978687 185.612039 
L 346.246101 183.10484 
L 348.513515 178.505233 
L 350.780929 172.386838 
L 353.048342 165.812158 
L 355.315756 160.28485 
L 357.58317 157.252721 
L 359.850584 157.623309 
L 362.117998 161.569181 
L 364.385412 168.22026 
L 368.92024 183.840316 
L 371.187654 190.694904 
L 373.455068 196.036222 
L 375.722482 199.575063 
L 377.989896 201.711572 
L 384.792137 206.414971 
L 387.059551 208.331357 
L 389.326965 210.820496 
L 391.594379 213.599938 
L 393.861793 216.066511 
L 396.129207 218.245082 
L 400.664035 222.939971 
L 402.931449 224.567108 
L 405.198863 225.481592 
L 407.466276 226.273784 
L 412.001104 228.227063 
L 414.268518 228.987339 
L 418.803346 229.990193 
L 421.07076 230.424401 
L 423.338174 230.559263 
L 425.605588 230.286689 
L 427.873002 229.747232 
L 430.140416 228.929535 
L 432.40783 227.557207 
L 434.675243 225.138346 
L 436.942657 221.378311 
L 439.210071 216.856519 
L 441.477485 213.174188 
L 443.744899 211.909754 
L 446.012313 213.486864 
L 448.279727 217.099777 
L 450.547141 221.468826 
L 452.814555 225.294742 
L 455.081969 227.651236 
L 457.349383 228.560687 
L 459.616797 228.695751 
L 461.88421 228.488904 
L 464.151624 228.040329 
L 468.686452 226.957409 
L 470.953866 226.570669 
L 475.488694 225.671212 
L 477.756108 226.163267 
L 480.023522 227.625588 
L 482.290936 228.950907 
L 484.55835 229.276639 
L 486.825764 228.804376 
L 489.093178 228.084544 
L 491.360591 227.509218 
L 493.628005 227.277843 
L 498.162833 227.359789 
L 500.430247 226.868873 
L 502.697661 225.817069 
L 504.965075 224.239791 
L 507.232489 222.097621 
L 518.569558 209.170019 
L 520.836972 207.172761 
L 525.3718 203.862227 
L 529.906628 199.940435 
L 534.441456 196.716459 
L 536.70887 195.326533 
L 538.976284 194.689248 
L 543.511112 195.038088 
L 545.778525 194.557521 
L 548.045939 193.595492 
L 550.313353 192.312945 
L 552.580767 190.25672 
L 554.848181 187.173755 
L 557.115595 183.360985 
L 559.383009 179.115704 
L 561.650423 174.293899 
L 563.917837 168.508218 
L 566.185251 161.563999 
L 568.452665 153.496061 
L 569.36375 149.803613 
L 569.36375 149.803613 
" clip-path="url(#p89d8cb58c0)" style="fill: none; stroke: #2ca02c; stroke-width: 1.5; stroke-linecap: square"/>
   </g>
   <g id="line2d_16">
    <path d="M -1 229.868713 
L -0.668229 229.744927 
L 1.599185 229.813923 
L 3.866599 228.539872 
L 6.134013 226.837567 
L 10.668841 221.535662 
L 12.936255 217.742496 
L 15.203669 212.366668 
L 19.738496 202.540213 
L 22.00591 200.227165 
L 24.273324 201.484947 
L 26.540738 205.020771 
L 28.808152 208.901984 
L 31.075566 213.117687 
L 33.34298 216.931923 
L 35.610394 220.16776 
L 37.877808 222.26007 
L 40.145222 224.719511 
L 42.412636 225.944926 
L 44.68005 226.276517 
L 46.947463 227.250071 
L 49.214877 227.118839 
L 51.482291 227.277616 
L 56.017119 226.277284 
L 58.284533 226.671744 
L 60.551947 226.048378 
L 62.819361 224.826975 
L 65.086775 224.308757 
L 67.354189 223.375667 
L 69.621603 222.221751 
L 71.889017 220.133746 
L 74.15643 216.774391 
L 78.691258 211.384938 
L 83.226086 204.843461 
L 85.4935 202.628334 
L 87.760914 202.756361 
L 92.295742 207.760969 
L 94.563156 209.905187 
L 96.83057 211.13868 
L 99.097984 212.746587 
L 101.365398 213.667106 
L 103.632811 212.982943 
L 105.900225 211.91124 
L 110.435053 210.431993 
L 112.702467 208.720716 
L 114.969881 206.336829 
L 117.237295 203.535699 
L 119.504709 199.968005 
L 121.772123 194.941203 
L 124.039537 190.490635 
L 126.306951 184.346785 
L 128.574365 176.380845 
L 130.841778 165.343734 
L 133.109192 150.300099 
L 135.376606 131.509695 
L 137.64402 108.179296 
L 139.911434 81.642194 
L 142.178848 57.507275 
L 144.446262 38.329883 
L 146.713676 33.703711 
L 148.98109 43.67195 
L 153.515918 76.204406 
L 155.783332 86.836693 
L 158.050745 91.693425 
L 160.318159 91.548677 
L 162.585573 88.080535 
L 167.120401 78.774758 
L 169.387815 77.276395 
L 171.655229 76.643178 
L 173.922643 74.185409 
L 176.190057 68.904515 
L 178.457471 61.885123 
L 180.724885 56.986258 
L 182.992299 58.530899 
L 185.259712 68.387415 
L 187.527126 83.408743 
L 189.79454 100.209801 
L 192.061954 114.176041 
L 194.329368 124.91169 
L 196.596782 133.768318 
L 198.864196 141.001055 
L 203.399024 152.807621 
L 207.933852 164.283228 
L 210.201266 169.499174 
L 212.468679 173.766698 
L 214.736093 177.114877 
L 217.003507 179.718542 
L 219.270921 181.938355 
L 221.538335 183.047135 
L 223.805749 182.830912 
L 226.073163 182.108818 
L 228.340577 181.870586 
L 232.875405 183.269484 
L 235.142819 183.356765 
L 237.410233 183.242936 
L 239.677647 183.406938 
L 241.94506 183.419982 
L 244.212474 183.031072 
L 246.479888 182.902996 
L 248.747302 183.736523 
L 251.014716 185.031489 
L 253.28213 185.781495 
L 255.549544 185.784872 
L 257.816958 185.341323 
L 260.084372 184.344851 
L 262.351786 182.04086 
L 264.6192 178.544046 
L 271.421441 167.484799 
L 273.688855 163.940407 
L 275.956269 161.012165 
L 278.223683 158.858793 
L 282.758511 155.611979 
L 285.025925 153.576782 
L 287.293339 150.606077 
L 289.560753 146.100528 
L 291.828167 139.222981 
L 294.095581 129.3984 
L 296.362994 117.653814 
L 298.630408 107.408438 
L 300.897822 102.822698 
L 303.165236 106.236916 
L 305.43265 116.250472 
L 307.700064 129.065611 
L 309.967478 141.158186 
L 312.234892 150.108881 
L 314.502306 154.947799 
L 316.76972 156.195523 
L 319.037134 155.37409 
L 321.304548 154.189764 
L 323.571961 154.118342 
L 325.839375 155.755582 
L 328.106789 158.939784 
L 330.374203 163.156644 
L 332.641617 168.049662 
L 337.176445 179.314658 
L 339.443859 184.122794 
L 341.711273 186.668388 
L 343.978687 186.477869 
L 346.246101 183.940545 
L 348.513515 179.561912 
L 350.780929 173.601487 
L 353.048342 166.919812 
L 355.315756 161.276973 
L 357.58317 158.326793 
L 359.850584 158.82369 
L 362.117998 162.625126 
L 364.385412 168.987806 
L 368.92024 184.689431 
L 371.187654 191.553683 
L 373.455068 196.697508 
L 375.722482 200.047457 
L 377.989896 202.209676 
L 380.257309 203.867075 
L 384.792137 206.614284 
L 387.059551 208.398029 
L 389.326965 210.86574 
L 391.594379 213.577179 
L 400.664035 223.255125 
L 402.931449 224.868719 
L 407.466276 226.68026 
L 409.73369 227.847844 
L 412.001104 228.831228 
L 421.07076 231.111162 
L 423.338174 231.1938 
L 425.605588 230.865663 
L 427.873002 230.419761 
L 430.140416 229.758321 
L 432.40783 228.381382 
L 434.675243 225.840149 
L 436.942657 222.120497 
L 439.210071 217.80628 
L 441.477485 214.150028 
L 443.744899 212.681211 
L 446.012313 214.148859 
L 448.279727 217.858753 
L 450.547141 222.294979 
L 452.814555 225.993142 
L 455.081969 228.210497 
L 457.349383 229.18081 
L 459.616797 229.471534 
L 461.88421 229.277113 
L 466.419038 228.05006 
L 470.953866 227.370338 
L 475.488694 226.223259 
L 477.756108 226.77178 
L 480.023522 228.380869 
L 482.290936 229.724054 
L 484.55835 229.911311 
L 491.360591 228.362731 
L 493.628005 227.985383 
L 495.895419 227.901132 
L 498.162833 227.964558 
L 500.430247 227.593202 
L 502.697661 226.494785 
L 504.965075 224.768436 
L 507.232489 222.596932 
L 509.499903 220.140104 
L 514.034731 214.77825 
L 516.302145 212.089567 
L 518.569558 209.780527 
L 520.836972 207.890312 
L 525.3718 204.33599 
L 529.906628 200.727975 
L 536.70887 195.817579 
L 538.976284 195.312334 
L 541.243698 195.552244 
L 543.511112 195.611891 
L 545.778525 194.948707 
L 548.045939 193.969709 
L 550.313353 192.761439 
L 552.580767 190.600232 
L 554.848181 187.323721 
L 557.115595 183.532787 
L 559.383009 179.472427 
L 561.650423 174.667649 
L 563.917837 168.649275 
L 566.185251 161.549942 
L 568.452665 153.562163 
L 569.36375 149.877666 
L 569.36375 149.877666 
" clip-path="url(#p89d8cb58c0)" style="fill: none; stroke: #d62728; stroke-width: 1.5; stroke-linecap: square"/>
   </g>
   <g id="line2d_17">
    <path d="M -1 231.002539 
L -0.668229 230.872724 
L 1.599185 230.927721 
L 3.866599 229.794552 
L 6.134013 228.367157 
L 10.668841 222.71093 
L 12.936255 218.787498 
L 15.203669 213.552975 
L 19.738496 203.642291 
L 22.00591 201.058581 
L 24.273324 202.428056 
L 28.808152 209.891251 
L 31.075566 213.857176 
L 33.34298 217.441065 
L 35.610394 220.796222 
L 37.877808 223.049451 
L 40.145222 225.524456 
L 42.412636 226.682336 
L 44.68005 227.14532 
L 46.947463 228.313752 
L 49.214877 228.258608 
L 51.482291 228.448666 
L 53.749705 227.815163 
L 56.017119 227.331066 
L 58.284533 227.682273 
L 60.551947 226.877245 
L 62.819361 225.635754 
L 65.086775 225.206638 
L 67.354189 224.299086 
L 69.621603 223.17349 
L 71.889017 221.123583 
L 74.15643 217.864189 
L 78.691258 212.612526 
L 80.958672 209.194297 
L 83.226086 206.084378 
L 85.4935 204.037872 
L 87.760914 204.139799 
L 94.563156 211.043967 
L 96.83057 212.194175 
L 99.097984 213.690336 
L 101.365398 214.538342 
L 103.632811 214.109413 
L 108.167639 212.504001 
L 110.435053 211.491008 
L 112.702467 209.785144 
L 114.969881 207.606115 
L 117.237295 204.847071 
L 119.504709 201.036288 
L 121.772123 195.774579 
L 124.039537 191.54255 
L 126.306951 185.627634 
L 128.574365 177.630861 
L 130.841778 166.241746 
L 133.109192 150.880708 
L 135.376606 132.088313 
L 137.64402 108.603574 
L 139.911434 81.593254 
L 142.178848 57.13272 
L 144.446262 38.08788 
L 146.713676 33.807504 
L 148.98109 44.002255 
L 153.515918 76.749538 
L 155.783332 87.62063 
L 158.050745 92.434413 
L 160.318159 91.866381 
L 162.585573 88.0493 
L 167.120401 78.934905 
L 169.387815 77.452782 
L 171.655229 76.720074 
L 173.922643 74.256358 
L 176.190057 69.076164 
L 178.457471 61.977941 
L 180.724885 56.871393 
L 182.992299 58.414322 
L 185.259712 68.496937 
L 187.527126 83.711219 
L 189.79454 100.440296 
L 192.061954 114.306319 
L 194.329368 125.202768 
L 196.596782 134.298652 
L 198.864196 141.633255 
L 205.666438 159.442311 
L 207.933852 165.193497 
L 210.201266 170.391461 
L 212.468679 174.660193 
L 214.736093 178.102957 
L 217.003507 180.752462 
L 219.270921 182.889135 
L 221.538335 183.859629 
L 223.805749 183.669748 
L 226.073163 183.057678 
L 228.340577 182.800359 
L 230.607991 183.341379 
L 232.875405 184.063489 
L 235.142819 184.284602 
L 239.677647 184.498792 
L 241.94506 184.371471 
L 244.212474 184.061238 
L 246.479888 184.118687 
L 248.747302 184.845936 
L 251.014716 185.825541 
L 253.28213 186.464015 
L 255.549544 186.643416 
L 257.816958 186.33442 
L 260.084372 185.215973 
L 262.351786 182.759977 
L 266.886614 175.753991 
L 273.688855 164.770807 
L 275.956269 162.150552 
L 278.223683 160.160574 
L 282.758511 156.75225 
L 285.025925 154.779766 
L 287.293339 151.902116 
L 289.560753 147.192542 
L 291.828167 139.896338 
L 294.095581 129.789971 
L 296.362994 117.967161 
L 298.630408 107.597202 
L 300.897822 102.761156 
L 303.165236 106.093824 
L 305.43265 116.422197 
L 307.700064 129.61432 
L 309.967478 141.667539 
L 312.234892 150.343344 
L 314.502306 155.122887 
L 316.76972 156.521294 
L 319.037134 155.710165 
L 321.304548 154.336889 
L 323.571961 154.220906 
L 325.839375 156.170408 
L 328.106789 159.75809 
L 330.374203 164.13097 
L 332.641617 168.995219 
L 334.909031 174.618164 
L 337.176445 180.555403 
L 339.443859 185.363126 
L 341.711273 187.673378 
L 343.978687 187.316731 
L 346.246101 184.835371 
L 348.513515 180.43213 
L 350.780929 174.185005 
L 353.048342 167.240482 
L 355.315756 161.592531 
L 357.58317 158.776074 
L 359.850584 159.302378 
L 362.117998 163.080243 
L 364.385412 169.641935 
L 368.92024 185.801146 
L 371.187654 192.532158 
L 373.455068 197.528331 
L 375.722482 200.883787 
L 377.989896 202.999857 
L 380.257309 204.339627 
L 384.792137 206.295933 
L 387.059551 208.023135 
L 389.326965 210.493159 
L 391.594379 213.133871 
L 396.129207 218.057919 
L 400.664035 223.591332 
L 402.931449 225.365795 
L 407.466276 227.620549 
L 409.73369 228.893279 
L 412.001104 229.860211 
L 418.803346 231.935516 
L 421.07076 232.352263 
L 423.338174 232.331944 
L 427.873002 231.810227 
L 430.140416 231.132716 
L 432.40783 229.59543 
L 434.675243 226.982167 
L 436.942657 223.351502 
L 439.210071 219.052026 
L 441.477485 215.199775 
L 443.744899 213.583652 
L 446.012313 215.228326 
L 448.279727 219.208691 
L 450.547141 223.660126 
L 452.814555 227.219137 
L 455.081969 229.441284 
L 457.349383 230.592071 
L 459.616797 230.962379 
L 461.88421 230.589356 
L 464.151624 229.849935 
L 466.419038 229.341931 
L 468.686452 229.150005 
L 470.953866 228.75869 
L 473.22128 227.879703 
L 475.488694 227.322731 
L 477.756108 228.117672 
L 480.023522 229.877503 
L 482.290936 231.090608 
L 484.55835 231.148562 
L 489.093178 230.330329 
L 493.628005 229.294126 
L 495.895419 229.311123 
L 498.162833 229.571722 
L 500.430247 229.188447 
L 502.697661 227.843271 
L 504.965075 225.962675 
L 507.232489 223.864674 
L 509.499903 221.477565 
L 516.302145 213.297844 
L 518.569558 211.117248 
L 523.104386 207.332046 
L 534.441456 198.642431 
L 536.70887 197.41591 
L 538.976284 197.107229 
L 541.243698 197.244632 
L 543.511112 197.099713 
L 545.778525 196.52191 
L 548.045939 195.823848 
L 550.313353 194.690537 
L 552.580767 192.388082 
L 554.848181 189.082519 
L 557.115595 185.522215 
L 559.383009 181.664631 
L 561.650423 176.795755 
L 563.917837 170.672401 
L 566.185251 163.684753 
L 568.452665 155.914932 
L 569.36375 152.255254 
L 569.36375 152.255254 
" clip-path="url(#p89d8cb58c0)" style="fill: none; stroke: #9467bd; stroke-width: 1.5; stroke-linecap: square"/>
   </g>
   <g id="line2d_18">
    <path d="M -1 231.660817 
L -0.668229 231.521914 
L 1.599185 231.459016 
L 3.866599 230.468842 
L 6.134013 229.076014 
L 10.668841 223.64598 
L 12.936255 219.948975 
L 19.738496 205.064985 
L 22.00591 202.745551 
L 24.273324 204.093451 
L 28.808152 210.662422 
L 33.34298 217.70555 
L 35.610394 220.950206 
L 40.145222 225.688587 
L 42.412636 227.04203 
L 44.68005 227.7307 
L 46.947463 228.878835 
L 49.214877 228.875666 
L 51.482291 229.024815 
L 56.017119 227.991192 
L 58.284533 228.087643 
L 60.551947 227.122022 
L 62.819361 225.923581 
L 65.086775 225.48945 
L 67.354189 224.675014 
L 69.621603 223.600881 
L 71.889017 221.688149 
L 74.15643 218.754772 
L 78.691258 213.782316 
L 80.958672 210.524904 
L 83.226086 207.537035 
L 85.4935 205.497754 
L 87.760914 205.470817 
L 90.028328 207.559648 
L 92.295742 209.896183 
L 94.563156 211.86966 
L 96.83057 212.851346 
L 99.097984 214.165327 
L 101.365398 215.077067 
L 103.632811 214.738531 
L 108.167639 213.110662 
L 110.435053 212.084288 
L 112.702467 210.48048 
L 114.969881 208.425596 
L 117.237295 205.69955 
L 119.504709 201.7402 
L 121.772123 196.608504 
L 124.039537 192.446821 
L 126.306951 186.53503 
L 128.574365 178.399002 
L 130.841778 166.964838 
L 133.109192 151.80947 
L 135.376606 133.118999 
L 137.64402 109.631837 
L 139.911434 82.588679 
L 142.178848 58.114449 
L 144.446262 39.121859 
L 146.713676 34.814306 
L 148.98109 44.742536 
L 153.515918 77.693021 
L 155.783332 88.590894 
L 158.050745 93.271195 
L 160.318159 92.736403 
L 162.585573 89.084835 
L 167.120401 79.998034 
L 169.387815 78.21436 
L 171.655229 77.399837 
L 173.922643 75.058836 
L 176.190057 69.944016 
L 178.457471 62.814392 
L 180.724885 57.641959 
L 182.992299 59.173678 
L 185.259712 69.370212 
L 187.527126 84.41908 
L 189.79454 100.930086 
L 192.061954 114.841389 
L 194.329368 125.837982 
L 196.596782 135.000737 
L 198.864196 142.200591 
L 207.933852 165.682215 
L 210.201266 170.819991 
L 212.468679 175.085454 
L 214.736093 178.598267 
L 217.003507 181.339989 
L 219.270921 183.456066 
L 221.538335 184.417638 
L 223.805749 184.299634 
L 226.073163 183.785926 
L 228.340577 183.557373 
L 230.607991 184.015097 
L 232.875405 184.794315 
L 235.142819 185.215659 
L 239.677647 185.373544 
L 246.479888 185.079263 
L 248.747302 185.671281 
L 251.014716 186.532221 
L 253.28213 187.159207 
L 255.549544 187.355911 
L 257.816958 186.996249 
L 260.084372 185.829812 
L 262.351786 183.430241 
L 264.6192 180.128667 
L 266.886614 176.615654 
L 273.688855 165.518493 
L 275.956269 163.018179 
L 280.491097 159.262263 
L 285.025925 155.645721 
L 287.293339 152.849364 
L 289.560753 148.056735 
L 291.828167 140.693378 
L 294.095581 130.701253 
L 296.362994 118.994408 
L 298.630408 108.516149 
L 300.897822 103.472339 
L 303.165236 106.783322 
L 305.43265 117.15943 
L 307.700064 130.181783 
L 309.967478 141.955042 
L 312.234892 150.495261 
L 314.502306 155.376337 
L 316.76972 156.891284 
L 319.037134 156.045603 
L 321.304548 154.669801 
L 323.571961 154.757334 
L 325.839375 157.056349 
L 328.106789 160.930159 
L 330.374203 165.483077 
L 332.641617 170.49746 
L 337.176445 182.207142 
L 339.443859 186.888385 
L 341.711273 188.987117 
L 343.978687 188.547185 
L 346.246101 186.121511 
L 348.513515 181.718118 
L 350.780929 175.420026 
L 353.048342 168.526641 
L 355.315756 162.979529 
L 357.58317 160.132191 
L 359.850584 160.498221 
L 362.117998 164.230493 
L 364.385412 170.893549 
L 368.92024 186.94179 
L 371.187654 193.427279 
L 373.455068 198.217311 
L 375.722482 201.373571 
L 377.989896 203.172761 
L 380.257309 204.014477 
L 382.524723 204.417961 
L 384.792137 205.067054 
L 387.059551 206.45773 
L 389.326965 208.582591 
L 393.861793 213.504687 
L 396.129207 216.335281 
L 398.396621 219.624648 
L 400.664035 222.632262 
L 402.931449 224.693218 
L 409.73369 228.890659 
L 412.001104 229.862423 
L 414.268518 230.585657 
L 418.803346 232.299889 
L 421.07076 232.732492 
L 423.338174 232.757664 
L 427.873002 232.44599 
L 430.140416 231.730917 
L 432.40783 230.15973 
L 434.675243 227.646882 
L 436.942657 224.185894 
L 439.210071 219.971139 
L 441.477485 216.106414 
L 443.744899 214.467817 
L 446.012313 216.093561 
L 448.279727 220.008307 
L 450.547141 224.337689 
L 452.814555 227.817525 
L 455.081969 230.083369 
L 457.349383 231.299441 
L 459.616797 231.626234 
L 461.88421 231.192342 
L 464.151624 230.482364 
L 466.419038 230.046246 
L 468.686452 229.834467 
L 470.953866 229.30918 
L 473.22128 228.362245 
L 475.488694 227.89359 
L 477.756108 228.791615 
L 480.023522 230.506448 
L 482.290936 231.658209 
L 484.55835 231.791688 
L 489.093178 231.074722 
L 493.628005 229.996229 
L 495.895419 230.050883 
L 498.162833 230.282818 
L 500.430247 229.751024 
L 502.697661 228.237396 
L 507.232489 224.222235 
L 509.499903 221.792449 
L 514.034731 216.165448 
L 516.302145 213.757783 
L 520.836972 209.616975 
L 523.104386 207.717016 
L 525.3718 206.113728 
L 527.639214 204.668352 
L 529.906628 203.082929 
L 534.441456 199.470516 
L 536.70887 198.304515 
L 538.976284 197.965309 
L 541.243698 197.919519 
L 543.511112 197.667601 
L 545.778525 197.131234 
L 548.045939 196.42817 
L 550.313353 195.189898 
L 552.580767 192.796055 
L 557.115595 186.158659 
L 559.383009 182.323449 
L 561.650423 177.280117 
L 563.917837 171.069705 
L 566.185251 164.223314 
L 568.452665 156.574746 
L 569.36375 152.862857 
L 569.36375 152.862857 
" clip-path="url(#p89d8cb58c0)" style="fill: none; stroke: #8c564b; stroke-width: 1.5; stroke-linecap: square"/>
   </g>
   <g id="line2d_19">
    <path d="M -1 229.964101 
L -0.668229 229.817411 
L 1.599185 229.915192 
L 3.866599 228.857346 
L 6.134013 227.642227 
L 8.401427 225.259316 
L 10.668841 223.172337 
L 12.936255 220.32658 
L 19.738496 207.349022 
L 22.00591 204.999105 
L 24.273324 205.92759 
L 26.540738 208.035456 
L 28.808152 209.815218 
L 33.34298 215.046098 
L 35.610394 217.846468 
L 37.877808 219.91936 
L 40.145222 222.581591 
L 42.412636 224.256316 
L 44.68005 225.232924 
L 46.947463 226.64239 
L 49.214877 226.606009 
L 51.482291 226.901493 
L 53.749705 226.176616 
L 56.017119 225.324648 
L 58.284533 225.06127 
L 60.551947 223.818999 
L 62.819361 222.730726 
L 65.086775 222.542968 
L 69.621603 221.124741 
L 71.889017 220.002618 
L 74.15643 217.840217 
L 76.423844 216.075479 
L 78.691258 214.060749 
L 80.958672 211.303261 
L 83.226086 208.892965 
L 85.4935 207.060942 
L 87.760914 206.761582 
L 92.295742 209.618883 
L 94.563156 210.703412 
L 96.83057 210.738265 
L 101.365398 212.309379 
L 103.632811 212.170459 
L 105.900225 211.529479 
L 108.167639 210.716444 
L 110.435053 209.652186 
L 112.702467 208.109702 
L 114.969881 206.029215 
L 117.237295 203.007271 
L 119.504709 198.919392 
L 121.772123 193.972191 
L 124.039537 190.292704 
L 126.306951 184.545634 
L 128.574365 176.380973 
L 130.841778 164.99998 
L 133.109192 150.043619 
L 135.376606 131.705511 
L 137.64402 108.499417 
L 139.911434 81.850016 
L 142.178848 57.735982 
L 144.446262 38.533502 
L 146.713676 33.689166 
L 148.98109 43.724103 
L 153.515918 76.854156 
L 155.783332 87.715755 
L 158.050745 92.368028 
L 160.318159 91.93872 
L 162.585573 88.592007 
L 164.852987 84.116644 
L 167.120401 79.327048 
L 169.387815 77.706143 
L 171.655229 77.131728 
L 173.922643 74.978913 
L 176.190057 69.90256 
L 178.457471 62.695595 
L 180.724885 57.420754 
L 182.992299 58.897358 
L 185.259712 68.83746 
L 187.527126 83.517824 
L 189.79454 99.690285 
L 192.061954 113.42559 
L 194.329368 124.343177 
L 196.596782 133.26264 
L 198.864196 140.355287 
L 207.933852 163.361424 
L 210.201266 168.432808 
L 212.468679 172.792546 
L 214.736093 176.467205 
L 217.003507 179.218077 
L 219.270921 181.342761 
L 221.538335 182.480121 
L 223.805749 182.761049 
L 228.340577 182.315554 
L 230.607991 182.88414 
L 232.875405 183.858953 
L 235.142819 184.450387 
L 239.677647 185.016884 
L 241.94506 185.015463 
L 246.479888 184.706146 
L 248.747302 185.037014 
L 251.014716 185.606046 
L 253.28213 185.99635 
L 255.549544 185.984501 
L 257.816958 185.454498 
L 260.084372 184.175521 
L 262.351786 181.763945 
L 266.886614 175.341245 
L 273.688855 164.673042 
L 275.956269 162.187626 
L 280.491097 158.128556 
L 282.758511 156.32329 
L 285.025925 154.294788 
L 287.293339 151.119334 
L 289.560753 146.169302 
L 291.828167 139.108083 
L 294.095581 129.549305 
L 296.362994 118.146286 
L 298.630408 107.806798 
L 300.897822 102.807614 
L 303.165236 106.040517 
L 305.43265 116.070762 
L 307.700064 128.495476 
L 309.967478 139.678002 
L 312.234892 147.868426 
L 314.502306 152.75467 
L 316.76972 154.556526 
L 319.037134 154.072403 
L 321.304548 153.152141 
L 323.571961 153.969115 
L 325.839375 157.295626 
L 328.106789 162.270948 
L 332.641617 173.301007 
L 337.176445 184.827976 
L 339.443859 189.027099 
L 341.711273 190.75761 
L 343.978687 190.192109 
L 346.246101 187.750064 
L 348.513515 183.372726 
L 350.780929 177.264193 
L 353.048342 170.706154 
L 355.315756 165.381728 
L 357.58317 162.417416 
L 359.850584 162.501461 
L 362.117998 166.116836 
L 364.385412 172.806228 
L 366.652826 180.806096 
L 368.92024 188.165551 
L 371.187654 193.930045 
L 373.455068 198.043862 
L 375.722482 200.455429 
L 377.989896 201.12852 
L 380.257309 200.476042 
L 382.524723 199.299153 
L 384.792137 198.424041 
L 387.059551 198.496331 
L 389.326965 199.660705 
L 391.594379 201.650927 
L 393.861793 204.355851 
L 396.129207 207.982006 
L 400.664035 216.520945 
L 402.931449 219.6702 
L 405.198863 222.0052 
L 407.466276 224.058751 
L 409.73369 225.792974 
L 412.001104 227.087943 
L 418.803346 230.401771 
L 421.07076 230.935417 
L 425.605588 231.287649 
L 427.873002 231.263541 
L 430.140416 230.647051 
L 432.40783 229.264216 
L 434.675243 227.130703 
L 436.942657 224.117689 
L 439.210071 220.238113 
L 441.477485 216.57981 
L 443.744899 215.022161 
L 446.012313 216.527036 
L 448.279727 220.115133 
L 450.547141 224.058262 
L 452.814555 227.309211 
L 455.081969 229.511033 
L 457.349383 230.61937 
L 459.616797 230.744148 
L 461.88421 230.105663 
L 464.151624 229.213407 
L 466.419038 228.590694 
L 468.686452 228.211839 
L 470.953866 227.614513 
L 473.22128 226.83962 
L 475.488694 226.753485 
L 477.756108 227.894702 
L 480.023522 229.575453 
L 482.290936 230.572383 
L 484.55835 230.608632 
L 486.825764 230.245025 
L 489.093178 229.683586 
L 491.360591 228.883501 
L 493.628005 228.279041 
L 495.895419 228.31436 
L 498.162833 228.542063 
L 500.430247 227.966925 
L 502.697661 226.440114 
L 504.965075 224.537105 
L 507.232489 222.440318 
L 509.499903 219.924527 
L 511.767317 217.104164 
L 514.034731 214.528625 
L 516.302145 212.414887 
L 520.836972 208.640007 
L 523.104386 206.926177 
L 525.3718 205.55639 
L 527.639214 204.317746 
L 529.906628 202.85783 
L 534.441456 199.723243 
L 536.70887 198.648807 
L 538.976284 198.078544 
L 541.243698 197.665483 
L 543.511112 197.135608 
L 545.778525 196.406229 
L 548.045939 195.535623 
L 550.313353 194.186897 
L 552.580767 191.815109 
L 554.848181 188.69183 
L 557.115595 185.281369 
L 559.383009 181.287387 
L 561.650423 176.216005 
L 563.917837 170.142663 
L 566.185251 163.426836 
L 568.452665 155.752931 
L 569.36375 152.010056 
L 569.36375 152.010056 
" clip-path="url(#p89d8cb58c0)" style="fill: none; stroke: #e377c2; stroke-width: 1.5; stroke-linecap: square"/>
   </g>
   <g id="line2d_20">
    <path d="M -1 228.33982 
L -0.668229 228.121911 
L 1.599185 227.870482 
L 6.134013 225.858549 
L 8.401427 223.949006 
L 10.668841 222.41185 
L 12.936255 220.334704 
L 17.471083 213.469814 
L 19.738496 209.330838 
L 22.00591 206.894285 
L 24.273324 207.350202 
L 26.540738 208.52187 
L 28.808152 209.125216 
L 31.075566 210.622602 
L 33.34298 212.376796 
L 35.610394 214.763113 
L 37.877808 216.981342 
L 40.145222 219.873549 
L 42.412636 221.710425 
L 44.68005 222.789311 
L 46.947463 224.232122 
L 51.482291 224.193731 
L 53.749705 222.89266 
L 58.284533 219.667224 
L 60.551947 216.031593 
L 62.819361 212.803575 
L 65.086775 211.408498 
L 67.354189 210.699343 
L 71.889017 211.641021 
L 76.423844 210.041046 
L 78.691258 208.857766 
L 80.958672 206.836283 
L 85.4935 202.373332 
L 87.760914 200.817079 
L 90.028328 200.121929 
L 92.295742 198.788653 
L 94.563156 196.724506 
L 96.83057 194.019523 
L 99.097984 194.02479 
L 101.365398 196.951838 
L 103.632811 200.08507 
L 105.900225 202.163514 
L 108.167639 203.371652 
L 110.435053 203.964903 
L 112.702467 203.610439 
L 114.969881 202.323382 
L 117.237295 199.959452 
L 119.504709 196.440439 
L 121.772123 192.000807 
L 124.039537 188.67856 
L 126.306951 183.307771 
L 128.574365 175.492718 
L 130.841778 164.378105 
L 133.109192 149.696868 
L 135.376606 131.688818 
L 137.64402 108.839615 
L 139.911434 82.387423 
L 142.178848 58.128438 
L 144.446262 38.8054 
L 146.713676 34.040385 
L 148.98109 43.919781 
L 153.515918 76.829075 
L 155.783332 87.748557 
L 158.050745 92.525913 
L 160.318159 92.063802 
L 162.585573 88.402495 
L 167.120401 79.151665 
L 169.387815 77.684919 
L 171.655229 77.184586 
L 173.922643 75.026532 
L 176.190057 69.94753 
L 178.457471 62.741565 
L 180.724885 57.29305 
L 182.992299 58.282858 
L 185.259712 67.499302 
L 187.527126 81.633336 
L 189.79454 97.518817 
L 192.061954 111.11912 
L 194.329368 121.814003 
L 196.596782 130.347483 
L 198.864196 136.995185 
L 207.933852 158.820774 
L 210.201266 163.533928 
L 212.468679 167.657447 
L 214.736093 171.039623 
L 217.003507 173.494513 
L 219.270921 175.513751 
L 221.538335 176.78388 
L 223.805749 177.269926 
L 226.073163 177.303476 
L 228.340577 177.475263 
L 230.607991 178.507827 
L 232.875405 180.173011 
L 235.142819 181.52775 
L 237.410233 182.298264 
L 239.677647 182.861118 
L 241.94506 183.202189 
L 248.747302 183.436665 
L 251.014716 183.840282 
L 253.28213 184.115813 
L 255.549544 184.055985 
L 257.816958 183.504148 
L 260.084372 182.328692 
L 262.351786 180.217848 
L 264.6192 177.443943 
L 266.886614 174.420811 
L 273.688855 164.353313 
L 275.956269 161.973589 
L 280.491097 157.821904 
L 282.758511 155.909023 
L 285.025925 153.776967 
L 287.293339 150.590659 
L 289.560753 145.614145 
L 291.828167 138.618819 
L 294.095581 129.405497 
L 296.362994 118.430792 
L 298.630408 108.378486 
L 300.897822 103.462538 
L 303.165236 106.585844 
L 305.43265 116.276247 
L 307.700064 128.218906 
L 309.967478 138.87864 
L 312.234892 146.636354 
L 314.502306 151.332338 
L 316.76972 153.163208 
L 319.037134 152.828405 
L 321.304548 152.130694 
L 323.571961 153.31923 
L 325.839375 157.15847 
L 334.909031 178.921671 
L 337.176445 183.206885 
L 339.443859 185.527021 
L 341.711273 185.148911 
L 343.978687 182.392995 
L 346.246101 177.918142 
L 348.513515 172.201901 
L 350.780929 166.000317 
L 353.048342 160.662957 
L 355.315756 157.19323 
L 357.58317 155.889836 
L 359.850584 157.125457 
L 362.117998 161.391134 
L 364.385412 168.168282 
L 366.652826 175.621282 
L 368.92024 181.905676 
L 371.187654 186.293151 
L 373.455068 188.822515 
L 375.722482 189.363817 
L 377.989896 187.785359 
L 380.257309 184.487918 
L 382.524723 180.49435 
L 384.792137 177.022533 
L 387.059551 175.008034 
L 389.326965 174.969977 
L 391.594379 177.054889 
L 393.861793 181.083442 
L 396.129207 186.814258 
L 400.664035 200.281045 
L 402.931449 205.746424 
L 405.198863 210.090702 
L 407.466276 213.791969 
L 409.73369 216.843983 
L 412.001104 219.209903 
L 416.535932 223.249761 
L 418.803346 224.792526 
L 421.07076 225.769329 
L 425.605588 227.142297 
L 427.873002 227.566187 
L 430.140416 227.38255 
L 432.40783 226.476822 
L 434.675243 224.837105 
L 436.942657 222.274751 
L 441.477485 215.445708 
L 443.744899 214.032992 
L 446.012313 215.479216 
L 448.279727 218.885501 
L 450.547141 222.630718 
L 452.814555 225.736157 
L 455.081969 227.888789 
L 457.349383 228.990523 
L 459.616797 229.04991 
L 461.88421 228.31623 
L 466.419038 226.356676 
L 468.686452 225.034098 
L 470.953866 222.969958 
L 473.22128 221.409634 
L 475.488694 222.152723 
L 480.023522 227.456906 
L 482.290936 228.881257 
L 484.55835 229.019285 
L 486.825764 228.46689 
L 491.360591 226.86954 
L 493.628005 226.706149 
L 498.162833 227.6318 
L 500.430247 227.03282 
L 502.697661 225.419209 
L 504.965075 223.413687 
L 507.232489 221.20069 
L 514.034731 213.521979 
L 518.569558 209.87999 
L 520.836972 208.084497 
L 523.104386 206.554566 
L 529.906628 203.264652 
L 534.441456 200.374503 
L 536.70887 199.351555 
L 543.511112 197.189172 
L 548.045939 195.526399 
L 550.313353 194.156491 
L 552.580767 191.799937 
L 554.848181 188.706823 
L 557.115595 185.298307 
L 559.383009 181.348087 
L 561.650423 176.313774 
L 563.917837 170.242539 
L 566.185251 163.558101 
L 568.452665 155.949483 
L 569.36375 152.227856 
L 569.36375 152.227856 
" clip-path="url(#p89d8cb58c0)" style="fill: none; stroke: #7f7f7f; stroke-width: 1.5; stroke-linecap: square"/>
   </g>
   <g id="line2d_21">
    <path d="M -1 226.769887 
L -0.668229 226.538188 
L 1.599185 226.123158 
L 3.866599 224.529801 
L 8.401427 222.607714 
L 10.668841 222.812899 
L 12.936255 222.816431 
L 17.471083 219.877761 
L 22.00591 215.025362 
L 24.273324 213.883274 
L 26.540738 211.88565 
L 28.808152 208.875219 
L 31.075566 207.715352 
L 33.34298 207.680197 
L 35.610394 209.007816 
L 37.877808 210.906783 
L 40.145222 214.3842 
L 42.412636 217.363774 
L 46.947463 220.801642 
L 51.482291 220.961201 
L 53.749705 219.586311 
L 56.017119 217.560091 
L 58.284533 215.383714 
L 60.551947 211.047294 
L 62.819361 207.42247 
L 65.086775 206.01726 
L 67.354189 205.742885 
L 69.621603 207.168988 
L 71.889017 209.370841 
L 74.15643 210.431851 
L 76.423844 211.046025 
L 78.691258 211.406139 
L 80.958672 210.859734 
L 83.226086 209.596495 
L 90.028328 202.920633 
L 92.295742 199.712103 
L 94.563156 195.686428 
L 96.83057 191.22034 
L 99.097984 190.262788 
L 101.365398 193.005493 
L 103.632811 196.139138 
L 105.900225 198.197876 
L 108.167639 199.51055 
L 110.435053 200.252117 
L 112.702467 199.788944 
L 114.969881 198.207104 
L 117.237295 195.678352 
L 119.504709 192.552363 
L 121.772123 188.564085 
L 124.039537 185.294215 
L 126.306951 179.87419 
L 128.574365 172.217701 
L 130.841778 161.483715 
L 133.109192 147.175974 
L 135.376606 129.603086 
L 137.64402 107.348616 
L 139.911434 81.725332 
L 142.178848 58.307798 
L 144.446262 39.312548 
L 146.713676 34.151706 
L 148.98109 43.784286 
L 153.515918 76.489616 
L 155.783332 87.21374 
L 158.050745 91.98999 
L 160.318159 91.886147 
L 162.585573 88.694062 
L 164.852987 84.193367 
L 167.120401 79.269658 
L 169.387815 77.723574 
L 171.655229 77.456373 
L 173.922643 75.426689 
L 176.190057 70.337426 
L 178.457471 63.162972 
L 180.724885 57.737597 
L 182.992299 58.475203 
L 185.259712 66.997315 
L 187.527126 80.526551 
L 189.79454 96.129037 
L 192.061954 109.453527 
L 194.329368 119.68974 
L 196.596782 127.72409 
L 198.864196 134.034541 
L 205.666438 149.686685 
L 210.201266 159.590513 
L 212.468679 163.961545 
L 214.736093 167.416029 
L 217.003507 169.869881 
L 219.270921 172.15908 
L 221.538335 174.045581 
L 223.805749 175.052438 
L 226.073163 175.245388 
L 228.340577 175.567155 
L 230.607991 177.065287 
L 232.875405 179.229556 
L 235.142819 181.015032 
L 237.410233 182.314077 
L 239.677647 183.425115 
L 241.94506 184.137989 
L 244.212474 184.143967 
L 246.479888 183.629728 
L 248.747302 183.237692 
L 251.014716 183.11215 
L 253.28213 182.828516 
L 255.549544 182.086656 
L 260.084372 179.887423 
L 262.351786 178.157723 
L 264.6192 175.645382 
L 266.886614 172.701383 
L 271.421441 166.339717 
L 273.688855 163.516439 
L 275.956269 161.129626 
L 280.491097 156.837945 
L 282.758511 154.817646 
L 285.025925 152.160572 
L 287.293339 148.186285 
L 289.560753 143.020853 
L 291.828167 136.692584 
L 294.095581 128.342916 
L 296.362994 117.941939 
L 298.630408 108.207886 
L 300.897822 103.464275 
L 303.165236 106.293482 
L 305.43265 114.967573 
L 307.700064 125.388978 
L 309.967478 134.677667 
L 312.234892 141.788162 
L 314.502306 146.461652 
L 316.76972 148.648403 
L 319.037134 149.06858 
L 321.304548 149.643503 
L 323.571961 152.662516 
L 325.839375 158.831443 
L 330.374203 175.26344 
L 332.641617 182.27168 
L 334.909031 187.473683 
L 337.176445 190.726355 
L 339.443859 191.845861 
L 341.711273 190.701626 
L 343.978687 187.572279 
L 346.246101 182.886373 
L 350.780929 171.752962 
L 353.048342 167.315182 
L 355.315756 164.077193 
L 357.58317 162.188543 
L 359.850584 162.830918 
L 362.117998 167.109394 
L 366.652826 180.672807 
L 368.92024 185.626362 
L 371.187654 188.583745 
L 373.455068 189.612559 
L 375.722482 188.231441 
L 377.989896 184.192176 
L 380.257309 178.071569 
L 382.524723 171.039216 
L 384.792137 164.383544 
L 387.059551 159.395814 
L 389.326965 157.282064 
L 391.594379 158.588272 
L 393.861793 162.946923 
L 396.129207 169.828473 
L 400.664035 187.675805 
L 402.931449 195.550411 
L 405.198863 201.686334 
L 407.466276 206.511393 
L 409.73369 210.448888 
L 412.001104 213.790898 
L 414.268518 216.768498 
L 416.535932 219.296572 
L 418.803346 221.172204 
L 421.07076 222.596038 
L 423.338174 223.844529 
L 425.605588 224.897505 
L 427.873002 225.545207 
L 430.140416 225.731707 
L 432.40783 225.525077 
L 434.675243 224.763778 
L 436.942657 223.040363 
L 441.477485 217.726227 
L 443.744899 216.55682 
L 446.012313 217.48845 
L 448.279727 219.937424 
L 450.547141 222.911872 
L 452.814555 225.645286 
L 455.081969 227.508477 
L 457.349383 228.185023 
L 459.616797 227.850845 
L 461.88421 226.886013 
L 464.151624 225.597457 
L 466.419038 224.129982 
L 468.686452 222.32042 
L 470.953866 220.161111 
L 473.22128 219.048512 
L 475.488694 220.480615 
L 477.756108 223.505472 
L 480.023522 226.150937 
L 482.290936 227.478246 
L 484.55835 227.547523 
L 486.825764 226.737561 
L 489.093178 225.449218 
L 491.360591 224.437746 
L 493.628005 224.258903 
L 495.895419 224.589248 
L 498.162833 224.650916 
L 500.430247 223.852056 
L 502.697661 222.282814 
L 504.965075 220.233136 
L 507.232489 217.657793 
L 509.499903 214.720478 
L 511.767317 212.181585 
L 514.034731 210.50183 
L 516.302145 209.229936 
L 520.836972 206.299153 
L 523.104386 205.306418 
L 527.639214 204.433288 
L 532.174042 202.89187 
L 534.441456 202.065081 
L 536.70887 201.020697 
L 548.045939 194.17959 
L 550.313353 192.458392 
L 552.580767 190.153087 
L 554.848181 187.321157 
L 557.115595 184.032669 
L 559.383009 179.935524 
L 561.650423 174.880971 
L 563.917837 169.074152 
L 566.185251 162.469989 
L 568.452665 154.61551 
L 569.36375 150.845525 
L 569.36375 150.845525 
" clip-path="url(#p89d8cb58c0)" style="fill: none; stroke: #bcbd22; stroke-width: 1.5; stroke-linecap: square"/>
   </g>
   <g id="line2d_22">
    <path d="M -1 228.720842 
L -0.668229 228.359057 
L 3.866599 225.20672 
L 6.134013 224.737198 
L 8.401427 224.478945 
L 10.668841 225.193886 
L 12.936255 226.14174 
L 15.203669 226.367796 
L 17.471083 226.276325 
L 19.738496 224.021418 
L 22.00591 220.801621 
L 24.273324 218.770712 
L 26.540738 215.68155 
L 28.808152 211.275483 
L 31.075566 208.525757 
L 33.34298 207.471388 
L 35.610394 208.700896 
L 37.877808 211.358619 
L 40.145222 215.161858 
L 42.412636 218.169989 
L 46.947463 221.85061 
L 49.214877 222.191768 
L 51.482291 222.093128 
L 53.749705 220.697729 
L 56.017119 218.948579 
L 58.284533 216.846955 
L 60.551947 211.925787 
L 62.819361 207.531444 
L 65.086775 205.795407 
L 67.354189 206.018552 
L 69.621603 208.191793 
L 71.889017 211.058331 
L 74.15643 212.935961 
L 78.691258 215.818151 
L 80.958672 216.093781 
L 83.226086 215.003881 
L 85.4935 212.669672 
L 87.760914 210.048984 
L 90.028328 207.207792 
L 92.295742 203.089164 
L 96.83057 193.488129 
L 99.097984 192.342705 
L 101.365398 194.925711 
L 103.632811 197.952435 
L 105.900225 200.210363 
L 108.167639 201.892663 
L 110.435053 202.754255 
L 112.702467 202.284024 
L 114.969881 200.990873 
L 117.237295 199.149739 
L 119.504709 196.38514 
L 121.772123 192.157515 
L 124.039537 188.475747 
L 126.306951 183.186026 
L 128.574365 175.794786 
L 130.841778 164.918075 
L 133.109192 150.369075 
L 135.376606 132.866446 
L 137.64402 111.032313 
L 139.911434 85.598943 
L 142.178848 62.026927 
L 144.446262 42.921077 
L 146.713676 37.934042 
L 148.98109 47.317745 
L 153.515918 79.769375 
L 155.783332 90.805858 
L 158.050745 95.935384 
L 160.318159 95.766746 
L 162.585573 92.142576 
L 164.852987 87.465469 
L 167.120401 83.119922 
L 169.387815 81.708974 
L 171.655229 81.124128 
L 173.922643 78.843651 
L 176.190057 73.820478 
L 178.457471 66.844096 
L 180.724885 61.32484 
L 182.992299 61.597844 
L 185.259712 70.007396 
L 187.527126 83.737881 
L 189.79454 99.330266 
L 192.061954 112.351488 
L 194.329368 122.268156 
L 196.596782 130.336357 
L 198.864196 136.739372 
L 207.933852 157.202078 
L 210.201266 162.275579 
L 212.468679 166.532663 
L 214.736093 169.951369 
L 219.270921 175.430946 
L 221.538335 177.440366 
L 223.805749 178.360075 
L 226.073163 178.670611 
L 228.340577 179.328953 
L 230.607991 181.033921 
L 232.875405 183.388447 
L 235.142819 185.514593 
L 237.410233 187.156801 
L 239.677647 188.462718 
L 241.94506 189.042919 
L 244.212474 188.716702 
L 246.479888 188.071405 
L 251.014716 187.36107 
L 253.28213 186.525866 
L 255.549544 185.448283 
L 260.084372 183.466973 
L 262.351786 181.580983 
L 266.886614 176.15857 
L 269.154027 173.318437 
L 273.688855 167.228645 
L 275.956269 164.819685 
L 280.491097 160.977536 
L 282.758511 158.745255 
L 285.025925 155.975055 
L 287.293339 152.375179 
L 289.560753 147.547126 
L 291.828167 140.929659 
L 294.095581 132.07686 
L 296.362994 121.633685 
L 298.630408 112.265906 
L 300.897822 107.598571 
L 303.165236 109.941311 
L 305.43265 118.061442 
L 307.700064 128.223818 
L 309.967478 137.254971 
L 312.234892 143.776404 
L 314.502306 147.893212 
L 316.76972 150.177781 
L 319.037134 151.320381 
L 321.304548 152.59075 
L 323.571961 156.038078 
L 325.839375 163.09067 
L 330.374203 182.737797 
L 332.641617 190.287165 
L 334.909031 195.281036 
L 337.176445 198.279664 
L 339.443859 199.228535 
L 341.711273 197.663813 
L 343.978687 193.841645 
L 350.780929 178.39946 
L 353.048342 174.101366 
L 355.315756 170.676249 
L 357.58317 168.777983 
L 359.850584 169.662398 
L 362.117998 174.024773 
L 366.652826 186.879896 
L 368.92024 191.515608 
L 371.187654 193.934074 
L 373.455068 193.888304 
L 375.722482 191.240685 
L 377.989896 186.185994 
L 380.257309 179.056839 
L 384.792137 162.009136 
L 387.059551 155.704832 
L 389.326965 153.087705 
L 391.594379 154.121874 
L 393.861793 158.168063 
L 396.129207 165.315576 
L 398.396621 175.20272 
L 400.664035 185.7455 
L 402.931449 194.593395 
L 405.198863 201.218004 
L 407.466276 206.567167 
L 409.73369 211.263044 
L 412.001104 215.210726 
L 414.268518 218.334904 
L 416.535932 220.898157 
L 418.803346 223.150599 
L 421.07076 225.02435 
L 423.338174 226.369449 
L 425.605588 227.333419 
L 427.873002 228.142777 
L 430.140416 228.791203 
L 432.40783 228.951596 
L 434.675243 228.260039 
L 436.942657 226.746842 
L 441.477485 222.56887 
L 443.744899 221.19855 
L 446.012313 221.586938 
L 448.279727 223.80733 
L 450.547141 226.804692 
L 452.814555 229.369719 
L 455.081969 230.841726 
L 457.349383 231.311314 
L 459.616797 231.198102 
L 461.88421 230.542924 
L 464.151624 229.210806 
L 468.686452 225.589905 
L 470.953866 223.511056 
L 473.22128 222.26472 
L 475.488694 223.436188 
L 480.023522 229.439538 
L 482.290936 231.068832 
L 484.55835 231.003079 
L 489.093178 228.74178 
L 491.360591 228.099002 
L 498.162833 227.577501 
L 500.430247 226.720333 
L 502.697661 224.97253 
L 504.965075 222.324927 
L 507.232489 219.137242 
L 509.499903 216.211973 
L 511.767317 214.109063 
L 516.302145 211.165562 
L 518.569558 209.889401 
L 520.836972 208.978368 
L 523.104386 208.449543 
L 527.639214 207.757374 
L 532.174042 207.441332 
L 534.441456 206.721654 
L 536.70887 205.342151 
L 543.511112 200.822802 
L 545.778525 198.918539 
L 548.045939 197.185865 
L 550.313353 195.752425 
L 552.580767 193.830211 
L 554.848181 190.931302 
L 557.115595 187.367076 
L 559.383009 183.386602 
L 561.650423 178.68634 
L 563.917837 172.888459 
L 566.185251 165.967588 
L 568.452665 157.988897 
L 569.36375 154.323798 
L 569.36375 154.323798 
" clip-path="url(#p89d8cb58c0)" style="fill: none; stroke: #17becf; stroke-width: 1.5; stroke-linecap: square"/>
   </g>
   <g id="line2d_23">
    <path d="M 353.948679 242.918125 
L 353.948679 22.318125 
" clip-path="url(#p89d8cb58c0)" style="fill: none; stroke-dasharray: 3.7,1.6; stroke-dashoffset: 0; stroke: #808080"/>
   </g>
   <g id="line2d_24">
    <path d="M 373.410164 242.918125 
L 373.410164 22.318125 
" clip-path="url(#p89d8cb58c0)" style="fill: none; stroke-dasharray: 3.7,1.6; stroke-dashoffset: 0; stroke: #808080"/>
   </g>
   <g id="line2d_25">
    <path d="M 54.728336 242.918125 
L 54.728336 22.318125 
" clip-path="url(#p89d8cb58c0)" style="fill: none; stroke-dasharray: 3.7,1.6; stroke-dashoffset: 0; stroke: #808080"/>
   </g>
   <g id="line2d_26">
    <path d="M 71.757136 242.918125 
L 71.757136 22.318125 
" clip-path="url(#p89d8cb58c0)" style="fill: none; stroke-dasharray: 3.7,1.6; stroke-dashoffset: 0; stroke: #808080"/>
   </g>
   <g id="patch_3">
    <path d="M 43.78125 242.918125 
L 43.78125 22.318125 
" style="fill: none; stroke: #000000; stroke-width: 0.8; stroke-linejoin: miter; stroke-linecap: square"/>
   </g>
   <g id="patch_4">
    <path d="M 469.50125 242.918125 
L 469.50125 22.318125 
" style="fill: none; stroke: #000000; stroke-width: 0.8; stroke-linejoin: miter; stroke-linecap: square"/>
   </g>
   <g id="patch_5">
    <path d="M 43.78125 242.918125 
L 469.50125 242.918125 
" style="fill: none; stroke: #000000; stroke-width: 0.8; stroke-linejoin: miter; stroke-linecap: square"/>
   </g>
   <g id="patch_6">
    <path d="M 43.78125 22.318125 
L 469.50125 22.318125 
" style="fill: none; stroke: #000000; stroke-width: 0.8; stroke-linejoin: miter; stroke-linecap: square"/>
   </g>
   <g id="text_15">
    <!-- In-situ IR spectra for C2_E4 -->
    <g transform="translate(175.103125 16.318125) scale(0.12 -0.12)">
     <defs>
      <path id="DejaVuSans-49" d="M 628 4666 
L 1259 4666 
L 1259 0 
L 628 0 
L 628 4666 
z
" transform="scale(0.015625)"/>
      <path id="DejaVuSans-2d" d="M 313 2009 
L 1997 2009 
L 1997 1497 
L 313 1497 
L 313 2009 
z
" transform="scale(0.015625)"/>
      <path id="DejaVuSans-69" d="M 603 3500 
L 1178 3500 
L 1178 0 
L 603 0 
L 603 3500 
z
M 603 4863 
L 1178 4863 
L 1178 4134 
L 603 4134 
L 603 4863 
z
" transform="scale(0.015625)"/>
      <path id="DejaVuSans-74" d="M 1172 4494 
L 1172 3500 
L 2356 3500 
L 2356 3053 
L 1172 3053 
L 1172 1153 
Q 1172 725 1289 603 
Q 1406 481 1766 481 
L 2356 481 
L 2356 0 
L 1766 0 
Q 1100 0 847 248 
Q 594 497 594 1153 
L 594 3053 
L 172 3053 
L 172 3500 
L 594 3500 
L 594 4494 
L 1172 4494 
z
" transform="scale(0.015625)"/>
      <path id="DejaVuSans-52" d="M 2841 2188 
Q 3044 2119 3236 1894 
Q 3428 1669 3622 1275 
L 4263 0 
L 3584 0 
L 2988 1197 
Q 2756 1666 2539 1819 
Q 2322 1972 1947 1972 
L 1259 1972 
L 1259 0 
L 628 0 
L 628 4666 
L 2053 4666 
Q 2853 4666 3247 4331 
Q 3641 3997 3641 3322 
Q 3641 2881 3436 2590 
Q 3231 2300 2841 2188 
z
M 1259 4147 
L 1259 2491 
L 2053 2491 
Q 2509 2491 2742 2702 
Q 2975 2913 2975 3322 
Q 2975 3731 2742 3939 
Q 2509 4147 2053 4147 
L 1259 4147 
z
" transform="scale(0.015625)"/>
      <path id="DejaVuSans-70" d="M 1159 525 
L 1159 -1331 
L 581 -1331 
L 581 3500 
L 1159 3500 
L 1159 2969 
Q 1341 3281 1617 3432 
Q 1894 3584 2278 3584 
Q 2916 3584 3314 3078 
Q 3713 2572 3713 1747 
Q 3713 922 3314 415 
Q 2916 -91 2278 -91 
Q 1894 -91 1617 61 
Q 1341 213 1159 525 
z
M 3116 1747 
Q 3116 2381 2855 2742 
Q 2594 3103 2138 3103 
Q 1681 3103 1420 2742 
Q 1159 2381 1159 1747 
Q 1159 1113 1420 752 
Q 1681 391 2138 391 
Q 2594 391 2855 752 
Q 3116 1113 3116 1747 
z
" transform="scale(0.015625)"/>
      <path id="DejaVuSans-66" d="M 2375 4863 
L 2375 4384 
L 1825 4384 
Q 1516 4384 1395 4259 
Q 1275 4134 1275 3809 
L 1275 3500 
L 2222 3500 
L 2222 3053 
L 1275 3053 
L 1275 0 
L 697 0 
L 697 3053 
L 147 3053 
L 147 3500 
L 697 3500 
L 697 3744 
Q 697 4328 969 4595 
Q 1241 4863 1831 4863 
L 2375 4863 
z
" transform="scale(0.015625)"/>
      <path id="DejaVuSans-43" d="M 4122 4306 
L 4122 3641 
Q 3803 3938 3442 4084 
Q 3081 4231 2675 4231 
Q 1875 4231 1450 3742 
Q 1025 3253 1025 2328 
Q 1025 1406 1450 917 
Q 1875 428 2675 428 
Q 3081 428 3442 575 
Q 3803 722 4122 1019 
L 4122 359 
Q 3791 134 3420 21 
Q 3050 -91 2638 -91 
Q 1578 -91 968 557 
Q 359 1206 359 2328 
Q 359 3453 968 4101 
Q 1578 4750 2638 4750 
Q 3056 4750 3426 4639 
Q 3797 4528 4122 4306 
z
" transform="scale(0.015625)"/>
      <path id="DejaVuSans-5f" d="M 3263 -1063 
L 3263 -1509 
L -63 -1509 
L -63 -1063 
L 3263 -1063 
z
" transform="scale(0.015625)"/>
      <path id="DejaVuSans-45" d="M 628 4666 
L 3578 4666 
L 3578 4134 
L 1259 4134 
L 1259 2753 
L 3481 2753 
L 3481 2222 
L 1259 2222 
L 1259 531 
L 3634 531 
L 3634 0 
L 628 0 
L 628 4666 
z
" transform="scale(0.015625)"/>
     </defs>
     <use xlink:href="#DejaVuSans-49"/>
     <use xlink:href="#DejaVuSans-6e" transform="translate(29.492188 0)"/>
     <use xlink:href="#DejaVuSans-2d" transform="translate(92.871094 0)"/>
     <use xlink:href="#DejaVuSans-73" transform="translate(128.955078 0)"/>
     <use xlink:href="#DejaVuSans-69" transform="translate(181.054688 0)"/>
     <use xlink:href="#DejaVuSans-74" transform="translate(208.837891 0)"/>
     <use xlink:href="#DejaVuSans-75" transform="translate(248.046875 0)"/>
     <use xlink:href="#DejaVuSans-20" transform="translate(311.425781 0)"/>
     <use xlink:href="#DejaVuSans-49" transform="translate(343.212891 0)"/>
     <use xlink:href="#DejaVuSans-52" transform="translate(372.705078 0)"/>
     <use xlink:href="#DejaVuSans-20" transform="translate(442.1875 0)"/>
     <use xlink:href="#DejaVuSans-73" transform="translate(473.974609 0)"/>
     <use xlink:href="#DejaVuSans-70" transform="translate(526.074219 0)"/>
     <use xlink:href="#DejaVuSans-65" transform="translate(589.550781 0)"/>
     <use xlink:href="#DejaVuSans-63" transform="translate(651.074219 0)"/>
     <use xlink:href="#DejaVuSans-74" transform="translate(706.054688 0)"/>
     <use xlink:href="#DejaVuSans-72" transform="translate(745.263672 0)"/>
     <use xlink:href="#DejaVuSans-61" transform="translate(786.376953 0)"/>
     <use xlink:href="#DejaVuSans-20" transform="translate(847.65625 0)"/>
     <use xlink:href="#DejaVuSans-66" transform="translate(879.443359 0)"/>
     <use xlink:href="#DejaVuSans-6f" transform="translate(914.648438 0)"/>
     <use xlink:href="#DejaVuSans-72" transform="translate(975.830078 0)"/>
     <use xlink:href="#DejaVuSans-20" transform="translate(1016.943359 0)"/>
     <use xlink:href="#DejaVuSans-43" transform="translate(1048.730469 0)"/>
     <use xlink:href="#DejaVuSans-32" transform="translate(1118.554688 0)"/>
     <use xlink:href="#DejaVuSans-5f" transform="translate(1182.177734 0)"/>
     <use xlink:href="#DejaVuSans-45" transform="translate(1232.177734 0)"/>
     <use xlink:href="#DejaVuSans-34" transform="translate(1295.361328 0)"/>
    </g>
   </g>
   <g id="legend_1">
    <g id="patch_7">
     <path d="M 476.50125 177.099375 
L 559.16375 177.099375 
Q 561.16375 177.099375 561.16375 175.099375 
L 561.16375 29.318125 
Q 561.16375 27.318125 559.16375 27.318125 
L 476.50125 27.318125 
Q 474.50125 27.318125 474.50125 29.318125 
L 474.50125 175.099375 
Q 474.50125 177.099375 476.50125 177.099375 
z
" style="fill: #ffffff; opacity: 0.8; stroke: #cccccc; stroke-linejoin: miter"/>
    </g>
    <g id="line2d_27">
     <path d="M 478.50125 35.416562 
L 488.50125 35.416562 
L 498.50125 35.416562 
" style="fill: none; stroke: #1f77b4; stroke-width: 1.5; stroke-linecap: square"/>
    </g>
    <g id="text_16">
     <!-- 1.8 min -->
     <g transform="translate(506.50125 38.916562) scale(0.1 -0.1)">
      <defs>
       <path id="DejaVuSans-38" d="M 2034 2216 
Q 1584 2216 1326 1975 
Q 1069 1734 1069 1313 
Q 1069 891 1326 650 
Q 1584 409 2034 409 
Q 2484 409 2743 651 
Q 3003 894 3003 1313 
Q 3003 1734 2745 1975 
Q 2488 2216 2034 2216 
z
M 1403 2484 
Q 997 2584 770 2862 
Q 544 3141 544 3541 
Q 544 4100 942 4425 
Q 1341 4750 2034 4750 
Q 2731 4750 3128 4425 
Q 3525 4100 3525 3541 
Q 3525 3141 3298 2862 
Q 3072 2584 2669 2484 
Q 3125 2378 3379 2068 
Q 3634 1759 3634 1313 
Q 3634 634 3220 271 
Q 2806 -91 2034 -91 
Q 1263 -91 848 271 
Q 434 634 434 1313 
Q 434 1759 690 2068 
Q 947 2378 1403 2484 
z
M 1172 3481 
Q 1172 3119 1398 2916 
Q 1625 2713 2034 2713 
Q 2441 2713 2670 2916 
Q 2900 3119 2900 3481 
Q 2900 3844 2670 4047 
Q 2441 4250 2034 4250 
Q 1625 4250 1398 4047 
Q 1172 3844 1172 3481 
z
" transform="scale(0.015625)"/>
      </defs>
      <use xlink:href="#DejaVuSans-31"/>
      <use xlink:href="#DejaVuSans-2e" transform="translate(63.623047 0)"/>
      <use xlink:href="#DejaVuSans-38" transform="translate(95.410156 0)"/>
      <use xlink:href="#DejaVuSans-20" transform="translate(159.033203 0)"/>
      <use xlink:href="#DejaVuSans-6d" transform="translate(190.820312 0)"/>
      <use xlink:href="#DejaVuSans-69" transform="translate(288.232422 0)"/>
      <use xlink:href="#DejaVuSans-6e" transform="translate(316.015625 0)"/>
     </g>
    </g>
    <g id="line2d_28">
     <path d="M 478.50125 50.094688 
L 488.50125 50.094688 
L 498.50125 50.094688 
" style="fill: none; stroke: #ff7f0e; stroke-width: 1.5; stroke-linecap: square"/>
    </g>
    <g id="text_17">
     <!-- 4.5 min -->
     <g transform="translate(506.50125 53.594688) scale(0.1 -0.1)">
      <use xlink:href="#DejaVuSans-34"/>
      <use xlink:href="#DejaVuSans-2e" transform="translate(63.623047 0)"/>
      <use xlink:href="#DejaVuSans-35" transform="translate(95.410156 0)"/>
      <use xlink:href="#DejaVuSans-20" transform="translate(159.033203 0)"/>
      <use xlink:href="#DejaVuSans-6d" transform="translate(190.820312 0)"/>
      <use xlink:href="#DejaVuSans-69" transform="translate(288.232422 0)"/>
      <use xlink:href="#DejaVuSans-6e" transform="translate(316.015625 0)"/>
     </g>
    </g>
    <g id="line2d_29">
     <path d="M 478.50125 64.772813 
L 488.50125 64.772813 
L 498.50125 64.772813 
" style="fill: none; stroke: #2ca02c; stroke-width: 1.5; stroke-linecap: square"/>
    </g>
    <g id="text_18">
     <!-- 29.5 min -->
     <g transform="translate(506.50125 68.272813) scale(0.1 -0.1)">
      <defs>
       <path id="DejaVuSans-39" d="M 703 97 
L 703 672 
Q 941 559 1184 500 
Q 1428 441 1663 441 
Q 2288 441 2617 861 
Q 2947 1281 2994 2138 
Q 2813 1869 2534 1725 
Q 2256 1581 1919 1581 
Q 1219 1581 811 2004 
Q 403 2428 403 3163 
Q 403 3881 828 4315 
Q 1253 4750 1959 4750 
Q 2769 4750 3195 4129 
Q 3622 3509 3622 2328 
Q 3622 1225 3098 567 
Q 2575 -91 1691 -91 
Q 1453 -91 1209 -44 
Q 966 3 703 97 
z
M 1959 2075 
Q 2384 2075 2632 2365 
Q 2881 2656 2881 3163 
Q 2881 3666 2632 3958 
Q 2384 4250 1959 4250 
Q 1534 4250 1286 3958 
Q 1038 3666 1038 3163 
Q 1038 2656 1286 2365 
Q 1534 2075 1959 2075 
z
" transform="scale(0.015625)"/>
      </defs>
      <use xlink:href="#DejaVuSans-32"/>
      <use xlink:href="#DejaVuSans-39" transform="translate(63.623047 0)"/>
      <use xlink:href="#DejaVuSans-2e" transform="translate(127.246094 0)"/>
      <use xlink:href="#DejaVuSans-35" transform="translate(159.033203 0)"/>
      <use xlink:href="#DejaVuSans-20" transform="translate(222.65625 0)"/>
      <use xlink:href="#DejaVuSans-6d" transform="translate(254.443359 0)"/>
      <use xlink:href="#DejaVuSans-69" transform="translate(351.855469 0)"/>
      <use xlink:href="#DejaVuSans-6e" transform="translate(379.638672 0)"/>
     </g>
    </g>
    <g id="line2d_30">
     <path d="M 478.50125 79.450938 
L 488.50125 79.450938 
L 498.50125 79.450938 
" style="fill: none; stroke: #d62728; stroke-width: 1.5; stroke-linecap: square"/>
    </g>
    <g id="text_19">
     <!-- 36.5 min -->
     <g transform="translate(506.50125 82.950938) scale(0.1 -0.1)">
      <defs>
       <path id="DejaVuSans-36" d="M 2113 2584 
Q 1688 2584 1439 2293 
Q 1191 2003 1191 1497 
Q 1191 994 1439 701 
Q 1688 409 2113 409 
Q 2538 409 2786 701 
Q 3034 994 3034 1497 
Q 3034 2003 2786 2293 
Q 2538 2584 2113 2584 
z
M 3366 4563 
L 3366 3988 
Q 3128 4100 2886 4159 
Q 2644 4219 2406 4219 
Q 1781 4219 1451 3797 
Q 1122 3375 1075 2522 
Q 1259 2794 1537 2939 
Q 1816 3084 2150 3084 
Q 2853 3084 3261 2657 
Q 3669 2231 3669 1497 
Q 3669 778 3244 343 
Q 2819 -91 2113 -91 
Q 1303 -91 875 529 
Q 447 1150 447 2328 
Q 447 3434 972 4092 
Q 1497 4750 2381 4750 
Q 2619 4750 2861 4703 
Q 3103 4656 3366 4563 
z
" transform="scale(0.015625)"/>
      </defs>
      <use xlink:href="#DejaVuSans-33"/>
      <use xlink:href="#DejaVuSans-36" transform="translate(63.623047 0)"/>
      <use xlink:href="#DejaVuSans-2e" transform="translate(127.246094 0)"/>
      <use xlink:href="#DejaVuSans-35" transform="translate(159.033203 0)"/>
      <use xlink:href="#DejaVuSans-20" transform="translate(222.65625 0)"/>
      <use xlink:href="#DejaVuSans-6d" transform="translate(254.443359 0)"/>
      <use xlink:href="#DejaVuSans-69" transform="translate(351.855469 0)"/>
      <use xlink:href="#DejaVuSans-6e" transform="translate(379.638672 0)"/>
     </g>
    </g>
    <g id="line2d_31">
     <path d="M 478.50125 94.129063 
L 488.50125 94.129063 
L 498.50125 94.129063 
" style="fill: none; stroke: #9467bd; stroke-width: 1.5; stroke-linecap: square"/>
    </g>
    <g id="text_20">
     <!-- 55.1 min -->
     <g transform="translate(506.50125 97.629063) scale(0.1 -0.1)">
      <use xlink:href="#DejaVuSans-35"/>
      <use xlink:href="#DejaVuSans-35" transform="translate(63.623047 0)"/>
      <use xlink:href="#DejaVuSans-2e" transform="translate(127.246094 0)"/>
      <use xlink:href="#DejaVuSans-31" transform="translate(159.033203 0)"/>
      <use xlink:href="#DejaVuSans-20" transform="translate(222.65625 0)"/>
      <use xlink:href="#DejaVuSans-6d" transform="translate(254.443359 0)"/>
      <use xlink:href="#DejaVuSans-69" transform="translate(351.855469 0)"/>
      <use xlink:href="#DejaVuSans-6e" transform="translate(379.638672 0)"/>
     </g>
    </g>
    <g id="line2d_32">
     <path d="M 478.50125 108.807187 
L 488.50125 108.807187 
L 498.50125 108.807187 
" style="fill: none; stroke: #8c564b; stroke-width: 1.5; stroke-linecap: square"/>
    </g>
    <g id="text_21">
     <!-- 99.1 min -->
     <g transform="translate(506.50125 112.307187) scale(0.1 -0.1)">
      <use xlink:href="#DejaVuSans-39"/>
      <use xlink:href="#DejaVuSans-39" transform="translate(63.623047 0)"/>
      <use xlink:href="#DejaVuSans-2e" transform="translate(127.246094 0)"/>
      <use xlink:href="#DejaVuSans-31" transform="translate(159.033203 0)"/>
      <use xlink:href="#DejaVuSans-20" transform="translate(222.65625 0)"/>
      <use xlink:href="#DejaVuSans-6d" transform="translate(254.443359 0)"/>
      <use xlink:href="#DejaVuSans-69" transform="translate(351.855469 0)"/>
      <use xlink:href="#DejaVuSans-6e" transform="translate(379.638672 0)"/>
     </g>
    </g>
    <g id="line2d_33">
     <path d="M 478.50125 123.485313 
L 488.50125 123.485313 
L 498.50125 123.485313 
" style="fill: none; stroke: #e377c2; stroke-width: 1.5; stroke-linecap: square"/>
    </g>
    <g id="text_22">
     <!-- 184.3 min -->
     <g transform="translate(506.50125 126.985313) scale(0.1 -0.1)">
      <use xlink:href="#DejaVuSans-31"/>
      <use xlink:href="#DejaVuSans-38" transform="translate(63.623047 0)"/>
      <use xlink:href="#DejaVuSans-34" transform="translate(127.246094 0)"/>
      <use xlink:href="#DejaVuSans-2e" transform="translate(190.869141 0)"/>
      <use xlink:href="#DejaVuSans-33" transform="translate(222.65625 0)"/>
      <use xlink:href="#DejaVuSans-20" transform="translate(286.279297 0)"/>
      <use xlink:href="#DejaVuSans-6d" transform="translate(318.066406 0)"/>
      <use xlink:href="#DejaVuSans-69" transform="translate(415.478516 0)"/>
      <use xlink:href="#DejaVuSans-6e" transform="translate(443.261719 0)"/>
     </g>
    </g>
    <g id="line2d_34">
     <path d="M 478.50125 138.163437 
L 488.50125 138.163437 
L 498.50125 138.163437 
" style="fill: none; stroke: #7f7f7f; stroke-width: 1.5; stroke-linecap: square"/>
    </g>
    <g id="text_23">
     <!-- 225.8 min -->
     <g transform="translate(506.50125 141.663437) scale(0.1 -0.1)">
      <use xlink:href="#DejaVuSans-32"/>
      <use xlink:href="#DejaVuSans-32" transform="translate(63.623047 0)"/>
      <use xlink:href="#DejaVuSans-35" transform="translate(127.246094 0)"/>
      <use xlink:href="#DejaVuSans-2e" transform="translate(190.869141 0)"/>
      <use xlink:href="#DejaVuSans-38" transform="translate(222.65625 0)"/>
      <use xlink:href="#DejaVuSans-20" transform="translate(286.279297 0)"/>
      <use xlink:href="#DejaVuSans-6d" transform="translate(318.066406 0)"/>
      <use xlink:href="#DejaVuSans-69" transform="translate(415.478516 0)"/>
      <use xlink:href="#DejaVuSans-6e" transform="translate(443.261719 0)"/>
     </g>
    </g>
    <g id="line2d_35">
     <path d="M 478.50125 152.841563 
L 488.50125 152.841563 
L 498.50125 152.841563 
" style="fill: none; stroke: #bcbd22; stroke-width: 1.5; stroke-linecap: square"/>
    </g>
    <g id="text_24">
     <!-- 344.6 min -->
     <g transform="translate(506.50125 156.341563) scale(0.1 -0.1)">
      <use xlink:href="#DejaVuSans-33"/>
      <use xlink:href="#DejaVuSans-34" transform="translate(63.623047 0)"/>
      <use xlink:href="#DejaVuSans-34" transform="translate(127.246094 0)"/>
      <use xlink:href="#DejaVuSans-2e" transform="translate(190.869141 0)"/>
      <use xlink:href="#DejaVuSans-36" transform="translate(222.65625 0)"/>
      <use xlink:href="#DejaVuSans-20" transform="translate(286.279297 0)"/>
      <use xlink:href="#DejaVuSans-6d" transform="translate(318.066406 0)"/>
      <use xlink:href="#DejaVuSans-69" transform="translate(415.478516 0)"/>
      <use xlink:href="#DejaVuSans-6e" transform="translate(443.261719 0)"/>
     </g>
    </g>
    <g id="line2d_36">
     <path d="M 478.50125 167.519687 
L 488.50125 167.519687 
L 498.50125 167.519687 
" style="fill: none; stroke: #17becf; stroke-width: 1.5; stroke-linecap: square"/>
    </g>
    <g id="text_25">
     <!-- 601.9 min -->
     <g transform="translate(506.50125 171.019687) scale(0.1 -0.1)">
      <use xlink:href="#DejaVuSans-36"/>
      <use xlink:href="#DejaVuSans-30" transform="translate(63.623047 0)"/>
      <use xlink:href="#DejaVuSans-31" transform="translate(127.246094 0)"/>
      <use xlink:href="#DejaVuSans-2e" transform="translate(190.869141 0)"/>
      <use xlink:href="#DejaVuSans-39" transform="translate(222.65625 0)"/>
      <use xlink:href="#DejaVuSans-20" transform="translate(286.279297 0)"/>
      <use xlink:href="#DejaVuSans-6d" transform="translate(318.066406 0)"/>
      <use xlink:href="#DejaVuSans-69" transform="translate(415.478516 0)"/>
      <use xlink:href="#DejaVuSans-6e" transform="translate(443.261719 0)"/>
     </g>
    </g>
   </g>
  </g>
 </g>
 <defs>
  <clipPath id="p89d8cb58c0">
   <rect x="43.78125" y="22.318125" width="425.72" height="220.6"/>
  </clipPath>
 </defs>
</svg>
