<?xml version="1.0" encoding="utf-8" standalone="no"?>
<!DOCTYPE svg PUBLIC "-//W3C//DTD SVG 1.1//EN"
  "http://www.w3.org/Graphics/SVG/1.1/DTD/svg11.dtd">
<svg xmlns:xlink="http://www.w3.org/1999/xlink" width="510.73625pt" height="280.474375pt" viewBox="0 0 510.73625 280.474375" xmlns="http://www.w3.org/2000/svg" version="1.1">
 <metadata>
  <rdf:RDF xmlns:dc="http://purl.org/dc/elements/1.1/" xmlns:cc="http://creativecommons.org/ns#" xmlns:rdf="http://www.w3.org/1999/02/22-rdf-syntax-ns#">
   <cc:Work>
    <dc:type rdf:resource="http://purl.org/dc/dcmitype/StillImage"/>
    <dc:date>2026-01-13T16:26:14.279928</dc:date>
    <dc:format>image/svg+xml</dc:format>
    <dc:creator>
     <cc:Agent>
      <dc:title>Matplotlib v3.10.0, https://matplotlib.org/</dc:title>
     </cc:Agent>
    </dc:creator>
   </cc:Work>
  </rdf:RDF>
 </metadata>
 <defs>
  <style type="text/css">*{stroke-linejoin: round; stroke-linecap: butt}</style>
 </defs>
 <g id="figure_1">
  <g id="patch_1">
   <path d="M 0 280.474375 
L 510.73625 280.474375 
L 510.73625 0 
L 0 0 
z
" style="fill: #ffffff"/>
  </g>
  <g id="axes_1">
   <g id="patch_2">
    <path d="M 50.14375 242.918125 
L 411.87375 242.918125 
L 411.87375 22.318125 
L 50.14375 22.318125 
z
" style="fill: #ffffff"/>
   </g>
   <g id="matplotlib.axis_1">
    <g id="xtick_1">
     <g id="line2d_1">
      <defs>
       <path id="m28191edbdf" d="M 0 0 
L 0 3.5 
" style="stroke: #000000; stroke-width: 0.8"/>
      </defs>
      <g>
       <use xlink:href="#m28191edbdf" x="411.87375" y="242.918125" style="stroke: #000000; stroke-width: 0.8"/>
      </g>
     </g>
     <g id="text_1">
      <!-- 1110 -->
      <g transform="translate(399.14875 257.516563) scale(0.1 -0.1)">
       <defs>
        <path id="DejaVuSans-31" d="M 794 531 
L 1825 531 
L 1825 4091 
L 703 3866 
L 703 4441 
L 1819 4666 
L 2450 4666 
L 2450 531 
L 3481 531 
L 3481 0 
L 794 0 
L 794 531 
z
" transform="scale(0.015625)"/>
        <path id="DejaVuSans-30" d="M 2034 4250 
Q 1547 4250 1301 3770 
Q 1056 3291 1056 2328 
Q 1056 1369 1301 889 
Q 1547 409 2034 409 
Q 2525 409 2770 889 
Q 3016 1369 3016 2328 
Q 3016 3291 2770 3770 
Q 2525 4250 2034 4250 
z
M 2034 4750 
Q 2819 4750 3233 4129 
Q 3647 3509 3647 2328 
Q 3647 1150 3233 529 
Q 2819 -91 2034 -91 
Q 1250 -91 836 529 
Q 422 1150 422 2328 
Q 422 3509 836 4129 
Q 1250 4750 2034 4750 
z
" transform="scale(0.015625)"/>
       </defs>
       <use xlink:href="#DejaVuSans-31"/>
       <use xlink:href="#DejaVuSans-31" transform="translate(63.623047 0)"/>
       <use xlink:href="#DejaVuSans-31" transform="translate(127.246094 0)"/>
       <use xlink:href="#DejaVuSans-30" transform="translate(190.869141 0)"/>
      </g>
     </g>
    </g>
    <g id="xtick_2">
     <g id="line2d_2">
      <g>
       <use xlink:href="#m28191edbdf" x="360.198036" y="242.918125" style="stroke: #000000; stroke-width: 0.8"/>
      </g>
     </g>
     <g id="text_2">
      <!-- 1120 -->
      <g transform="translate(347.473036 257.516563) scale(0.1 -0.1)">
       <defs>
        <path id="DejaVuSans-32" d="M 1228 531 
L 3431 531 
L 3431 0 
L 469 0 
L 469 531 
Q 828 903 1448 1529 
Q 2069 2156 2228 2338 
Q 2531 2678 2651 2914 
Q 2772 3150 2772 3378 
Q 2772 3750 2511 3984 
Q 2250 4219 1831 4219 
Q 1534 4219 1204 4116 
Q 875 4013 500 3803 
L 500 4441 
Q 881 4594 1212 4672 
Q 1544 4750 1819 4750 
Q 2544 4750 2975 4387 
Q 3406 4025 3406 3419 
Q 3406 3131 3298 2873 
Q 3191 2616 2906 2266 
Q 2828 2175 2409 1742 
Q 1991 1309 1228 531 
z
" transform="scale(0.015625)"/>
       </defs>
       <use xlink:href="#DejaVuSans-31"/>
       <use xlink:href="#DejaVuSans-31" transform="translate(63.623047 0)"/>
       <use xlink:href="#DejaVuSans-32" transform="translate(127.246094 0)"/>
       <use xlink:href="#DejaVuSans-30" transform="translate(190.869141 0)"/>
      </g>
     </g>
    </g>
    <g id="xtick_3">
     <g id="line2d_3">
      <g>
       <use xlink:href="#m28191edbdf" x="308.522321" y="242.918125" style="stroke: #000000; stroke-width: 0.8"/>
      </g>
     </g>
     <g id="text_3">
      <!-- 1130 -->
      <g transform="translate(295.797321 257.516563) scale(0.1 -0.1)">
       <defs>
        <path id="DejaVuSans-33" d="M 2597 2516 
Q 3050 2419 3304 2112 
Q 3559 1806 3559 1356 
Q 3559 666 3084 287 
Q 2609 -91 1734 -91 
Q 1441 -91 1130 -33 
Q 819 25 488 141 
L 488 750 
Q 750 597 1062 519 
Q 1375 441 1716 441 
Q 2309 441 2620 675 
Q 2931 909 2931 1356 
Q 2931 1769 2642 2001 
Q 2353 2234 1838 2234 
L 1294 2234 
L 1294 2753 
L 1863 2753 
Q 2328 2753 2575 2939 
Q 2822 3125 2822 3475 
Q 2822 3834 2567 4026 
Q 2313 4219 1838 4219 
Q 1578 4219 1281 4162 
Q 984 4106 628 3988 
L 628 4550 
Q 988 4650 1302 4700 
Q 1616 4750 1894 4750 
Q 2613 4750 3031 4423 
Q 3450 4097 3450 3541 
Q 3450 3153 3228 2886 
Q 3006 2619 2597 2516 
z
" transform="scale(0.015625)"/>
       </defs>
       <use xlink:href="#DejaVuSans-31"/>
       <use xlink:href="#DejaVuSans-31" transform="translate(63.623047 0)"/>
       <use xlink:href="#DejaVuSans-33" transform="translate(127.246094 0)"/>
       <use xlink:href="#DejaVuSans-30" transform="translate(190.869141 0)"/>
      </g>
     </g>
    </g>
    <g id="xtick_4">
     <g id="line2d_4">
      <g>
       <use xlink:href="#m28191edbdf" x="256.846607" y="242.918125" style="stroke: #000000; stroke-width: 0.8"/>
      </g>
     </g>
     <g id="text_4">
      <!-- 1140 -->
      <g transform="translate(244.121607 257.516563) scale(0.1 -0.1)">
       <defs>
        <path id="DejaVuSans-34" d="M 2419 4116 
L 825 1625 
L 2419 1625 
L 2419 4116 
z
M 2253 4666 
L 3047 4666 
L 3047 1625 
L 3713 1625 
L 3713 1100 
L 3047 1100 
L 3047 0 
L 2419 0 
L 2419 1100 
L 313 1100 
L 313 1709 
L 2253 4666 
z
" transform="scale(0.015625)"/>
       </defs>
       <use xlink:href="#DejaVuSans-31"/>
       <use xlink:href="#DejaVuSans-31" transform="translate(63.623047 0)"/>
       <use xlink:href="#DejaVuSans-34" transform="translate(127.246094 0)"/>
       <use xlink:href="#DejaVuSans-30" transform="translate(190.869141 0)"/>
      </g>
     </g>
    </g>
    <g id="xtick_5">
     <g id="line2d_5">
      <g>
       <use xlink:href="#m28191edbdf" x="205.170893" y="242.918125" style="stroke: #000000; stroke-width: 0.8"/>
      </g>
     </g>
     <g id="text_5">
      <!-- 1150 -->
      <g transform="translate(192.445893 257.516563) scale(0.1 -0.1)">
       <defs>
        <path id="DejaVuSans-35" d="M 691 4666 
L 3169 4666 
L 3169 4134 
L 1269 4134 
L 1269 2991 
Q 1406 3038 1543 3061 
Q 1681 3084 1819 3084 
Q 2600 3084 3056 2656 
Q 3513 2228 3513 1497 
Q 3513 744 3044 326 
Q 2575 -91 1722 -91 
Q 1428 -91 1123 -41 
Q 819 9 494 109 
L 494 744 
Q 775 591 1075 516 
Q 1375 441 1709 441 
Q 2250 441 2565 725 
Q 2881 1009 2881 1497 
Q 2881 1984 2565 2268 
Q 2250 2553 1709 2553 
Q 1456 2553 1204 2497 
Q 953 2441 691 2322 
L 691 4666 
z
" transform="scale(0.015625)"/>
       </defs>
       <use xlink:href="#DejaVuSans-31"/>
       <use xlink:href="#DejaVuSans-31" transform="translate(63.623047 0)"/>
       <use xlink:href="#DejaVuSans-35" transform="translate(127.246094 0)"/>
       <use xlink:href="#DejaVuSans-30" transform="translate(190.869141 0)"/>
      </g>
     </g>
    </g>
    <g id="xtick_6">
     <g id="line2d_6">
      <g>
       <use xlink:href="#m28191edbdf" x="153.495179" y="242.918125" style="stroke: #000000; stroke-width: 0.8"/>
      </g>
     </g>
     <g id="text_6">
      <!-- 1160 -->
      <g transform="translate(140.770179 257.516563) scale(0.1 -0.1)">
       <defs>
        <path id="DejaVuSans-36" d="M 2113 2584 
Q 1688 2584 1439 2293 
Q 1191 2003 1191 1497 
Q 1191 994 1439 701 
Q 1688 409 2113 409 
Q 2538 409 2786 701 
Q 3034 994 3034 1497 
Q 3034 2003 2786 2293 
Q 2538 2584 2113 2584 
z
M 3366 4563 
L 3366 3988 
Q 3128 4100 2886 4159 
Q 2644 4219 2406 4219 
Q 1781 4219 1451 3797 
Q 1122 3375 1075 2522 
Q 1259 2794 1537 2939 
Q 1816 3084 2150 3084 
Q 2853 3084 3261 2657 
Q 3669 2231 3669 1497 
Q 3669 778 3244 343 
Q 2819 -91 2113 -91 
Q 1303 -91 875 529 
Q 447 1150 447 2328 
Q 447 3434 972 4092 
Q 1497 4750 2381 4750 
Q 2619 4750 2861 4703 
Q 3103 4656 3366 4563 
z
" transform="scale(0.015625)"/>
       </defs>
       <use xlink:href="#DejaVuSans-31"/>
       <use xlink:href="#DejaVuSans-31" transform="translate(63.623047 0)"/>
       <use xlink:href="#DejaVuSans-36" transform="translate(127.246094 0)"/>
       <use xlink:href="#DejaVuSans-30" transform="translate(190.869141 0)"/>
      </g>
     </g>
    </g>
    <g id="xtick_7">
     <g id="line2d_7">
      <g>
       <use xlink:href="#m28191edbdf" x="101.819464" y="242.918125" style="stroke: #000000; stroke-width: 0.8"/>
      </g>
     </g>
     <g id="text_7">
      <!-- 1170 -->
      <g transform="translate(89.094464 257.516563) scale(0.1 -0.1)">
       <defs>
        <path id="DejaVuSans-37" d="M 525 4666 
L 3525 4666 
L 3525 4397 
L 1831 0 
L 1172 0 
L 2766 4134 
L 525 4134 
L 525 4666 
z
" transform="scale(0.015625)"/>
       </defs>
       <use xlink:href="#DejaVuSans-31"/>
       <use xlink:href="#DejaVuSans-31" transform="translate(63.623047 0)"/>
       <use xlink:href="#DejaVuSans-37" transform="translate(127.246094 0)"/>
       <use xlink:href="#DejaVuSans-30" transform="translate(190.869141 0)"/>
      </g>
     </g>
    </g>
    <g id="xtick_8">
     <g id="line2d_8">
      <g>
       <use xlink:href="#m28191edbdf" x="50.14375" y="242.918125" style="stroke: #000000; stroke-width: 0.8"/>
      </g>
     </g>
     <g id="text_8">
      <!-- 1180 -->
      <g transform="translate(37.41875 257.516563) scale(0.1 -0.1)">
       <defs>
        <path id="DejaVuSans-38" d="M 2034 2216 
Q 1584 2216 1326 1975 
Q 1069 1734 1069 1313 
Q 1069 891 1326 650 
Q 1584 409 2034 409 
Q 2484 409 2743 651 
Q 3003 894 3003 1313 
Q 3003 1734 2745 1975 
Q 2488 2216 2034 2216 
z
M 1403 2484 
Q 997 2584 770 2862 
Q 544 3141 544 3541 
Q 544 4100 942 4425 
Q 1341 4750 2034 4750 
Q 2731 4750 3128 4425 
Q 3525 4100 3525 3541 
Q 3525 3141 3298 2862 
Q 3072 2584 2669 2484 
Q 3125 2378 3379 2068 
Q 3634 1759 3634 1313 
Q 3634 634 3220 271 
Q 2806 -91 2034 -91 
Q 1263 -91 848 271 
Q 434 634 434 1313 
Q 434 1759 690 2068 
Q 947 2378 1403 2484 
z
M 1172 3481 
Q 1172 3119 1398 2916 
Q 1625 2713 2034 2713 
Q 2441 2713 2670 2916 
Q 2900 3119 2900 3481 
Q 2900 3844 2670 4047 
Q 2441 4250 2034 4250 
Q 1625 4250 1398 4047 
Q 1172 3844 1172 3481 
z
" transform="scale(0.015625)"/>
       </defs>
       <use xlink:href="#DejaVuSans-31"/>
       <use xlink:href="#DejaVuSans-31" transform="translate(63.623047 0)"/>
       <use xlink:href="#DejaVuSans-38" transform="translate(127.246094 0)"/>
       <use xlink:href="#DejaVuSans-30" transform="translate(190.869141 0)"/>
      </g>
     </g>
    </g>
    <g id="text_9">
     <!-- Wavenumber (cm⁻¹) -->
     <g transform="translate(180.015781 271.194687) scale(0.1 -0.1)">
      <defs>
       <path id="DejaVuSans-57" d="M 213 4666 
L 850 4666 
L 1831 722 
L 2809 4666 
L 3519 4666 
L 4500 722 
L 5478 4666 
L 6119 4666 
L 4947 0 
L 4153 0 
L 3169 4050 
L 2175 0 
L 1381 0 
L 213 4666 
z
" transform="scale(0.015625)"/>
       <path id="DejaVuSans-61" d="M 2194 1759 
Q 1497 1759 1228 1600 
Q 959 1441 959 1056 
Q 959 750 1161 570 
Q 1363 391 1709 391 
Q 2188 391 2477 730 
Q 2766 1069 2766 1631 
L 2766 1759 
L 2194 1759 
z
M 3341 1997 
L 3341 0 
L 2766 0 
L 2766 531 
Q 2569 213 2275 61 
Q 1981 -91 1556 -91 
Q 1019 -91 701 211 
Q 384 513 384 1019 
Q 384 1609 779 1909 
Q 1175 2209 1959 2209 
L 2766 2209 
L 2766 2266 
Q 2766 2663 2505 2880 
Q 2244 3097 1772 3097 
Q 1472 3097 1187 3025 
Q 903 2953 641 2809 
L 641 3341 
Q 956 3463 1253 3523 
Q 1550 3584 1831 3584 
Q 2591 3584 2966 3190 
Q 3341 2797 3341 1997 
z
" transform="scale(0.015625)"/>
       <path id="DejaVuSans-76" d="M 191 3500 
L 800 3500 
L 1894 563 
L 2988 3500 
L 3597 3500 
L 2284 0 
L 1503 0 
L 191 3500 
z
" transform="scale(0.015625)"/>
       <path id="DejaVuSans-65" d="M 3597 1894 
L 3597 1613 
L 953 1613 
Q 991 1019 1311 708 
Q 1631 397 2203 397 
Q 2534 397 2845 478 
Q 3156 559 3463 722 
L 3463 178 
Q 3153 47 2828 -22 
Q 2503 -91 2169 -91 
Q 1331 -91 842 396 
Q 353 884 353 1716 
Q 353 2575 817 3079 
Q 1281 3584 2069 3584 
Q 2775 3584 3186 3129 
Q 3597 2675 3597 1894 
z
M 3022 2063 
Q 3016 2534 2758 2815 
Q 2500 3097 2075 3097 
Q 1594 3097 1305 2825 
Q 1016 2553 972 2059 
L 3022 2063 
z
" transform="scale(0.015625)"/>
       <path id="DejaVuSans-6e" d="M 3513 2113 
L 3513 0 
L 2938 0 
L 2938 2094 
Q 2938 2591 2744 2837 
Q 2550 3084 2163 3084 
Q 1697 3084 1428 2787 
Q 1159 2491 1159 1978 
L 1159 0 
L 581 0 
L 581 3500 
L 1159 3500 
L 1159 2956 
Q 1366 3272 1645 3428 
Q 1925 3584 2291 3584 
Q 2894 3584 3203 3211 
Q 3513 2838 3513 2113 
z
" transform="scale(0.015625)"/>
       <path id="DejaVuSans-75" d="M 544 1381 
L 544 3500 
L 1119 3500 
L 1119 1403 
Q 1119 906 1312 657 
Q 1506 409 1894 409 
Q 2359 409 2629 706 
Q 2900 1003 2900 1516 
L 2900 3500 
L 3475 3500 
L 3475 0 
L 2900 0 
L 2900 538 
Q 2691 219 2414 64 
Q 2138 -91 1772 -91 
Q 1169 -91 856 284 
Q 544 659 544 1381 
z
M 1991 3584 
L 1991 3584 
z
" transform="scale(0.015625)"/>
       <path id="DejaVuSans-6d" d="M 3328 2828 
Q 3544 3216 3844 3400 
Q 4144 3584 4550 3584 
Q 5097 3584 5394 3201 
Q 5691 2819 5691 2113 
L 5691 0 
L 5113 0 
L 5113 2094 
Q 5113 2597 4934 2840 
Q 4756 3084 4391 3084 
Q 3944 3084 3684 2787 
Q 3425 2491 3425 1978 
L 3425 0 
L 2847 0 
L 2847 2094 
Q 2847 2600 2669 2842 
Q 2491 3084 2119 3084 
Q 1678 3084 1418 2786 
Q 1159 2488 1159 1978 
L 1159 0 
L 581 0 
L 581 3500 
L 1159 3500 
L 1159 2956 
Q 1356 3278 1631 3431 
Q 1906 3584 2284 3584 
Q 2666 3584 2933 3390 
Q 3200 3197 3328 2828 
z
" transform="scale(0.015625)"/>
       <path id="DejaVuSans-62" d="M 3116 1747 
Q 3116 2381 2855 2742 
Q 2594 3103 2138 3103 
Q 1681 3103 1420 2742 
Q 1159 2381 1159 1747 
Q 1159 1113 1420 752 
Q 1681 391 2138 391 
Q 2594 391 2855 752 
Q 3116 1113 3116 1747 
z
M 1159 2969 
Q 1341 3281 1617 3432 
Q 1894 3584 2278 3584 
Q 2916 3584 3314 3078 
Q 3713 2572 3713 1747 
Q 3713 922 3314 415 
Q 2916 -91 2278 -91 
Q 1894 -91 1617 61 
Q 1341 213 1159 525 
L 1159 0 
L 581 0 
L 581 4863 
L 1159 4863 
L 1159 2969 
z
" transform="scale(0.015625)"/>
       <path id="DejaVuSans-72" d="M 2631 2963 
Q 2534 3019 2420 3045 
Q 2306 3072 2169 3072 
Q 1681 3072 1420 2755 
Q 1159 2438 1159 1844 
L 1159 0 
L 581 0 
L 581 3500 
L 1159 3500 
L 1159 2956 
Q 1341 3275 1631 3429 
Q 1922 3584 2338 3584 
Q 2397 3584 2469 3576 
Q 2541 3569 2628 3553 
L 2631 2963 
z
" transform="scale(0.015625)"/>
       <path id="DejaVuSans-20" transform="scale(0.015625)"/>
       <path id="DejaVuSans-28" d="M 1984 4856 
Q 1566 4138 1362 3434 
Q 1159 2731 1159 2009 
Q 1159 1288 1364 580 
Q 1569 -128 1984 -844 
L 1484 -844 
Q 1016 -109 783 600 
Q 550 1309 550 2009 
Q 550 2706 781 3412 
Q 1013 4119 1484 4856 
L 1984 4856 
z
" transform="scale(0.015625)"/>
       <path id="DejaVuSans-63" d="M 3122 3366 
L 3122 2828 
Q 2878 2963 2633 3030 
Q 2388 3097 2138 3097 
Q 1578 3097 1268 2742 
Q 959 2388 959 1747 
Q 959 1106 1268 751 
Q 1578 397 2138 397 
Q 2388 397 2633 464 
Q 2878 531 3122 666 
L 3122 134 
Q 2881 22 2623 -34 
Q 2366 -91 2075 -91 
Q 1284 -91 818 406 
Q 353 903 353 1747 
Q 353 2603 823 3093 
Q 1294 3584 2113 3584 
Q 2378 3584 2631 3529 
Q 2884 3475 3122 3366 
z
" transform="scale(0.015625)"/>
       <path id="DejaVuSans-207b" d="M 428 3359 
L 2950 3359 
L 2950 3063 
L 428 3063 
L 428 3359 
z
" transform="scale(0.015625)"/>
       <path id="DejaVuSans-b9" d="M 488 2431 
L 1125 2431 
L 1125 4341 
L 428 4213 
L 428 4575 
L 1147 4697 
L 1575 4697 
L 1575 2431 
L 2216 2431 
L 2216 2088 
L 488 2088 
L 488 2431 
z
" transform="scale(0.015625)"/>
       <path id="DejaVuSans-29" d="M 513 4856 
L 1013 4856 
Q 1481 4119 1714 3412 
Q 1947 2706 1947 2009 
Q 1947 1309 1714 600 
Q 1481 -109 1013 -844 
L 513 -844 
Q 928 -128 1133 580 
Q 1338 1288 1338 2009 
Q 1338 2731 1133 3434 
Q 928 4138 513 4856 
z
" transform="scale(0.015625)"/>
      </defs>
      <use xlink:href="#DejaVuSans-57"/>
      <use xlink:href="#DejaVuSans-61" transform="translate(92.501953 0)"/>
      <use xlink:href="#DejaVuSans-76" transform="translate(153.78125 0)"/>
      <use xlink:href="#DejaVuSans-65" transform="translate(212.960938 0)"/>
      <use xlink:href="#DejaVuSans-6e" transform="translate(274.484375 0)"/>
      <use xlink:href="#DejaVuSans-75" transform="translate(337.863281 0)"/>
      <use xlink:href="#DejaVuSans-6d" transform="translate(401.242188 0)"/>
      <use xlink:href="#DejaVuSans-62" transform="translate(498.654297 0)"/>
      <use xlink:href="#DejaVuSans-65" transform="translate(562.130859 0)"/>
      <use xlink:href="#DejaVuSans-72" transform="translate(623.654297 0)"/>
      <use xlink:href="#DejaVuSans-20" transform="translate(664.767578 0)"/>
      <use xlink:href="#DejaVuSans-28" transform="translate(696.554688 0)"/>
      <use xlink:href="#DejaVuSans-63" transform="translate(735.568359 0)"/>
      <use xlink:href="#DejaVuSans-6d" transform="translate(790.548828 0)"/>
      <use xlink:href="#DejaVuSans-207b" transform="translate(887.960938 0)"/>
      <use xlink:href="#DejaVuSans-b9" transform="translate(940.744141 0)"/>
      <use xlink:href="#DejaVuSans-29" transform="translate(980.832031 0)"/>
     </g>
    </g>
   </g>
   <g id="matplotlib.axis_2">
    <g id="ytick_1">
     <g id="line2d_9">
      <defs>
       <path id="m08f0d50e0e" d="M 0 0 
L -3.5 0 
" style="stroke: #000000; stroke-width: 0.8"/>
      </defs>
      <g>
       <use xlink:href="#m08f0d50e0e" x="50.14375" y="233.976976" style="stroke: #000000; stroke-width: 0.8"/>
      </g>
     </g>
     <g id="text_10">
      <!-- 0.04 -->
      <g transform="translate(20.878125 237.776194) scale(0.1 -0.1)">
       <defs>
        <path id="DejaVuSans-2e" d="M 684 794 
L 1344 794 
L 1344 0 
L 684 0 
L 684 794 
z
" transform="scale(0.015625)"/>
       </defs>
       <use xlink:href="#DejaVuSans-30"/>
       <use xlink:href="#DejaVuSans-2e" transform="translate(63.623047 0)"/>
       <use xlink:href="#DejaVuSans-30" transform="translate(95.410156 0)"/>
       <use xlink:href="#DejaVuSans-34" transform="translate(159.033203 0)"/>
      </g>
     </g>
    </g>
    <g id="ytick_2">
     <g id="line2d_10">
      <g>
       <use xlink:href="#m08f0d50e0e" x="50.14375" y="198.106207" style="stroke: #000000; stroke-width: 0.8"/>
      </g>
     </g>
     <g id="text_11">
      <!-- 0.06 -->
      <g transform="translate(20.878125 201.905425) scale(0.1 -0.1)">
       <use xlink:href="#DejaVuSans-30"/>
       <use xlink:href="#DejaVuSans-2e" transform="translate(63.623047 0)"/>
       <use xlink:href="#DejaVuSans-30" transform="translate(95.410156 0)"/>
       <use xlink:href="#DejaVuSans-36" transform="translate(159.033203 0)"/>
      </g>
     </g>
    </g>
    <g id="ytick_3">
     <g id="line2d_11">
      <g>
       <use xlink:href="#m08f0d50e0e" x="50.14375" y="162.235438" style="stroke: #000000; stroke-width: 0.8"/>
      </g>
     </g>
     <g id="text_12">
      <!-- 0.08 -->
      <g transform="translate(20.878125 166.034656) scale(0.1 -0.1)">
       <use xlink:href="#DejaVuSans-30"/>
       <use xlink:href="#DejaVuSans-2e" transform="translate(63.623047 0)"/>
       <use xlink:href="#DejaVuSans-30" transform="translate(95.410156 0)"/>
       <use xlink:href="#DejaVuSans-38" transform="translate(159.033203 0)"/>
      </g>
     </g>
    </g>
    <g id="ytick_4">
     <g id="line2d_12">
      <g>
       <use xlink:href="#m08f0d50e0e" x="50.14375" y="126.364669" style="stroke: #000000; stroke-width: 0.8"/>
      </g>
     </g>
     <g id="text_13">
      <!-- 0.10 -->
      <g transform="translate(20.878125 130.163887) scale(0.1 -0.1)">
       <use xlink:href="#DejaVuSans-30"/>
       <use xlink:href="#DejaVuSans-2e" transform="translate(63.623047 0)"/>
       <use xlink:href="#DejaVuSans-31" transform="translate(95.410156 0)"/>
       <use xlink:href="#DejaVuSans-30" transform="translate(159.033203 0)"/>
      </g>
     </g>
    </g>
    <g id="ytick_5">
     <g id="line2d_13">
      <g>
       <use xlink:href="#m08f0d50e0e" x="50.14375" y="90.493899" style="stroke: #000000; stroke-width: 0.8"/>
      </g>
     </g>
     <g id="text_14">
      <!-- 0.12 -->
      <g transform="translate(20.878125 94.293118) scale(0.1 -0.1)">
       <use xlink:href="#DejaVuSans-30"/>
       <use xlink:href="#DejaVuSans-2e" transform="translate(63.623047 0)"/>
       <use xlink:href="#DejaVuSans-31" transform="translate(95.410156 0)"/>
       <use xlink:href="#DejaVuSans-32" transform="translate(159.033203 0)"/>
      </g>
     </g>
    </g>
    <g id="ytick_6">
     <g id="line2d_14">
      <g>
       <use xlink:href="#m08f0d50e0e" x="50.14375" y="54.62313" style="stroke: #000000; stroke-width: 0.8"/>
      </g>
     </g>
     <g id="text_15">
      <!-- 0.14 -->
      <g transform="translate(20.878125 58.422349) scale(0.1 -0.1)">
       <use xlink:href="#DejaVuSans-30"/>
       <use xlink:href="#DejaVuSans-2e" transform="translate(63.623047 0)"/>
       <use xlink:href="#DejaVuSans-31" transform="translate(95.410156 0)"/>
       <use xlink:href="#DejaVuSans-34" transform="translate(159.033203 0)"/>
      </g>
     </g>
    </g>
    <g id="text_16">
     <!-- Absorbance -->
     <g transform="translate(14.798438 162.165) rotate(-90) scale(0.1 -0.1)">
      <defs>
       <path id="DejaVuSans-41" d="M 2188 4044 
L 1331 1722 
L 3047 1722 
L 2188 4044 
z
M 1831 4666 
L 2547 4666 
L 4325 0 
L 3669 0 
L 3244 1197 
L 1141 1197 
L 716 0 
L 50 0 
L 1831 4666 
z
" transform="scale(0.015625)"/>
       <path id="DejaVuSans-73" d="M 2834 3397 
L 2834 2853 
Q 2591 2978 2328 3040 
Q 2066 3103 1784 3103 
Q 1356 3103 1142 2972 
Q 928 2841 928 2578 
Q 928 2378 1081 2264 
Q 1234 2150 1697 2047 
L 1894 2003 
Q 2506 1872 2764 1633 
Q 3022 1394 3022 966 
Q 3022 478 2636 193 
Q 2250 -91 1575 -91 
Q 1294 -91 989 -36 
Q 684 19 347 128 
L 347 722 
Q 666 556 975 473 
Q 1284 391 1588 391 
Q 1994 391 2212 530 
Q 2431 669 2431 922 
Q 2431 1156 2273 1281 
Q 2116 1406 1581 1522 
L 1381 1569 
Q 847 1681 609 1914 
Q 372 2147 372 2553 
Q 372 3047 722 3315 
Q 1072 3584 1716 3584 
Q 2034 3584 2315 3537 
Q 2597 3491 2834 3397 
z
" transform="scale(0.015625)"/>
       <path id="DejaVuSans-6f" d="M 1959 3097 
Q 1497 3097 1228 2736 
Q 959 2375 959 1747 
Q 959 1119 1226 758 
Q 1494 397 1959 397 
Q 2419 397 2687 759 
Q 2956 1122 2956 1747 
Q 2956 2369 2687 2733 
Q 2419 3097 1959 3097 
z
M 1959 3584 
Q 2709 3584 3137 3096 
Q 3566 2609 3566 1747 
Q 3566 888 3137 398 
Q 2709 -91 1959 -91 
Q 1206 -91 779 398 
Q 353 888 353 1747 
Q 353 2609 779 3096 
Q 1206 3584 1959 3584 
z
" transform="scale(0.015625)"/>
      </defs>
      <use xlink:href="#DejaVuSans-41"/>
      <use xlink:href="#DejaVuSans-62" transform="translate(68.408203 0)"/>
      <use xlink:href="#DejaVuSans-73" transform="translate(131.884766 0)"/>
      <use xlink:href="#DejaVuSans-6f" transform="translate(183.984375 0)"/>
      <use xlink:href="#DejaVuSans-72" transform="translate(245.166016 0)"/>
      <use xlink:href="#DejaVuSans-62" transform="translate(286.279297 0)"/>
      <use xlink:href="#DejaVuSans-61" transform="translate(349.755859 0)"/>
      <use xlink:href="#DejaVuSans-6e" transform="translate(411.035156 0)"/>
      <use xlink:href="#DejaVuSans-63" transform="translate(474.414062 0)"/>
      <use xlink:href="#DejaVuSans-65" transform="translate(529.394531 0)"/>
     </g>
    </g>
   </g>
   <g id="line2d_15">
    <path d="M -1 190.927775 
L 2.027898 192.016866 
L 11.660892 200.974266 
L 21.293885 211.034343 
L 30.926879 219.893196 
L 40.559873 226.440466 
L 50.192867 229.399653 
L 59.825861 228.967115 
L 69.458855 226.850632 
L 79.091849 223.842972 
L 88.724843 218.580079 
L 98.357837 209.02656 
L 107.990831 193.797829 
L 117.623825 171.522932 
L 127.256819 140.905126 
L 136.889813 103.807996 
L 146.522807 70.807062 
L 156.155801 57.79386 
L 165.788795 70.132637 
L 185.054783 121.919116 
L 194.687776 141.401285 
L 204.32077 153.959925 
L 213.953764 161.412512 
L 223.586758 167.007 
L 233.219752 173.286321 
L 242.852746 180.546118 
L 252.48574 187.33735 
L 262.118734 192.28946 
L 271.751728 195.486477 
L 281.384722 197.611035 
L 291.017716 198.449301 
L 300.65071 197.86262 
L 310.283704 196.860989 
L 319.916698 195.726842 
L 329.549692 193.582425 
L 339.182686 189.144217 
L 348.81568 182.605078 
L 358.448674 174.553527 
L 368.081668 164.55028 
L 377.714661 151.381848 
L 387.347655 135.603677 
L 396.980649 120.240787 
L 406.613643 108.962964 
L 416.246637 102.220191 
L 425.879631 96.648901 
L 435.512625 89.844035 
L 445.145619 81.750492 
L 454.778613 72.142343 
L 464.411607 59.4565 
L 474.044601 42.971062 
L 483.677595 23.529981 
L 493.310589 1.678951 
L 494.31383 -1 
L 494.31383 -1 
" clip-path="url(#pe621eddb9d)" style="fill: none; stroke: #1f77b4; stroke-width: 1.5; stroke-linecap: square"/>
   </g>
   <g id="line2d_16">
    <path d="M -1 193.515283 
L 2.027898 194.666959 
L 11.660892 203.637906 
L 21.293885 213.323035 
L 30.926879 221.584834 
L 40.559873 227.57937 
L 50.192867 230.337579 
L 59.825861 229.674182 
L 69.458855 226.667014 
L 79.091849 222.438015 
L 88.724843 216.562169 
L 98.357837 207.286428 
L 107.990831 192.713466 
L 117.623825 171.072148 
L 127.256819 141.710102 
L 136.889813 106.991374 
L 146.522807 75.775201 
L 156.155801 61.757451 
L 165.788795 70.944382 
L 175.421789 93.778038 
L 185.054783 117.305728 
L 194.687776 134.732841 
L 204.32077 145.156772 
L 223.586758 158.126169 
L 233.219752 165.827355 
L 242.852746 173.760176 
L 252.48574 180.899109 
L 262.118734 186.847615 
L 271.751728 190.792563 
L 281.384722 192.50125 
L 291.017716 193.208025 
L 310.283704 195.084695 
L 319.916698 194.370543 
L 329.549692 191.51716 
L 339.182686 187.22233 
L 348.81568 181.835101 
L 358.448674 173.895545 
L 368.081668 162.949085 
L 377.714661 150.141538 
L 387.347655 136.361457 
L 396.980649 122.030347 
L 406.613643 109.581322 
L 416.246637 101.625358 
L 425.879631 96.563931 
L 435.512625 90.469121 
L 445.145619 81.287581 
L 454.778613 70.106449 
L 464.411607 57.881494 
L 474.044601 42.94604 
L 483.677595 23.396819 
L 493.618079 -1 
L 493.618079 -1 
" clip-path="url(#pe621eddb9d)" style="fill: none; stroke: #ff7f0e; stroke-width: 1.5; stroke-linecap: square"/>
   </g>
   <g id="line2d_17">
    <path d="M -1 202.108736 
L 2.027898 203.272939 
L 11.660892 211.291008 
L 21.293885 219.519696 
L 30.926879 226.152697 
L 40.559873 230.862328 
L 50.192867 232.890852 
L 59.825861 231.887962 
L 69.458855 228.741192 
L 79.091849 224.498858 
L 88.724843 218.817789 
L 98.357837 209.824554 
L 107.990831 195.620389 
L 117.623825 175.680282 
L 127.256819 150.664297 
L 136.889813 121.968875 
L 146.522807 95.227412 
L 156.155801 80.112959 
L 165.788795 80.889599 
L 175.421789 91.63115 
L 185.054783 105.121873 
L 194.687776 116.754896 
L 204.32077 123.782893 
L 213.953764 128.005176 
L 223.586758 134.604374 
L 242.852746 154.878243 
L 252.48574 162.536437 
L 262.118734 167.950039 
L 271.751728 171.837874 
L 291.017716 177.903781 
L 300.65071 181.893494 
L 310.283704 186.146473 
L 319.916698 188.108811 
L 329.549692 186.532574 
L 339.182686 182.781935 
L 348.81568 178.282822 
L 358.448674 171.915637 
L 368.081668 162.566471 
L 377.714661 151.060245 
L 396.980649 126.847098 
L 406.613643 115.335436 
L 416.246637 105.822106 
L 435.512625 90.463938 
L 445.145619 80.584358 
L 454.778613 68.652589 
L 464.411607 55.816935 
L 474.044601 41.456202 
L 483.677595 23.453284 
L 493.968124 -1 
L 493.968124 -1 
" clip-path="url(#pe621eddb9d)" style="fill: none; stroke: #2ca02c; stroke-width: 1.5; stroke-linecap: square"/>
   </g>
   <g id="line2d_18">
    <path d="M -1 180.177258 
L 2.027898 181.045315 
L 11.660892 187.708931 
L 21.293885 196.016896 
L 30.926879 203.41991 
L 40.559873 207.758315 
L 50.192867 208.265144 
L 59.825861 206.675914 
L 69.458855 204.612766 
L 79.091849 201.180775 
L 88.724843 194.780076 
L 98.357837 184.91289 
L 107.990831 171.330402 
L 117.623825 153.225855 
L 127.256819 129.826506 
L 136.889813 102.04475 
L 146.522807 76.423701 
L 156.155801 62.224979 
L 165.788795 61.417601 
L 175.421789 67.391381 
L 185.054783 76.231897 
L 194.687776 86.178864 
L 204.32077 93.62273 
L 213.953764 97.493346 
L 223.586758 102.65303 
L 233.219752 112.585666 
L 242.852746 124.428637 
L 252.48574 133.50699 
L 262.118734 138.2774 
L 271.751728 140.669445 
L 281.384722 143.848952 
L 291.017716 148.905275 
L 300.65071 154.296211 
L 310.283704 158.451651 
L 319.916698 160.304542 
L 329.549692 159.855182 
L 339.182686 157.528913 
L 348.81568 153.343922 
L 358.448674 146.499305 
L 368.081668 137.562349 
L 377.714661 127.499876 
L 387.347655 116.506443 
L 396.980649 103.903487 
L 406.613643 91.641018 
L 416.246637 82.419008 
L 425.879631 75.052077 
L 435.512625 66.462292 
L 445.145619 55.340185 
L 464.411607 30.883048 
L 474.044601 17.022434 
L 483.545024 -1 
L 483.545024 -1 
" clip-path="url(#pe621eddb9d)" style="fill: none; stroke: #d62728; stroke-width: 1.5; stroke-linecap: square"/>
   </g>
   <g id="line2d_19">
    <path d="M -1 195.449202 
L 2.027898 196.433932 
L 11.660892 201.924235 
L 21.293885 208.365588 
L 30.926879 214.185611 
L 40.559873 217.522306 
L 50.192867 217.536142 
L 59.825861 215.164113 
L 69.458855 211.536504 
L 79.091849 206.308933 
L 88.724843 198.616238 
L 98.357837 188.640052 
L 107.990831 176.839308 
L 117.623825 162.564977 
L 127.256819 144.568713 
L 136.889813 122.875719 
L 146.522807 101.512005 
L 156.155801 86.263899 
L 165.788795 78.1966 
L 175.421789 73.815963 
L 185.054783 73.515012 
L 194.687776 77.461846 
L 204.32077 81.08747 
L 213.953764 82.617778 
L 223.586758 87.832622 
L 233.219752 100.161919 
L 242.852746 114.817863 
L 252.48574 125.482124 
L 262.118734 130.314633 
L 271.751728 132.522088 
L 281.384722 136.681969 
L 291.017716 143.804506 
L 300.65071 151.680495 
L 310.283704 158.14982 
L 319.916698 161.824644 
L 329.549692 162.621728 
L 339.182686 160.642335 
L 348.81568 156.140753 
L 358.448674 149.528291 
L 368.081668 142.137155 
L 377.714661 134.370595 
L 387.347655 125.228459 
L 396.980649 113.757181 
L 406.613643 101.831228 
L 416.246637 91.956759 
L 425.879631 83.131201 
L 435.512625 72.671876 
L 464.411607 35.28289 
L 474.044601 21.338686 
L 483.677595 3.037497 
L 485.398734 -1 
L 485.398734 -1 
" clip-path="url(#pe621eddb9d)" style="fill: none; stroke: #9467bd; stroke-width: 1.5; stroke-linecap: square"/>
   </g>
   <g id="line2d_20">
    <path d="M -1 202.609912 
L 2.027898 203.861545 
L 11.660892 210.477373 
L 21.293885 216.333904 
L 30.926879 220.12896 
L 40.559873 222.297655 
L 50.192867 222.696709 
L 59.825861 220.712314 
L 69.458855 216.141817 
L 79.091849 209.364217 
L 88.724843 200.706951 
L 98.357837 188.786888 
L 107.990831 172.243836 
L 117.623825 155.091121 
L 127.256819 142.508832 
L 136.889813 131.512307 
L 146.522807 118.080878 
L 156.155801 103.596285 
L 165.788795 89.773578 
L 175.421789 77.862713 
L 185.054783 72.214189 
L 194.687776 73.284186 
L 204.32077 75.077785 
L 213.953764 76.053742 
L 223.586758 83.090171 
L 233.219752 98.311969 
L 242.852746 114.027291 
L 252.48574 123.745581 
L 262.118734 128.458365 
L 271.751728 132.273164 
L 281.384722 137.815563 
L 291.017716 145.092858 
L 300.65071 153.355137 
L 310.283704 162.099937 
L 319.916698 168.73761 
L 329.549692 170.498376 
L 339.182686 167.865459 
L 348.81568 163.910322 
L 358.448674 159.505091 
L 368.081668 153.710041 
L 377.714661 145.964431 
L 387.347655 136.821135 
L 396.980649 126.978489 
L 406.613643 116.973929 
L 416.246637 106.543485 
L 425.879631 94.976255 
L 435.512625 82.811483 
L 454.778613 59.274885 
L 464.411607 46.261444 
L 474.044601 31.348691 
L 483.677595 14.080022 
L 490.748985 -1 
L 490.748985 -1 
" clip-path="url(#pe621eddb9d)" style="fill: none; stroke: #8c564b; stroke-width: 1.5; stroke-linecap: square"/>
   </g>
   <g id="line2d_21">
    <path d="M -1 210.170663 
L 2.027898 211.594667 
L 11.660892 217.172804 
L 21.293885 221.814135 
L 30.926879 225.563355 
L 40.559873 228.123749 
L 50.192867 228.026606 
L 59.825861 224.92835 
L 69.458855 220.08286 
L 79.091849 214.178117 
L 88.724843 206.197492 
L 98.357837 193.819014 
L 107.990831 176.629511 
L 117.623825 160.416046 
L 127.256819 150.489111 
L 136.889813 142.16026 
L 146.522807 129.720688 
L 156.155801 114.230702 
L 165.788795 98.106716 
L 175.421789 82.854378 
L 185.054783 73.339738 
L 194.687776 71.706495 
L 204.32077 72.630921 
L 213.953764 73.827058 
L 223.586758 81.211692 
L 233.219752 96.352318 
L 242.852746 111.969756 
L 252.48574 122.205632 
L 262.118734 127.437499 
L 271.751728 130.938772 
L 281.384722 136.006479 
L 291.017716 143.975291 
L 310.283704 164.042804 
L 319.916698 170.853544 
L 329.549692 172.509424 
L 339.182686 170.437453 
L 348.81568 167.434624 
L 358.448674 163.396912 
L 368.081668 157.389581 
L 377.714661 149.957245 
L 387.347655 142.147159 
L 396.980649 133.42968 
L 406.613643 123.204721 
L 416.246637 111.801185 
L 445.145619 75.421481 
L 454.778613 62.945452 
L 464.411607 49.748684 
L 474.044601 35.448574 
L 483.677595 18.800407 
L 492.915977 -1 
L 492.915977 -1 
" clip-path="url(#pe621eddb9d)" style="fill: none; stroke: #e377c2; stroke-width: 1.5; stroke-linecap: square"/>
   </g>
   <g id="line2d_22">
    <path d="M -1 205.976453 
L 2.027898 207.193058 
L 30.926879 220.176338 
L 40.559873 222.711761 
L 50.192867 221.829567 
L 59.825861 218.223738 
L 69.458855 213.891689 
L 79.091849 208.675731 
L 88.724843 200.463273 
L 98.357837 187.288415 
L 107.990831 170.083489 
L 117.623825 155.074301 
L 127.256819 146.369438 
L 136.889813 138.424425 
L 146.522807 126.099361 
L 156.155801 110.892065 
L 165.788795 94.256526 
L 175.421789 76.791797 
L 185.054783 64.661529 
L 194.687776 61.928623 
L 213.953764 64.344215 
L 223.586758 71.117977 
L 233.219752 85.942623 
L 242.852746 102.246917 
L 252.48574 113.449239 
L 262.118734 118.576749 
L 271.751728 121.062084 
L 281.384722 125.88984 
L 291.017716 135.012079 
L 300.65071 146.188872 
L 310.283704 156.246914 
L 319.916698 162.659221 
L 329.549692 164.736372 
L 339.182686 163.665206 
L 348.81568 160.921886 
L 358.448674 156.327813 
L 368.081668 150.271882 
L 377.714661 143.893678 
L 387.347655 137.198331 
L 396.980649 128.454549 
L 406.613643 117.45432 
L 425.879631 94.203178 
L 435.512625 82.071558 
L 454.778613 55.791669 
L 464.411607 43.27721 
L 474.044601 29.895679 
L 483.677595 13.024946 
L 489.976519 -1 
L 489.976519 -1 
" clip-path="url(#pe621eddb9d)" style="fill: none; stroke: #7f7f7f; stroke-width: 1.5; stroke-linecap: square"/>
   </g>
   <g id="line2d_23">
    <path d="M -1 205.036585 
L 2.027898 206.034883 
L 11.660892 210.67656 
L 21.293885 215.793678 
L 30.926879 219.959248 
L 40.559873 221.61231 
L 50.192867 220.219843 
L 59.825861 217.184492 
L 69.458855 213.560907 
L 79.091849 208.056419 
L 88.724843 199.135752 
L 98.357837 185.983705 
L 107.990831 169.438951 
L 117.623825 154.78736 
L 127.256819 145.851765 
L 136.889813 137.931226 
L 146.522807 126.574107 
L 156.155801 112.179261 
L 165.788795 94.648057 
L 175.421789 75.266498 
L 185.054783 62.157959 
L 194.687776 59.907302 
L 204.32077 61.562714 
L 213.953764 62.07301 
L 223.586758 67.806962 
L 233.219752 82.895704 
L 242.852746 100.354829 
L 252.48574 111.6628 
L 262.118734 115.735944 
L 271.751728 117.826458 
L 281.384722 123.498096 
L 291.017716 133.471489 
L 300.65071 144.434147 
L 310.283704 153.78495 
L 319.916698 160.39975 
L 329.549692 163.519986 
L 339.182686 162.778107 
L 348.81568 159.15414 
L 368.081668 148.633163 
L 377.714661 143.28838 
L 387.347655 136.424507 
L 396.980649 126.668337 
L 406.613643 115.540988 
L 416.246637 104.802349 
L 425.879631 93.522962 
L 435.512625 80.464054 
L 445.145619 66.463171 
L 454.778613 53.708387 
L 464.411607 42.11241 
L 474.044601 28.739821 
L 483.677595 10.946937 
L 488.971449 -1 
L 488.971449 -1 
" clip-path="url(#pe621eddb9d)" style="fill: none; stroke: #bcbd22; stroke-width: 1.5; stroke-linecap: square"/>
   </g>
   <g id="line2d_24">
    <path d="M -1 207.385438 
L 2.027898 208.633245 
L 11.660892 212.877085 
L 21.293885 216.434527 
L 30.926879 219.308778 
L 40.559873 220.629843 
L 50.192867 218.918312 
L 59.825861 214.393176 
L 69.458855 208.155659 
L 79.091849 200.116823 
L 88.724843 189.683498 
L 98.357837 176.431599 
L 107.990831 161.219353 
L 117.623825 149.311792 
L 127.256819 144.429128 
L 136.889813 140.39097 
L 146.522807 130.60228 
L 156.155801 114.767249 
L 165.788795 93.926671 
L 175.421789 70.691742 
L 185.054783 53.575288 
L 194.687776 47.474846 
L 204.32077 46.282395 
L 213.953764 45.897597 
L 223.586758 52.799043 
L 233.219752 69.899408 
L 242.852746 89.115381 
L 252.48574 102.249014 
L 262.118734 108.295734 
L 271.751728 111.450918 
L 281.384722 117.05814 
L 291.017716 127.014512 
L 300.65071 139.086282 
L 310.283704 150.080577 
L 319.916698 157.130244 
L 329.549692 159.287256 
L 339.182686 157.746249 
L 348.81568 154.037693 
L 358.448674 148.663655 
L 368.081668 142.94721 
L 377.714661 137.780217 
L 387.347655 132.233304 
L 396.980649 124.241164 
L 406.613643 113.638915 
L 416.246637 101.791772 
L 425.879631 89.312042 
L 435.512625 76.260729 
L 445.145619 62.602304 
L 454.778613 49.185119 
L 464.411607 36.586141 
L 474.044601 23.226223 
L 483.677595 6.409406 
L 487.048826 -1 
L 487.048826 -1 
" clip-path="url(#pe621eddb9d)" style="fill: none; stroke: #17becf; stroke-width: 1.5; stroke-linecap: square"/>
   </g>
   <g id="line2d_25">
    <path d="M -1 209.420441 
L 2.027898 210.80951 
L 11.660892 215.414825 
L 21.293885 218.672648 
L 30.926879 220.752745 
L 40.559873 221.609128 
L 50.192867 220.165545 
L 59.825861 216.059862 
L 69.458855 209.765146 
L 79.091849 201.622028 
L 88.724843 191.642124 
L 98.357837 179.018748 
L 107.990831 163.856638 
L 117.623825 151.831275 
L 127.256819 147.920716 
L 136.889813 145.937565 
L 146.522807 137.707011 
L 156.155801 121.33243 
L 165.788795 98.135179 
L 175.421789 72.348431 
L 185.054783 53.503188 
L 194.687776 46.138139 
L 204.32077 43.660722 
L 213.953764 42.592484 
L 223.586758 49.742526 
L 233.219752 67.319719 
L 242.852746 86.508211 
L 252.48574 99.147892 
L 262.118734 105.002554 
L 271.751728 108.546469 
L 281.384722 114.425164 
L 291.017716 124.322022 
L 300.65071 136.798812 
L 310.283704 148.919517 
L 319.916698 156.960354 
L 329.549692 159.334379 
L 339.182686 157.510588 
L 348.81568 153.947474 
L 358.448674 149.451129 
L 377.714661 139.381491 
L 387.347655 133.964208 
L 396.980649 126.666906 
L 406.613643 116.601383 
L 416.246637 104.3039 
L 435.512625 77.1202 
L 445.145619 63.542143 
L 454.778613 50.176639 
L 464.411607 37.085859 
L 474.044601 23.401786 
L 483.677595 7.051879 
L 487.443882 -1 
L 487.443882 -1 
" clip-path="url(#pe621eddb9d)" style="fill: none; stroke: #1f77b4; stroke-width: 1.5; stroke-linecap: square"/>
   </g>
   <g id="line2d_26">
    <path d="M -1 204.228849 
L 2.027898 205.564947 
L 11.660892 210.02982 
L 21.293885 213.001343 
L 30.926879 214.573111 
L 40.559873 215.201457 
L 50.192867 213.934838 
L 59.825861 209.918314 
L 69.458855 203.266887 
L 79.091849 194.637273 
L 88.724843 184.586119 
L 98.357837 172.21829 
L 107.990831 157.184598 
L 117.623825 145.053974 
L 127.256819 141.362538 
L 136.889813 140.389532 
L 146.522807 133.150719 
L 156.155801 116.356577 
L 165.788795 91.393331 
L 175.421789 64.160914 
L 185.054783 45.036147 
L 194.687776 37.579946 
L 204.32077 34.300659 
L 213.953764 32.345398 
L 223.586758 39.872117 
L 233.219752 58.58892 
L 242.852746 77.952327 
L 252.48574 89.774011 
L 262.118734 95.322144 
L 271.751728 99.650476 
L 281.384722 106.397306 
L 291.017716 116.263882 
L 300.65071 128.244401 
L 310.283704 140.689326 
L 319.916698 149.868488 
L 329.549692 152.7951 
L 339.182686 150.372594 
L 348.81568 146.246098 
L 368.081668 138.814316 
L 377.714661 133.750801 
L 387.347655 127.483128 
L 396.980649 120.238101 
L 406.613643 111.342001 
L 416.246637 99.589985 
L 425.879631 85.069679 
L 435.512625 70.242852 
L 445.145619 56.97959 
L 454.778613 44.866126 
L 464.411607 32.056441 
L 474.044601 17.360708 
L 483.677595 0.690276 
L 484.520548 -1 
L 484.520548 -1 
" clip-path="url(#pe621eddb9d)" style="fill: none; stroke: #ff7f0e; stroke-width: 1.5; stroke-linecap: square"/>
   </g>
   <g id="line2d_27">
    <path d="M 137.992464 242.918125 
L 137.992464 22.318125 
" clip-path="url(#pe621eddb9d)" style="fill: none; stroke-dasharray: 3.7,1.6; stroke-dashoffset: 0; stroke: #808080"/>
   </g>
   <g id="line2d_28">
    <path d="M 163.830321 242.918125 
L 163.830321 22.318125 
" clip-path="url(#pe621eddb9d)" style="fill: none; stroke-dasharray: 3.7,1.6; stroke-dashoffset: 0; stroke: #808080"/>
   </g>
   <g id="line2d_29">
    <path d="M 184.500607 242.918125 
L 184.500607 22.318125 
" clip-path="url(#pe621eddb9d)" style="fill: none; stroke-dasharray: 3.7,1.6; stroke-dashoffset: 0; stroke: #808080"/>
   </g>
   <g id="line2d_30">
    <path d="M 293.019607 242.918125 
L 293.019607 22.318125 
" clip-path="url(#pe621eddb9d)" style="fill: none; stroke-dasharray: 3.7,1.6; stroke-dashoffset: 0; stroke: #808080"/>
   </g>
   <g id="patch_3">
    <path d="M 50.14375 242.918125 
L 50.14375 22.318125 
" style="fill: none; stroke: #000000; stroke-width: 0.8; stroke-linejoin: miter; stroke-linecap: square"/>
   </g>
   <g id="patch_4">
    <path d="M 411.87375 242.918125 
L 411.87375 22.318125 
" style="fill: none; stroke: #000000; stroke-width: 0.8; stroke-linejoin: miter; stroke-linecap: square"/>
   </g>
   <g id="patch_5">
    <path d="M 50.14375 242.918125 
L 411.87375 242.918125 
" style="fill: none; stroke: #000000; stroke-width: 0.8; stroke-linejoin: miter; stroke-linecap: square"/>
   </g>
   <g id="patch_6">
    <path d="M 50.14375 22.318125 
L 411.87375 22.318125 
" style="fill: none; stroke: #000000; stroke-width: 0.8; stroke-linejoin: miter; stroke-linecap: square"/>
   </g>
   <g id="text_17">
    <!-- In-situ IR spectra for C1_E4 -->
    <g transform="translate(149.470625 16.318125) scale(0.12 -0.12)">
     <defs>
      <path id="DejaVuSans-49" d="M 628 4666 
L 1259 4666 
L 1259 0 
L 628 0 
L 628 4666 
z
" transform="scale(0.015625)"/>
      <path id="DejaVuSans-2d" d="M 313 2009 
L 1997 2009 
L 1997 1497 
L 313 1497 
L 313 2009 
z
" transform="scale(0.015625)"/>
      <path id="DejaVuSans-69" d="M 603 3500 
L 1178 3500 
L 1178 0 
L 603 0 
L 603 3500 
z
M 603 4863 
L 1178 4863 
L 1178 4134 
L 603 4134 
L 603 4863 
z
" transform="scale(0.015625)"/>
      <path id="DejaVuSans-74" d="M 1172 4494 
L 1172 3500 
L 2356 3500 
L 2356 3053 
L 1172 3053 
L 1172 1153 
Q 1172 725 1289 603 
Q 1406 481 1766 481 
L 2356 481 
L 2356 0 
L 1766 0 
Q 1100 0 847 248 
Q 594 497 594 1153 
L 594 3053 
L 172 3053 
L 172 3500 
L 594 3500 
L 594 4494 
L 1172 4494 
z
" transform="scale(0.015625)"/>
      <path id="DejaVuSans-52" d="M 2841 2188 
Q 3044 2119 3236 1894 
Q 3428 1669 3622 1275 
L 4263 0 
L 3584 0 
L 2988 1197 
Q 2756 1666 2539 1819 
Q 2322 1972 1947 1972 
L 1259 1972 
L 1259 0 
L 628 0 
L 628 4666 
L 2053 4666 
Q 2853 4666 3247 4331 
Q 3641 3997 3641 3322 
Q 3641 2881 3436 2590 
Q 3231 2300 2841 2188 
z
M 1259 4147 
L 1259 2491 
L 2053 2491 
Q 2509 2491 2742 2702 
Q 2975 2913 2975 3322 
Q 2975 3731 2742 3939 
Q 2509 4147 2053 4147 
L 1259 4147 
z
" transform="scale(0.015625)"/>
      <path id="DejaVuSans-70" d="M 1159 525 
L 1159 -1331 
L 581 -1331 
L 581 3500 
L 1159 3500 
L 1159 2969 
Q 1341 3281 1617 3432 
Q 1894 3584 2278 3584 
Q 2916 3584 3314 3078 
Q 3713 2572 3713 1747 
Q 3713 922 3314 415 
Q 2916 -91 2278 -91 
Q 1894 -91 1617 61 
Q 1341 213 1159 525 
z
M 3116 1747 
Q 3116 2381 2855 2742 
Q 2594 3103 2138 3103 
Q 1681 3103 1420 2742 
Q 1159 2381 1159 1747 
Q 1159 1113 1420 752 
Q 1681 391 2138 391 
Q 2594 391 2855 752 
Q 3116 1113 3116 1747 
z
" transform="scale(0.015625)"/>
      <path id="DejaVuSans-66" d="M 2375 4863 
L 2375 4384 
L 1825 4384 
Q 1516 4384 1395 4259 
Q 1275 4134 1275 3809 
L 1275 3500 
L 2222 3500 
L 2222 3053 
L 1275 3053 
L 1275 0 
L 697 0 
L 697 3053 
L 147 3053 
L 147 3500 
L 697 3500 
L 697 3744 
Q 697 4328 969 4595 
Q 1241 4863 1831 4863 
L 2375 4863 
z
" transform="scale(0.015625)"/>
      <path id="DejaVuSans-43" d="M 4122 4306 
L 4122 3641 
Q 3803 3938 3442 4084 
Q 3081 4231 2675 4231 
Q 1875 4231 1450 3742 
Q 1025 3253 1025 2328 
Q 1025 1406 1450 917 
Q 1875 428 2675 428 
Q 3081 428 3442 575 
Q 3803 722 4122 1019 
L 4122 359 
Q 3791 134 3420 21 
Q 3050 -91 2638 -91 
Q 1578 -91 968 557 
Q 359 1206 359 2328 
Q 359 3453 968 4101 
Q 1578 4750 2638 4750 
Q 3056 4750 3426 4639 
Q 3797 4528 4122 4306 
z
" transform="scale(0.015625)"/>
      <path id="DejaVuSans-5f" d="M 3263 -1063 
L 3263 -1509 
L -63 -1509 
L -63 -1063 
L 3263 -1063 
z
" transform="scale(0.015625)"/>
      <path id="DejaVuSans-45" d="M 628 4666 
L 3578 4666 
L 3578 4134 
L 1259 4134 
L 1259 2753 
L 3481 2753 
L 3481 2222 
L 1259 2222 
L 1259 531 
L 3634 531 
L 3634 0 
L 628 0 
L 628 4666 
z
" transform="scale(0.015625)"/>
     </defs>
     <use xlink:href="#DejaVuSans-49"/>
     <use xlink:href="#DejaVuSans-6e" transform="translate(29.492188 0)"/>
     <use xlink:href="#DejaVuSans-2d" transform="translate(92.871094 0)"/>
     <use xlink:href="#DejaVuSans-73" transform="translate(128.955078 0)"/>
     <use xlink:href="#DejaVuSans-69" transform="translate(181.054688 0)"/>
     <use xlink:href="#DejaVuSans-74" transform="translate(208.837891 0)"/>
     <use xlink:href="#DejaVuSans-75" transform="translate(248.046875 0)"/>
     <use xlink:href="#DejaVuSans-20" transform="translate(311.425781 0)"/>
     <use xlink:href="#DejaVuSans-49" transform="translate(343.212891 0)"/>
     <use xlink:href="#DejaVuSans-52" transform="translate(372.705078 0)"/>
     <use xlink:href="#DejaVuSans-20" transform="translate(442.1875 0)"/>
     <use xlink:href="#DejaVuSans-73" transform="translate(473.974609 0)"/>
     <use xlink:href="#DejaVuSans-70" transform="translate(526.074219 0)"/>
     <use xlink:href="#DejaVuSans-65" transform="translate(589.550781 0)"/>
     <use xlink:href="#DejaVuSans-63" transform="translate(651.074219 0)"/>
     <use xlink:href="#DejaVuSans-74" transform="translate(706.054688 0)"/>
     <use xlink:href="#DejaVuSans-72" transform="translate(745.263672 0)"/>
     <use xlink:href="#DejaVuSans-61" transform="translate(786.376953 0)"/>
     <use xlink:href="#DejaVuSans-20" transform="translate(847.65625 0)"/>
     <use xlink:href="#DejaVuSans-66" transform="translate(879.443359 0)"/>
     <use xlink:href="#DejaVuSans-6f" transform="translate(914.648438 0)"/>
     <use xlink:href="#DejaVuSans-72" transform="translate(975.830078 0)"/>
     <use xlink:href="#DejaVuSans-20" transform="translate(1016.943359 0)"/>
     <use xlink:href="#DejaVuSans-43" transform="translate(1048.730469 0)"/>
     <use xlink:href="#DejaVuSans-31" transform="translate(1118.554688 0)"/>
     <use xlink:href="#DejaVuSans-5f" transform="translate(1182.177734 0)"/>
     <use xlink:href="#DejaVuSans-45" transform="translate(1232.177734 0)"/>
     <use xlink:href="#DejaVuSans-34" transform="translate(1295.361328 0)"/>
    </g>
   </g>
   <g id="legend_1">
    <g id="patch_7">
     <path d="M 418.87375 206.455625 
L 501.53625 206.455625 
Q 503.53625 206.455625 503.53625 204.455625 
L 503.53625 29.318125 
Q 503.53625 27.318125 501.53625 27.318125 
L 418.87375 27.318125 
Q 416.87375 27.318125 416.87375 29.318125 
L 416.87375 204.455625 
Q 416.87375 206.455625 418.87375 206.455625 
z
" style="fill: #ffffff; opacity: 0.8; stroke: #cccccc; stroke-linejoin: miter"/>
    </g>
    <g id="line2d_31">
     <path d="M 420.87375 35.416562 
L 430.87375 35.416562 
L 440.87375 35.416562 
" style="fill: none; stroke: #1f77b4; stroke-width: 1.5; stroke-linecap: square"/>
    </g>
    <g id="text_18">
     <!-- -4.2 min -->
     <g transform="translate(448.87375 38.916562) scale(0.1 -0.1)">
      <use xlink:href="#DejaVuSans-2d"/>
      <use xlink:href="#DejaVuSans-34" transform="translate(36.083984 0)"/>
      <use xlink:href="#DejaVuSans-2e" transform="translate(99.707031 0)"/>
      <use xlink:href="#DejaVuSans-32" transform="translate(131.494141 0)"/>
      <use xlink:href="#DejaVuSans-20" transform="translate(195.117188 0)"/>
      <use xlink:href="#DejaVuSans-6d" transform="translate(226.904297 0)"/>
      <use xlink:href="#DejaVuSans-69" transform="translate(324.316406 0)"/>
      <use xlink:href="#DejaVuSans-6e" transform="translate(352.099609 0)"/>
     </g>
    </g>
    <g id="line2d_32">
     <path d="M 420.87375 50.094688 
L 430.87375 50.094688 
L 440.87375 50.094688 
" style="fill: none; stroke: #ff7f0e; stroke-width: 1.5; stroke-linecap: square"/>
    </g>
    <g id="text_19">
     <!-- 5.8 min -->
     <g transform="translate(448.87375 53.594688) scale(0.1 -0.1)">
      <use xlink:href="#DejaVuSans-35"/>
      <use xlink:href="#DejaVuSans-2e" transform="translate(63.623047 0)"/>
      <use xlink:href="#DejaVuSans-38" transform="translate(95.410156 0)"/>
      <use xlink:href="#DejaVuSans-20" transform="translate(159.033203 0)"/>
      <use xlink:href="#DejaVuSans-6d" transform="translate(190.820312 0)"/>
      <use xlink:href="#DejaVuSans-69" transform="translate(288.232422 0)"/>
      <use xlink:href="#DejaVuSans-6e" transform="translate(316.015625 0)"/>
     </g>
    </g>
    <g id="line2d_33">
     <path d="M 420.87375 64.772813 
L 430.87375 64.772813 
L 440.87375 64.772813 
" style="fill: none; stroke: #2ca02c; stroke-width: 1.5; stroke-linecap: square"/>
    </g>
    <g id="text_20">
     <!-- 58.3 min -->
     <g transform="translate(448.87375 68.272813) scale(0.1 -0.1)">
      <use xlink:href="#DejaVuSans-35"/>
      <use xlink:href="#DejaVuSans-38" transform="translate(63.623047 0)"/>
      <use xlink:href="#DejaVuSans-2e" transform="translate(127.246094 0)"/>
      <use xlink:href="#DejaVuSans-33" transform="translate(159.033203 0)"/>
      <use xlink:href="#DejaVuSans-20" transform="translate(222.65625 0)"/>
      <use xlink:href="#DejaVuSans-6d" transform="translate(254.443359 0)"/>
      <use xlink:href="#DejaVuSans-69" transform="translate(351.855469 0)"/>
      <use xlink:href="#DejaVuSans-6e" transform="translate(379.638672 0)"/>
     </g>
    </g>
    <g id="line2d_34">
     <path d="M 420.87375 79.450938 
L 430.87375 79.450938 
L 440.87375 79.450938 
" style="fill: none; stroke: #d62728; stroke-width: 1.5; stroke-linecap: square"/>
    </g>
    <g id="text_21">
     <!-- 122.8 min -->
     <g transform="translate(448.87375 82.950938) scale(0.1 -0.1)">
      <use xlink:href="#DejaVuSans-31"/>
      <use xlink:href="#DejaVuSans-32" transform="translate(63.623047 0)"/>
      <use xlink:href="#DejaVuSans-32" transform="translate(127.246094 0)"/>
      <use xlink:href="#DejaVuSans-2e" transform="translate(190.869141 0)"/>
      <use xlink:href="#DejaVuSans-38" transform="translate(222.65625 0)"/>
      <use xlink:href="#DejaVuSans-20" transform="translate(286.279297 0)"/>
      <use xlink:href="#DejaVuSans-6d" transform="translate(318.066406 0)"/>
      <use xlink:href="#DejaVuSans-69" transform="translate(415.478516 0)"/>
      <use xlink:href="#DejaVuSans-6e" transform="translate(443.261719 0)"/>
     </g>
    </g>
    <g id="line2d_35">
     <path d="M 420.87375 94.129063 
L 430.87375 94.129063 
L 440.87375 94.129063 
" style="fill: none; stroke: #9467bd; stroke-width: 1.5; stroke-linecap: square"/>
    </g>
    <g id="text_22">
     <!-- 144.3 min -->
     <g transform="translate(448.87375 97.629063) scale(0.1 -0.1)">
      <use xlink:href="#DejaVuSans-31"/>
      <use xlink:href="#DejaVuSans-34" transform="translate(63.623047 0)"/>
      <use xlink:href="#DejaVuSans-34" transform="translate(127.246094 0)"/>
      <use xlink:href="#DejaVuSans-2e" transform="translate(190.869141 0)"/>
      <use xlink:href="#DejaVuSans-33" transform="translate(222.65625 0)"/>
      <use xlink:href="#DejaVuSans-20" transform="translate(286.279297 0)"/>
      <use xlink:href="#DejaVuSans-6d" transform="translate(318.066406 0)"/>
      <use xlink:href="#DejaVuSans-69" transform="translate(415.478516 0)"/>
      <use xlink:href="#DejaVuSans-6e" transform="translate(443.261719 0)"/>
     </g>
    </g>
    <g id="line2d_36">
     <path d="M 420.87375 108.807187 
L 430.87375 108.807187 
L 440.87375 108.807187 
" style="fill: none; stroke: #8c564b; stroke-width: 1.5; stroke-linecap: square"/>
    </g>
    <g id="text_23">
     <!-- 165.3 min -->
     <g transform="translate(448.87375 112.307187) scale(0.1 -0.1)">
      <use xlink:href="#DejaVuSans-31"/>
      <use xlink:href="#DejaVuSans-36" transform="translate(63.623047 0)"/>
      <use xlink:href="#DejaVuSans-35" transform="translate(127.246094 0)"/>
      <use xlink:href="#DejaVuSans-2e" transform="translate(190.869141 0)"/>
      <use xlink:href="#DejaVuSans-33" transform="translate(222.65625 0)"/>
      <use xlink:href="#DejaVuSans-20" transform="translate(286.279297 0)"/>
      <use xlink:href="#DejaVuSans-6d" transform="translate(318.066406 0)"/>
      <use xlink:href="#DejaVuSans-69" transform="translate(415.478516 0)"/>
      <use xlink:href="#DejaVuSans-6e" transform="translate(443.261719 0)"/>
     </g>
    </g>
    <g id="line2d_37">
     <path d="M 420.87375 123.485313 
L 430.87375 123.485313 
L 440.87375 123.485313 
" style="fill: none; stroke: #e377c2; stroke-width: 1.5; stroke-linecap: square"/>
    </g>
    <g id="text_24">
     <!-- 187.3 min -->
     <g transform="translate(448.87375 126.985313) scale(0.1 -0.1)">
      <use xlink:href="#DejaVuSans-31"/>
      <use xlink:href="#DejaVuSans-38" transform="translate(63.623047 0)"/>
      <use xlink:href="#DejaVuSans-37" transform="translate(127.246094 0)"/>
      <use xlink:href="#DejaVuSans-2e" transform="translate(190.869141 0)"/>
      <use xlink:href="#DejaVuSans-33" transform="translate(222.65625 0)"/>
      <use xlink:href="#DejaVuSans-20" transform="translate(286.279297 0)"/>
      <use xlink:href="#DejaVuSans-6d" transform="translate(318.066406 0)"/>
      <use xlink:href="#DejaVuSans-69" transform="translate(415.478516 0)"/>
      <use xlink:href="#DejaVuSans-6e" transform="translate(443.261719 0)"/>
     </g>
    </g>
    <g id="line2d_38">
     <path d="M 420.87375 138.163437 
L 430.87375 138.163437 
L 440.87375 138.163437 
" style="fill: none; stroke: #7f7f7f; stroke-width: 1.5; stroke-linecap: square"/>
    </g>
    <g id="text_25">
     <!-- 203.3 min -->
     <g transform="translate(448.87375 141.663437) scale(0.1 -0.1)">
      <use xlink:href="#DejaVuSans-32"/>
      <use xlink:href="#DejaVuSans-30" transform="translate(63.623047 0)"/>
      <use xlink:href="#DejaVuSans-33" transform="translate(127.246094 0)"/>
      <use xlink:href="#DejaVuSans-2e" transform="translate(190.869141 0)"/>
      <use xlink:href="#DejaVuSans-33" transform="translate(222.65625 0)"/>
      <use xlink:href="#DejaVuSans-20" transform="translate(286.279297 0)"/>
      <use xlink:href="#DejaVuSans-6d" transform="translate(318.066406 0)"/>
      <use xlink:href="#DejaVuSans-69" transform="translate(415.478516 0)"/>
      <use xlink:href="#DejaVuSans-6e" transform="translate(443.261719 0)"/>
     </g>
    </g>
    <g id="line2d_39">
     <path d="M 420.87375 152.841563 
L 430.87375 152.841563 
L 440.87375 152.841563 
" style="fill: none; stroke: #bcbd22; stroke-width: 1.5; stroke-linecap: square"/>
    </g>
    <g id="text_26">
     <!-- 211.8 min -->
     <g transform="translate(448.87375 156.341563) scale(0.1 -0.1)">
      <use xlink:href="#DejaVuSans-32"/>
      <use xlink:href="#DejaVuSans-31" transform="translate(63.623047 0)"/>
      <use xlink:href="#DejaVuSans-31" transform="translate(127.246094 0)"/>
      <use xlink:href="#DejaVuSans-2e" transform="translate(190.869141 0)"/>
      <use xlink:href="#DejaVuSans-38" transform="translate(222.65625 0)"/>
      <use xlink:href="#DejaVuSans-20" transform="translate(286.279297 0)"/>
      <use xlink:href="#DejaVuSans-6d" transform="translate(318.066406 0)"/>
      <use xlink:href="#DejaVuSans-69" transform="translate(415.478516 0)"/>
      <use xlink:href="#DejaVuSans-6e" transform="translate(443.261719 0)"/>
     </g>
    </g>
    <g id="line2d_40">
     <path d="M 420.87375 167.519687 
L 430.87375 167.519687 
L 440.87375 167.519687 
" style="fill: none; stroke: #17becf; stroke-width: 1.5; stroke-linecap: square"/>
    </g>
    <g id="text_27">
     <!-- 224.8 min -->
     <g transform="translate(448.87375 171.019687) scale(0.1 -0.1)">
      <use xlink:href="#DejaVuSans-32"/>
      <use xlink:href="#DejaVuSans-32" transform="translate(63.623047 0)"/>
      <use xlink:href="#DejaVuSans-34" transform="translate(127.246094 0)"/>
      <use xlink:href="#DejaVuSans-2e" transform="translate(190.869141 0)"/>
      <use xlink:href="#DejaVuSans-38" transform="translate(222.65625 0)"/>
      <use xlink:href="#DejaVuSans-20" transform="translate(286.279297 0)"/>
      <use xlink:href="#DejaVuSans-6d" transform="translate(318.066406 0)"/>
      <use xlink:href="#DejaVuSans-69" transform="translate(415.478516 0)"/>
      <use xlink:href="#DejaVuSans-6e" transform="translate(443.261719 0)"/>
     </g>
    </g>
    <g id="line2d_41">
     <path d="M 420.87375 182.197812 
L 430.87375 182.197812 
L 440.87375 182.197812 
" style="fill: none; stroke: #1f77b4; stroke-width: 1.5; stroke-linecap: square"/>
    </g>
    <g id="text_28">
     <!-- 244.3 min -->
     <g transform="translate(448.87375 185.697812) scale(0.1 -0.1)">
      <use xlink:href="#DejaVuSans-32"/>
      <use xlink:href="#DejaVuSans-34" transform="translate(63.623047 0)"/>
      <use xlink:href="#DejaVuSans-34" transform="translate(127.246094 0)"/>
      <use xlink:href="#DejaVuSans-2e" transform="translate(190.869141 0)"/>
      <use xlink:href="#DejaVuSans-33" transform="translate(222.65625 0)"/>
      <use xlink:href="#DejaVuSans-20" transform="translate(286.279297 0)"/>
      <use xlink:href="#DejaVuSans-6d" transform="translate(318.066406 0)"/>
      <use xlink:href="#DejaVuSans-69" transform="translate(415.478516 0)"/>
      <use xlink:href="#DejaVuSans-6e" transform="translate(443.261719 0)"/>
     </g>
    </g>
    <g id="line2d_42">
     <path d="M 420.87375 196.875937 
L 430.87375 196.875937 
L 440.87375 196.875937 
" style="fill: none; stroke: #ff7f0e; stroke-width: 1.5; stroke-linecap: square"/>
    </g>
    <g id="text_29">
     <!-- 336.8 min -->
     <g transform="translate(448.87375 200.375937) scale(0.1 -0.1)">
      <use xlink:href="#DejaVuSans-33"/>
      <use xlink:href="#DejaVuSans-33" transform="translate(63.623047 0)"/>
      <use xlink:href="#DejaVuSans-36" transform="translate(127.246094 0)"/>
      <use xlink:href="#DejaVuSans-2e" transform="translate(190.869141 0)"/>
      <use xlink:href="#DejaVuSans-38" transform="translate(222.65625 0)"/>
      <use xlink:href="#DejaVuSans-20" transform="translate(286.279297 0)"/>
      <use xlink:href="#DejaVuSans-6d" transform="translate(318.066406 0)"/>
      <use xlink:href="#DejaVuSans-69" transform="translate(415.478516 0)"/>
      <use xlink:href="#DejaVuSans-6e" transform="translate(443.261719 0)"/>
     </g>
    </g>
   </g>
  </g>
 </g>
 <defs>
  <clipPath id="pe621eddb9d">
   <rect x="50.14375" y="22.318125" width="361.73" height="220.6"/>
  </clipPath>
 </defs>
</svg>
