<?xml version="1.0" encoding="utf-8" standalone="no"?>
<!DOCTYPE svg PUBLIC "-//W3C//DTD SVG 1.1//EN"
  "http://www.w3.org/Graphics/SVG/1.1/DTD/svg11.dtd">
<svg xmlns:xlink="http://www.w3.org/1999/xlink" width="568.36375pt" height="280.474375pt" viewBox="0 0 568.36375 280.474375" xmlns="http://www.w3.org/2000/svg" version="1.1">
 <metadata>
  <rdf:RDF xmlns:dc="http://purl.org/dc/elements/1.1/" xmlns:cc="http://creativecommons.org/ns#" xmlns:rdf="http://www.w3.org/1999/02/22-rdf-syntax-ns#">
   <cc:Work>
    <dc:type rdf:resource="http://purl.org/dc/dcmitype/StillImage"/>
    <dc:date>2026-01-13T16:26:25.207006</dc:date>
    <dc:format>image/svg+xml</dc:format>
    <dc:creator>
     <cc:Agent>
      <dc:title>Matplotlib v3.10.0, https://matplotlib.org/</dc:title>
     </cc:Agent>
    </dc:creator>
   </cc:Work>
  </rdf:RDF>
 </metadata>
 <defs>
  <style type="text/css">*{stroke-linejoin: round; stroke-linecap: butt}</style>
 </defs>
 <g id="figure_1">
  <g id="patch_1">
   <path d="M 0 280.474375 
L 568.36375 280.474375 
L 568.36375 0 
L 0 0 
z
" style="fill: #ffffff"/>
  </g>
  <g id="axes_1">
   <g id="patch_2">
    <path d="M 50.14375 242.918125 
L 475.86375 242.918125 
L 475.86375 22.318125 
L 50.14375 22.318125 
z
" style="fill: #ffffff"/>
   </g>
   <g id="matplotlib.axis_1">
    <g id="xtick_1">
     <g id="line2d_1">
      <defs>
       <path id="me3fda646c5" d="M 0 0 
L 0 3.5 
" style="stroke: #000000; stroke-width: 0.8"/>
      </defs>
      <g>
       <use xlink:href="#me3fda646c5" x="464.660592" y="242.918125" style="stroke: #000000; stroke-width: 0.8"/>
      </g>
     </g>
     <g id="text_1">
      <!-- 1175 -->
      <g transform="translate(451.935592 257.516563) scale(0.1 -0.1)">
       <defs>
        <path id="DejaVuSans-31" d="M 794 531 
L 1825 531 
L 1825 4091 
L 703 3866 
L 703 4441 
L 1819 4666 
L 2450 4666 
L 2450 531 
L 3481 531 
L 3481 0 
L 794 0 
L 794 531 
z
" transform="scale(0.015625)"/>
        <path id="DejaVuSans-37" d="M 525 4666 
L 3525 4666 
L 3525 4397 
L 1831 0 
L 1172 0 
L 2766 4134 
L 525 4134 
L 525 4666 
z
" transform="scale(0.015625)"/>
        <path id="DejaVuSans-35" d="M 691 4666 
L 3169 4666 
L 3169 4134 
L 1269 4134 
L 1269 2991 
Q 1406 3038 1543 3061 
Q 1681 3084 1819 3084 
Q 2600 3084 3056 2656 
Q 3513 2228 3513 1497 
Q 3513 744 3044 326 
Q 2575 -91 1722 -91 
Q 1428 -91 1123 -41 
Q 819 9 494 109 
L 494 744 
Q 775 591 1075 516 
Q 1375 441 1709 441 
Q 2250 441 2565 725 
Q 2881 1009 2881 1497 
Q 2881 1984 2565 2268 
Q 2250 2553 1709 2553 
Q 1456 2553 1204 2497 
Q 953 2441 691 2322 
L 691 4666 
z
" transform="scale(0.015625)"/>
       </defs>
       <use xlink:href="#DejaVuSans-31"/>
       <use xlink:href="#DejaVuSans-31" transform="translate(63.623047 0)"/>
       <use xlink:href="#DejaVuSans-37" transform="translate(127.246094 0)"/>
       <use xlink:href="#DejaVuSans-35" transform="translate(190.869141 0)"/>
      </g>
     </g>
    </g>
    <g id="xtick_2">
     <g id="line2d_2">
      <g>
       <use xlink:href="#me3fda646c5" x="408.644803" y="242.918125" style="stroke: #000000; stroke-width: 0.8"/>
      </g>
     </g>
     <g id="text_2">
      <!-- 1200 -->
      <g transform="translate(395.919803 257.516563) scale(0.1 -0.1)">
       <defs>
        <path id="DejaVuSans-32" d="M 1228 531 
L 3431 531 
L 3431 0 
L 469 0 
L 469 531 
Q 828 903 1448 1529 
Q 2069 2156 2228 2338 
Q 2531 2678 2651 2914 
Q 2772 3150 2772 3378 
Q 2772 3750 2511 3984 
Q 2250 4219 1831 4219 
Q 1534 4219 1204 4116 
Q 875 4013 500 3803 
L 500 4441 
Q 881 4594 1212 4672 
Q 1544 4750 1819 4750 
Q 2544 4750 2975 4387 
Q 3406 4025 3406 3419 
Q 3406 3131 3298 2873 
Q 3191 2616 2906 2266 
Q 2828 2175 2409 1742 
Q 1991 1309 1228 531 
z
" transform="scale(0.015625)"/>
        <path id="DejaVuSans-30" d="M 2034 4250 
Q 1547 4250 1301 3770 
Q 1056 3291 1056 2328 
Q 1056 1369 1301 889 
Q 1547 409 2034 409 
Q 2525 409 2770 889 
Q 3016 1369 3016 2328 
Q 3016 3291 2770 3770 
Q 2525 4250 2034 4250 
z
M 2034 4750 
Q 2819 4750 3233 4129 
Q 3647 3509 3647 2328 
Q 3647 1150 3233 529 
Q 2819 -91 2034 -91 
Q 1250 -91 836 529 
Q 422 1150 422 2328 
Q 422 3509 836 4129 
Q 1250 4750 2034 4750 
z
" transform="scale(0.015625)"/>
       </defs>
       <use xlink:href="#DejaVuSans-31"/>
       <use xlink:href="#DejaVuSans-32" transform="translate(63.623047 0)"/>
       <use xlink:href="#DejaVuSans-30" transform="translate(127.246094 0)"/>
       <use xlink:href="#DejaVuSans-30" transform="translate(190.869141 0)"/>
      </g>
     </g>
    </g>
    <g id="xtick_3">
     <g id="line2d_3">
      <g>
       <use xlink:href="#me3fda646c5" x="352.629013" y="242.918125" style="stroke: #000000; stroke-width: 0.8"/>
      </g>
     </g>
     <g id="text_3">
      <!-- 1225 -->
      <g transform="translate(339.904013 257.516563) scale(0.1 -0.1)">
       <use xlink:href="#DejaVuSans-31"/>
       <use xlink:href="#DejaVuSans-32" transform="translate(63.623047 0)"/>
       <use xlink:href="#DejaVuSans-32" transform="translate(127.246094 0)"/>
       <use xlink:href="#DejaVuSans-35" transform="translate(190.869141 0)"/>
      </g>
     </g>
    </g>
    <g id="xtick_4">
     <g id="line2d_4">
      <g>
       <use xlink:href="#me3fda646c5" x="296.613224" y="242.918125" style="stroke: #000000; stroke-width: 0.8"/>
      </g>
     </g>
     <g id="text_4">
      <!-- 1250 -->
      <g transform="translate(283.888224 257.516563) scale(0.1 -0.1)">
       <use xlink:href="#DejaVuSans-31"/>
       <use xlink:href="#DejaVuSans-32" transform="translate(63.623047 0)"/>
       <use xlink:href="#DejaVuSans-35" transform="translate(127.246094 0)"/>
       <use xlink:href="#DejaVuSans-30" transform="translate(190.869141 0)"/>
      </g>
     </g>
    </g>
    <g id="xtick_5">
     <g id="line2d_5">
      <g>
       <use xlink:href="#me3fda646c5" x="240.597434" y="242.918125" style="stroke: #000000; stroke-width: 0.8"/>
      </g>
     </g>
     <g id="text_5">
      <!-- 1275 -->
      <g transform="translate(227.872434 257.516563) scale(0.1 -0.1)">
       <use xlink:href="#DejaVuSans-31"/>
       <use xlink:href="#DejaVuSans-32" transform="translate(63.623047 0)"/>
       <use xlink:href="#DejaVuSans-37" transform="translate(127.246094 0)"/>
       <use xlink:href="#DejaVuSans-35" transform="translate(190.869141 0)"/>
      </g>
     </g>
    </g>
    <g id="xtick_6">
     <g id="line2d_6">
      <g>
       <use xlink:href="#me3fda646c5" x="184.581645" y="242.918125" style="stroke: #000000; stroke-width: 0.8"/>
      </g>
     </g>
     <g id="text_6">
      <!-- 1300 -->
      <g transform="translate(171.856645 257.516563) scale(0.1 -0.1)">
       <defs>
        <path id="DejaVuSans-33" d="M 2597 2516 
Q 3050 2419 3304 2112 
Q 3559 1806 3559 1356 
Q 3559 666 3084 287 
Q 2609 -91 1734 -91 
Q 1441 -91 1130 -33 
Q 819 25 488 141 
L 488 750 
Q 750 597 1062 519 
Q 1375 441 1716 441 
Q 2309 441 2620 675 
Q 2931 909 2931 1356 
Q 2931 1769 2642 2001 
Q 2353 2234 1838 2234 
L 1294 2234 
L 1294 2753 
L 1863 2753 
Q 2328 2753 2575 2939 
Q 2822 3125 2822 3475 
Q 2822 3834 2567 4026 
Q 2313 4219 1838 4219 
Q 1578 4219 1281 4162 
Q 984 4106 628 3988 
L 628 4550 
Q 988 4650 1302 4700 
Q 1616 4750 1894 4750 
Q 2613 4750 3031 4423 
Q 3450 4097 3450 3541 
Q 3450 3153 3228 2886 
Q 3006 2619 2597 2516 
z
" transform="scale(0.015625)"/>
       </defs>
       <use xlink:href="#DejaVuSans-31"/>
       <use xlink:href="#DejaVuSans-33" transform="translate(63.623047 0)"/>
       <use xlink:href="#DejaVuSans-30" transform="translate(127.246094 0)"/>
       <use xlink:href="#DejaVuSans-30" transform="translate(190.869141 0)"/>
      </g>
     </g>
    </g>
    <g id="xtick_7">
     <g id="line2d_7">
      <g>
       <use xlink:href="#me3fda646c5" x="128.565855" y="242.918125" style="stroke: #000000; stroke-width: 0.8"/>
      </g>
     </g>
     <g id="text_7">
      <!-- 1325 -->
      <g transform="translate(115.840855 257.516563) scale(0.1 -0.1)">
       <use xlink:href="#DejaVuSans-31"/>
       <use xlink:href="#DejaVuSans-33" transform="translate(63.623047 0)"/>
       <use xlink:href="#DejaVuSans-32" transform="translate(127.246094 0)"/>
       <use xlink:href="#DejaVuSans-35" transform="translate(190.869141 0)"/>
      </g>
     </g>
    </g>
    <g id="xtick_8">
     <g id="line2d_8">
      <g>
       <use xlink:href="#me3fda646c5" x="72.550066" y="242.918125" style="stroke: #000000; stroke-width: 0.8"/>
      </g>
     </g>
     <g id="text_8">
      <!-- 1350 -->
      <g transform="translate(59.825066 257.516563) scale(0.1 -0.1)">
       <use xlink:href="#DejaVuSans-31"/>
       <use xlink:href="#DejaVuSans-33" transform="translate(63.623047 0)"/>
       <use xlink:href="#DejaVuSans-35" transform="translate(127.246094 0)"/>
       <use xlink:href="#DejaVuSans-30" transform="translate(190.869141 0)"/>
      </g>
     </g>
    </g>
    <g id="text_9">
     <!-- Wavenumber (cm⁻¹) -->
     <g transform="translate(212.010781 271.194687) scale(0.1 -0.1)">
      <defs>
       <path id="DejaVuSans-57" d="M 213 4666 
L 850 4666 
L 1831 722 
L 2809 4666 
L 3519 4666 
L 4500 722 
L 5478 4666 
L 6119 4666 
L 4947 0 
L 4153 0 
L 3169 4050 
L 2175 0 
L 1381 0 
L 213 4666 
z
" transform="scale(0.015625)"/>
       <path id="DejaVuSans-61" d="M 2194 1759 
Q 1497 1759 1228 1600 
Q 959 1441 959 1056 
Q 959 750 1161 570 
Q 1363 391 1709 391 
Q 2188 391 2477 730 
Q 2766 1069 2766 1631 
L 2766 1759 
L 2194 1759 
z
M 3341 1997 
L 3341 0 
L 2766 0 
L 2766 531 
Q 2569 213 2275 61 
Q 1981 -91 1556 -91 
Q 1019 -91 701 211 
Q 384 513 384 1019 
Q 384 1609 779 1909 
Q 1175 2209 1959 2209 
L 2766 2209 
L 2766 2266 
Q 2766 2663 2505 2880 
Q 2244 3097 1772 3097 
Q 1472 3097 1187 3025 
Q 903 2953 641 2809 
L 641 3341 
Q 956 3463 1253 3523 
Q 1550 3584 1831 3584 
Q 2591 3584 2966 3190 
Q 3341 2797 3341 1997 
z
" transform="scale(0.015625)"/>
       <path id="DejaVuSans-76" d="M 191 3500 
L 800 3500 
L 1894 563 
L 2988 3500 
L 3597 3500 
L 2284 0 
L 1503 0 
L 191 3500 
z
" transform="scale(0.015625)"/>
       <path id="DejaVuSans-65" d="M 3597 1894 
L 3597 1613 
L 953 1613 
Q 991 1019 1311 708 
Q 1631 397 2203 397 
Q 2534 397 2845 478 
Q 3156 559 3463 722 
L 3463 178 
Q 3153 47 2828 -22 
Q 2503 -91 2169 -91 
Q 1331 -91 842 396 
Q 353 884 353 1716 
Q 353 2575 817 3079 
Q 1281 3584 2069 3584 
Q 2775 3584 3186 3129 
Q 3597 2675 3597 1894 
z
M 3022 2063 
Q 3016 2534 2758 2815 
Q 2500 3097 2075 3097 
Q 1594 3097 1305 2825 
Q 1016 2553 972 2059 
L 3022 2063 
z
" transform="scale(0.015625)"/>
       <path id="DejaVuSans-6e" d="M 3513 2113 
L 3513 0 
L 2938 0 
L 2938 2094 
Q 2938 2591 2744 2837 
Q 2550 3084 2163 3084 
Q 1697 3084 1428 2787 
Q 1159 2491 1159 1978 
L 1159 0 
L 581 0 
L 581 3500 
L 1159 3500 
L 1159 2956 
Q 1366 3272 1645 3428 
Q 1925 3584 2291 3584 
Q 2894 3584 3203 3211 
Q 3513 2838 3513 2113 
z
" transform="scale(0.015625)"/>
       <path id="DejaVuSans-75" d="M 544 1381 
L 544 3500 
L 1119 3500 
L 1119 1403 
Q 1119 906 1312 657 
Q 1506 409 1894 409 
Q 2359 409 2629 706 
Q 2900 1003 2900 1516 
L 2900 3500 
L 3475 3500 
L 3475 0 
L 2900 0 
L 2900 538 
Q 2691 219 2414 64 
Q 2138 -91 1772 -91 
Q 1169 -91 856 284 
Q 544 659 544 1381 
z
M 1991 3584 
L 1991 3584 
z
" transform="scale(0.015625)"/>
       <path id="DejaVuSans-6d" d="M 3328 2828 
Q 3544 3216 3844 3400 
Q 4144 3584 4550 3584 
Q 5097 3584 5394 3201 
Q 5691 2819 5691 2113 
L 5691 0 
L 5113 0 
L 5113 2094 
Q 5113 2597 4934 2840 
Q 4756 3084 4391 3084 
Q 3944 3084 3684 2787 
Q 3425 2491 3425 1978 
L 3425 0 
L 2847 0 
L 2847 2094 
Q 2847 2600 2669 2842 
Q 2491 3084 2119 3084 
Q 1678 3084 1418 2786 
Q 1159 2488 1159 1978 
L 1159 0 
L 581 0 
L 581 3500 
L 1159 3500 
L 1159 2956 
Q 1356 3278 1631 3431 
Q 1906 3584 2284 3584 
Q 2666 3584 2933 3390 
Q 3200 3197 3328 2828 
z
" transform="scale(0.015625)"/>
       <path id="DejaVuSans-62" d="M 3116 1747 
Q 3116 2381 2855 2742 
Q 2594 3103 2138 3103 
Q 1681 3103 1420 2742 
Q 1159 2381 1159 1747 
Q 1159 1113 1420 752 
Q 1681 391 2138 391 
Q 2594 391 2855 752 
Q 3116 1113 3116 1747 
z
M 1159 2969 
Q 1341 3281 1617 3432 
Q 1894 3584 2278 3584 
Q 2916 3584 3314 3078 
Q 3713 2572 3713 1747 
Q 3713 922 3314 415 
Q 2916 -91 2278 -91 
Q 1894 -91 1617 61 
Q 1341 213 1159 525 
L 1159 0 
L 581 0 
L 581 4863 
L 1159 4863 
L 1159 2969 
z
" transform="scale(0.015625)"/>
       <path id="DejaVuSans-72" d="M 2631 2963 
Q 2534 3019 2420 3045 
Q 2306 3072 2169 3072 
Q 1681 3072 1420 2755 
Q 1159 2438 1159 1844 
L 1159 0 
L 581 0 
L 581 3500 
L 1159 3500 
L 1159 2956 
Q 1341 3275 1631 3429 
Q 1922 3584 2338 3584 
Q 2397 3584 2469 3576 
Q 2541 3569 2628 3553 
L 2631 2963 
z
" transform="scale(0.015625)"/>
       <path id="DejaVuSans-20" transform="scale(0.015625)"/>
       <path id="DejaVuSans-28" d="M 1984 4856 
Q 1566 4138 1362 3434 
Q 1159 2731 1159 2009 
Q 1159 1288 1364 580 
Q 1569 -128 1984 -844 
L 1484 -844 
Q 1016 -109 783 600 
Q 550 1309 550 2009 
Q 550 2706 781 3412 
Q 1013 4119 1484 4856 
L 1984 4856 
z
" transform="scale(0.015625)"/>
       <path id="DejaVuSans-63" d="M 3122 3366 
L 3122 2828 
Q 2878 2963 2633 3030 
Q 2388 3097 2138 3097 
Q 1578 3097 1268 2742 
Q 959 2388 959 1747 
Q 959 1106 1268 751 
Q 1578 397 2138 397 
Q 2388 397 2633 464 
Q 2878 531 3122 666 
L 3122 134 
Q 2881 22 2623 -34 
Q 2366 -91 2075 -91 
Q 1284 -91 818 406 
Q 353 903 353 1747 
Q 353 2603 823 3093 
Q 1294 3584 2113 3584 
Q 2378 3584 2631 3529 
Q 2884 3475 3122 3366 
z
" transform="scale(0.015625)"/>
       <path id="DejaVuSans-207b" d="M 428 3359 
L 2950 3359 
L 2950 3063 
L 428 3063 
L 428 3359 
z
" transform="scale(0.015625)"/>
       <path id="DejaVuSans-b9" d="M 488 2431 
L 1125 2431 
L 1125 4341 
L 428 4213 
L 428 4575 
L 1147 4697 
L 1575 4697 
L 1575 2431 
L 2216 2431 
L 2216 2088 
L 488 2088 
L 488 2431 
z
" transform="scale(0.015625)"/>
       <path id="DejaVuSans-29" d="M 513 4856 
L 1013 4856 
Q 1481 4119 1714 3412 
Q 1947 2706 1947 2009 
Q 1947 1309 1714 600 
Q 1481 -109 1013 -844 
L 513 -844 
Q 928 -128 1133 580 
Q 1338 1288 1338 2009 
Q 1338 2731 1133 3434 
Q 928 4138 513 4856 
z
" transform="scale(0.015625)"/>
      </defs>
      <use xlink:href="#DejaVuSans-57"/>
      <use xlink:href="#DejaVuSans-61" transform="translate(92.501953 0)"/>
      <use xlink:href="#DejaVuSans-76" transform="translate(153.78125 0)"/>
      <use xlink:href="#DejaVuSans-65" transform="translate(212.960938 0)"/>
      <use xlink:href="#DejaVuSans-6e" transform="translate(274.484375 0)"/>
      <use xlink:href="#DejaVuSans-75" transform="translate(337.863281 0)"/>
      <use xlink:href="#DejaVuSans-6d" transform="translate(401.242188 0)"/>
      <use xlink:href="#DejaVuSans-62" transform="translate(498.654297 0)"/>
      <use xlink:href="#DejaVuSans-65" transform="translate(562.130859 0)"/>
      <use xlink:href="#DejaVuSans-72" transform="translate(623.654297 0)"/>
      <use xlink:href="#DejaVuSans-20" transform="translate(664.767578 0)"/>
      <use xlink:href="#DejaVuSans-28" transform="translate(696.554688 0)"/>
      <use xlink:href="#DejaVuSans-63" transform="translate(735.568359 0)"/>
      <use xlink:href="#DejaVuSans-6d" transform="translate(790.548828 0)"/>
      <use xlink:href="#DejaVuSans-207b" transform="translate(887.960938 0)"/>
      <use xlink:href="#DejaVuSans-b9" transform="translate(940.744141 0)"/>
      <use xlink:href="#DejaVuSans-29" transform="translate(980.832031 0)"/>
     </g>
    </g>
   </g>
   <g id="matplotlib.axis_2">
    <g id="ytick_1">
     <g id="line2d_9">
      <defs>
       <path id="ma293ae479c" d="M 0 0 
L -3.5 0 
" style="stroke: #000000; stroke-width: 0.8"/>
      </defs>
      <g>
       <use xlink:href="#ma293ae479c" x="50.14375" y="242.918125" style="stroke: #000000; stroke-width: 0.8"/>
      </g>
     </g>
     <g id="text_10">
      <!-- 0.00 -->
      <g transform="translate(20.878125 246.717344) scale(0.1 -0.1)">
       <defs>
        <path id="DejaVuSans-2e" d="M 684 794 
L 1344 794 
L 1344 0 
L 684 0 
L 684 794 
z
" transform="scale(0.015625)"/>
       </defs>
       <use xlink:href="#DejaVuSans-30"/>
       <use xlink:href="#DejaVuSans-2e" transform="translate(63.623047 0)"/>
       <use xlink:href="#DejaVuSans-30" transform="translate(95.410156 0)"/>
       <use xlink:href="#DejaVuSans-30" transform="translate(159.033203 0)"/>
      </g>
     </g>
    </g>
    <g id="ytick_2">
     <g id="line2d_10">
      <g>
       <use xlink:href="#ma293ae479c" x="50.14375" y="216.65622" style="stroke: #000000; stroke-width: 0.8"/>
      </g>
     </g>
     <g id="text_11">
      <!-- 0.05 -->
      <g transform="translate(20.878125 220.455439) scale(0.1 -0.1)">
       <use xlink:href="#DejaVuSans-30"/>
       <use xlink:href="#DejaVuSans-2e" transform="translate(63.623047 0)"/>
       <use xlink:href="#DejaVuSans-30" transform="translate(95.410156 0)"/>
       <use xlink:href="#DejaVuSans-35" transform="translate(159.033203 0)"/>
      </g>
     </g>
    </g>
    <g id="ytick_3">
     <g id="line2d_11">
      <g>
       <use xlink:href="#ma293ae479c" x="50.14375" y="190.394315" style="stroke: #000000; stroke-width: 0.8"/>
      </g>
     </g>
     <g id="text_12">
      <!-- 0.10 -->
      <g transform="translate(20.878125 194.193534) scale(0.1 -0.1)">
       <use xlink:href="#DejaVuSans-30"/>
       <use xlink:href="#DejaVuSans-2e" transform="translate(63.623047 0)"/>
       <use xlink:href="#DejaVuSans-31" transform="translate(95.410156 0)"/>
       <use xlink:href="#DejaVuSans-30" transform="translate(159.033203 0)"/>
      </g>
     </g>
    </g>
    <g id="ytick_4">
     <g id="line2d_12">
      <g>
       <use xlink:href="#ma293ae479c" x="50.14375" y="164.132411" style="stroke: #000000; stroke-width: 0.8"/>
      </g>
     </g>
     <g id="text_13">
      <!-- 0.15 -->
      <g transform="translate(20.878125 167.931629) scale(0.1 -0.1)">
       <use xlink:href="#DejaVuSans-30"/>
       <use xlink:href="#DejaVuSans-2e" transform="translate(63.623047 0)"/>
       <use xlink:href="#DejaVuSans-31" transform="translate(95.410156 0)"/>
       <use xlink:href="#DejaVuSans-35" transform="translate(159.033203 0)"/>
      </g>
     </g>
    </g>
    <g id="ytick_5">
     <g id="line2d_13">
      <g>
       <use xlink:href="#ma293ae479c" x="50.14375" y="137.870506" style="stroke: #000000; stroke-width: 0.8"/>
      </g>
     </g>
     <g id="text_14">
      <!-- 0.20 -->
      <g transform="translate(20.878125 141.669725) scale(0.1 -0.1)">
       <use xlink:href="#DejaVuSans-30"/>
       <use xlink:href="#DejaVuSans-2e" transform="translate(63.623047 0)"/>
       <use xlink:href="#DejaVuSans-32" transform="translate(95.410156 0)"/>
       <use xlink:href="#DejaVuSans-30" transform="translate(159.033203 0)"/>
      </g>
     </g>
    </g>
    <g id="ytick_6">
     <g id="line2d_14">
      <g>
       <use xlink:href="#ma293ae479c" x="50.14375" y="111.608601" style="stroke: #000000; stroke-width: 0.8"/>
      </g>
     </g>
     <g id="text_15">
      <!-- 0.25 -->
      <g transform="translate(20.878125 115.40782) scale(0.1 -0.1)">
       <use xlink:href="#DejaVuSans-30"/>
       <use xlink:href="#DejaVuSans-2e" transform="translate(63.623047 0)"/>
       <use xlink:href="#DejaVuSans-32" transform="translate(95.410156 0)"/>
       <use xlink:href="#DejaVuSans-35" transform="translate(159.033203 0)"/>
      </g>
     </g>
    </g>
    <g id="ytick_7">
     <g id="line2d_15">
      <g>
       <use xlink:href="#ma293ae479c" x="50.14375" y="85.346696" style="stroke: #000000; stroke-width: 0.8"/>
      </g>
     </g>
     <g id="text_16">
      <!-- 0.30 -->
      <g transform="translate(20.878125 89.145915) scale(0.1 -0.1)">
       <use xlink:href="#DejaVuSans-30"/>
       <use xlink:href="#DejaVuSans-2e" transform="translate(63.623047 0)"/>
       <use xlink:href="#DejaVuSans-33" transform="translate(95.410156 0)"/>
       <use xlink:href="#DejaVuSans-30" transform="translate(159.033203 0)"/>
      </g>
     </g>
    </g>
    <g id="ytick_8">
     <g id="line2d_16">
      <g>
       <use xlink:href="#ma293ae479c" x="50.14375" y="59.084792" style="stroke: #000000; stroke-width: 0.8"/>
      </g>
     </g>
     <g id="text_17">
      <!-- 0.35 -->
      <g transform="translate(20.878125 62.88401) scale(0.1 -0.1)">
       <use xlink:href="#DejaVuSans-30"/>
       <use xlink:href="#DejaVuSans-2e" transform="translate(63.623047 0)"/>
       <use xlink:href="#DejaVuSans-33" transform="translate(95.410156 0)"/>
       <use xlink:href="#DejaVuSans-35" transform="translate(159.033203 0)"/>
      </g>
     </g>
    </g>
    <g id="ytick_9">
     <g id="line2d_17">
      <g>
       <use xlink:href="#ma293ae479c" x="50.14375" y="32.822887" style="stroke: #000000; stroke-width: 0.8"/>
      </g>
     </g>
     <g id="text_18">
      <!-- 0.40 -->
      <g transform="translate(20.878125 36.622106) scale(0.1 -0.1)">
       <defs>
        <path id="DejaVuSans-34" d="M 2419 4116 
L 825 1625 
L 2419 1625 
L 2419 4116 
z
M 2253 4666 
L 3047 4666 
L 3047 1625 
L 3713 1625 
L 3713 1100 
L 3047 1100 
L 3047 0 
L 2419 0 
L 2419 1100 
L 313 1100 
L 313 1709 
L 2253 4666 
z
" transform="scale(0.015625)"/>
       </defs>
       <use xlink:href="#DejaVuSans-30"/>
       <use xlink:href="#DejaVuSans-2e" transform="translate(63.623047 0)"/>
       <use xlink:href="#DejaVuSans-34" transform="translate(95.410156 0)"/>
       <use xlink:href="#DejaVuSans-30" transform="translate(159.033203 0)"/>
      </g>
     </g>
    </g>
    <g id="text_19">
     <!-- Absorbance -->
     <g transform="translate(14.798438 162.165) rotate(-90) scale(0.1 -0.1)">
      <defs>
       <path id="DejaVuSans-41" d="M 2188 4044 
L 1331 1722 
L 3047 1722 
L 2188 4044 
z
M 1831 4666 
L 2547 4666 
L 4325 0 
L 3669 0 
L 3244 1197 
L 1141 1197 
L 716 0 
L 50 0 
L 1831 4666 
z
" transform="scale(0.015625)"/>
       <path id="DejaVuSans-73" d="M 2834 3397 
L 2834 2853 
Q 2591 2978 2328 3040 
Q 2066 3103 1784 3103 
Q 1356 3103 1142 2972 
Q 928 2841 928 2578 
Q 928 2378 1081 2264 
Q 1234 2150 1697 2047 
L 1894 2003 
Q 2506 1872 2764 1633 
Q 3022 1394 3022 966 
Q 3022 478 2636 193 
Q 2250 -91 1575 -91 
Q 1294 -91 989 -36 
Q 684 19 347 128 
L 347 722 
Q 666 556 975 473 
Q 1284 391 1588 391 
Q 1994 391 2212 530 
Q 2431 669 2431 922 
Q 2431 1156 2273 1281 
Q 2116 1406 1581 1522 
L 1381 1569 
Q 847 1681 609 1914 
Q 372 2147 372 2553 
Q 372 3047 722 3315 
Q 1072 3584 1716 3584 
Q 2034 3584 2315 3537 
Q 2597 3491 2834 3397 
z
" transform="scale(0.015625)"/>
       <path id="DejaVuSans-6f" d="M 1959 3097 
Q 1497 3097 1228 2736 
Q 959 2375 959 1747 
Q 959 1119 1226 758 
Q 1494 397 1959 397 
Q 2419 397 2687 759 
Q 2956 1122 2956 1747 
Q 2956 2369 2687 2733 
Q 2419 3097 1959 3097 
z
M 1959 3584 
Q 2709 3584 3137 3096 
Q 3566 2609 3566 1747 
Q 3566 888 3137 398 
Q 2709 -91 1959 -91 
Q 1206 -91 779 398 
Q 353 888 353 1747 
Q 353 2609 779 3096 
Q 1206 3584 1959 3584 
z
" transform="scale(0.015625)"/>
      </defs>
      <use xlink:href="#DejaVuSans-41"/>
      <use xlink:href="#DejaVuSans-62" transform="translate(68.408203 0)"/>
      <use xlink:href="#DejaVuSans-73" transform="translate(131.884766 0)"/>
      <use xlink:href="#DejaVuSans-6f" transform="translate(183.984375 0)"/>
      <use xlink:href="#DejaVuSans-72" transform="translate(245.166016 0)"/>
      <use xlink:href="#DejaVuSans-62" transform="translate(286.279297 0)"/>
      <use xlink:href="#DejaVuSans-61" transform="translate(349.755859 0)"/>
      <use xlink:href="#DejaVuSans-6e" transform="translate(411.035156 0)"/>
      <use xlink:href="#DejaVuSans-63" transform="translate(474.414062 0)"/>
      <use xlink:href="#DejaVuSans-65" transform="translate(529.394531 0)"/>
     </g>
    </g>
   </g>
   <g id="line2d_18">
    <path d="M -1 142.235999 
L 2.382699 146.316167 
L 6.559514 150.362095 
L 10.736329 153.567836 
L 14.913144 156.295629 
L 19.08996 158.206981 
L 23.266775 159.240468 
L 27.44359 159.045036 
L 31.620405 158.098952 
L 35.79722 156.961877 
L 39.974035 154.81467 
L 44.15085 151.537355 
L 52.50448 145.67936 
L 56.681296 141.542936 
L 60.858111 135.899968 
L 65.034926 129.22183 
L 73.388556 114.702684 
L 77.565371 109.459862 
L 81.742186 108.606347 
L 85.919001 112.309857 
L 90.095816 117.894656 
L 94.272632 122.564268 
L 98.449447 125.235862 
L 102.626262 125.938139 
L 106.803077 125.039405 
L 110.979892 123.132868 
L 115.156707 120.759984 
L 119.333522 118.611985 
L 123.510337 116.89483 
L 131.863968 114.089644 
L 136.040783 112.051871 
L 140.217598 108.674454 
L 144.394413 103.478821 
L 148.571228 95.799495 
L 152.748043 84.730683 
L 156.924858 71.471887 
L 161.101673 60.251446 
L 165.278488 56.082485 
L 169.455304 61.791999 
L 173.632119 75.705605 
L 177.808934 93.140249 
L 181.985749 109.669059 
L 186.162564 122.325529 
L 190.339379 130.141624 
L 194.516194 133.881988 
L 198.693009 135.442645 
L 202.869824 137.276101 
L 207.04664 141.543567 
L 211.223455 148.45281 
L 215.40027 156.166294 
L 219.577085 162.530754 
L 223.7539 166.449735 
L 227.930715 167.943304 
L 232.10753 167.17471 
L 236.284345 164.206201 
L 240.46116 159.269749 
L 244.637976 153.328903 
L 248.814791 147.840137 
L 252.991606 144.395441 
L 257.168421 143.991464 
L 261.345236 146.658959 
L 265.522051 151.479264 
L 278.052496 168.588357 
L 282.229312 173.987237 
L 286.406127 178.6842 
L 290.582942 182.324892 
L 294.759757 185.068621 
L 298.936572 187.526159 
L 303.113387 190.249877 
L 307.290202 193.596143 
L 311.467017 197.297097 
L 315.643832 200.579793 
L 319.820648 203.048929 
L 328.174278 207.147552 
L 332.351093 209.00776 
L 336.527908 210.54096 
L 340.704723 212.238728 
L 344.881538 214.407983 
L 349.058353 216.353652 
L 353.235169 217.16897 
L 361.588799 216.54516 
L 369.942429 216.469809 
L 374.119244 216.308494 
L 378.296059 216.467372 
L 382.472874 216.947026 
L 386.649689 217.276364 
L 390.826505 217.113204 
L 399.180135 216.264227 
L 403.35695 215.675377 
L 407.533765 214.456389 
L 411.71058 212.244226 
L 415.887395 208.679121 
L 420.06421 203.776836 
L 424.241025 198.540835 
L 428.417841 194.567866 
L 432.594656 193.320541 
L 436.771471 195.278447 
L 440.948286 199.601677 
L 445.125101 204.571879 
L 449.301916 208.720434 
L 453.478731 211.531582 
L 457.655546 213.354261 
L 461.832361 214.612455 
L 466.009177 215.1207 
L 470.185992 214.678942 
L 474.362807 213.683808 
L 478.539622 212.391854 
L 486.893252 208.820334 
L 491.070067 208.054503 
L 495.246882 208.945882 
L 499.423697 210.510957 
L 503.600513 211.542016 
L 507.777328 211.782276 
L 511.954143 211.149341 
L 516.130958 209.395386 
L 520.307773 206.964455 
L 524.484588 205.34232 
L 528.661403 205.611427 
L 532.838218 206.895386 
L 537.015033 207.892643 
L 541.191849 208.342129 
L 545.368664 208.28204 
L 549.545479 207.378309 
L 557.899109 204.145547 
L 562.075924 203.23559 
L 566.252739 202.621242 
L 569.36375 201.957833 
L 569.36375 201.957833 
" clip-path="url(#p605f1dbc39)" style="fill: none; stroke: #1f77b4; stroke-width: 1.5; stroke-linecap: square"/>
   </g>
   <g id="line2d_19">
    <path d="M -1 141.305319 
L 2.382699 145.485394 
L 6.559514 149.964506 
L 10.736329 153.210214 
L 14.913144 155.614338 
L 19.08996 157.534559 
L 23.266775 159.077077 
L 27.44359 159.348459 
L 31.620405 158.406503 
L 35.79722 157.105972 
L 39.974035 155.209325 
L 48.327665 149.608858 
L 52.50448 146.505536 
L 56.681296 142.543903 
L 60.858111 137.506036 
L 65.034926 131.307586 
L 73.388556 117.107511 
L 77.565371 112.335244 
L 81.742186 111.54427 
L 85.919001 114.298267 
L 90.095816 118.481276 
L 94.272632 121.882261 
L 98.449447 123.32604 
L 102.626262 122.489927 
L 106.803077 119.960337 
L 110.979892 117.189347 
L 115.156707 115.141981 
L 123.510337 112.4759 
L 127.687152 111.453773 
L 131.863968 110.703357 
L 136.040783 109.274155 
L 140.217598 105.934307 
L 144.394413 100.318406 
L 148.571228 92.552422 
L 152.748043 81.987773 
L 156.924858 69.106489 
L 161.101673 57.701934 
L 165.278488 53.400205 
L 169.455304 59.472694 
L 173.632119 73.695453 
L 177.808934 90.994689 
L 181.985749 107.311054 
L 186.162564 120.211288 
L 190.339379 128.634615 
L 194.516194 132.714147 
L 198.693009 134.226706 
L 202.869824 136.163095 
L 207.04664 140.925538 
L 211.223455 148.279786 
L 215.40027 155.96954 
L 219.577085 162.170436 
L 223.7539 166.311411 
L 227.930715 168.259137 
L 232.10753 167.63198 
L 236.284345 164.458557 
L 240.46116 159.576169 
L 244.637976 154.222698 
L 248.814791 149.39407 
L 252.991606 146.135359 
L 257.168421 145.612067 
L 261.345236 148.438063 
L 265.522051 153.606707 
L 269.698866 159.227812 
L 278.052496 169.912365 
L 282.229312 175.392439 
L 286.406127 179.946725 
L 290.582942 182.993077 
L 294.759757 185.169429 
L 298.936572 187.498487 
L 303.113387 190.159747 
L 315.643832 198.569677 
L 319.820648 200.587318 
L 323.997463 201.848712 
L 328.174278 202.846615 
L 332.351093 204.201219 
L 336.527908 206.205332 
L 340.704723 208.749158 
L 344.881538 211.497584 
L 349.058353 213.858508 
L 353.235169 215.301347 
L 357.411984 215.760021 
L 369.942429 215.610028 
L 374.119244 215.872297 
L 382.472874 216.656688 
L 390.826505 216.943582 
L 395.00332 216.882294 
L 399.180135 216.46749 
L 403.35695 215.685226 
L 407.533765 214.596698 
L 411.71058 212.835135 
L 415.887395 209.577391 
L 420.06421 204.628125 
L 424.241025 199.478386 
L 428.417841 196.124748 
L 432.594656 195.416055 
L 436.771471 197.135729 
L 440.948286 200.865974 
L 445.125101 205.639055 
L 449.301916 209.853855 
L 453.478731 212.425468 
L 457.655546 213.73011 
L 461.832361 214.689173 
L 466.009177 215.280265 
L 470.185992 214.896445 
L 474.362807 213.594288 
L 482.716437 210.54003 
L 486.893252 209.283677 
L 491.070067 208.635326 
L 495.246882 209.132543 
L 499.423697 210.469878 
L 503.600513 211.619133 
L 507.777328 211.819302 
L 511.954143 210.705947 
L 520.307773 206.27997 
L 524.484588 205.051303 
L 528.661403 205.108937 
L 532.838218 205.889497 
L 537.015033 206.862241 
L 541.191849 207.582571 
L 545.368664 207.365751 
L 549.545479 205.823445 
L 553.722294 203.732323 
L 557.899109 202.374803 
L 566.252739 201.047021 
L 569.36375 200.412097 
L 569.36375 200.412097 
" clip-path="url(#p605f1dbc39)" style="fill: none; stroke: #ff7f0e; stroke-width: 1.5; stroke-linecap: square"/>
   </g>
   <g id="line2d_20">
    <path d="M -1 140.667908 
L 2.382699 144.735656 
L 6.559514 148.863959 
L 10.736329 152.142663 
L 14.913144 154.879838 
L 19.08996 156.915824 
L 23.266775 158.206496 
L 27.44359 158.49877 
L 31.620405 158.05742 
L 35.79722 157.172172 
L 39.974035 155.262319 
L 44.15085 152.412652 
L 48.327665 149.801448 
L 52.50448 147.030045 
L 56.681296 143.082479 
L 60.858111 137.854492 
L 65.034926 131.843476 
L 73.388556 118.825054 
L 77.565371 113.958599 
L 81.742186 112.765141 
L 85.919001 115.209996 
L 90.095816 118.836892 
L 94.272632 121.05204 
L 98.449447 120.965718 
L 102.626262 118.979728 
L 110.979892 112.521371 
L 115.156707 110.082906 
L 119.333522 108.958681 
L 123.510337 108.608325 
L 127.687152 108.406603 
L 131.863968 107.904283 
L 136.040783 106.56157 
L 140.217598 103.642582 
L 144.394413 98.544404 
L 148.571228 90.745496 
L 152.748043 79.725744 
L 156.924858 66.762157 
L 161.101673 55.777572 
L 165.278488 51.642489 
L 169.455304 57.380088 
L 173.632119 71.425675 
L 177.808934 89.008203 
L 181.985749 105.718399 
L 186.162564 118.696304 
L 190.339379 126.912749 
L 194.516194 131.097809 
L 198.693009 133.126369 
L 202.869824 135.370876 
L 207.04664 140.005815 
L 211.223455 147.277874 
L 215.40027 155.305355 
L 219.577085 161.90983 
L 223.7539 166.076444 
L 227.930715 167.826522 
L 232.10753 167.303753 
L 236.284345 164.621547 
L 240.46116 160.039215 
L 244.637976 154.571709 
L 248.814791 149.730478 
L 252.991606 146.847917 
L 257.168421 146.684791 
L 261.345236 149.435761 
L 265.522051 154.346003 
L 273.875681 165.673749 
L 278.052496 170.951551 
L 282.229312 175.886381 
L 286.406127 180.074392 
L 290.582942 183.17164 
L 294.759757 185.277852 
L 298.936572 187.014664 
L 303.113387 189.067104 
L 307.290202 191.719575 
L 311.467017 194.575696 
L 315.643832 196.778924 
L 319.820648 197.873447 
L 323.997463 198.411133 
L 328.174278 199.182497 
L 332.351093 200.439148 
L 336.527908 202.254007 
L 340.704723 204.966125 
L 344.881538 208.517923 
L 349.058353 211.800152 
L 353.235169 213.646752 
L 357.411984 214.094334 
L 361.588799 214.186921 
L 369.942429 214.85415 
L 374.119244 214.974163 
L 378.296059 215.263153 
L 386.649689 216.275442 
L 390.826505 216.355212 
L 399.180135 215.839082 
L 403.35695 215.419673 
L 407.533765 214.517364 
L 411.71058 212.685604 
L 415.887395 209.509206 
L 420.06421 205.079492 
L 424.241025 200.420089 
L 428.417841 197.008836 
L 432.594656 196.033897 
L 436.771471 197.834356 
L 440.948286 201.726021 
L 445.125101 206.238728 
L 449.301916 209.952768 
L 453.478731 212.330956 
L 457.655546 213.829143 
L 461.832361 214.858821 
L 466.009177 215.172973 
L 470.185992 214.537015 
L 474.362807 213.377459 
L 478.539622 212.058424 
L 486.893252 208.901932 
L 491.070067 208.390516 
L 495.246882 209.278052 
L 499.423697 210.648372 
L 503.600513 211.392092 
L 507.777328 211.260052 
L 511.954143 210.293891 
L 516.130958 208.349686 
L 520.307773 205.903133 
L 524.484588 204.334069 
L 528.661403 204.469936 
L 532.838218 205.463619 
L 537.015033 206.141267 
L 541.191849 206.184925 
L 545.368664 205.606175 
L 549.545479 204.222224 
L 553.722294 202.200461 
L 557.899109 200.384409 
L 562.075924 199.400857 
L 569.36375 198.999056 
L 569.36375 198.999056 
" clip-path="url(#p605f1dbc39)" style="fill: none; stroke: #2ca02c; stroke-width: 1.5; stroke-linecap: square"/>
   </g>
   <g id="line2d_21">
    <path d="M -1 140.60237 
L 2.382699 144.694657 
L 6.559514 148.992663 
L 10.736329 152.228143 
L 14.913144 154.796906 
L 19.08996 156.958103 
L 23.266775 158.558215 
L 27.44359 159.080632 
L 31.620405 158.585242 
L 35.79722 157.587813 
L 39.974035 156.01492 
L 44.15085 153.694213 
L 48.327665 151.062473 
L 52.50448 148.012804 
L 56.681296 144.190377 
L 60.858111 139.473729 
L 65.034926 133.846701 
L 73.388556 121.013254 
L 77.565371 116.43309 
L 81.742186 115.253696 
L 85.919001 117.050623 
L 90.095816 119.66643 
L 94.272632 120.952036 
L 98.449447 119.901247 
L 102.626262 116.679094 
L 106.803077 112.318686 
L 110.979892 108.473015 
L 115.156707 106.282561 
L 119.333522 105.666367 
L 127.687152 105.624472 
L 131.863968 105.647451 
L 136.040783 104.789849 
L 140.217598 101.835024 
L 144.394413 96.363672 
L 148.571228 88.512018 
L 152.748043 77.92564 
L 156.924858 65.196488 
L 161.101673 53.979206 
L 165.278488 49.753108 
L 169.455304 55.828305 
L 173.632119 70.19179 
L 177.808934 87.766468 
L 181.985749 104.321095 
L 186.162564 117.438118 
L 190.339379 126.187117 
L 194.516194 130.710037 
L 198.693009 132.625117 
L 202.869824 134.834658 
L 207.04664 139.829795 
L 211.223455 147.521799 
L 215.40027 155.56241 
L 219.577085 161.939879 
L 223.7539 166.203558 
L 227.930715 168.414262 
L 232.10753 168.155639 
L 236.284345 165.255557 
L 240.46116 160.547568 
L 244.637976 155.490375 
L 248.814791 151.167706 
L 252.991606 148.366315 
L 257.168421 148.072533 
L 261.345236 150.993973 
L 265.522051 156.24239 
L 269.698866 161.970814 
L 273.875681 167.179083 
L 282.229312 177.100485 
L 286.406127 181.279898 
L 290.582942 184.029343 
L 298.936572 187.303652 
L 303.113387 189.329956 
L 311.467017 193.86119 
L 315.643832 195.530299 
L 319.820648 196.283968 
L 328.174278 196.369702 
L 332.351093 197.129226 
L 336.527908 199.247121 
L 340.704723 202.718635 
L 344.881538 206.768145 
L 349.058353 210.274962 
L 353.235169 212.522238 
L 357.411984 213.563744 
L 361.588799 214.011208 
L 374.119244 214.977653 
L 382.472874 216.161732 
L 386.649689 216.416228 
L 395.00332 216.586493 
L 399.180135 216.438331 
L 403.35695 215.871524 
L 407.533765 214.884857 
L 411.71058 213.328825 
L 415.887395 210.525182 
L 420.06421 206.161207 
L 424.241025 201.471272 
L 428.417841 198.349587 
L 432.594656 197.828217 
L 436.771471 199.682036 
L 440.948286 203.140319 
L 445.125101 207.301036 
L 449.301916 210.98805 
L 453.478731 213.323414 
L 457.655546 214.438729 
L 461.832361 215.003518 
L 466.009177 215.197863 
L 470.185992 214.678938 
L 474.362807 213.43685 
L 482.716437 210.295841 
L 486.893252 209.23043 
L 491.070067 209.026187 
L 495.246882 209.673675 
L 499.423697 210.661265 
L 503.600513 211.348794 
L 507.777328 211.29809 
L 511.954143 210.076782 
L 516.130958 207.684916 
L 520.307773 205.156213 
L 524.484588 203.860461 
L 528.661403 204.103802 
L 532.838218 204.847296 
L 537.015033 205.346088 
L 541.191849 205.590987 
L 545.368664 205.193578 
L 549.545479 203.536421 
L 553.722294 201.054949 
L 557.899109 199.146301 
L 562.075924 198.465821 
L 566.252739 198.384972 
L 569.36375 198.200891 
L 569.36375 198.200891 
" clip-path="url(#p605f1dbc39)" style="fill: none; stroke: #d62728; stroke-width: 1.5; stroke-linecap: square"/>
   </g>
   <g id="line2d_22">
    <path d="M -1 140.048463 
L 2.382699 144.164042 
L 6.559514 148.596749 
L 10.736329 151.933879 
L 14.913144 154.566765 
L 19.08996 156.817387 
L 23.266775 158.529192 
L 27.44359 159.198872 
L 31.620405 158.828028 
L 35.79722 157.919433 
L 39.974035 156.441199 
L 44.15085 154.242867 
L 48.327665 151.785831 
L 52.50448 148.879523 
L 56.681296 145.184017 
L 60.858111 140.675881 
L 65.034926 135.336877 
L 73.388556 123.220634 
L 77.565371 118.800846 
L 81.742186 117.426719 
L 85.919001 118.605022 
L 90.095816 120.312148 
L 94.272632 120.5047 
L 98.449447 118.226429 
L 102.626262 113.708459 
L 106.803077 108.273868 
L 110.979892 103.914349 
L 115.156707 101.806485 
L 119.333522 101.65192 
L 131.863968 103.282859 
L 136.040783 102.620335 
L 140.217598 99.714078 
L 144.394413 94.220852 
L 148.571228 86.312333 
L 152.748043 75.689395 
L 156.924858 62.968709 
L 161.101673 51.742339 
L 165.278488 47.490512 
L 169.455304 53.611992 
L 173.632119 68.149546 
L 177.808934 85.911309 
L 181.985749 102.646145 
L 186.162564 116.016274 
L 190.339379 125.03283 
L 194.516194 129.796561 
L 198.693009 131.898921 
L 202.869824 134.248486 
L 207.04664 139.397542 
L 211.223455 147.236841 
L 215.40027 155.420446 
L 219.577085 161.971996 
L 223.7539 166.391538 
L 227.930715 168.695587 
L 232.10753 168.522369 
L 236.284345 165.733509 
L 240.46116 161.178543 
L 244.637976 156.364696 
L 248.814791 152.321895 
L 252.991606 149.725508 
L 257.168421 149.562391 
L 261.345236 152.601636 
L 265.522051 157.887724 
L 269.698866 163.502037 
L 273.875681 168.579096 
L 282.229312 178.250506 
L 286.406127 182.229928 
L 290.582942 184.674711 
L 298.936572 187.34928 
L 303.113387 189.156894 
L 307.290202 191.215907 
L 311.467017 193.06713 
L 315.643832 194.192573 
L 319.820648 194.303401 
L 328.174278 193.194189 
L 332.351093 193.705743 
L 336.527908 195.964342 
L 340.704723 199.903421 
L 344.881538 204.554793 
L 349.058353 208.579447 
L 353.235169 211.198402 
L 357.411984 212.563 
L 361.588799 213.317503 
L 365.765614 213.840175 
L 374.119244 214.706455 
L 382.472874 216.06888 
L 386.649689 216.398954 
L 395.00332 216.671742 
L 399.180135 216.618484 
L 403.35695 216.146694 
L 407.533765 215.266592 
L 411.71058 213.856553 
L 415.887395 211.215669 
L 420.06421 207.043923 
L 424.241025 202.603154 
L 428.417841 199.764483 
L 432.594656 199.427569 
L 436.771471 201.250379 
L 440.948286 204.532729 
L 445.125101 208.472869 
L 449.301916 211.900509 
L 453.478731 213.988577 
L 457.655546 214.935221 
L 461.832361 215.35092 
L 466.009177 215.347091 
L 470.185992 214.637215 
L 474.362807 213.288377 
L 478.539622 211.665792 
L 482.716437 210.205281 
L 486.893252 209.391738 
L 491.070067 209.42024 
L 495.246882 210.103144 
L 499.423697 210.922672 
L 503.600513 211.389386 
L 507.777328 211.158709 
L 511.954143 209.762936 
L 520.307773 204.612528 
L 524.484588 203.305187 
L 528.661403 203.550426 
L 532.838218 204.28867 
L 537.015033 204.740625 
L 541.191849 204.878863 
L 545.368664 204.340677 
L 549.545479 202.515878 
L 553.722294 199.867089 
L 557.899109 197.859246 
L 562.075924 197.207653 
L 569.36375 197.287636 
L 569.36375 197.287636 
" clip-path="url(#p605f1dbc39)" style="fill: none; stroke: #9467bd; stroke-width: 1.5; stroke-linecap: square"/>
   </g>
   <g id="line2d_23">
    <path d="M -1 137.715827 
L 2.382699 141.992408 
L 6.559514 146.37855 
L 10.736329 149.66067 
L 14.913144 152.442124 
L 19.08996 155.042154 
L 23.266775 157.121332 
L 27.44359 158.057357 
L 31.620405 158.042438 
L 35.79722 157.755579 
L 39.974035 156.908135 
L 44.15085 154.962034 
L 48.327665 152.485394 
L 52.50448 149.78933 
L 56.681296 146.626485 
L 60.858111 142.767447 
L 65.034926 138.108422 
L 73.388556 127.846473 
L 77.565371 124.017166 
L 81.742186 122.028852 
L 90.095816 120.96447 
L 94.272632 118.415969 
L 98.449447 112.923482 
L 106.803077 97.328266 
L 110.979892 91.706282 
L 115.156707 89.529312 
L 119.333522 90.08099 
L 123.510337 91.817091 
L 127.687152 93.951566 
L 131.863968 95.850373 
L 136.040783 96.219246 
L 140.217598 93.830401 
L 144.394413 88.492468 
L 148.571228 80.570745 
L 152.748043 69.837441 
L 156.924858 57.028721 
L 161.101673 45.968192 
L 165.278488 42.055298 
L 169.455304 48.382327 
L 173.632119 62.891047 
L 177.808934 80.613815 
L 181.985749 97.565944 
L 186.162564 111.397863 
L 190.339379 120.822872 
L 194.516194 125.857676 
L 198.693009 128.44048 
L 202.869824 131.499231 
L 207.04664 137.233709 
L 215.40027 153.831043 
L 219.577085 160.753571 
L 223.7539 165.696104 
L 227.930715 168.408255 
L 232.10753 168.47852 
L 236.284345 166.051023 
L 240.46116 162.117568 
L 244.637976 157.956075 
L 248.814791 154.384838 
L 252.991606 152.19713 
L 257.168421 152.494394 
L 261.345236 155.929794 
L 269.698866 166.906326 
L 273.875681 171.717269 
L 278.052496 176.282293 
L 282.229312 180.594803 
L 286.406127 183.731063 
L 290.582942 185.209251 
L 294.759757 185.720431 
L 298.936572 186.348513 
L 311.467017 189.414124 
L 315.643832 189.427382 
L 319.820648 188.123349 
L 323.997463 185.812472 
L 328.174278 183.72467 
L 332.351093 183.530995 
L 336.527908 186.15567 
L 340.704723 191.12268 
L 344.881538 197.058327 
L 349.058353 202.478176 
L 353.235169 206.425308 
L 357.411984 208.742422 
L 361.588799 210.018401 
L 378.296059 213.600589 
L 382.472874 214.286048 
L 390.826505 215.20846 
L 395.00332 215.561061 
L 399.180135 215.612048 
L 403.35695 215.312116 
L 407.533765 214.8271 
L 411.71058 213.917824 
L 415.887395 211.775773 
L 424.241025 204.563212 
L 428.417841 202.512717 
L 432.594656 202.52428 
L 436.771471 204.072495 
L 440.948286 206.757627 
L 445.125101 210.122451 
L 449.301916 213.03722 
L 453.478731 214.609216 
L 457.655546 215.139571 
L 461.832361 215.45602 
L 466.009177 215.613857 
L 470.185992 214.951863 
L 474.362807 213.372192 
L 478.539622 211.514195 
L 482.716437 210.097149 
L 486.893252 209.577282 
L 491.070067 209.799796 
L 495.246882 210.414799 
L 499.423697 211.157187 
L 503.600513 211.533499 
L 507.777328 210.91997 
L 511.954143 208.99552 
L 516.130958 206.243876 
L 520.307773 203.861567 
L 524.484588 202.751404 
L 528.661403 202.729571 
L 532.838218 202.866868 
L 537.015033 202.75963 
L 541.191849 202.424519 
L 545.368664 201.262559 
L 549.545479 198.686377 
L 553.722294 195.45728 
L 557.899109 193.208066 
L 562.075924 192.580636 
L 566.252739 192.88435 
L 569.36375 193.274762 
L 569.36375 193.274762 
" clip-path="url(#p605f1dbc39)" style="fill: none; stroke: #8c564b; stroke-width: 1.5; stroke-linecap: square"/>
   </g>
   <g id="line2d_24">
    <path d="M -1 131.765878 
L 2.382699 135.618328 
L 6.559514 139.392807 
L 14.913144 145.408596 
L 19.08996 148.177614 
L 23.266775 150.191571 
L 27.44359 151.495143 
L 31.620405 152.490955 
L 35.79722 153.199725 
L 39.974035 153.102055 
L 44.15085 151.919353 
L 48.327665 150.312411 
L 52.50448 148.491979 
L 56.681296 145.9478 
L 60.858111 142.432621 
L 73.388556 130.395228 
L 77.565371 126.764258 
L 81.742186 124.235673 
L 85.919001 122.793328 
L 90.095816 120.892246 
L 94.272632 116.290655 
L 98.449447 108.354742 
L 102.626262 98.655796 
L 106.803077 89.474817 
L 110.979892 83.108942 
L 115.156707 80.735188 
L 119.333522 81.854986 
L 123.510337 84.810308 
L 127.687152 88.139552 
L 131.863968 90.615419 
L 136.040783 91.229883 
L 140.217598 89.27443 
L 144.394413 84.461993 
L 148.571228 76.645564 
L 152.748043 65.673935 
L 156.924858 52.990323 
L 161.101673 42.612986 
L 165.278488 39.256062 
L 169.455304 45.518684 
L 173.632119 59.759018 
L 177.808934 77.571504 
L 181.985749 94.755927 
L 186.162564 108.45662 
L 190.339379 117.627956 
L 194.516194 122.878155 
L 198.693009 126.1128 
L 202.869824 129.675765 
L 207.04664 135.316077 
L 211.223455 143.118734 
L 215.40027 151.467297 
L 219.577085 158.502098 
L 223.7539 163.106961 
L 227.930715 164.841847 
L 232.10753 163.754242 
L 236.284345 160.189118 
L 240.46116 154.728237 
L 244.637976 148.436592 
L 248.814791 142.611476 
L 252.991606 138.888277 
L 257.168421 138.872889 
L 261.345236 143.030415 
L 265.522051 150.000031 
L 269.698866 157.602046 
L 273.875681 164.370153 
L 278.052496 169.826044 
L 282.229312 173.76076 
L 286.406127 175.853086 
L 290.582942 176.21569 
L 294.759757 175.456039 
L 298.936572 174.235533 
L 307.290202 171.489684 
L 311.467017 169.742508 
L 315.643832 166.793521 
L 319.820648 162.226661 
L 323.997463 157.250811 
L 328.174278 154.021489 
L 332.351093 154.196353 
L 336.527908 158.215486 
L 340.704723 165.422003 
L 349.058353 183.250278 
L 353.235169 190.183315 
L 357.411984 194.668878 
L 361.588799 197.727507 
L 365.765614 200.413935 
L 369.942429 202.855555 
L 374.119244 204.810919 
L 378.296059 206.3316 
L 386.649689 208.928298 
L 390.826505 210.007282 
L 395.00332 210.690805 
L 403.35695 211.607963 
L 407.533765 211.908956 
L 411.71058 211.449079 
L 415.887395 209.645721 
L 420.06421 206.814855 
L 424.241025 204.246655 
L 428.417841 202.931662 
L 432.594656 203.011021 
L 436.771471 204.393939 
L 440.948286 206.991433 
L 445.125101 210.069182 
L 449.301916 212.357996 
L 453.478731 213.330672 
L 461.832361 214.142812 
L 466.009177 214.13161 
L 470.185992 212.76463 
L 474.362807 209.908761 
L 478.539622 206.393088 
L 482.716437 204.107828 
L 486.893252 204.464617 
L 495.246882 208.453631 
L 499.423697 209.835253 
L 503.600513 209.957558 
L 507.777328 208.527196 
L 516.130958 203.647996 
L 520.307773 201.967551 
L 524.484588 201.162957 
L 528.661403 201.087022 
L 532.838218 201.292928 
L 537.015033 201.256463 
L 541.191849 200.429147 
L 545.368664 198.417368 
L 549.545479 195.387331 
L 553.722294 192.21804 
L 557.899109 189.978977 
L 562.075924 189.105044 
L 566.252739 189.509028 
L 569.36375 190.514361 
L 569.36375 190.514361 
" clip-path="url(#p605f1dbc39)" style="fill: none; stroke: #e377c2; stroke-width: 1.5; stroke-linecap: square"/>
   </g>
   <g id="line2d_25">
    <path d="M -1 131.92786 
L 2.382699 135.535473 
L 6.559514 139.186456 
L 14.913144 145.386425 
L 19.08996 148.142542 
L 23.266775 150.276641 
L 27.44359 151.966902 
L 31.620405 153.282115 
L 35.79722 154.040541 
L 39.974035 153.987744 
L 44.15085 153.072602 
L 48.327665 151.72252 
L 52.50448 150.058099 
L 56.681296 147.791764 
L 60.858111 144.791091 
L 69.211741 138.212786 
L 77.565371 131.221046 
L 81.742186 128.523914 
L 85.919001 126.367223 
L 90.095816 123.092581 
L 94.272632 116.664074 
L 98.449447 106.863289 
L 102.626262 95.537588 
L 106.803077 85.015972 
L 110.979892 77.802399 
L 115.156707 75.388334 
L 119.333522 77.163602 
L 127.687152 84.732952 
L 131.863968 87.343016 
L 136.040783 87.799343 
L 140.217598 85.474294 
L 144.394413 80.42019 
L 148.571228 72.715254 
L 152.748043 62.224183 
L 156.924858 50.19956 
L 161.101673 40.317923 
L 165.278488 37.092973 
L 169.455304 43.378358 
L 173.632119 57.837531 
L 177.808934 75.916233 
L 181.985749 93.246219 
L 186.162564 107.075477 
L 190.339379 116.531783 
L 194.516194 122.235348 
L 202.869824 129.483877 
L 207.04664 135.255616 
L 211.223455 143.370875 
L 215.40027 152.049588 
L 219.577085 159.150688 
L 223.7539 163.619574 
L 227.930715 165.377795 
L 232.10753 164.543037 
L 236.284345 161.23522 
L 240.46116 155.967576 
L 244.637976 149.946312 
L 248.814791 144.678792 
L 252.991606 141.644955 
L 257.168421 141.994346 
L 261.345236 146.104175 
L 265.522051 152.867027 
L 269.698866 160.159583 
L 273.875681 166.390736 
L 278.052496 171.177873 
L 282.229312 174.632769 
L 286.406127 176.56433 
L 290.582942 176.853903 
L 294.759757 175.859546 
L 307.290202 171.240688 
L 311.467017 169.246669 
L 315.643832 165.667663 
L 319.820648 160.327054 
L 323.997463 154.673704 
L 328.174278 150.85756 
L 332.351093 150.63854 
L 336.527908 154.688749 
L 340.704723 162.453766 
L 344.881538 172.263929 
L 349.058353 181.760491 
L 353.235169 189.01191 
L 357.411984 193.736034 
L 361.588799 197.133523 
L 365.765614 200.154032 
L 369.942429 202.724052 
L 374.119244 204.687473 
L 382.472874 207.940213 
L 386.649689 209.320708 
L 390.826505 210.278757 
L 403.35695 212.148321 
L 407.533765 212.528553 
L 411.71058 212.186263 
L 415.887395 210.753416 
L 420.06421 208.456217 
L 424.241025 206.341575 
L 428.417841 205.321244 
L 432.594656 205.589799 
L 436.771471 207.003347 
L 440.948286 209.32832 
L 445.125101 211.8625 
L 449.301916 213.574603 
L 453.478731 214.125171 
L 457.655546 214.117316 
L 461.832361 213.857145 
L 466.009177 212.792347 
L 470.185992 210.563091 
L 478.539622 204.556792 
L 482.716437 202.79803 
L 486.893252 203.667319 
L 491.070067 206.066934 
L 495.246882 208.148012 
L 499.423697 209.068052 
L 503.600513 208.467688 
L 507.777328 206.481591 
L 516.130958 200.927528 
L 520.307773 198.770419 
L 524.484588 197.649523 
L 528.661403 197.790699 
L 532.838218 198.591575 
L 537.015033 199.060657 
L 541.191849 198.483706 
L 545.368664 196.563762 
L 549.545479 193.599323 
L 553.722294 190.384402 
L 557.899109 187.903887 
L 562.075924 186.963605 
L 566.252739 187.733725 
L 569.36375 189.05878 
L 569.36375 189.05878 
" clip-path="url(#p605f1dbc39)" style="fill: none; stroke: #7f7f7f; stroke-width: 1.5; stroke-linecap: square"/>
   </g>
   <g id="line2d_26">
    <path d="M -1 130.363545 
L 2.382699 133.979295 
L 6.559514 137.625107 
L 14.913144 144.000661 
L 19.08996 147.014423 
L 23.266775 149.489294 
L 27.44359 151.446934 
L 31.620405 153.029381 
L 35.79722 154.095686 
L 39.974035 154.342183 
L 44.15085 153.660146 
L 48.327665 152.508684 
L 52.50448 151.07867 
L 56.681296 149.048799 
L 73.388556 138.462632 
L 81.742186 132.240484 
L 85.919001 128.882367 
L 90.095816 123.828378 
L 94.272632 115.252179 
L 98.449447 103.110599 
L 102.626262 89.58469 
L 106.803077 77.352152 
L 110.979892 69.234674 
L 115.156707 66.817924 
L 119.333522 69.250553 
L 127.687152 78.782802 
L 131.863968 82.134059 
L 136.040783 83.164122 
L 140.217598 81.352744 
L 144.394413 76.443527 
L 148.571228 68.486643 
L 152.748043 57.724127 
L 156.924858 45.673836 
L 161.101673 35.890728 
L 165.278488 32.731971 
L 169.455304 39.14459 
L 173.632119 53.788324 
L 177.808934 72.052127 
L 181.985749 89.575881 
L 186.162564 103.640112 
L 190.339379 113.419375 
L 194.516194 119.549197 
L 202.869824 127.612129 
L 207.04664 133.652623 
L 211.223455 142.061055 
L 215.40027 151.089246 
L 219.577085 158.563622 
L 223.7539 163.356227 
L 227.930715 165.360507 
L 232.10753 164.778016 
L 236.284345 161.795239 
L 240.46116 156.874951 
L 244.637976 151.219447 
L 248.814791 146.384858 
L 252.991606 143.740056 
L 257.168421 144.33977 
L 261.345236 148.633258 
L 265.522051 155.557475 
L 269.698866 162.912819 
L 273.875681 169.063088 
L 278.052496 173.613614 
L 282.229312 176.672507 
L 286.406127 178.064744 
L 290.582942 177.720778 
L 294.759757 176.119013 
L 303.113387 171.875384 
L 307.290202 169.846962 
L 311.467017 167.183786 
L 315.643832 162.782335 
L 319.820648 156.42878 
L 323.997463 149.69074 
L 328.174278 144.998074 
L 332.351093 144.29458 
L 336.527908 148.406534 
L 340.704723 156.783187 
L 349.058353 177.882738 
L 353.235169 185.925395 
L 357.411984 191.271723 
L 361.588799 195.113508 
L 365.765614 198.446029 
L 369.942429 201.29748 
L 374.119244 203.50562 
L 378.296059 205.313311 
L 382.472874 206.980407 
L 386.649689 208.479081 
L 390.826505 209.614383 
L 407.533765 212.510698 
L 411.71058 212.458587 
L 415.887395 211.411522 
L 420.06421 209.644303 
L 424.241025 208.133382 
L 428.417841 207.627662 
L 432.594656 208.174775 
L 436.771471 209.524548 
L 445.125101 213.491975 
L 449.301916 214.732717 
L 453.478731 214.932632 
L 457.655546 214.695098 
L 461.832361 214.321769 
L 466.009177 213.271103 
L 470.185992 211.08152 
L 474.362807 207.97889 
L 478.539622 204.65024 
L 482.716437 202.807164 
L 486.893252 203.91094 
L 491.070067 206.612724 
L 495.246882 208.817989 
L 499.423697 209.637913 
L 503.600513 208.794495 
L 507.777328 206.51741 
L 511.954143 203.495765 
L 516.130958 200.614307 
L 520.307773 198.499659 
L 524.484588 197.47154 
L 528.661403 197.500237 
L 532.838218 197.93986 
L 537.015033 197.941334 
L 541.191849 196.896702 
L 545.368664 194.574494 
L 549.545479 191.188615 
L 553.722294 187.507901 
L 557.899109 184.713359 
L 562.075924 183.760775 
L 566.252739 184.82669 
L 569.36375 186.540838 
L 569.36375 186.540838 
" clip-path="url(#p605f1dbc39)" style="fill: none; stroke: #bcbd22; stroke-width: 1.5; stroke-linecap: square"/>
   </g>
   <g id="line2d_27">
    <path d="M -1 128.548519 
L 2.382699 132.311238 
L 6.559514 136.336677 
L 10.736329 139.735664 
L 19.08996 146.013008 
L 23.266775 148.749717 
L 27.44359 151.106123 
L 31.620405 153.059255 
L 35.79722 154.424343 
L 39.974035 155.215197 
L 44.15085 155.206742 
L 48.327665 154.302466 
L 52.50448 152.827116 
L 56.681296 151.010121 
L 60.858111 149.054615 
L 69.211741 145.598567 
L 73.388556 143.570527 
L 77.565371 140.948533 
L 81.742186 137.503692 
L 85.919001 132.499908 
L 90.095816 124.936151 
L 94.272632 113.539801 
L 98.449447 98.607238 
L 102.626262 82.452674 
L 106.803077 67.942905 
L 110.979892 58.381045 
L 115.156707 55.822592 
L 119.333522 59.227281 
L 127.687152 71.133243 
L 131.863968 75.642666 
L 136.040783 77.793173 
L 140.217598 76.693816 
L 144.394413 71.86271 
L 148.571228 63.531505 
L 152.748043 52.47849 
L 156.924858 40.381708 
L 161.101673 30.568275 
L 165.278488 27.379883 
L 169.455304 33.912685 
L 173.632119 48.91092 
L 177.808934 67.544034 
L 181.985749 85.201617 
L 186.162564 99.418871 
L 190.339379 109.708925 
L 194.516194 116.449732 
L 202.869824 125.172174 
L 207.04664 131.721098 
L 211.223455 140.753621 
L 215.40027 150.244546 
L 219.577085 157.972544 
L 223.7539 163.090041 
L 227.930715 165.621622 
L 232.10753 165.552046 
L 236.284345 162.833704 
L 240.46116 158.108432 
L 244.637976 152.951489 
L 248.814791 148.876188 
L 252.991606 146.817599 
L 257.168421 147.653946 
L 261.345236 152.102644 
L 265.522051 159.343065 
L 269.698866 166.972655 
L 273.875681 172.980527 
L 278.052496 176.999021 
L 282.229312 179.478064 
L 286.406127 180.355249 
L 290.582942 179.325546 
L 294.759757 176.762084 
L 298.936572 173.708783 
L 307.290202 168.387282 
L 311.467017 164.84583 
L 315.643832 159.309844 
L 319.820648 151.849318 
L 323.997463 143.984105 
L 328.174278 138.053887 
L 332.351093 136.403138 
L 336.527908 140.459366 
L 340.704723 149.758032 
L 344.881538 161.699324 
L 349.058353 173.089122 
L 353.235169 181.896116 
L 357.411984 188.032844 
L 361.588799 192.671824 
L 365.765614 196.536302 
L 369.942429 199.591582 
L 374.119244 202.021352 
L 378.296059 204.223597 
L 382.472874 206.199795 
L 386.649689 207.74504 
L 390.826505 208.872659 
L 403.35695 211.970948 
L 407.533765 212.658577 
L 411.71058 212.932659 
L 415.887395 212.597746 
L 424.241025 210.828065 
L 428.417841 210.877233 
L 432.594656 211.844643 
L 440.948286 214.735719 
L 445.125101 215.94689 
L 449.301916 216.516905 
L 453.478731 216.39154 
L 457.655546 215.963802 
L 461.832361 215.371759 
L 466.009177 214.250433 
L 470.185992 212.231245 
L 474.362807 209.218473 
L 478.539622 205.595362 
L 482.716437 203.444056 
L 486.893252 204.758374 
L 491.070067 207.932859 
L 495.246882 210.243776 
L 499.423697 210.702912 
L 503.600513 209.473197 
L 507.777328 207.062561 
L 516.130958 200.918846 
L 520.307773 198.715589 
L 524.484588 197.814937 
L 532.838218 197.839402 
L 537.015033 196.982196 
L 541.191849 195.176974 
L 545.368664 192.41463 
L 549.545479 188.638043 
L 553.722294 184.344315 
L 557.899109 181.000733 
L 562.075924 180.065328 
L 566.252739 181.65031 
L 569.36375 183.813859 
L 569.36375 183.813859 
" clip-path="url(#p605f1dbc39)" style="fill: none; stroke: #17becf; stroke-width: 1.5; stroke-linecap: square"/>
   </g>
   <g id="line2d_28">
    <path d="M 419.847961 242.918125 
L 419.847961 22.318125 
" clip-path="url(#p605f1dbc39)" style="fill: none; stroke-dasharray: 3.7,1.6; stroke-dashoffset: 0; stroke: #808080"/>
   </g>
   <g id="line2d_29">
    <path d="M 448.976171 242.918125 
L 448.976171 22.318125 
" clip-path="url(#p605f1dbc39)" style="fill: none; stroke-dasharray: 3.7,1.6; stroke-dashoffset: 0; stroke: #808080"/>
   </g>
   <g id="line2d_30">
    <path d="M 106.159539 242.918125 
L 106.159539 22.318125 
" clip-path="url(#p605f1dbc39)" style="fill: none; stroke-dasharray: 3.7,1.6; stroke-dashoffset: 0; stroke: #808080"/>
   </g>
   <g id="line2d_31">
    <path d="M 130.806487 242.918125 
L 130.806487 22.318125 
" clip-path="url(#p605f1dbc39)" style="fill: none; stroke-dasharray: 3.7,1.6; stroke-dashoffset: 0; stroke: #808080"/>
   </g>
   <g id="patch_3">
    <path d="M 50.14375 242.918125 
L 50.14375 22.318125 
" style="fill: none; stroke: #000000; stroke-width: 0.8; stroke-linejoin: miter; stroke-linecap: square"/>
   </g>
   <g id="patch_4">
    <path d="M 475.86375 242.918125 
L 475.86375 22.318125 
" style="fill: none; stroke: #000000; stroke-width: 0.8; stroke-linejoin: miter; stroke-linecap: square"/>
   </g>
   <g id="patch_5">
    <path d="M 50.14375 242.918125 
L 475.86375 242.918125 
" style="fill: none; stroke: #000000; stroke-width: 0.8; stroke-linejoin: miter; stroke-linecap: square"/>
   </g>
   <g id="patch_6">
    <path d="M 50.14375 22.318125 
L 475.86375 22.318125 
" style="fill: none; stroke: #000000; stroke-width: 0.8; stroke-linejoin: miter; stroke-linecap: square"/>
   </g>
   <g id="text_20">
    <!-- In-situ IR spectra for C2_E7b -->
    <g transform="translate(177.656563 16.318125) scale(0.12 -0.12)">
     <defs>
      <path id="DejaVuSans-49" d="M 628 4666 
L 1259 4666 
L 1259 0 
L 628 0 
L 628 4666 
z
" transform="scale(0.015625)"/>
      <path id="DejaVuSans-2d" d="M 313 2009 
L 1997 2009 
L 1997 1497 
L 313 1497 
L 313 2009 
z
" transform="scale(0.015625)"/>
      <path id="DejaVuSans-69" d="M 603 3500 
L 1178 3500 
L 1178 0 
L 603 0 
L 603 3500 
z
M 603 4863 
L 1178 4863 
L 1178 4134 
L 603 4134 
L 603 4863 
z
" transform="scale(0.015625)"/>
      <path id="DejaVuSans-74" d="M 1172 4494 
L 1172 3500 
L 2356 3500 
L 2356 3053 
L 1172 3053 
L 1172 1153 
Q 1172 725 1289 603 
Q 1406 481 1766 481 
L 2356 481 
L 2356 0 
L 1766 0 
Q 1100 0 847 248 
Q 594 497 594 1153 
L 594 3053 
L 172 3053 
L 172 3500 
L 594 3500 
L 594 4494 
L 1172 4494 
z
" transform="scale(0.015625)"/>
      <path id="DejaVuSans-52" d="M 2841 2188 
Q 3044 2119 3236 1894 
Q 3428 1669 3622 1275 
L 4263 0 
L 3584 0 
L 2988 1197 
Q 2756 1666 2539 1819 
Q 2322 1972 1947 1972 
L 1259 1972 
L 1259 0 
L 628 0 
L 628 4666 
L 2053 4666 
Q 2853 4666 3247 4331 
Q 3641 3997 3641 3322 
Q 3641 2881 3436 2590 
Q 3231 2300 2841 2188 
z
M 1259 4147 
L 1259 2491 
L 2053 2491 
Q 2509 2491 2742 2702 
Q 2975 2913 2975 3322 
Q 2975 3731 2742 3939 
Q 2509 4147 2053 4147 
L 1259 4147 
z
" transform="scale(0.015625)"/>
      <path id="DejaVuSans-70" d="M 1159 525 
L 1159 -1331 
L 581 -1331 
L 581 3500 
L 1159 3500 
L 1159 2969 
Q 1341 3281 1617 3432 
Q 1894 3584 2278 3584 
Q 2916 3584 3314 3078 
Q 3713 2572 3713 1747 
Q 3713 922 3314 415 
Q 2916 -91 2278 -91 
Q 1894 -91 1617 61 
Q 1341 213 1159 525 
z
M 3116 1747 
Q 3116 2381 2855 2742 
Q 2594 3103 2138 3103 
Q 1681 3103 1420 2742 
Q 1159 2381 1159 1747 
Q 1159 1113 1420 752 
Q 1681 391 2138 391 
Q 2594 391 2855 752 
Q 3116 1113 3116 1747 
z
" transform="scale(0.015625)"/>
      <path id="DejaVuSans-66" d="M 2375 4863 
L 2375 4384 
L 1825 4384 
Q 1516 4384 1395 4259 
Q 1275 4134 1275 3809 
L 1275 3500 
L 2222 3500 
L 2222 3053 
L 1275 3053 
L 1275 0 
L 697 0 
L 697 3053 
L 147 3053 
L 147 3500 
L 697 3500 
L 697 3744 
Q 697 4328 969 4595 
Q 1241 4863 1831 4863 
L 2375 4863 
z
" transform="scale(0.015625)"/>
      <path id="DejaVuSans-43" d="M 4122 4306 
L 4122 3641 
Q 3803 3938 3442 4084 
Q 3081 4231 2675 4231 
Q 1875 4231 1450 3742 
Q 1025 3253 1025 2328 
Q 1025 1406 1450 917 
Q 1875 428 2675 428 
Q 3081 428 3442 575 
Q 3803 722 4122 1019 
L 4122 359 
Q 3791 134 3420 21 
Q 3050 -91 2638 -91 
Q 1578 -91 968 557 
Q 359 1206 359 2328 
Q 359 3453 968 4101 
Q 1578 4750 2638 4750 
Q 3056 4750 3426 4639 
Q 3797 4528 4122 4306 
z
" transform="scale(0.015625)"/>
      <path id="DejaVuSans-5f" d="M 3263 -1063 
L 3263 -1509 
L -63 -1509 
L -63 -1063 
L 3263 -1063 
z
" transform="scale(0.015625)"/>
      <path id="DejaVuSans-45" d="M 628 4666 
L 3578 4666 
L 3578 4134 
L 1259 4134 
L 1259 2753 
L 3481 2753 
L 3481 2222 
L 1259 2222 
L 1259 531 
L 3634 531 
L 3634 0 
L 628 0 
L 628 4666 
z
" transform="scale(0.015625)"/>
     </defs>
     <use xlink:href="#DejaVuSans-49"/>
     <use xlink:href="#DejaVuSans-6e" transform="translate(29.492188 0)"/>
     <use xlink:href="#DejaVuSans-2d" transform="translate(92.871094 0)"/>
     <use xlink:href="#DejaVuSans-73" transform="translate(128.955078 0)"/>
     <use xlink:href="#DejaVuSans-69" transform="translate(181.054688 0)"/>
     <use xlink:href="#DejaVuSans-74" transform="translate(208.837891 0)"/>
     <use xlink:href="#DejaVuSans-75" transform="translate(248.046875 0)"/>
     <use xlink:href="#DejaVuSans-20" transform="translate(311.425781 0)"/>
     <use xlink:href="#DejaVuSans-49" transform="translate(343.212891 0)"/>
     <use xlink:href="#DejaVuSans-52" transform="translate(372.705078 0)"/>
     <use xlink:href="#DejaVuSans-20" transform="translate(442.1875 0)"/>
     <use xlink:href="#DejaVuSans-73" transform="translate(473.974609 0)"/>
     <use xlink:href="#DejaVuSans-70" transform="translate(526.074219 0)"/>
     <use xlink:href="#DejaVuSans-65" transform="translate(589.550781 0)"/>
     <use xlink:href="#DejaVuSans-63" transform="translate(651.074219 0)"/>
     <use xlink:href="#DejaVuSans-74" transform="translate(706.054688 0)"/>
     <use xlink:href="#DejaVuSans-72" transform="translate(745.263672 0)"/>
     <use xlink:href="#DejaVuSans-61" transform="translate(786.376953 0)"/>
     <use xlink:href="#DejaVuSans-20" transform="translate(847.65625 0)"/>
     <use xlink:href="#DejaVuSans-66" transform="translate(879.443359 0)"/>
     <use xlink:href="#DejaVuSans-6f" transform="translate(914.648438 0)"/>
     <use xlink:href="#DejaVuSans-72" transform="translate(975.830078 0)"/>
     <use xlink:href="#DejaVuSans-20" transform="translate(1016.943359 0)"/>
     <use xlink:href="#DejaVuSans-43" transform="translate(1048.730469 0)"/>
     <use xlink:href="#DejaVuSans-32" transform="translate(1118.554688 0)"/>
     <use xlink:href="#DejaVuSans-5f" transform="translate(1182.177734 0)"/>
     <use xlink:href="#DejaVuSans-45" transform="translate(1232.177734 0)"/>
     <use xlink:href="#DejaVuSans-37" transform="translate(1295.361328 0)"/>
     <use xlink:href="#DejaVuSans-62" transform="translate(1358.984375 0)"/>
    </g>
   </g>
   <g id="legend_1">
    <g id="patch_7">
     <path d="M 482.86375 177.099375 
L 559.16375 177.099375 
Q 561.16375 177.099375 561.16375 175.099375 
L 561.16375 29.318125 
Q 561.16375 27.318125 559.16375 27.318125 
L 482.86375 27.318125 
Q 480.86375 27.318125 480.86375 29.318125 
L 480.86375 175.099375 
Q 480.86375 177.099375 482.86375 177.099375 
z
" style="fill: #ffffff; opacity: 0.8; stroke: #cccccc; stroke-linejoin: miter"/>
    </g>
    <g id="line2d_32">
     <path d="M 484.86375 35.416562 
L 494.86375 35.416562 
L 504.86375 35.416562 
" style="fill: none; stroke: #1f77b4; stroke-width: 1.5; stroke-linecap: square"/>
    </g>
    <g id="text_21">
     <!-- -0.6 min -->
     <g transform="translate(512.86375 38.916562) scale(0.1 -0.1)">
      <defs>
       <path id="DejaVuSans-36" d="M 2113 2584 
Q 1688 2584 1439 2293 
Q 1191 2003 1191 1497 
Q 1191 994 1439 701 
Q 1688 409 2113 409 
Q 2538 409 2786 701 
Q 3034 994 3034 1497 
Q 3034 2003 2786 2293 
Q 2538 2584 2113 2584 
z
M 3366 4563 
L 3366 3988 
Q 3128 4100 2886 4159 
Q 2644 4219 2406 4219 
Q 1781 4219 1451 3797 
Q 1122 3375 1075 2522 
Q 1259 2794 1537 2939 
Q 1816 3084 2150 3084 
Q 2853 3084 3261 2657 
Q 3669 2231 3669 1497 
Q 3669 778 3244 343 
Q 2819 -91 2113 -91 
Q 1303 -91 875 529 
Q 447 1150 447 2328 
Q 447 3434 972 4092 
Q 1497 4750 2381 4750 
Q 2619 4750 2861 4703 
Q 3103 4656 3366 4563 
z
" transform="scale(0.015625)"/>
      </defs>
      <use xlink:href="#DejaVuSans-2d"/>
      <use xlink:href="#DejaVuSans-30" transform="translate(36.083984 0)"/>
      <use xlink:href="#DejaVuSans-2e" transform="translate(99.707031 0)"/>
      <use xlink:href="#DejaVuSans-36" transform="translate(131.494141 0)"/>
      <use xlink:href="#DejaVuSans-20" transform="translate(195.117188 0)"/>
      <use xlink:href="#DejaVuSans-6d" transform="translate(226.904297 0)"/>
      <use xlink:href="#DejaVuSans-69" transform="translate(324.316406 0)"/>
      <use xlink:href="#DejaVuSans-6e" transform="translate(352.099609 0)"/>
     </g>
    </g>
    <g id="line2d_33">
     <path d="M 484.86375 50.094688 
L 494.86375 50.094688 
L 504.86375 50.094688 
" style="fill: none; stroke: #ff7f0e; stroke-width: 1.5; stroke-linecap: square"/>
    </g>
    <g id="text_22">
     <!-- 1.1 min -->
     <g transform="translate(512.86375 53.594688) scale(0.1 -0.1)">
      <use xlink:href="#DejaVuSans-31"/>
      <use xlink:href="#DejaVuSans-2e" transform="translate(63.623047 0)"/>
      <use xlink:href="#DejaVuSans-31" transform="translate(95.410156 0)"/>
      <use xlink:href="#DejaVuSans-20" transform="translate(159.033203 0)"/>
      <use xlink:href="#DejaVuSans-6d" transform="translate(190.820312 0)"/>
      <use xlink:href="#DejaVuSans-69" transform="translate(288.232422 0)"/>
      <use xlink:href="#DejaVuSans-6e" transform="translate(316.015625 0)"/>
     </g>
    </g>
    <g id="line2d_34">
     <path d="M 484.86375 64.772813 
L 494.86375 64.772813 
L 504.86375 64.772813 
" style="fill: none; stroke: #2ca02c; stroke-width: 1.5; stroke-linecap: square"/>
    </g>
    <g id="text_23">
     <!-- 3.1 min -->
     <g transform="translate(512.86375 68.272813) scale(0.1 -0.1)">
      <use xlink:href="#DejaVuSans-33"/>
      <use xlink:href="#DejaVuSans-2e" transform="translate(63.623047 0)"/>
      <use xlink:href="#DejaVuSans-31" transform="translate(95.410156 0)"/>
      <use xlink:href="#DejaVuSans-20" transform="translate(159.033203 0)"/>
      <use xlink:href="#DejaVuSans-6d" transform="translate(190.820312 0)"/>
      <use xlink:href="#DejaVuSans-69" transform="translate(288.232422 0)"/>
      <use xlink:href="#DejaVuSans-6e" transform="translate(316.015625 0)"/>
     </g>
    </g>
    <g id="line2d_35">
     <path d="M 484.86375 79.450938 
L 494.86375 79.450938 
L 504.86375 79.450938 
" style="fill: none; stroke: #d62728; stroke-width: 1.5; stroke-linecap: square"/>
    </g>
    <g id="text_24">
     <!-- 8.1 min -->
     <g transform="translate(512.86375 82.950938) scale(0.1 -0.1)">
      <defs>
       <path id="DejaVuSans-38" d="M 2034 2216 
Q 1584 2216 1326 1975 
Q 1069 1734 1069 1313 
Q 1069 891 1326 650 
Q 1584 409 2034 409 
Q 2484 409 2743 651 
Q 3003 894 3003 1313 
Q 3003 1734 2745 1975 
Q 2488 2216 2034 2216 
z
M 1403 2484 
Q 997 2584 770 2862 
Q 544 3141 544 3541 
Q 544 4100 942 4425 
Q 1341 4750 2034 4750 
Q 2731 4750 3128 4425 
Q 3525 4100 3525 3541 
Q 3525 3141 3298 2862 
Q 3072 2584 2669 2484 
Q 3125 2378 3379 2068 
Q 3634 1759 3634 1313 
Q 3634 634 3220 271 
Q 2806 -91 2034 -91 
Q 1263 -91 848 271 
Q 434 634 434 1313 
Q 434 1759 690 2068 
Q 947 2378 1403 2484 
z
M 1172 3481 
Q 1172 3119 1398 2916 
Q 1625 2713 2034 2713 
Q 2441 2713 2670 2916 
Q 2900 3119 2900 3481 
Q 2900 3844 2670 4047 
Q 2441 4250 2034 4250 
Q 1625 4250 1398 4047 
Q 1172 3844 1172 3481 
z
" transform="scale(0.015625)"/>
      </defs>
      <use xlink:href="#DejaVuSans-38"/>
      <use xlink:href="#DejaVuSans-2e" transform="translate(63.623047 0)"/>
      <use xlink:href="#DejaVuSans-31" transform="translate(95.410156 0)"/>
      <use xlink:href="#DejaVuSans-20" transform="translate(159.033203 0)"/>
      <use xlink:href="#DejaVuSans-6d" transform="translate(190.820312 0)"/>
      <use xlink:href="#DejaVuSans-69" transform="translate(288.232422 0)"/>
      <use xlink:href="#DejaVuSans-6e" transform="translate(316.015625 0)"/>
     </g>
    </g>
    <g id="line2d_36">
     <path d="M 484.86375 94.129063 
L 494.86375 94.129063 
L 504.86375 94.129063 
" style="fill: none; stroke: #9467bd; stroke-width: 1.5; stroke-linecap: square"/>
    </g>
    <g id="text_25">
     <!-- 8.4 min -->
     <g transform="translate(512.86375 97.629063) scale(0.1 -0.1)">
      <use xlink:href="#DejaVuSans-38"/>
      <use xlink:href="#DejaVuSans-2e" transform="translate(63.623047 0)"/>
      <use xlink:href="#DejaVuSans-34" transform="translate(95.410156 0)"/>
      <use xlink:href="#DejaVuSans-20" transform="translate(159.033203 0)"/>
      <use xlink:href="#DejaVuSans-6d" transform="translate(190.820312 0)"/>
      <use xlink:href="#DejaVuSans-69" transform="translate(288.232422 0)"/>
      <use xlink:href="#DejaVuSans-6e" transform="translate(316.015625 0)"/>
     </g>
    </g>
    <g id="line2d_37">
     <path d="M 484.86375 108.807187 
L 494.86375 108.807187 
L 504.86375 108.807187 
" style="fill: none; stroke: #8c564b; stroke-width: 1.5; stroke-linecap: square"/>
    </g>
    <g id="text_26">
     <!-- 9.9 min -->
     <g transform="translate(512.86375 112.307187) scale(0.1 -0.1)">
      <defs>
       <path id="DejaVuSans-39" d="M 703 97 
L 703 672 
Q 941 559 1184 500 
Q 1428 441 1663 441 
Q 2288 441 2617 861 
Q 2947 1281 2994 2138 
Q 2813 1869 2534 1725 
Q 2256 1581 1919 1581 
Q 1219 1581 811 2004 
Q 403 2428 403 3163 
Q 403 3881 828 4315 
Q 1253 4750 1959 4750 
Q 2769 4750 3195 4129 
Q 3622 3509 3622 2328 
Q 3622 1225 3098 567 
Q 2575 -91 1691 -91 
Q 1453 -91 1209 -44 
Q 966 3 703 97 
z
M 1959 2075 
Q 2384 2075 2632 2365 
Q 2881 2656 2881 3163 
Q 2881 3666 2632 3958 
Q 2384 4250 1959 4250 
Q 1534 4250 1286 3958 
Q 1038 3666 1038 3163 
Q 1038 2656 1286 2365 
Q 1534 2075 1959 2075 
z
" transform="scale(0.015625)"/>
      </defs>
      <use xlink:href="#DejaVuSans-39"/>
      <use xlink:href="#DejaVuSans-2e" transform="translate(63.623047 0)"/>
      <use xlink:href="#DejaVuSans-39" transform="translate(95.410156 0)"/>
      <use xlink:href="#DejaVuSans-20" transform="translate(159.033203 0)"/>
      <use xlink:href="#DejaVuSans-6d" transform="translate(190.820312 0)"/>
      <use xlink:href="#DejaVuSans-69" transform="translate(288.232422 0)"/>
      <use xlink:href="#DejaVuSans-6e" transform="translate(316.015625 0)"/>
     </g>
    </g>
    <g id="line2d_38">
     <path d="M 484.86375 123.485313 
L 494.86375 123.485313 
L 504.86375 123.485313 
" style="fill: none; stroke: #e377c2; stroke-width: 1.5; stroke-linecap: square"/>
    </g>
    <g id="text_27">
     <!-- 14.6 min -->
     <g transform="translate(512.86375 126.985313) scale(0.1 -0.1)">
      <use xlink:href="#DejaVuSans-31"/>
      <use xlink:href="#DejaVuSans-34" transform="translate(63.623047 0)"/>
      <use xlink:href="#DejaVuSans-2e" transform="translate(127.246094 0)"/>
      <use xlink:href="#DejaVuSans-36" transform="translate(159.033203 0)"/>
      <use xlink:href="#DejaVuSans-20" transform="translate(222.65625 0)"/>
      <use xlink:href="#DejaVuSans-6d" transform="translate(254.443359 0)"/>
      <use xlink:href="#DejaVuSans-69" transform="translate(351.855469 0)"/>
      <use xlink:href="#DejaVuSans-6e" transform="translate(379.638672 0)"/>
     </g>
    </g>
    <g id="line2d_39">
     <path d="M 484.86375 138.163437 
L 494.86375 138.163437 
L 504.86375 138.163437 
" style="fill: none; stroke: #7f7f7f; stroke-width: 1.5; stroke-linecap: square"/>
    </g>
    <g id="text_28">
     <!-- 19.9 min -->
     <g transform="translate(512.86375 141.663437) scale(0.1 -0.1)">
      <use xlink:href="#DejaVuSans-31"/>
      <use xlink:href="#DejaVuSans-39" transform="translate(63.623047 0)"/>
      <use xlink:href="#DejaVuSans-2e" transform="translate(127.246094 0)"/>
      <use xlink:href="#DejaVuSans-39" transform="translate(159.033203 0)"/>
      <use xlink:href="#DejaVuSans-20" transform="translate(222.65625 0)"/>
      <use xlink:href="#DejaVuSans-6d" transform="translate(254.443359 0)"/>
      <use xlink:href="#DejaVuSans-69" transform="translate(351.855469 0)"/>
      <use xlink:href="#DejaVuSans-6e" transform="translate(379.638672 0)"/>
     </g>
    </g>
    <g id="line2d_40">
     <path d="M 484.86375 152.841563 
L 494.86375 152.841563 
L 504.86375 152.841563 
" style="fill: none; stroke: #bcbd22; stroke-width: 1.5; stroke-linecap: square"/>
    </g>
    <g id="text_29">
     <!-- 20.4 min -->
     <g transform="translate(512.86375 156.341563) scale(0.1 -0.1)">
      <use xlink:href="#DejaVuSans-32"/>
      <use xlink:href="#DejaVuSans-30" transform="translate(63.623047 0)"/>
      <use xlink:href="#DejaVuSans-2e" transform="translate(127.246094 0)"/>
      <use xlink:href="#DejaVuSans-34" transform="translate(159.033203 0)"/>
      <use xlink:href="#DejaVuSans-20" transform="translate(222.65625 0)"/>
      <use xlink:href="#DejaVuSans-6d" transform="translate(254.443359 0)"/>
      <use xlink:href="#DejaVuSans-69" transform="translate(351.855469 0)"/>
      <use xlink:href="#DejaVuSans-6e" transform="translate(379.638672 0)"/>
     </g>
    </g>
    <g id="line2d_41">
     <path d="M 484.86375 167.519687 
L 494.86375 167.519687 
L 504.86375 167.519687 
" style="fill: none; stroke: #17becf; stroke-width: 1.5; stroke-linecap: square"/>
    </g>
    <g id="text_30">
     <!-- 27.6 min -->
     <g transform="translate(512.86375 171.019687) scale(0.1 -0.1)">
      <use xlink:href="#DejaVuSans-32"/>
      <use xlink:href="#DejaVuSans-37" transform="translate(63.623047 0)"/>
      <use xlink:href="#DejaVuSans-2e" transform="translate(127.246094 0)"/>
      <use xlink:href="#DejaVuSans-36" transform="translate(159.033203 0)"/>
      <use xlink:href="#DejaVuSans-20" transform="translate(222.65625 0)"/>
      <use xlink:href="#DejaVuSans-6d" transform="translate(254.443359 0)"/>
      <use xlink:href="#DejaVuSans-69" transform="translate(351.855469 0)"/>
      <use xlink:href="#DejaVuSans-6e" transform="translate(379.638672 0)"/>
     </g>
    </g>
   </g>
  </g>
 </g>
 <defs>
  <clipPath id="p605f1dbc39">
   <rect x="50.14375" y="22.318125" width="425.72" height="220.6"/>
  </clipPath>
 </defs>
</svg>
