<?xml version="1.0" encoding="utf-8" standalone="no"?>
<!DOCTYPE svg PUBLIC "-//W3C//DTD SVG 1.1//EN"
  "http://www.w3.org/Graphics/SVG/1.1/DTD/svg11.dtd">
<svg xmlns:xlink="http://www.w3.org/1999/xlink" width="568.409063pt" height="280.474375pt" viewBox="0 0 568.409063 280.474375" xmlns="http://www.w3.org/2000/svg" version="1.1">
 <metadata>
  <rdf:RDF xmlns:dc="http://purl.org/dc/elements/1.1/" xmlns:cc="http://creativecommons.org/ns#" xmlns:rdf="http://www.w3.org/1999/02/22-rdf-syntax-ns#">
   <cc:Work>
    <dc:type rdf:resource="http://purl.org/dc/dcmitype/StillImage"/>
    <dc:date>2026-01-13T16:26:30.472722</dc:date>
    <dc:format>image/svg+xml</dc:format>
    <dc:creator>
     <cc:Agent>
      <dc:title>Matplotlib v3.10.0, https://matplotlib.org/</dc:title>
     </cc:Agent>
    </dc:creator>
   </cc:Work>
  </rdf:RDF>
 </metadata>
 <defs>
  <style type="text/css">*{stroke-linejoin: round; stroke-linecap: butt}</style>
 </defs>
 <g id="figure_1">
  <g id="patch_1">
   <path d="M 0 280.474375 
L 568.409063 280.474375 
L 568.409063 0 
L 0 0 
z
" style="fill: #ffffff"/>
  </g>
  <g id="axes_1">
   <g id="patch_2">
    <path d="M 56.50625 242.918125 
L 398.67625 242.918125 
L 398.67625 22.318125 
L 56.50625 22.318125 
z
" style="fill: #ffffff"/>
   </g>
   <g id="matplotlib.axis_1">
    <g id="xtick_1">
     <g id="line2d_1">
      <defs>
       <path id="m146b410b09" d="M 0 0 
L 0 3.5 
" style="stroke: #000000; stroke-width: 0.8"/>
      </defs>
      <g>
       <use xlink:href="#m146b410b09" x="398.67625" y="242.918125" style="stroke: #000000; stroke-width: 0.8"/>
      </g>
     </g>
     <g id="text_1">
      <!-- 1110 -->
      <g transform="translate(385.95125 257.516563) scale(0.1 -0.1)">
       <defs>
        <path id="DejaVuSans-31" d="M 794 531 
L 1825 531 
L 1825 4091 
L 703 3866 
L 703 4441 
L 1819 4666 
L 2450 4666 
L 2450 531 
L 3481 531 
L 3481 0 
L 794 0 
L 794 531 
z
" transform="scale(0.015625)"/>
        <path id="DejaVuSans-30" d="M 2034 4250 
Q 1547 4250 1301 3770 
Q 1056 3291 1056 2328 
Q 1056 1369 1301 889 
Q 1547 409 2034 409 
Q 2525 409 2770 889 
Q 3016 1369 3016 2328 
Q 3016 3291 2770 3770 
Q 2525 4250 2034 4250 
z
M 2034 4750 
Q 2819 4750 3233 4129 
Q 3647 3509 3647 2328 
Q 3647 1150 3233 529 
Q 2819 -91 2034 -91 
Q 1250 -91 836 529 
Q 422 1150 422 2328 
Q 422 3509 836 4129 
Q 1250 4750 2034 4750 
z
" transform="scale(0.015625)"/>
       </defs>
       <use xlink:href="#DejaVuSans-31"/>
       <use xlink:href="#DejaVuSans-31" transform="translate(63.623047 0)"/>
       <use xlink:href="#DejaVuSans-31" transform="translate(127.246094 0)"/>
       <use xlink:href="#DejaVuSans-30" transform="translate(190.869141 0)"/>
      </g>
     </g>
    </g>
    <g id="xtick_2">
     <g id="line2d_2">
      <g>
       <use xlink:href="#m146b410b09" x="349.794821" y="242.918125" style="stroke: #000000; stroke-width: 0.8"/>
      </g>
     </g>
     <g id="text_2">
      <!-- 1120 -->
      <g transform="translate(337.069821 257.516563) scale(0.1 -0.1)">
       <defs>
        <path id="DejaVuSans-32" d="M 1228 531 
L 3431 531 
L 3431 0 
L 469 0 
L 469 531 
Q 828 903 1448 1529 
Q 2069 2156 2228 2338 
Q 2531 2678 2651 2914 
Q 2772 3150 2772 3378 
Q 2772 3750 2511 3984 
Q 2250 4219 1831 4219 
Q 1534 4219 1204 4116 
Q 875 4013 500 3803 
L 500 4441 
Q 881 4594 1212 4672 
Q 1544 4750 1819 4750 
Q 2544 4750 2975 4387 
Q 3406 4025 3406 3419 
Q 3406 3131 3298 2873 
Q 3191 2616 2906 2266 
Q 2828 2175 2409 1742 
Q 1991 1309 1228 531 
z
" transform="scale(0.015625)"/>
       </defs>
       <use xlink:href="#DejaVuSans-31"/>
       <use xlink:href="#DejaVuSans-31" transform="translate(63.623047 0)"/>
       <use xlink:href="#DejaVuSans-32" transform="translate(127.246094 0)"/>
       <use xlink:href="#DejaVuSans-30" transform="translate(190.869141 0)"/>
      </g>
     </g>
    </g>
    <g id="xtick_3">
     <g id="line2d_3">
      <g>
       <use xlink:href="#m146b410b09" x="300.913393" y="242.918125" style="stroke: #000000; stroke-width: 0.8"/>
      </g>
     </g>
     <g id="text_3">
      <!-- 1130 -->
      <g transform="translate(288.188393 257.516563) scale(0.1 -0.1)">
       <defs>
        <path id="DejaVuSans-33" d="M 2597 2516 
Q 3050 2419 3304 2112 
Q 3559 1806 3559 1356 
Q 3559 666 3084 287 
Q 2609 -91 1734 -91 
Q 1441 -91 1130 -33 
Q 819 25 488 141 
L 488 750 
Q 750 597 1062 519 
Q 1375 441 1716 441 
Q 2309 441 2620 675 
Q 2931 909 2931 1356 
Q 2931 1769 2642 2001 
Q 2353 2234 1838 2234 
L 1294 2234 
L 1294 2753 
L 1863 2753 
Q 2328 2753 2575 2939 
Q 2822 3125 2822 3475 
Q 2822 3834 2567 4026 
Q 2313 4219 1838 4219 
Q 1578 4219 1281 4162 
Q 984 4106 628 3988 
L 628 4550 
Q 988 4650 1302 4700 
Q 1616 4750 1894 4750 
Q 2613 4750 3031 4423 
Q 3450 4097 3450 3541 
Q 3450 3153 3228 2886 
Q 3006 2619 2597 2516 
z
" transform="scale(0.015625)"/>
       </defs>
       <use xlink:href="#DejaVuSans-31"/>
       <use xlink:href="#DejaVuSans-31" transform="translate(63.623047 0)"/>
       <use xlink:href="#DejaVuSans-33" transform="translate(127.246094 0)"/>
       <use xlink:href="#DejaVuSans-30" transform="translate(190.869141 0)"/>
      </g>
     </g>
    </g>
    <g id="xtick_4">
     <g id="line2d_4">
      <g>
       <use xlink:href="#m146b410b09" x="252.031964" y="242.918125" style="stroke: #000000; stroke-width: 0.8"/>
      </g>
     </g>
     <g id="text_4">
      <!-- 1140 -->
      <g transform="translate(239.306964 257.516563) scale(0.1 -0.1)">
       <defs>
        <path id="DejaVuSans-34" d="M 2419 4116 
L 825 1625 
L 2419 1625 
L 2419 4116 
z
M 2253 4666 
L 3047 4666 
L 3047 1625 
L 3713 1625 
L 3713 1100 
L 3047 1100 
L 3047 0 
L 2419 0 
L 2419 1100 
L 313 1100 
L 313 1709 
L 2253 4666 
z
" transform="scale(0.015625)"/>
       </defs>
       <use xlink:href="#DejaVuSans-31"/>
       <use xlink:href="#DejaVuSans-31" transform="translate(63.623047 0)"/>
       <use xlink:href="#DejaVuSans-34" transform="translate(127.246094 0)"/>
       <use xlink:href="#DejaVuSans-30" transform="translate(190.869141 0)"/>
      </g>
     </g>
    </g>
    <g id="xtick_5">
     <g id="line2d_5">
      <g>
       <use xlink:href="#m146b410b09" x="203.150536" y="242.918125" style="stroke: #000000; stroke-width: 0.8"/>
      </g>
     </g>
     <g id="text_5">
      <!-- 1150 -->
      <g transform="translate(190.425536 257.516563) scale(0.1 -0.1)">
       <defs>
        <path id="DejaVuSans-35" d="M 691 4666 
L 3169 4666 
L 3169 4134 
L 1269 4134 
L 1269 2991 
Q 1406 3038 1543 3061 
Q 1681 3084 1819 3084 
Q 2600 3084 3056 2656 
Q 3513 2228 3513 1497 
Q 3513 744 3044 326 
Q 2575 -91 1722 -91 
Q 1428 -91 1123 -41 
Q 819 9 494 109 
L 494 744 
Q 775 591 1075 516 
Q 1375 441 1709 441 
Q 2250 441 2565 725 
Q 2881 1009 2881 1497 
Q 2881 1984 2565 2268 
Q 2250 2553 1709 2553 
Q 1456 2553 1204 2497 
Q 953 2441 691 2322 
L 691 4666 
z
" transform="scale(0.015625)"/>
       </defs>
       <use xlink:href="#DejaVuSans-31"/>
       <use xlink:href="#DejaVuSans-31" transform="translate(63.623047 0)"/>
       <use xlink:href="#DejaVuSans-35" transform="translate(127.246094 0)"/>
       <use xlink:href="#DejaVuSans-30" transform="translate(190.869141 0)"/>
      </g>
     </g>
    </g>
    <g id="xtick_6">
     <g id="line2d_6">
      <g>
       <use xlink:href="#m146b410b09" x="154.269107" y="242.918125" style="stroke: #000000; stroke-width: 0.8"/>
      </g>
     </g>
     <g id="text_6">
      <!-- 1160 -->
      <g transform="translate(141.544107 257.516563) scale(0.1 -0.1)">
       <defs>
        <path id="DejaVuSans-36" d="M 2113 2584 
Q 1688 2584 1439 2293 
Q 1191 2003 1191 1497 
Q 1191 994 1439 701 
Q 1688 409 2113 409 
Q 2538 409 2786 701 
Q 3034 994 3034 1497 
Q 3034 2003 2786 2293 
Q 2538 2584 2113 2584 
z
M 3366 4563 
L 3366 3988 
Q 3128 4100 2886 4159 
Q 2644 4219 2406 4219 
Q 1781 4219 1451 3797 
Q 1122 3375 1075 2522 
Q 1259 2794 1537 2939 
Q 1816 3084 2150 3084 
Q 2853 3084 3261 2657 
Q 3669 2231 3669 1497 
Q 3669 778 3244 343 
Q 2819 -91 2113 -91 
Q 1303 -91 875 529 
Q 447 1150 447 2328 
Q 447 3434 972 4092 
Q 1497 4750 2381 4750 
Q 2619 4750 2861 4703 
Q 3103 4656 3366 4563 
z
" transform="scale(0.015625)"/>
       </defs>
       <use xlink:href="#DejaVuSans-31"/>
       <use xlink:href="#DejaVuSans-31" transform="translate(63.623047 0)"/>
       <use xlink:href="#DejaVuSans-36" transform="translate(127.246094 0)"/>
       <use xlink:href="#DejaVuSans-30" transform="translate(190.869141 0)"/>
      </g>
     </g>
    </g>
    <g id="xtick_7">
     <g id="line2d_7">
      <g>
       <use xlink:href="#m146b410b09" x="105.387679" y="242.918125" style="stroke: #000000; stroke-width: 0.8"/>
      </g>
     </g>
     <g id="text_7">
      <!-- 1170 -->
      <g transform="translate(92.662679 257.516563) scale(0.1 -0.1)">
       <defs>
        <path id="DejaVuSans-37" d="M 525 4666 
L 3525 4666 
L 3525 4397 
L 1831 0 
L 1172 0 
L 2766 4134 
L 525 4134 
L 525 4666 
z
" transform="scale(0.015625)"/>
       </defs>
       <use xlink:href="#DejaVuSans-31"/>
       <use xlink:href="#DejaVuSans-31" transform="translate(63.623047 0)"/>
       <use xlink:href="#DejaVuSans-37" transform="translate(127.246094 0)"/>
       <use xlink:href="#DejaVuSans-30" transform="translate(190.869141 0)"/>
      </g>
     </g>
    </g>
    <g id="xtick_8">
     <g id="line2d_8">
      <g>
       <use xlink:href="#m146b410b09" x="56.50625" y="242.918125" style="stroke: #000000; stroke-width: 0.8"/>
      </g>
     </g>
     <g id="text_8">
      <!-- 1180 -->
      <g transform="translate(43.78125 257.516563) scale(0.1 -0.1)">
       <defs>
        <path id="DejaVuSans-38" d="M 2034 2216 
Q 1584 2216 1326 1975 
Q 1069 1734 1069 1313 
Q 1069 891 1326 650 
Q 1584 409 2034 409 
Q 2484 409 2743 651 
Q 3003 894 3003 1313 
Q 3003 1734 2745 1975 
Q 2488 2216 2034 2216 
z
M 1403 2484 
Q 997 2584 770 2862 
Q 544 3141 544 3541 
Q 544 4100 942 4425 
Q 1341 4750 2034 4750 
Q 2731 4750 3128 4425 
Q 3525 4100 3525 3541 
Q 3525 3141 3298 2862 
Q 3072 2584 2669 2484 
Q 3125 2378 3379 2068 
Q 3634 1759 3634 1313 
Q 3634 634 3220 271 
Q 2806 -91 2034 -91 
Q 1263 -91 848 271 
Q 434 634 434 1313 
Q 434 1759 690 2068 
Q 947 2378 1403 2484 
z
M 1172 3481 
Q 1172 3119 1398 2916 
Q 1625 2713 2034 2713 
Q 2441 2713 2670 2916 
Q 2900 3119 2900 3481 
Q 2900 3844 2670 4047 
Q 2441 4250 2034 4250 
Q 1625 4250 1398 4047 
Q 1172 3844 1172 3481 
z
" transform="scale(0.015625)"/>
       </defs>
       <use xlink:href="#DejaVuSans-31"/>
       <use xlink:href="#DejaVuSans-31" transform="translate(63.623047 0)"/>
       <use xlink:href="#DejaVuSans-38" transform="translate(127.246094 0)"/>
       <use xlink:href="#DejaVuSans-30" transform="translate(190.869141 0)"/>
      </g>
     </g>
    </g>
    <g id="text_9">
     <!-- Wavenumber (cm⁻¹) -->
     <g transform="translate(176.598281 271.194687) scale(0.1 -0.1)">
      <defs>
       <path id="DejaVuSans-57" d="M 213 4666 
L 850 4666 
L 1831 722 
L 2809 4666 
L 3519 4666 
L 4500 722 
L 5478 4666 
L 6119 4666 
L 4947 0 
L 4153 0 
L 3169 4050 
L 2175 0 
L 1381 0 
L 213 4666 
z
" transform="scale(0.015625)"/>
       <path id="DejaVuSans-61" d="M 2194 1759 
Q 1497 1759 1228 1600 
Q 959 1441 959 1056 
Q 959 750 1161 570 
Q 1363 391 1709 391 
Q 2188 391 2477 730 
Q 2766 1069 2766 1631 
L 2766 1759 
L 2194 1759 
z
M 3341 1997 
L 3341 0 
L 2766 0 
L 2766 531 
Q 2569 213 2275 61 
Q 1981 -91 1556 -91 
Q 1019 -91 701 211 
Q 384 513 384 1019 
Q 384 1609 779 1909 
Q 1175 2209 1959 2209 
L 2766 2209 
L 2766 2266 
Q 2766 2663 2505 2880 
Q 2244 3097 1772 3097 
Q 1472 3097 1187 3025 
Q 903 2953 641 2809 
L 641 3341 
Q 956 3463 1253 3523 
Q 1550 3584 1831 3584 
Q 2591 3584 2966 3190 
Q 3341 2797 3341 1997 
z
" transform="scale(0.015625)"/>
       <path id="DejaVuSans-76" d="M 191 3500 
L 800 3500 
L 1894 563 
L 2988 3500 
L 3597 3500 
L 2284 0 
L 1503 0 
L 191 3500 
z
" transform="scale(0.015625)"/>
       <path id="DejaVuSans-65" d="M 3597 1894 
L 3597 1613 
L 953 1613 
Q 991 1019 1311 708 
Q 1631 397 2203 397 
Q 2534 397 2845 478 
Q 3156 559 3463 722 
L 3463 178 
Q 3153 47 2828 -22 
Q 2503 -91 2169 -91 
Q 1331 -91 842 396 
Q 353 884 353 1716 
Q 353 2575 817 3079 
Q 1281 3584 2069 3584 
Q 2775 3584 3186 3129 
Q 3597 2675 3597 1894 
z
M 3022 2063 
Q 3016 2534 2758 2815 
Q 2500 3097 2075 3097 
Q 1594 3097 1305 2825 
Q 1016 2553 972 2059 
L 3022 2063 
z
" transform="scale(0.015625)"/>
       <path id="DejaVuSans-6e" d="M 3513 2113 
L 3513 0 
L 2938 0 
L 2938 2094 
Q 2938 2591 2744 2837 
Q 2550 3084 2163 3084 
Q 1697 3084 1428 2787 
Q 1159 2491 1159 1978 
L 1159 0 
L 581 0 
L 581 3500 
L 1159 3500 
L 1159 2956 
Q 1366 3272 1645 3428 
Q 1925 3584 2291 3584 
Q 2894 3584 3203 3211 
Q 3513 2838 3513 2113 
z
" transform="scale(0.015625)"/>
       <path id="DejaVuSans-75" d="M 544 1381 
L 544 3500 
L 1119 3500 
L 1119 1403 
Q 1119 906 1312 657 
Q 1506 409 1894 409 
Q 2359 409 2629 706 
Q 2900 1003 2900 1516 
L 2900 3500 
L 3475 3500 
L 3475 0 
L 2900 0 
L 2900 538 
Q 2691 219 2414 64 
Q 2138 -91 1772 -91 
Q 1169 -91 856 284 
Q 544 659 544 1381 
z
M 1991 3584 
L 1991 3584 
z
" transform="scale(0.015625)"/>
       <path id="DejaVuSans-6d" d="M 3328 2828 
Q 3544 3216 3844 3400 
Q 4144 3584 4550 3584 
Q 5097 3584 5394 3201 
Q 5691 2819 5691 2113 
L 5691 0 
L 5113 0 
L 5113 2094 
Q 5113 2597 4934 2840 
Q 4756 3084 4391 3084 
Q 3944 3084 3684 2787 
Q 3425 2491 3425 1978 
L 3425 0 
L 2847 0 
L 2847 2094 
Q 2847 2600 2669 2842 
Q 2491 3084 2119 3084 
Q 1678 3084 1418 2786 
Q 1159 2488 1159 1978 
L 1159 0 
L 581 0 
L 581 3500 
L 1159 3500 
L 1159 2956 
Q 1356 3278 1631 3431 
Q 1906 3584 2284 3584 
Q 2666 3584 2933 3390 
Q 3200 3197 3328 2828 
z
" transform="scale(0.015625)"/>
       <path id="DejaVuSans-62" d="M 3116 1747 
Q 3116 2381 2855 2742 
Q 2594 3103 2138 3103 
Q 1681 3103 1420 2742 
Q 1159 2381 1159 1747 
Q 1159 1113 1420 752 
Q 1681 391 2138 391 
Q 2594 391 2855 752 
Q 3116 1113 3116 1747 
z
M 1159 2969 
Q 1341 3281 1617 3432 
Q 1894 3584 2278 3584 
Q 2916 3584 3314 3078 
Q 3713 2572 3713 1747 
Q 3713 922 3314 415 
Q 2916 -91 2278 -91 
Q 1894 -91 1617 61 
Q 1341 213 1159 525 
L 1159 0 
L 581 0 
L 581 4863 
L 1159 4863 
L 1159 2969 
z
" transform="scale(0.015625)"/>
       <path id="DejaVuSans-72" d="M 2631 2963 
Q 2534 3019 2420 3045 
Q 2306 3072 2169 3072 
Q 1681 3072 1420 2755 
Q 1159 2438 1159 1844 
L 1159 0 
L 581 0 
L 581 3500 
L 1159 3500 
L 1159 2956 
Q 1341 3275 1631 3429 
Q 1922 3584 2338 3584 
Q 2397 3584 2469 3576 
Q 2541 3569 2628 3553 
L 2631 2963 
z
" transform="scale(0.015625)"/>
       <path id="DejaVuSans-20" transform="scale(0.015625)"/>
       <path id="DejaVuSans-28" d="M 1984 4856 
Q 1566 4138 1362 3434 
Q 1159 2731 1159 2009 
Q 1159 1288 1364 580 
Q 1569 -128 1984 -844 
L 1484 -844 
Q 1016 -109 783 600 
Q 550 1309 550 2009 
Q 550 2706 781 3412 
Q 1013 4119 1484 4856 
L 1984 4856 
z
" transform="scale(0.015625)"/>
       <path id="DejaVuSans-63" d="M 3122 3366 
L 3122 2828 
Q 2878 2963 2633 3030 
Q 2388 3097 2138 3097 
Q 1578 3097 1268 2742 
Q 959 2388 959 1747 
Q 959 1106 1268 751 
Q 1578 397 2138 397 
Q 2388 397 2633 464 
Q 2878 531 3122 666 
L 3122 134 
Q 2881 22 2623 -34 
Q 2366 -91 2075 -91 
Q 1284 -91 818 406 
Q 353 903 353 1747 
Q 353 2603 823 3093 
Q 1294 3584 2113 3584 
Q 2378 3584 2631 3529 
Q 2884 3475 3122 3366 
z
" transform="scale(0.015625)"/>
       <path id="DejaVuSans-207b" d="M 428 3359 
L 2950 3359 
L 2950 3063 
L 428 3063 
L 428 3359 
z
" transform="scale(0.015625)"/>
       <path id="DejaVuSans-b9" d="M 488 2431 
L 1125 2431 
L 1125 4341 
L 428 4213 
L 428 4575 
L 1147 4697 
L 1575 4697 
L 1575 2431 
L 2216 2431 
L 2216 2088 
L 488 2088 
L 488 2431 
z
" transform="scale(0.015625)"/>
       <path id="DejaVuSans-29" d="M 513 4856 
L 1013 4856 
Q 1481 4119 1714 3412 
Q 1947 2706 1947 2009 
Q 1947 1309 1714 600 
Q 1481 -109 1013 -844 
L 513 -844 
Q 928 -128 1133 580 
Q 1338 1288 1338 2009 
Q 1338 2731 1133 3434 
Q 928 4138 513 4856 
z
" transform="scale(0.015625)"/>
      </defs>
      <use xlink:href="#DejaVuSans-57"/>
      <use xlink:href="#DejaVuSans-61" transform="translate(92.501953 0)"/>
      <use xlink:href="#DejaVuSans-76" transform="translate(153.78125 0)"/>
      <use xlink:href="#DejaVuSans-65" transform="translate(212.960938 0)"/>
      <use xlink:href="#DejaVuSans-6e" transform="translate(274.484375 0)"/>
      <use xlink:href="#DejaVuSans-75" transform="translate(337.863281 0)"/>
      <use xlink:href="#DejaVuSans-6d" transform="translate(401.242188 0)"/>
      <use xlink:href="#DejaVuSans-62" transform="translate(498.654297 0)"/>
      <use xlink:href="#DejaVuSans-65" transform="translate(562.130859 0)"/>
      <use xlink:href="#DejaVuSans-72" transform="translate(623.654297 0)"/>
      <use xlink:href="#DejaVuSans-20" transform="translate(664.767578 0)"/>
      <use xlink:href="#DejaVuSans-28" transform="translate(696.554688 0)"/>
      <use xlink:href="#DejaVuSans-63" transform="translate(735.568359 0)"/>
      <use xlink:href="#DejaVuSans-6d" transform="translate(790.548828 0)"/>
      <use xlink:href="#DejaVuSans-207b" transform="translate(887.960938 0)"/>
      <use xlink:href="#DejaVuSans-b9" transform="translate(940.744141 0)"/>
      <use xlink:href="#DejaVuSans-29" transform="translate(980.832031 0)"/>
     </g>
    </g>
   </g>
   <g id="matplotlib.axis_2">
    <g id="ytick_1">
     <g id="line2d_9">
      <defs>
       <path id="mcbb3db2cde" d="M 0 0 
L -3.5 0 
" style="stroke: #000000; stroke-width: 0.8"/>
      </defs>
      <g>
       <use xlink:href="#mcbb3db2cde" x="56.50625" y="228.803372" style="stroke: #000000; stroke-width: 0.8"/>
      </g>
     </g>
     <g id="text_10">
      <!-- 0.050 -->
      <g transform="translate(20.878125 232.602591) scale(0.1 -0.1)">
       <defs>
        <path id="DejaVuSans-2e" d="M 684 794 
L 1344 794 
L 1344 0 
L 684 0 
L 684 794 
z
" transform="scale(0.015625)"/>
       </defs>
       <use xlink:href="#DejaVuSans-30"/>
       <use xlink:href="#DejaVuSans-2e" transform="translate(63.623047 0)"/>
       <use xlink:href="#DejaVuSans-30" transform="translate(95.410156 0)"/>
       <use xlink:href="#DejaVuSans-35" transform="translate(159.033203 0)"/>
       <use xlink:href="#DejaVuSans-30" transform="translate(222.65625 0)"/>
      </g>
     </g>
    </g>
    <g id="ytick_2">
     <g id="line2d_10">
      <g>
       <use xlink:href="#mcbb3db2cde" x="56.50625" y="201.760023" style="stroke: #000000; stroke-width: 0.8"/>
      </g>
     </g>
     <g id="text_11">
      <!-- 0.075 -->
      <g transform="translate(20.878125 205.559241) scale(0.1 -0.1)">
       <use xlink:href="#DejaVuSans-30"/>
       <use xlink:href="#DejaVuSans-2e" transform="translate(63.623047 0)"/>
       <use xlink:href="#DejaVuSans-30" transform="translate(95.410156 0)"/>
       <use xlink:href="#DejaVuSans-37" transform="translate(159.033203 0)"/>
       <use xlink:href="#DejaVuSans-35" transform="translate(222.65625 0)"/>
      </g>
     </g>
    </g>
    <g id="ytick_3">
     <g id="line2d_11">
      <g>
       <use xlink:href="#mcbb3db2cde" x="56.50625" y="174.716673" style="stroke: #000000; stroke-width: 0.8"/>
      </g>
     </g>
     <g id="text_12">
      <!-- 0.100 -->
      <g transform="translate(20.878125 178.515892) scale(0.1 -0.1)">
       <use xlink:href="#DejaVuSans-30"/>
       <use xlink:href="#DejaVuSans-2e" transform="translate(63.623047 0)"/>
       <use xlink:href="#DejaVuSans-31" transform="translate(95.410156 0)"/>
       <use xlink:href="#DejaVuSans-30" transform="translate(159.033203 0)"/>
       <use xlink:href="#DejaVuSans-30" transform="translate(222.65625 0)"/>
      </g>
     </g>
    </g>
    <g id="ytick_4">
     <g id="line2d_12">
      <g>
       <use xlink:href="#mcbb3db2cde" x="56.50625" y="147.673323" style="stroke: #000000; stroke-width: 0.8"/>
      </g>
     </g>
     <g id="text_13">
      <!-- 0.125 -->
      <g transform="translate(20.878125 151.472542) scale(0.1 -0.1)">
       <use xlink:href="#DejaVuSans-30"/>
       <use xlink:href="#DejaVuSans-2e" transform="translate(63.623047 0)"/>
       <use xlink:href="#DejaVuSans-31" transform="translate(95.410156 0)"/>
       <use xlink:href="#DejaVuSans-32" transform="translate(159.033203 0)"/>
       <use xlink:href="#DejaVuSans-35" transform="translate(222.65625 0)"/>
      </g>
     </g>
    </g>
    <g id="ytick_5">
     <g id="line2d_13">
      <g>
       <use xlink:href="#mcbb3db2cde" x="56.50625" y="120.629973" style="stroke: #000000; stroke-width: 0.8"/>
      </g>
     </g>
     <g id="text_14">
      <!-- 0.150 -->
      <g transform="translate(20.878125 124.429192) scale(0.1 -0.1)">
       <use xlink:href="#DejaVuSans-30"/>
       <use xlink:href="#DejaVuSans-2e" transform="translate(63.623047 0)"/>
       <use xlink:href="#DejaVuSans-31" transform="translate(95.410156 0)"/>
       <use xlink:href="#DejaVuSans-35" transform="translate(159.033203 0)"/>
       <use xlink:href="#DejaVuSans-30" transform="translate(222.65625 0)"/>
      </g>
     </g>
    </g>
    <g id="ytick_6">
     <g id="line2d_14">
      <g>
       <use xlink:href="#mcbb3db2cde" x="56.50625" y="93.586624" style="stroke: #000000; stroke-width: 0.8"/>
      </g>
     </g>
     <g id="text_15">
      <!-- 0.175 -->
      <g transform="translate(20.878125 97.385842) scale(0.1 -0.1)">
       <use xlink:href="#DejaVuSans-30"/>
       <use xlink:href="#DejaVuSans-2e" transform="translate(63.623047 0)"/>
       <use xlink:href="#DejaVuSans-31" transform="translate(95.410156 0)"/>
       <use xlink:href="#DejaVuSans-37" transform="translate(159.033203 0)"/>
       <use xlink:href="#DejaVuSans-35" transform="translate(222.65625 0)"/>
      </g>
     </g>
    </g>
    <g id="ytick_7">
     <g id="line2d_15">
      <g>
       <use xlink:href="#mcbb3db2cde" x="56.50625" y="66.543274" style="stroke: #000000; stroke-width: 0.8"/>
      </g>
     </g>
     <g id="text_16">
      <!-- 0.200 -->
      <g transform="translate(20.878125 70.342493) scale(0.1 -0.1)">
       <use xlink:href="#DejaVuSans-30"/>
       <use xlink:href="#DejaVuSans-2e" transform="translate(63.623047 0)"/>
       <use xlink:href="#DejaVuSans-32" transform="translate(95.410156 0)"/>
       <use xlink:href="#DejaVuSans-30" transform="translate(159.033203 0)"/>
       <use xlink:href="#DejaVuSans-30" transform="translate(222.65625 0)"/>
      </g>
     </g>
    </g>
    <g id="ytick_8">
     <g id="line2d_16">
      <g>
       <use xlink:href="#mcbb3db2cde" x="56.50625" y="39.499924" style="stroke: #000000; stroke-width: 0.8"/>
      </g>
     </g>
     <g id="text_17">
      <!-- 0.225 -->
      <g transform="translate(20.878125 43.299143) scale(0.1 -0.1)">
       <use xlink:href="#DejaVuSans-30"/>
       <use xlink:href="#DejaVuSans-2e" transform="translate(63.623047 0)"/>
       <use xlink:href="#DejaVuSans-32" transform="translate(95.410156 0)"/>
       <use xlink:href="#DejaVuSans-32" transform="translate(159.033203 0)"/>
       <use xlink:href="#DejaVuSans-35" transform="translate(222.65625 0)"/>
      </g>
     </g>
    </g>
    <g id="text_18">
     <!-- Absorbance -->
     <g transform="translate(14.798438 162.165) rotate(-90) scale(0.1 -0.1)">
      <defs>
       <path id="DejaVuSans-41" d="M 2188 4044 
L 1331 1722 
L 3047 1722 
L 2188 4044 
z
M 1831 4666 
L 2547 4666 
L 4325 0 
L 3669 0 
L 3244 1197 
L 1141 1197 
L 716 0 
L 50 0 
L 1831 4666 
z
" transform="scale(0.015625)"/>
       <path id="DejaVuSans-73" d="M 2834 3397 
L 2834 2853 
Q 2591 2978 2328 3040 
Q 2066 3103 1784 3103 
Q 1356 3103 1142 2972 
Q 928 2841 928 2578 
Q 928 2378 1081 2264 
Q 1234 2150 1697 2047 
L 1894 2003 
Q 2506 1872 2764 1633 
Q 3022 1394 3022 966 
Q 3022 478 2636 193 
Q 2250 -91 1575 -91 
Q 1294 -91 989 -36 
Q 684 19 347 128 
L 347 722 
Q 666 556 975 473 
Q 1284 391 1588 391 
Q 1994 391 2212 530 
Q 2431 669 2431 922 
Q 2431 1156 2273 1281 
Q 2116 1406 1581 1522 
L 1381 1569 
Q 847 1681 609 1914 
Q 372 2147 372 2553 
Q 372 3047 722 3315 
Q 1072 3584 1716 3584 
Q 2034 3584 2315 3537 
Q 2597 3491 2834 3397 
z
" transform="scale(0.015625)"/>
       <path id="DejaVuSans-6f" d="M 1959 3097 
Q 1497 3097 1228 2736 
Q 959 2375 959 1747 
Q 959 1119 1226 758 
Q 1494 397 1959 397 
Q 2419 397 2687 759 
Q 2956 1122 2956 1747 
Q 2956 2369 2687 2733 
Q 2419 3097 1959 3097 
z
M 1959 3584 
Q 2709 3584 3137 3096 
Q 3566 2609 3566 1747 
Q 3566 888 3137 398 
Q 2709 -91 1959 -91 
Q 1206 -91 779 398 
Q 353 888 353 1747 
Q 353 2609 779 3096 
Q 1206 3584 1959 3584 
z
" transform="scale(0.015625)"/>
      </defs>
      <use xlink:href="#DejaVuSans-41"/>
      <use xlink:href="#DejaVuSans-62" transform="translate(68.408203 0)"/>
      <use xlink:href="#DejaVuSans-73" transform="translate(131.884766 0)"/>
      <use xlink:href="#DejaVuSans-6f" transform="translate(183.984375 0)"/>
      <use xlink:href="#DejaVuSans-72" transform="translate(245.166016 0)"/>
      <use xlink:href="#DejaVuSans-62" transform="translate(286.279297 0)"/>
      <use xlink:href="#DejaVuSans-61" transform="translate(349.755859 0)"/>
      <use xlink:href="#DejaVuSans-6e" transform="translate(411.035156 0)"/>
      <use xlink:href="#DejaVuSans-63" transform="translate(474.414062 0)"/>
      <use xlink:href="#DejaVuSans-65" transform="translate(529.394531 0)"/>
     </g>
    </g>
   </g>
   <g id="line2d_17">
    <path d="M -1 200.72971 
L 1.880085 199.638364 
L 10.992189 201.681578 
L 20.104294 207.93496 
L 29.216398 215.456029 
L 38.328502 221.952026 
L 47.440607 226.634981 
L 56.552711 229.161304 
L 65.664816 229.372511 
L 74.77692 228.087066 
L 83.889025 225.935957 
L 93.001129 221.900461 
L 102.113234 214.238724 
L 111.225338 201.979663 
L 120.337442 184.396577 
L 129.449547 160.046466 
L 138.561651 129.740372 
L 147.673756 101.856731 
L 156.78586 89.487101 
L 165.897965 96.896155 
L 175.010069 115.043479 
L 184.122174 133.642411 
L 193.234278 148.68418 
L 202.346382 160.218632 
L 211.458487 169.211629 
L 220.570591 176.749109 
L 229.682696 183.577625 
L 238.7948 189.877324 
L 247.906905 195.523029 
L 257.019009 200.074225 
L 266.131113 202.60297 
L 275.243218 203.023411 
L 284.355322 202.527144 
L 293.467427 201.885084 
L 302.579531 201.026613 
L 311.691636 199.199615 
L 320.80374 196.29878 
L 329.915845 192.870521 
L 339.027949 188.490486 
L 348.140053 182.284055 
L 366.364262 167.316733 
L 384.588471 151.578448 
L 393.700576 146.535582 
L 402.81268 145.551907 
L 411.924784 146.149348 
L 421.036889 145.084409 
L 430.148993 141.637441 
L 439.261098 136.567511 
L 448.373202 130.044682 
L 457.485307 121.350335 
L 466.597411 110.153973 
L 475.709516 96.74443 
L 484.82162 81.050318 
L 493.933724 62.793434 
L 503.045829 41.590024 
L 512.157933 17.385281 
L 518.22462 -1 
L 518.22462 -1 
" clip-path="url(#p6a39008054)" style="fill: none; stroke: #1f77b4; stroke-width: 1.5; stroke-linecap: square"/>
   </g>
   <g id="line2d_18">
    <path d="M -1 200.474968 
L 1.880085 199.404849 
L 10.992189 201.069655 
L 20.104294 206.814335 
L 29.216398 214.074764 
L 38.328502 220.57053 
L 47.440607 225.277079 
L 56.552711 227.731489 
L 65.664816 228.003522 
L 74.77692 226.966399 
L 83.889025 224.968986 
L 93.001129 220.838153 
L 102.113234 213.048447 
L 111.225338 200.926894 
L 120.337442 183.521106 
L 129.449547 159.09688 
L 138.561651 128.664367 
L 147.673756 100.897772 
L 156.78586 88.625761 
L 165.897965 95.457356 
L 175.010069 112.31941 
L 184.122174 129.647524 
L 193.234278 143.918194 
L 202.346382 154.881144 
L 211.458487 163.128108 
L 229.682696 176.850458 
L 238.7948 183.605298 
L 247.906905 189.516209 
L 257.019009 194.01883 
L 266.131113 196.697986 
L 275.243218 197.617392 
L 284.355322 197.568869 
L 293.467427 197.166077 
L 302.579531 196.489299 
L 311.691636 194.959355 
L 320.80374 192.333239 
L 329.915845 189.013123 
L 339.027949 184.82379 
L 348.140053 179.21599 
L 357.252158 172.630732 
L 366.364262 165.594866 
L 375.476367 157.751337 
L 384.588471 150.113586 
L 393.700576 145.538163 
L 402.81268 144.908359 
L 411.924784 145.425888 
L 421.036889 144.133903 
L 430.148993 140.758166 
L 439.261098 136.079982 
L 448.373202 129.704273 
L 457.485307 120.78749 
L 466.597411 109.507133 
L 475.709516 96.234096 
L 484.82162 80.457996 
L 493.933724 61.836797 
L 503.045829 40.494883 
L 512.157933 16.552165 
L 518.004283 -1 
L 518.004283 -1 
" clip-path="url(#p6a39008054)" style="fill: none; stroke: #ff7f0e; stroke-width: 1.5; stroke-linecap: square"/>
   </g>
   <g id="line2d_19">
    <path d="M -1 201.409329 
L 1.880085 200.253394 
L 10.992189 201.258864 
L 20.104294 206.963424 
L 29.216398 214.545155 
L 38.328502 220.695151 
L 47.440607 224.336682 
L 56.552711 226.292923 
L 65.664816 227.102861 
L 74.77692 226.412144 
L 83.889025 223.848911 
L 93.001129 219.168806 
L 102.113234 211.75305 
L 111.225338 200.315072 
L 120.337442 183.074308 
L 129.449547 158.874569 
L 138.561651 129.589729 
L 147.673756 103.098467 
L 156.78586 90.134237 
L 165.897965 94.020682 
L 175.010069 107.858375 
L 184.122174 123.692579 
L 193.234278 137.598972 
L 202.346382 148.463812 
L 211.458487 157.005595 
L 229.682696 173.058255 
L 238.7948 180.084613 
L 247.906905 185.395355 
L 257.019009 189.82629 
L 266.131113 193.410458 
L 275.243218 195.119323 
L 284.355322 194.98985 
L 293.467427 194.455329 
L 302.579531 194.520112 
L 311.691636 193.983319 
L 320.80374 191.501448 
L 329.915845 187.688055 
L 339.027949 183.577086 
L 348.140053 178.765791 
L 357.252158 172.450302 
L 366.364262 164.764995 
L 375.476367 156.672463 
L 384.588471 149.839915 
L 393.700576 145.786916 
L 402.81268 144.30707 
L 411.924784 143.643114 
L 421.036889 142.332116 
L 430.148993 139.609398 
L 439.261098 134.898692 
L 448.373202 127.828922 
L 457.485307 118.842171 
L 466.597411 108.52395 
L 475.709516 95.853607 
L 484.82162 79.442065 
L 493.933724 60.165993 
L 503.045829 39.362789 
L 512.157933 16.238172 
L 517.83226 -1 
L 517.83226 -1 
" clip-path="url(#p6a39008054)" style="fill: none; stroke: #2ca02c; stroke-width: 1.5; stroke-linecap: square"/>
   </g>
   <g id="line2d_20">
    <path d="M -1 199.197365 
L 1.880085 198.152246 
L 10.992189 199.788793 
L 20.104294 205.216564 
L 29.216398 211.749422 
L 38.328502 217.414855 
L 47.440607 221.6281 
L 56.552711 223.926798 
L 65.664816 223.998461 
L 74.77692 222.585043 
L 83.889025 220.34248 
L 93.001129 216.366415 
L 102.113234 208.888137 
L 111.225338 196.886905 
L 120.337442 179.998727 
L 129.449547 157.208034 
L 138.561651 128.856588 
L 147.673756 101.933282 
L 156.78586 88.051786 
L 165.897965 91.275063 
L 175.010069 103.949358 
L 184.122174 117.739902 
L 193.234278 130.025599 
L 202.346382 141.24799 
L 211.458487 151.462639 
L 220.570591 160.239493 
L 229.682696 167.711337 
L 238.7948 174.404357 
L 247.906905 180.544045 
L 257.019009 185.850496 
L 266.131113 189.215958 
L 275.243218 190.295116 
L 284.355322 190.560228 
L 293.467427 191.067605 
L 302.579531 191.391127 
L 311.691636 190.219588 
L 320.80374 187.602025 
L 329.915845 184.782185 
L 339.027949 181.340753 
L 348.140053 175.895495 
L 366.364262 161.867253 
L 384.588471 147.721204 
L 393.700576 142.567291 
L 402.81268 140.651553 
L 411.924784 140.513449 
L 421.036889 139.340623 
L 430.148993 135.766289 
L 439.261098 130.440617 
L 448.373202 123.896472 
L 457.485307 115.644481 
L 466.597411 104.949041 
L 475.709516 91.543091 
L 484.82162 75.521918 
L 493.933724 57.342619 
L 503.045829 36.630947 
L 512.157933 12.437344 
L 516.519544 -1 
L 516.519544 -1 
" clip-path="url(#p6a39008054)" style="fill: none; stroke: #d62728; stroke-width: 1.5; stroke-linecap: square"/>
   </g>
   <g id="line2d_21">
    <path d="M -1 192.418935 
L 1.880085 191.562511 
L 10.992189 192.734024 
L 20.104294 197.468211 
L 29.216398 203.929171 
L 38.328502 209.590831 
L 47.440607 213.301836 
L 56.552711 214.947589 
L 65.664816 214.906445 
L 74.77692 213.849578 
L 83.889025 211.731036 
L 93.001129 207.49131 
L 102.113234 199.867665 
L 111.225338 188.248588 
L 120.337442 172.043 
L 129.449547 149.818762 
L 138.561651 122.025396 
L 147.673756 95.706444 
L 156.78586 81.574967 
L 165.897965 82.798685 
L 175.010069 92.466386 
L 193.234278 115.465901 
L 202.346382 127.270283 
L 211.458487 138.197377 
L 220.570591 147.543566 
L 229.682696 155.691592 
L 238.7948 162.950933 
L 247.906905 169.204594 
L 257.019009 174.407531 
L 266.131113 177.896728 
L 275.243218 179.46177 
L 293.467427 180.986386 
L 302.579531 181.509263 
L 311.691636 180.720368 
L 320.80374 178.633945 
L 329.915845 176.080988 
L 339.027949 172.667537 
L 348.140053 167.278193 
L 366.364262 153.530798 
L 375.476367 146.533415 
L 384.588471 139.369289 
L 393.700576 134.043084 
L 402.81268 131.913035 
L 411.924784 131.458877 
L 421.036889 129.976169 
L 430.148993 126.246165 
L 439.261098 120.916702 
L 448.373202 114.541488 
L 457.485307 106.519788 
L 466.597411 95.895006 
L 475.709516 82.309436 
L 484.82162 66.139119 
L 493.933724 48.087581 
L 503.045829 27.591708 
L 512.157933 3.509928 
L 513.614201 -1 
L 513.614201 -1 
" clip-path="url(#p6a39008054)" style="fill: none; stroke: #9467bd; stroke-width: 1.5; stroke-linecap: square"/>
   </g>
   <g id="line2d_22">
    <path d="M -1 205.105249 
L 1.880085 204.248648 
L 10.992189 205.397796 
L 20.104294 209.536893 
L 29.216398 214.870547 
L 38.328502 219.791118 
L 47.440607 223.603793 
L 56.552711 225.730093 
L 65.664816 225.82984 
L 74.77692 224.543363 
L 83.889025 222.326653 
L 93.001129 218.179787 
L 102.113234 210.586927 
L 111.225338 198.866638 
L 120.337442 182.745205 
L 129.449547 161.180626 
L 138.561651 134.266219 
L 147.673756 108.091184 
L 156.78586 92.696725 
L 165.897965 91.420768 
L 175.010069 97.95462 
L 184.122174 106.305802 
L 193.234278 115.510659 
L 211.458487 136.229424 
L 220.570591 145.680315 
L 229.682696 154.084914 
L 238.7948 161.554628 
L 247.906905 168.329375 
L 257.019009 174.222237 
L 266.131113 178.288434 
L 275.243218 180.459269 
L 284.355322 182.104054 
L 293.467427 183.944866 
L 302.579531 185.323855 
L 311.691636 185.131423 
L 320.80374 183.429868 
L 329.915845 181.271633 
L 339.027949 178.52898 
L 348.140053 174.137275 
L 357.252158 168.420477 
L 366.364262 162.489272 
L 375.476367 156.39903 
L 384.588471 150.054308 
L 393.700576 145.167188 
L 402.81268 143.043358 
L 411.924784 142.379439 
L 421.036889 140.857919 
L 430.148993 137.348289 
L 439.261098 132.231472 
L 448.373202 125.912738 
L 457.485307 118.010475 
L 466.597411 107.74036 
L 475.709516 94.246353 
L 484.82162 77.812289 
L 493.933724 59.649413 
L 503.045829 39.173843 
L 512.157933 14.961092 
L 517.265217 -1 
L 517.265217 -1 
" clip-path="url(#p6a39008054)" style="fill: none; stroke: #8c564b; stroke-width: 1.5; stroke-linecap: square"/>
   </g>
   <g id="line2d_23">
    <path d="M -1 210.605774 
L 1.880085 209.942235 
L 10.992189 211.114864 
L 20.104294 214.777956 
L 29.216398 219.139523 
L 38.328502 223.052854 
L 47.440607 226.266279 
L 56.552711 228.102409 
L 65.664816 227.848172 
L 74.77692 226.023668 
L 83.889025 223.315408 
L 93.001129 218.654168 
L 102.113234 209.700745 
L 111.225338 195.765829 
L 120.337442 179.200068 
L 129.449547 161.215668 
L 138.561651 139.751861 
L 147.673756 116.985638 
L 156.78586 100.941833 
L 165.897965 95.128418 
L 175.010069 95.451875 
L 184.122174 98.582631 
L 193.234278 105.458726 
L 202.346382 116.712967 
L 211.458487 129.798401 
L 220.570591 141.865471 
L 229.682696 151.743843 
L 238.7948 159.748763 
L 247.906905 166.917279 
L 257.019009 173.49185 
L 266.131113 178.405552 
L 275.243218 181.318787 
L 284.355322 183.584987 
L 293.467427 186.221668 
L 302.579531 188.648857 
L 311.691636 189.372428 
L 320.80374 188.259611 
L 329.915845 186.617388 
L 339.027949 184.440856 
L 348.140053 180.439342 
L 357.252158 174.790759 
L 375.476367 163.091939 
L 384.588471 156.974349 
L 393.700576 151.793944 
L 402.81268 148.736584 
L 411.924784 147.11588 
L 421.036889 145.185562 
L 430.148993 141.636358 
L 439.261098 136.500888 
L 448.373202 130.177902 
L 457.485307 122.559009 
L 466.597411 112.82193 
L 475.709516 99.67381 
L 484.82162 83.333371 
L 493.933724 65.294949 
L 503.045829 45.199104 
L 512.157933 21.306779 
L 519.306687 -1 
L 519.306687 -1 
" clip-path="url(#p6a39008054)" style="fill: none; stroke: #e377c2; stroke-width: 1.5; stroke-linecap: square"/>
   </g>
   <g id="line2d_24">
    <path d="M -1 215.484918 
L 1.880085 215.01141 
L 10.992189 215.984764 
L 20.104294 218.811124 
L 29.216398 222.106566 
L 38.328502 225.012595 
L 47.440607 227.451812 
L 56.552711 228.814062 
L 65.664816 228.289547 
L 74.77692 226.281411 
L 83.889025 223.483319 
L 93.001129 218.843802 
L 102.113234 209.949872 
L 111.225338 196.207922 
L 120.337442 180.562249 
L 129.449547 164.605777 
L 138.561651 145.50468 
L 147.673756 123.860659 
L 156.78586 106.083016 
L 165.897965 95.270044 
L 175.010069 88.976881 
L 184.122174 86.630605 
L 193.234278 91.286726 
L 202.346382 103.462535 
L 211.458487 118.713821 
L 220.570591 132.732834 
L 229.682696 143.996324 
L 238.7948 152.798849 
L 247.906905 160.414017 
L 257.019009 167.558933 
L 266.131113 173.305813 
L 275.243218 177.04622 
L 284.355322 180.13665 
L 293.467427 183.752554 
L 302.579531 187.215907 
L 311.691636 188.903378 
L 320.80374 188.533169 
L 329.915845 187.360508 
L 339.027949 185.487807 
L 348.140053 181.752901 
L 357.252158 176.388575 
L 375.476367 165.22959 
L 384.588471 159.168296 
L 393.700576 153.449648 
L 402.81268 149.391371 
L 421.036889 144.196733 
L 430.148993 140.247119 
L 439.261098 135.094656 
L 448.373202 129.019899 
L 457.485307 121.657669 
L 466.597411 112.127465 
L 475.709516 99.277429 
L 484.82162 83.197907 
L 493.933724 65.109101 
L 503.045829 44.815395 
L 512.157933 20.990954 
L 519.264205 -1 
L 519.264205 -1 
" clip-path="url(#p6a39008054)" style="fill: none; stroke: #7f7f7f; stroke-width: 1.5; stroke-linecap: square"/>
   </g>
   <g id="line2d_25">
    <path d="M -1 214.238772 
L 1.880085 213.721177 
L 10.992189 213.990329 
L 29.216398 217.398852 
L 38.328502 218.757636 
L 56.552711 222.226462 
L 65.664816 222.251015 
L 74.77692 220.25599 
L 83.889025 217.153212 
L 93.001129 212.555851 
L 102.113234 204.086124 
L 111.225338 190.640616 
L 120.337442 175.348667 
L 129.449547 160.871354 
L 138.561651 144.313461 
L 156.78586 103.798682 
L 165.897965 86.712277 
L 175.010069 73.189399 
L 184.122174 64.912344 
L 193.234278 65.407141 
L 202.346382 75.108264 
L 220.570591 104.400117 
L 229.682696 116.692646 
L 238.7948 125.99668 
L 247.906905 133.781238 
L 257.019009 141.74645 
L 266.131113 149.035953 
L 275.243218 154.266827 
L 284.355322 158.547375 
L 293.467427 163.629009 
L 302.579531 169.064778 
L 311.691636 172.486763 
L 320.80374 172.872474 
L 329.915845 172.059285 
L 339.027949 171.542782 
L 348.140053 170.241711 
L 357.252158 167.177014 
L 366.364262 163.044815 
L 375.476367 158.638028 
L 393.700576 149.464171 
L 402.81268 145.212937 
L 411.924784 141.419641 
L 421.036889 138.198437 
L 430.148993 134.780585 
L 439.261098 130.200848 
L 448.373202 124.072242 
L 457.485307 116.621555 
L 466.597411 107.692477 
L 475.709516 95.670689 
L 484.82162 79.61502 
L 493.933724 60.906516 
L 503.045829 40.449846 
L 512.157933 17.116731 
L 518.059884 -1 
L 518.059884 -1 
" clip-path="url(#p6a39008054)" style="fill: none; stroke: #bcbd22; stroke-width: 1.5; stroke-linecap: square"/>
   </g>
   <g id="line2d_26">
    <path d="M -1 216.747915 
L 1.880085 216.211951 
L 10.992189 216.326659 
L 29.216398 219.434393 
L 38.328502 220.582782 
L 56.552711 223.600836 
L 65.664816 223.713232 
L 74.77692 221.704038 
L 83.889025 218.415746 
L 93.001129 213.725197 
L 102.113234 205.385664 
L 111.225338 192.20702 
L 120.337442 177.205185 
L 129.449547 163.100096 
L 138.561651 147.048828 
L 147.673756 127.172407 
L 156.78586 106.604924 
L 165.897965 88.257887 
L 175.010069 73.093116 
L 184.122174 63.633436 
L 193.234278 63.694353 
L 202.346382 73.497455 
L 220.570591 103.476142 
L 229.682696 116.125989 
L 238.7948 125.707905 
L 266.131113 148.936243 
L 275.243218 154.617878 
L 284.355322 159.094096 
L 293.467427 164.157026 
L 302.579531 169.720899 
L 311.691636 173.518511 
L 320.80374 174.318257 
L 339.027949 172.967579 
L 348.140053 171.674307 
L 357.252158 168.742754 
L 366.364262 164.675193 
L 375.476367 160.250698 
L 393.700576 151.109397 
L 402.81268 146.778706 
L 411.924784 142.614262 
L 421.036889 138.984226 
L 430.148993 135.559111 
L 439.261098 131.26305 
L 448.373202 125.283974 
L 457.485307 117.784226 
L 466.597411 108.863626 
L 475.709516 96.935717 
L 484.82162 80.958574 
L 493.933724 62.190163 
L 503.045829 41.576408 
L 512.157933 18.232731 
L 518.453764 -1 
L 518.453764 -1 
" clip-path="url(#p6a39008054)" style="fill: none; stroke: #17becf; stroke-width: 1.5; stroke-linecap: square"/>
   </g>
   <g id="line2d_27">
    <path d="M -1 223.520792 
L 1.880085 223.179588 
L 10.992189 222.278943 
L 20.104294 222.630499 
L 29.216398 223.663409 
L 38.328502 224.2184 
L 56.552711 224.675248 
L 65.664816 224.46721 
L 74.77692 222.967197 
L 83.889025 219.804433 
L 93.001129 214.592034 
L 102.113234 206.151114 
L 111.225338 194.000906 
L 120.337442 180.785202 
L 129.449547 168.702777 
L 138.561651 154.697867 
L 147.673756 136.331503 
L 156.78586 114.901433 
L 165.897965 91.620459 
L 175.010069 69.015951 
L 184.122174 53.675765 
L 193.234278 51.951192 
L 202.346382 62.979265 
L 211.458487 79.448653 
L 220.570591 95.619008 
L 229.682696 109.547332 
L 238.7948 120.526706 
L 247.906905 128.986513 
L 266.131113 144.135057 
L 275.243218 150.99136 
L 284.355322 156.973464 
L 302.579531 168.456984 
L 311.691636 173.115546 
L 320.80374 175.399223 
L 329.915845 175.571172 
L 339.027949 174.686363 
L 348.140053 173.21023 
L 357.252158 171.029654 
L 366.364262 167.968771 
L 375.476367 163.636956 
L 384.588471 158.320838 
L 393.700576 153.280803 
L 402.81268 148.693807 
L 411.924784 143.782475 
L 421.036889 138.647479 
L 430.148993 134.1656 
L 439.261098 130.278328 
L 448.373202 125.289593 
L 457.485307 117.925616 
L 466.597411 108.337166 
L 475.709516 96.425507 
L 484.82162 81.445957 
L 493.933724 63.172929 
L 503.045829 41.959812 
L 512.157933 18.139879 
L 518.567206 -1 
L 518.567206 -1 
" clip-path="url(#p6a39008054)" style="fill: none; stroke: #1f77b4; stroke-width: 1.5; stroke-linecap: square"/>
   </g>
   <g id="line2d_28">
    <path d="M -1 218.096608 
L 1.880085 217.903035 
L 10.992189 216.835491 
L 20.104294 216.513063 
L 29.216398 216.882957 
L 38.328502 216.980975 
L 56.552711 216.772145 
L 65.664816 216.268161 
L 74.77692 214.66469 
L 83.889025 211.536005 
L 93.001129 206.398749 
L 102.113234 198.152156 
L 111.225338 186.31867 
L 120.337442 173.774716 
L 129.449547 162.997231 
L 138.561651 150.477914 
L 147.673756 132.778201 
L 156.78586 110.366481 
L 175.010069 58.482221 
L 184.122174 40.249181 
L 193.234278 37.363308 
L 202.346382 48.901155 
L 211.458487 66.400526 
L 220.570591 83.405435 
L 229.682696 97.815241 
L 238.7948 109.076408 
L 247.906905 117.7818 
L 257.019009 125.626604 
L 266.131113 133.254694 
L 275.243218 140.434011 
L 284.355322 147.028719 
L 293.467427 153.200914 
L 302.579531 159.222336 
L 311.691636 164.270597 
L 320.80374 167.228287 
L 329.915845 168.034377 
L 339.027949 167.407746 
L 348.140053 165.766594 
L 357.252158 163.529849 
L 366.364262 160.74553 
L 375.476367 156.737132 
L 393.700576 146.001945 
L 402.81268 140.931501 
L 411.924784 135.570693 
L 421.036889 129.982198 
L 430.148993 125.114472 
L 439.261098 121.064334 
L 448.373202 116.228116 
L 457.485307 109.076525 
L 466.597411 99.632511 
L 475.709516 87.871466 
L 484.82162 73.070001 
L 493.933724 55.077715 
L 503.045829 33.868268 
L 512.157933 9.723466 
L 515.730564 -1 
L 515.730564 -1 
" clip-path="url(#p6a39008054)" style="fill: none; stroke: #ff7f0e; stroke-width: 1.5; stroke-linecap: square"/>
   </g>
   <g id="line2d_29">
    <path d="M -1 218.660716 
L 1.880085 218.486462 
L 10.992189 217.395342 
L 20.104294 217.036837 
L 29.216398 217.400986 
L 38.328502 217.441914 
L 56.552711 216.937065 
L 65.664816 216.379096 
L 74.77692 214.751127 
L 83.889025 211.567451 
L 93.001129 206.452656 
L 102.113234 198.253747 
L 111.225338 186.43421 
L 120.337442 174.066448 
L 129.449547 163.754024 
L 138.561651 151.771342 
L 147.673756 134.302827 
L 156.78586 111.562847 
L 175.010069 57.748952 
L 184.122174 38.891944 
L 193.234278 35.863739 
L 202.346382 47.434705 
L 211.458487 65.053618 
L 220.570591 82.16812 
L 229.682696 96.567839 
L 238.7948 107.902658 
L 247.906905 116.670429 
L 266.131113 132.450542 
L 275.243218 139.898847 
L 284.355322 146.675609 
L 302.579531 159.537904 
L 311.691636 164.817439 
L 320.80374 167.803915 
L 329.915845 168.637118 
L 339.027949 168.059167 
L 348.140053 166.476256 
L 357.252158 164.307792 
L 366.364262 161.517089 
L 375.476367 157.41254 
L 402.81268 141.559049 
L 421.036889 129.994376 
L 430.148993 125.089322 
L 439.261098 121.163485 
L 448.373202 116.386786 
L 457.485307 109.16703 
L 466.597411 99.751043 
L 475.709516 88.131048 
L 484.82162 73.321691 
L 493.933724 55.21905 
L 503.045829 34.040218 
L 512.157933 10.006414 
L 515.82886 -1 
L 515.82886 -1 
" clip-path="url(#p6a39008054)" style="fill: none; stroke: #2ca02c; stroke-width: 1.5; stroke-linecap: square"/>
   </g>
   <g id="line2d_30">
    <path d="M 139.604679 242.918125 
L 139.604679 22.318125 
" clip-path="url(#p6a39008054)" style="fill: none; stroke-dasharray: 3.7,1.6; stroke-dashoffset: 0; stroke: #808080"/>
   </g>
   <g id="line2d_31">
    <path d="M 168.933536 242.918125 
L 168.933536 22.318125 
" clip-path="url(#p6a39008054)" style="fill: none; stroke-dasharray: 3.7,1.6; stroke-dashoffset: 0; stroke: #808080"/>
   </g>
   <g id="line2d_32">
    <path d="M 178.709821 242.918125 
L 178.709821 22.318125 
" clip-path="url(#p6a39008054)" style="fill: none; stroke-dasharray: 3.7,1.6; stroke-dashoffset: 0; stroke: #808080"/>
   </g>
   <g id="line2d_33">
    <path d="M 227.59125 242.918125 
L 227.59125 22.318125 
" clip-path="url(#p6a39008054)" style="fill: none; stroke-dasharray: 3.7,1.6; stroke-dashoffset: 0; stroke: #808080"/>
   </g>
   <g id="patch_3">
    <path d="M 56.50625 242.918125 
L 56.50625 22.318125 
" style="fill: none; stroke: #000000; stroke-width: 0.8; stroke-linejoin: miter; stroke-linecap: square"/>
   </g>
   <g id="patch_4">
    <path d="M 398.67625 242.918125 
L 398.67625 22.318125 
" style="fill: none; stroke: #000000; stroke-width: 0.8; stroke-linejoin: miter; stroke-linecap: square"/>
   </g>
   <g id="patch_5">
    <path d="M 56.50625 242.918125 
L 398.67625 242.918125 
" style="fill: none; stroke: #000000; stroke-width: 0.8; stroke-linejoin: miter; stroke-linecap: square"/>
   </g>
   <g id="patch_6">
    <path d="M 56.50625 22.318125 
L 398.67625 22.318125 
" style="fill: none; stroke: #000000; stroke-width: 0.8; stroke-linejoin: miter; stroke-linecap: square"/>
   </g>
   <g id="text_19">
    <!-- In-situ IR spectra for C3_E4 -->
    <g transform="translate(146.053125 16.318125) scale(0.12 -0.12)">
     <defs>
      <path id="DejaVuSans-49" d="M 628 4666 
L 1259 4666 
L 1259 0 
L 628 0 
L 628 4666 
z
" transform="scale(0.015625)"/>
      <path id="DejaVuSans-2d" d="M 313 2009 
L 1997 2009 
L 1997 1497 
L 313 1497 
L 313 2009 
z
" transform="scale(0.015625)"/>
      <path id="DejaVuSans-69" d="M 603 3500 
L 1178 3500 
L 1178 0 
L 603 0 
L 603 3500 
z
M 603 4863 
L 1178 4863 
L 1178 4134 
L 603 4134 
L 603 4863 
z
" transform="scale(0.015625)"/>
      <path id="DejaVuSans-74" d="M 1172 4494 
L 1172 3500 
L 2356 3500 
L 2356 3053 
L 1172 3053 
L 1172 1153 
Q 1172 725 1289 603 
Q 1406 481 1766 481 
L 2356 481 
L 2356 0 
L 1766 0 
Q 1100 0 847 248 
Q 594 497 594 1153 
L 594 3053 
L 172 3053 
L 172 3500 
L 594 3500 
L 594 4494 
L 1172 4494 
z
" transform="scale(0.015625)"/>
      <path id="DejaVuSans-52" d="M 2841 2188 
Q 3044 2119 3236 1894 
Q 3428 1669 3622 1275 
L 4263 0 
L 3584 0 
L 2988 1197 
Q 2756 1666 2539 1819 
Q 2322 1972 1947 1972 
L 1259 1972 
L 1259 0 
L 628 0 
L 628 4666 
L 2053 4666 
Q 2853 4666 3247 4331 
Q 3641 3997 3641 3322 
Q 3641 2881 3436 2590 
Q 3231 2300 2841 2188 
z
M 1259 4147 
L 1259 2491 
L 2053 2491 
Q 2509 2491 2742 2702 
Q 2975 2913 2975 3322 
Q 2975 3731 2742 3939 
Q 2509 4147 2053 4147 
L 1259 4147 
z
" transform="scale(0.015625)"/>
      <path id="DejaVuSans-70" d="M 1159 525 
L 1159 -1331 
L 581 -1331 
L 581 3500 
L 1159 3500 
L 1159 2969 
Q 1341 3281 1617 3432 
Q 1894 3584 2278 3584 
Q 2916 3584 3314 3078 
Q 3713 2572 3713 1747 
Q 3713 922 3314 415 
Q 2916 -91 2278 -91 
Q 1894 -91 1617 61 
Q 1341 213 1159 525 
z
M 3116 1747 
Q 3116 2381 2855 2742 
Q 2594 3103 2138 3103 
Q 1681 3103 1420 2742 
Q 1159 2381 1159 1747 
Q 1159 1113 1420 752 
Q 1681 391 2138 391 
Q 2594 391 2855 752 
Q 3116 1113 3116 1747 
z
" transform="scale(0.015625)"/>
      <path id="DejaVuSans-66" d="M 2375 4863 
L 2375 4384 
L 1825 4384 
Q 1516 4384 1395 4259 
Q 1275 4134 1275 3809 
L 1275 3500 
L 2222 3500 
L 2222 3053 
L 1275 3053 
L 1275 0 
L 697 0 
L 697 3053 
L 147 3053 
L 147 3500 
L 697 3500 
L 697 3744 
Q 697 4328 969 4595 
Q 1241 4863 1831 4863 
L 2375 4863 
z
" transform="scale(0.015625)"/>
      <path id="DejaVuSans-43" d="M 4122 4306 
L 4122 3641 
Q 3803 3938 3442 4084 
Q 3081 4231 2675 4231 
Q 1875 4231 1450 3742 
Q 1025 3253 1025 2328 
Q 1025 1406 1450 917 
Q 1875 428 2675 428 
Q 3081 428 3442 575 
Q 3803 722 4122 1019 
L 4122 359 
Q 3791 134 3420 21 
Q 3050 -91 2638 -91 
Q 1578 -91 968 557 
Q 359 1206 359 2328 
Q 359 3453 968 4101 
Q 1578 4750 2638 4750 
Q 3056 4750 3426 4639 
Q 3797 4528 4122 4306 
z
" transform="scale(0.015625)"/>
      <path id="DejaVuSans-5f" d="M 3263 -1063 
L 3263 -1509 
L -63 -1509 
L -63 -1063 
L 3263 -1063 
z
" transform="scale(0.015625)"/>
      <path id="DejaVuSans-45" d="M 628 4666 
L 3578 4666 
L 3578 4134 
L 1259 4134 
L 1259 2753 
L 3481 2753 
L 3481 2222 
L 1259 2222 
L 1259 531 
L 3634 531 
L 3634 0 
L 628 0 
L 628 4666 
z
" transform="scale(0.015625)"/>
     </defs>
     <use xlink:href="#DejaVuSans-49"/>
     <use xlink:href="#DejaVuSans-6e" transform="translate(29.492188 0)"/>
     <use xlink:href="#DejaVuSans-2d" transform="translate(92.871094 0)"/>
     <use xlink:href="#DejaVuSans-73" transform="translate(128.955078 0)"/>
     <use xlink:href="#DejaVuSans-69" transform="translate(181.054688 0)"/>
     <use xlink:href="#DejaVuSans-74" transform="translate(208.837891 0)"/>
     <use xlink:href="#DejaVuSans-75" transform="translate(248.046875 0)"/>
     <use xlink:href="#DejaVuSans-20" transform="translate(311.425781 0)"/>
     <use xlink:href="#DejaVuSans-49" transform="translate(343.212891 0)"/>
     <use xlink:href="#DejaVuSans-52" transform="translate(372.705078 0)"/>
     <use xlink:href="#DejaVuSans-20" transform="translate(442.1875 0)"/>
     <use xlink:href="#DejaVuSans-73" transform="translate(473.974609 0)"/>
     <use xlink:href="#DejaVuSans-70" transform="translate(526.074219 0)"/>
     <use xlink:href="#DejaVuSans-65" transform="translate(589.550781 0)"/>
     <use xlink:href="#DejaVuSans-63" transform="translate(651.074219 0)"/>
     <use xlink:href="#DejaVuSans-74" transform="translate(706.054688 0)"/>
     <use xlink:href="#DejaVuSans-72" transform="translate(745.263672 0)"/>
     <use xlink:href="#DejaVuSans-61" transform="translate(786.376953 0)"/>
     <use xlink:href="#DejaVuSans-20" transform="translate(847.65625 0)"/>
     <use xlink:href="#DejaVuSans-66" transform="translate(879.443359 0)"/>
     <use xlink:href="#DejaVuSans-6f" transform="translate(914.648438 0)"/>
     <use xlink:href="#DejaVuSans-72" transform="translate(975.830078 0)"/>
     <use xlink:href="#DejaVuSans-20" transform="translate(1016.943359 0)"/>
     <use xlink:href="#DejaVuSans-43" transform="translate(1048.730469 0)"/>
     <use xlink:href="#DejaVuSans-33" transform="translate(1118.554688 0)"/>
     <use xlink:href="#DejaVuSans-5f" transform="translate(1182.177734 0)"/>
     <use xlink:href="#DejaVuSans-45" transform="translate(1232.177734 0)"/>
     <use xlink:href="#DejaVuSans-34" transform="translate(1295.361328 0)"/>
    </g>
   </g>
   <g id="legend_1">
    <g id="patch_7">
     <path d="M 405.67625 133.065 
L 559.209063 133.065 
Q 561.209063 133.065 561.209063 131.065 
L 561.209063 29.318125 
Q 561.209063 27.318125 559.209063 27.318125 
L 405.67625 27.318125 
Q 403.67625 27.318125 403.67625 29.318125 
L 403.67625 131.065 
Q 403.67625 133.065 405.67625 133.065 
z
" style="fill: #ffffff; opacity: 0.8; stroke: #cccccc; stroke-linejoin: miter"/>
    </g>
    <g id="line2d_34">
     <path d="M 407.67625 35.416562 
L 417.67625 35.416562 
L 427.67625 35.416562 
" style="fill: none; stroke: #1f77b4; stroke-width: 1.5; stroke-linecap: square"/>
    </g>
    <g id="text_20">
     <!-- -0.02 h -->
     <g transform="translate(435.67625 38.916562) scale(0.1 -0.1)">
      <defs>
       <path id="DejaVuSans-68" d="M 3513 2113 
L 3513 0 
L 2938 0 
L 2938 2094 
Q 2938 2591 2744 2837 
Q 2550 3084 2163 3084 
Q 1697 3084 1428 2787 
Q 1159 2491 1159 1978 
L 1159 0 
L 581 0 
L 581 4863 
L 1159 4863 
L 1159 2956 
Q 1366 3272 1645 3428 
Q 1925 3584 2291 3584 
Q 2894 3584 3203 3211 
Q 3513 2838 3513 2113 
z
" transform="scale(0.015625)"/>
      </defs>
      <use xlink:href="#DejaVuSans-2d"/>
      <use xlink:href="#DejaVuSans-30" transform="translate(36.083984 0)"/>
      <use xlink:href="#DejaVuSans-2e" transform="translate(99.707031 0)"/>
      <use xlink:href="#DejaVuSans-30" transform="translate(131.494141 0)"/>
      <use xlink:href="#DejaVuSans-32" transform="translate(195.117188 0)"/>
      <use xlink:href="#DejaVuSans-20" transform="translate(258.740234 0)"/>
      <use xlink:href="#DejaVuSans-68" transform="translate(290.527344 0)"/>
     </g>
    </g>
    <g id="line2d_35">
     <path d="M 407.67625 50.094688 
L 417.67625 50.094688 
L 427.67625 50.094688 
" style="fill: none; stroke: #ff7f0e; stroke-width: 1.5; stroke-linecap: square"/>
    </g>
    <g id="text_21">
     <!-- 0.05 h -->
     <g transform="translate(435.67625 53.594688) scale(0.1 -0.1)">
      <use xlink:href="#DejaVuSans-30"/>
      <use xlink:href="#DejaVuSans-2e" transform="translate(63.623047 0)"/>
      <use xlink:href="#DejaVuSans-30" transform="translate(95.410156 0)"/>
      <use xlink:href="#DejaVuSans-35" transform="translate(159.033203 0)"/>
      <use xlink:href="#DejaVuSans-20" transform="translate(222.65625 0)"/>
      <use xlink:href="#DejaVuSans-68" transform="translate(254.443359 0)"/>
     </g>
    </g>
    <g id="line2d_36">
     <path d="M 407.67625 64.772812 
L 417.67625 64.772812 
L 427.67625 64.772812 
" style="fill: none; stroke: #2ca02c; stroke-width: 1.5; stroke-linecap: square"/>
    </g>
    <g id="text_22">
     <!-- 0.62 h -->
     <g transform="translate(435.67625 68.272812) scale(0.1 -0.1)">
      <use xlink:href="#DejaVuSans-30"/>
      <use xlink:href="#DejaVuSans-2e" transform="translate(63.623047 0)"/>
      <use xlink:href="#DejaVuSans-36" transform="translate(95.410156 0)"/>
      <use xlink:href="#DejaVuSans-32" transform="translate(159.033203 0)"/>
      <use xlink:href="#DejaVuSans-20" transform="translate(222.65625 0)"/>
      <use xlink:href="#DejaVuSans-68" transform="translate(254.443359 0)"/>
     </g>
    </g>
    <g id="line2d_37">
     <path d="M 407.67625 79.450938 
L 417.67625 79.450938 
L 427.67625 79.450938 
" style="fill: none; stroke: #d62728; stroke-width: 1.5; stroke-linecap: square"/>
    </g>
    <g id="text_23">
     <!-- 1.19 h -->
     <g transform="translate(435.67625 82.950938) scale(0.1 -0.1)">
      <defs>
       <path id="DejaVuSans-39" d="M 703 97 
L 703 672 
Q 941 559 1184 500 
Q 1428 441 1663 441 
Q 2288 441 2617 861 
Q 2947 1281 2994 2138 
Q 2813 1869 2534 1725 
Q 2256 1581 1919 1581 
Q 1219 1581 811 2004 
Q 403 2428 403 3163 
Q 403 3881 828 4315 
Q 1253 4750 1959 4750 
Q 2769 4750 3195 4129 
Q 3622 3509 3622 2328 
Q 3622 1225 3098 567 
Q 2575 -91 1691 -91 
Q 1453 -91 1209 -44 
Q 966 3 703 97 
z
M 1959 2075 
Q 2384 2075 2632 2365 
Q 2881 2656 2881 3163 
Q 2881 3666 2632 3958 
Q 2384 4250 1959 4250 
Q 1534 4250 1286 3958 
Q 1038 3666 1038 3163 
Q 1038 2656 1286 2365 
Q 1534 2075 1959 2075 
z
" transform="scale(0.015625)"/>
      </defs>
      <use xlink:href="#DejaVuSans-31"/>
      <use xlink:href="#DejaVuSans-2e" transform="translate(63.623047 0)"/>
      <use xlink:href="#DejaVuSans-31" transform="translate(95.410156 0)"/>
      <use xlink:href="#DejaVuSans-39" transform="translate(159.033203 0)"/>
      <use xlink:href="#DejaVuSans-20" transform="translate(222.65625 0)"/>
      <use xlink:href="#DejaVuSans-68" transform="translate(254.443359 0)"/>
     </g>
    </g>
    <g id="line2d_38">
     <path d="M 407.67625 94.129063 
L 417.67625 94.129063 
L 427.67625 94.129063 
" style="fill: none; stroke: #9467bd; stroke-width: 1.5; stroke-linecap: square"/>
    </g>
    <g id="text_24">
     <!-- 2.44 h -->
     <g transform="translate(435.67625 97.629063) scale(0.1 -0.1)">
      <use xlink:href="#DejaVuSans-32"/>
      <use xlink:href="#DejaVuSans-2e" transform="translate(63.623047 0)"/>
      <use xlink:href="#DejaVuSans-34" transform="translate(95.410156 0)"/>
      <use xlink:href="#DejaVuSans-34" transform="translate(159.033203 0)"/>
      <use xlink:href="#DejaVuSans-20" transform="translate(222.65625 0)"/>
      <use xlink:href="#DejaVuSans-68" transform="translate(254.443359 0)"/>
     </g>
    </g>
    <g id="line2d_39">
     <path d="M 407.67625 108.807187 
L 417.67625 108.807187 
L 427.67625 108.807187 
" style="fill: none; stroke: #8c564b; stroke-width: 1.5; stroke-linecap: square"/>
    </g>
    <g id="text_25">
     <!-- 3.10 h -->
     <g transform="translate(435.67625 112.307187) scale(0.1 -0.1)">
      <use xlink:href="#DejaVuSans-33"/>
      <use xlink:href="#DejaVuSans-2e" transform="translate(63.623047 0)"/>
      <use xlink:href="#DejaVuSans-31" transform="translate(95.410156 0)"/>
      <use xlink:href="#DejaVuSans-30" transform="translate(159.033203 0)"/>
      <use xlink:href="#DejaVuSans-20" transform="translate(222.65625 0)"/>
      <use xlink:href="#DejaVuSans-68" transform="translate(254.443359 0)"/>
     </g>
    </g>
    <g id="line2d_40">
     <path d="M 407.67625 123.485312 
L 417.67625 123.485312 
L 427.67625 123.485312 
" style="fill: none; stroke: #e377c2; stroke-width: 1.5; stroke-linecap: square"/>
    </g>
    <g id="text_26">
     <!-- 3.86 h -->
     <g transform="translate(435.67625 126.985312) scale(0.1 -0.1)">
      <use xlink:href="#DejaVuSans-33"/>
      <use xlink:href="#DejaVuSans-2e" transform="translate(63.623047 0)"/>
      <use xlink:href="#DejaVuSans-38" transform="translate(95.410156 0)"/>
      <use xlink:href="#DejaVuSans-36" transform="translate(159.033203 0)"/>
      <use xlink:href="#DejaVuSans-20" transform="translate(222.65625 0)"/>
      <use xlink:href="#DejaVuSans-68" transform="translate(254.443359 0)"/>
     </g>
    </g>
    <g id="line2d_41">
     <path d="M 491.065313 35.416562 
L 501.065313 35.416562 
L 511.065313 35.416562 
" style="fill: none; stroke: #7f7f7f; stroke-width: 1.5; stroke-linecap: square"/>
    </g>
    <g id="text_27">
     <!-- 5.52 h -->
     <g transform="translate(519.065313 38.916562) scale(0.1 -0.1)">
      <use xlink:href="#DejaVuSans-35"/>
      <use xlink:href="#DejaVuSans-2e" transform="translate(63.623047 0)"/>
      <use xlink:href="#DejaVuSans-35" transform="translate(95.410156 0)"/>
      <use xlink:href="#DejaVuSans-32" transform="translate(159.033203 0)"/>
      <use xlink:href="#DejaVuSans-20" transform="translate(222.65625 0)"/>
      <use xlink:href="#DejaVuSans-68" transform="translate(254.443359 0)"/>
     </g>
    </g>
    <g id="line2d_42">
     <path d="M 491.065313 50.094687 
L 501.065313 50.094687 
L 511.065313 50.094687 
" style="fill: none; stroke: #bcbd22; stroke-width: 1.5; stroke-linecap: square"/>
    </g>
    <g id="text_28">
     <!-- 6.22 h -->
     <g transform="translate(519.065313 53.594687) scale(0.1 -0.1)">
      <use xlink:href="#DejaVuSans-36"/>
      <use xlink:href="#DejaVuSans-2e" transform="translate(63.623047 0)"/>
      <use xlink:href="#DejaVuSans-32" transform="translate(95.410156 0)"/>
      <use xlink:href="#DejaVuSans-32" transform="translate(159.033203 0)"/>
      <use xlink:href="#DejaVuSans-20" transform="translate(222.65625 0)"/>
      <use xlink:href="#DejaVuSans-68" transform="translate(254.443359 0)"/>
     </g>
    </g>
    <g id="line2d_43">
     <path d="M 491.065313 64.772812 
L 501.065313 64.772812 
L 511.065313 64.772812 
" style="fill: none; stroke: #17becf; stroke-width: 1.5; stroke-linecap: square"/>
    </g>
    <g id="text_29">
     <!-- 6.40 h -->
     <g transform="translate(519.065313 68.272812) scale(0.1 -0.1)">
      <use xlink:href="#DejaVuSans-36"/>
      <use xlink:href="#DejaVuSans-2e" transform="translate(63.623047 0)"/>
      <use xlink:href="#DejaVuSans-34" transform="translate(95.410156 0)"/>
      <use xlink:href="#DejaVuSans-30" transform="translate(159.033203 0)"/>
      <use xlink:href="#DejaVuSans-20" transform="translate(222.65625 0)"/>
      <use xlink:href="#DejaVuSans-68" transform="translate(254.443359 0)"/>
     </g>
    </g>
    <g id="line2d_44">
     <path d="M 491.065313 79.450938 
L 501.065313 79.450938 
L 511.065313 79.450938 
" style="fill: none; stroke: #1f77b4; stroke-width: 1.5; stroke-linecap: square"/>
    </g>
    <g id="text_30">
     <!-- 7.93 h -->
     <g transform="translate(519.065313 82.950938) scale(0.1 -0.1)">
      <use xlink:href="#DejaVuSans-37"/>
      <use xlink:href="#DejaVuSans-2e" transform="translate(63.623047 0)"/>
      <use xlink:href="#DejaVuSans-39" transform="translate(95.410156 0)"/>
      <use xlink:href="#DejaVuSans-33" transform="translate(159.033203 0)"/>
      <use xlink:href="#DejaVuSans-20" transform="translate(222.65625 0)"/>
      <use xlink:href="#DejaVuSans-68" transform="translate(254.443359 0)"/>
     </g>
    </g>
    <g id="line2d_45">
     <path d="M 491.065313 94.129063 
L 501.065313 94.129063 
L 511.065313 94.129063 
" style="fill: none; stroke: #ff7f0e; stroke-width: 1.5; stroke-linecap: square"/>
    </g>
    <g id="text_31">
     <!-- 11.00 h -->
     <g transform="translate(519.065313 97.629063) scale(0.1 -0.1)">
      <use xlink:href="#DejaVuSans-31"/>
      <use xlink:href="#DejaVuSans-31" transform="translate(63.623047 0)"/>
      <use xlink:href="#DejaVuSans-2e" transform="translate(127.246094 0)"/>
      <use xlink:href="#DejaVuSans-30" transform="translate(159.033203 0)"/>
      <use xlink:href="#DejaVuSans-30" transform="translate(222.65625 0)"/>
      <use xlink:href="#DejaVuSans-20" transform="translate(286.279297 0)"/>
      <use xlink:href="#DejaVuSans-68" transform="translate(318.066406 0)"/>
     </g>
    </g>
    <g id="line2d_46">
     <path d="M 491.065313 108.807187 
L 501.065313 108.807187 
L 511.065313 108.807187 
" style="fill: none; stroke: #2ca02c; stroke-width: 1.5; stroke-linecap: square"/>
    </g>
    <g id="text_32">
     <!-- 18.44 h -->
     <g transform="translate(519.065313 112.307187) scale(0.1 -0.1)">
      <use xlink:href="#DejaVuSans-31"/>
      <use xlink:href="#DejaVuSans-38" transform="translate(63.623047 0)"/>
      <use xlink:href="#DejaVuSans-2e" transform="translate(127.246094 0)"/>
      <use xlink:href="#DejaVuSans-34" transform="translate(159.033203 0)"/>
      <use xlink:href="#DejaVuSans-34" transform="translate(222.65625 0)"/>
      <use xlink:href="#DejaVuSans-20" transform="translate(286.279297 0)"/>
      <use xlink:href="#DejaVuSans-68" transform="translate(318.066406 0)"/>
     </g>
    </g>
   </g>
  </g>
 </g>
 <defs>
  <clipPath id="p6a39008054">
   <rect x="56.50625" y="22.318125" width="342.17" height="220.6"/>
  </clipPath>
 </defs>
</svg>
