<?xml version="1.0" encoding="utf-8" standalone="no"?>
<!DOCTYPE svg PUBLIC "-//W3C//DTD SVG 1.1//EN"
  "http://www.w3.org/Graphics/SVG/1.1/DTD/svg11.dtd">
<svg xmlns:xlink="http://www.w3.org/1999/xlink" width="568.32875pt" height="280.474375pt" viewBox="0 0 568.32875 280.474375" xmlns="http://www.w3.org/2000/svg" version="1.1">
 <metadata>
  <rdf:RDF xmlns:dc="http://purl.org/dc/elements/1.1/" xmlns:cc="http://creativecommons.org/ns#" xmlns:rdf="http://www.w3.org/1999/02/22-rdf-syntax-ns#">
   <cc:Work>
    <dc:type rdf:resource="http://purl.org/dc/dcmitype/StillImage"/>
    <dc:date>2026-01-13T16:26:22.697368</dc:date>
    <dc:format>image/svg+xml</dc:format>
    <dc:creator>
     <cc:Agent>
      <dc:title>Matplotlib v3.10.0, https://matplotlib.org/</dc:title>
     </cc:Agent>
    </dc:creator>
   </cc:Work>
  </rdf:RDF>
 </metadata>
 <defs>
  <style type="text/css">*{stroke-linejoin: round; stroke-linecap: butt}</style>
 </defs>
 <g id="figure_1">
  <g id="patch_1">
   <path d="M 0 280.474375 
L 568.32875 280.474375 
L 568.32875 0 
L 0 0 
z
" style="fill: #ffffff"/>
  </g>
  <g id="axes_1">
   <g id="patch_2">
    <path d="M 56.50625 242.918125 
L 377.16625 242.918125 
L 377.16625 22.318125 
L 56.50625 22.318125 
z
" style="fill: #ffffff"/>
   </g>
   <g id="matplotlib.axis_1">
    <g id="xtick_1">
     <g id="line2d_1">
      <defs>
       <path id="m7d0b77a9d2" d="M 0 0 
L 0 3.5 
" style="stroke: #000000; stroke-width: 0.8"/>
      </defs>
      <g>
       <use xlink:href="#m7d0b77a9d2" x="345.10025" y="242.918125" style="stroke: #000000; stroke-width: 0.8"/>
      </g>
     </g>
     <g id="text_1">
      <!-- 1460 -->
      <g transform="translate(332.37525 257.516563) scale(0.1 -0.1)">
       <defs>
        <path id="DejaVuSans-31" d="M 794 531 
L 1825 531 
L 1825 4091 
L 703 3866 
L 703 4441 
L 1819 4666 
L 2450 4666 
L 2450 531 
L 3481 531 
L 3481 0 
L 794 0 
L 794 531 
z
" transform="scale(0.015625)"/>
        <path id="DejaVuSans-34" d="M 2419 4116 
L 825 1625 
L 2419 1625 
L 2419 4116 
z
M 2253 4666 
L 3047 4666 
L 3047 1625 
L 3713 1625 
L 3713 1100 
L 3047 1100 
L 3047 0 
L 2419 0 
L 2419 1100 
L 313 1100 
L 313 1709 
L 2253 4666 
z
" transform="scale(0.015625)"/>
        <path id="DejaVuSans-36" d="M 2113 2584 
Q 1688 2584 1439 2293 
Q 1191 2003 1191 1497 
Q 1191 994 1439 701 
Q 1688 409 2113 409 
Q 2538 409 2786 701 
Q 3034 994 3034 1497 
Q 3034 2003 2786 2293 
Q 2538 2584 2113 2584 
z
M 3366 4563 
L 3366 3988 
Q 3128 4100 2886 4159 
Q 2644 4219 2406 4219 
Q 1781 4219 1451 3797 
Q 1122 3375 1075 2522 
Q 1259 2794 1537 2939 
Q 1816 3084 2150 3084 
Q 2853 3084 3261 2657 
Q 3669 2231 3669 1497 
Q 3669 778 3244 343 
Q 2819 -91 2113 -91 
Q 1303 -91 875 529 
Q 447 1150 447 2328 
Q 447 3434 972 4092 
Q 1497 4750 2381 4750 
Q 2619 4750 2861 4703 
Q 3103 4656 3366 4563 
z
" transform="scale(0.015625)"/>
        <path id="DejaVuSans-30" d="M 2034 4250 
Q 1547 4250 1301 3770 
Q 1056 3291 1056 2328 
Q 1056 1369 1301 889 
Q 1547 409 2034 409 
Q 2525 409 2770 889 
Q 3016 1369 3016 2328 
Q 3016 3291 2770 3770 
Q 2525 4250 2034 4250 
z
M 2034 4750 
Q 2819 4750 3233 4129 
Q 3647 3509 3647 2328 
Q 3647 1150 3233 529 
Q 2819 -91 2034 -91 
Q 1250 -91 836 529 
Q 422 1150 422 2328 
Q 422 3509 836 4129 
Q 1250 4750 2034 4750 
z
" transform="scale(0.015625)"/>
       </defs>
       <use xlink:href="#DejaVuSans-31"/>
       <use xlink:href="#DejaVuSans-34" transform="translate(63.623047 0)"/>
       <use xlink:href="#DejaVuSans-36" transform="translate(127.246094 0)"/>
       <use xlink:href="#DejaVuSans-30" transform="translate(190.869141 0)"/>
      </g>
     </g>
    </g>
    <g id="xtick_2">
     <g id="line2d_2">
      <g>
       <use xlink:href="#m7d0b77a9d2" x="280.96825" y="242.918125" style="stroke: #000000; stroke-width: 0.8"/>
      </g>
     </g>
     <g id="text_2">
      <!-- 1480 -->
      <g transform="translate(268.24325 257.516563) scale(0.1 -0.1)">
       <defs>
        <path id="DejaVuSans-38" d="M 2034 2216 
Q 1584 2216 1326 1975 
Q 1069 1734 1069 1313 
Q 1069 891 1326 650 
Q 1584 409 2034 409 
Q 2484 409 2743 651 
Q 3003 894 3003 1313 
Q 3003 1734 2745 1975 
Q 2488 2216 2034 2216 
z
M 1403 2484 
Q 997 2584 770 2862 
Q 544 3141 544 3541 
Q 544 4100 942 4425 
Q 1341 4750 2034 4750 
Q 2731 4750 3128 4425 
Q 3525 4100 3525 3541 
Q 3525 3141 3298 2862 
Q 3072 2584 2669 2484 
Q 3125 2378 3379 2068 
Q 3634 1759 3634 1313 
Q 3634 634 3220 271 
Q 2806 -91 2034 -91 
Q 1263 -91 848 271 
Q 434 634 434 1313 
Q 434 1759 690 2068 
Q 947 2378 1403 2484 
z
M 1172 3481 
Q 1172 3119 1398 2916 
Q 1625 2713 2034 2713 
Q 2441 2713 2670 2916 
Q 2900 3119 2900 3481 
Q 2900 3844 2670 4047 
Q 2441 4250 2034 4250 
Q 1625 4250 1398 4047 
Q 1172 3844 1172 3481 
z
" transform="scale(0.015625)"/>
       </defs>
       <use xlink:href="#DejaVuSans-31"/>
       <use xlink:href="#DejaVuSans-34" transform="translate(63.623047 0)"/>
       <use xlink:href="#DejaVuSans-38" transform="translate(127.246094 0)"/>
       <use xlink:href="#DejaVuSans-30" transform="translate(190.869141 0)"/>
      </g>
     </g>
    </g>
    <g id="xtick_3">
     <g id="line2d_3">
      <g>
       <use xlink:href="#m7d0b77a9d2" x="216.83625" y="242.918125" style="stroke: #000000; stroke-width: 0.8"/>
      </g>
     </g>
     <g id="text_3">
      <!-- 1500 -->
      <g transform="translate(204.11125 257.516563) scale(0.1 -0.1)">
       <defs>
        <path id="DejaVuSans-35" d="M 691 4666 
L 3169 4666 
L 3169 4134 
L 1269 4134 
L 1269 2991 
Q 1406 3038 1543 3061 
Q 1681 3084 1819 3084 
Q 2600 3084 3056 2656 
Q 3513 2228 3513 1497 
Q 3513 744 3044 326 
Q 2575 -91 1722 -91 
Q 1428 -91 1123 -41 
Q 819 9 494 109 
L 494 744 
Q 775 591 1075 516 
Q 1375 441 1709 441 
Q 2250 441 2565 725 
Q 2881 1009 2881 1497 
Q 2881 1984 2565 2268 
Q 2250 2553 1709 2553 
Q 1456 2553 1204 2497 
Q 953 2441 691 2322 
L 691 4666 
z
" transform="scale(0.015625)"/>
       </defs>
       <use xlink:href="#DejaVuSans-31"/>
       <use xlink:href="#DejaVuSans-35" transform="translate(63.623047 0)"/>
       <use xlink:href="#DejaVuSans-30" transform="translate(127.246094 0)"/>
       <use xlink:href="#DejaVuSans-30" transform="translate(190.869141 0)"/>
      </g>
     </g>
    </g>
    <g id="xtick_4">
     <g id="line2d_4">
      <g>
       <use xlink:href="#m7d0b77a9d2" x="152.70425" y="242.918125" style="stroke: #000000; stroke-width: 0.8"/>
      </g>
     </g>
     <g id="text_4">
      <!-- 1520 -->
      <g transform="translate(139.97925 257.516563) scale(0.1 -0.1)">
       <defs>
        <path id="DejaVuSans-32" d="M 1228 531 
L 3431 531 
L 3431 0 
L 469 0 
L 469 531 
Q 828 903 1448 1529 
Q 2069 2156 2228 2338 
Q 2531 2678 2651 2914 
Q 2772 3150 2772 3378 
Q 2772 3750 2511 3984 
Q 2250 4219 1831 4219 
Q 1534 4219 1204 4116 
Q 875 4013 500 3803 
L 500 4441 
Q 881 4594 1212 4672 
Q 1544 4750 1819 4750 
Q 2544 4750 2975 4387 
Q 3406 4025 3406 3419 
Q 3406 3131 3298 2873 
Q 3191 2616 2906 2266 
Q 2828 2175 2409 1742 
Q 1991 1309 1228 531 
z
" transform="scale(0.015625)"/>
       </defs>
       <use xlink:href="#DejaVuSans-31"/>
       <use xlink:href="#DejaVuSans-35" transform="translate(63.623047 0)"/>
       <use xlink:href="#DejaVuSans-32" transform="translate(127.246094 0)"/>
       <use xlink:href="#DejaVuSans-30" transform="translate(190.869141 0)"/>
      </g>
     </g>
    </g>
    <g id="xtick_5">
     <g id="line2d_5">
      <g>
       <use xlink:href="#m7d0b77a9d2" x="88.57225" y="242.918125" style="stroke: #000000; stroke-width: 0.8"/>
      </g>
     </g>
     <g id="text_5">
      <!-- 1540 -->
      <g transform="translate(75.84725 257.516563) scale(0.1 -0.1)">
       <use xlink:href="#DejaVuSans-31"/>
       <use xlink:href="#DejaVuSans-35" transform="translate(63.623047 0)"/>
       <use xlink:href="#DejaVuSans-34" transform="translate(127.246094 0)"/>
       <use xlink:href="#DejaVuSans-30" transform="translate(190.869141 0)"/>
      </g>
     </g>
    </g>
    <g id="text_6">
     <!-- Wavenumber (cm⁻¹) -->
     <g transform="translate(165.843281 271.194687) scale(0.1 -0.1)">
      <defs>
       <path id="DejaVuSans-57" d="M 213 4666 
L 850 4666 
L 1831 722 
L 2809 4666 
L 3519 4666 
L 4500 722 
L 5478 4666 
L 6119 4666 
L 4947 0 
L 4153 0 
L 3169 4050 
L 2175 0 
L 1381 0 
L 213 4666 
z
" transform="scale(0.015625)"/>
       <path id="DejaVuSans-61" d="M 2194 1759 
Q 1497 1759 1228 1600 
Q 959 1441 959 1056 
Q 959 750 1161 570 
Q 1363 391 1709 391 
Q 2188 391 2477 730 
Q 2766 1069 2766 1631 
L 2766 1759 
L 2194 1759 
z
M 3341 1997 
L 3341 0 
L 2766 0 
L 2766 531 
Q 2569 213 2275 61 
Q 1981 -91 1556 -91 
Q 1019 -91 701 211 
Q 384 513 384 1019 
Q 384 1609 779 1909 
Q 1175 2209 1959 2209 
L 2766 2209 
L 2766 2266 
Q 2766 2663 2505 2880 
Q 2244 3097 1772 3097 
Q 1472 3097 1187 3025 
Q 903 2953 641 2809 
L 641 3341 
Q 956 3463 1253 3523 
Q 1550 3584 1831 3584 
Q 2591 3584 2966 3190 
Q 3341 2797 3341 1997 
z
" transform="scale(0.015625)"/>
       <path id="DejaVuSans-76" d="M 191 3500 
L 800 3500 
L 1894 563 
L 2988 3500 
L 3597 3500 
L 2284 0 
L 1503 0 
L 191 3500 
z
" transform="scale(0.015625)"/>
       <path id="DejaVuSans-65" d="M 3597 1894 
L 3597 1613 
L 953 1613 
Q 991 1019 1311 708 
Q 1631 397 2203 397 
Q 2534 397 2845 478 
Q 3156 559 3463 722 
L 3463 178 
Q 3153 47 2828 -22 
Q 2503 -91 2169 -91 
Q 1331 -91 842 396 
Q 353 884 353 1716 
Q 353 2575 817 3079 
Q 1281 3584 2069 3584 
Q 2775 3584 3186 3129 
Q 3597 2675 3597 1894 
z
M 3022 2063 
Q 3016 2534 2758 2815 
Q 2500 3097 2075 3097 
Q 1594 3097 1305 2825 
Q 1016 2553 972 2059 
L 3022 2063 
z
" transform="scale(0.015625)"/>
       <path id="DejaVuSans-6e" d="M 3513 2113 
L 3513 0 
L 2938 0 
L 2938 2094 
Q 2938 2591 2744 2837 
Q 2550 3084 2163 3084 
Q 1697 3084 1428 2787 
Q 1159 2491 1159 1978 
L 1159 0 
L 581 0 
L 581 3500 
L 1159 3500 
L 1159 2956 
Q 1366 3272 1645 3428 
Q 1925 3584 2291 3584 
Q 2894 3584 3203 3211 
Q 3513 2838 3513 2113 
z
" transform="scale(0.015625)"/>
       <path id="DejaVuSans-75" d="M 544 1381 
L 544 3500 
L 1119 3500 
L 1119 1403 
Q 1119 906 1312 657 
Q 1506 409 1894 409 
Q 2359 409 2629 706 
Q 2900 1003 2900 1516 
L 2900 3500 
L 3475 3500 
L 3475 0 
L 2900 0 
L 2900 538 
Q 2691 219 2414 64 
Q 2138 -91 1772 -91 
Q 1169 -91 856 284 
Q 544 659 544 1381 
z
M 1991 3584 
L 1991 3584 
z
" transform="scale(0.015625)"/>
       <path id="DejaVuSans-6d" d="M 3328 2828 
Q 3544 3216 3844 3400 
Q 4144 3584 4550 3584 
Q 5097 3584 5394 3201 
Q 5691 2819 5691 2113 
L 5691 0 
L 5113 0 
L 5113 2094 
Q 5113 2597 4934 2840 
Q 4756 3084 4391 3084 
Q 3944 3084 3684 2787 
Q 3425 2491 3425 1978 
L 3425 0 
L 2847 0 
L 2847 2094 
Q 2847 2600 2669 2842 
Q 2491 3084 2119 3084 
Q 1678 3084 1418 2786 
Q 1159 2488 1159 1978 
L 1159 0 
L 581 0 
L 581 3500 
L 1159 3500 
L 1159 2956 
Q 1356 3278 1631 3431 
Q 1906 3584 2284 3584 
Q 2666 3584 2933 3390 
Q 3200 3197 3328 2828 
z
" transform="scale(0.015625)"/>
       <path id="DejaVuSans-62" d="M 3116 1747 
Q 3116 2381 2855 2742 
Q 2594 3103 2138 3103 
Q 1681 3103 1420 2742 
Q 1159 2381 1159 1747 
Q 1159 1113 1420 752 
Q 1681 391 2138 391 
Q 2594 391 2855 752 
Q 3116 1113 3116 1747 
z
M 1159 2969 
Q 1341 3281 1617 3432 
Q 1894 3584 2278 3584 
Q 2916 3584 3314 3078 
Q 3713 2572 3713 1747 
Q 3713 922 3314 415 
Q 2916 -91 2278 -91 
Q 1894 -91 1617 61 
Q 1341 213 1159 525 
L 1159 0 
L 581 0 
L 581 4863 
L 1159 4863 
L 1159 2969 
z
" transform="scale(0.015625)"/>
       <path id="DejaVuSans-72" d="M 2631 2963 
Q 2534 3019 2420 3045 
Q 2306 3072 2169 3072 
Q 1681 3072 1420 2755 
Q 1159 2438 1159 1844 
L 1159 0 
L 581 0 
L 581 3500 
L 1159 3500 
L 1159 2956 
Q 1341 3275 1631 3429 
Q 1922 3584 2338 3584 
Q 2397 3584 2469 3576 
Q 2541 3569 2628 3553 
L 2631 2963 
z
" transform="scale(0.015625)"/>
       <path id="DejaVuSans-20" transform="scale(0.015625)"/>
       <path id="DejaVuSans-28" d="M 1984 4856 
Q 1566 4138 1362 3434 
Q 1159 2731 1159 2009 
Q 1159 1288 1364 580 
Q 1569 -128 1984 -844 
L 1484 -844 
Q 1016 -109 783 600 
Q 550 1309 550 2009 
Q 550 2706 781 3412 
Q 1013 4119 1484 4856 
L 1984 4856 
z
" transform="scale(0.015625)"/>
       <path id="DejaVuSans-63" d="M 3122 3366 
L 3122 2828 
Q 2878 2963 2633 3030 
Q 2388 3097 2138 3097 
Q 1578 3097 1268 2742 
Q 959 2388 959 1747 
Q 959 1106 1268 751 
Q 1578 397 2138 397 
Q 2388 397 2633 464 
Q 2878 531 3122 666 
L 3122 134 
Q 2881 22 2623 -34 
Q 2366 -91 2075 -91 
Q 1284 -91 818 406 
Q 353 903 353 1747 
Q 353 2603 823 3093 
Q 1294 3584 2113 3584 
Q 2378 3584 2631 3529 
Q 2884 3475 3122 3366 
z
" transform="scale(0.015625)"/>
       <path id="DejaVuSans-207b" d="M 428 3359 
L 2950 3359 
L 2950 3063 
L 428 3063 
L 428 3359 
z
" transform="scale(0.015625)"/>
       <path id="DejaVuSans-b9" d="M 488 2431 
L 1125 2431 
L 1125 4341 
L 428 4213 
L 428 4575 
L 1147 4697 
L 1575 4697 
L 1575 2431 
L 2216 2431 
L 2216 2088 
L 488 2088 
L 488 2431 
z
" transform="scale(0.015625)"/>
       <path id="DejaVuSans-29" d="M 513 4856 
L 1013 4856 
Q 1481 4119 1714 3412 
Q 1947 2706 1947 2009 
Q 1947 1309 1714 600 
Q 1481 -109 1013 -844 
L 513 -844 
Q 928 -128 1133 580 
Q 1338 1288 1338 2009 
Q 1338 2731 1133 3434 
Q 928 4138 513 4856 
z
" transform="scale(0.015625)"/>
      </defs>
      <use xlink:href="#DejaVuSans-57"/>
      <use xlink:href="#DejaVuSans-61" transform="translate(92.501953 0)"/>
      <use xlink:href="#DejaVuSans-76" transform="translate(153.78125 0)"/>
      <use xlink:href="#DejaVuSans-65" transform="translate(212.960938 0)"/>
      <use xlink:href="#DejaVuSans-6e" transform="translate(274.484375 0)"/>
      <use xlink:href="#DejaVuSans-75" transform="translate(337.863281 0)"/>
      <use xlink:href="#DejaVuSans-6d" transform="translate(401.242188 0)"/>
      <use xlink:href="#DejaVuSans-62" transform="translate(498.654297 0)"/>
      <use xlink:href="#DejaVuSans-65" transform="translate(562.130859 0)"/>
      <use xlink:href="#DejaVuSans-72" transform="translate(623.654297 0)"/>
      <use xlink:href="#DejaVuSans-20" transform="translate(664.767578 0)"/>
      <use xlink:href="#DejaVuSans-28" transform="translate(696.554688 0)"/>
      <use xlink:href="#DejaVuSans-63" transform="translate(735.568359 0)"/>
      <use xlink:href="#DejaVuSans-6d" transform="translate(790.548828 0)"/>
      <use xlink:href="#DejaVuSans-207b" transform="translate(887.960938 0)"/>
      <use xlink:href="#DejaVuSans-b9" transform="translate(940.744141 0)"/>
      <use xlink:href="#DejaVuSans-29" transform="translate(980.832031 0)"/>
     </g>
    </g>
   </g>
   <g id="matplotlib.axis_2">
    <g id="ytick_1">
     <g id="line2d_6">
      <defs>
       <path id="m9de3f392fa" d="M 0 0 
L -3.5 0 
" style="stroke: #000000; stroke-width: 0.8"/>
      </defs>
      <g>
       <use xlink:href="#m9de3f392fa" x="56.50625" y="232.959496" style="stroke: #000000; stroke-width: 0.8"/>
      </g>
     </g>
     <g id="text_7">
      <!-- 0.050 -->
      <g transform="translate(20.878125 236.758715) scale(0.1 -0.1)">
       <defs>
        <path id="DejaVuSans-2e" d="M 684 794 
L 1344 794 
L 1344 0 
L 684 0 
L 684 794 
z
" transform="scale(0.015625)"/>
       </defs>
       <use xlink:href="#DejaVuSans-30"/>
       <use xlink:href="#DejaVuSans-2e" transform="translate(63.623047 0)"/>
       <use xlink:href="#DejaVuSans-30" transform="translate(95.410156 0)"/>
       <use xlink:href="#DejaVuSans-35" transform="translate(159.033203 0)"/>
       <use xlink:href="#DejaVuSans-30" transform="translate(222.65625 0)"/>
      </g>
     </g>
    </g>
    <g id="ytick_2">
     <g id="line2d_7">
      <g>
       <use xlink:href="#m9de3f392fa" x="56.50625" y="202.626885" style="stroke: #000000; stroke-width: 0.8"/>
      </g>
     </g>
     <g id="text_8">
      <!-- 0.075 -->
      <g transform="translate(20.878125 206.426104) scale(0.1 -0.1)">
       <defs>
        <path id="DejaVuSans-37" d="M 525 4666 
L 3525 4666 
L 3525 4397 
L 1831 0 
L 1172 0 
L 2766 4134 
L 525 4134 
L 525 4666 
z
" transform="scale(0.015625)"/>
       </defs>
       <use xlink:href="#DejaVuSans-30"/>
       <use xlink:href="#DejaVuSans-2e" transform="translate(63.623047 0)"/>
       <use xlink:href="#DejaVuSans-30" transform="translate(95.410156 0)"/>
       <use xlink:href="#DejaVuSans-37" transform="translate(159.033203 0)"/>
       <use xlink:href="#DejaVuSans-35" transform="translate(222.65625 0)"/>
      </g>
     </g>
    </g>
    <g id="ytick_3">
     <g id="line2d_8">
      <g>
       <use xlink:href="#m9de3f392fa" x="56.50625" y="172.294274" style="stroke: #000000; stroke-width: 0.8"/>
      </g>
     </g>
     <g id="text_9">
      <!-- 0.100 -->
      <g transform="translate(20.878125 176.093493) scale(0.1 -0.1)">
       <use xlink:href="#DejaVuSans-30"/>
       <use xlink:href="#DejaVuSans-2e" transform="translate(63.623047 0)"/>
       <use xlink:href="#DejaVuSans-31" transform="translate(95.410156 0)"/>
       <use xlink:href="#DejaVuSans-30" transform="translate(159.033203 0)"/>
       <use xlink:href="#DejaVuSans-30" transform="translate(222.65625 0)"/>
      </g>
     </g>
    </g>
    <g id="ytick_4">
     <g id="line2d_9">
      <g>
       <use xlink:href="#m9de3f392fa" x="56.50625" y="141.961663" style="stroke: #000000; stroke-width: 0.8"/>
      </g>
     </g>
     <g id="text_10">
      <!-- 0.125 -->
      <g transform="translate(20.878125 145.760881) scale(0.1 -0.1)">
       <use xlink:href="#DejaVuSans-30"/>
       <use xlink:href="#DejaVuSans-2e" transform="translate(63.623047 0)"/>
       <use xlink:href="#DejaVuSans-31" transform="translate(95.410156 0)"/>
       <use xlink:href="#DejaVuSans-32" transform="translate(159.033203 0)"/>
       <use xlink:href="#DejaVuSans-35" transform="translate(222.65625 0)"/>
      </g>
     </g>
    </g>
    <g id="ytick_5">
     <g id="line2d_10">
      <g>
       <use xlink:href="#m9de3f392fa" x="56.50625" y="111.629051" style="stroke: #000000; stroke-width: 0.8"/>
      </g>
     </g>
     <g id="text_11">
      <!-- 0.150 -->
      <g transform="translate(20.878125 115.42827) scale(0.1 -0.1)">
       <use xlink:href="#DejaVuSans-30"/>
       <use xlink:href="#DejaVuSans-2e" transform="translate(63.623047 0)"/>
       <use xlink:href="#DejaVuSans-31" transform="translate(95.410156 0)"/>
       <use xlink:href="#DejaVuSans-35" transform="translate(159.033203 0)"/>
       <use xlink:href="#DejaVuSans-30" transform="translate(222.65625 0)"/>
      </g>
     </g>
    </g>
    <g id="ytick_6">
     <g id="line2d_11">
      <g>
       <use xlink:href="#m9de3f392fa" x="56.50625" y="81.29644" style="stroke: #000000; stroke-width: 0.8"/>
      </g>
     </g>
     <g id="text_12">
      <!-- 0.175 -->
      <g transform="translate(20.878125 85.095659) scale(0.1 -0.1)">
       <use xlink:href="#DejaVuSans-30"/>
       <use xlink:href="#DejaVuSans-2e" transform="translate(63.623047 0)"/>
       <use xlink:href="#DejaVuSans-31" transform="translate(95.410156 0)"/>
       <use xlink:href="#DejaVuSans-37" transform="translate(159.033203 0)"/>
       <use xlink:href="#DejaVuSans-35" transform="translate(222.65625 0)"/>
      </g>
     </g>
    </g>
    <g id="ytick_7">
     <g id="line2d_12">
      <g>
       <use xlink:href="#m9de3f392fa" x="56.50625" y="50.963829" style="stroke: #000000; stroke-width: 0.8"/>
      </g>
     </g>
     <g id="text_13">
      <!-- 0.200 -->
      <g transform="translate(20.878125 54.763048) scale(0.1 -0.1)">
       <use xlink:href="#DejaVuSans-30"/>
       <use xlink:href="#DejaVuSans-2e" transform="translate(63.623047 0)"/>
       <use xlink:href="#DejaVuSans-32" transform="translate(95.410156 0)"/>
       <use xlink:href="#DejaVuSans-30" transform="translate(159.033203 0)"/>
       <use xlink:href="#DejaVuSans-30" transform="translate(222.65625 0)"/>
      </g>
     </g>
    </g>
    <g id="text_14">
     <!-- Absorbance -->
     <g transform="translate(14.798438 162.165) rotate(-90) scale(0.1 -0.1)">
      <defs>
       <path id="DejaVuSans-41" d="M 2188 4044 
L 1331 1722 
L 3047 1722 
L 2188 4044 
z
M 1831 4666 
L 2547 4666 
L 4325 0 
L 3669 0 
L 3244 1197 
L 1141 1197 
L 716 0 
L 50 0 
L 1831 4666 
z
" transform="scale(0.015625)"/>
       <path id="DejaVuSans-73" d="M 2834 3397 
L 2834 2853 
Q 2591 2978 2328 3040 
Q 2066 3103 1784 3103 
Q 1356 3103 1142 2972 
Q 928 2841 928 2578 
Q 928 2378 1081 2264 
Q 1234 2150 1697 2047 
L 1894 2003 
Q 2506 1872 2764 1633 
Q 3022 1394 3022 966 
Q 3022 478 2636 193 
Q 2250 -91 1575 -91 
Q 1294 -91 989 -36 
Q 684 19 347 128 
L 347 722 
Q 666 556 975 473 
Q 1284 391 1588 391 
Q 1994 391 2212 530 
Q 2431 669 2431 922 
Q 2431 1156 2273 1281 
Q 2116 1406 1581 1522 
L 1381 1569 
Q 847 1681 609 1914 
Q 372 2147 372 2553 
Q 372 3047 722 3315 
Q 1072 3584 1716 3584 
Q 2034 3584 2315 3537 
Q 2597 3491 2834 3397 
z
" transform="scale(0.015625)"/>
       <path id="DejaVuSans-6f" d="M 1959 3097 
Q 1497 3097 1228 2736 
Q 959 2375 959 1747 
Q 959 1119 1226 758 
Q 1494 397 1959 397 
Q 2419 397 2687 759 
Q 2956 1122 2956 1747 
Q 2956 2369 2687 2733 
Q 2419 3097 1959 3097 
z
M 1959 3584 
Q 2709 3584 3137 3096 
Q 3566 2609 3566 1747 
Q 3566 888 3137 398 
Q 2709 -91 1959 -91 
Q 1206 -91 779 398 
Q 353 888 353 1747 
Q 353 2609 779 3096 
Q 1206 3584 1959 3584 
z
" transform="scale(0.015625)"/>
      </defs>
      <use xlink:href="#DejaVuSans-41"/>
      <use xlink:href="#DejaVuSans-62" transform="translate(68.408203 0)"/>
      <use xlink:href="#DejaVuSans-73" transform="translate(131.884766 0)"/>
      <use xlink:href="#DejaVuSans-6f" transform="translate(183.984375 0)"/>
      <use xlink:href="#DejaVuSans-72" transform="translate(245.166016 0)"/>
      <use xlink:href="#DejaVuSans-62" transform="translate(286.279297 0)"/>
      <use xlink:href="#DejaVuSans-61" transform="translate(349.755859 0)"/>
      <use xlink:href="#DejaVuSans-6e" transform="translate(411.035156 0)"/>
      <use xlink:href="#DejaVuSans-63" transform="translate(474.414062 0)"/>
      <use xlink:href="#DejaVuSans-65" transform="translate(529.394531 0)"/>
     </g>
    </g>
   </g>
   <g id="line2d_13">
    <path d="M -1 223.237572 
L -0.341279 223.112758 
L 5.636221 225.081705 
L 11.613721 231.223075 
L 17.591221 236.123 
L 23.568721 232.482604 
L 29.546222 230.555206 
L 35.523722 231.161409 
L 41.501222 227.808614 
L 47.478722 223.905069 
L 53.456222 213.455443 
L 59.433722 200.429922 
L 65.411222 184.947192 
L 71.388722 163.844613 
L 77.366222 140.927148 
L 83.343722 117.108142 
L 89.321222 105.295871 
L 95.298722 115.187464 
L 101.276222 130.22366 
L 107.253722 149.564944 
L 113.231222 172.857954 
L 119.208722 190.897985 
L 125.186222 205.186631 
L 131.163722 215.364061 
L 137.141222 223.205735 
L 149.096222 230.113958 
L 155.073722 232.890852 
L 161.051222 231.217604 
L 167.028722 231.310544 
L 173.006222 230.78537 
L 184.961222 231.370336 
L 190.938722 226.781289 
L 196.916222 222.718966 
L 202.893723 222.340336 
L 208.871223 219.562125 
L 214.848723 214.465501 
L 220.826223 206.616566 
L 232.781223 183.947716 
L 238.758723 172.610155 
L 244.736223 157.250696 
L 250.713723 136.782845 
L 256.691223 111.949153 
L 262.668723 92.906274 
L 268.646223 92.229817 
L 274.623723 110.047181 
L 280.601223 136.057051 
L 286.578723 157.638237 
L 292.556223 175.065247 
L 298.533723 186.133822 
L 304.511223 192.532181 
L 310.488723 194.91 
L 316.466223 193.588661 
L 322.443723 191.088786 
L 328.421223 187.816917 
L 334.398723 184.381173 
L 340.376223 178.374456 
L 346.353723 169.619443 
L 352.331223 155.967335 
L 358.308723 144.635595 
L 364.286223 131.965099 
L 370.263723 113.700129 
L 376.241224 91.206441 
L 382.218724 58.626197 
L 388.196224 15.414958 
L 389.955507 -1 
M 563.902503 -1 
L 567.521225 9.485508 
L 569.32875 14.358898 
L 569.32875 14.358898 
" clip-path="url(#p27b16f0f59)" style="fill: none; stroke: #1f77b4; stroke-width: 1.5; stroke-linecap: square"/>
   </g>
   <g id="line2d_14">
    <path d="M -1 222.101597 
L -0.341279 221.975534 
L 5.636221 223.2176 
L 11.613721 229.777309 
L 17.591221 236.061669 
L 23.568721 232.321947 
L 29.546222 228.364937 
L 35.523722 228.719209 
L 41.501222 225.870886 
L 47.478722 222.38688 
L 53.456222 211.866918 
L 59.433722 198.996357 
L 65.411222 184.430894 
L 71.388722 163.822301 
L 77.366222 141.244387 
L 83.343722 117.108285 
L 89.321222 105.743648 
L 95.298722 115.652516 
L 101.276222 130.369435 
L 107.253722 148.54766 
L 113.231222 171.569349 
L 119.208722 189.285983 
L 125.186222 203.03546 
L 131.163722 212.538554 
L 137.141222 220.469291 
L 143.118722 224.33159 
L 149.096222 227.626773 
L 155.073722 230.3006 
L 161.051222 228.609141 
L 167.028722 229.486601 
L 173.006222 229.108734 
L 184.961222 229.662695 
L 190.938722 225.090585 
L 196.916222 219.902999 
L 202.893723 219.190362 
L 208.871223 216.359595 
L 214.848723 212.093872 
L 220.826223 205.45898 
L 226.803723 194.312854 
L 232.781223 182.615985 
L 238.758723 171.668167 
L 244.736223 157.43074 
L 250.713723 137.310768 
L 256.691223 111.965037 
L 262.668723 92.708454 
L 268.646223 92.514196 
L 274.623723 109.830394 
L 280.601223 134.777722 
L 286.578723 155.252645 
L 292.556223 172.618607 
L 298.533723 183.472236 
L 304.511223 189.14578 
L 310.488723 190.859219 
L 316.466223 189.87387 
L 322.443723 187.821836 
L 328.421223 184.400569 
L 334.398723 180.721168 
L 340.376223 175.099366 
L 346.353723 166.756989 
L 352.331223 152.278754 
L 364.286223 127.700934 
L 370.263723 110.577483 
L 376.241224 88.44557 
L 382.218724 55.684188 
L 388.196224 13.1652 
L 389.76495 -1 
M 564.865716 -1 
L 569.32875 11.469354 
L 569.32875 11.469354 
" clip-path="url(#p27b16f0f59)" style="fill: none; stroke: #ff7f0e; stroke-width: 1.5; stroke-linecap: square"/>
   </g>
   <g id="line2d_15">
    <path d="M -1 221.601716 
L -0.341279 221.454959 
L 5.636221 223.599554 
L 11.613721 230.770714 
L 17.591221 236.650099 
L 23.568721 231.787512 
L 29.546222 228.25423 
L 35.523722 228.909346 
L 41.501222 225.390446 
L 47.478722 221.214917 
L 53.456222 210.511587 
L 59.433722 197.757148 
L 65.411222 182.690994 
L 71.388722 161.517192 
L 83.343722 116.612593 
L 89.321222 105.459151 
L 95.298722 114.775684 
L 101.276222 129.328628 
L 107.253722 147.651137 
L 113.231222 170.166853 
L 119.208722 187.339231 
L 125.186222 200.685584 
L 131.163722 210.404743 
L 137.141222 219.070506 
L 143.118722 222.961071 
L 155.073722 228.226157 
L 161.051222 227.009985 
L 167.028722 227.972148 
L 173.006222 227.437324 
L 178.983722 227.645501 
L 184.961222 228.373664 
L 190.938722 224.071178 
L 196.916222 219.055373 
L 202.893723 217.918084 
L 208.871223 215.113216 
L 214.848723 211.253109 
L 220.826223 204.76825 
L 226.803723 193.372859 
L 232.781223 182.327669 
L 238.758723 172.335671 
L 244.736223 158.40085 
L 250.713723 138.013313 
L 256.691223 112.983185 
L 262.668723 94.462895 
L 268.646223 94.055837 
L 274.623723 110.680287 
L 280.601223 135.396227 
L 286.578723 156.206856 
L 292.556223 173.363112 
L 298.533723 183.958552 
L 304.511223 189.36387 
L 310.488723 191.334233 
L 316.466223 190.426125 
L 322.443723 188.159288 
L 328.421223 184.332135 
L 334.398723 180.755177 
L 340.376223 175.392997 
L 346.353723 167.206301 
L 352.331223 152.922377 
L 364.286223 128.496269 
L 370.263723 111.159666 
L 376.241224 89.021076 
L 382.218724 56.702092 
L 388.196224 14.476051 
L 389.875688 -1 
M 564.966906 -1 
L 569.32875 11.33269 
L 569.32875 11.33269 
" clip-path="url(#p27b16f0f59)" style="fill: none; stroke: #2ca02c; stroke-width: 1.5; stroke-linecap: square"/>
   </g>
   <g id="line2d_16">
    <path d="M -1 222.383177 
L -0.341279 222.214049 
L 5.636221 223.74199 
L 11.613721 230.241412 
L 17.591221 236.072075 
L 23.568721 232.936753 
L 29.546222 230.667449 
L 35.523722 230.669182 
L 41.501222 226.910027 
L 47.478722 222.43033 
L 53.456222 211.549392 
L 59.433722 198.750949 
L 65.411222 183.692248 
L 71.388722 162.562779 
L 83.343722 117.538439 
L 89.321222 107.354434 
L 95.298722 116.880797 
L 101.276222 130.748956 
L 107.253722 148.853009 
L 113.231222 170.947598 
L 119.208722 187.584988 
L 125.186222 200.467829 
L 131.163722 209.936265 
L 137.141222 217.947914 
L 143.118722 221.592844 
L 149.096222 225.068781 
L 155.073722 228.242086 
L 161.051222 227.096234 
L 167.028722 227.636315 
L 173.006222 226.768355 
L 178.983722 226.686871 
L 184.961222 227.095157 
L 190.938722 222.969025 
L 196.916222 218.057353 
L 202.893723 216.433253 
L 208.871223 213.514776 
L 214.848723 209.768171 
L 220.826223 203.721575 
L 238.758723 171.858089 
L 244.736223 158.11831 
L 250.713723 138.616043 
L 256.691223 114.213198 
L 262.668723 95.900009 
L 268.646223 95.553335 
L 274.623723 111.977796 
L 280.601223 135.851854 
L 286.578723 155.827675 
L 292.556223 172.423539 
L 298.533723 182.790467 
L 304.511223 188.416546 
L 310.488723 190.619941 
L 316.466223 189.555974 
L 322.443723 187.274332 
L 334.398723 179.803585 
L 340.376223 174.282467 
L 346.353723 166.189203 
L 352.331223 152.535231 
L 358.308723 140.996175 
L 364.286223 128.639017 
L 370.263723 110.863473 
L 376.241224 88.081495 
L 382.218724 55.172909 
L 388.196224 12.503978 
L 389.664559 -1 
M 564.948247 -1 
L 569.32875 11.566666 
L 569.32875 11.566666 
" clip-path="url(#p27b16f0f59)" style="fill: none; stroke: #d62728; stroke-width: 1.5; stroke-linecap: square"/>
   </g>
   <g id="line2d_17">
    <path d="M -1 220.775075 
L -0.341279 220.632605 
L 5.636221 222.131127 
L 11.613721 228.340484 
L 17.591221 234.185638 
L 23.568721 231.348935 
L 29.546222 228.1338 
L 35.523722 226.900653 
L 47.478722 219.236739 
L 53.456222 208.763531 
L 59.433722 195.181032 
L 65.411222 179.710657 
L 71.388722 159.568884 
L 83.343722 117.348979 
L 89.321222 106.215042 
L 95.298722 114.833601 
L 101.276222 129.049043 
L 107.253722 146.66095 
L 113.231222 167.067894 
L 119.208722 182.837035 
L 125.186222 195.743998 
L 131.163722 205.184717 
L 137.141222 212.913233 
L 143.118722 216.599595 
L 155.073722 223.224992 
L 161.051222 222.559887 
L 167.028722 223.237529 
L 173.006222 222.516844 
L 184.961222 222.954115 
L 190.938722 218.553015 
L 196.916222 213.402727 
L 202.893723 211.635468 
L 208.871223 208.907786 
L 214.848723 205.559188 
L 220.826223 200.393552 
L 226.803723 190.791905 
L 232.781223 180.661134 
L 238.758723 170.811694 
L 244.736223 157.852983 
L 250.713723 139.260053 
L 256.691223 115.703899 
L 262.668723 97.577347 
L 268.646223 96.658808 
L 274.623723 112.461838 
L 280.601223 135.727182 
L 286.578723 154.771776 
L 292.556223 170.065149 
L 298.533723 179.975829 
L 304.511223 186.031582 
L 310.488723 188.307824 
L 316.466223 186.901064 
L 322.443723 184.482985 
L 334.398723 177.830809 
L 340.376223 172.294196 
L 346.353723 164.368087 
L 352.331223 150.91007 
L 358.308723 138.938616 
L 364.286223 126.141599 
L 370.263723 108.454613 
L 376.241224 86.152935 
L 382.218724 53.895585 
L 388.196224 11.426602 
L 389.530314 -1 
M 566.454667 -1 
L 569.32875 7.065767 
L 569.32875 7.065767 
" clip-path="url(#p27b16f0f59)" style="fill: none; stroke: #9467bd; stroke-width: 1.5; stroke-linecap: square"/>
   </g>
   <g id="line2d_18">
    <path d="M -1 220.775075 
L -0.341279 220.632605 
L 5.636221 222.131127 
L 11.613721 228.340484 
L 17.591221 234.185638 
L 23.568721 231.348935 
L 29.546222 228.1338 
L 35.523722 226.900653 
L 47.478722 219.236739 
L 53.456222 208.763531 
L 59.433722 195.181032 
L 65.411222 179.710657 
L 71.388722 159.568884 
L 83.343722 117.348979 
L 89.321222 106.215042 
L 95.298722 114.833601 
L 101.276222 129.049043 
L 107.253722 146.66095 
L 113.231222 167.067894 
L 119.208722 182.837035 
L 125.186222 195.743998 
L 131.163722 205.184717 
L 137.141222 212.913233 
L 143.118722 216.599595 
L 155.073722 223.224992 
L 161.051222 222.559887 
L 167.028722 223.237529 
L 173.006222 222.516844 
L 184.961222 222.954115 
L 190.938722 218.553015 
L 196.916222 213.402727 
L 202.893723 211.635468 
L 208.871223 208.907786 
L 214.848723 205.559188 
L 220.826223 200.393552 
L 226.803723 190.791905 
L 232.781223 180.661134 
L 238.758723 170.811694 
L 244.736223 157.852983 
L 250.713723 139.260053 
L 256.691223 115.703899 
L 262.668723 97.577347 
L 268.646223 96.658808 
L 274.623723 112.461838 
L 280.601223 135.727182 
L 286.578723 154.771776 
L 292.556223 170.065149 
L 298.533723 179.975829 
L 304.511223 186.031582 
L 310.488723 188.307824 
L 316.466223 186.901064 
L 322.443723 184.482985 
L 334.398723 177.830809 
L 340.376223 172.294196 
L 346.353723 164.368087 
L 352.331223 150.91007 
L 358.308723 138.938616 
L 364.286223 126.141599 
L 370.263723 108.454613 
L 376.241224 86.152935 
L 382.218724 53.895585 
L 388.196224 11.426602 
L 389.530314 -1 
M 566.454667 -1 
L 569.32875 7.065767 
L 569.32875 7.065767 
" clip-path="url(#p27b16f0f59)" style="fill: none; stroke: #8c564b; stroke-width: 1.5; stroke-linecap: square"/>
   </g>
   <g id="line2d_19">
    <path d="M -1 219.607955 
L -0.341279 219.420234 
L 5.636221 221.250034 
L 11.613721 227.431354 
L 17.591221 232.986513 
L 23.568721 231.063624 
L 29.546222 228.348348 
L 35.523722 226.998246 
L 41.501222 223.154985 
L 47.478722 218.828364 
L 53.456222 208.085001 
L 59.433722 194.693975 
L 65.411222 179.033955 
L 71.388722 158.575729 
L 77.366222 137.053213 
L 83.343722 116.70688 
L 89.321222 106.971904 
L 95.298722 115.370128 
L 101.276222 128.745323 
L 107.253722 146.711553 
L 113.231222 166.817778 
L 119.208722 181.755072 
L 125.186222 193.477975 
L 131.163722 202.352744 
L 137.141222 210.160099 
L 143.118722 214.372059 
L 149.096222 218.079449 
L 155.073722 220.963983 
L 161.051222 220.848339 
L 167.028722 221.562212 
L 173.006222 220.523147 
L 178.983722 219.765167 
L 184.961222 219.999628 
L 190.938722 216.541886 
L 196.916222 211.471847 
L 214.848723 202.84619 
L 220.826223 198.366285 
L 226.803723 189.182721 
L 232.781223 178.833289 
L 238.758723 169.468819 
L 244.736223 157.684428 
L 250.713723 139.876512 
L 256.691223 116.121852 
L 262.668723 98.055333 
L 268.646223 97.209274 
L 274.623723 112.924857 
L 280.601223 135.03083 
L 286.578723 153.1834 
L 292.556223 168.0315 
L 298.533723 178.304613 
L 304.511223 184.098594 
L 310.488723 185.470354 
L 322.443723 182.497014 
L 328.421223 179.77354 
L 334.398723 175.685219 
L 340.376223 169.741356 
L 346.353723 162.216038 
L 358.308723 137.721939 
L 364.286223 124.429787 
L 370.263723 106.55899 
L 376.241224 84.506785 
L 382.218724 52.015509 
L 388.196224 9.150594 
L 389.294979 -1 
M 566.961747 -1 
L 569.32875 5.305494 
L 569.32875 5.305494 
" clip-path="url(#p27b16f0f59)" style="fill: none; stroke: #e377c2; stroke-width: 1.5; stroke-linecap: square"/>
   </g>
   <g id="line2d_20">
    <path d="M -1 217.049978 
L -0.341279 216.841539 
L 5.636221 218.315666 
L 11.613721 223.231245 
L 17.591221 227.581799 
L 23.568721 227.423326 
L 29.546222 224.883129 
L 35.523722 222.720176 
L 41.501222 219.285314 
L 47.478722 214.708681 
L 53.456222 204.533216 
L 59.433722 190.623466 
L 65.411222 174.18015 
L 71.388722 153.611881 
L 77.366222 132.177249 
L 83.343722 113.004424 
L 89.321222 105.087613 
L 95.298722 112.899108 
L 101.276222 126.280501 
L 113.231222 162.300985 
L 119.208722 175.700778 
L 125.186222 186.720696 
L 131.163722 195.295617 
L 137.141222 201.825321 
L 143.118722 205.948843 
L 149.096222 210.234858 
L 155.073722 213.382074 
L 161.051222 214.201072 
L 167.028722 214.616809 
L 173.006222 213.485514 
L 178.983722 212.585759 
L 184.961222 212.058891 
L 190.938722 208.826747 
L 196.916222 203.858655 
L 202.893723 200.669414 
L 214.848723 195.585866 
L 220.826223 191.750673 
L 226.803723 184.29474 
L 232.781223 175.116259 
L 238.758723 166.209708 
L 244.736223 154.943108 
L 250.713723 137.937423 
L 256.691223 116.059915 
L 262.668723 99.261536 
L 268.646223 98.163055 
L 274.623723 112.538076 
L 280.601223 132.824544 
L 286.578723 149.764099 
L 292.556223 162.880184 
L 298.533723 171.918662 
L 304.511223 178.062649 
L 310.488723 180.133578 
L 316.466223 179.02649 
L 322.443723 177.157871 
L 328.421223 174.339429 
L 334.398723 170.485322 
L 340.376223 164.654509 
L 346.353723 157.02466 
L 352.331223 145.211252 
L 358.308723 133.078493 
L 364.286223 120.506532 
L 370.263723 102.960356 
L 376.241224 80.05237 
L 382.218724 47.16141 
L 388.196224 4.38474 
L 388.789195 -1 
M 568.899182 -1 
L 569.32875 0.189912 
L 569.32875 0.189912 
" clip-path="url(#p27b16f0f59)" style="fill: none; stroke: #7f7f7f; stroke-width: 1.5; stroke-linecap: square"/>
   </g>
   <g id="line2d_21">
    <path d="M -1 216.970296 
L -0.341279 216.775165 
L 5.636221 217.888498 
L 11.613721 222.340434 
L 17.591221 226.374196 
L 23.568721 225.88979 
L 29.546222 222.617295 
L 35.523722 220.195108 
L 41.501222 216.925754 
L 47.478722 212.466113 
L 53.456222 202.11629 
L 59.433722 187.694081 
L 65.411222 171.20349 
L 71.388722 151.502494 
L 77.366222 131.186139 
L 83.343722 113.811929 
L 89.321222 107.685751 
L 95.298722 116.210937 
L 101.276222 128.791473 
L 107.253722 144.338761 
L 113.231222 159.458328 
L 119.208722 170.527689 
L 125.186222 179.371523 
L 131.163722 186.244645 
L 137.141222 191.921409 
L 143.118722 196.118921 
L 149.096222 201.268411 
L 155.073722 205.210802 
L 161.051222 206.90146 
L 167.028722 207.579327 
L 173.006222 206.814215 
L 178.983722 205.690204 
L 184.961222 204.054046 
L 190.938722 199.564497 
L 196.916222 194.218325 
L 202.893723 191.389106 
L 208.871223 189.485428 
L 214.848723 187.780293 
L 220.826223 185.754959 
L 226.803723 181.284699 
L 232.781223 174.528663 
L 238.758723 166.917933 
L 244.736223 157.159308 
L 250.713723 142.563473 
L 256.691223 123.154237 
L 262.668723 107.59927 
L 268.646223 105.632523 
L 274.623723 117.963363 
L 280.601223 135.289119 
L 286.578723 148.990093 
L 292.556223 158.797194 
L 298.533723 165.914423 
L 304.511223 171.555807 
L 310.488723 173.766266 
L 316.466223 172.470439 
L 322.443723 170.405385 
L 328.421223 167.84321 
L 334.398723 164.117436 
L 340.376223 157.978926 
L 346.353723 149.801774 
L 358.308723 126.530903 
L 364.286223 114.364146 
L 370.263723 96.864816 
L 376.241224 74.155457 
L 382.218724 42.236043 
L 388.362222 -1 
L 388.362222 -1 
" clip-path="url(#p27b16f0f59)" style="fill: none; stroke: #bcbd22; stroke-width: 1.5; stroke-linecap: square"/>
   </g>
   <g id="line2d_22">
    <path d="M -1 215.690961 
L -0.341279 215.548744 
L 5.636221 216.7272 
L 11.613721 220.51096 
L 17.591221 223.839529 
L 23.568721 223.443002 
L 29.546222 218.837605 
L 41.501222 213.966184 
L 47.478722 209.178596 
L 53.456222 198.947366 
L 59.433722 184.109306 
L 65.411222 167.694743 
L 77.366222 128.63976 
L 83.343722 114.268957 
L 89.321222 111.978593 
L 95.298722 121.411969 
L 107.253722 144.657807 
L 113.231222 154.413861 
L 119.208722 161.01359 
L 125.186222 165.481124 
L 131.163722 168.809954 
L 137.141222 172.37382 
L 143.118722 177.110281 
L 149.096222 183.557836 
L 155.073722 188.671165 
L 161.051222 191.767067 
L 167.028722 192.691658 
L 173.006222 191.664216 
L 178.983722 188.436314 
L 184.961222 183.706389 
L 190.938722 175.447594 
L 196.916222 163.281947 
L 202.893723 155.523855 
L 208.871223 152.199166 
L 214.848723 152.360651 
L 220.826223 155.364684 
L 226.803723 157.616215 
L 232.781223 156.891842 
L 238.758723 154.155408 
L 244.736223 148.821615 
L 250.713723 138.731693 
L 256.691223 124.01383 
L 262.668723 110.477116 
L 268.646223 105.773405 
L 274.623723 109.920554 
L 280.601223 115.335361 
L 286.578723 116.186206 
L 292.556223 114.649793 
L 298.533723 117.513315 
L 310.488723 138.029025 
L 316.466223 143.90631 
L 322.443723 147.534114 
L 328.421223 149.641688 
L 334.398723 148.976406 
L 340.376223 144.835666 
L 346.353723 138.152211 
L 352.331223 128.459491 
L 358.308723 118.257256 
L 364.286223 107.349232 
L 370.263723 90.950688 
L 376.241224 69.023813 
L 382.218724 37.803533 
L 387.836739 -1 
L 387.836739 -1 
" clip-path="url(#p27b16f0f59)" style="fill: none; stroke: #17becf; stroke-width: 1.5; stroke-linecap: square"/>
   </g>
   <g id="line2d_23">
    <path d="M -1 220.214184 
L -0.341279 220.091375 
L 5.636221 220.895168 
L 11.613721 223.656977 
L 17.591221 226.165863 
L 23.568721 225.387878 
L 29.546222 219.557489 
L 35.523722 217.313474 
L 41.501222 215.469395 
L 47.478722 210.504061 
L 53.456222 200.29999 
L 59.433722 185.384095 
L 65.411222 169.153245 
L 71.388722 150.228198 
L 77.366222 132.627218 
L 83.343722 121.513772 
L 89.321222 122.355337 
L 95.298722 132.174895 
L 101.276222 142.367345 
L 107.253722 150.480393 
L 113.231222 154.990856 
L 119.208722 157.173258 
L 125.186222 157.58421 
L 131.163722 157.7936 
L 137.141222 159.789687 
L 143.118722 164.648799 
L 149.096222 171.834941 
L 155.073722 178.004144 
L 161.051222 182.718731 
L 167.028722 184.534752 
L 173.006222 184.047759 
L 178.983722 180.184882 
L 184.961222 174.112449 
L 190.938722 164.685295 
L 196.916222 151.027015 
L 202.893723 143.010107 
L 208.871223 140.97934 
L 214.848723 143.302522 
L 220.826223 149.511831 
L 226.803723 156.072422 
L 232.781223 159.364732 
L 238.758723 159.798328 
L 244.736223 157.980634 
L 250.713723 152.420478 
L 256.691223 142.676343 
L 262.668723 132.230529 
L 268.646223 126.61088 
L 274.623723 125.974507 
L 280.601223 124.717006 
L 286.578723 119.429691 
L 292.556223 112.335196 
L 298.533723 111.691046 
L 304.511223 120.537235 
L 310.488723 130.676347 
L 316.466223 136.801909 
L 322.443723 140.27691 
L 328.421223 142.235005 
L 334.398723 141.438362 
L 340.376223 137.018751 
L 346.353723 129.668032 
L 352.331223 119.932758 
L 358.308723 110.456825 
L 364.286223 100.654061 
L 370.263723 84.931753 
L 376.241224 63.418385 
L 382.218724 32.699917 
L 387.19121 -1 
L 387.19121 -1 
" clip-path="url(#p27b16f0f59)" style="fill: none; stroke: #1f77b4; stroke-width: 1.5; stroke-linecap: square"/>
   </g>
   <g id="line2d_24">
    <path d="M -1 218.664635 
L -0.341279 218.575669 
L 5.636221 219.863818 
L 11.613721 222.009445 
L 17.591221 223.248472 
L 23.568721 222.272633 
L 29.546222 216.859789 
L 41.501222 212.63664 
L 47.478722 207.204881 
L 53.456222 197.197842 
L 59.433722 182.299644 
L 65.411222 165.700615 
L 71.388722 146.397159 
L 77.366222 129.019984 
L 83.343722 119.748438 
L 89.321222 123.193044 
L 95.298722 133.127457 
L 101.276222 142.138864 
L 107.253722 148.535201 
L 113.231222 150.766915 
L 119.208722 150.652814 
L 125.186222 149.094929 
L 131.163722 148.21074 
L 137.141222 149.270549 
L 143.118722 153.763509 
L 149.096222 161.432362 
L 155.073722 168.44537 
L 161.051222 174.298597 
L 167.028722 176.413589 
L 173.006222 175.672428 
L 178.983722 171.318748 
L 184.961222 164.645331 
L 190.938722 154.392505 
L 196.916222 139.884983 
L 202.893723 131.858299 
L 208.871223 130.933677 
L 214.848723 134.80701 
L 220.826223 142.264877 
L 226.803723 150.515857 
L 232.781223 156.31886 
L 238.758723 159.289334 
L 244.736223 159.588092 
L 250.713723 155.654161 
L 256.691223 148.042692 
L 262.668723 139.777256 
L 268.646223 134.3307 
L 274.623723 131.115908 
L 280.601223 125.823891 
L 286.578723 117.380357 
L 292.556223 108.238014 
L 298.533723 106.209777 
L 304.511223 113.743063 
L 310.488723 123.68043 
L 316.466223 130.821091 
L 322.443723 135.305395 
L 328.421223 137.421987 
L 334.398723 136.317378 
L 340.376223 132.119051 
L 346.353723 125.333311 
L 352.331223 115.959506 
L 358.308723 106.045614 
L 364.286223 96.604898 
L 370.263723 81.539739 
L 376.241224 60.087695 
L 382.218724 29.050715 
L 386.636656 -1 
L 386.636656 -1 
" clip-path="url(#p27b16f0f59)" style="fill: none; stroke: #ff7f0e; stroke-width: 1.5; stroke-linecap: square"/>
   </g>
   <g id="line2d_25">
    <path d="M -1 215.786337 
L -0.341279 215.680279 
L 5.636221 216.875642 
L 11.613721 218.333262 
L 17.591221 218.851682 
L 23.568721 217.944086 
L 29.546222 211.617962 
L 35.523722 209.690708 
L 41.501222 208.404758 
L 47.478722 202.921119 
L 53.456222 193.349703 
L 59.433722 178.137096 
L 65.411222 161.259313 
L 71.388722 142.004906 
L 77.366222 124.888402 
L 83.343722 117.099154 
L 89.321222 121.960805 
L 95.298722 131.565876 
L 101.276222 140.332192 
L 107.253722 145.873529 
L 113.231222 145.914577 
L 119.208722 144.33958 
L 125.186222 141.185241 
L 131.163722 138.925574 
L 137.141222 138.960857 
L 143.118722 143.7827 
L 149.096222 151.8103 
L 155.073722 159.297217 
L 161.051222 166.21352 
L 167.028722 168.452353 
L 173.006222 168.138429 
L 178.983722 163.163258 
L 184.961222 155.499521 
L 190.938722 145.113585 
L 196.916222 130.332428 
L 202.893723 122.268177 
L 208.871223 121.957103 
L 214.848723 126.375344 
L 220.826223 135.206136 
L 226.803723 145.328148 
L 232.781223 152.294268 
L 238.758723 156.531297 
L 244.736223 158.326437 
L 250.713723 155.976744 
L 256.691223 150.41937 
L 262.668723 143.478756 
L 268.646223 137.713606 
L 274.623723 132.708041 
L 280.601223 124.734489 
L 286.578723 114.119163 
L 292.556223 102.799247 
L 298.533723 99.849527 
L 304.511223 107.409556 
L 310.488723 117.506555 
L 316.466223 124.945733 
L 322.443723 129.743899 
L 328.421223 132.047668 
L 334.398723 130.737445 
L 340.376223 126.279017 
L 346.353723 119.34791 
L 352.331223 110.573173 
L 358.308723 100.77853 
L 364.286223 91.770717 
L 370.263723 76.873476 
L 376.241224 55.524537 
L 382.218724 24.614665 
L 385.964518 -1 
L 385.964518 -1 
" clip-path="url(#p27b16f0f59)" style="fill: none; stroke: #2ca02c; stroke-width: 1.5; stroke-linecap: square"/>
   </g>
   <g id="line2d_26">
    <path d="M -1 209.165372 
L -0.341279 209.057581 
L 5.636221 210.731021 
L 11.613721 211.016037 
L 23.568721 208.12919 
L 29.546222 201.022656 
L 35.523722 200.645432 
L 41.501222 200.841731 
L 47.478722 194.862267 
L 53.456222 185.476768 
L 59.433722 169.734071 
L 65.411222 152.401795 
L 71.388722 132.305019 
L 77.366222 114.250298 
L 83.343722 107.699192 
L 89.321222 115.480609 
L 95.298722 126.132629 
L 101.276222 134.84751 
L 107.253722 139.137101 
L 113.231222 136.886883 
L 119.208722 133.763757 
L 125.186222 128.783574 
L 131.163722 125.26183 
L 137.141222 123.732923 
L 143.118722 128.676369 
L 149.096222 136.779698 
L 155.073722 144.691978 
L 161.051222 153.305475 
L 167.028722 156.086045 
L 173.006222 156.412998 
L 178.983722 150.267075 
L 184.961222 140.638977 
L 190.938722 129.458757 
L 196.916222 115.357315 
L 202.893723 108.381848 
L 208.871223 109.05285 
L 214.848723 113.635429 
L 220.826223 123.491325 
L 226.803723 135.980286 
L 232.781223 144.642944 
L 238.758723 149.923165 
L 244.736223 152.728939 
L 250.713723 152.130476 
L 256.691223 149.195645 
L 262.668723 143.960171 
L 268.646223 138.303476 
L 274.623723 131.687424 
L 280.601223 120.596896 
L 286.578723 107.030163 
L 292.556223 92.389705 
L 298.533723 88.102922 
L 304.511223 95.771999 
L 310.488723 106.723741 
L 316.466223 114.962431 
L 322.443723 120.020453 
L 328.421223 122.689229 
L 334.398723 121.509479 
L 340.376223 116.598361 
L 346.353723 108.710293 
L 352.331223 100.142412 
L 358.308723 90.718347 
L 364.286223 82.919078 
L 370.263723 68.399296 
L 376.241224 47.138678 
L 382.218724 16.472955 
L 384.755595 -1 
L 384.755595 -1 
" clip-path="url(#p27b16f0f59)" style="fill: none; stroke: #d62728; stroke-width: 1.5; stroke-linecap: square"/>
   </g>
   <g id="line2d_27">
    <path d="M -1 202.543175 
L -0.341279 202.449208 
L 5.636221 205.318157 
L 11.613721 204.888368 
L 17.591221 201.838841 
L 23.568721 198.17876 
L 29.546222 188.793729 
L 35.523722 191.332631 
L 41.501222 193.546116 
L 47.478722 187.175252 
L 53.456222 178.041419 
L 59.433722 161.997262 
L 65.411222 145.036947 
L 71.388722 123.890381 
L 77.366222 103.899468 
L 83.343722 97.454637 
L 89.321222 107.321889 
L 95.298722 119.576937 
L 101.276222 128.951112 
L 107.253722 131.585805 
L 113.231222 127.806604 
L 119.208722 124.970854 
L 125.186222 118.466505 
L 131.163722 112.934224 
L 137.141222 110.06841 
L 143.118722 115.719272 
L 149.096222 123.183935 
L 155.073722 131.536194 
L 161.051222 141.41228 
L 167.028722 144.775128 
L 173.006222 146.577328 
L 178.983722 139.265298 
L 184.961222 127.48815 
L 190.938722 114.777917 
L 196.916222 101.012922 
L 202.893723 96.254195 
L 208.871223 98.535167 
L 214.848723 102.972778 
L 220.826223 113.447992 
L 226.803723 127.631112 
L 232.781223 137.625245 
L 238.758723 143.854136 
L 244.736223 146.866598 
L 250.713723 147.361551 
L 256.691223 147.319402 
L 262.668723 143.534593 
L 268.646223 137.615479 
L 274.623723 129.926382 
L 280.601223 117.069859 
L 286.578723 101.40174 
L 292.556223 83.466648 
L 298.533723 77.689301 
L 304.511223 85.287115 
L 310.488723 97.653061 
L 316.466223 106.825958 
L 322.443723 111.794408 
L 328.421223 114.41176 
L 334.398723 113.768086 
L 340.376223 108.888059 
L 346.353723 99.34299 
L 352.331223 89.548392 
L 358.308723 81.037446 
L 364.286223 75.765414 
L 370.263723 61.346339 
L 376.241224 39.438863 
L 382.218724 8.976049 
L 383.69941 -1 
L 383.69941 -1 
" clip-path="url(#p27b16f0f59)" style="fill: none; stroke: #9467bd; stroke-width: 1.5; stroke-linecap: square"/>
   </g>
   <g id="line2d_28">
    <path d="M -1 194.762667 
L -0.341279 194.723941 
L 5.636221 198.012866 
L 11.613721 196.012724 
L 17.591221 191.900461 
L 23.568721 187.26174 
L 29.546222 175.893475 
L 35.523722 181.118531 
L 41.501222 184.811822 
L 47.478722 178.349503 
L 53.456222 170.029457 
L 59.433722 153.693623 
L 65.411222 136.817652 
L 71.388722 114.16592 
L 77.366222 92.610531 
L 83.343722 86.689453 
L 89.321222 96.899081 
L 95.298722 109.424125 
L 101.276222 120.152314 
L 107.253722 122.986723 
L 113.231222 118.895018 
L 119.208722 116.3876 
L 125.186222 109.014152 
L 131.163722 102.61144 
L 137.141222 98.650279 
L 143.118722 104.569253 
L 149.096222 110.719437 
L 155.073722 119.770908 
L 161.051222 130.947476 
L 167.028722 134.444623 
L 173.006222 137.192875 
L 178.983722 128.789688 
L 184.961222 115.829159 
L 196.916222 88.422522 
L 202.893723 85.76213 
L 214.848723 93.822633 
L 220.826223 104.168182 
L 226.803723 118.545388 
L 232.781223 129.0986 
L 238.758723 136.348038 
L 244.736223 139.117434 
L 250.713723 139.057991 
L 256.691223 140.315033 
L 262.668723 137.695093 
L 268.646223 132.336459 
L 274.623723 124.216043 
L 280.601223 110.390457 
L 286.578723 94.04242 
L 292.556223 74.305928 
L 298.533723 67.919401 
L 304.511223 75.253041 
L 310.488723 88.871388 
L 316.466223 99.220321 
L 322.443723 104.227203 
L 328.421223 106.258971 
L 334.398723 105.466013 
L 340.376223 100.313966 
L 346.353723 89.561198 
L 352.331223 78.344862 
L 358.308723 69.943209 
L 364.286223 67.582903 
L 370.263723 54.145277 
L 376.241224 32.345398 
L 382.218724 1.61445 
L 382.605167 -1 
L 382.605167 -1 
" clip-path="url(#p27b16f0f59)" style="fill: none; stroke: #8c564b; stroke-width: 1.5; stroke-linecap: square"/>
   </g>
   <g id="line2d_29">
    <path clip-path="url(#p27b16f0f59)" style="fill: none; stroke-dasharray: 3.7,1.6; stroke-dashoffset: 0; stroke: #808080"/>
   </g>
   <g id="line2d_30">
    <path clip-path="url(#p27b16f0f59)" style="fill: none; stroke-dasharray: 3.7,1.6; stroke-dashoffset: 0; stroke: #808080"/>
   </g>
   <g id="line2d_31">
    <path d="M 181.56365 242.918125 
L 181.56365 22.318125 
" clip-path="url(#p27b16f0f59)" style="fill: none; stroke-dasharray: 3.7,1.6; stroke-dashoffset: 0; stroke: #808080"/>
   </g>
   <g id="line2d_32">
    <path d="M 226.45605 242.918125 
L 226.45605 22.318125 
" clip-path="url(#p27b16f0f59)" style="fill: none; stroke-dasharray: 3.7,1.6; stroke-dashoffset: 0; stroke: #808080"/>
   </g>
   <g id="patch_3">
    <path d="M 56.50625 242.918125 
L 56.50625 22.318125 
" style="fill: none; stroke: #000000; stroke-width: 0.8; stroke-linejoin: miter; stroke-linecap: square"/>
   </g>
   <g id="patch_4">
    <path d="M 377.16625 242.918125 
L 377.16625 22.318125 
" style="fill: none; stroke: #000000; stroke-width: 0.8; stroke-linejoin: miter; stroke-linecap: square"/>
   </g>
   <g id="patch_5">
    <path d="M 56.50625 242.918125 
L 377.16625 242.918125 
" style="fill: none; stroke: #000000; stroke-width: 0.8; stroke-linejoin: miter; stroke-linecap: square"/>
   </g>
   <g id="patch_6">
    <path d="M 56.50625 22.318125 
L 377.16625 22.318125 
" style="fill: none; stroke: #000000; stroke-width: 0.8; stroke-linejoin: miter; stroke-linecap: square"/>
   </g>
   <g id="text_15">
    <!-- In-situ IR spectra for C2_E6 -->
    <g transform="translate(135.298125 16.318125) scale(0.12 -0.12)">
     <defs>
      <path id="DejaVuSans-49" d="M 628 4666 
L 1259 4666 
L 1259 0 
L 628 0 
L 628 4666 
z
" transform="scale(0.015625)"/>
      <path id="DejaVuSans-2d" d="M 313 2009 
L 1997 2009 
L 1997 1497 
L 313 1497 
L 313 2009 
z
" transform="scale(0.015625)"/>
      <path id="DejaVuSans-69" d="M 603 3500 
L 1178 3500 
L 1178 0 
L 603 0 
L 603 3500 
z
M 603 4863 
L 1178 4863 
L 1178 4134 
L 603 4134 
L 603 4863 
z
" transform="scale(0.015625)"/>
      <path id="DejaVuSans-74" d="M 1172 4494 
L 1172 3500 
L 2356 3500 
L 2356 3053 
L 1172 3053 
L 1172 1153 
Q 1172 725 1289 603 
Q 1406 481 1766 481 
L 2356 481 
L 2356 0 
L 1766 0 
Q 1100 0 847 248 
Q 594 497 594 1153 
L 594 3053 
L 172 3053 
L 172 3500 
L 594 3500 
L 594 4494 
L 1172 4494 
z
" transform="scale(0.015625)"/>
      <path id="DejaVuSans-52" d="M 2841 2188 
Q 3044 2119 3236 1894 
Q 3428 1669 3622 1275 
L 4263 0 
L 3584 0 
L 2988 1197 
Q 2756 1666 2539 1819 
Q 2322 1972 1947 1972 
L 1259 1972 
L 1259 0 
L 628 0 
L 628 4666 
L 2053 4666 
Q 2853 4666 3247 4331 
Q 3641 3997 3641 3322 
Q 3641 2881 3436 2590 
Q 3231 2300 2841 2188 
z
M 1259 4147 
L 1259 2491 
L 2053 2491 
Q 2509 2491 2742 2702 
Q 2975 2913 2975 3322 
Q 2975 3731 2742 3939 
Q 2509 4147 2053 4147 
L 1259 4147 
z
" transform="scale(0.015625)"/>
      <path id="DejaVuSans-70" d="M 1159 525 
L 1159 -1331 
L 581 -1331 
L 581 3500 
L 1159 3500 
L 1159 2969 
Q 1341 3281 1617 3432 
Q 1894 3584 2278 3584 
Q 2916 3584 3314 3078 
Q 3713 2572 3713 1747 
Q 3713 922 3314 415 
Q 2916 -91 2278 -91 
Q 1894 -91 1617 61 
Q 1341 213 1159 525 
z
M 3116 1747 
Q 3116 2381 2855 2742 
Q 2594 3103 2138 3103 
Q 1681 3103 1420 2742 
Q 1159 2381 1159 1747 
Q 1159 1113 1420 752 
Q 1681 391 2138 391 
Q 2594 391 2855 752 
Q 3116 1113 3116 1747 
z
" transform="scale(0.015625)"/>
      <path id="DejaVuSans-66" d="M 2375 4863 
L 2375 4384 
L 1825 4384 
Q 1516 4384 1395 4259 
Q 1275 4134 1275 3809 
L 1275 3500 
L 2222 3500 
L 2222 3053 
L 1275 3053 
L 1275 0 
L 697 0 
L 697 3053 
L 147 3053 
L 147 3500 
L 697 3500 
L 697 3744 
Q 697 4328 969 4595 
Q 1241 4863 1831 4863 
L 2375 4863 
z
" transform="scale(0.015625)"/>
      <path id="DejaVuSans-43" d="M 4122 4306 
L 4122 3641 
Q 3803 3938 3442 4084 
Q 3081 4231 2675 4231 
Q 1875 4231 1450 3742 
Q 1025 3253 1025 2328 
Q 1025 1406 1450 917 
Q 1875 428 2675 428 
Q 3081 428 3442 575 
Q 3803 722 4122 1019 
L 4122 359 
Q 3791 134 3420 21 
Q 3050 -91 2638 -91 
Q 1578 -91 968 557 
Q 359 1206 359 2328 
Q 359 3453 968 4101 
Q 1578 4750 2638 4750 
Q 3056 4750 3426 4639 
Q 3797 4528 4122 4306 
z
" transform="scale(0.015625)"/>
      <path id="DejaVuSans-5f" d="M 3263 -1063 
L 3263 -1509 
L -63 -1509 
L -63 -1063 
L 3263 -1063 
z
" transform="scale(0.015625)"/>
      <path id="DejaVuSans-45" d="M 628 4666 
L 3578 4666 
L 3578 4134 
L 1259 4134 
L 1259 2753 
L 3481 2753 
L 3481 2222 
L 1259 2222 
L 1259 531 
L 3634 531 
L 3634 0 
L 628 0 
L 628 4666 
z
" transform="scale(0.015625)"/>
     </defs>
     <use xlink:href="#DejaVuSans-49"/>
     <use xlink:href="#DejaVuSans-6e" transform="translate(29.492188 0)"/>
     <use xlink:href="#DejaVuSans-2d" transform="translate(92.871094 0)"/>
     <use xlink:href="#DejaVuSans-73" transform="translate(128.955078 0)"/>
     <use xlink:href="#DejaVuSans-69" transform="translate(181.054688 0)"/>
     <use xlink:href="#DejaVuSans-74" transform="translate(208.837891 0)"/>
     <use xlink:href="#DejaVuSans-75" transform="translate(248.046875 0)"/>
     <use xlink:href="#DejaVuSans-20" transform="translate(311.425781 0)"/>
     <use xlink:href="#DejaVuSans-49" transform="translate(343.212891 0)"/>
     <use xlink:href="#DejaVuSans-52" transform="translate(372.705078 0)"/>
     <use xlink:href="#DejaVuSans-20" transform="translate(442.1875 0)"/>
     <use xlink:href="#DejaVuSans-73" transform="translate(473.974609 0)"/>
     <use xlink:href="#DejaVuSans-70" transform="translate(526.074219 0)"/>
     <use xlink:href="#DejaVuSans-65" transform="translate(589.550781 0)"/>
     <use xlink:href="#DejaVuSans-63" transform="translate(651.074219 0)"/>
     <use xlink:href="#DejaVuSans-74" transform="translate(706.054688 0)"/>
     <use xlink:href="#DejaVuSans-72" transform="translate(745.263672 0)"/>
     <use xlink:href="#DejaVuSans-61" transform="translate(786.376953 0)"/>
     <use xlink:href="#DejaVuSans-20" transform="translate(847.65625 0)"/>
     <use xlink:href="#DejaVuSans-66" transform="translate(879.443359 0)"/>
     <use xlink:href="#DejaVuSans-6f" transform="translate(914.648438 0)"/>
     <use xlink:href="#DejaVuSans-72" transform="translate(975.830078 0)"/>
     <use xlink:href="#DejaVuSans-20" transform="translate(1016.943359 0)"/>
     <use xlink:href="#DejaVuSans-43" transform="translate(1048.730469 0)"/>
     <use xlink:href="#DejaVuSans-32" transform="translate(1118.554688 0)"/>
     <use xlink:href="#DejaVuSans-5f" transform="translate(1182.177734 0)"/>
     <use xlink:href="#DejaVuSans-45" transform="translate(1232.177734 0)"/>
     <use xlink:href="#DejaVuSans-36" transform="translate(1295.361328 0)"/>
    </g>
   </g>
   <g id="legend_1">
    <g id="patch_7">
     <path d="M 384.16625 147.743125 
L 559.12875 147.743125 
Q 561.12875 147.743125 561.12875 145.743125 
L 561.12875 29.318125 
Q 561.12875 27.318125 559.12875 27.318125 
L 384.16625 27.318125 
Q 382.16625 27.318125 382.16625 29.318125 
L 382.16625 145.743125 
Q 382.16625 147.743125 384.16625 147.743125 
z
" style="fill: #ffffff; opacity: 0.8; stroke: #cccccc; stroke-linejoin: miter"/>
    </g>
    <g id="line2d_33">
     <path d="M 386.16625 35.416562 
L 396.16625 35.416562 
L 406.16625 35.416562 
" style="fill: none; stroke: #1f77b4; stroke-width: 1.5; stroke-linecap: square"/>
    </g>
    <g id="text_16">
     <!-- -0.7 min -->
     <g transform="translate(414.16625 38.916562) scale(0.1 -0.1)">
      <use xlink:href="#DejaVuSans-2d"/>
      <use xlink:href="#DejaVuSans-30" transform="translate(36.083984 0)"/>
      <use xlink:href="#DejaVuSans-2e" transform="translate(99.707031 0)"/>
      <use xlink:href="#DejaVuSans-37" transform="translate(131.494141 0)"/>
      <use xlink:href="#DejaVuSans-20" transform="translate(195.117188 0)"/>
      <use xlink:href="#DejaVuSans-6d" transform="translate(226.904297 0)"/>
      <use xlink:href="#DejaVuSans-69" transform="translate(324.316406 0)"/>
      <use xlink:href="#DejaVuSans-6e" transform="translate(352.099609 0)"/>
     </g>
    </g>
    <g id="line2d_34">
     <path d="M 386.16625 50.094688 
L 396.16625 50.094688 
L 406.16625 50.094688 
" style="fill: none; stroke: #ff7f0e; stroke-width: 1.5; stroke-linecap: square"/>
    </g>
    <g id="text_17">
     <!-- 2.3 min -->
     <g transform="translate(414.16625 53.594688) scale(0.1 -0.1)">
      <defs>
       <path id="DejaVuSans-33" d="M 2597 2516 
Q 3050 2419 3304 2112 
Q 3559 1806 3559 1356 
Q 3559 666 3084 287 
Q 2609 -91 1734 -91 
Q 1441 -91 1130 -33 
Q 819 25 488 141 
L 488 750 
Q 750 597 1062 519 
Q 1375 441 1716 441 
Q 2309 441 2620 675 
Q 2931 909 2931 1356 
Q 2931 1769 2642 2001 
Q 2353 2234 1838 2234 
L 1294 2234 
L 1294 2753 
L 1863 2753 
Q 2328 2753 2575 2939 
Q 2822 3125 2822 3475 
Q 2822 3834 2567 4026 
Q 2313 4219 1838 4219 
Q 1578 4219 1281 4162 
Q 984 4106 628 3988 
L 628 4550 
Q 988 4650 1302 4700 
Q 1616 4750 1894 4750 
Q 2613 4750 3031 4423 
Q 3450 4097 3450 3541 
Q 3450 3153 3228 2886 
Q 3006 2619 2597 2516 
z
" transform="scale(0.015625)"/>
      </defs>
      <use xlink:href="#DejaVuSans-32"/>
      <use xlink:href="#DejaVuSans-2e" transform="translate(63.623047 0)"/>
      <use xlink:href="#DejaVuSans-33" transform="translate(95.410156 0)"/>
      <use xlink:href="#DejaVuSans-20" transform="translate(159.033203 0)"/>
      <use xlink:href="#DejaVuSans-6d" transform="translate(190.820312 0)"/>
      <use xlink:href="#DejaVuSans-69" transform="translate(288.232422 0)"/>
      <use xlink:href="#DejaVuSans-6e" transform="translate(316.015625 0)"/>
     </g>
    </g>
    <g id="line2d_35">
     <path d="M 386.16625 64.772812 
L 396.16625 64.772812 
L 406.16625 64.772812 
" style="fill: none; stroke: #2ca02c; stroke-width: 1.5; stroke-linecap: square"/>
    </g>
    <g id="text_18">
     <!-- 4.0 min -->
     <g transform="translate(414.16625 68.272812) scale(0.1 -0.1)">
      <use xlink:href="#DejaVuSans-34"/>
      <use xlink:href="#DejaVuSans-2e" transform="translate(63.623047 0)"/>
      <use xlink:href="#DejaVuSans-30" transform="translate(95.410156 0)"/>
      <use xlink:href="#DejaVuSans-20" transform="translate(159.033203 0)"/>
      <use xlink:href="#DejaVuSans-6d" transform="translate(190.820312 0)"/>
      <use xlink:href="#DejaVuSans-69" transform="translate(288.232422 0)"/>
      <use xlink:href="#DejaVuSans-6e" transform="translate(316.015625 0)"/>
     </g>
    </g>
    <g id="line2d_36">
     <path d="M 386.16625 79.450938 
L 396.16625 79.450938 
L 406.16625 79.450938 
" style="fill: none; stroke: #d62728; stroke-width: 1.5; stroke-linecap: square"/>
    </g>
    <g id="text_19">
     <!-- 6.5 min -->
     <g transform="translate(414.16625 82.950938) scale(0.1 -0.1)">
      <use xlink:href="#DejaVuSans-36"/>
      <use xlink:href="#DejaVuSans-2e" transform="translate(63.623047 0)"/>
      <use xlink:href="#DejaVuSans-35" transform="translate(95.410156 0)"/>
      <use xlink:href="#DejaVuSans-20" transform="translate(159.033203 0)"/>
      <use xlink:href="#DejaVuSans-6d" transform="translate(190.820312 0)"/>
      <use xlink:href="#DejaVuSans-69" transform="translate(288.232422 0)"/>
      <use xlink:href="#DejaVuSans-6e" transform="translate(316.015625 0)"/>
     </g>
    </g>
    <g id="line2d_37">
     <path d="M 386.16625 94.129063 
L 396.16625 94.129063 
L 406.16625 94.129063 
" style="fill: none; stroke: #9467bd; stroke-width: 1.5; stroke-linecap: square"/>
    </g>
    <g id="text_20">
     <!-- 13.3 min -->
     <g transform="translate(414.16625 97.629063) scale(0.1 -0.1)">
      <use xlink:href="#DejaVuSans-31"/>
      <use xlink:href="#DejaVuSans-33" transform="translate(63.623047 0)"/>
      <use xlink:href="#DejaVuSans-2e" transform="translate(127.246094 0)"/>
      <use xlink:href="#DejaVuSans-33" transform="translate(159.033203 0)"/>
      <use xlink:href="#DejaVuSans-20" transform="translate(222.65625 0)"/>
      <use xlink:href="#DejaVuSans-6d" transform="translate(254.443359 0)"/>
      <use xlink:href="#DejaVuSans-69" transform="translate(351.855469 0)"/>
      <use xlink:href="#DejaVuSans-6e" transform="translate(379.638672 0)"/>
     </g>
    </g>
    <g id="line2d_38">
     <path d="M 386.16625 108.807187 
L 396.16625 108.807187 
L 406.16625 108.807187 
" style="fill: none; stroke: #8c564b; stroke-width: 1.5; stroke-linecap: square"/>
    </g>
    <g id="text_21">
     <!-- 13.3 min -->
     <g transform="translate(414.16625 112.307187) scale(0.1 -0.1)">
      <use xlink:href="#DejaVuSans-31"/>
      <use xlink:href="#DejaVuSans-33" transform="translate(63.623047 0)"/>
      <use xlink:href="#DejaVuSans-2e" transform="translate(127.246094 0)"/>
      <use xlink:href="#DejaVuSans-33" transform="translate(159.033203 0)"/>
      <use xlink:href="#DejaVuSans-20" transform="translate(222.65625 0)"/>
      <use xlink:href="#DejaVuSans-6d" transform="translate(254.443359 0)"/>
      <use xlink:href="#DejaVuSans-69" transform="translate(351.855469 0)"/>
      <use xlink:href="#DejaVuSans-6e" transform="translate(379.638672 0)"/>
     </g>
    </g>
    <g id="line2d_39">
     <path d="M 386.16625 123.485312 
L 396.16625 123.485312 
L 406.16625 123.485312 
" style="fill: none; stroke: #e377c2; stroke-width: 1.5; stroke-linecap: square"/>
    </g>
    <g id="text_22">
     <!-- 18.3 min -->
     <g transform="translate(414.16625 126.985312) scale(0.1 -0.1)">
      <use xlink:href="#DejaVuSans-31"/>
      <use xlink:href="#DejaVuSans-38" transform="translate(63.623047 0)"/>
      <use xlink:href="#DejaVuSans-2e" transform="translate(127.246094 0)"/>
      <use xlink:href="#DejaVuSans-33" transform="translate(159.033203 0)"/>
      <use xlink:href="#DejaVuSans-20" transform="translate(222.65625 0)"/>
      <use xlink:href="#DejaVuSans-6d" transform="translate(254.443359 0)"/>
      <use xlink:href="#DejaVuSans-69" transform="translate(351.855469 0)"/>
      <use xlink:href="#DejaVuSans-6e" transform="translate(379.638672 0)"/>
     </g>
    </g>
    <g id="line2d_40">
     <path d="M 386.16625 138.163437 
L 396.16625 138.163437 
L 406.16625 138.163437 
" style="fill: none; stroke: #7f7f7f; stroke-width: 1.5; stroke-linecap: square"/>
    </g>
    <g id="text_23">
     <!-- 36.8 min -->
     <g transform="translate(414.16625 141.663437) scale(0.1 -0.1)">
      <use xlink:href="#DejaVuSans-33"/>
      <use xlink:href="#DejaVuSans-36" transform="translate(63.623047 0)"/>
      <use xlink:href="#DejaVuSans-2e" transform="translate(127.246094 0)"/>
      <use xlink:href="#DejaVuSans-38" transform="translate(159.033203 0)"/>
      <use xlink:href="#DejaVuSans-20" transform="translate(222.65625 0)"/>
      <use xlink:href="#DejaVuSans-6d" transform="translate(254.443359 0)"/>
      <use xlink:href="#DejaVuSans-69" transform="translate(351.855469 0)"/>
      <use xlink:href="#DejaVuSans-6e" transform="translate(379.638672 0)"/>
     </g>
    </g>
    <g id="line2d_41">
     <path d="M 478.46625 35.416562 
L 488.46625 35.416562 
L 498.46625 35.416562 
" style="fill: none; stroke: #bcbd22; stroke-width: 1.5; stroke-linecap: square"/>
    </g>
    <g id="text_24">
     <!-- 48.8 min -->
     <g transform="translate(506.46625 38.916562) scale(0.1 -0.1)">
      <use xlink:href="#DejaVuSans-34"/>
      <use xlink:href="#DejaVuSans-38" transform="translate(63.623047 0)"/>
      <use xlink:href="#DejaVuSans-2e" transform="translate(127.246094 0)"/>
      <use xlink:href="#DejaVuSans-38" transform="translate(159.033203 0)"/>
      <use xlink:href="#DejaVuSans-20" transform="translate(222.65625 0)"/>
      <use xlink:href="#DejaVuSans-6d" transform="translate(254.443359 0)"/>
      <use xlink:href="#DejaVuSans-69" transform="translate(351.855469 0)"/>
      <use xlink:href="#DejaVuSans-6e" transform="translate(379.638672 0)"/>
     </g>
    </g>
    <g id="line2d_42">
     <path d="M 478.46625 50.094688 
L 488.46625 50.094688 
L 498.46625 50.094688 
" style="fill: none; stroke: #17becf; stroke-width: 1.5; stroke-linecap: square"/>
    </g>
    <g id="text_25">
     <!-- 72.3 min -->
     <g transform="translate(506.46625 53.594688) scale(0.1 -0.1)">
      <use xlink:href="#DejaVuSans-37"/>
      <use xlink:href="#DejaVuSans-32" transform="translate(63.623047 0)"/>
      <use xlink:href="#DejaVuSans-2e" transform="translate(127.246094 0)"/>
      <use xlink:href="#DejaVuSans-33" transform="translate(159.033203 0)"/>
      <use xlink:href="#DejaVuSans-20" transform="translate(222.65625 0)"/>
      <use xlink:href="#DejaVuSans-6d" transform="translate(254.443359 0)"/>
      <use xlink:href="#DejaVuSans-69" transform="translate(351.855469 0)"/>
      <use xlink:href="#DejaVuSans-6e" transform="translate(379.638672 0)"/>
     </g>
    </g>
    <g id="line2d_43">
     <path d="M 478.46625 64.772812 
L 488.46625 64.772812 
L 498.46625 64.772812 
" style="fill: none; stroke: #1f77b4; stroke-width: 1.5; stroke-linecap: square"/>
    </g>
    <g id="text_26">
     <!-- 107.8 min -->
     <g transform="translate(506.46625 68.272812) scale(0.1 -0.1)">
      <use xlink:href="#DejaVuSans-31"/>
      <use xlink:href="#DejaVuSans-30" transform="translate(63.623047 0)"/>
      <use xlink:href="#DejaVuSans-37" transform="translate(127.246094 0)"/>
      <use xlink:href="#DejaVuSans-2e" transform="translate(190.869141 0)"/>
      <use xlink:href="#DejaVuSans-38" transform="translate(222.65625 0)"/>
      <use xlink:href="#DejaVuSans-20" transform="translate(286.279297 0)"/>
      <use xlink:href="#DejaVuSans-6d" transform="translate(318.066406 0)"/>
      <use xlink:href="#DejaVuSans-69" transform="translate(415.478516 0)"/>
      <use xlink:href="#DejaVuSans-6e" transform="translate(443.261719 0)"/>
     </g>
    </g>
    <g id="line2d_44">
     <path d="M 478.46625 79.450938 
L 488.46625 79.450938 
L 498.46625 79.450938 
" style="fill: none; stroke: #ff7f0e; stroke-width: 1.5; stroke-linecap: square"/>
    </g>
    <g id="text_27">
     <!-- 117.1 min -->
     <g transform="translate(506.46625 82.950938) scale(0.1 -0.1)">
      <use xlink:href="#DejaVuSans-31"/>
      <use xlink:href="#DejaVuSans-31" transform="translate(63.623047 0)"/>
      <use xlink:href="#DejaVuSans-37" transform="translate(127.246094 0)"/>
      <use xlink:href="#DejaVuSans-2e" transform="translate(190.869141 0)"/>
      <use xlink:href="#DejaVuSans-31" transform="translate(222.65625 0)"/>
      <use xlink:href="#DejaVuSans-20" transform="translate(286.279297 0)"/>
      <use xlink:href="#DejaVuSans-6d" transform="translate(318.066406 0)"/>
      <use xlink:href="#DejaVuSans-69" transform="translate(415.478516 0)"/>
      <use xlink:href="#DejaVuSans-6e" transform="translate(443.261719 0)"/>
     </g>
    </g>
    <g id="line2d_45">
     <path d="M 478.46625 94.129063 
L 488.46625 94.129063 
L 498.46625 94.129063 
" style="fill: none; stroke: #2ca02c; stroke-width: 1.5; stroke-linecap: square"/>
    </g>
    <g id="text_28">
     <!-- 129.1 min -->
     <g transform="translate(506.46625 97.629063) scale(0.1 -0.1)">
      <defs>
       <path id="DejaVuSans-39" d="M 703 97 
L 703 672 
Q 941 559 1184 500 
Q 1428 441 1663 441 
Q 2288 441 2617 861 
Q 2947 1281 2994 2138 
Q 2813 1869 2534 1725 
Q 2256 1581 1919 1581 
Q 1219 1581 811 2004 
Q 403 2428 403 3163 
Q 403 3881 828 4315 
Q 1253 4750 1959 4750 
Q 2769 4750 3195 4129 
Q 3622 3509 3622 2328 
Q 3622 1225 3098 567 
Q 2575 -91 1691 -91 
Q 1453 -91 1209 -44 
Q 966 3 703 97 
z
M 1959 2075 
Q 2384 2075 2632 2365 
Q 2881 2656 2881 3163 
Q 2881 3666 2632 3958 
Q 2384 4250 1959 4250 
Q 1534 4250 1286 3958 
Q 1038 3666 1038 3163 
Q 1038 2656 1286 2365 
Q 1534 2075 1959 2075 
z
" transform="scale(0.015625)"/>
      </defs>
      <use xlink:href="#DejaVuSans-31"/>
      <use xlink:href="#DejaVuSans-32" transform="translate(63.623047 0)"/>
      <use xlink:href="#DejaVuSans-39" transform="translate(127.246094 0)"/>
      <use xlink:href="#DejaVuSans-2e" transform="translate(190.869141 0)"/>
      <use xlink:href="#DejaVuSans-31" transform="translate(222.65625 0)"/>
      <use xlink:href="#DejaVuSans-20" transform="translate(286.279297 0)"/>
      <use xlink:href="#DejaVuSans-6d" transform="translate(318.066406 0)"/>
      <use xlink:href="#DejaVuSans-69" transform="translate(415.478516 0)"/>
      <use xlink:href="#DejaVuSans-6e" transform="translate(443.261719 0)"/>
     </g>
    </g>
    <g id="line2d_46">
     <path d="M 478.46625 108.807187 
L 488.46625 108.807187 
L 498.46625 108.807187 
" style="fill: none; stroke: #d62728; stroke-width: 1.5; stroke-linecap: square"/>
    </g>
    <g id="text_29">
     <!-- 155.1 min -->
     <g transform="translate(506.46625 112.307187) scale(0.1 -0.1)">
      <use xlink:href="#DejaVuSans-31"/>
      <use xlink:href="#DejaVuSans-35" transform="translate(63.623047 0)"/>
      <use xlink:href="#DejaVuSans-35" transform="translate(127.246094 0)"/>
      <use xlink:href="#DejaVuSans-2e" transform="translate(190.869141 0)"/>
      <use xlink:href="#DejaVuSans-31" transform="translate(222.65625 0)"/>
      <use xlink:href="#DejaVuSans-20" transform="translate(286.279297 0)"/>
      <use xlink:href="#DejaVuSans-6d" transform="translate(318.066406 0)"/>
      <use xlink:href="#DejaVuSans-69" transform="translate(415.478516 0)"/>
      <use xlink:href="#DejaVuSans-6e" transform="translate(443.261719 0)"/>
     </g>
    </g>
    <g id="line2d_47">
     <path d="M 478.46625 123.485312 
L 488.46625 123.485312 
L 498.46625 123.485312 
" style="fill: none; stroke: #9467bd; stroke-width: 1.5; stroke-linecap: square"/>
    </g>
    <g id="text_30">
     <!-- 218.8 min -->
     <g transform="translate(506.46625 126.985312) scale(0.1 -0.1)">
      <use xlink:href="#DejaVuSans-32"/>
      <use xlink:href="#DejaVuSans-31" transform="translate(63.623047 0)"/>
      <use xlink:href="#DejaVuSans-38" transform="translate(127.246094 0)"/>
      <use xlink:href="#DejaVuSans-2e" transform="translate(190.869141 0)"/>
      <use xlink:href="#DejaVuSans-38" transform="translate(222.65625 0)"/>
      <use xlink:href="#DejaVuSans-20" transform="translate(286.279297 0)"/>
      <use xlink:href="#DejaVuSans-6d" transform="translate(318.066406 0)"/>
      <use xlink:href="#DejaVuSans-69" transform="translate(415.478516 0)"/>
      <use xlink:href="#DejaVuSans-6e" transform="translate(443.261719 0)"/>
     </g>
    </g>
    <g id="line2d_48">
     <path d="M 478.46625 138.163437 
L 488.46625 138.163437 
L 498.46625 138.163437 
" style="fill: none; stroke: #8c564b; stroke-width: 1.5; stroke-linecap: square"/>
    </g>
    <g id="text_31">
     <!-- 376.9 min -->
     <g transform="translate(506.46625 141.663437) scale(0.1 -0.1)">
      <use xlink:href="#DejaVuSans-33"/>
      <use xlink:href="#DejaVuSans-37" transform="translate(63.623047 0)"/>
      <use xlink:href="#DejaVuSans-36" transform="translate(127.246094 0)"/>
      <use xlink:href="#DejaVuSans-2e" transform="translate(190.869141 0)"/>
      <use xlink:href="#DejaVuSans-39" transform="translate(222.65625 0)"/>
      <use xlink:href="#DejaVuSans-20" transform="translate(286.279297 0)"/>
      <use xlink:href="#DejaVuSans-6d" transform="translate(318.066406 0)"/>
      <use xlink:href="#DejaVuSans-69" transform="translate(415.478516 0)"/>
      <use xlink:href="#DejaVuSans-6e" transform="translate(443.261719 0)"/>
     </g>
    </g>
   </g>
  </g>
 </g>
 <defs>
  <clipPath id="p27b16f0f59">
   <rect x="56.50625" y="22.318125" width="320.66" height="220.6"/>
  </clipPath>
 </defs>
</svg>
